<?xml version="1.0" standalone="no"?>
<!DOCTYPE svg PUBLIC "-//W3C//DTD SVG 1.1//EN" "http://www.w3.org/Graphics/SVG/1.1/DTD/svg11.dtd" >
<svg xmlns="http://www.w3.org/2000/svg" xmlns:xlink="http://www.w3.org/1999/xlink" version="1.1">
<metadata>
Created by FontForge 20161116 at Tue Oct  2 11:25:53 2012
 By Jimmy Wärting
Copyright (c) 2012 by Manuel Eduardo Corradine - Sergio Andre's Rami'rez. All rights reserved.
</metadata>
<defs>
<font id="Neuron-Bold" horiz-adv-x="465" >
  <font-face 
    font-family="Neuron"
    font-weight="700"
    font-stretch="normal"
    units-per-em="1000"
    panose-1="0 0 0 0 0 0 0 0 0 0"
    ascent="750"
    descent="-250"
    x-height="493"
    cap-height="621"
    bbox="-58 -244 874 880"
    underline-thickness="50"
    underline-position="-100"
    stemh="100"
    stemv="116"
    unicode-range="U+000D-2212"
  />
<missing-glyph horiz-adv-x="459" 
 />
    <glyph glyph-name=".notdef" horiz-adv-x="459" 
 />
    <glyph glyph-name="CR" unicode="&#xd;" horiz-adv-x="424" 
 />
    <glyph glyph-name="space" unicode=" " horiz-adv-x="209" 
 />
    <glyph glyph-name="exclam" unicode="!" horiz-adv-x="213" 
d="M106 160c-43 0 -51 5 -51 33c0 112 -7 265 -7 394c0 29 13 34 58 34c46 0 59 -5 59 -34c0 -129 -7 -282 -7 -394c0 -28 -8 -33 -52 -33zM107 0c-51 0 -60 7 -60 43v25c0 36 9 43 60 43c50 0 60 -7 60 -43v-25c0 -36 -10 -43 -60 -43z" />
    <glyph glyph-name="quotedbl" unicode="&#x22;" horiz-adv-x="316" 
d="M82 385c-32 0 -40 5 -43 26c-7 55 -16 146 -16 173c0 29 9 37 59 37c51 0 59 -8 59 -37c0 -27 -9 -118 -16 -173c-3 -21 -11 -26 -43 -26zM234 385c-32 0 -40 5 -43 26c-7 55 -16 146 -16 173c0 29 8 37 59 37c50 0 59 -8 59 -37c0 -27 -9 -118 -16 -173
c-3 -21 -12 -26 -43 -26z" />
    <glyph glyph-name="numbersign" unicode="#" 
d="M318 39c-37 0 -47 4 -47 33v100h-78v-100c0 -29 -11 -33 -47 -33c-37 0 -47 4 -47 33v100h-43c-28 0 -33 5 -33 41s5 41 33 41h43v127h-43c-28 0 -33 6 -33 41c0 36 5 42 33 42h43v92c0 30 10 34 47 34c36 0 47 -4 47 -34v-92h78v92c0 30 10 34 47 34c36 0 47 -4 47 -34
v-92h44c28 0 33 -6 33 -42c0 -35 -5 -41 -33 -41h-44v-127h44c28 0 33 -5 33 -41s-5 -41 -33 -41h-44v-100c0 -29 -11 -33 -47 -33zM193 381v-127h78v127h-78z" />
    <glyph glyph-name="dollar" unicode="$" 
d="M245 721c44 0 52 -4 52 -34v-65c32 -3 63 -9 88 -15c16 -4 24 -12 24 -54c0 -38 -8 -46 -20 -46c-15 0 -61 15 -132 15c-63 0 -92 -5 -92 -65c0 -37 11 -49 42 -63l120 -52c70 -30 98 -70 98 -163c0 -116 -59 -168 -146 -183v-71c0 -30 -8 -34 -53 -34
c-44 0 -52 4 -52 34v66c-40 3 -78 9 -106 17c-19 6 -28 14 -28 55c0 39 6 46 20 46c20 0 59 -15 134 -15c79 0 118 18 118 78c0 42 -7 64 -48 81l-115 49c-64 27 -97 64 -97 156c0 121 64 158 140 166v63c0 30 8 34 53 34z" />
    <glyph glyph-name="percent" unicode="%" horiz-adv-x="522" 
d="M143 335c-100 0 -123 28 -123 144s28 142 123 142s122 -26 122 -142c0 -35 -2 -62 -8 -82l118 201c10 17 19 23 63 23c29 0 40 -5 40 -17c0 -7 -2 -14 -13 -32l-180 -309c19 17 49 23 93 23c95 0 123 -25 123 -142c0 -116 -23 -144 -123 -144s-122 28 -122 144
c0 36 2 63 9 83l-119 -204c-10 -17 -20 -23 -63 -23c-29 0 -40 5 -40 16c0 8 2 15 12 33l179 307c-19 -16 -47 -21 -91 -21zM143 404c37 0 41 12 41 73c0 62 -4 74 -41 74c-38 0 -41 -12 -41 -74c0 -61 4 -73 41 -73zM378 70c37 0 41 12 41 73c0 62 -3 73 -41 73
c-37 0 -41 -11 -41 -73c0 -61 4 -73 41 -73z" />
    <glyph glyph-name="ampersand" unicode="&#x26;" horiz-adv-x="518" 
d="M480 270h-42v-134c0 -120 -73 -143 -194 -143c-144 0 -207 40 -207 172c0 95 36 143 129 149c-73 11 -104 73 -104 154c0 130 64 158 159 158c58 0 118 -8 160 -19c17 -5 23 -10 23 -51c0 -37 -8 -45 -22 -45c-18 0 -78 14 -137 14c-51 0 -65 -13 -65 -79
c0 -55 13 -92 102 -92h55v48c0 30 6 34 48 34c41 0 47 -4 47 -34v-48h48c26 0 31 -9 31 -42s-5 -42 -31 -42zM248 91c68 0 89 17 89 68v111h-59c-105 0 -123 -33 -123 -93s14 -86 93 -86z" />
    <glyph glyph-name="quotesingle" unicode="'" horiz-adv-x="164" 
d="M82 385c-32 0 -40 5 -43 26c-7 55 -16 146 -16 173c0 29 9 37 59 37c51 0 59 -8 59 -37c0 -27 -9 -118 -16 -173c-3 -21 -11 -26 -43 -26z" />
    <glyph glyph-name="parenleft" unicode="(" horiz-adv-x="218" 
d="M36 308c0 152 38 274 68 336c11 23 23 30 62 30c29 0 40 -8 40 -24c0 -32 -53 -136 -53 -342c0 -207 53 -310 53 -342c0 -16 -11 -25 -40 -25c-39 0 -51 8 -62 30c-30 62 -68 185 -68 337z" />
    <glyph glyph-name="parenright" unicode=")" horiz-adv-x="218" 
d="M182 308c0 -152 -38 -275 -68 -337c-11 -22 -23 -30 -62 -30c-29 0 -40 9 -40 25c0 32 53 135 53 342s-53 310 -53 342c0 16 11 24 40 24c39 0 51 -7 62 -30c30 -62 68 -184 68 -336z" />
    <glyph glyph-name="asterisk" unicode="*" horiz-adv-x="395" 
d="M198 626c38 0 45 -7 45 -26v-73c0 -9 -1 -15 -3 -21c5 4 10 7 19 10l66 21c18 6 26 1 38 -35s8 -45 -10 -51l-66 -21c-9 -3 -15 -4 -21 -4c5 -3 10 -8 15 -15l43 -59c11 -16 10 -25 -22 -47c-30 -22 -39 -22 -51 -6l-43 59c-6 7 -9 13 -11 19c-1 -6 -5 -11 -10 -19
l-43 -59c-11 -16 -20 -17 -51 6c-31 22 -33 32 -22 47l43 59c5 7 10 12 15 15c-6 0 -12 1 -20 4l-67 21c-18 6 -22 15 -10 51c11 36 20 41 38 35l66 -21c9 -3 15 -6 19 -10c-2 5 -2 12 -2 21v73c0 19 7 26 45 26z" />
    <glyph glyph-name="plus" unicode="+" 
d="M233 90c-42 0 -51 5 -51 31v102h-90c-26 0 -31 4 -31 46s5 45 31 45h90v103c0 26 9 31 51 31s51 -5 51 -31v-103h90c26 0 31 -3 31 -45s-5 -46 -31 -46h-90v-102c0 -26 -9 -31 -51 -31z" />
    <glyph glyph-name="comma" unicode="," horiz-adv-x="176" 
d="M89 122c51 0 59 -8 59 -43v-27c0 -32 -6 -60 -17 -92l-16 -48c-12 -37 -22 -42 -63 -42c-29 0 -35 7 -35 21c0 21 13 78 13 126v62c0 35 9 43 59 43z" />
    <glyph glyph-name="hyphen" unicode="-" horiz-adv-x="326" 
d="M30 257c0 42 5 51 31 51h204c26 0 31 -9 31 -51s-5 -51 -31 -51h-204c-26 0 -31 9 -31 51z" />
    <glyph glyph-name="period" unicode="." horiz-adv-x="188" 
d="M95 0c-51 0 -60 7 -60 43v36c0 36 9 43 60 43c50 0 60 -7 60 -43v-36c0 -36 -10 -43 -60 -43z" />
    <glyph glyph-name="slash" unicode="/" horiz-adv-x="275" 
d="M218 674c37 0 48 -8 48 -22c0 -5 -1 -16 -8 -48l-142 -632c-5 -23 -24 -30 -58 -30c-37 0 -49 8 -49 22c0 5 2 16 9 48l142 632c5 23 24 30 58 30z" />
    <glyph glyph-name="zero" unicode="0" 
d="M233 93c71 0 90 24 90 142v142c0 130 -15 149 -90 149c-71 0 -91 -19 -91 -149v-142c0 -118 15 -142 91 -142zM233 -7c-139 0 -207 39 -207 228v160c0 210 66 245 207 245c150 0 206 -40 206 -245v-159c0 -194 -76 -229 -206 -229z" />
    <glyph glyph-name="one" unicode="1" 
d="M61 51c0 42 8 52 31 52h83v394l-71 -19c-12 -3 -20 -4 -25 -4c-10 0 -20 4 -20 49c0 44 6 53 26 59l100 31c15 5 34 8 48 8c45 0 58 -5 58 -34v-484h84c23 0 31 -10 31 -52c0 -41 -8 -51 -31 -51h-283c-23 0 -31 10 -31 51z" />
    <glyph glyph-name="two" unicode="2" 
d="M175 103h216c23 0 31 -10 31 -52c0 -41 -8 -51 -31 -51h-315c-24 0 -33 5 -33 34v61c0 75 31 112 85 165l130 128c22 22 35 37 35 73c0 57 -18 64 -81 64c-67 0 -115 -17 -136 -17c-12 0 -18 7 -18 46c0 41 8 47 27 53c37 11 103 19 161 19c85 0 165 -10 165 -152
c0 -80 -29 -110 -101 -179l-103 -98c-20 -19 -32 -32 -32 -67v-27z" />
    <glyph glyph-name="three" unicode="3" 
d="M231 -7c-56 0 -129 7 -165 18c-20 6 -29 11 -29 52c0 39 6 46 20 46c20 0 85 -15 152 -15c80 0 95 32 95 90c0 59 -23 89 -141 89c-26 0 -31 11 -31 46c0 34 5 46 31 46c100 0 129 31 129 88c0 56 -13 72 -77 72c-63 0 -122 -15 -139 -15c-13 0 -21 8 -21 46
c0 42 9 47 24 51c41 11 107 19 168 19c99 0 163 -28 163 -158c0 -81 -38 -136 -112 -147c91 -6 124 -53 124 -148c0 -131 -67 -180 -191 -180z" />
    <glyph glyph-name="four" unicode="4" 
d="M327 0c-45 0 -58 5 -58 34v111h-211c-31 0 -39 6 -39 58c0 24 1 38 16 66l169 317c17 32 38 35 100 35c64 0 81 -5 81 -34v-345h31c23 0 31 -6 31 -48s-8 -49 -31 -49h-31v-111c0 -29 -13 -34 -58 -34zM271 515l-139 -273h143l2 273h-6z" />
    <glyph glyph-name="five" unicode="5" 
d="M211 -7c-47 0 -98 8 -135 18c-20 6 -28 10 -28 52c0 39 6 45 20 45c18 0 54 -15 125 -15c86 0 108 17 108 91v33c0 65 -19 76 -74 76c-58 0 -109 -15 -135 -15c-17 0 -32 1 -32 27v285c0 26 8 31 36 31h270c23 0 31 -10 31 -52s-8 -51 -31 -51h-201v-139
c16 5 58 11 94 11c73 0 158 -5 158 -165v-52c0 -160 -95 -180 -206 -180z" />
    <glyph glyph-name="six" unicode="6" 
d="M231 -7c-119 0 -196 24 -196 242v134c0 236 111 257 214 257c39 0 92 -7 124 -15c17 -4 24 -7 24 -51c0 -37 -8 -46 -20 -46c-15 0 -59 12 -115 12c-79 0 -116 -11 -116 -160v-39c20 38 61 59 132 59c101 0 151 -28 151 -187c0 -163 -60 -206 -198 -206zM234 93
c63 0 87 16 87 98c0 80 -13 101 -85 101c-65 0 -90 -20 -90 -87c0 -98 21 -112 88 -112z" />
    <glyph glyph-name="seven" unicode="7" 
d="M169 0c-42 0 -51 11 -51 25c0 13 3 23 12 46l165 447h-227c-24 0 -31 9 -31 51s7 52 31 52h310c32 0 40 -6 40 -58c0 -24 -5 -38 -15 -66l-169 -467c-9 -26 -31 -30 -65 -30z" />
    <glyph glyph-name="eight" unicode="8" 
d="M232 -7c-161 0 -201 50 -201 185c0 94 37 134 87 151c-45 19 -73 58 -73 142c0 131 76 155 187 155c112 0 187 -24 187 -155c0 -84 -28 -123 -73 -142c51 -17 89 -57 89 -151c0 -135 -42 -185 -203 -185zM232 91c70 0 86 16 86 98c0 83 -23 93 -86 93
c-62 0 -86 -10 -86 -93c0 -82 16 -98 86 -98zM232 374c57 0 73 7 73 82c0 69 -21 75 -73 75s-73 -6 -73 -75c0 -75 17 -82 73 -82z" />
    <glyph glyph-name="nine" unicode="9" 
d="M206 -7c-45 0 -82 6 -119 15c-20 4 -27 7 -27 51c0 37 7 46 20 46c15 0 52 -12 110 -12c95 0 126 12 126 162v33c-19 -36 -57 -57 -128 -57c-103 0 -150 29 -150 191c0 157 55 204 192 204c119 0 197 -25 197 -243v-131c0 -241 -109 -259 -221 -259zM227 326
c67 0 89 20 89 87c0 101 -14 116 -85 116c-69 0 -86 -18 -86 -101c0 -81 11 -102 82 -102z" />
    <glyph glyph-name="colon" unicode=":" horiz-adv-x="188" 
d="M95 0c-51 0 -60 7 -60 43v36c0 36 9 43 60 43c50 0 60 -7 60 -43v-36c0 -36 -10 -43 -60 -43zM95 376c-51 0 -60 7 -60 43v36c0 36 9 43 60 43c50 0 60 -7 60 -43v-36c0 -36 -10 -43 -60 -43z" />
    <glyph glyph-name="semicolon" unicode=";" horiz-adv-x="176" 
d="M83 122c51 0 59 -8 59 -43v-27c0 -32 -6 -60 -17 -92l-16 -48c-12 -37 -22 -42 -63 -42c-29 0 -35 7 -35 21c0 21 13 78 13 126v62c0 35 9 43 59 43zM83 376c-51 0 -60 7 -60 43v36c0 36 9 43 60 43c50 0 60 -7 60 -43v-36c0 -36 -10 -43 -60 -43z" />
    <glyph glyph-name="less" unicode="&#x3c;" 
d="M157 265l194 -61c30 -9 33 -16 33 -65c0 -39 -8 -45 -22 -45c-6 0 -14 1 -23 5l-235 83c-33 11 -42 23 -42 87c0 63 10 73 42 85l235 84c9 3 17 5 23 5c14 0 22 -7 22 -45c0 -50 -3 -56 -33 -65l-194 -61v-7z" />
    <glyph glyph-name="equal" unicode="=" 
d="M75 193c0 42 5 45 31 45h253c26 0 31 -3 31 -45s-5 -45 -31 -45h-253c-26 0 -31 3 -31 45zM75 351c0 42 5 45 31 45h253c26 0 31 -3 31 -45s-5 -46 -31 -46h-253c-26 0 -31 4 -31 46z" />
    <glyph glyph-name="greater" unicode="&#x3e;" 
d="M114 204l194 61v7l-194 61c-30 9 -33 15 -33 65c0 38 8 45 22 45c6 0 14 -2 23 -5l235 -84c32 -12 42 -22 42 -85c0 -64 -9 -76 -42 -87l-235 -83c-9 -4 -17 -5 -23 -5c-14 0 -22 6 -22 45c0 49 3 56 33 65z" />
    <glyph glyph-name="question" unicode="?" horiz-adv-x="366" 
d="M159 160c-39 0 -52 5 -52 33v40c0 47 10 67 34 93l65 70c16 17 27 36 27 73c0 49 -18 56 -75 56c-62 0 -104 -15 -124 -15c-13 0 -20 7 -20 45c0 42 8 46 27 52c37 11 87 19 145 19c85 0 165 -17 165 -133c0 -69 -20 -99 -52 -135l-65 -72c-14 -16 -22 -30 -22 -65v-28
c0 -28 -13 -33 -53 -33zM159 0c-50 0 -60 7 -60 43v25c0 36 10 43 60 43c51 0 61 -7 61 -43v-25c0 -36 -10 -43 -61 -43z" />
    <glyph glyph-name="at" unicode="@" horiz-adv-x="867" 
d="M383 -10c-127 0 -155 51 -155 254c0 218 51 259 172 259c64 0 104 -21 124 -74v30c0 30 8 34 52 34c45 0 53 -4 53 -34v-302c0 -59 16 -82 49 -82c41 0 59 28 59 155v81c0 218 -58 278 -306 278c-249 0 -302 -77 -302 -303v-96c0 -240 87 -286 320 -286
c23 0 31 -8 31 -45c0 -38 -8 -46 -41 -46c-313 0 -415 91 -415 385v78c0 280 90 402 407 402c316 0 411 -105 411 -362v-82c0 -213 -89 -244 -179 -244c-71 0 -111 25 -131 92c-22 -60 -68 -92 -149 -92zM421 87c66 0 94 18 94 131v60c0 99 -13 127 -86 127
c-64 0 -83 -19 -83 -165c0 -132 15 -153 75 -153z" />
    <glyph glyph-name="A" unicode="A" horiz-adv-x="532" 
d="M70 0c-48 0 -56 7 -56 27c0 8 3 19 7 35l136 506c12 47 30 53 109 53s95 -6 108 -53l137 -506c4 -16 6 -27 6 -35c0 -19 -7 -27 -55 -27c-50 0 -59 6 -66 33l-36 134h-191l-33 -134c-6 -27 -16 -33 -66 -33zM259 523l-67 -267h148l-68 267h-13z" />
    <glyph glyph-name="B" unicode="B" horiz-adv-x="517" 
d="M254 -7c-66 0 -115 1 -165 7c-31 4 -36 12 -36 37v542c0 29 10 36 35 39c41 5 104 8 144 8c151 0 222 -16 222 -156c0 -78 -16 -126 -77 -144c70 -15 99 -57 99 -158c0 -130 -45 -175 -222 -175zM169 525v-161h74c79 0 92 16 92 90c0 63 -10 75 -87 75
c-30 0 -59 -2 -79 -4zM169 281v-191c23 -3 57 -5 91 -5c86 0 97 12 97 101c0 76 -15 95 -92 95h-96z" />
    <glyph glyph-name="C" unicode="C" horiz-adv-x="453" 
d="M255 -7c-123 0 -214 21 -214 265v88c0 260 94 280 216 280c51 0 102 -8 143 -19c16 -4 24 -10 24 -54c0 -34 -7 -45 -18 -45c-15 0 -58 15 -122 15c-97 0 -127 -15 -127 -185v-55c0 -177 32 -188 127 -188c68 0 104 16 122 16c14 0 18 -9 18 -46c0 -42 -8 -49 -24 -53
c-41 -12 -92 -19 -145 -19z" />
    <glyph glyph-name="D" unicode="D" horiz-adv-x="528" 
d="M249 95c96 0 122 14 122 188v69c0 153 -29 177 -132 177c-27 0 -53 -2 -70 -4v-426c21 -3 45 -4 80 -4zM249 -7c-66 0 -105 1 -160 7c-30 4 -36 12 -36 37v542c0 28 11 36 35 39c51 7 106 8 146 8c164 0 253 -20 253 -270v-73c0 -270 -98 -290 -238 -290z" />
    <glyph glyph-name="E" unicode="E" horiz-adv-x="455" 
d="M431 51c0 -41 -8 -51 -31 -51h-311c-27 0 -36 5 -36 31v559c0 26 9 31 36 31h301c23 0 31 -10 31 -52s-8 -51 -31 -51h-221v-142h160c26 0 31 -8 31 -50s-5 -51 -31 -51h-160v-172h231c23 0 31 -10 31 -52z" />
    <glyph glyph-name="F" unicode="F" horiz-adv-x="429" 
d="M111 0c-45 0 -58 5 -58 34v556c0 26 9 31 36 31h296c24 0 31 -10 31 -52s-7 -51 -31 -51h-216v-142h155c26 0 31 -8 31 -50s-5 -51 -31 -51h-155v-241c0 -29 -12 -34 -58 -34z" />
    <glyph glyph-name="G" unicode="G" horiz-adv-x="497" 
d="M254 -7c-124 0 -215 21 -215 265v88c0 260 93 280 219 280c51 0 111 -8 152 -19c16 -4 24 -10 24 -54c0 -34 -6 -45 -18 -45c-15 0 -71 15 -134 15c-96 0 -127 -15 -127 -185v-55c0 -177 35 -188 109 -188c60 0 89 15 89 91v64h-70c-21 0 -26 9 -26 51c0 37 5 46 26 46
h131c36 0 41 -10 41 -31v-156c0 -125 -60 -167 -201 -167z" />
    <glyph glyph-name="H" unicode="H" horiz-adv-x="531" 
d="M169 366h193v221c0 29 12 34 58 34c45 0 58 -5 58 -34v-553c0 -29 -13 -34 -58 -34c-46 0 -58 5 -58 34v234h-193v-234c0 -29 -12 -34 -58 -34c-45 0 -58 5 -58 34v553c0 29 13 34 58 34c46 0 58 -5 58 -34v-221z" />
    <glyph glyph-name="I" unicode="I" horiz-adv-x="223" 
d="M111 0c-45 0 -58 5 -58 34v553c0 29 13 34 58 34c46 0 58 -5 58 -34v-553c0 -29 -12 -34 -58 -34z" />
    <glyph glyph-name="J" unicode="J" horiz-adv-x="348" 
d="M141 -7c-48 0 -81 7 -106 14c-20 6 -28 13 -28 54c0 39 6 42 20 42c17 0 46 -8 84 -8c53 0 68 14 68 75v417c0 29 13 34 58 34s58 -5 58 -34v-417c0 -130 -48 -177 -154 -177z" />
    <glyph glyph-name="K" unicode="K" horiz-adv-x="484" 
d="M111 0c-45 0 -58 5 -58 34v553c0 29 13 34 58 34c46 0 58 -5 58 -34v-236h16l143 242c14 24 23 28 75 28c44 0 54 -8 54 -24c0 -8 -3 -17 -13 -33l-158 -250l163 -242c17 -26 20 -36 20 -46c0 -14 -7 -26 -61 -26c-41 0 -54 5 -68 27l-155 248h-16v-241
c0 -29 -12 -34 -58 -34z" />
    <glyph glyph-name="L" unicode="L" horiz-adv-x="425" 
d="M169 103h211c23 0 31 -10 31 -52c0 -41 -8 -51 -31 -51h-291c-27 0 -36 5 -36 31v556c0 29 13 34 58 34c46 0 58 -5 58 -34v-484z" />
    <glyph glyph-name="M" unicode="M" horiz-adv-x="649" 
d="M110 0c-45 0 -57 5 -57 34v546c0 31 12 41 71 41s76 -4 91 -41l107 -277h5l107 277c15 37 32 41 91 41s70 -10 70 -41v-546c0 -29 -11 -34 -57 -34c-45 0 -57 5 -57 34l1 411h-6l-91 -247c-12 -34 -21 -40 -61 -40c-39 0 -48 6 -60 40l-91 247h-6v-411
c0 -29 -11 -34 -57 -34z" />
    <glyph glyph-name="N" unicode="N" horiz-adv-x="552" 
d="M111 0c-45 0 -58 5 -58 34v553c0 29 14 34 70 34c40 0 59 -3 73 -33l178 -382h9v381c0 29 13 34 58 34s58 -5 58 -34v-553c0 -29 -12 -34 -67 -34c-40 0 -53 3 -69 32l-185 383h-9v-381c0 -29 -12 -34 -58 -34z" />
    <glyph glyph-name="O" unicode="O" horiz-adv-x="529" 
d="M264 93c89 0 108 19 108 190v53c0 170 -15 190 -108 190c-88 0 -107 -20 -107 -190v-53c0 -171 15 -190 107 -190zM264 -7c-160 0 -223 30 -223 279v69c0 259 67 285 223 285c166 0 224 -30 224 -285v-69c0 -254 -73 -279 -224 -279z" />
    <glyph glyph-name="P" unicode="P" horiz-adv-x="493" 
d="M111 0c-45 0 -58 5 -58 34v544c0 28 11 36 35 39c51 6 112 9 171 9c139 0 203 -26 203 -193c0 -170 -78 -217 -238 -217h-55v-182c0 -29 -12 -34 -58 -34zM169 525v-214h60c90 0 112 24 112 116c0 86 -21 102 -95 102c-27 0 -57 -2 -77 -4z" />
    <glyph glyph-name="Q" unicode="Q" horiz-adv-x="529" 
d="M264 -7c-160 0 -223 30 -223 279v69c0 259 67 285 223 285c166 0 224 -30 224 -285v-69c0 -157 -28 -226 -85 -256l46 -74c12 -20 17 -29 17 -36c0 -13 -11 -24 -54 -24c-38 0 -48 6 -63 33l-45 79c-1 0 -26 -1 -40 -1zM264 93c89 0 108 19 108 190v53
c0 170 -15 190 -108 190c-88 0 -107 -20 -107 -190v-53c0 -171 15 -190 107 -190z" />
    <glyph glyph-name="R" unicode="R" horiz-adv-x="506" 
d="M111 0c-45 0 -58 5 -58 34v544c0 28 11 36 35 39c51 6 112 9 171 9c139 0 203 -26 203 -183c0 -98 -33 -151 -96 -177l98 -208c10 -22 11 -29 11 -35c0 -11 -5 -23 -48 -23c-57 0 -65 4 -76 31l-86 217c-9 -1 -19 -1 -29 -1h-67v-213c0 -29 -12 -34 -58 -34zM169 525
v-194h70c80 0 102 20 102 106c0 74 -21 92 -95 92c-27 0 -58 -2 -77 -4z" />
    <glyph glyph-name="S" unicode="S" horiz-adv-x="457" 
d="M208 -7c-51 0 -107 7 -143 18c-20 6 -29 14 -29 55c0 39 6 46 20 46c20 0 59 -16 134 -16c79 0 118 19 118 79c0 42 -7 58 -48 77l-115 51c-64 29 -97 63 -97 155c0 140 86 168 177 168c55 0 115 -8 156 -19c16 -4 24 -12 24 -54c0 -38 -8 -46 -20 -46
c-15 0 -61 15 -132 15c-63 0 -92 -5 -92 -65c0 -38 14 -48 48 -63l114 -51c70 -31 98 -68 98 -162c0 -143 -91 -188 -213 -188z" />
    <glyph glyph-name="T" unicode="T" horiz-adv-x="440" 
d="M220 0c-45 0 -58 5 -58 34v484h-121c-23 0 -31 9 -31 51s8 52 31 52h358c23 0 31 -10 31 -52s-8 -51 -31 -51h-121v-484c0 -29 -13 -34 -58 -34z" />
    <glyph glyph-name="U" unicode="U" horiz-adv-x="527" 
d="M263 -7c-152 0 -210 50 -210 191v403c0 29 13 34 58 34c46 0 58 -5 58 -34v-409c0 -64 17 -86 94 -86s94 22 94 86v409c0 29 13 34 58 34c46 0 58 -5 58 -34v-403c0 -141 -58 -191 -210 -191z" />
    <glyph glyph-name="V" unicode="V" horiz-adv-x="523" 
d="M268 97l116 491c5 28 18 33 69 33c48 0 55 -7 55 -26c0 -8 -2 -22 -7 -39l-135 -509c-11 -41 -26 -47 -105 -47s-93 6 -104 47l-135 509c-5 17 -8 31 -8 39c0 19 8 26 56 26c50 0 63 -5 69 -33l116 -491h13z" />
    <glyph glyph-name="W" unicode="W" horiz-adv-x="802" 
d="M214 0c-66 0 -90 5 -98 47l-98 512c-2 13 -4 26 -4 35c0 20 8 27 56 27c50 0 63 -6 66 -33l80 -481h12l95 467c6 32 27 37 78 37s71 -5 78 -37l96 -467h11l80 481c3 27 16 33 66 33c48 0 56 -7 56 -27c0 -9 -2 -22 -3 -35l-98 -512c-8 -42 -33 -47 -99 -47
c-64 0 -89 8 -98 50l-84 401h-10l-83 -401c-9 -42 -34 -50 -99 -50z" />
    <glyph glyph-name="X" unicode="X" horiz-adv-x="497" 
d="M75 0c-47 0 -58 11 -58 28c0 9 5 21 18 41l152 250l-140 230c-13 21 -18 34 -18 44c0 17 12 28 59 28s56 -6 71 -33l88 -160h4l86 160c13 29 25 33 72 33s58 -11 58 -28c0 -10 -5 -23 -17 -43l-141 -231l153 -248c13 -20 17 -34 17 -43c0 -17 -11 -28 -57 -28
c-47 0 -56 6 -71 33l-102 183h-4l-99 -183c-15 -28 -24 -33 -71 -33z" />
    <glyph glyph-name="Y" unicode="Y" horiz-adv-x="474" 
d="M237 0c-45 0 -58 5 -58 34v194l-150 320c-13 27 -15 38 -15 46c0 14 8 27 51 27c57 0 65 -6 76 -33l94 -239h5l93 239c11 28 18 33 74 33c46 0 54 -12 54 -26c0 -7 -3 -20 -16 -47l-150 -320v-194c0 -29 -13 -34 -58 -34z" />
    <glyph glyph-name="Z" unicode="Z" horiz-adv-x="414" 
d="M260 518h-196c-24 0 -31 9 -31 51s7 52 31 52h300c26 0 31 -11 31 -48c0 -23 -4 -37 -25 -75l-220 -395h218c23 0 31 -10 31 -52c0 -41 -8 -51 -31 -51h-323c-26 0 -31 10 -31 48c0 22 6 39 28 79z" />
    <glyph glyph-name="bracketleft" unicode="[" horiz-adv-x="263" 
d="M251 -7c0 -39 -8 -46 -31 -46h-139c-28 0 -39 9 -39 35v652c0 26 11 35 39 35h134c23 0 31 -7 31 -46c0 -40 -8 -48 -31 -48h-62v-535h67c23 0 31 -7 31 -47z" />
    <glyph glyph-name="backslash" unicode="\" horiz-adv-x="275" 
d="M218 -59c-34 0 -53 8 -58 31l-142 632c-8 35 -8 44 -8 48c0 13 11 22 49 22c33 0 52 -7 57 -30l142 -633c8 -35 9 -43 9 -48c0 -13 -12 -22 -49 -22z" />
    <glyph glyph-name="bracketright" unicode="]" horiz-adv-x="263" 
d="M13 -7c0 40 7 47 31 47h67v535h-63c-23 0 -31 8 -31 48c0 39 8 46 31 46h135c27 0 38 -9 38 -35v-652c0 -26 -11 -35 -38 -35h-139c-24 0 -31 7 -31 46z" />
    <glyph glyph-name="asciicircum" unicode="^" 
d="M236 526h-6l-63 -149c-9 -25 -16 -30 -64 -30c-38 0 -46 9 -46 22c0 7 4 16 9 27l81 185c14 32 22 42 88 42c65 0 72 -9 86 -42l78 -185c4 -10 9 -20 9 -27c0 -13 -8 -22 -46 -22c-50 0 -54 5 -64 30z" />
    <glyph glyph-name="underscore" unicode="_" horiz-adv-x="495" 
d="M23 -69c0 42 5 51 31 51h387c26 0 31 -9 31 -51s-5 -51 -31 -51h-387c-26 0 -31 9 -31 51z" />
    <glyph glyph-name="grave" unicode="`" horiz-adv-x="218" 
d="M149 539c-49 0 -55 10 -67 30l-43 74c-9 15 -15 31 -15 42c0 15 9 22 60 22c52 0 57 -8 70 -38l33 -74c5 -11 10 -26 10 -35c0 -14 -13 -21 -48 -21z" />
    <glyph glyph-name="a" unicode="a" horiz-adv-x="486" 
d="M162 -10c-88 0 -129 41 -129 146c0 104 46 148 190 148h87v50c0 65 -21 70 -82 70c-73 0 -124 -16 -145 -16c-14 0 -21 13 -21 46c0 34 7 43 25 49c32 10 96 20 156 20c123 0 182 -20 182 -140v-158c0 -115 20 -157 20 -178c0 -18 -8 -27 -53 -27c-40 0 -48 4 -55 30
l-15 56c-27 -66 -86 -96 -160 -96zM203 83c55 0 107 31 107 105v27l-87 -3c-63 -2 -79 -16 -79 -64c0 -56 18 -65 59 -65z" />
    <glyph glyph-name="b" unicode="b" horiz-adv-x="511" 
d="M245 -10c-159 0 -194 44 -194 123v509c0 29 13 33 58 33c44 0 58 -4 58 -33v-193c25 47 72 74 143 74c122 0 157 -40 157 -250c0 -218 -57 -263 -222 -263zM252 87c80 0 97 28 97 157c0 141 -13 161 -80 161c-81 0 -104 -37 -104 -162v-112c0 -30 10 -44 87 -44z" />
    <glyph glyph-name="c" unicode="c" horiz-adv-x="430" 
d="M248 -10c-133 0 -205 30 -205 252c0 234 76 261 201 261c46 0 96 -9 128 -18c19 -6 26 -15 26 -50s-7 -47 -20 -47c-12 0 -72 16 -119 16c-75 0 -100 -13 -100 -151c0 -144 13 -163 103 -163c64 0 104 17 118 17c12 0 19 -12 19 -47c0 -34 -8 -43 -27 -50
c-33 -12 -84 -20 -124 -20z" />
    <glyph glyph-name="d" unicode="d" horiz-adv-x="521" 
d="M209 -10c-132 0 -166 51 -166 249c0 223 57 264 183 264c62 0 101 -15 122 -56v175c0 29 14 33 58 33c45 0 58 -4 58 -33v-417c0 -115 21 -157 21 -178c0 -18 -8 -27 -54 -27c-40 0 -47 4 -54 30l-13 47c-23 -57 -71 -87 -155 -87zM247 87c71 0 103 22 103 132v54
c0 104 -18 132 -96 132c-74 0 -93 -19 -93 -165c0 -132 15 -153 86 -153z" />
    <glyph glyph-name="e" unicode="e" horiz-adv-x="475" 
d="M258 -10c-143 0 -215 30 -215 252c0 234 74 261 207 261c163 0 186 -74 186 -233c0 -36 -7 -54 -44 -54h-233c2 -111 21 -126 107 -126c78 0 130 17 144 17c12 0 19 -12 19 -47c0 -34 -8 -43 -27 -50c-33 -12 -100 -20 -144 -20zM248 406c-63 0 -85 -13 -89 -118h168
c0 85 -4 118 -79 118z" />
    <glyph glyph-name="f" unicode="f" horiz-adv-x="320" 
d="M23 444c0 37 5 46 26 46h39v60c0 94 42 121 120 121c28 0 59 -4 80 -9s27 -10 27 -44s-7 -46 -20 -46c-11 0 -32 4 -60 4c-29 0 -37 -7 -37 -52v-34h79c21 0 26 -9 26 -46c0 -36 -5 -45 -26 -45h-73v-365c0 -30 -13 -34 -58 -34s-58 4 -58 34v365h-39c-21 0 -26 9 -26 45
z" />
    <glyph glyph-name="g" unicode="g" horiz-adv-x="517" 
d="M43 250c0 212 57 253 188 253c68 0 111 -18 134 -72l8 32c7 26 14 30 54 30c46 0 54 -10 54 -27c0 -21 -21 -64 -21 -178v-243c0 -205 -97 -241 -233 -241c-47 0 -101 5 -139 14c-18 4 -27 14 -27 51c0 35 6 47 21 47c14 0 64 -11 138 -11c105 0 124 33 124 139v6
c-24 -39 -68 -60 -142 -60c-126 0 -159 51 -159 260zM161 240c0 -132 15 -153 86 -153s103 22 103 132v54c0 104 -18 132 -96 132c-74 0 -93 -19 -93 -165z" />
    <glyph glyph-name="h" unicode="h" horiz-adv-x="504" 
d="M109 0c-45 0 -58 4 -58 34v588c0 29 13 33 58 33c44 0 58 -4 58 -33v-185c26 44 71 66 146 66c108 0 137 -43 137 -138v-331c0 -30 -13 -34 -58 -34c-44 0 -58 4 -58 34v303c0 49 -12 66 -63 66c-78 0 -104 -45 -104 -163v-206c0 -30 -14 -34 -58 -34z" />
    <glyph glyph-name="i" unicode="i" horiz-adv-x="222" 
d="M109 0c-45 0 -58 4 -58 34v425c0 30 13 34 58 34c44 0 58 -4 58 -34v-425c0 -30 -14 -34 -58 -34zM109 553c-57 0 -63 8 -63 43v16c0 36 6 43 63 43c56 0 63 -7 63 -43v-16c0 -35 -7 -43 -63 -43z" />
    <glyph glyph-name="j" unicode="j" horiz-adv-x="222" 
d="M109 493c44 0 58 -4 58 -34v-528c0 -94 -41 -127 -115 -127c-31 0 -59 5 -81 11c-20 6 -29 14 -29 49c0 41 8 45 21 45c10 0 31 -5 51 -5c29 0 37 6 37 51v504c0 30 13 34 58 34zM109 553c-57 0 -63 8 -63 43v16c0 36 6 43 63 43c56 0 63 -7 63 -43v-16
c0 -35 -7 -43 -63 -43z" />
    <glyph glyph-name="k" unicode="k" horiz-adv-x="457" 
d="M109 0c-45 0 -58 4 -58 34v588c0 29 13 33 58 33c44 0 58 -4 58 -33v-328h11l121 170c17 23 25 29 75 29c43 0 56 -6 56 -20c0 -10 -5 -23 -13 -33l-137 -182l150 -206c8 -11 12 -18 12 -29c0 -15 -16 -23 -60 -23s-54 5 -70 28l-135 193h-10v-187c0 -30 -14 -34 -58 -34
z" />
    <glyph glyph-name="l" unicode="l" horiz-adv-x="220" 
d="M109 0c-45 0 -58 4 -58 34v588c0 29 13 33 58 33c44 0 58 -4 58 -33v-588c0 -30 -14 -34 -58 -34z" />
    <glyph glyph-name="m" unicode="m" horiz-adv-x="778" 
d="M119 0c-44 0 -58 4 -58 34v254c0 114 -20 157 -20 178c0 17 8 27 53 27c40 0 48 -4 55 -30l12 -49c23 59 70 89 153 89c79 0 116 -24 130 -74c24 49 68 74 144 74c107 0 136 -43 136 -138v-331c0 -30 -13 -34 -58 -34c-44 0 -58 4 -58 34v303c0 49 -12 66 -63 66
c-76 0 -94 -45 -94 -163v-206c0 -30 -14 -34 -58 -34c-45 0 -58 4 -58 34v303c0 49 -12 66 -63 66c-76 0 -95 -45 -95 -163v-206c0 -30 -13 -34 -58 -34z" />
    <glyph glyph-name="n" unicode="n" horiz-adv-x="514" 
d="M119 0c-44 0 -58 4 -58 34v254c0 114 -20 157 -20 178c0 17 8 27 53 27c40 0 48 -4 55 -30l14 -54c26 61 77 94 161 94c108 0 137 -43 137 -138v-331c0 -30 -14 -34 -58 -34c-45 0 -58 4 -58 34v303c0 49 -12 66 -63 66c-78 0 -105 -45 -105 -163v-206
c0 -30 -13 -34 -58 -34z" />
    <glyph glyph-name="o" unicode="o" horiz-adv-x="503" 
d="M243 -10c-151 0 -200 43 -200 253c0 213 60 260 216 260c151 0 200 -40 200 -250c0 -214 -59 -263 -216 -263zM247 87c80 0 94 28 94 157c0 141 -13 161 -86 161c-80 0 -94 -25 -94 -154c0 -141 13 -164 86 -164z" />
    <glyph glyph-name="p" unicode="p" horiz-adv-x="526" 
d="M119 -187c-44 0 -58 4 -58 33v442c0 114 -20 157 -20 178c0 17 8 27 53 27c40 0 48 -4 55 -30l11 -44c26 54 76 84 157 84c131 0 165 -51 165 -249c0 -223 -57 -264 -182 -264c-64 0 -103 16 -123 53v-197c0 -29 -13 -33 -58 -33zM271 87c74 0 93 20 93 166
c0 132 -15 152 -85 152s-104 -22 -104 -138v-48c0 -104 19 -132 96 -132z" />
    <glyph glyph-name="q" unicode="q" horiz-adv-x="517" 
d="M402 -187c-44 0 -58 4 -58 33v204c-24 -39 -68 -60 -142 -60c-126 0 -159 51 -159 260c0 212 57 253 188 253c68 0 111 -18 134 -72l8 32c7 26 14 30 54 30c46 0 54 -10 54 -27c0 -21 -21 -64 -21 -178v-442c0 -29 -13 -33 -58 -33zM240 87c72 0 105 16 105 130v56
c0 103 -19 132 -94 132c-76 0 -94 -18 -94 -157s15 -161 83 -161z" />
    <glyph glyph-name="r" unicode="r" horiz-adv-x="358" 
d="M119 0c-44 0 -58 4 -58 34v254c0 114 -20 157 -20 178c0 17 8 27 53 27c40 0 48 -4 55 -30l12 -46c26 57 69 83 122 83c18 0 38 -3 45 -6c15 -5 22 -14 22 -54c0 -42 -13 -47 -22 -47c-8 0 -27 4 -53 4c-69 0 -98 -60 -98 -174v-189c0 -30 -13 -34 -58 -34z" />
    <glyph glyph-name="s" unicode="s" horiz-adv-x="437" 
d="M201 -10c-45 0 -101 7 -136 18c-19 6 -26 15 -26 50s7 47 19 47c14 0 68 -15 131 -15c69 0 92 18 92 57c0 23 -10 34 -32 42l-119 51c-43 18 -75 55 -75 124c0 113 86 139 167 139c45 0 103 -7 141 -17c19 -5 26 -13 26 -53c0 -42 -12 -45 -21 -45c-15 0 -67 17 -124 17
c-54 0 -71 -14 -71 -44c0 -22 6 -33 31 -43l116 -47c60 -24 78 -60 78 -120c0 -121 -86 -161 -197 -161z" />
    <glyph glyph-name="t" unicode="t" horiz-adv-x="330" 
d="M199 -10c-78 0 -111 33 -111 127v282h-44c-20 0 -25 9 -25 45c0 37 5 46 25 46h44v72c0 29 13 33 58 33s58 -4 58 -33v-72h78c20 0 25 -9 25 -46c0 -36 -5 -45 -25 -45h-78v-259c0 -41 5 -48 35 -48c23 0 39 5 50 5c13 0 21 -5 21 -43c0 -35 -9 -42 -27 -49
c-22 -10 -53 -15 -84 -15z" />
    <glyph glyph-name="u" unicode="u" horiz-adv-x="506" 
d="M186 -10c-102 0 -135 37 -135 132v337c0 30 13 34 58 34c44 0 58 -4 58 -34v-308c0 -48 12 -61 63 -61c78 0 103 45 103 162v207c0 30 13 34 58 34s58 -4 58 -34v-254c0 -115 21 -157 21 -178c0 -18 -8 -27 -54 -27c-40 0 -47 4 -54 30l-13 50c-27 -60 -79 -90 -163 -90z
" />
    <glyph glyph-name="v" unicode="v" horiz-adv-x="472" 
d="M234 0c-72 0 -87 9 -96 42l-110 375c-6 20 -9 35 -9 43c0 25 6 33 58 33c51 0 60 -5 68 -38l85 -351h11l87 351c8 33 17 38 68 38s57 -8 57 -33c0 -8 -2 -23 -8 -43l-113 -375c-10 -33 -26 -42 -98 -42z" />
    <glyph glyph-name="w" unicode="w" horiz-adv-x="709" 
d="M191 0c-66 0 -85 8 -92 42l-75 375c-4 19 -5 34 -5 43c0 25 6 33 58 33c51 0 61 -5 64 -35l60 -354h11l70 342c6 30 22 37 73 37c50 0 66 -7 72 -37l70 -342h11l60 354c5 30 14 35 65 35s57 -8 57 -33c0 -9 -1 -24 -5 -43l-75 -375c-7 -34 -25 -42 -91 -42
c-71 0 -95 8 -102 42l-58 272h-8l-59 -272c-7 -34 -31 -42 -101 -42z" />
    <glyph glyph-name="x" unicode="x" horiz-adv-x="453" 
d="M75 0c-44 0 -56 8 -56 24c0 6 3 14 12 28l126 202l-112 177c-10 17 -15 27 -15 35c0 20 15 27 61 27c50 0 57 -4 70 -28l65 -117h4l63 117c13 25 20 28 69 28c46 0 61 -7 61 -27c0 -8 -4 -17 -14 -33l-115 -173l127 -206c9 -14 13 -24 13 -30c0 -15 -11 -24 -56 -24
c-50 0 -61 6 -78 37l-72 134h-4l-72 -134c-16 -30 -26 -37 -77 -37z" />
    <glyph glyph-name="y" unicode="y" horiz-adv-x="471" 
d="M19 463c0 18 6 30 60 30c47 0 57 -5 63 -30l86 -366h11l90 366c6 25 16 30 62 30c53 0 62 -10 62 -29c0 -9 -2 -26 -16 -73l-125 -426c-35 -121 -61 -161 -167 -161c-36 0 -74 6 -97 14c-18 6 -27 14 -27 48c0 35 7 47 21 47c12 0 40 -9 90 -9c52 0 62 12 73 54l10 42
c-59 0 -73 14 -84 53l-94 325c-18 61 -18 76 -18 85z" />
    <glyph glyph-name="z" unicode="z" horiz-adv-x="400" 
d="M376 49c0 -31 -5 -49 -25 -49h-304c-21 0 -26 14 -26 45c0 37 5 54 30 87l196 262h-180c-21 0 -26 18 -26 49s5 50 26 50h284c20 0 25 -15 25 -45c0 -31 -5 -54 -23 -78l-203 -271h201c20 0 25 -19 25 -50z" />
    <glyph glyph-name="braceleft" unicode="{" horiz-adv-x="320" 
d="M98 213c0 30 -10 46 -38 46c-26 0 -31 7 -31 49s5 48 31 48c28 0 38 17 38 46c0 54 -2 98 -2 156c0 74 22 117 99 117c31 0 64 -3 90 -9c18 -3 22 -15 22 -48c0 -34 -7 -43 -22 -43c-14 0 -43 2 -61 2c-15 0 -18 -11 -18 -35c0 -44 2 -96 2 -140c0 -48 -17 -82 -52 -92
v-4c35 -10 52 -44 52 -92c0 -44 -2 -96 -2 -140c0 -24 3 -35 18 -35c18 0 47 2 61 2c15 0 22 -9 22 -42s-4 -45 -22 -49c-26 -6 -59 -9 -90 -9c-77 0 -99 43 -99 117c0 58 2 102 2 155z" />
    <glyph glyph-name="bar" unicode="|" horiz-adv-x="180" 
d="M90 -187c-41 0 -47 4 -47 38v784c0 34 6 39 47 39s46 -5 46 -39v-784c0 -34 -5 -38 -46 -38z" />
    <glyph glyph-name="braceright" unicode="}" horiz-adv-x="320" 
d="M125 -59c-31 0 -65 3 -91 9c-18 4 -22 16 -22 49s8 42 22 42c15 0 44 -2 62 -2c15 0 18 11 18 35c0 44 -2 96 -2 140c0 48 16 82 51 92v4c-35 10 -51 44 -51 92c0 44 2 96 2 140c0 24 -3 35 -18 35c-18 0 -47 -2 -62 -2c-14 0 -22 9 -22 43c0 33 4 45 22 48
c26 6 60 9 91 9c77 0 98 -43 98 -117c0 -58 -1 -102 -1 -156c0 -29 9 -46 38 -46c26 0 31 -6 31 -48s-5 -49 -31 -49c-29 0 -38 -16 -38 -46c0 -53 1 -97 1 -155c0 -74 -21 -117 -98 -117z" />
    <glyph glyph-name="asciitilde" unicode="~" 
d="M75 265c0 29 7 42 26 55c14 9 38 19 67 19c47 0 92 -22 134 -22c37 0 57 19 69 19s19 -7 19 -41c0 -29 -7 -42 -27 -55c-13 -9 -38 -19 -66 -19c-47 0 -93 22 -135 22c-37 0 -56 -19 -69 -19c-11 0 -18 7 -18 41z" />
    <glyph glyph-name="exclamdown" unicode="&#xa1;" horiz-adv-x="213" 
d="M107 461c43 0 51 -5 51 -33c0 -112 7 -265 7 -394c0 -29 -13 -34 -58 -34c-46 0 -59 5 -59 34c0 129 7 282 7 394c0 28 8 33 52 33zM106 621c51 0 60 -7 60 -43v-25c0 -36 -9 -43 -60 -43c-50 0 -60 7 -60 43v25c0 36 10 43 60 43z" />
    <glyph glyph-name="cent" unicode="&#xa2;" 
d="M252 621c39 0 50 -4 50 -34v-64c30 -3 59 -9 81 -15c19 -6 26 -12 26 -47s-6 -46 -19 -46s-72 15 -128 15c-66 0 -91 -12 -91 -109c0 -104 12 -121 96 -121c71 0 110 17 124 17c12 0 19 -12 19 -47c0 -34 -7 -41 -26 -47c-22 -8 -51 -14 -82 -18v-71
c0 -30 -11 -34 -50 -34s-50 4 -50 34v71c-95 8 -147 48 -147 205c0 166 55 206 147 214v63c0 30 11 34 50 34z" />
    <glyph glyph-name="sterling" unicode="&#xa3;" 
d="M305 307c0 -33 -6 -37 -29 -37h-70v-37c0 -56 -15 -103 -28 -130h221c23 0 31 -10 31 -52c0 -41 -8 -51 -31 -51h-313c-27 0 -36 5 -36 31c0 55 43 93 43 191v48h-43c-23 0 -29 4 -29 37s6 37 29 37h43v111c0 145 69 171 158 171c53 0 108 -9 137 -15
c16 -4 24 -11 24 -53c0 -37 -7 -44 -19 -44c-17 0 -62 9 -103 9c-63 0 -84 -11 -84 -80v-99h70c23 0 29 -4 29 -37z" />
    <glyph glyph-name="currency" unicode="&#xa4;" 
d="M126 60c-31 0 -40 5 -40 15c0 9 4 20 12 40l16 38c-22 22 -31 59 -31 116s9 93 31 115l-16 39c-8 19 -12 30 -12 40s9 15 40 15c36 0 43 -4 51 -23l17 -42c12 1 25 2 40 2c14 0 27 -1 39 -2l18 42c8 19 15 23 51 23c31 0 39 -5 39 -15s-3 -21 -11 -40l-17 -39
c23 -22 32 -58 32 -115s-9 -94 -32 -116l17 -38c9 -19 11 -31 11 -40c0 -10 -8 -15 -39 -15c-36 0 -43 4 -51 23l-17 41c-12 -1 -26 -1 -40 -1c-15 0 -28 0 -40 1l-17 -41c-8 -19 -15 -23 -51 -23zM234 200c49 0 56 9 56 70c0 59 -7 68 -56 68c-50 0 -57 -9 -57 -68
c0 -61 7 -70 57 -70z" />
    <glyph glyph-name="yen" unicode="&#xa5;" 
d="M233 0c-45 0 -58 5 -58 34v66h-80c-22 0 -29 5 -29 37c0 33 7 38 29 38h80v49h-81c-23 0 -29 6 -29 38c0 33 6 38 29 38h59l-121 250c-7 16 -14 32 -14 44c0 20 8 27 56 27c50 0 57 -6 68 -33l88 -227h5l88 227c11 27 18 33 68 33c48 0 56 -7 56 -27
c0 -12 -7 -28 -14 -44l-121 -250h60c22 0 29 -5 29 -38c0 -32 -7 -38 -29 -38h-81v-49h80c22 0 28 -5 28 -38c0 -32 -6 -37 -28 -37h-80v-66c0 -29 -13 -34 -58 -34z" />
    <glyph glyph-name="brokenbar" unicode="&#xa6;" horiz-adv-x="180" 
d="M90 280c-41 0 -47 5 -47 39v316c0 34 6 39 47 39s46 -5 46 -39v-316c0 -34 -5 -39 -46 -39zM90 -187c-41 0 -47 4 -47 38v317c0 34 6 38 47 38s46 -4 46 -38v-317c0 -34 -5 -38 -46 -38z" />
    <glyph glyph-name="section" unicode="&#xa7;" horiz-adv-x="452" 
d="M41 235c0 57 20 93 47 115c-28 23 -43 56 -43 118c0 136 87 158 177 158c56 0 116 -8 157 -19c15 -4 23 -12 23 -54c0 -38 -7 -46 -20 -46c-15 0 -61 15 -132 15c-63 0 -92 -8 -92 -55c0 -30 11 -44 42 -56l113 -45c74 -30 103 -72 103 -145c0 -54 -17 -88 -43 -109
c32 -25 45 -60 45 -125c0 -139 -91 -174 -212 -174c-52 0 -108 7 -144 18c-20 6 -29 14 -29 55c0 39 7 46 21 46c19 0 59 -16 133 -16c82 0 119 16 119 64c0 39 -8 55 -48 71l-118 48c-68 28 -99 64 -99 136zM154 258c0 -36 10 -56 42 -69l94 -38c9 10 14 25 14 49
c0 35 -6 60 -46 75l-90 36c-10 -12 -14 -28 -14 -53z" />
    <glyph glyph-name="dieresis" unicode="&#xa8;" horiz-adv-x="338" 
d="M85 553c-52 0 -60 8 -60 43v16c0 36 8 43 60 43s60 -7 60 -43v-16c0 -35 -8 -43 -60 -43zM252 553c-52 0 -59 8 -59 43v16c0 36 7 43 59 43s60 -7 60 -43v-16c0 -35 -8 -43 -60 -43z" />
    <glyph glyph-name="copyright" unicode="&#xa9;" horiz-adv-x="889" 
d="M444 -50c280 0 325 102 325 368c0 259 -45 362 -325 362c-279 0 -325 -103 -325 -362c0 -266 46 -368 325 -368zM444 -133c-365 0 -420 163 -420 448c0 284 55 448 420 448s420 -164 420 -448c0 -285 -55 -448 -420 -448zM457 60c-133 0 -204 30 -204 252
c0 234 75 261 200 261c46 0 97 -9 128 -18c19 -6 26 -15 26 -50s-7 -47 -20 -47c-12 0 -71 16 -118 16c-75 0 -101 -13 -101 -151c0 -144 13 -163 103 -163c64 0 104 17 118 17c12 0 19 -12 19 -47c0 -34 -8 -43 -27 -50c-33 -12 -84 -20 -124 -20z" />
    <glyph glyph-name="ordfeminine" unicode="&#xaa;" horiz-adv-x="367" 
d="M127 248c-71 0 -100 32 -100 109s31 112 138 112h66v18c0 49 -11 58 -54 58c-56 0 -92 -12 -110 -12c-12 0 -17 10 -17 38c0 26 4 34 19 40c19 7 69 15 117 15c92 0 135 -17 135 -110v-95c0 -90 14 -125 14 -142c0 -15 -6 -22 -41 -22c-31 0 -39 3 -44 24l-9 38
c-18 -46 -55 -71 -114 -71zM157 322c36 0 74 15 74 82v7l-73 -3c-34 -1 -42 -10 -42 -44c0 -35 12 -42 41 -42z" />
    <glyph glyph-name="guillemotleft" unicode="&#xab;" horiz-adv-x="608" 
d="M434 251v-8l117 -102c23 -20 28 -27 28 -72c0 -33 -9 -39 -20 -39c-7 0 -16 4 -24 8l-169 117c-30 18 -42 29 -42 92s12 74 42 92l169 116c8 5 17 9 24 9c11 0 20 -6 20 -39c0 -45 -5 -52 -28 -72zM142 251v-8l122 -92c23 -17 27 -24 27 -72c0 -33 -8 -39 -20 -39
c-7 0 -15 4 -23 8l-177 112c-30 19 -42 29 -42 87s12 69 42 87l177 111c8 5 16 9 23 9c12 0 20 -6 20 -39c0 -48 -4 -55 -27 -72z" />
    <glyph glyph-name="logicalnot" unicode="&#xac;" 
d="M352 141c-45 0 -52 5 -52 34v68h-208c-23 0 -31 7 -31 49s8 49 31 49h277c27 0 36 -5 36 -31v-135c0 -29 -8 -34 -53 -34z" />
    <glyph glyph-name="registered" unicode="&#xae;" horiz-adv-x="889" 
d="M444 -133c-365 0 -420 163 -420 448c0 284 55 448 420 448s420 -164 420 -448c0 -285 -55 -448 -420 -448zM444 -50c280 0 325 102 325 368c0 259 -45 362 -325 362c-279 0 -325 -103 -325 -362c0 -266 46 -368 325 -368zM319 70c-45 0 -59 5 -59 34v423
c0 28 11 36 35 39c51 6 102 9 160 9c138 0 188 -26 188 -163c0 -78 -23 -119 -77 -139l79 -150c8 -15 12 -24 12 -32c0 -15 -11 -21 -53 -21c-54 0 -60 3 -72 31l-64 156h-91v-153c0 -29 -13 -34 -58 -34zM377 475v-137h63c74 0 87 11 87 78c0 53 -12 63 -80 63
c-27 0 -50 -2 -70 -4z" />
    <glyph glyph-name="macron" unicode="&#xaf;" horiz-adv-x="275" 
d="M24 608c0 40 5 48 31 48h165c26 0 31 -8 31 -48c0 -41 -5 -48 -31 -48h-165c-26 0 -31 7 -31 48z" />
    <glyph glyph-name="degree" unicode="&#xb0;" horiz-adv-x="409" 
d="M203 327c-118 0 -146 30 -146 149c0 118 29 150 149 150c113 0 146 -28 146 -147c0 -118 -23 -152 -149 -152zM151 475c0 -59 10 -64 52 -64c49 0 54 9 54 66c0 59 -9 65 -51 65c-49 0 -55 -10 -55 -67z" />
    <glyph glyph-name="plusminus" unicode="&#xb1;" 
d="M78 315c0 36 5 42 31 42h76v84c0 26 5 31 47 31s48 -5 48 -31v-84h76c26 0 31 -6 31 -42c0 -37 -5 -43 -31 -43h-76v-83c0 -26 -6 -31 -48 -31s-47 5 -47 31v83h-76c-26 0 -31 6 -31 43zM92 71c0 39 5 45 31 45h219c26 0 31 -6 31 -45s-5 -45 -31 -45h-219
c-26 0 -31 6 -31 45z" />
    <glyph glyph-name="twosuperior" unicode="&#xb2;" horiz-adv-x="349" 
d="M153 376h121c20 0 28 -4 28 -40c0 -37 -8 -41 -28 -41h-205c-22 0 -31 4 -31 30v17c0 25 13 40 34 63l90 94c24 24 30 40 30 59c0 30 -11 37 -45 37c-36 0 -61 -10 -77 -10c-11 0 -16 2 -16 34c0 33 7 38 24 43c26 7 62 11 93 11c63 0 117 -11 117 -92
c0 -51 -12 -73 -54 -118z" />
    <glyph glyph-name="threesuperior" unicode="&#xb3;" horiz-adv-x="355" 
d="M172 289c-31 0 -74 4 -100 12c-17 5 -24 10 -24 42c0 31 6 34 16 34c16 0 50 -9 85 -9c36 0 57 7 57 42c0 28 -12 44 -80 44c-17 0 -20 9 -20 31s3 32 20 32c61 0 75 10 75 42c0 29 -15 36 -49 36c-33 0 -65 -10 -80 -10c-11 0 -17 2 -17 34c0 33 7 38 24 43
c26 7 66 11 97 11c63 0 117 -11 117 -93c0 -55 -25 -88 -71 -96c58 -3 81 -36 81 -91c0 -91 -68 -104 -131 -104z" />
    <glyph glyph-name="acute" unicode="&#xb4;" horiz-adv-x="218" 
d="M69 539c-35 0 -48 7 -48 21c0 9 6 24 11 35l33 74c15 33 17 38 69 38c51 0 60 -11 60 -27c0 -10 -6 -23 -14 -37l-44 -74c-12 -20 -18 -30 -67 -30z" />
    <glyph glyph-name="mu" unicode="&#xb5;" horiz-adv-x="495" 
d="M100 -187c-44 0 -58 4 -58 33v613c0 30 14 34 58 34c45 0 58 -4 58 -34v-308c0 -48 13 -61 64 -61c78 0 103 45 103 162v207c0 30 13 34 58 34s58 -4 58 -34v-254c0 -115 20 -157 20 -178c0 -18 -7 -27 -53 -27c-40 0 -47 4 -55 30l-13 48c-26 -59 -77 -88 -156 -88
c-10 0 -18 1 -26 1v-145c0 -29 -13 -33 -58 -33z" />
    <glyph glyph-name="paragraph" unicode="&#xb6;" horiz-adv-x="600" 
d="M259 -196c-43 0 -93 6 -131 14c-18 5 -27 14 -27 51c0 35 7 47 21 47s64 -11 129 -11c105 0 116 33 116 139v474h-51v-308c0 -25 -7 -35 -31 -40c-25 -6 -50 -9 -85 -9c-110 0 -142 52 -142 224c0 176 34 236 156 236h316c24 0 31 -10 31 -52s-7 -51 -31 -51h-47v-473
c0 -205 -88 -241 -224 -241z" />
    <glyph glyph-name="middot" unicode="&#xb7;" horiz-adv-x="198" 
d="M99 216c-51 0 -60 7 -60 43v36c0 36 9 43 60 43c50 0 60 -7 60 -43v-36c0 -36 -10 -43 -60 -43z" />
    <glyph glyph-name="cedilla" unicode="&#xb8;" horiz-adv-x="244" 
d="M113 -223c-24 0 -42 2 -61 6s-28 9 -28 42c0 34 8 42 23 42c11 0 27 -4 51 -4c14 0 23 1 23 13s-9 15 -27 25c-25 12 -33 24 -33 60v58h82v-42c0 -11 2 -15 14 -22c49 -27 63 -42 63 -91c0 -61 -38 -87 -107 -87z" />
    <glyph glyph-name="onesuperior" unicode="&#xb9;" horiz-adv-x="348" 
d="M62 336c0 36 6 39 27 39h47v202l-40 -11c-6 -2 -16 -4 -20 -4c-9 0 -18 5 -18 38c0 31 6 36 24 42l62 22c13 4 31 7 51 7c27 0 32 -5 32 -30v-266h48c20 0 28 -3 28 -39c0 -37 -8 -41 -28 -41h-186c-21 0 -27 4 -27 41z" />
    <glyph glyph-name="ordmasculine" unicode="&#xba;" horiz-adv-x="384" 
d="M185 247c-101 0 -150 23 -150 186c0 171 50 193 163 193c101 0 151 -21 151 -184c0 -171 -50 -195 -164 -195zM187 325c54 0 66 13 66 109c0 105 -14 115 -58 115c-53 0 -65 -12 -65 -108c0 -105 13 -116 57 -116z" />
    <glyph glyph-name="guillemotright" unicode="&#xbb;" horiz-adv-x="608" 
d="M284 247c0 -63 -12 -74 -42 -92l-169 -117c-8 -4 -17 -8 -24 -8c-11 0 -20 6 -20 39c0 45 5 52 28 72l117 102v8l-117 102c-23 20 -28 27 -28 72c0 33 9 39 20 39c7 0 16 -4 24 -9l169 -116c30 -18 42 -29 42 -92zM579 247c0 -58 -12 -68 -42 -87l-177 -112
c-8 -4 -16 -8 -23 -8c-12 0 -21 6 -21 39c0 48 5 55 28 72l122 92v8l-122 92c-23 17 -28 24 -28 72c0 33 9 39 21 39c7 0 15 -4 23 -9l177 -111c30 -18 42 -29 42 -87z" />
    <glyph glyph-name="onequarter" unicode="&#xbc;" horiz-adv-x="777" 
d="M653 0c-30 0 -46 3 -46 24v51h-145c-19 0 -24 9 -24 38c0 24 1 38 14 60l108 180c12 21 27 25 77 25c48 0 62 -4 62 -33v-198h26c17 0 22 -10 22 -38s-5 -34 -22 -34h-26v-51c0 -21 -15 -24 -46 -24zM281 0c-30 0 -39 4 -39 16c0 8 2 17 8 33l203 554c7 21 17 28 53 28
c31 0 39 -4 39 -17c0 -7 -2 -16 -8 -32l-203 -554c-7 -21 -16 -28 -53 -28zM38 558c0 31 6 36 24 42l62 21c13 4 31 8 51 8c28 0 32 -5 32 -30v-266h48c20 0 28 -3 28 -40c0 -36 -8 -40 -28 -40h-186c-20 0 -27 4 -27 40c0 37 7 40 27 40h47v202l-40 -11
c-5 -2 -16 -4 -20 -4c-9 0 -18 5 -18 38zM611 303l-89 -156h89v156z" />
    <glyph glyph-name="onehalf" unicode="&#xbd;" horiz-adv-x="774" 
d="M281 0c-30 0 -39 4 -39 16c0 8 2 17 8 33l203 554c7 21 17 28 53 28c31 0 39 -4 39 -17c0 -7 -2 -16 -8 -32l-203 -554c-7 -21 -16 -28 -53 -28zM42 293c0 37 7 40 27 40h47v202l-40 -11c-5 -2 -16 -4 -20 -4c-9 0 -18 5 -18 38c0 31 6 36 24 42l62 21c13 4 31 8 51 8
c28 0 32 -5 32 -30v-266h48c20 0 28 -3 28 -40c0 -36 -8 -40 -28 -40h-186c-20 0 -27 4 -27 40zM749 41c0 -37 -8 -41 -28 -41h-206c-21 0 -30 4 -30 30v18c0 24 13 39 34 62l90 94c24 24 30 40 30 59c0 31 -11 37 -45 37c-36 0 -61 -10 -77 -10c-11 0 -16 2 -16 34
c0 33 7 38 24 43c26 7 62 11 93 11c63 0 117 -10 117 -92c0 -51 -14 -72 -54 -117l-81 -88h121c20 0 28 -4 28 -40z" />
    <glyph glyph-name="threequarters" unicode="&#xbe;" horiz-adv-x="760" 
d="M637 0c-30 0 -47 3 -47 24v51h-144c-19 0 -24 9 -24 38c0 24 1 38 14 60l108 180c12 20 27 25 77 25c48 0 62 -4 62 -33v-198h25c18 0 23 -10 23 -38s-5 -34 -23 -34h-25v-51c0 -21 -16 -24 -46 -24zM148 246c-30 0 -73 5 -99 12c-17 5 -24 10 -24 43c0 31 6 34 16 34
c16 0 50 -10 85 -10c36 0 57 8 57 42c0 29 -12 44 -81 44c-16 0 -19 10 -19 31c0 23 3 32 19 32c62 0 76 11 76 43c0 29 -15 35 -49 35c-33 0 -65 -9 -81 -9c-10 0 -16 2 -16 34c0 33 7 38 24 42c26 7 66 12 97 12c63 0 117 -11 117 -93c0 -56 -25 -89 -71 -97
c58 -3 81 -35 81 -91c0 -90 -68 -104 -132 -104zM264 0c-30 0 -39 4 -39 16c0 8 2 17 8 33l203 554c8 21 17 28 53 28c31 0 39 -4 39 -17c0 -7 -1 -16 -7 -32l-204 -554c-8 -21 -16 -28 -53 -28zM595 303l-89 -156h89v156z" />
    <glyph glyph-name="questiondown" unicode="&#xbf;" horiz-adv-x="366" 
d="M207 464c39 0 52 -5 52 -34v-40c0 -47 -10 -66 -34 -92l-65 -70c-16 -17 -28 -36 -28 -73c0 -49 19 -56 76 -56c62 0 104 15 124 15c13 0 19 -7 19 -46c0 -41 -8 -46 -26 -51c-38 -12 -87 -19 -145 -19c-85 0 -166 17 -166 133c0 68 21 99 53 134l65 72
c14 16 22 31 22 66v27c0 29 13 34 53 34zM207 624c50 0 60 -7 60 -43v-25c0 -36 -10 -43 -60 -43c-51 0 -61 7 -61 43v25c0 36 10 43 61 43z" />
    <glyph glyph-name="Agrave" unicode="&#xc0;" horiz-adv-x="532" 
d="M70 0c-48 0 -56 7 -56 27c0 8 3 19 7 35l136 506c12 47 30 53 109 53s95 -6 108 -53l137 -506c4 -16 6 -27 6 -35c0 -19 -7 -27 -55 -27c-50 0 -59 6 -66 33l-36 134h-191l-33 -134c-6 -27 -16 -33 -66 -33zM259 523l-67 -267h148l-68 267h-13zM279 665
c-49 0 -55 10 -67 30l-43 74c-9 15 -15 31 -15 42c0 15 9 22 60 22c53 0 57 -8 70 -38l33 -74c5 -11 10 -26 10 -35c0 -14 -13 -21 -48 -21z" />
    <glyph glyph-name="Aacute" unicode="&#xc1;" horiz-adv-x="532" 
d="M70 0c-48 0 -56 7 -56 27c0 8 3 19 7 35l136 506c12 47 30 53 109 53s95 -6 108 -53l137 -506c4 -16 6 -27 6 -35c0 -19 -7 -27 -55 -27c-50 0 -59 6 -66 33l-36 134h-191l-33 -134c-6 -27 -16 -33 -66 -33zM259 523l-67 -267h148l-68 267h-13zM252 665
c-35 0 -48 7 -48 21c0 9 6 24 11 35l33 74c15 33 17 38 69 38c51 0 60 -11 60 -27c0 -10 -6 -23 -14 -37l-44 -74c-12 -20 -18 -30 -67 -30z" />
    <glyph glyph-name="Acircumflex" unicode="&#xc2;" horiz-adv-x="532" 
d="M70 0c-48 0 -56 7 -56 27c0 8 3 19 7 35l136 506c12 47 30 53 109 53s95 -6 108 -53l137 -506c4 -16 6 -27 6 -35c0 -19 -7 -27 -55 -27c-50 0 -59 6 -66 33l-36 134h-191l-33 -134c-6 -27 -16 -33 -66 -33zM259 523l-67 -267h148l-68 267h-13zM268 751h-6l-39 -60
c-14 -22 -27 -26 -62 -26c-28 0 -38 8 -38 20c0 8 3 16 13 34l53 90c10 17 18 24 52 24h48c34 0 42 -7 52 -24l53 -90c10 -18 13 -26 13 -34c0 -12 -9 -20 -38 -20c-35 0 -46 4 -61 26z" />
    <glyph glyph-name="Atilde" unicode="&#xc3;" horiz-adv-x="532" 
d="M70 0c-48 0 -56 7 -56 27c0 8 3 19 7 35l136 506c12 47 30 53 109 53s95 -6 108 -53l137 -506c4 -16 6 -27 6 -35c0 -19 -7 -27 -55 -27c-50 0 -59 6 -66 33l-36 134h-191l-33 -134c-6 -27 -16 -33 -66 -33zM259 523l-67 -267h148l-68 267h-13zM122 718c0 33 7 41 26 53
c11 7 36 19 65 19c47 0 76 -20 113 -20c35 0 55 17 67 17s16 -5 16 -39c0 -33 -7 -41 -26 -54c-10 -6 -36 -18 -65 -18c-47 0 -76 20 -112 20s-56 -17 -68 -17s-16 5 -16 39z" />
    <glyph glyph-name="Adieresis" unicode="&#xc4;" horiz-adv-x="532" 
d="M70 0c-48 0 -56 7 -56 27c0 8 3 19 7 35l136 506c12 47 30 53 109 53s95 -6 108 -53l137 -506c4 -16 6 -27 6 -35c0 -19 -7 -27 -55 -27c-50 0 -59 6 -66 33l-36 134h-191l-33 -134c-6 -27 -16 -33 -66 -33zM259 523l-67 -267h148l-68 267h-13zM182 684
c-52 0 -60 8 -60 43v16c0 36 8 43 60 43s60 -7 60 -43v-16c0 -35 -8 -43 -60 -43zM349 684c-52 0 -59 8 -59 43v16c0 36 7 43 59 43s60 -7 60 -43v-16c0 -35 -8 -43 -60 -43z" />
    <glyph glyph-name="Aring" unicode="&#xc5;" horiz-adv-x="532" 
d="M70 0c-48 0 -56 7 -56 27c0 8 3 19 7 35l136 506c12 47 30 53 109 53s95 -6 108 -53l137 -506c4 -16 6 -27 6 -35c0 -19 -7 -27 -55 -27c-50 0 -59 6 -66 33l-36 134h-191l-33 -134c-6 -27 -16 -33 -66 -33zM259 523l-67 -267h148l-68 267h-13zM265 742c39 0 43 8 43 33
s-4 33 -43 33c-38 0 -41 -8 -41 -33s3 -33 41 -33zM265 670c-89 0 -123 22 -123 105c0 82 34 105 123 105c91 0 124 -23 124 -105c0 -83 -33 -105 -124 -105z" />
    <glyph glyph-name="AE" unicode="&#xc6;" horiz-adv-x="728" 
d="M70 0c-48 0 -56 7 -56 27c0 8 3 19 7 35l136 506c13 47 30 53 109 53h397c23 0 31 -10 31 -52s-8 -51 -31 -51h-215v-142h154c26 0 31 -8 31 -50s-5 -51 -31 -51h-154v-172h225c23 0 31 -10 31 -52c0 -41 -8 -51 -31 -51h-305c-28 0 -36 5 -36 31v136h-163l-33 -134
c-7 -27 -16 -33 -66 -33zM259 523l-67 -267h140v267h-73z" />
    <glyph glyph-name="Ccedilla" unicode="&#xc7;" horiz-adv-x="453" 
d="M249 -223c-24 0 -42 2 -61 6s-28 9 -28 42c0 34 8 42 23 42c11 0 27 -4 51 -4c14 0 23 1 23 13s-9 17 -27 25c-26 11 -33 24 -33 60v35c-93 10 -156 58 -156 262v88c0 260 94 280 216 280c51 0 102 -8 143 -19c16 -4 24 -10 24 -54c0 -34 -7 -45 -18 -45
c-15 0 -58 15 -122 15c-97 0 -127 -15 -127 -185v-55c0 -177 32 -188 127 -188c68 0 104 16 122 16c14 0 18 -9 18 -46c0 -42 -8 -49 -24 -53c-35 -10 -77 -16 -121 -18v-17c0 -11 2 -15 14 -22c49 -27 63 -42 63 -91c0 -61 -38 -87 -107 -87z" />
    <glyph glyph-name="Egrave" unicode="&#xc8;" horiz-adv-x="455" 
d="M431 51c0 -41 -8 -51 -31 -51h-311c-27 0 -36 5 -36 31v559c0 26 9 31 36 31h301c23 0 31 -10 31 -52s-8 -51 -31 -51h-221v-142h160c26 0 31 -8 31 -50s-5 -51 -31 -51h-160v-172h231c23 0 31 -10 31 -52zM255 665c-49 0 -55 10 -67 30l-43 74c-9 15 -15 31 -15 42
c0 15 9 22 60 22c53 0 57 -8 70 -38l33 -74c5 -11 10 -26 10 -35c0 -14 -13 -21 -48 -21z" />
    <glyph glyph-name="Eacute" unicode="&#xc9;" horiz-adv-x="455" 
d="M431 51c0 -41 -8 -51 -31 -51h-311c-27 0 -36 5 -36 31v559c0 26 9 31 36 31h301c23 0 31 -10 31 -52s-8 -51 -31 -51h-221v-142h160c26 0 31 -8 31 -50s-5 -51 -31 -51h-160v-172h231c23 0 31 -10 31 -52zM205 665c-35 0 -48 7 -48 21c0 9 6 24 11 35l33 74
c15 33 17 38 69 38c51 0 60 -11 60 -27c0 -10 -6 -23 -14 -37l-44 -74c-12 -20 -18 -30 -67 -30z" />
    <glyph glyph-name="Ecircumflex" unicode="&#xca;" horiz-adv-x="455" 
d="M431 51c0 -41 -8 -51 -31 -51h-311c-27 0 -36 5 -36 31v559c0 26 9 31 36 31h301c23 0 31 -10 31 -52s-8 -51 -31 -51h-221v-142h160c26 0 31 -8 31 -50s-5 -51 -31 -51h-160v-172h231c23 0 31 -10 31 -52zM243 751h-6l-39 -60c-14 -22 -27 -26 -62 -26
c-28 0 -38 8 -38 20c0 8 3 16 13 34l53 90c10 17 18 24 52 24h48c34 0 42 -7 52 -24l53 -90c10 -18 13 -26 13 -34c0 -12 -9 -20 -38 -20c-35 0 -46 4 -61 26z" />
    <glyph glyph-name="Edieresis" unicode="&#xcb;" horiz-adv-x="455" 
d="M431 51c0 -41 -8 -51 -31 -51h-311c-27 0 -36 5 -36 31v559c0 26 9 31 36 31h301c23 0 31 -10 31 -52s-8 -51 -31 -51h-221v-142h160c26 0 31 -8 31 -50s-5 -51 -31 -51h-160v-172h231c23 0 31 -10 31 -52zM157 679c-52 0 -60 8 -60 43v16c0 36 8 43 60 43s60 -7 60 -43
v-16c0 -35 -8 -43 -60 -43zM324 679c-52 0 -59 8 -59 43v16c0 36 7 43 59 43s60 -7 60 -43v-16c0 -35 -8 -43 -60 -43z" />
    <glyph glyph-name="Igrave" unicode="&#xcc;" horiz-adv-x="223" 
d="M111 0c-45 0 -58 5 -58 34v553c0 29 13 34 58 34c46 0 58 -5 58 -34v-553c0 -29 -12 -34 -58 -34zM130 665c-49 0 -55 10 -67 30l-43 74c-9 15 -15 31 -15 42c0 15 9 22 60 22c53 0 57 -8 70 -38l33 -74c5 -11 10 -26 10 -35c0 -14 -13 -21 -48 -21z" />
    <glyph glyph-name="Iacute" unicode="&#xcd;" horiz-adv-x="223" 
d="M111 0c-45 0 -58 5 -58 34v553c0 29 13 34 58 34c46 0 58 -5 58 -34v-553c0 -29 -12 -34 -58 -34zM93 665c-35 0 -48 7 -48 21c0 9 6 24 11 35l33 74c15 33 17 38 69 38c51 0 60 -11 60 -27c0 -10 -6 -23 -14 -37l-44 -74c-12 -20 -18 -30 -67 -30z" />
    <glyph glyph-name="Icircumflex" unicode="&#xce;" horiz-adv-x="223" 
d="M111 0c-45 0 -58 5 -58 34v553c0 29 13 34 58 34c46 0 58 -5 58 -34v-553c0 -29 -12 -34 -58 -34zM115 751h-6l-39 -60c-14 -22 -27 -26 -62 -26c-28 0 -38 8 -38 20c0 8 3 16 13 34l53 90c10 17 18 24 52 24h48c34 0 42 -7 52 -24l53 -90c10 -18 13 -26 13 -34
c0 -12 -9 -20 -38 -20c-35 0 -46 4 -61 26z" />
    <glyph glyph-name="Idieresis" unicode="&#xcf;" horiz-adv-x="223" 
d="M111 0c-45 0 -58 5 -58 34v553c0 29 13 34 58 34c46 0 58 -5 58 -34v-553c0 -29 -12 -34 -58 -34zM28 679c-52 0 -60 8 -60 43v16c0 36 8 43 60 43s60 -7 60 -43v-16c0 -35 -8 -43 -60 -43zM195 679c-52 0 -59 8 -59 43v16c0 36 7 43 59 43s60 -7 60 -43v-16
c0 -35 -8 -43 -60 -43z" />
    <glyph glyph-name="Eth" unicode="&#xd0;" horiz-adv-x="528" 
d="M0 314c0 42 5 51 31 51h22v214c0 28 11 36 35 39c51 7 106 8 146 8c164 0 253 -20 253 -270v-73c0 -270 -98 -290 -238 -290c-66 0 -105 1 -160 7c-30 4 -36 12 -36 37v226h-22c-26 0 -31 9 -31 51zM249 95c96 0 122 14 122 188v69c0 153 -29 177 -132 177
c-27 0 -53 -2 -70 -4v-162h31c26 0 31 -9 31 -49c0 -41 -5 -49 -31 -49h-31v-166c21 -3 45 -4 80 -4z" />
    <glyph glyph-name="Ntilde" unicode="&#xd1;" horiz-adv-x="552" 
d="M111 0c-45 0 -58 5 -58 34v553c0 29 14 34 70 34c40 0 59 -3 73 -33l178 -382h9v381c0 29 13 34 58 34s58 -5 58 -34v-553c0 -29 -12 -34 -67 -34c-40 0 -53 3 -69 32l-185 383h-9v-381c0 -29 -12 -34 -58 -34zM132 722c0 33 7 41 26 53c11 7 36 19 65 19
c47 0 76 -20 113 -20c35 0 55 17 67 17s16 -5 16 -39c0 -33 -7 -41 -26 -54c-10 -6 -36 -18 -65 -18c-47 0 -76 20 -112 20s-56 -17 -68 -17s-16 5 -16 39z" />
    <glyph glyph-name="Ograve" unicode="&#xd2;" horiz-adv-x="529" 
d="M264 93c89 0 108 19 108 190v53c0 170 -15 190 -108 190c-88 0 -107 -20 -107 -190v-53c0 -171 15 -190 107 -190zM264 -7c-160 0 -223 30 -223 279v69c0 259 67 285 223 285c166 0 224 -30 224 -285v-69c0 -254 -73 -279 -224 -279zM291 665c-49 0 -55 10 -67 30l-43 74
c-9 15 -15 31 -15 42c0 15 9 22 60 22c53 0 57 -8 70 -38l33 -74c5 -11 10 -26 10 -35c0 -14 -13 -21 -48 -21z" />
    <glyph glyph-name="Oacute" unicode="&#xd3;" horiz-adv-x="529" 
d="M264 93c89 0 108 19 108 190v53c0 170 -15 190 -108 190c-88 0 -107 -20 -107 -190v-53c0 -171 15 -190 107 -190zM264 -7c-160 0 -223 30 -223 279v69c0 259 67 285 223 285c166 0 224 -30 224 -285v-69c0 -254 -73 -279 -224 -279zM237 665c-35 0 -48 7 -48 21
c0 9 6 24 11 35l33 74c15 33 17 38 69 38c51 0 60 -11 60 -27c0 -10 -6 -23 -14 -37l-44 -74c-12 -20 -18 -30 -67 -30z" />
    <glyph glyph-name="Ocircumflex" unicode="&#xd4;" horiz-adv-x="529" 
d="M264 93c89 0 108 19 108 190v53c0 170 -15 190 -108 190c-88 0 -107 -20 -107 -190v-53c0 -171 15 -190 107 -190zM264 -7c-160 0 -223 30 -223 279v69c0 259 67 285 223 285c166 0 224 -30 224 -285v-69c0 -254 -73 -279 -224 -279zM267 751h-6l-39 -60
c-14 -22 -27 -26 -62 -26c-28 0 -38 8 -38 20c0 8 3 16 13 34l53 90c10 17 18 24 52 24h48c34 0 42 -7 52 -24l53 -90c10 -18 13 -26 13 -34c0 -12 -9 -20 -38 -20c-35 0 -46 4 -61 26z" />
    <glyph glyph-name="Otilde" unicode="&#xd5;" horiz-adv-x="529" 
d="M264 93c89 0 108 19 108 190v53c0 170 -15 190 -108 190c-88 0 -107 -20 -107 -190v-53c0 -171 15 -190 107 -190zM264 -7c-160 0 -223 30 -223 279v69c0 259 67 285 223 285c166 0 224 -30 224 -285v-69c0 -254 -73 -279 -224 -279zM121 718c0 33 7 41 26 53
c11 7 36 19 65 19c47 0 76 -20 113 -20c35 0 55 17 67 17s16 -5 16 -39c0 -33 -7 -41 -26 -54c-10 -6 -36 -18 -65 -18c-47 0 -76 20 -112 20s-56 -17 -68 -17s-16 5 -16 39z" />
    <glyph glyph-name="Odieresis" unicode="&#xd6;" horiz-adv-x="529" 
d="M264 93c89 0 108 19 108 190v53c0 170 -15 190 -108 190c-88 0 -107 -20 -107 -190v-53c0 -171 15 -190 107 -190zM264 -7c-160 0 -223 30 -223 279v69c0 259 67 285 223 285c166 0 224 -30 224 -285v-69c0 -254 -73 -279 -224 -279zM181 682c-52 0 -60 8 -60 43v16
c0 36 8 43 60 43s60 -7 60 -43v-16c0 -35 -8 -43 -60 -43zM348 682c-52 0 -59 8 -59 43v16c0 36 7 43 59 43s60 -7 60 -43v-16c0 -35 -8 -43 -60 -43z" />
    <glyph glyph-name="multiply" unicode="&#xd7;" 
d="M78 122c0 9 9 22 16 32l87 114l-87 122c-7 9 -16 22 -16 31c0 11 8 17 44 17c30 0 44 -4 54 -18l55 -82l55 82c10 14 23 18 54 18c36 0 44 -6 44 -17c0 -9 -9 -22 -16 -31l-88 -122l88 -114c7 -10 16 -23 16 -32c0 -11 -8 -17 -44 -17c-31 0 -44 5 -54 18l-55 76l-55 -76
c-10 -13 -24 -18 -54 -18c-36 0 -44 6 -44 17z" />
    <glyph glyph-name="Oslash" unicode="&#xd8;" horiz-adv-x="529" 
d="M264 -7c-151 0 -223 25 -223 279v69c0 255 58 285 223 285c166 0 224 -30 224 -285v-69c0 -254 -73 -279 -224 -279zM157 242l203 236c-13 41 -41 48 -96 48c-92 0 -107 -20 -107 -190v-94zM264 93c89 0 108 19 108 190v86l-199 -232c16 -38 42 -44 91 -44z" />
    <glyph glyph-name="Ugrave" unicode="&#xd9;" horiz-adv-x="527" 
d="M263 -7c-152 0 -210 50 -210 191v403c0 29 13 34 58 34c46 0 58 -5 58 -34v-409c0 -64 17 -86 94 -86s94 22 94 86v409c0 29 13 34 58 34c46 0 58 -5 58 -34v-403c0 -141 -58 -191 -210 -191zM283 665c-49 0 -55 10 -67 30l-43 74c-9 15 -15 31 -15 42c0 15 9 22 60 22
c53 0 57 -8 70 -38l33 -74c5 -11 10 -26 10 -35c0 -14 -13 -21 -48 -21z" />
    <glyph glyph-name="Uacute" unicode="&#xda;" horiz-adv-x="527" 
d="M263 -7c-152 0 -210 50 -210 191v403c0 29 13 34 58 34c46 0 58 -5 58 -34v-409c0 -64 17 -86 94 -86s94 22 94 86v409c0 29 13 34 58 34c46 0 58 -5 58 -34v-403c0 -141 -58 -191 -210 -191zM243 665c-35 0 -48 7 -48 21c0 9 6 24 11 35l33 74c15 33 17 38 69 38
c51 0 60 -11 60 -27c0 -10 -6 -23 -14 -37l-44 -74c-12 -20 -18 -30 -67 -30z" />
    <glyph glyph-name="Ucircumflex" unicode="&#xdb;" horiz-adv-x="527" 
d="M263 -7c-152 0 -210 50 -210 191v403c0 29 13 34 58 34c46 0 58 -5 58 -34v-409c0 -64 17 -86 94 -86s94 22 94 86v409c0 29 13 34 58 34c46 0 58 -5 58 -34v-403c0 -141 -58 -191 -210 -191zM267 751h-6l-39 -60c-14 -22 -27 -26 -62 -26c-28 0 -38 8 -38 20
c0 8 3 16 13 34l53 90c10 17 18 24 52 24h48c34 0 42 -7 52 -24l53 -90c10 -18 13 -26 13 -34c0 -12 -9 -20 -38 -20c-35 0 -46 4 -61 26z" />
    <glyph glyph-name="Udieresis" unicode="&#xdc;" horiz-adv-x="527" 
d="M263 -7c-152 0 -210 50 -210 191v403c0 29 13 34 58 34c46 0 58 -5 58 -34v-409c0 -64 17 -86 94 -86s94 22 94 86v409c0 29 13 34 58 34c46 0 58 -5 58 -34v-403c0 -141 -58 -191 -210 -191zM180 682c-52 0 -60 8 -60 43v16c0 36 8 43 60 43s60 -7 60 -43v-16
c0 -35 -8 -43 -60 -43zM347 682c-52 0 -59 8 -59 43v16c0 36 7 43 59 43s60 -7 60 -43v-16c0 -35 -8 -43 -60 -43z" />
    <glyph glyph-name="Yacute" unicode="&#xdd;" horiz-adv-x="474" 
d="M237 0c-45 0 -58 5 -58 34v194l-150 320c-13 27 -15 38 -15 46c0 14 8 27 51 27c57 0 65 -6 76 -33l94 -239h5l93 239c11 28 18 33 74 33c46 0 54 -12 54 -26c0 -7 -3 -20 -16 -47l-150 -320v-194c0 -29 -13 -34 -58 -34zM217 665c-35 0 -48 7 -48 21c0 9 6 24 11 35
l33 74c15 33 17 38 69 38c51 0 60 -11 60 -27c0 -10 -6 -23 -14 -37l-44 -74c-12 -20 -18 -30 -67 -30z" />
    <glyph glyph-name="Thorn" unicode="&#xde;" horiz-adv-x="475" 
d="M111 0c-45 0 -58 5 -58 34v553c0 29 13 34 58 34c46 0 58 -5 58 -34v-78c28 2 58 3 85 3c134 0 198 -25 198 -184c0 -162 -73 -209 -233 -209h-50v-85c0 -29 -12 -34 -58 -34zM169 412v-198h56c89 0 112 21 112 112c0 76 -22 89 -96 89c-26 0 -52 -2 -72 -3z" />
    <glyph glyph-name="germandbls" unicode="&#xdf;" horiz-adv-x="500" 
d="M217 671c131 0 183 -34 183 -121c0 -84 -45 -146 -45 -191c0 -24 7 -36 25 -48l55 -40c42 -31 54 -64 54 -127c0 -109 -60 -154 -148 -154c-39 0 -69 5 -95 15c-19 7 -27 15 -27 50s7 47 19 47c13 0 39 -11 77 -11c47 0 56 19 56 59c0 29 -3 42 -20 54l-52 34
c-34 22 -50 56 -50 98c0 65 40 127 40 191c0 41 -18 49 -70 49c-45 0 -52 -6 -52 -58v-484c0 -30 -14 -34 -58 -34c-45 0 -58 4 -58 34v500c0 97 32 137 166 137z" />
    <glyph glyph-name="agrave" unicode="&#xe0;" horiz-adv-x="486" 
d="M162 -10c-88 0 -129 41 -129 146c0 104 46 148 190 148h87v50c0 65 -21 70 -82 70c-73 0 -124 -16 -145 -16c-14 0 -21 13 -21 46c0 34 7 43 25 49c32 10 96 20 156 20c123 0 182 -20 182 -140v-158c0 -115 20 -157 20 -178c0 -18 -8 -27 -53 -27c-40 0 -48 4 -55 30
l-15 56c-27 -66 -86 -96 -160 -96zM203 83c55 0 107 31 107 105v27l-87 -3c-63 -2 -79 -16 -79 -64c0 -56 18 -65 59 -65zM271 539c-49 0 -55 10 -67 30l-43 74c-9 15 -15 31 -15 42c0 15 9 22 60 22c53 0 57 -8 70 -38l33 -74c5 -11 10 -26 10 -35c0 -14 -13 -21 -48 -21z
" />
    <glyph glyph-name="aacute" unicode="&#xe1;" horiz-adv-x="486" 
d="M162 -10c-88 0 -129 41 -129 146c0 104 46 148 190 148h87v50c0 65 -21 70 -82 70c-73 0 -124 -16 -145 -16c-14 0 -21 13 -21 46c0 34 7 43 25 49c32 10 96 20 156 20c123 0 182 -20 182 -140v-158c0 -115 20 -157 20 -178c0 -18 -8 -27 -53 -27c-40 0 -48 4 -55 30
l-15 56c-27 -66 -86 -96 -160 -96zM203 83c55 0 107 31 107 105v27l-87 -3c-63 -2 -79 -16 -79 -64c0 -56 18 -65 59 -65zM216 539c-35 0 -48 7 -48 21c0 9 6 24 11 35l33 74c15 33 17 38 69 38c51 0 60 -11 60 -27c0 -10 -6 -23 -14 -37l-44 -74c-12 -20 -18 -30 -67 -30z
" />
    <glyph glyph-name="acircumflex" unicode="&#xe2;" horiz-adv-x="486" 
d="M162 -10c-88 0 -129 41 -129 146c0 104 46 148 190 148h87v50c0 65 -21 70 -82 70c-73 0 -124 -16 -145 -16c-14 0 -21 13 -21 46c0 34 7 43 25 49c32 10 96 20 156 20c123 0 182 -20 182 -140v-158c0 -115 20 -157 20 -178c0 -18 -8 -27 -53 -27c-40 0 -48 4 -55 30
l-15 56c-27 -66 -86 -96 -160 -96zM203 83c55 0 107 31 107 105v27l-87 -3c-63 -2 -79 -16 -79 -64c0 -56 18 -65 59 -65zM242 625h-6l-39 -60c-14 -22 -27 -26 -62 -26c-28 0 -38 8 -38 20c0 8 3 16 13 34l53 90c10 17 18 24 52 24h48c34 0 42 -7 52 -24l53 -90
c10 -18 13 -26 13 -34c0 -12 -9 -20 -38 -20c-35 0 -46 4 -61 26z" />
    <glyph glyph-name="atilde" unicode="&#xe3;" horiz-adv-x="486" 
d="M162 -10c-88 0 -129 41 -129 146c0 104 46 148 190 148h87v50c0 65 -21 70 -82 70c-73 0 -124 -16 -145 -16c-14 0 -21 13 -21 46c0 34 7 43 25 49c32 10 96 20 156 20c123 0 182 -20 182 -140v-158c0 -115 20 -157 20 -178c0 -18 -8 -27 -53 -27c-40 0 -48 4 -55 30
l-15 56c-27 -66 -86 -96 -160 -96zM203 83c55 0 107 31 107 105v27l-87 -3c-63 -2 -79 -16 -79 -64c0 -56 18 -65 59 -65zM96 598c0 33 7 41 26 53c11 7 36 19 65 19c47 0 76 -20 113 -20c35 0 55 17 67 17s16 -5 16 -39c0 -33 -7 -41 -26 -54c-10 -6 -36 -18 -65 -18
c-47 0 -76 20 -112 20s-56 -17 -68 -17s-16 5 -16 39z" />
    <glyph glyph-name="adieresis" unicode="&#xe4;" horiz-adv-x="486" 
d="M162 -10c-88 0 -129 41 -129 146c0 104 46 148 190 148h87v50c0 65 -21 70 -82 70c-73 0 -124 -16 -145 -16c-14 0 -21 13 -21 46c0 34 7 43 25 49c32 10 96 20 156 20c123 0 182 -20 182 -140v-158c0 -115 20 -157 20 -178c0 -18 -8 -27 -53 -27c-40 0 -48 4 -55 30
l-15 56c-27 -66 -86 -96 -160 -96zM203 83c55 0 107 31 107 105v27l-87 -3c-63 -2 -79 -16 -79 -64c0 -56 18 -65 59 -65zM156 553c-52 0 -60 8 -60 43v16c0 36 8 43 60 43s60 -7 60 -43v-16c0 -35 -8 -43 -60 -43zM323 553c-52 0 -59 8 -59 43v16c0 36 7 43 59 43
s60 -7 60 -43v-16c0 -35 -8 -43 -60 -43z" />
    <glyph glyph-name="aring" unicode="&#xe5;" horiz-adv-x="486" 
d="M162 -10c-88 0 -129 41 -129 146c0 104 46 148 190 148h87v50c0 65 -21 70 -82 70c-73 0 -124 -16 -145 -16c-14 0 -21 13 -21 46c0 34 7 43 25 49c32 10 96 20 156 20c123 0 182 -20 182 -140v-158c0 -115 20 -157 20 -178c0 -18 -8 -27 -53 -27c-40 0 -48 4 -55 30
l-15 56c-27 -66 -86 -96 -160 -96zM203 83c55 0 107 31 107 105v27l-87 -3c-63 -2 -79 -16 -79 -64c0 -56 18 -65 59 -65zM237 619c39 0 43 8 43 33s-4 33 -43 33c-38 0 -41 -8 -41 -33s3 -33 41 -33zM237 547c-89 0 -123 22 -123 105c0 82 34 105 123 105
c91 0 124 -23 124 -105c0 -83 -33 -105 -124 -105z" />
    <glyph glyph-name="ae" unicode="&#xe6;" horiz-adv-x="741" 
d="M501 -10c-103 0 -156 13 -174 108c-25 -74 -87 -108 -165 -108c-88 0 -129 41 -129 146c0 104 46 148 190 148h87v50c0 65 -21 70 -82 70c-73 0 -124 -16 -145 -16c-14 0 -21 13 -21 46c0 34 7 43 25 49c32 10 96 20 156 20c68 0 114 -8 141 -35c34 26 80 35 141 35
c154 0 177 -74 177 -233c0 -36 -7 -54 -44 -54h-233c3 -118 25 -126 96 -126c89 0 141 17 155 17c12 0 19 -12 19 -47c0 -34 -8 -43 -27 -50c-33 -12 -117 -20 -167 -20zM203 83c55 0 107 31 107 105v27l-87 -3c-63 -2 -79 -16 -79 -64c0 -56 18 -65 59 -65zM514 406
c-67 0 -86 -13 -89 -118h168c0 85 -4 118 -79 118z" />
    <glyph glyph-name="ccedilla" unicode="&#xe7;" horiz-adv-x="430" 
d="M225 -223c-24 0 -42 2 -61 6s-28 9 -28 42c0 34 8 42 23 42c11 0 27 -4 51 -4c14 0 23 1 23 13s-9 15 -27 25c-25 12 -33 24 -33 60v35c-85 15 -130 70 -130 246c0 234 76 261 201 261c46 0 96 -9 128 -18c19 -6 26 -15 26 -50s-7 -47 -20 -47c-12 0 -72 16 -119 16
c-75 0 -100 -13 -100 -151c0 -144 13 -163 103 -163c64 0 104 17 118 17c12 0 19 -12 19 -47c0 -34 -8 -43 -27 -50c-31 -11 -78 -19 -117 -20v-13c0 -11 2 -15 14 -22c49 -27 63 -42 63 -91c0 -61 -38 -87 -107 -87z" />
    <glyph glyph-name="egrave" unicode="&#xe8;" horiz-adv-x="475" 
d="M258 -10c-143 0 -215 30 -215 252c0 234 74 261 207 261c163 0 186 -74 186 -233c0 -36 -7 -54 -44 -54h-233c2 -111 21 -126 107 -126c78 0 130 17 144 17c12 0 19 -12 19 -47c0 -34 -8 -43 -27 -50c-33 -12 -100 -20 -144 -20zM248 406c-63 0 -85 -13 -89 -118h168
c0 85 -4 118 -79 118zM268 539c-49 0 -55 10 -67 30l-43 74c-9 15 -15 31 -15 42c0 15 9 22 60 22c53 0 57 -8 70 -38l33 -74c5 -11 10 -26 10 -35c0 -14 -13 -21 -48 -21z" />
    <glyph glyph-name="eacute" unicode="&#xe9;" horiz-adv-x="475" 
d="M258 -10c-143 0 -215 30 -215 252c0 234 74 261 207 261c163 0 186 -74 186 -233c0 -36 -7 -54 -44 -54h-233c2 -111 21 -126 107 -126c78 0 130 17 144 17c12 0 19 -12 19 -47c0 -34 -8 -43 -27 -50c-33 -12 -100 -20 -144 -20zM248 406c-63 0 -85 -13 -89 -118h168
c0 85 -4 118 -79 118zM217 539c-35 0 -48 7 -48 21c0 9 6 24 11 35l33 74c15 33 17 38 69 38c51 0 60 -11 60 -27c0 -10 -6 -23 -14 -37l-44 -74c-12 -20 -18 -30 -67 -30z" />
    <glyph glyph-name="ecircumflex" unicode="&#xea;" horiz-adv-x="475" 
d="M258 -10c-143 0 -215 30 -215 252c0 234 74 261 207 261c163 0 186 -74 186 -233c0 -36 -7 -54 -44 -54h-233c2 -111 21 -126 107 -126c78 0 130 17 144 17c12 0 19 -12 19 -47c0 -34 -8 -43 -27 -50c-33 -12 -100 -20 -144 -20zM248 406c-63 0 -85 -13 -89 -118h168
c0 85 -4 118 -79 118zM246 625h-6l-39 -60c-14 -22 -27 -26 -62 -26c-28 0 -38 8 -38 20c0 8 3 16 13 34l53 90c10 17 18 24 52 24h48c34 0 42 -7 52 -24l53 -90c10 -18 13 -26 13 -34c0 -12 -9 -20 -38 -20c-35 0 -46 4 -61 26z" />
    <glyph glyph-name="edieresis" unicode="&#xeb;" horiz-adv-x="475" 
d="M258 -10c-143 0 -215 30 -215 252c0 234 74 261 207 261c163 0 186 -74 186 -233c0 -36 -7 -54 -44 -54h-233c2 -111 21 -126 107 -126c78 0 130 17 144 17c12 0 19 -12 19 -47c0 -34 -8 -43 -27 -50c-33 -12 -100 -20 -144 -20zM248 406c-63 0 -85 -13 -89 -118h168
c0 85 -4 118 -79 118zM159 553c-52 0 -60 8 -60 43v16c0 36 8 43 60 43s60 -7 60 -43v-16c0 -35 -8 -43 -60 -43zM326 553c-52 0 -59 8 -59 43v16c0 36 7 43 59 43s60 -7 60 -43v-16c0 -35 -8 -43 -60 -43z" />
    <glyph glyph-name="igrave" unicode="&#xec;" horiz-adv-x="222" 
d="M109 0c-45 0 -58 4 -58 34v425c0 30 13 34 58 34c44 0 58 -4 58 -34v-425c0 -30 -14 -34 -58 -34zM129 539c-49 0 -55 10 -67 30l-43 74c-9 15 -15 31 -15 42c0 15 9 22 60 22c53 0 57 -8 70 -38l33 -74c5 -11 10 -26 10 -35c0 -14 -13 -21 -48 -21z" />
    <glyph glyph-name="iacute" unicode="&#xed;" horiz-adv-x="222" 
d="M90 539c-35 0 -48 7 -48 21c0 9 6 24 11 35l33 74c15 33 17 38 69 38c51 0 60 -11 60 -27c0 -10 -6 -23 -14 -37l-44 -74c-12 -20 -18 -30 -67 -30zM109 0c-45 0 -58 4 -58 34v425c0 30 13 34 58 34c44 0 58 -4 58 -34v-425c0 -30 -14 -34 -58 -34z" />
    <glyph glyph-name="icircumflex" unicode="&#xee;" horiz-adv-x="222" 
d="M109 0c-45 0 -58 4 -58 34v425c0 30 13 34 58 34c44 0 58 -4 58 -34v-425c0 -30 -14 -34 -58 -34zM113 625h-6l-39 -60c-14 -22 -27 -26 -62 -26c-28 0 -38 8 -38 20c0 8 3 16 13 34l53 90c10 17 18 24 52 24h48c34 0 42 -7 52 -24l53 -90c10 -18 13 -26 13 -34
c0 -12 -9 -20 -38 -20c-35 0 -46 4 -61 26z" />
    <glyph glyph-name="idieresis" unicode="&#xef;" horiz-adv-x="222" 
d="M27 553c-52 0 -60 8 -60 43v16c0 36 8 43 60 43s60 -7 60 -43v-16c0 -35 -8 -43 -60 -43zM194 553c-52 0 -59 8 -59 43v16c0 36 7 43 59 43s60 -7 60 -43v-16c0 -35 -8 -43 -60 -43zM109 0c-45 0 -58 4 -58 34v425c0 30 13 34 58 34c44 0 58 -4 58 -34v-425
c0 -30 -14 -34 -58 -34z" />
    <glyph glyph-name="eth" unicode="&#xf0;" horiz-adv-x="503" 
d="M437 597c0 -10 -5 -14 -16 -17l-40 -11c39 -81 78 -198 78 -316c0 -214 -59 -263 -216 -263c-151 0 -200 43 -200 253c0 218 52 260 163 260c47 0 77 -11 98 -29c-8 26 -16 49 -25 69l-41 -10c-6 -2 -11 -3 -14 -3c-9 0 -13 6 -17 22c-4 14 -5 22 -5 26c0 10 4 14 15 17
l36 9c-9 20 -15 36 -15 47s3 22 44 22c36 0 41 -5 51 -20l16 -25l52 14c5 2 10 3 13 3c9 0 12 -6 17 -22c4 -14 6 -22 6 -26zM247 87c80 0 94 28 94 157c0 141 -21 161 -86 161c-85 0 -94 -20 -94 -154c0 -141 13 -164 86 -164z" />
    <glyph glyph-name="ntilde" unicode="&#xf1;" horiz-adv-x="514" 
d="M119 0c-44 0 -58 4 -58 34v254c0 114 -20 157 -20 178c0 17 8 27 53 27c40 0 48 -4 55 -30l14 -54c26 61 77 94 161 94c108 0 137 -43 137 -138v-331c0 -30 -14 -34 -58 -34c-45 0 -58 4 -58 34v303c0 49 -12 66 -63 66c-78 0 -105 -45 -105 -163v-206
c0 -30 -13 -34 -58 -34zM118 598c0 33 7 41 26 53c11 7 36 19 65 19c47 0 76 -20 113 -20c35 0 55 17 67 17s16 -5 16 -39c0 -33 -7 -41 -26 -54c-10 -6 -36 -18 -65 -18c-47 0 -76 20 -112 20s-56 -17 -68 -17s-16 5 -16 39z" />
    <glyph glyph-name="ograve" unicode="&#xf2;" horiz-adv-x="503" 
d="M243 -10c-151 0 -200 43 -200 253c0 213 60 260 216 260c151 0 200 -40 200 -250c0 -214 -59 -263 -216 -263zM247 87c80 0 94 28 94 157c0 141 -13 161 -86 161c-80 0 -94 -25 -94 -154c0 -141 13 -164 86 -164zM274 539c-49 0 -55 10 -67 30l-43 74
c-9 15 -15 31 -15 42c0 15 9 22 60 22c53 0 57 -8 70 -38l33 -74c5 -11 10 -26 10 -35c0 -14 -13 -21 -48 -21z" />
    <glyph glyph-name="oacute" unicode="&#xf3;" horiz-adv-x="503" 
d="M243 -10c-151 0 -200 43 -200 253c0 213 60 260 216 260c151 0 200 -40 200 -250c0 -214 -59 -263 -216 -263zM247 87c80 0 94 28 94 157c0 141 -13 161 -86 161c-80 0 -94 -25 -94 -154c0 -141 13 -164 86 -164zM228 539c-35 0 -48 7 -48 21c0 9 6 24 11 35l33 74
c15 33 17 38 69 38c51 0 60 -11 60 -27c0 -10 -6 -23 -14 -37l-44 -74c-12 -20 -18 -30 -67 -30z" />
    <glyph glyph-name="ocircumflex" unicode="&#xf4;" horiz-adv-x="503" 
d="M243 -10c-151 0 -200 43 -200 253c0 213 60 260 216 260c151 0 200 -40 200 -250c0 -214 -59 -263 -216 -263zM247 87c80 0 94 28 94 157c0 141 -13 161 -86 161c-80 0 -94 -25 -94 -154c0 -141 13 -164 86 -164zM255 625h-6l-39 -60c-14 -22 -27 -26 -62 -26
c-28 0 -38 8 -38 20c0 8 3 16 13 34l53 90c10 17 18 24 52 24h48c34 0 42 -7 52 -24l53 -90c10 -18 13 -26 13 -34c0 -12 -9 -20 -38 -20c-35 0 -46 4 -61 26z" />
    <glyph glyph-name="otilde" unicode="&#xf5;" horiz-adv-x="503" 
d="M243 -10c-151 0 -200 43 -200 253c0 213 60 260 216 260c151 0 200 -40 200 -250c0 -214 -59 -263 -216 -263zM247 87c80 0 94 28 94 157c0 141 -13 161 -86 161c-80 0 -94 -25 -94 -154c0 -141 13 -164 86 -164zM108 598c0 33 7 41 26 53c11 7 36 19 65 19
c47 0 76 -20 113 -20c35 0 55 17 67 17s16 -5 16 -39c0 -33 -7 -41 -26 -54c-10 -6 -36 -18 -65 -18c-47 0 -76 20 -112 20s-56 -17 -68 -17s-16 5 -16 39z" />
    <glyph glyph-name="odieresis" unicode="&#xf6;" horiz-adv-x="503" 
d="M243 -10c-151 0 -200 43 -200 253c0 213 60 260 216 260c151 0 200 -40 200 -250c0 -214 -59 -263 -216 -263zM247 87c80 0 94 28 94 157c0 141 -13 161 -86 161c-80 0 -94 -25 -94 -154c0 -141 13 -164 86 -164zM168 553c-52 0 -60 8 -60 43v16c0 36 8 43 60 43
s60 -7 60 -43v-16c0 -35 -8 -43 -60 -43zM335 553c-52 0 -59 8 -59 43v16c0 36 7 43 59 43s60 -7 60 -43v-16c0 -35 -8 -43 -60 -43z" />
    <glyph glyph-name="divide" unicode="&#xf7;" 
d="M79 269c0 42 5 45 31 45h245c26 0 31 -3 31 -45s-5 -46 -31 -46h-245c-26 0 -31 4 -31 46zM234 366c-40 0 -49 5 -49 34v31c0 29 9 34 49 34c41 0 48 -5 48 -34v-31c0 -29 -7 -34 -48 -34zM234 60c-40 0 -49 5 -49 33v31c0 29 9 34 49 34c41 0 48 -5 48 -34v-31
c0 -28 -7 -33 -48 -33z" />
    <glyph glyph-name="oslash" unicode="&#xf8;" horiz-adv-x="503" 
d="M243 -10c-151 0 -200 43 -200 253c0 213 60 260 216 260c151 0 200 -40 200 -250c0 -214 -59 -263 -216 -263zM247 87c80 0 94 28 94 157c0 19 -1 37 -1 52l-166 -172c12 -29 34 -37 73 -37zM161 251c0 -20 0 -38 1 -54l166 175c-12 27 -34 33 -73 33
c-80 0 -94 -25 -94 -154z" />
    <glyph glyph-name="ugrave" unicode="&#xf9;" horiz-adv-x="506" 
d="M186 -10c-102 0 -135 37 -135 132v337c0 30 13 34 58 34c44 0 58 -4 58 -34v-308c0 -48 12 -61 63 -61c78 0 103 45 103 162v207c0 30 13 34 58 34s58 -4 58 -34v-254c0 -115 21 -157 21 -178c0 -18 -8 -27 -54 -27c-40 0 -47 4 -54 30l-13 50c-27 -60 -79 -90 -163 -90z
M269 539c-49 0 -55 10 -67 30l-43 74c-9 15 -15 31 -15 42c0 15 9 22 60 22c53 0 57 -8 70 -38l33 -74c5 -11 10 -26 10 -35c0 -14 -13 -21 -48 -21z" />
    <glyph glyph-name="uacute" unicode="&#xfa;" horiz-adv-x="506" 
d="M186 -10c-102 0 -135 37 -135 132v337c0 30 13 34 58 34c44 0 58 -4 58 -34v-308c0 -48 12 -61 63 -61c78 0 103 45 103 162v207c0 30 13 34 58 34s58 -4 58 -34v-254c0 -115 21 -157 21 -178c0 -18 -8 -27 -54 -27c-40 0 -47 4 -54 30l-13 50c-27 -60 -79 -90 -163 -90z
M231 539c-35 0 -48 7 -48 21c0 9 6 24 11 35l33 74c15 33 17 38 69 38c51 0 60 -11 60 -27c0 -10 -6 -23 -14 -37l-44 -74c-12 -20 -18 -30 -67 -30z" />
    <glyph glyph-name="ucircumflex" unicode="&#xfb;" horiz-adv-x="506" 
d="M186 -10c-102 0 -135 37 -135 132v337c0 30 13 34 58 34c44 0 58 -4 58 -34v-308c0 -48 12 -61 63 -61c78 0 103 45 103 162v207c0 30 13 34 58 34s58 -4 58 -34v-254c0 -115 21 -157 21 -178c0 -18 -8 -27 -54 -27c-40 0 -47 4 -54 30l-13 50c-27 -60 -79 -90 -163 -90z
M254 625h-6l-39 -60c-14 -22 -27 -26 -62 -26c-28 0 -38 8 -38 20c0 8 3 16 13 34l53 90c10 17 18 24 52 24h48c34 0 42 -7 52 -24l53 -90c10 -18 13 -26 13 -34c0 -12 -9 -20 -38 -20c-35 0 -46 4 -61 26z" />
    <glyph glyph-name="udieresis" unicode="&#xfc;" horiz-adv-x="506" 
d="M186 -10c-102 0 -135 37 -135 132v337c0 30 13 34 58 34c44 0 58 -4 58 -34v-308c0 -48 12 -61 63 -61c78 0 103 45 103 162v207c0 30 13 34 58 34s58 -4 58 -34v-254c0 -115 21 -157 21 -178c0 -18 -8 -27 -54 -27c-40 0 -47 4 -54 30l-13 50c-27 -60 -79 -90 -163 -90z
M167 553c-52 0 -60 8 -60 43v16c0 36 8 43 60 43s60 -7 60 -43v-16c0 -35 -8 -43 -60 -43zM334 553c-52 0 -59 8 -59 43v16c0 36 7 43 59 43s60 -7 60 -43v-16c0 -35 -8 -43 -60 -43z" />
    <glyph glyph-name="yacute" unicode="&#xfd;" horiz-adv-x="471" 
d="M19 463c0 18 6 30 60 30c47 0 57 -5 63 -30l86 -366h11l90 366c6 25 16 30 62 30c53 0 62 -10 62 -29c0 -9 -2 -26 -16 -73l-125 -426c-35 -121 -61 -161 -167 -161c-36 0 -74 6 -97 14c-18 6 -27 14 -27 48c0 35 7 47 21 47c12 0 40 -9 90 -9c52 0 62 12 73 54l10 42
c-59 0 -73 14 -84 53l-94 325c-18 61 -18 76 -18 85zM218 539c-35 0 -48 7 -48 21c0 9 6 24 11 35l33 74c15 33 17 38 69 38c51 0 60 -11 60 -27c0 -10 -6 -23 -14 -37l-44 -74c-12 -20 -18 -30 -67 -30z" />
    <glyph glyph-name="thorn" unicode="&#xfe;" horiz-adv-x="526" 
d="M119 -187c-44 0 -58 4 -58 33v776c0 29 14 33 58 33c45 0 58 -4 58 -33v-176c28 37 73 57 140 57c131 0 165 -51 165 -249c0 -223 -57 -264 -182 -264c-64 0 -103 16 -123 53v-197c0 -29 -13 -33 -58 -33zM271 87c74 0 93 20 93 166c0 132 -15 152 -85 152
s-104 -22 -104 -138v-48c0 -104 19 -132 96 -132z" />
    <glyph glyph-name="ydieresis" unicode="&#xff;" horiz-adv-x="471" 
d="M19 463c0 18 6 30 60 30c47 0 57 -5 63 -30l86 -366h11l90 366c6 25 16 30 62 30c53 0 62 -10 62 -29c0 -9 -2 -26 -16 -73l-125 -426c-35 -121 -61 -161 -167 -161c-36 0 -74 6 -97 14c-18 6 -27 14 -27 48c0 35 7 47 21 47c12 0 40 -9 90 -9c52 0 62 12 73 54l10 42
c-59 0 -73 14 -84 53l-94 325c-18 61 -18 76 -18 85zM152 553c-52 0 -60 8 -60 43v16c0 36 8 43 60 43s60 -7 60 -43v-16c0 -35 -8 -43 -60 -43zM319 553c-52 0 -59 8 -59 43v16c0 36 7 43 59 43s60 -7 60 -43v-16c0 -35 -8 -43 -60 -43z" />
    <glyph glyph-name="Amacron" unicode="&#x100;" horiz-adv-x="532" 
d="M70 0c-48 0 -56 7 -56 27c0 8 3 19 7 35l136 506c12 47 30 53 109 53s95 -6 108 -53l137 -506c4 -16 6 -27 6 -35c0 -19 -7 -27 -55 -27c-50 0 -59 6 -66 33l-36 134h-191l-33 -134c-6 -27 -16 -33 -66 -33zM259 523l-67 -267h148l-68 267h-13zM152 734c0 40 5 48 31 48
h165c26 0 31 -8 31 -48c0 -41 -5 -48 -31 -48h-165c-26 0 -31 7 -31 48z" />
    <glyph glyph-name="amacron" unicode="&#x101;" horiz-adv-x="486" 
d="M162 -10c-88 0 -129 41 -129 146c0 104 46 148 190 148h87v50c0 65 -21 70 -82 70c-73 0 -124 -16 -145 -16c-14 0 -21 13 -21 46c0 34 7 43 25 49c32 10 96 20 156 20c123 0 182 -20 182 -140v-158c0 -115 20 -157 20 -178c0 -18 -8 -27 -53 -27c-40 0 -48 4 -55 30
l-15 56c-27 -66 -86 -96 -160 -96zM203 83c55 0 107 31 107 105v27l-87 -3c-63 -2 -79 -16 -79 -64c0 -56 18 -65 59 -65zM124 608c0 40 5 48 31 48h165c26 0 31 -8 31 -48c0 -41 -5 -48 -31 -48h-165c-26 0 -31 7 -31 48z" />
    <glyph glyph-name="Abreve" unicode="&#x102;" horiz-adv-x="532" 
d="M70 0c-48 0 -56 7 -56 27c0 8 3 19 7 35l136 506c12 47 30 53 109 53s95 -6 108 -53l137 -506c4 -16 6 -27 6 -35c0 -19 -7 -27 -55 -27c-50 0 -59 6 -66 33l-36 134h-191l-33 -134c-6 -27 -16 -33 -66 -33zM259 523l-67 -267h148l-68 267h-13zM266 671
c-94 0 -125 29 -125 112c0 29 7 33 41 33s39 -4 41 -26c2 -26 4 -34 43 -34s41 8 43 34c2 22 8 26 41 26c34 0 41 -4 41 -33c0 -83 -31 -112 -125 -112z" />
    <glyph glyph-name="abreve" unicode="&#x103;" horiz-adv-x="486" 
d="M162 -10c-88 0 -129 41 -129 146c0 104 46 148 190 148h87v50c0 65 -21 70 -82 70c-73 0 -124 -16 -145 -16c-14 0 -21 13 -21 46c0 34 7 43 25 49c32 10 96 20 156 20c123 0 182 -20 182 -140v-158c0 -115 20 -157 20 -178c0 -18 -8 -27 -53 -27c-40 0 -48 4 -55 30
l-15 56c-27 -66 -86 -96 -160 -96zM203 83c55 0 107 31 107 105v27l-87 -3c-63 -2 -79 -16 -79 -64c0 -56 18 -65 59 -65zM239 548c-94 0 -125 29 -125 112c0 29 7 33 41 33s39 -4 41 -26c2 -26 4 -34 43 -34s41 8 43 34c2 22 8 26 41 26c34 0 41 -4 41 -33
c0 -83 -31 -112 -125 -112z" />
    <glyph glyph-name="Aogonek" unicode="&#x104;" horiz-adv-x="532" 
d="M423 -196c-50 0 -78 18 -78 75c0 49 27 85 71 125c-13 5 -16 13 -20 29l-36 134h-191l-33 -134c-6 -27 -16 -33 -66 -33c-48 0 -56 7 -56 27c0 8 3 19 7 35l136 506c12 47 30 53 109 53s95 -6 108 -53l137 -506c4 -16 6 -27 6 -35v-4c-1 -12 -6 -23 -27 -46
c-31 -33 -39 -48 -39 -63c0 -14 4 -18 16 -18c13 0 19 2 29 2c14 0 21 -6 21 -38c0 -34 -8 -39 -29 -46c-17 -5 -36 -10 -65 -10zM259 523l-67 -267h148l-68 267h-13z" />
    <glyph glyph-name="aogonek" unicode="&#x105;" horiz-adv-x="486" 
d="M355 -196c-50 0 -78 18 -78 75c0 47 23 83 70 129c-5 5 -8 12 -10 22l-15 56c-27 -66 -86 -96 -160 -96c-88 0 -129 41 -129 146c0 104 46 148 190 148h87v50c0 65 -21 70 -82 70c-73 0 -124 -16 -145 -16c-14 0 -21 13 -21 46c0 34 7 43 25 49c32 10 96 20 156 20
c123 0 182 -20 182 -140v-158c0 -115 20 -157 20 -178c0 -10 -2 -20 -24 -46c-32 -36 -38 -51 -38 -67c0 -14 4 -18 16 -18c13 0 19 2 29 2c14 0 21 -6 21 -38c0 -34 -8 -39 -29 -46c-17 -5 -36 -10 -65 -10zM203 83c55 0 107 31 107 105v27l-87 -3c-63 -2 -79 -16 -79 -64
c0 -56 18 -65 59 -65z" />
    <glyph glyph-name="Cacute" unicode="&#x106;" horiz-adv-x="453" 
d="M255 -7c-123 0 -214 21 -214 265v88c0 260 94 280 216 280c51 0 102 -8 143 -19c16 -4 24 -10 24 -54c0 -34 -7 -45 -18 -45c-15 0 -58 15 -122 15c-97 0 -127 -15 -127 -185v-55c0 -177 32 -188 127 -188c68 0 104 16 122 16c14 0 18 -9 18 -46c0 -42 -8 -49 -24 -53
c-41 -12 -92 -19 -145 -19zM231 665c-35 0 -48 7 -48 21c0 9 6 24 11 35l33 74c15 33 17 38 69 38c51 0 60 -11 60 -27c0 -10 -6 -23 -14 -37l-44 -74c-12 -20 -18 -30 -67 -30z" />
    <glyph glyph-name="cacute" unicode="&#x107;" horiz-adv-x="430" 
d="M248 -10c-133 0 -205 30 -205 252c0 234 76 261 201 261c46 0 96 -9 128 -18c19 -6 26 -15 26 -50s-7 -47 -20 -47c-12 0 -72 16 -119 16c-75 0 -100 -13 -100 -151c0 -144 13 -163 103 -163c64 0 104 17 118 17c12 0 19 -12 19 -47c0 -34 -8 -43 -27 -50
c-33 -12 -84 -20 -124 -20zM211 539c-35 0 -48 7 -48 21c0 9 6 24 11 35l33 74c15 33 17 38 69 38c51 0 60 -11 60 -27c0 -10 -6 -23 -14 -37l-44 -74c-12 -20 -18 -30 -67 -30z" />
    <glyph glyph-name="Ccircumflex" unicode="&#x108;" horiz-adv-x="453" 
d="M255 -7c-123 0 -214 21 -214 265v88c0 260 94 280 216 280c51 0 102 -8 143 -19c16 -4 24 -10 24 -54c0 -34 -7 -45 -18 -45c-15 0 -58 15 -122 15c-97 0 -127 -15 -127 -185v-55c0 -177 32 -188 127 -188c68 0 104 16 122 16c14 0 18 -9 18 -46c0 -42 -8 -49 -24 -53
c-41 -12 -92 -19 -145 -19zM249 751h-6l-39 -60c-14 -22 -27 -26 -62 -26c-28 0 -38 8 -38 20c0 8 3 16 13 34l53 90c10 17 18 24 52 24h48c34 0 42 -7 52 -24l53 -90c10 -18 13 -26 13 -34c0 -12 -9 -20 -38 -20c-35 0 -46 4 -61 26z" />
    <glyph glyph-name="ccircumflex" unicode="&#x109;" horiz-adv-x="430" 
d="M248 -10c-133 0 -205 30 -205 252c0 234 76 261 201 261c46 0 96 -9 128 -18c19 -6 26 -15 26 -50s-7 -47 -20 -47c-12 0 -72 16 -119 16c-75 0 -100 -13 -100 -151c0 -144 13 -163 103 -163c64 0 104 17 118 17c12 0 19 -12 19 -47c0 -34 -8 -43 -27 -50
c-33 -12 -84 -20 -124 -20zM240 625h-6l-39 -60c-14 -22 -27 -26 -62 -26c-28 0 -38 8 -38 20c0 8 3 16 13 34l53 90c10 17 18 24 52 24h48c34 0 42 -7 52 -24l53 -90c10 -18 13 -26 13 -34c0 -12 -9 -20 -38 -20c-35 0 -46 4 -61 26z" />
    <glyph glyph-name="Cdotaccent" unicode="&#x10a;" horiz-adv-x="453" 
d="M255 -7c-123 0 -214 21 -214 265v88c0 260 94 280 216 280c51 0 102 -8 143 -19c16 -4 24 -10 24 -54c0 -34 -7 -45 -18 -45c-15 0 -58 15 -122 15c-97 0 -127 -15 -127 -185v-55c0 -177 32 -188 127 -188c68 0 104 16 122 16c14 0 18 -9 18 -46c0 -42 -8 -49 -24 -53
c-41 -12 -92 -19 -145 -19zM245 679c-56 0 -63 8 -63 43v16c0 36 7 43 63 43c57 0 63 -7 63 -43v-16c0 -35 -6 -43 -63 -43z" />
    <glyph glyph-name="cdotaccent" unicode="&#x10b;" horiz-adv-x="430" 
d="M248 -10c-133 0 -205 30 -205 252c0 234 76 261 201 261c46 0 96 -9 128 -18c19 -6 26 -15 26 -50s-7 -47 -20 -47c-12 0 -72 16 -119 16c-75 0 -100 -13 -100 -151c0 -144 13 -163 103 -163c64 0 104 17 118 17c12 0 19 -12 19 -47c0 -34 -8 -43 -27 -50
c-33 -12 -84 -20 -124 -20zM236 553c-56 0 -63 8 -63 43v16c0 36 7 43 63 43c57 0 63 -7 63 -43v-16c0 -35 -6 -43 -63 -43z" />
    <glyph glyph-name="Ccaron" unicode="&#x10c;" horiz-adv-x="453" 
d="M255 -7c-123 0 -214 21 -214 265v88c0 260 94 280 216 280c51 0 102 -8 143 -19c16 -4 24 -10 24 -54c0 -34 -7 -45 -18 -45c-15 0 -58 15 -122 15c-97 0 -127 -15 -127 -185v-55c0 -177 32 -188 127 -188c68 0 104 16 122 16c14 0 18 -9 18 -46c0 -42 -8 -49 -24 -53
c-41 -12 -92 -19 -145 -19zM92 813c0 13 10 20 39 20c35 0 46 -3 61 -26l40 -59h6l39 59c15 22 27 26 62 26c28 0 38 -7 38 -20c0 -8 -3 -16 -13 -33l-53 -91c-9 -17 -18 -24 -52 -24h-48c-34 0 -43 7 -53 24l-52 91c-10 17 -14 25 -14 33z" />
    <glyph glyph-name="ccaron" unicode="&#x10d;" horiz-adv-x="430" 
d="M248 -10c-133 0 -205 30 -205 252c0 234 76 261 201 261c46 0 96 -9 128 -18c19 -6 26 -15 26 -50s-7 -47 -20 -47c-12 0 -72 16 -119 16c-75 0 -100 -13 -100 -151c0 -144 13 -163 103 -163c64 0 104 17 118 17c12 0 19 -12 19 -47c0 -34 -8 -43 -27 -50
c-33 -12 -84 -20 -124 -20zM94 687c0 13 10 20 39 20c35 0 46 -3 61 -26l40 -59h6l39 59c15 22 27 26 62 26c28 0 38 -7 38 -20c0 -8 -3 -16 -13 -33l-53 -91c-9 -17 -18 -24 -52 -24h-48c-34 0 -43 7 -53 24l-52 91c-10 17 -14 25 -14 33z" />
    <glyph glyph-name="Dcaron" unicode="&#x10e;" horiz-adv-x="528" 
d="M249 95c96 0 122 14 122 188v69c0 153 -29 177 -132 177c-27 0 -53 -2 -70 -4v-426c21 -3 45 -4 80 -4zM249 -7c-66 0 -105 1 -160 7c-30 4 -36 12 -36 37v542c0 28 11 36 35 39c51 7 106 8 146 8c164 0 253 -20 253 -270v-73c0 -270 -98 -290 -238 -290zM115 813
c0 13 10 20 39 20c35 0 46 -3 61 -26l40 -59h6l39 59c15 22 27 26 62 26c28 0 38 -7 38 -20c0 -8 -3 -16 -13 -33l-53 -91c-9 -17 -18 -24 -52 -24h-48c-34 0 -43 7 -53 24l-52 91c-10 17 -14 25 -14 33z" />
    <glyph glyph-name="dcaron" unicode="&#x10f;" horiz-adv-x="662" 
d="M209 -10c-132 0 -166 51 -166 249c0 223 57 264 183 264c62 0 101 -15 122 -56v175c0 29 14 33 58 33c45 0 58 -4 58 -33v-417c0 -115 21 -157 21 -178c0 -18 -8 -27 -54 -27c-40 0 -47 4 -54 30l-13 47c-23 -57 -71 -87 -155 -87zM247 87c71 0 103 22 103 132v54
c0 104 -18 132 -96 132c-74 0 -93 -19 -93 -165c0 -132 15 -153 86 -153zM584 655c51 0 59 -7 59 -42v-27c0 -31 -6 -60 -17 -91l-16 -49c-14 -35 -22 -41 -63 -41c-29 0 -35 7 -35 20c0 22 13 79 13 126v62c0 35 9 42 59 42z" />
    <glyph glyph-name="Dcroat" unicode="&#x110;" horiz-adv-x="528" 
d="M249 -7c-66 0 -105 1 -160 7c-30 4 -36 12 -36 37v226h-22c-26 0 -31 9 -31 51s5 51 31 51h22v214c0 28 11 36 35 39c51 7 106 8 146 8c164 0 253 -20 253 -270v-73c0 -270 -98 -290 -238 -290zM249 95c96 0 122 14 122 188v69c0 153 -29 177 -132 177
c-27 0 -53 -2 -70 -4v-162h58c26 0 31 -9 31 -49c0 -41 -5 -49 -31 -49h-58v-166c21 -3 45 -4 80 -4z" />
    <glyph glyph-name="dcroat" unicode="&#x111;" horiz-adv-x="521" 
d="M209 -10c-132 0 -166 51 -166 249c0 223 57 264 183 264c62 0 101 -15 122 -56v79h-28c-22 0 -27 5 -27 33c0 29 5 34 27 34h28v29c0 29 14 33 58 33c45 0 58 -4 58 -33v-29h37c22 0 26 -6 26 -35c0 -28 -4 -35 -26 -35h-37v-318c0 -115 21 -157 21 -178
c0 -18 -8 -27 -54 -27c-40 0 -47 4 -54 30l-13 47c-23 -57 -71 -87 -155 -87zM247 87c71 0 103 22 103 132v54c0 104 -18 132 -96 132c-74 0 -93 -19 -93 -165c0 -132 15 -153 86 -153z" />
    <glyph glyph-name="Emacron" unicode="&#x112;" horiz-adv-x="455" 
d="M431 51c0 -41 -8 -51 -31 -51h-311c-27 0 -36 5 -36 31v559c0 26 9 31 36 31h301c23 0 31 -10 31 -52s-8 -51 -31 -51h-221v-142h160c26 0 31 -8 31 -50s-5 -51 -31 -51h-160v-172h231c23 0 31 -10 31 -52zM127 734c0 40 5 48 31 48h165c26 0 31 -8 31 -48
c0 -41 -5 -48 -31 -48h-165c-26 0 -31 7 -31 48z" />
    <glyph glyph-name="emacron" unicode="&#x113;" horiz-adv-x="475" 
d="M258 -10c-143 0 -215 30 -215 252c0 234 74 261 207 261c163 0 186 -74 186 -233c0 -36 -7 -54 -44 -54h-233c2 -111 21 -126 107 -126c78 0 130 17 144 17c12 0 19 -12 19 -47c0 -34 -8 -43 -27 -50c-33 -12 -100 -20 -144 -20zM248 406c-63 0 -85 -13 -89 -118h168
c0 85 -4 118 -79 118zM129 608c0 40 5 48 31 48h165c26 0 31 -8 31 -48c0 -41 -5 -48 -31 -48h-165c-26 0 -31 7 -31 48z" />
    <glyph glyph-name="Ebreve" unicode="&#x114;" horiz-adv-x="455" 
d="M431 51c0 -41 -8 -51 -31 -51h-311c-27 0 -36 5 -36 31v559c0 26 9 31 36 31h301c23 0 31 -10 31 -52s-8 -51 -31 -51h-221v-142h160c26 0 31 -8 31 -50s-5 -51 -31 -51h-160v-172h231c23 0 31 -10 31 -52zM240 676c-94 0 -125 29 -125 112c0 29 7 33 41 33s39 -4 41 -26
c2 -26 4 -34 43 -34s41 8 43 34c2 22 8 26 41 26c34 0 41 -4 41 -33c0 -83 -31 -112 -125 -112z" />
    <glyph glyph-name="ebreve" unicode="&#x115;" horiz-adv-x="475" 
d="M258 -10c-143 0 -215 30 -215 252c0 234 74 261 207 261c163 0 186 -74 186 -233c0 -36 -7 -54 -44 -54h-233c2 -111 21 -126 107 -126c78 0 130 17 144 17c12 0 19 -12 19 -47c0 -34 -8 -43 -27 -50c-33 -12 -100 -20 -144 -20zM248 406c-63 0 -85 -13 -89 -118h168
c0 85 -4 118 -79 118zM242 548c-94 0 -125 29 -125 112c0 29 7 33 41 33s39 -4 41 -26c2 -26 4 -34 43 -34s41 8 43 34c2 22 8 26 41 26c34 0 41 -4 41 -33c0 -83 -31 -112 -125 -112z" />
    <glyph glyph-name="Edotaccent" unicode="&#x116;" horiz-adv-x="455" 
d="M431 51c0 -41 -8 -51 -31 -51h-311c-27 0 -36 5 -36 31v559c0 26 9 31 36 31h301c23 0 31 -10 31 -52s-8 -51 -31 -51h-221v-142h160c26 0 31 -8 31 -50s-5 -51 -31 -51h-160v-172h231c23 0 31 -10 31 -52zM240 682c-56 0 -63 8 -63 43v16c0 36 7 43 63 43
c57 0 63 -7 63 -43v-16c0 -35 -6 -43 -63 -43z" />
    <glyph glyph-name="edotaccent" unicode="&#x117;" horiz-adv-x="475" 
d="M258 -10c-143 0 -215 30 -215 252c0 234 74 261 207 261c163 0 186 -74 186 -233c0 -36 -7 -54 -44 -54h-233c2 -111 21 -126 107 -126c78 0 130 17 144 17c12 0 19 -12 19 -47c0 -34 -8 -43 -27 -50c-33 -12 -100 -20 -144 -20zM248 406c-63 0 -85 -13 -89 -118h168
c0 85 -4 118 -79 118zM242 553c-56 0 -63 8 -63 43v16c0 36 7 43 63 43c57 0 63 -7 63 -43v-16c0 -35 -6 -43 -63 -43z" />
    <glyph glyph-name="Eogonek" unicode="&#x118;" horiz-adv-x="455" 
d="M360 326c0 -42 -5 -51 -31 -51h-160v-172h231c23 0 31 -10 31 -51c0 -29 -2 -45 -28 -74c-30 -35 -38 -49 -38 -64c0 -14 4 -18 16 -18c13 0 19 2 29 2c14 0 21 -6 21 -38c0 -34 -8 -39 -29 -46c-17 -5 -36 -10 -65 -10c-51 0 -78 18 -78 75c0 47 23 80 65 121h-235
c-27 0 -36 5 -36 31v559c0 26 9 31 36 31h301c23 0 31 -10 31 -52s-8 -51 -31 -51h-221v-142h160c26 0 31 -8 31 -50z" />
    <glyph glyph-name="eogonek" unicode="&#x119;" horiz-adv-x="475" 
d="M334 -196c-50 0 -78 18 -78 75c0 43 19 76 54 114c-18 -2 -37 -3 -52 -3c-143 0 -215 30 -215 252c0 234 74 261 207 261c163 0 186 -74 186 -233c0 -36 -7 -54 -44 -54h-233c2 -111 21 -126 107 -126c78 0 130 17 144 17c12 0 19 -12 19 -47c0 -34 -8 -47 -34 -82
c-25 -32 -32 -48 -32 -64c0 -14 3 -18 15 -18c14 0 19 2 29 2c15 0 22 -6 22 -38c0 -34 -8 -39 -29 -46c-17 -5 -36 -10 -66 -10zM248 406c-63 0 -85 -13 -89 -118h168c0 85 -4 118 -79 118z" />
    <glyph glyph-name="Ecaron" unicode="&#x11a;" horiz-adv-x="455" 
d="M431 51c0 -41 -8 -51 -31 -51h-311c-27 0 -36 5 -36 31v559c0 26 9 31 36 31h301c23 0 31 -10 31 -52s-8 -51 -31 -51h-221v-142h160c26 0 31 -8 31 -50s-5 -51 -31 -51h-160v-172h231c23 0 31 -10 31 -52zM98 813c0 13 10 20 39 20c35 0 46 -3 61 -26l40 -59h6l39 59
c15 22 27 26 62 26c28 0 38 -7 38 -20c0 -8 -3 -16 -13 -33l-53 -91c-9 -17 -18 -24 -52 -24h-48c-34 0 -43 7 -53 24l-52 91c-10 17 -14 25 -14 33z" />
    <glyph glyph-name="ecaron" unicode="&#x11b;" horiz-adv-x="475" 
d="M258 -10c-143 0 -215 30 -215 252c0 234 74 261 207 261c163 0 186 -74 186 -233c0 -36 -7 -54 -44 -54h-233c2 -111 21 -126 107 -126c78 0 130 17 144 17c12 0 19 -12 19 -47c0 -34 -8 -43 -27 -50c-33 -12 -100 -20 -144 -20zM248 406c-63 0 -85 -13 -89 -118h168
c0 85 -4 118 -79 118zM100 687c0 13 10 20 39 20c35 0 46 -3 61 -26l40 -59h6l39 59c15 22 27 26 62 26c28 0 38 -7 38 -20c0 -8 -3 -16 -13 -33l-53 -91c-9 -17 -18 -24 -52 -24h-48c-34 0 -43 7 -53 24l-52 91c-10 17 -14 25 -14 33z" />
    <glyph glyph-name="Gcircumflex" unicode="&#x11c;" horiz-adv-x="497" 
d="M254 -7c-124 0 -215 21 -215 265v88c0 260 93 280 219 280c51 0 111 -8 152 -19c16 -4 24 -10 24 -54c0 -34 -6 -45 -18 -45c-15 0 -71 15 -134 15c-96 0 -127 -15 -127 -185v-55c0 -177 35 -188 109 -188c60 0 89 15 89 91v64h-70c-21 0 -26 9 -26 51c0 37 5 46 26 46
h131c36 0 41 -10 41 -31v-156c0 -125 -60 -167 -201 -167zM245 751h-6l-39 -60c-14 -22 -27 -26 -62 -26c-28 0 -38 8 -38 20c0 8 3 16 13 34l53 90c10 17 18 24 52 24h48c34 0 42 -7 52 -24l53 -90c10 -18 13 -26 13 -34c0 -12 -9 -20 -38 -20c-35 0 -46 4 -61 26z" />
    <glyph glyph-name="gcircumflex" unicode="&#x11d;" horiz-adv-x="517" 
d="M43 250c0 212 57 253 188 253c68 0 111 -18 134 -72l8 32c7 26 14 30 54 30c46 0 54 -10 54 -27c0 -21 -21 -64 -21 -178v-243c0 -205 -97 -241 -233 -241c-47 0 -101 5 -139 14c-18 4 -27 14 -27 51c0 35 6 47 21 47c14 0 64 -11 138 -11c105 0 124 33 124 139v6
c-24 -39 -68 -60 -142 -60c-126 0 -159 51 -159 260zM161 240c0 -132 15 -153 86 -153s103 22 103 132v54c0 104 -18 132 -96 132c-74 0 -93 -19 -93 -165zM263 625h-6l-39 -60c-14 -22 -27 -26 -62 -26c-28 0 -38 8 -38 20c0 8 3 16 13 34l53 90c10 17 18 24 52 24h48
c34 0 42 -7 52 -24l53 -90c10 -18 13 -26 13 -34c0 -12 -9 -20 -38 -20c-35 0 -46 4 -61 26z" />
    <glyph glyph-name="Gbreve" unicode="&#x11e;" horiz-adv-x="497" 
d="M254 -7c-124 0 -215 21 -215 265v88c0 260 93 280 219 280c51 0 111 -8 152 -19c16 -4 24 -10 24 -54c0 -34 -6 -45 -18 -45c-15 0 -71 15 -134 15c-96 0 -127 -15 -127 -185v-55c0 -177 35 -188 109 -188c60 0 89 15 89 91v64h-70c-21 0 -26 9 -26 51c0 37 5 46 26 46
h131c36 0 41 -10 41 -31v-156c0 -125 -60 -167 -201 -167zM241 674c-94 0 -125 29 -125 112c0 29 7 33 41 33s39 -4 41 -26c2 -26 4 -34 43 -34s41 8 43 34c2 22 8 26 41 26c34 0 41 -4 41 -33c0 -83 -31 -112 -125 -112z" />
    <glyph glyph-name="gbreve" unicode="&#x11f;" horiz-adv-x="517" 
d="M43 250c0 212 57 253 188 253c68 0 111 -18 134 -72l8 32c7 26 14 30 54 30c46 0 54 -10 54 -27c0 -21 -21 -64 -21 -178v-243c0 -205 -97 -241 -233 -241c-47 0 -101 5 -139 14c-18 4 -27 14 -27 51c0 35 6 47 21 47c14 0 64 -11 138 -11c105 0 124 33 124 139v6
c-24 -39 -68 -60 -142 -60c-126 0 -159 51 -159 260zM161 240c0 -132 15 -153 86 -153s103 22 103 132v54c0 104 -18 132 -96 132c-74 0 -93 -19 -93 -165zM259 548c-94 0 -125 29 -125 112c0 29 7 33 41 33s39 -4 41 -26c2 -26 4 -34 43 -34s41 8 43 34c2 22 8 26 41 26
c34 0 41 -4 41 -33c0 -83 -31 -112 -125 -112z" />
    <glyph glyph-name="Gdotaccent" unicode="&#x120;" horiz-adv-x="497" 
d="M254 -7c-124 0 -215 21 -215 265v88c0 260 93 280 219 280c51 0 111 -8 152 -19c16 -4 24 -10 24 -54c0 -34 -6 -45 -18 -45c-15 0 -71 15 -134 15c-96 0 -127 -15 -127 -185v-55c0 -177 35 -188 109 -188c60 0 89 15 89 91v64h-70c-21 0 -26 9 -26 51c0 37 5 46 26 46
h131c36 0 41 -10 41 -31v-156c0 -125 -60 -167 -201 -167zM241 682c-56 0 -63 8 -63 43v16c0 36 7 43 63 43c57 0 63 -7 63 -43v-16c0 -35 -6 -43 -63 -43z" />
    <glyph glyph-name="gdotaccent" unicode="&#x121;" horiz-adv-x="517" 
d="M43 250c0 212 57 253 188 253c68 0 111 -18 134 -72l8 32c7 26 14 30 54 30c46 0 54 -10 54 -27c0 -21 -21 -64 -21 -178v-243c0 -205 -97 -241 -233 -241c-47 0 -101 5 -139 14c-18 4 -27 14 -27 51c0 35 6 47 21 47c14 0 64 -11 138 -11c105 0 124 33 124 139v6
c-24 -39 -68 -60 -142 -60c-126 0 -159 51 -159 260zM161 240c0 -132 15 -153 86 -153s103 22 103 132v54c0 104 -18 132 -96 132c-74 0 -93 -19 -93 -165zM259 553c-56 0 -63 8 -63 43v16c0 36 7 43 63 43c57 0 63 -7 63 -43v-16c0 -35 -6 -43 -63 -43z" />
    <glyph glyph-name="Gcommaaccent" unicode="&#x122;" horiz-adv-x="497" 
d="M254 -7c-124 0 -215 21 -215 265v88c0 260 93 280 219 280c51 0 111 -8 152 -19c16 -4 24 -10 24 -54c0 -34 -6 -45 -18 -45c-15 0 -71 15 -134 15c-96 0 -127 -15 -127 -185v-55c0 -177 35 -188 109 -188c60 0 89 15 89 91v64h-70c-21 0 -26 9 -26 51c0 37 5 46 26 46
h131c36 0 41 -10 41 -31v-156c0 -125 -60 -167 -201 -167zM224 -239c-30 0 -36 7 -36 21c0 22 11 70 11 127c0 37 8 45 59 45c46 0 59 -8 59 -34c0 -25 -2 -50 -13 -73l-23 -58c-10 -21 -17 -28 -57 -28z" />
    <glyph glyph-name="gcommaaccent" unicode="&#x123;" horiz-adv-x="517" 
d="M43 250c0 212 57 253 188 253c68 0 111 -18 134 -72l8 32c7 26 14 30 54 30c46 0 54 -10 54 -27c0 -21 -21 -64 -21 -178v-243c0 -205 -97 -241 -233 -241c-47 0 -101 5 -139 14c-18 4 -27 14 -27 51c0 35 6 47 21 47c14 0 64 -11 138 -11c105 0 124 33 124 139v6
c-24 -39 -68 -60 -142 -60c-126 0 -159 51 -159 260zM161 240c0 -132 15 -153 86 -153s103 22 103 132v54c0 104 -18 132 -96 132c-74 0 -93 -19 -93 -165zM297 726c30 0 36 -7 36 -21c0 -22 -11 -70 -11 -127c0 -37 -8 -45 -59 -45c-46 0 -59 8 -59 34c0 25 2 50 13 73
l23 58c10 21 17 28 57 28z" />
    <glyph glyph-name="Hcircumflex" unicode="&#x124;" horiz-adv-x="531" 
d="M169 366h193v221c0 29 12 34 58 34c45 0 58 -5 58 -34v-553c0 -29 -13 -34 -58 -34c-46 0 -58 5 -58 34v234h-193v-234c0 -29 -12 -34 -58 -34c-45 0 -58 5 -58 34v553c0 29 13 34 58 34c46 0 58 -5 58 -34v-221zM268 751h-6l-39 -60c-14 -22 -27 -26 -62 -26
c-28 0 -38 8 -38 20c0 8 3 16 13 34l53 90c10 17 18 24 52 24h48c34 0 42 -7 52 -24l53 -90c10 -18 13 -26 13 -34c0 -12 -9 -20 -38 -20c-35 0 -46 4 -61 26z" />
    <glyph glyph-name="hcircumflex" unicode="&#x125;" horiz-adv-x="504" 
d="M109 0c-45 0 -58 4 -58 34v588c0 29 13 33 58 33c44 0 58 -4 58 -33v-185c26 44 71 66 146 66c108 0 137 -43 137 -138v-331c0 -30 -13 -34 -58 -34c-44 0 -58 4 -58 34v303c0 49 -12 66 -63 66c-78 0 -104 -45 -104 -163v-206c0 -30 -14 -34 -58 -34zM268 759h-6
l-39 -60c-14 -22 -27 -26 -62 -26c-28 0 -38 8 -38 20c0 8 3 16 13 34l53 90c10 17 18 24 52 24h48c34 0 42 -7 52 -24l53 -90c10 -18 13 -26 13 -34c0 -12 -9 -20 -38 -20c-35 0 -46 4 -61 26z" />
    <glyph glyph-name="Hbar" unicode="&#x126;" horiz-adv-x="531" 
d="M6 487c0 36 5 43 28 43h19v57c0 29 13 34 58 34c46 0 58 -5 58 -34v-57h193v57c0 29 12 34 58 34c45 0 58 -5 58 -34v-57h17c23 0 28 -7 28 -43s-5 -42 -28 -42h-17v-411c0 -29 -13 -34 -58 -34c-46 0 -58 5 -58 34v234h-193v-234c0 -29 -12 -34 -58 -34
c-45 0 -58 5 -58 34v411h-19c-23 0 -28 6 -28 42zM169 366h193v79h-193v-79z" />
    <glyph glyph-name="hbar" unicode="&#x127;" horiz-adv-x="504" 
d="M109 0c-45 0 -58 4 -58 34v489h-32c-21 0 -26 7 -26 35s5 35 26 35h32v29c0 29 13 33 58 33c44 0 58 -4 58 -33v-29h36c22 0 27 -6 27 -34s-5 -33 -27 -33h-36v-89c26 44 71 66 146 66c108 0 137 -43 137 -138v-331c0 -30 -13 -34 -58 -34c-44 0 -58 4 -58 34v303
c0 49 -12 66 -63 66c-78 0 -104 -45 -104 -163v-206c0 -30 -14 -34 -58 -34z" />
    <glyph glyph-name="Itilde" unicode="&#x128;" horiz-adv-x="223" 
d="M111 0c-45 0 -58 5 -58 34v553c0 29 13 34 58 34c46 0 58 -5 58 -34v-553c0 -29 -12 -34 -58 -34zM-32 718c0 33 7 41 26 53c11 7 36 19 65 19c47 0 76 -20 113 -20c35 0 55 17 67 17s16 -5 16 -39c0 -33 -7 -41 -26 -54c-10 -6 -36 -18 -65 -18c-47 0 -76 20 -112 20
s-56 -17 -68 -17s-16 5 -16 39z" />
    <glyph glyph-name="itilde" unicode="&#x129;" horiz-adv-x="222" 
d="M-33 598c0 33 7 41 26 53c11 7 36 19 65 19c47 0 76 -20 113 -20c35 0 55 17 67 17s16 -5 16 -39c0 -33 -7 -41 -26 -54c-10 -6 -36 -18 -65 -18c-47 0 -76 20 -112 20s-56 -17 -68 -17s-16 5 -16 39zM109 0c-45 0 -58 4 -58 34v425c0 30 13 34 58 34c44 0 58 -4 58 -34
v-425c0 -30 -14 -34 -58 -34z" />
    <glyph glyph-name="Imacron" unicode="&#x12a;" horiz-adv-x="223" 
d="M111 0c-45 0 -58 5 -58 34v553c0 29 13 34 58 34c46 0 58 -5 58 -34v-553c0 -29 -12 -34 -58 -34zM-2 734c0 40 5 48 31 48h165c26 0 31 -8 31 -48c0 -41 -5 -48 -31 -48h-165c-26 0 -31 7 -31 48z" />
    <glyph glyph-name="imacron" unicode="&#x12b;" horiz-adv-x="222" 
d="M-3 608c0 40 5 48 31 48h165c26 0 31 -8 31 -48c0 -41 -5 -48 -31 -48h-165c-26 0 -31 7 -31 48zM109 0c-45 0 -58 4 -58 34v425c0 30 13 34 58 34c44 0 58 -4 58 -34v-425c0 -30 -14 -34 -58 -34z" />
    <glyph glyph-name="Ibreve" unicode="&#x12c;" horiz-adv-x="223" 
d="M111 0c-45 0 -58 5 -58 34v553c0 29 13 34 58 34c46 0 58 -5 58 -34v-553c0 -29 -12 -34 -58 -34zM111 671c-94 0 -125 29 -125 112c0 29 7 33 41 33s39 -4 41 -26c2 -26 4 -34 43 -34s41 8 43 34c2 22 8 26 41 26c34 0 41 -4 41 -33c0 -83 -31 -112 -125 -112z" />
    <glyph glyph-name="ibreve" unicode="&#x12d;" horiz-adv-x="222" 
d="M110 548c-94 0 -125 29 -125 112c0 29 7 33 41 33s39 -4 41 -26c2 -26 4 -34 43 -34s41 8 43 34c2 22 8 26 41 26c34 0 41 -4 41 -33c0 -83 -31 -112 -125 -112zM109 0c-45 0 -58 4 -58 34v425c0 30 13 34 58 34c44 0 58 -4 58 -34v-425c0 -30 -14 -34 -58 -34z" />
    <glyph glyph-name="Iogonek" unicode="&#x12e;" horiz-adv-x="223" 
d="M169 53c0 -30 -2 -46 -27 -75c-30 -35 -38 -49 -38 -64c0 -14 3 -18 15 -18c13 0 19 2 29 2c15 0 21 -6 21 -38c0 -34 -8 -39 -29 -46c-16 -5 -35 -10 -65 -10c-50 0 -78 18 -78 75c0 49 26 82 71 125c-11 5 -15 14 -15 30v553c0 29 13 34 58 34c46 0 58 -5 58 -34v-534z
" />
    <glyph glyph-name="iogonek" unicode="&#x12f;" horiz-adv-x="222" 
d="M72 -196c-50 0 -78 18 -78 75c0 43 18 74 72 125c-11 5 -15 13 -15 30v425c0 30 13 34 58 34c44 0 58 -4 58 -34v-425c0 -20 -4 -30 -31 -61c-27 -30 -35 -43 -35 -59c0 -14 3 -18 15 -18c14 0 19 2 29 2c15 0 22 -6 22 -38c0 -34 -8 -39 -29 -46c-17 -5 -36 -10 -66 -10
zM109 553c-57 0 -63 8 -63 43v16c0 36 6 43 63 43c56 0 63 -7 63 -43v-16c0 -35 -7 -43 -63 -43z" />
    <glyph glyph-name="Idotaccent" unicode="&#x130;" horiz-adv-x="223" 
d="M111 0c-45 0 -58 5 -58 34v553c0 29 13 34 58 34c46 0 58 -5 58 -34v-553c0 -29 -12 -34 -58 -34zM111 682c-56 0 -63 8 -63 43v16c0 36 7 43 63 43c57 0 63 -7 63 -43v-16c0 -35 -6 -43 -63 -43z" />
    <glyph glyph-name="dotlessi" unicode="&#x131;" horiz-adv-x="222" 
d="M109 0c-45 0 -58 4 -58 34v425c0 30 13 34 58 34c44 0 58 -4 58 -34v-425c0 -30 -14 -34 -58 -34z" />
    <glyph glyph-name="IJ" unicode="&#x132;" horiz-adv-x="571" 
d="M111 0c-45 0 -58 5 -58 34v553c0 29 13 34 58 34c46 0 58 -5 58 -34v-553c0 -29 -12 -34 -58 -34zM364 -7c-48 0 -81 7 -106 14c-20 6 -28 13 -28 54c0 39 6 42 20 42c17 0 46 -8 84 -8c53 0 68 14 68 75v417c0 29 13 34 58 34s58 -5 58 -34v-417
c0 -130 -48 -177 -154 -177z" />
    <glyph glyph-name="ij" unicode="&#x133;" horiz-adv-x="445" 
d="M109 0c-45 0 -58 4 -58 34v425c0 30 13 34 58 34c44 0 58 -4 58 -34v-425c0 -30 -14 -34 -58 -34zM109 553c-57 0 -63 8 -63 43v16c0 36 6 43 63 43c56 0 63 -7 63 -43v-16c0 -35 -7 -43 -63 -43zM331 493c44 0 58 -4 58 -34v-528c0 -94 -41 -127 -115 -127
c-31 0 -59 5 -81 11c-20 6 -29 14 -29 49c0 41 8 45 21 45c10 0 31 -5 51 -5c29 0 37 6 37 51v504c0 30 13 34 58 34zM331 553c-57 0 -63 8 -63 43v16c0 36 6 43 63 43c56 0 63 -7 63 -43v-16c0 -35 -7 -43 -63 -43z" />
    <glyph glyph-name="Jcircumflex" unicode="&#x134;" horiz-adv-x="348" 
d="M141 -7c-48 0 -81 7 -106 14c-20 6 -28 13 -28 54c0 39 6 42 20 42c17 0 46 -8 84 -8c53 0 68 14 68 75v417c0 29 13 34 58 34s58 -5 58 -34v-417c0 -130 -48 -177 -154 -177zM239 751h-6l-39 -60c-14 -22 -27 -26 -62 -26c-28 0 -38 8 -38 20c0 8 3 16 13 34l53 90
c10 17 18 24 52 24h48c34 0 42 -7 52 -24l53 -90c10 -18 13 -26 13 -34c0 -12 -9 -20 -38 -20c-35 0 -46 4 -61 26z" />
    <glyph glyph-name="jcircumflex" unicode="&#x135;" horiz-adv-x="222" 
d="M109 493c44 0 58 -4 58 -34v-528c0 -94 -41 -127 -115 -127c-31 0 -59 5 -81 11c-20 6 -29 14 -29 49c0 41 8 45 21 45c10 0 31 -5 51 -5c29 0 37 6 37 51v504c0 30 13 34 58 34zM111 625h-6l-39 -60c-14 -22 -27 -26 -62 -26c-28 0 -38 8 -38 20c0 8 3 16 13 34l53 90
c10 17 18 24 52 24h48c34 0 42 -7 52 -24l53 -90c10 -18 13 -26 13 -34c0 -12 -9 -20 -38 -20c-35 0 -46 4 -61 26z" />
    <glyph glyph-name="Kcommaaccent" unicode="&#x136;" horiz-adv-x="484" 
d="M111 0c-45 0 -58 5 -58 34v553c0 29 13 34 58 34c46 0 58 -5 58 -34v-236h16l143 242c14 24 23 28 75 28c44 0 54 -8 54 -24c0 -8 -3 -17 -13 -33l-158 -250l163 -242c17 -26 20 -36 20 -46c0 -14 -7 -26 -61 -26c-41 0 -54 5 -68 27l-155 248h-16v-241
c0 -29 -12 -34 -58 -34zM213 -239c-30 0 -36 7 -36 21c0 22 11 70 11 127c0 37 8 45 59 45c46 0 59 -8 59 -34c0 -25 -2 -50 -13 -73l-23 -58c-10 -21 -17 -28 -57 -28z" />
    <glyph glyph-name="kcommaaccent" unicode="&#x137;" horiz-adv-x="457" 
d="M109 0c-45 0 -58 4 -58 34v588c0 29 13 33 58 33c44 0 58 -4 58 -33v-328h11l121 170c17 23 25 29 75 29c43 0 56 -6 56 -20c0 -10 -5 -23 -13 -33l-137 -182l150 -206c8 -11 12 -18 12 -29c0 -15 -16 -23 -60 -23s-54 5 -70 28l-135 193h-10v-187c0 -30 -14 -34 -58 -34
zM202 -239c-30 0 -36 7 -36 21c0 22 11 70 11 127c0 37 8 45 59 45c46 0 59 -8 59 -34c0 -25 -2 -50 -13 -73l-23 -58c-10 -21 -17 -28 -57 -28z" />
    <glyph glyph-name="Lacute" unicode="&#x139;" horiz-adv-x="425" 
d="M169 103h211c23 0 31 -10 31 -52c0 -41 -8 -51 -31 -51h-291c-27 0 -36 5 -36 31v556c0 29 13 34 58 34c46 0 58 -5 58 -34v-484zM117 665c-35 0 -45 7 -45 21c0 9 3 24 8 35l33 74c15 33 17 38 69 38c51 0 60 -11 60 -27c0 -10 -6 -23 -14 -37l-44 -74
c-12 -20 -18 -30 -67 -30z" />
    <glyph glyph-name="lacute" unicode="&#x13a;" horiz-adv-x="220" 
d="M109 0c-45 0 -58 4 -58 34v588c0 29 13 33 58 33c44 0 58 -4 58 -33v-588c0 -30 -14 -34 -58 -34zM97 689c-35 0 -48 7 -48 21c0 9 6 24 11 35l33 74c15 33 17 38 69 38c51 0 60 -11 60 -27c0 -10 -6 -23 -14 -37l-44 -74c-12 -20 -18 -30 -67 -30z" />
    <glyph glyph-name="Lcommaaccent" unicode="&#x13b;" horiz-adv-x="425" 
d="M169 103h211c23 0 31 -10 31 -52c0 -41 -8 -51 -31 -51h-291c-27 0 -36 5 -36 31v556c0 29 13 34 58 34c46 0 58 -5 58 -34v-484zM198 -239c-30 0 -36 7 -36 21c0 22 11 70 11 127c0 37 8 45 59 45c46 0 59 -8 59 -34c0 -25 -2 -50 -13 -73l-23 -58
c-10 -21 -17 -28 -57 -28z" />
    <glyph glyph-name="lcommaaccent" unicode="&#x13c;" horiz-adv-x="220" 
d="M109 0c-45 0 -58 4 -58 34v588c0 29 13 33 58 33c44 0 58 -4 58 -33v-588c0 -30 -14 -34 -58 -34zM77 -239c-30 0 -36 7 -36 21c0 22 11 70 11 127c0 37 8 45 59 45c46 0 59 -8 59 -34c0 -25 -2 -50 -13 -73l-23 -58c-10 -21 -17 -28 -57 -28z" />
    <glyph glyph-name="Lcaron" unicode="&#x13d;" horiz-adv-x="425" 
d="M169 103h211c23 0 31 -10 31 -52c0 -41 -8 -51 -31 -51h-291c-27 0 -36 5 -36 31v556c0 29 13 34 58 34c46 0 58 -5 58 -34v-484zM301 620c51 0 59 -7 59 -42v-27c0 -31 -6 -60 -17 -91l-16 -49c-14 -35 -22 -41 -63 -41c-29 0 -35 7 -35 20c0 22 13 79 13 126v62
c0 35 9 42 59 42z" />
    <glyph glyph-name="lcaron" unicode="&#x13e;" horiz-adv-x="366" 
d="M295 655c50 0 59 -7 59 -42v-27c0 -31 -8 -60 -18 -91l-15 -49c-14 -35 -23 -41 -63 -41c-29 0 -35 7 -35 20c0 22 13 79 13 126v62c0 35 8 42 59 42zM109 0c-45 0 -58 4 -58 34v588c0 29 13 33 58 33c44 0 58 -4 58 -33v-588c0 -30 -14 -34 -58 -34z" />
    <glyph glyph-name="Ldot" unicode="&#x13f;" horiz-adv-x="425" 
d="M169 103h211c23 0 31 -10 31 -52c0 -41 -8 -51 -31 -51h-291c-27 0 -36 5 -36 31v556c0 29 13 34 58 34c46 0 58 -5 58 -34v-484zM283 277c-56 0 -63 8 -63 43v16c0 36 7 43 63 43c57 0 63 -7 63 -43v-16c0 -35 -6 -43 -63 -43z" />
    <glyph glyph-name="ldot" unicode="&#x140;" horiz-adv-x="354" 
d="M109 0c-45 0 -58 4 -58 34v588c0 29 13 33 58 33c44 0 58 -4 58 -33v-588c0 -30 -14 -34 -58 -34zM277 204c-56 0 -63 8 -63 43v16c0 36 7 43 63 43c57 0 63 -7 63 -43v-16c0 -35 -6 -43 -63 -43z" />
    <glyph glyph-name="Lslash" unicode="&#x141;" horiz-adv-x="425" 
d="M169 103h211c23 0 31 -10 31 -52c0 -41 -8 -51 -31 -51h-291c-27 0 -36 5 -36 31v187l-22 -13c-13 -8 -20 -10 -25 -10c-10 0 -17 5 -17 42c0 39 7 53 27 65l37 22v263c0 29 13 34 58 34c46 0 58 -5 58 -34v-193l90 54c13 7 19 9 25 9c10 0 16 -5 16 -42
c0 -38 -7 -52 -27 -64l-104 -63v-185z" />
    <glyph glyph-name="lslash" unicode="&#x142;" horiz-adv-x="258" 
d="M128 0c-45 0 -58 4 -58 34v200l-28 -17c-12 -7 -19 -9 -25 -9c-9 0 -16 5 -16 41c0 38 8 52 27 64l42 26v283c0 29 13 33 58 33c44 0 58 -4 58 -33v-211l30 19c13 8 19 9 25 9c9 0 16 -5 16 -41c0 -38 -7 -52 -27 -64l-44 -28v-272c0 -30 -14 -34 -58 -34z" />
    <glyph glyph-name="Nacute" unicode="&#x143;" horiz-adv-x="552" 
d="M111 0c-45 0 -58 5 -58 34v553c0 29 14 34 70 34c40 0 59 -3 73 -33l178 -382h9v381c0 29 13 34 58 34s58 -5 58 -34v-553c0 -29 -12 -34 -67 -34c-40 0 -53 3 -69 32l-185 383h-9v-381c0 -29 -12 -34 -58 -34zM254 665c-35 0 -48 7 -48 21c0 9 6 24 11 35l33 74
c15 33 17 38 69 38c51 0 60 -11 60 -27c0 -10 -6 -23 -14 -37l-44 -74c-12 -20 -18 -30 -67 -30z" />
    <glyph glyph-name="nacute" unicode="&#x144;" horiz-adv-x="514" 
d="M119 0c-44 0 -58 4 -58 34v254c0 114 -20 157 -20 178c0 17 8 27 53 27c40 0 48 -4 55 -30l14 -54c26 61 77 94 161 94c108 0 137 -43 137 -138v-331c0 -30 -14 -34 -58 -34c-45 0 -58 4 -58 34v303c0 49 -12 66 -63 66c-78 0 -105 -45 -105 -163v-206
c0 -30 -13 -34 -58 -34zM238 539c-35 0 -48 7 -48 21c0 9 6 24 11 35l33 74c15 33 17 38 69 38c51 0 60 -11 60 -27c0 -10 -6 -23 -14 -37l-44 -74c-12 -20 -18 -30 -67 -30z" />
    <glyph glyph-name="Ncommaaccent" unicode="&#x145;" horiz-adv-x="552" 
d="M111 0c-45 0 -58 5 -58 34v553c0 29 14 34 70 34c40 0 59 -3 73 -33l178 -382h9v381c0 29 13 34 58 34s58 -5 58 -34v-553c0 -29 -12 -34 -67 -34c-40 0 -53 3 -69 32l-185 383h-9v-381c0 -29 -12 -34 -58 -34zM250 -239c-30 0 -36 7 -36 21c0 22 11 70 11 127
c0 37 8 45 59 45c46 0 59 -8 59 -34c0 -25 -2 -50 -13 -73l-23 -58c-10 -21 -17 -28 -57 -28z" />
    <glyph glyph-name="ncommaaccent" unicode="&#x146;" horiz-adv-x="514" 
d="M119 0c-44 0 -58 4 -58 34v254c0 114 -20 157 -20 178c0 17 8 27 53 27c40 0 48 -4 55 -30l14 -54c26 61 77 94 161 94c108 0 137 -43 137 -138v-331c0 -30 -14 -34 -58 -34c-45 0 -58 4 -58 34v303c0 49 -12 66 -63 66c-78 0 -105 -45 -105 -163v-206
c0 -30 -13 -34 -58 -34zM231 -239c-30 0 -36 7 -36 21c0 22 11 70 11 127c0 37 8 45 59 45c46 0 59 -8 59 -34c0 -25 -2 -50 -13 -73l-23 -58c-10 -21 -17 -28 -57 -28z" />
    <glyph glyph-name="Ncaron" unicode="&#x147;" horiz-adv-x="552" 
d="M111 0c-45 0 -58 5 -58 34v553c0 29 14 34 70 34c40 0 59 -3 73 -33l178 -382h9v381c0 29 13 34 58 34s58 -5 58 -34v-553c0 -29 -12 -34 -67 -34c-40 0 -53 3 -69 32l-185 383h-9v-381c0 -29 -12 -34 -58 -34zM135 813c0 13 10 20 39 20c35 0 46 -3 61 -26l40 -59h6
l39 59c15 22 27 26 62 26c28 0 38 -7 38 -20c0 -8 -3 -16 -13 -33l-53 -91c-9 -17 -18 -24 -52 -24h-48c-34 0 -43 7 -53 24l-52 91c-10 17 -14 25 -14 33z" />
    <glyph glyph-name="ncaron" unicode="&#x148;" horiz-adv-x="514" 
d="M119 0c-44 0 -58 4 -58 34v254c0 114 -20 157 -20 178c0 17 8 27 53 27c40 0 48 -4 55 -30l14 -54c26 61 77 94 161 94c108 0 137 -43 137 -138v-331c0 -30 -14 -34 -58 -34c-45 0 -58 4 -58 34v303c0 49 -12 66 -63 66c-78 0 -105 -45 -105 -163v-206
c0 -30 -13 -34 -58 -34zM119 687c0 13 10 20 39 20c35 0 46 -3 61 -26l40 -59h6l39 59c15 22 27 26 62 26c28 0 38 -7 38 -20c0 -8 -3 -16 -13 -33l-53 -91c-9 -17 -18 -24 -52 -24h-48c-34 0 -43 7 -53 24l-52 91c-10 17 -14 25 -14 33z" />
    <glyph glyph-name="Eng" unicode="&#x14a;" horiz-adv-x="552" 
d="M384 -196c-31 0 -60 5 -81 11c-20 6 -29 14 -29 49c0 41 8 45 21 45c10 0 31 -5 51 -5c29 0 37 6 37 51v52c-8 5 -14 13 -20 25l-185 383h-9v-381c0 -29 -12 -34 -58 -34c-45 0 -58 5 -58 34v553c0 29 14 34 70 34c40 0 59 -3 73 -33l178 -382h9v381c0 29 13 34 58 34
s58 -5 58 -34v-656c0 -94 -41 -127 -115 -127z" />
    <glyph glyph-name="eng" unicode="&#x14b;" horiz-adv-x="514" 
d="M119 0c-44 0 -58 4 -58 34v254c0 114 -20 157 -20 178c0 17 8 27 53 27c40 0 48 -4 55 -30l14 -54c26 61 77 94 161 94c108 0 137 -43 137 -138v-434c0 -94 -41 -127 -115 -127c-30 0 -59 5 -81 11c-20 6 -29 14 -29 49c0 41 8 45 21 45c11 0 31 -5 52 -5
c28 0 36 6 36 51v382c0 49 -12 66 -63 66c-78 0 -105 -45 -105 -163v-206c0 -30 -13 -34 -58 -34z" />
    <glyph glyph-name="Omacron" unicode="&#x14c;" horiz-adv-x="529" 
d="M264 93c89 0 108 19 108 190v53c0 170 -15 190 -108 190c-88 0 -107 -20 -107 -190v-53c0 -171 15 -190 107 -190zM264 -7c-160 0 -223 30 -223 279v69c0 259 67 285 223 285c166 0 224 -30 224 -285v-69c0 -254 -73 -279 -224 -279zM151 734c0 40 5 48 31 48h165
c26 0 31 -8 31 -48c0 -41 -5 -48 -31 -48h-165c-26 0 -31 7 -31 48z" />
    <glyph glyph-name="omacron" unicode="&#x14d;" horiz-adv-x="503" 
d="M243 -10c-151 0 -200 43 -200 253c0 213 60 260 216 260c151 0 200 -40 200 -250c0 -214 -59 -263 -216 -263zM247 87c80 0 94 28 94 157c0 141 -13 161 -86 161c-80 0 -94 -25 -94 -154c0 -141 13 -164 86 -164zM138 608c0 40 5 48 31 48h165c26 0 31 -8 31 -48
c0 -41 -5 -48 -31 -48h-165c-26 0 -31 7 -31 48z" />
    <glyph glyph-name="Obreve" unicode="&#x14e;" horiz-adv-x="529" 
d="M264 93c89 0 108 19 108 190v53c0 170 -15 190 -108 190c-88 0 -107 -20 -107 -190v-53c0 -171 15 -190 107 -190zM264 -7c-160 0 -223 30 -223 279v69c0 259 67 285 223 285c166 0 224 -30 224 -285v-69c0 -254 -73 -279 -224 -279zM264 674c-94 0 -125 29 -125 112
c0 29 7 33 41 33s39 -4 41 -26c2 -26 4 -34 43 -34s41 8 43 34c2 22 8 26 41 26c34 0 41 -4 41 -33c0 -83 -31 -112 -125 -112z" />
    <glyph glyph-name="obreve" unicode="&#x14f;" horiz-adv-x="503" 
d="M243 -10c-151 0 -200 43 -200 253c0 213 60 260 216 260c151 0 200 -40 200 -250c0 -214 -59 -263 -216 -263zM247 87c80 0 94 28 94 157c0 141 -13 161 -86 161c-80 0 -94 -25 -94 -154c0 -141 13 -164 86 -164zM251 548c-94 0 -125 29 -125 112c0 29 7 33 41 33
s39 -4 41 -26c2 -26 4 -34 43 -34s41 8 43 34c2 22 8 26 41 26c34 0 41 -4 41 -33c0 -83 -31 -112 -125 -112z" />
    <glyph glyph-name="Ohungarumlaut" unicode="&#x150;" horiz-adv-x="529" 
d="M264 93c89 0 108 19 108 190v53c0 170 -15 190 -108 190c-88 0 -107 -20 -107 -190v-53c0 -171 15 -190 107 -190zM264 -7c-160 0 -223 30 -223 279v69c0 259 67 285 223 285c166 0 224 -30 224 -285v-69c0 -254 -73 -279 -224 -279zM134 686c0 8 3 18 36 125
c5 16 11 22 63 22c22 0 36 -1 43 -3c11 -3 14 -10 14 -18c0 -9 -2 -21 -53 -123c-8 -16 -13 -24 -59 -24c-37 0 -44 7 -44 21zM285 686c0 8 44 108 52 126c6 14 14 21 62 21c20 0 36 -1 44 -4c11 -4 15 -10 15 -17c0 -9 -2 -20 -70 -122c-12 -18 -16 -25 -61 -25
c-36 0 -42 8 -42 21z" />
    <glyph glyph-name="ohungarumlaut" unicode="&#x151;" horiz-adv-x="503" 
d="M243 -10c-151 0 -200 43 -200 253c0 213 60 260 216 260c151 0 200 -40 200 -250c0 -214 -59 -263 -216 -263zM247 87c80 0 94 28 94 157c0 141 -13 161 -86 161c-80 0 -94 -25 -94 -154c0 -141 13 -164 86 -164zM121 560c0 8 3 18 36 125c5 16 11 22 63 22
c22 0 36 -1 43 -3c11 -3 14 -10 14 -18c0 -9 -2 -21 -53 -123c-8 -16 -13 -24 -59 -24c-37 0 -44 7 -44 21zM272 560c0 8 44 108 52 126c6 14 14 21 62 21c20 0 36 -1 44 -4c11 -4 15 -10 15 -17c0 -9 -2 -20 -70 -122c-12 -18 -16 -25 -61 -25c-36 0 -42 8 -42 21z" />
    <glyph glyph-name="OE" unicode="&#x152;" horiz-adv-x="773" 
d="M264 -7c-151 0 -223 25 -223 279v69c0 255 58 285 223 285c56 0 100 -4 132 -21c5 13 18 16 39 16h273c23 0 31 -10 31 -52s-8 -51 -31 -51h-220v-142h159c26 0 31 -8 31 -50s-5 -51 -31 -51h-159v-172h230c23 0 31 -10 31 -52c0 -41 -8 -51 -31 -51h-283
c-21 0 -34 3 -39 16c-34 -19 -77 -23 -132 -23zM264 93c89 0 108 19 108 181v63c0 168 -15 189 -108 189c-92 0 -107 -20 -107 -190v-53c0 -171 19 -190 107 -190z" />
    <glyph glyph-name="oe" unicode="&#x153;" horiz-adv-x="774" 
d="M243 -10c-151 0 -200 43 -200 253c0 213 60 260 216 260c69 0 115 -9 145 -39c34 33 83 39 145 39c163 0 186 -74 186 -233c0 -36 -8 -54 -45 -54h-232c2 -111 21 -126 107 -126c78 0 129 17 143 17c13 0 19 -12 19 -47c0 -34 -7 -43 -26 -50c-34 -12 -100 -20 -145 -20
c-72 0 -123 8 -157 45c-33 -34 -83 -45 -156 -45zM247 87c80 0 94 28 94 157c0 141 -13 161 -86 161c-80 0 -94 -25 -94 -154c0 -141 13 -164 86 -164zM547 406c-63 0 -85 -13 -89 -118h167c0 85 -4 118 -78 118z" />
    <glyph glyph-name="Racute" unicode="&#x154;" horiz-adv-x="506" 
d="M111 0c-45 0 -58 5 -58 34v544c0 28 11 36 35 39c51 6 112 9 171 9c139 0 203 -26 203 -183c0 -98 -33 -151 -96 -177l98 -208c10 -22 11 -29 11 -35c0 -11 -5 -23 -48 -23c-57 0 -65 4 -76 31l-86 217c-9 -1 -19 -1 -29 -1h-67v-213c0 -29 -12 -34 -58 -34zM169 525
v-194h70c80 0 102 20 102 106c0 74 -21 92 -95 92c-27 0 -58 -2 -77 -4zM218 665c-35 0 -48 7 -48 21c0 9 6 24 11 35l33 74c15 33 17 38 69 38c51 0 60 -11 60 -27c0 -10 -6 -23 -14 -37l-44 -74c-12 -20 -18 -30 -67 -30z" />
    <glyph glyph-name="racute" unicode="&#x155;" horiz-adv-x="358" 
d="M119 0c-44 0 -58 4 -58 34v254c0 114 -20 157 -20 178c0 17 8 27 53 27c40 0 48 -4 55 -30l12 -46c26 57 69 83 122 83c18 0 38 -3 45 -6c15 -5 22 -14 22 -54c0 -42 -13 -47 -22 -47c-8 0 -27 4 -53 4c-69 0 -98 -60 -98 -174v-189c0 -30 -13 -34 -58 -34zM145 539
c-35 0 -48 7 -48 21c0 9 6 24 11 35l33 74c15 33 17 38 69 38c51 0 60 -11 60 -27c0 -10 -6 -23 -14 -37l-44 -74c-12 -20 -18 -30 -67 -30z" />
    <glyph glyph-name="Rcommaaccent" unicode="&#x156;" horiz-adv-x="506" 
d="M111 0c-45 0 -58 5 -58 34v544c0 28 11 36 35 39c51 6 112 9 171 9c139 0 203 -26 203 -183c0 -98 -33 -151 -96 -177l98 -208c10 -22 11 -29 11 -35c0 -11 -5 -23 -48 -23c-57 0 -65 4 -76 31l-86 217c-9 -1 -19 -1 -29 -1h-67v-213c0 -29 -12 -34 -58 -34zM169 525
v-194h70c80 0 102 20 102 106c0 74 -21 92 -95 92c-27 0 -58 -2 -77 -4zM228 -239c-30 0 -36 7 -36 21c0 22 11 70 11 127c0 37 8 45 59 45c46 0 59 -8 59 -34c0 -25 -2 -50 -13 -73l-23 -58c-10 -21 -17 -28 -57 -28z" />
    <glyph glyph-name="rcommaaccent" unicode="&#x157;" horiz-adv-x="358" 
d="M119 0c-44 0 -58 4 -58 34v254c0 114 -20 157 -20 178c0 17 8 27 53 27c40 0 48 -4 55 -30l12 -46c26 57 69 83 122 83c18 0 38 -3 45 -6c15 -5 22 -14 22 -54c0 -42 -13 -47 -22 -47c-8 0 -27 4 -53 4c-69 0 -98 -60 -98 -174v-189c0 -30 -13 -34 -58 -34zM88 -244
c-30 0 -36 7 -36 21c0 22 11 70 11 127c0 37 8 45 59 45c46 0 59 -8 59 -34c0 -25 -2 -50 -13 -73l-23 -58c-10 -21 -17 -28 -57 -28z" />
    <glyph glyph-name="Rcaron" unicode="&#x158;" horiz-adv-x="506" 
d="M111 0c-45 0 -58 5 -58 34v544c0 28 11 36 35 39c51 6 112 9 171 9c139 0 203 -26 203 -183c0 -98 -33 -151 -96 -177l98 -208c10 -22 11 -29 11 -35c0 -11 -5 -23 -48 -23c-57 0 -65 4 -76 31l-86 217c-9 -1 -19 -1 -29 -1h-67v-213c0 -29 -12 -34 -58 -34zM169 525
v-194h70c80 0 102 20 102 106c0 74 -21 92 -95 92c-27 0 -58 -2 -77 -4zM111 813c0 13 10 20 39 20c35 0 46 -3 61 -26l40 -59h6l39 59c15 22 27 26 62 26c28 0 38 -7 38 -20c0 -8 -3 -16 -13 -33l-53 -91c-9 -17 -18 -24 -52 -24h-48c-34 0 -43 7 -53 24l-52 91
c-10 17 -14 25 -14 33z" />
    <glyph glyph-name="rcaron" unicode="&#x159;" horiz-adv-x="358" 
d="M119 0c-44 0 -58 4 -58 34v254c0 114 -20 157 -20 178c0 17 8 27 53 27c40 0 48 -4 55 -30l12 -46c26 57 69 83 122 83c18 0 38 -3 45 -6c15 -5 22 -14 22 -54c0 -42 -13 -47 -22 -47c-8 0 -27 4 -53 4c-69 0 -98 -60 -98 -174v-189c0 -30 -13 -34 -58 -34zM39 687
c0 13 10 20 39 20c35 0 46 -3 61 -26l40 -59h6l39 59c15 22 27 26 62 26c28 0 38 -7 38 -20c0 -8 -3 -16 -13 -33l-53 -91c-9 -17 -18 -24 -52 -24h-48c-34 0 -43 7 -53 24l-52 91c-10 17 -14 25 -14 33z" />
    <glyph glyph-name="Sacute" unicode="&#x15a;" horiz-adv-x="457" 
d="M208 -7c-51 0 -107 7 -143 18c-20 6 -29 14 -29 55c0 39 6 46 20 46c20 0 59 -16 134 -16c79 0 118 19 118 79c0 42 -7 58 -48 77l-115 51c-64 29 -97 63 -97 155c0 140 86 168 177 168c55 0 115 -8 156 -19c16 -4 24 -12 24 -54c0 -38 -8 -46 -20 -46
c-15 0 -61 15 -132 15c-63 0 -92 -5 -92 -65c0 -38 14 -48 48 -63l114 -51c70 -31 98 -68 98 -162c0 -143 -91 -188 -213 -188zM210 665c-35 0 -48 7 -48 21c0 9 6 24 11 35l33 74c15 33 17 38 69 38c51 0 60 -11 60 -27c0 -10 -6 -23 -14 -37l-44 -74
c-12 -20 -18 -30 -67 -30z" />
    <glyph glyph-name="sacute" unicode="&#x15b;" horiz-adv-x="437" 
d="M201 -10c-45 0 -101 7 -136 18c-19 6 -26 15 -26 50s7 47 19 47c14 0 68 -15 131 -15c69 0 92 18 92 57c0 23 -10 34 -32 42l-119 51c-43 18 -75 55 -75 124c0 113 86 139 167 139c45 0 103 -7 141 -17c19 -5 26 -13 26 -53c0 -42 -12 -45 -21 -45c-15 0 -67 17 -124 17
c-54 0 -71 -14 -71 -44c0 -22 6 -33 31 -43l116 -47c60 -24 78 -60 78 -120c0 -121 -86 -161 -197 -161zM200 539c-35 0 -48 7 -48 21c0 9 6 24 11 35l33 74c15 33 17 38 69 38c51 0 60 -11 60 -27c0 -10 -6 -23 -14 -37l-44 -74c-12 -20 -18 -30 -67 -30z" />
    <glyph glyph-name="Scircumflex" unicode="&#x15c;" horiz-adv-x="457" 
d="M208 -7c-51 0 -107 7 -143 18c-20 6 -29 14 -29 55c0 39 6 46 20 46c20 0 59 -16 134 -16c79 0 118 19 118 79c0 42 -7 58 -48 77l-115 51c-64 29 -97 63 -97 155c0 140 86 168 177 168c55 0 115 -8 156 -19c16 -4 24 -12 24 -54c0 -38 -8 -46 -20 -46
c-15 0 -61 15 -132 15c-63 0 -92 -5 -92 -65c0 -38 14 -48 48 -63l114 -51c70 -31 98 -68 98 -162c0 -143 -91 -188 -213 -188zM238 751h-6l-39 -60c-14 -22 -27 -26 -62 -26c-28 0 -38 8 -38 20c0 8 3 16 13 34l53 90c10 17 18 24 52 24h48c34 0 42 -7 52 -24l53 -90
c10 -18 13 -26 13 -34c0 -12 -9 -20 -38 -20c-35 0 -46 4 -61 26z" />
    <glyph glyph-name="scircumflex" unicode="&#x15d;" horiz-adv-x="437" 
d="M201 -10c-45 0 -101 7 -136 18c-19 6 -26 15 -26 50s7 47 19 47c14 0 68 -15 131 -15c69 0 92 18 92 57c0 23 -10 34 -32 42l-119 51c-43 18 -75 55 -75 124c0 113 86 139 167 139c45 0 103 -7 141 -17c19 -5 26 -13 26 -53c0 -42 -12 -45 -21 -45c-15 0 -67 17 -124 17
c-54 0 -71 -14 -71 -44c0 -22 6 -33 31 -43l116 -47c60 -24 78 -60 78 -120c0 -121 -86 -161 -197 -161zM226 625h-6l-39 -60c-14 -22 -27 -26 -62 -26c-28 0 -38 8 -38 20c0 8 3 16 13 34l53 90c10 17 18 24 52 24h48c34 0 42 -7 52 -24l53 -90c10 -18 13 -26 13 -34
c0 -12 -9 -20 -38 -20c-35 0 -46 4 -61 26z" />
    <glyph glyph-name="Scedilla" unicode="&#x15e;" horiz-adv-x="457" 
d="M227 -223c-24 0 -42 2 -61 6s-28 9 -28 42c0 34 8 42 23 42c11 0 27 -4 51 -4c14 0 23 1 23 13s-9 15 -27 25c-25 12 -33 24 -33 60v33c-41 2 -82 8 -110 17c-20 6 -29 14 -29 55c0 39 6 46 20 46c20 0 59 -16 134 -16c79 0 118 19 118 79c0 42 -7 58 -48 77l-115 51
c-64 29 -97 63 -97 155c0 140 86 168 177 168c55 0 115 -8 156 -19c16 -4 24 -12 24 -54c0 -38 -8 -46 -20 -46c-15 0 -61 15 -132 15c-63 0 -92 -5 -92 -65c0 -38 14 -48 48 -63l114 -51c70 -31 98 -68 98 -162c0 -123 -68 -174 -164 -185v-19c0 -11 2 -15 14 -22
c49 -27 63 -42 63 -91c0 -61 -38 -87 -107 -87z" />
    <glyph glyph-name="scedilla" unicode="&#x15f;" horiz-adv-x="437" 
d="M220 -223c-24 0 -42 2 -61 6s-28 9 -28 42c0 34 8 42 23 42c11 0 27 -4 51 -4c14 0 23 1 23 13s-9 15 -27 25c-25 12 -33 24 -33 60v30c-37 3 -76 9 -103 17c-19 6 -26 15 -26 50s7 47 19 47c14 0 68 -15 131 -15c69 0 92 18 92 57c0 23 -10 34 -32 42l-119 51
c-43 18 -75 55 -75 124c0 113 86 139 167 139c45 0 103 -7 141 -17c19 -5 26 -13 26 -53c0 -42 -12 -45 -21 -45c-15 0 -67 17 -124 17c-54 0 -71 -14 -71 -44c0 -22 6 -33 31 -43l116 -47c60 -24 78 -60 78 -120c0 -103 -62 -147 -148 -158v-16c0 -11 2 -15 14 -22
c49 -27 63 -42 63 -91c0 -61 -38 -87 -107 -87z" />
    <glyph glyph-name="Scaron" unicode="&#x160;" horiz-adv-x="457" 
d="M208 -7c-51 0 -107 7 -143 18c-20 6 -29 14 -29 55c0 39 6 46 20 46c20 0 59 -16 134 -16c79 0 118 19 118 79c0 42 -7 58 -48 77l-115 51c-64 29 -97 63 -97 155c0 140 86 168 177 168c55 0 115 -8 156 -19c16 -4 24 -12 24 -54c0 -38 -8 -46 -20 -46
c-15 0 -61 15 -132 15c-63 0 -92 -5 -92 -65c0 -38 14 -48 48 -63l114 -51c70 -31 98 -68 98 -162c0 -143 -91 -188 -213 -188zM95 813c0 13 10 20 39 20c35 0 46 -3 61 -26l40 -59h6l39 59c15 22 27 26 62 26c28 0 38 -7 38 -20c0 -8 -3 -16 -13 -33l-53 -91
c-9 -17 -18 -24 -52 -24h-48c-34 0 -43 7 -53 24l-52 91c-10 17 -14 25 -14 33z" />
    <glyph glyph-name="scaron" unicode="&#x161;" horiz-adv-x="437" 
d="M201 -10c-45 0 -101 7 -136 18c-19 6 -26 15 -26 50s7 47 19 47c14 0 68 -15 131 -15c69 0 92 18 92 57c0 23 -10 34 -32 42l-119 51c-43 18 -75 55 -75 124c0 113 86 139 167 139c45 0 103 -7 141 -17c19 -5 26 -13 26 -53c0 -42 -12 -45 -21 -45c-15 0 -67 17 -124 17
c-54 0 -71 -14 -71 -44c0 -22 6 -33 31 -43l116 -47c60 -24 78 -60 78 -120c0 -121 -86 -161 -197 -161zM81 687c0 13 10 20 39 20c35 0 46 -3 61 -26l40 -59h6l39 59c15 22 27 26 62 26c28 0 38 -7 38 -20c0 -8 -3 -16 -13 -33l-53 -91c-9 -17 -18 -24 -52 -24h-48
c-34 0 -43 7 -53 24l-52 91c-10 17 -14 25 -14 33z" />
    <glyph glyph-name="Tcommaaccent" unicode="&#x162;" horiz-adv-x="440" 
d="M220 0c-45 0 -58 5 -58 34v484h-121c-23 0 -31 9 -31 51s8 52 31 52h358c23 0 31 -10 31 -52s-8 -51 -31 -51h-121v-484c0 -29 -13 -34 -58 -34zM189 -239c-30 0 -36 7 -36 21c0 22 11 70 11 127c0 37 8 45 59 45c46 0 59 -8 59 -34c0 -25 -2 -50 -13 -73l-23 -58
c-10 -21 -17 -28 -57 -28z" />
    <glyph glyph-name="tcommaaccent" unicode="&#x163;" horiz-adv-x="330" 
d="M199 -10c-78 0 -111 33 -111 127v282h-44c-20 0 -25 9 -25 45c0 37 5 46 25 46h44v72c0 29 13 33 58 33s58 -4 58 -33v-72h78c20 0 25 -9 25 -46c0 -36 -5 -45 -25 -45h-78v-259c0 -41 5 -48 35 -48c23 0 39 5 50 5c13 0 21 -5 21 -43c0 -35 -9 -42 -27 -49
c-22 -10 -53 -15 -84 -15zM156 -239c-30 0 -36 7 -36 21c0 22 11 70 11 127c0 37 8 45 59 45c46 0 59 -8 59 -34c0 -25 -2 -50 -13 -73l-23 -58c-10 -21 -17 -28 -57 -28z" />
    <glyph glyph-name="Tcaron" unicode="&#x164;" horiz-adv-x="440" 
d="M220 0c-45 0 -58 5 -58 34v484h-121c-23 0 -31 9 -31 51s8 52 31 52h358c23 0 31 -10 31 -52s-8 -51 -31 -51h-121v-484c0 -29 -13 -34 -58 -34zM77 813c0 13 10 20 39 20c35 0 46 -3 61 -26l40 -59h6l39 59c15 22 27 26 62 26c28 0 38 -7 38 -20c0 -8 -3 -16 -13 -33
l-53 -91c-9 -17 -18 -24 -52 -24h-48c-34 0 -43 7 -53 24l-52 91c-10 17 -14 25 -14 33z" />
    <glyph glyph-name="tcaron" unicode="&#x165;" horiz-adv-x="483" 
d="M408 655c51 0 59 -7 59 -42v-27c0 -31 -7 -60 -17 -91l-15 -49c-14 -35 -23 -41 -63 -41c-30 0 -35 7 -35 20c0 22 12 79 12 126v62c0 35 9 42 59 42zM199 -10c-78 0 -111 33 -111 127v282h-44c-20 0 -25 9 -25 45c0 37 5 46 25 46h44v72c0 29 13 33 58 33s58 -4 58 -33
v-72h78c20 0 25 -9 25 -46c0 -36 -5 -45 -25 -45h-78v-259c0 -41 5 -48 35 -48c23 0 39 5 50 5c13 0 21 -5 21 -43c0 -35 -9 -42 -27 -49c-22 -10 -53 -15 -84 -15z" />
    <glyph glyph-name="Tbar" unicode="&#x166;" horiz-adv-x="440" 
d="M220 0c-45 0 -58 5 -58 34v232h-98c-26 0 -31 8 -31 43s5 43 31 43h98v166h-121c-23 0 -31 9 -31 51s8 52 31 52h358c23 0 31 -10 31 -52s-8 -51 -31 -51h-121v-166h97c26 0 31 -8 31 -43s-5 -43 -31 -43h-97v-232c0 -29 -13 -34 -58 -34z" />
    <glyph glyph-name="tbar" unicode="&#x167;" horiz-adv-x="330" 
d="M199 -10c-78 0 -111 33 -111 127v88h-43c-19 0 -24 8 -24 45s5 46 24 46h43v103h-44c-20 0 -25 9 -25 45c0 37 5 46 25 46h44v72c0 29 13 33 58 33s58 -4 58 -33v-72h78c20 0 25 -9 25 -46c0 -36 -5 -45 -25 -45h-78v-103h77c20 0 25 -9 25 -46s-5 -45 -25 -45h-77v-65
c0 -41 5 -48 35 -48c23 0 39 5 50 5c13 0 21 -5 21 -43c0 -35 -9 -42 -27 -49c-22 -10 -53 -15 -84 -15z" />
    <glyph glyph-name="Utilde" unicode="&#x168;" horiz-adv-x="527" 
d="M263 -7c-152 0 -210 50 -210 191v403c0 29 13 34 58 34c46 0 58 -5 58 -34v-409c0 -64 17 -86 94 -86s94 22 94 86v409c0 29 13 34 58 34c46 0 58 -5 58 -34v-403c0 -141 -58 -191 -210 -191zM120 718c0 33 7 41 26 53c11 7 36 19 65 19c47 0 76 -20 113 -20
c35 0 55 17 67 17s16 -5 16 -39c0 -33 -7 -41 -26 -54c-10 -6 -36 -18 -65 -18c-47 0 -76 20 -112 20s-56 -17 -68 -17s-16 5 -16 39z" />
    <glyph glyph-name="utilde" unicode="&#x169;" horiz-adv-x="506" 
d="M186 -10c-102 0 -135 37 -135 132v337c0 30 13 34 58 34c44 0 58 -4 58 -34v-308c0 -48 12 -61 63 -61c78 0 103 45 103 162v207c0 30 13 34 58 34s58 -4 58 -34v-254c0 -115 21 -157 21 -178c0 -18 -8 -27 -54 -27c-40 0 -47 4 -54 30l-13 50c-27 -60 -79 -90 -163 -90z
M107 598c0 33 7 41 26 53c11 7 36 19 65 19c47 0 76 -20 113 -20c35 0 55 17 67 17s16 -5 16 -39c0 -33 -7 -41 -26 -54c-10 -6 -36 -18 -65 -18c-47 0 -76 20 -112 20s-56 -17 -68 -17s-16 5 -16 39z" />
    <glyph glyph-name="Umacron" unicode="&#x16a;" horiz-adv-x="527" 
d="M263 -7c-152 0 -210 50 -210 191v403c0 29 13 34 58 34c46 0 58 -5 58 -34v-409c0 -64 17 -86 94 -86s94 22 94 86v409c0 29 13 34 58 34c46 0 58 -5 58 -34v-403c0 -141 -58 -191 -210 -191zM150 734c0 40 5 48 31 48h165c26 0 31 -8 31 -48c0 -41 -5 -48 -31 -48h-165
c-26 0 -31 7 -31 48z" />
    <glyph glyph-name="umacron" unicode="&#x16b;" horiz-adv-x="506" 
d="M186 -10c-102 0 -135 37 -135 132v337c0 30 13 34 58 34c44 0 58 -4 58 -34v-308c0 -48 12 -61 63 -61c78 0 103 45 103 162v207c0 30 13 34 58 34s58 -4 58 -34v-254c0 -115 21 -157 21 -178c0 -18 -8 -27 -54 -27c-40 0 -47 4 -54 30l-13 50c-27 -60 -79 -90 -163 -90z
M137 608c0 40 5 48 31 48h165c26 0 31 -8 31 -48c0 -41 -5 -48 -31 -48h-165c-26 0 -31 7 -31 48z" />
    <glyph glyph-name="Ubreve" unicode="&#x16c;" horiz-adv-x="527" 
d="M263 -7c-152 0 -210 50 -210 191v403c0 29 13 34 58 34c46 0 58 -5 58 -34v-409c0 -64 17 -86 94 -86s94 22 94 86v409c0 29 13 34 58 34c46 0 58 -5 58 -34v-403c0 -141 -58 -191 -210 -191zM263 671c-94 0 -125 29 -125 112c0 29 7 33 41 33s39 -4 41 -26
c2 -26 4 -34 43 -34s41 8 43 34c2 22 8 26 41 26c34 0 41 -4 41 -33c0 -83 -31 -112 -125 -112z" />
    <glyph glyph-name="ubreve" unicode="&#x16d;" horiz-adv-x="506" 
d="M186 -10c-102 0 -135 37 -135 132v337c0 30 13 34 58 34c44 0 58 -4 58 -34v-308c0 -48 12 -61 63 -61c78 0 103 45 103 162v207c0 30 13 34 58 34s58 -4 58 -34v-254c0 -115 21 -157 21 -178c0 -18 -8 -27 -54 -27c-40 0 -47 4 -54 30l-13 50c-27 -60 -79 -90 -163 -90z
M250 548c-94 0 -125 29 -125 112c0 29 7 33 41 33s39 -4 41 -26c2 -26 4 -34 43 -34s41 8 43 34c2 22 8 26 41 26c34 0 41 -4 41 -33c0 -83 -31 -112 -125 -112z" />
    <glyph glyph-name="Uring" unicode="&#x16e;" horiz-adv-x="527" 
d="M263 -7c-152 0 -210 50 -210 191v403c0 29 13 34 58 34c46 0 58 -5 58 -34v-409c0 -64 17 -86 94 -86s94 22 94 86v409c0 29 13 34 58 34c46 0 58 -5 58 -34v-403c0 -141 -58 -191 -210 -191zM262 742c39 0 43 8 43 33s-4 33 -43 33c-38 0 -41 -8 -41 -33s3 -33 41 -33z
M262 670c-89 0 -123 22 -123 105c0 82 34 105 123 105c91 0 124 -23 124 -105c0 -83 -33 -105 -124 -105z" />
    <glyph glyph-name="uring" unicode="&#x16f;" horiz-adv-x="506" 
d="M186 -10c-102 0 -135 37 -135 132v337c0 30 13 34 58 34c44 0 58 -4 58 -34v-308c0 -48 12 -61 63 -61c78 0 103 45 103 162v207c0 30 13 34 58 34s58 -4 58 -34v-254c0 -115 21 -157 21 -178c0 -18 -8 -27 -54 -27c-40 0 -47 4 -54 30l-13 50c-27 -60 -79 -90 -163 -90z
M250 619c39 0 43 8 43 33s-4 33 -43 33c-38 0 -41 -8 -41 -33s3 -33 41 -33zM250 547c-89 0 -123 22 -123 105c0 82 34 105 123 105c91 0 124 -23 124 -105c0 -83 -33 -105 -124 -105z" />
    <glyph glyph-name="Uhungarumlaut" unicode="&#x170;" horiz-adv-x="527" 
d="M263 -7c-152 0 -210 50 -210 191v403c0 29 13 34 58 34c46 0 58 -5 58 -34v-409c0 -64 17 -86 94 -86s94 22 94 86v409c0 29 13 34 58 34c46 0 58 -5 58 -34v-403c0 -141 -58 -191 -210 -191zM135 686c0 8 3 18 36 125c5 16 11 22 63 22c22 0 36 -1 43 -3
c11 -3 14 -10 14 -18c0 -9 -2 -21 -53 -123c-8 -16 -13 -24 -59 -24c-37 0 -44 7 -44 21zM286 686c0 8 44 108 52 126c6 14 14 21 62 21c20 0 36 -1 44 -4c11 -4 15 -10 15 -17c0 -9 -2 -20 -70 -122c-12 -18 -16 -25 -61 -25c-36 0 -42 8 -42 21z" />
    <glyph glyph-name="uhungarumlaut" unicode="&#x171;" horiz-adv-x="506" 
d="M186 -10c-102 0 -135 37 -135 132v337c0 30 13 34 58 34c44 0 58 -4 58 -34v-308c0 -48 12 -61 63 -61c78 0 103 45 103 162v207c0 30 13 34 58 34s58 -4 58 -34v-254c0 -115 21 -157 21 -178c0 -18 -8 -27 -54 -27c-40 0 -47 4 -54 30l-13 50c-27 -60 -79 -90 -163 -90z
M117 560c0 8 3 18 36 125c5 16 11 22 63 22c22 0 36 -1 43 -3c11 -3 14 -10 14 -18c0 -9 -2 -21 -53 -123c-8 -16 -13 -24 -59 -24c-37 0 -44 7 -44 21zM268 560c0 8 44 108 52 126c6 14 14 21 62 21c20 0 36 -1 44 -4c11 -4 15 -10 15 -17c0 -9 -2 -20 -70 -122
c-12 -18 -16 -25 -61 -25c-36 0 -42 8 -42 21z" />
    <glyph glyph-name="Uogonek" unicode="&#x172;" horiz-adv-x="527" 
d="M370 -1c-69 -34 -82 -64 -82 -85c0 -14 4 -18 16 -18c13 0 19 2 29 2c14 0 21 -6 21 -38c0 -34 -8 -39 -29 -46c-17 -5 -36 -10 -65 -10c-51 0 -78 18 -78 75c0 46 18 82 61 115c-137 4 -190 55 -190 190v403c0 29 13 34 58 34c46 0 58 -5 58 -34v-409
c0 -64 17 -86 94 -86s94 22 94 86v409c0 29 13 34 58 34c46 0 58 -5 58 -34v-403c0 -91 -19 -144 -103 -185z" />
    <glyph glyph-name="uogonek" unicode="&#x173;" horiz-adv-x="506" 
d="M375 -196c-50 0 -78 18 -78 75c0 48 21 79 76 129c-4 4 -6 9 -8 17l-16 54c-27 -59 -79 -89 -163 -89c-102 0 -135 37 -135 132v337c0 30 13 34 58 34c44 0 58 -4 58 -34v-308c0 -48 12 -61 63 -61c78 0 103 45 103 162v207c0 30 13 34 58 34s58 -4 58 -34v-254
c0 -115 21 -157 21 -178c0 -13 -4 -22 -28 -49c-32 -35 -38 -48 -38 -64c0 -14 3 -18 15 -18c14 0 19 2 29 2c15 0 22 -6 22 -38c0 -34 -8 -39 -29 -46c-17 -5 -36 -10 -66 -10z" />
    <glyph glyph-name="Wcircumflex" unicode="&#x174;" horiz-adv-x="802" 
d="M214 0c-66 0 -90 5 -98 47l-98 512c-2 13 -4 26 -4 35c0 20 8 27 56 27c50 0 63 -6 66 -33l80 -481h12l95 467c6 32 27 37 78 37s71 -5 78 -37l96 -467h11l80 481c3 27 16 33 66 33c48 0 56 -7 56 -27c0 -9 -2 -22 -3 -35l-98 -512c-8 -42 -33 -47 -99 -47
c-64 0 -89 8 -98 50l-84 401h-10l-83 -401c-9 -42 -34 -50 -99 -50zM404 751h-6l-39 -60c-14 -22 -27 -26 -62 -26c-28 0 -38 8 -38 20c0 8 3 16 13 34l53 90c10 17 18 24 52 24h48c34 0 42 -7 52 -24l53 -90c10 -18 13 -26 13 -34c0 -12 -9 -20 -38 -20c-35 0 -46 4 -61 26
z" />
    <glyph glyph-name="wcircumflex" unicode="&#x175;" horiz-adv-x="709" 
d="M191 0c-66 0 -85 8 -92 42l-75 375c-4 19 -5 34 -5 43c0 25 6 33 58 33c51 0 61 -5 64 -35l60 -354h11l70 342c6 30 22 37 73 37c50 0 66 -7 72 -37l70 -342h11l60 354c5 30 14 35 65 35s57 -8 57 -33c0 -9 -1 -24 -5 -43l-75 -375c-7 -34 -25 -42 -91 -42
c-71 0 -95 8 -102 42l-58 272h-8l-59 -272c-7 -34 -31 -42 -101 -42zM357 625h-6l-39 -60c-14 -22 -27 -26 -62 -26c-28 0 -38 8 -38 20c0 8 3 16 13 34l53 90c10 17 18 24 52 24h48c34 0 42 -7 52 -24l53 -90c10 -18 13 -26 13 -34c0 -12 -9 -20 -38 -20
c-35 0 -46 4 -61 26z" />
    <glyph glyph-name="Ycircumflex" unicode="&#x176;" horiz-adv-x="474" 
d="M237 0c-45 0 -58 5 -58 34v194l-150 320c-13 27 -15 38 -15 46c0 14 8 27 51 27c57 0 65 -6 76 -33l94 -239h5l93 239c11 28 18 33 74 33c46 0 54 -12 54 -26c0 -7 -3 -20 -16 -47l-150 -320v-194c0 -29 -13 -34 -58 -34zM241 751h-6l-39 -60c-14 -22 -27 -26 -62 -26
c-28 0 -38 8 -38 20c0 8 3 16 13 34l53 90c10 17 18 24 52 24h48c34 0 42 -7 52 -24l53 -90c10 -18 13 -26 13 -34c0 -12 -9 -20 -38 -20c-35 0 -46 4 -61 26z" />
    <glyph glyph-name="ycircumflex" unicode="&#x177;" horiz-adv-x="471" 
d="M19 463c0 18 6 30 60 30c47 0 57 -5 63 -30l86 -366h11l90 366c6 25 16 30 62 30c53 0 62 -10 62 -29c0 -9 -2 -26 -16 -73l-125 -426c-35 -121 -61 -161 -167 -161c-36 0 -74 6 -97 14c-18 6 -27 14 -27 48c0 35 7 47 21 47c12 0 40 -9 90 -9c52 0 62 12 73 54l10 42
c-59 0 -73 14 -84 53l-94 325c-18 61 -18 76 -18 85zM239 625h-6l-39 -60c-14 -22 -27 -26 -62 -26c-28 0 -38 8 -38 20c0 8 3 16 13 34l53 90c10 17 18 24 52 24h48c34 0 42 -7 52 -24l53 -90c10 -18 13 -26 13 -34c0 -12 -9 -20 -38 -20c-35 0 -46 4 -61 26z" />
    <glyph glyph-name="Ydieresis" unicode="&#x178;" horiz-adv-x="474" 
d="M237 0c-45 0 -58 5 -58 34v194l-150 320c-13 27 -15 38 -15 46c0 14 8 27 51 27c57 0 65 -6 76 -33l94 -239h5l93 239c11 28 18 33 74 33c46 0 54 -12 54 -26c0 -7 -3 -20 -16 -47l-150 -320v-194c0 -29 -13 -34 -58 -34zM154 682c-52 0 -60 8 -60 43v16c0 36 8 43 60 43
s60 -7 60 -43v-16c0 -35 -8 -43 -60 -43zM321 682c-52 0 -59 8 -59 43v16c0 36 7 43 59 43s60 -7 60 -43v-16c0 -35 -8 -43 -60 -43z" />
    <glyph glyph-name="Zacute" unicode="&#x179;" horiz-adv-x="414" 
d="M260 518h-196c-24 0 -31 9 -31 51s7 52 31 52h300c26 0 31 -11 31 -48c0 -23 -4 -37 -25 -75l-220 -395h218c23 0 31 -10 31 -52c0 -41 -8 -51 -31 -51h-323c-26 0 -31 10 -31 48c0 22 6 39 28 79zM192 665c-35 0 -48 7 -48 21c0 9 6 24 11 35l33 74c15 33 17 38 69 38
c51 0 60 -11 60 -27c0 -10 -6 -23 -14 -37l-44 -74c-12 -20 -18 -30 -67 -30z" />
    <glyph glyph-name="zacute" unicode="&#x17a;" horiz-adv-x="400" 
d="M376 49c0 -31 -5 -49 -25 -49h-304c-21 0 -26 14 -26 45c0 37 5 54 30 87l196 262h-180c-21 0 -26 18 -26 49s5 50 26 50h284c20 0 25 -15 25 -45c0 -31 -5 -54 -23 -78l-203 -271h201c20 0 25 -19 25 -50zM187 539c-35 0 -48 7 -48 21c0 9 6 24 11 35l33 74
c15 33 17 38 69 38c51 0 60 -11 60 -27c0 -10 -6 -23 -14 -37l-44 -74c-12 -20 -18 -30 -67 -30z" />
    <glyph glyph-name="Zdotaccent" unicode="&#x17b;" horiz-adv-x="414" 
d="M260 518h-196c-24 0 -31 9 -31 51s7 52 31 52h300c26 0 31 -11 31 -48c0 -23 -4 -37 -25 -75l-220 -395h218c23 0 31 -10 31 -52c0 -41 -8 -51 -31 -51h-323c-26 0 -31 10 -31 48c0 22 6 39 28 79zM211 682c-56 0 -63 8 -63 43v16c0 36 7 43 63 43c57 0 63 -7 63 -43v-16
c0 -35 -6 -43 -63 -43z" />
    <glyph glyph-name="zdotaccent" unicode="&#x17c;" horiz-adv-x="400" 
d="M376 49c0 -31 -5 -49 -25 -49h-304c-21 0 -26 14 -26 45c0 37 5 54 30 87l196 262h-180c-21 0 -26 18 -26 49s5 50 26 50h284c20 0 25 -15 25 -45c0 -31 -5 -54 -23 -78l-203 -271h201c20 0 25 -19 25 -50zM209 553c-56 0 -63 8 -63 43v16c0 36 7 43 63 43
c57 0 63 -7 63 -43v-16c0 -35 -6 -43 -63 -43z" />
    <glyph glyph-name="Zcaron" unicode="&#x17d;" horiz-adv-x="414" 
d="M260 518h-196c-24 0 -31 9 -31 51s7 52 31 52h300c26 0 31 -11 31 -48c0 -23 -4 -37 -25 -75l-220 -395h218c23 0 31 -10 31 -52c0 -41 -8 -51 -31 -51h-323c-26 0 -31 10 -31 48c0 22 6 39 28 79zM69 813c0 13 10 20 39 20c35 0 46 -3 61 -26l40 -59h6l39 59
c15 22 27 26 62 26c28 0 38 -7 38 -20c0 -8 -3 -16 -13 -33l-53 -91c-9 -17 -18 -24 -52 -24h-48c-34 0 -43 7 -53 24l-52 91c-10 17 -14 25 -14 33z" />
    <glyph glyph-name="zcaron" unicode="&#x17e;" horiz-adv-x="400" 
d="M376 49c0 -31 -5 -49 -25 -49h-304c-21 0 -26 14 -26 45c0 37 5 54 30 87l196 262h-180c-21 0 -26 18 -26 49s5 50 26 50h284c20 0 25 -15 25 -45c0 -31 -5 -54 -23 -78l-203 -271h201c20 0 25 -19 25 -50zM67 687c0 13 10 20 39 20c35 0 46 -3 61 -26l40 -59h6l39 59
c15 22 27 26 62 26c28 0 38 -7 38 -20c0 -8 -3 -16 -13 -33l-53 -91c-9 -17 -18 -24 -52 -24h-48c-34 0 -43 7 -53 24l-52 91c-10 17 -14 25 -14 33z" />
    <glyph glyph-name="florin" unicode="&#x192;" 
d="M102 382c0 35 5 44 26 44h59l11 79c13 93 45 121 122 121c29 0 59 -4 81 -9c20 -5 27 -10 27 -44s-7 -46 -21 -46c-10 0 -31 4 -59 4c-29 0 -34 -7 -39 -52l-7 -53h60c20 0 25 -9 25 -44s-5 -44 -25 -44h-71l-29 -227c-12 -93 -47 -121 -124 -121c-29 0 -54 4 -75 9
s-27 10 -27 44s7 46 20 46c11 0 26 -5 54 -5c30 0 33 8 39 52l27 202h-48c-21 0 -26 9 -26 44z" />
    <glyph glyph-name="AEacute" unicode="&#x1fc;" horiz-adv-x="728" 
d="M70 0c-48 0 -56 7 -56 27c0 8 3 19 7 35l136 506c13 47 30 53 109 53h397c23 0 31 -10 31 -52s-8 -51 -31 -51h-215v-142h154c26 0 31 -8 31 -50s-5 -51 -31 -51h-154v-172h225c23 0 31 -10 31 -52c0 -41 -8 -51 -31 -51h-305c-28 0 -36 5 -36 31v136h-163l-33 -134
c-7 -27 -16 -33 -66 -33zM259 523l-67 -267h140v267h-73zM385 665c-35 0 -48 7 -48 21c0 9 6 24 11 35l33 74c15 33 17 38 69 38c51 0 60 -11 60 -27c0 -10 -6 -23 -14 -37l-44 -74c-12 -20 -18 -30 -67 -30z" />
    <glyph glyph-name="aeacute" unicode="&#x1fd;" horiz-adv-x="741" 
d="M501 -10c-65 0 -115 7 -142 36c-14 14 -25 38 -32 72c-25 -74 -87 -108 -165 -108c-88 0 -129 41 -129 146c0 104 46 148 190 148h87v50c0 65 -21 70 -82 70c-73 0 -124 -16 -145 -16c-14 0 -21 13 -21 46c0 34 7 43 25 49c32 10 96 20 156 20c68 0 114 -8 141 -35
c34 26 80 35 141 35c154 0 177 -74 177 -233c0 -36 -7 -54 -44 -54h-233c3 -118 25 -126 96 -126c89 0 141 17 155 17c12 0 19 -12 19 -47c0 -34 -8 -43 -27 -50c-33 -12 -117 -20 -167 -20zM203 83c55 0 107 31 107 105v27l-87 -3c-63 -2 -79 -16 -79 -64
c0 -56 18 -65 59 -65zM514 406c-67 0 -86 -13 -89 -118h168c0 85 -4 118 -79 118zM370 539c-35 0 -48 7 -48 21c0 9 6 24 11 35l33 74c15 33 17 38 69 38c51 0 60 -11 60 -27c0 -10 -6 -23 -14 -37l-44 -74c-12 -20 -18 -30 -67 -30z" />
    <glyph glyph-name="Oslashacute" unicode="&#x1fe;" horiz-adv-x="529" 
d="M238 665c-35 0 -48 7 -48 21c0 9 6 24 11 35l33 74c15 33 17 38 69 38c51 0 60 -11 60 -27c0 -10 -6 -23 -14 -37l-44 -74c-12 -20 -18 -30 -67 -30zM264 -7c-151 0 -223 25 -223 279v69c0 255 58 285 223 285c166 0 224 -30 224 -285v-69c0 -254 -73 -279 -224 -279z
M157 242l203 236c-13 41 -41 48 -96 48c-92 0 -107 -20 -107 -190v-94zM264 93c89 0 108 19 108 190v86l-199 -232c16 -38 42 -44 91 -44z" />
    <glyph glyph-name="oslashacute" unicode="&#x1ff;" horiz-adv-x="503" 
d="M228 539c-35 0 -48 7 -48 21c0 9 6 24 11 35l33 74c15 33 17 38 69 38c51 0 60 -11 60 -27c0 -10 -6 -23 -14 -37l-44 -74c-12 -20 -18 -30 -67 -30zM243 -10c-151 0 -200 43 -200 253c0 213 60 260 216 260c151 0 200 -40 200 -250c0 -214 -59 -263 -216 -263zM247 87
c80 0 94 28 94 157c0 19 -1 37 -1 52l-166 -172c12 -29 34 -37 73 -37zM161 251c0 -20 0 -38 1 -54l166 175c-12 27 -34 33 -73 33c-80 0 -94 -25 -94 -154z" />
    <glyph glyph-name="Scommaaccent" unicode="&#x218;" horiz-adv-x="457" 
d="M208 -7c-51 0 -107 7 -143 18c-20 6 -29 14 -29 55c0 39 6 46 20 46c20 0 59 -16 134 -16c79 0 118 19 118 79c0 42 -7 58 -48 77l-115 51c-64 29 -97 63 -97 155c0 140 86 168 177 168c55 0 115 -8 156 -19c16 -4 24 -12 24 -54c0 -38 -8 -46 -20 -46
c-15 0 -61 15 -132 15c-63 0 -92 -5 -92 -65c0 -38 14 -48 48 -63l114 -51c70 -31 98 -68 98 -162c0 -143 -91 -188 -213 -188zM206 -239c-30 0 -36 7 -36 21c0 22 11 70 11 127c0 37 8 45 59 45c46 0 59 -8 59 -34c0 -25 -2 -50 -13 -73l-23 -58c-10 -21 -17 -28 -57 -28z
" />
    <glyph glyph-name="scommaaccent" unicode="&#x219;" horiz-adv-x="437" 
d="M201 -10c-45 0 -101 7 -136 18c-19 6 -26 15 -26 50s7 47 19 47c14 0 68 -15 131 -15c69 0 92 18 92 57c0 23 -10 34 -32 42l-119 51c-43 18 -75 55 -75 124c0 113 86 139 167 139c45 0 103 -7 141 -17c19 -5 26 -13 26 -53c0 -42 -12 -45 -21 -45c-15 0 -67 17 -124 17
c-54 0 -71 -14 -71 -44c0 -22 6 -33 31 -43l116 -47c60 -24 78 -60 78 -120c0 -121 -86 -161 -197 -161zM190 -239c-30 0 -36 7 -36 21c0 22 11 70 11 127c0 37 8 45 59 45c46 0 59 -8 59 -34c0 -25 -2 -50 -13 -73l-23 -58c-10 -21 -17 -28 -57 -28z" />
    <glyph glyph-name="dotlessj" unicode="&#x237;" horiz-adv-x="222" 
d="M109 493c44 0 58 -4 58 -34v-528c0 -94 -41 -127 -115 -127c-31 0 -59 5 -81 11c-20 6 -29 14 -29 49c0 41 8 45 21 45c10 0 31 -5 51 -5c29 0 37 6 37 51v504c0 30 13 34 58 34z" />
    <glyph glyph-name="circumflex" unicode="&#x2c6;" horiz-adv-x="334" 
d="M185 625h-6l-39 -60c-14 -22 -27 -26 -62 -26c-28 0 -38 8 -38 20c0 8 3 16 13 34l53 90c10 17 18 24 52 24h48c34 0 42 -7 52 -24l53 -90c10 -18 13 -26 13 -34c0 -12 -9 -20 -38 -20c-35 0 -46 4 -61 26z" />
    <glyph glyph-name="caron" unicode="&#x2c7;" horiz-adv-x="334" 
d="M24 687c0 13 10 20 39 20c35 0 46 -3 61 -26l40 -59h6l39 59c15 22 27 26 62 26c28 0 38 -7 38 -20c0 -8 -3 -16 -13 -33l-53 -91c-9 -17 -18 -24 -52 -24h-48c-34 0 -43 7 -53 24l-52 91c-10 17 -14 25 -14 33z" />
    <glyph glyph-name="breve" unicode="&#x2d8;" horiz-adv-x="298" 
d="M149 548c-94 0 -125 29 -125 112c0 29 7 33 41 33s39 -4 41 -26c2 -26 4 -34 43 -34s41 8 43 34c2 22 8 26 41 26c34 0 41 -4 41 -33c0 -83 -31 -112 -125 -112z" />
    <glyph glyph-name="dotaccent" unicode="&#x2d9;" horiz-adv-x="175" 
d="M86 553c-56 0 -63 8 -63 43v16c0 36 7 43 63 43c57 0 63 -7 63 -43v-16c0 -35 -6 -43 -63 -43z" />
    <glyph glyph-name="ring" unicode="&#x2da;" horiz-adv-x="296" 
d="M147 619c39 0 43 8 43 33s-4 33 -43 33c-38 0 -41 -8 -41 -33s3 -33 41 -33zM147 547c-89 0 -123 22 -123 105c0 82 34 105 123 105c91 0 124 -23 124 -105c0 -83 -33 -105 -124 -105z" />
    <glyph glyph-name="ogonek" unicode="&#x2db;" horiz-adv-x="221" 
d="M103 -196c-51 0 -79 18 -79 75c0 66 46 108 126 181h47c0 -34 -8 -47 -34 -82c-25 -32 -32 -48 -32 -64c0 -14 4 -18 16 -18c13 0 19 2 29 2c14 0 21 -6 21 -38c0 -34 -8 -39 -29 -46c-17 -5 -36 -10 -65 -10z" />
    <glyph glyph-name="tilde" unicode="&#x2dc;" horiz-adv-x="335" 
d="M24 598c0 33 7 41 26 53c11 7 36 19 65 19c47 0 76 -20 113 -20c35 0 55 17 67 17s16 -5 16 -39c0 -33 -7 -41 -26 -54c-10 -6 -36 -18 -65 -18c-47 0 -76 20 -112 20s-56 -17 -68 -17s-16 5 -16 39z" />
    <glyph glyph-name="hungarumlaut" unicode="&#x2dd;" horiz-adv-x="372" 
d="M24 560c0 8 3 18 36 125c5 16 11 22 63 22c22 0 36 -1 43 -3c11 -3 14 -10 14 -18c0 -9 -2 -21 -53 -123c-8 -16 -13 -24 -59 -24c-37 0 -44 7 -44 21zM175 560c0 8 44 108 52 126c6 14 14 21 62 21c20 0 36 -1 44 -4c11 -4 15 -10 15 -17c0 -9 -2 -20 -70 -122
c-12 -18 -16 -25 -61 -25c-36 0 -42 8 -42 21z" />
    <glyph glyph-name="commaaccent" unicode="&#x326;" horiz-adv-x="179" 
d="M62 -239c-30 0 -36 7 -36 21c0 22 11 70 11 127c0 37 8 45 59 45c46 0 59 -8 59 -34c0 -25 -2 -50 -13 -73l-23 -58c-10 -21 -17 -28 -57 -28z" />
    <glyph glyph-name="afii10023" unicode="&#x401;" horiz-adv-x="455" 
d="M431 51c0 -41 -8 -51 -31 -51h-311c-27 0 -36 5 -36 31v559c0 26 9 31 36 31h301c23 0 31 -10 31 -52s-8 -51 -31 -51h-221v-142h160c26 0 31 -8 31 -50s-5 -51 -31 -51h-160v-172h231c23 0 31 -10 31 -52zM151 681c-52 0 -60 8 -60 43v16c0 36 8 43 60 43s60 -7 60 -43
v-16c0 -35 -8 -43 -60 -43zM318 681c-52 0 -59 8 -59 43v16c0 36 7 43 59 43s60 -7 60 -43v-16c0 -35 -8 -43 -60 -43z" />
    <glyph glyph-name="afii10051" unicode="&#x402;" horiz-adv-x="585" 
d="M210 0c-45 0 -58 4 -58 34v484h-111c-23 0 -31 9 -31 51s8 52 31 52h343c24 0 31 -10 31 -52s-7 -51 -31 -51h-116v-132c26 46 70 70 137 70c97 0 126 -42 126 -137v-207c0 -90 -40 -117 -106 -117c-23 0 -46 3 -65 7c-23 6 -31 17 -31 52c0 41 7 45 21 45
c7 0 21 -4 37 -4c23 0 28 6 28 51v145c0 48 -12 65 -63 65c-57 0 -84 -38 -84 -137v-185c0 -30 -13 -34 -58 -34z" />
    <glyph glyph-name="afii10052" unicode="&#x403;" horiz-adv-x="405" 
d="M186 674c-35 0 -48 7 -48 21c0 9 6 24 11 35l33 74c15 33 17 38 69 38c51 0 60 -11 60 -27c0 -10 -6 -23 -14 -37l-44 -74c-12 -20 -18 -30 -67 -30zM111 0c-45 0 -58 5 -58 34v556c0 26 9 31 36 31h271c23 0 31 -10 31 -52s-8 -51 -31 -51h-191v-484
c0 -29 -12 -34 -58 -34z" />
    <glyph glyph-name="afii10053" unicode="&#x404;" horiz-adv-x="453" 
d="M375 320c0 -39 -5 -46 -31 -46h-192c1 -168 27 -179 123 -179c73 0 113 15 131 15c14 0 18 -10 18 -46c0 -41 -8 -49 -24 -53c-43 -11 -95 -18 -150 -18c-114 0 -209 21 -209 265v88c0 260 96 280 215 280c47 0 102 -7 144 -18c16 -4 24 -10 24 -52c0 -35 -7 -46 -18 -46
c-15 0 -58 13 -122 13c-102 0 -129 -14 -132 -157h192c26 0 31 -7 31 -46z" />
    <glyph glyph-name="afii10054" unicode="&#x405;" horiz-adv-x="457" 
d="M208 -7c-51 0 -107 7 -143 18c-20 6 -29 14 -29 55c0 39 6 46 20 46c20 0 59 -16 134 -16c79 0 118 19 118 79c0 42 -7 58 -48 77l-115 51c-64 29 -97 63 -97 155c0 140 86 168 177 168c55 0 115 -8 156 -19c16 -4 24 -12 24 -54c0 -38 -8 -46 -20 -46
c-15 0 -61 15 -132 15c-63 0 -92 -5 -92 -65c0 -38 14 -48 48 -63l114 -51c70 -31 98 -68 98 -162c0 -143 -91 -188 -213 -188z" />
    <glyph glyph-name="afii10055" unicode="&#x406;" horiz-adv-x="223" 
d="M111 0c-45 0 -58 5 -58 34v553c0 29 13 34 58 34c46 0 58 -5 58 -34v-553c0 -29 -12 -34 -58 -34z" />
    <glyph glyph-name="afii10056" unicode="&#x407;" horiz-adv-x="223" 
d="M111 0c-45 0 -58 5 -58 34v553c0 29 13 34 58 34c46 0 58 -5 58 -34v-553c0 -29 -12 -34 -58 -34zM28 679c-52 0 -60 8 -60 43v16c0 36 8 43 60 43s60 -7 60 -43v-16c0 -35 -8 -43 -60 -43zM195 679c-52 0 -59 8 -59 43v16c0 36 7 43 59 43s60 -7 60 -43v-16
c0 -35 -8 -43 -60 -43z" />
    <glyph glyph-name="afii10057" unicode="&#x408;" horiz-adv-x="348" 
d="M141 -7c-48 0 -81 7 -106 14c-20 6 -28 13 -28 54c0 39 6 42 20 42c17 0 46 -8 84 -8c53 0 68 14 68 75v417c0 29 13 34 58 34s58 -5 58 -34v-417c0 -130 -48 -177 -154 -177z" />
    <glyph glyph-name="afii10058" unicode="&#x409;" horiz-adv-x="834" 
d="M103 -7c-23 0 -43 1 -65 6c-20 4 -28 14 -28 55c0 38 7 41 20 41c11 0 19 -3 34 -3c20 0 28 4 32 42l48 458c2 22 8 29 36 29h282c28 0 36 -5 36 -31v-219c42 5 82 8 137 8c134 0 163 -58 163 -194c0 -145 -41 -192 -218 -192c-66 0 -112 1 -163 7c-30 3 -35 12 -35 37
v481h-136l-48 -438c-7 -60 -32 -87 -95 -87zM587 286c-18 0 -51 -1 -89 -3v-194c22 -2 54 -4 88 -4c83 0 93 16 93 104c0 81 -16 97 -92 97z" />
    <glyph glyph-name="afii10059" unicode="&#x40a;" horiz-adv-x="813" 
d="M111 0c-45 0 -58 5 -58 34v553c0 29 13 34 58 34c46 0 58 -5 58 -34v-221h193v221c0 29 12 34 58 34c45 0 58 -5 58 -34v-216c42 5 82 8 136 8c135 0 164 -58 164 -194c0 -145 -42 -192 -218 -192c-66 0 -112 1 -163 7c-30 3 -35 12 -35 37v231h-193v-234
c0 -29 -12 -34 -58 -34zM566 286c-18 0 -50 -1 -88 -3v-194c22 -2 53 -4 87 -4c84 0 94 16 94 104c0 81 -17 97 -93 97z" />
    <glyph glyph-name="afii10060" unicode="&#x40b;" horiz-adv-x="585" 
d="M210 0c-45 0 -58 4 -58 34v484h-111c-23 0 -31 9 -31 51s8 52 31 52h343c24 0 31 -10 31 -52s-7 -51 -31 -51h-116v-132c26 46 70 70 137 70c97 0 126 -42 126 -137v-285c0 -30 -13 -34 -57 -34c-45 0 -59 4 -59 34v257c0 48 -12 65 -63 65c-57 0 -84 -38 -84 -137v-185
c0 -30 -13 -34 -58 -34z" />
    <glyph glyph-name="afii10061" unicode="&#x40c;" horiz-adv-x="484" 
d="M111 0c-45 0 -58 5 -58 34v553c0 29 13 34 58 34c46 0 58 -5 58 -34v-236h16l143 242c14 24 23 28 75 28c44 0 54 -8 54 -24c0 -8 -3 -17 -13 -33l-158 -250l163 -242c17 -26 20 -36 20 -46c0 -14 -7 -26 -61 -26c-41 0 -54 5 -68 27l-155 248h-16v-241
c0 -29 -12 -34 -58 -34zM210 674c-35 0 -48 7 -48 21c0 9 6 24 11 35l33 74c15 33 17 38 69 38c51 0 60 -11 60 -27c0 -10 -6 -23 -14 -37l-44 -74c-12 -20 -18 -30 -67 -30z" />
    <glyph glyph-name="afii10062" unicode="&#x40e;" horiz-adv-x="488" 
d="M244 683c-94 0 -125 29 -125 112c0 29 7 33 41 33s39 -4 41 -26c2 -26 4 -34 43 -34s41 8 43 34c2 22 8 26 41 26c34 0 41 -4 41 -33c0 -83 -31 -112 -125 -112zM14 597c0 14 9 24 57 24s58 -6 65 -30l105 -330h10l100 327c8 28 16 33 68 33c47 0 55 -11 55 -24
c0 -9 -4 -26 -14 -54l-161 -443c-25 -70 -63 -105 -141 -105c-36 0 -66 2 -93 9c-20 5 -28 13 -28 53s6 43 19 43c18 0 45 -6 80 -6c46 0 68 9 83 61l3 11h-6c-42 0 -55 15 -65 43l-123 333c-9 24 -14 43 -14 55z" />
    <glyph glyph-name="afii10145" unicode="&#x40f;" horiz-adv-x="526" 
d="M263 -106c-36 0 -38 4 -40 31l-5 75h-129c-27 0 -36 5 -36 31v556c0 29 13 34 58 34c46 0 58 -5 58 -34v-484h187v484c0 29 13 34 58 34s58 -5 58 -34v-556c0 -26 -8 -31 -36 -31h-130l-4 -75c-1 -27 -4 -31 -39 -31z" />
    <glyph glyph-name="afii10017" unicode="&#x410;" horiz-adv-x="532" 
d="M70 0c-48 0 -56 7 -56 27c0 8 3 19 7 35l136 506c12 47 30 53 109 53s95 -6 108 -53l137 -506c4 -16 6 -27 6 -35c0 -19 -7 -27 -55 -27c-50 0 -59 6 -66 33l-36 134h-191l-33 -134c-6 -27 -16 -33 -66 -33zM259 523l-67 -267h148l-68 267h-13z" />
    <glyph glyph-name="afii10018" unicode="&#x411;" horiz-adv-x="514" 
d="M254 -7c-66 0 -115 1 -165 7c-31 4 -36 12 -36 37v553c0 26 9 31 36 31h314c23 0 31 -10 31 -52s-8 -51 -31 -51h-234v-153c45 5 88 8 143 8c135 0 164 -55 164 -191c0 -144 -45 -189 -222 -189zM265 281c-18 0 -55 -1 -96 -4v-187c23 -3 57 -5 91 -5c86 0 97 12 97 101
c0 79 -14 95 -92 95z" />
    <glyph glyph-name="afii10019" unicode="&#x412;" horiz-adv-x="517" 
d="M254 -7c-66 0 -115 1 -165 7c-31 4 -36 12 -36 37v542c0 29 10 36 35 39c41 5 104 8 144 8c151 0 222 -16 222 -156c0 -78 -16 -126 -77 -144c70 -15 99 -57 99 -158c0 -130 -45 -175 -222 -175zM169 525v-161h74c79 0 92 16 92 90c0 63 -10 75 -87 75
c-30 0 -59 -2 -79 -4zM169 281v-191c23 -3 57 -5 91 -5c86 0 97 12 97 101c0 76 -15 95 -92 95h-96z" />
    <glyph glyph-name="afii10020" unicode="&#x413;" horiz-adv-x="405" 
d="M111 0c-45 0 -58 5 -58 34v556c0 26 9 31 36 31h271c23 0 31 -10 31 -52s-8 -51 -31 -51h-191v-484c0 -29 -12 -34 -58 -34z" />
    <glyph glyph-name="afii10021" unicode="&#x414;" horiz-adv-x="558" 
d="M58 -106c-33 0 -44 4 -44 30v143c0 31 11 36 42 36h17l54 489c2 22 8 29 36 29h289c27 0 36 -5 36 -31v-487h14c31 0 42 -5 42 -36v-143c0 -26 -10 -30 -44 -30c-36 0 -46 4 -51 30l-16 76h-308l-16 -76c-5 -26 -14 -30 -51 -30zM229 518l-44 -415h187v415h-143z" />
    <glyph glyph-name="afii10022" unicode="&#x415;" horiz-adv-x="455" 
d="M431 51c0 -41 -8 -51 -31 -51h-311c-27 0 -36 5 -36 31v559c0 26 9 31 36 31h301c23 0 31 -10 31 -52s-8 -51 -31 -51h-221v-142h160c26 0 31 -8 31 -50s-5 -51 -31 -51h-160v-172h231c23 0 31 -10 31 -52z" />
    <glyph glyph-name="afii10024" unicode="&#x416;" horiz-adv-x="723" 
d="M75 0c-54 0 -60 12 -60 26c0 10 3 20 19 46l155 242l-150 250c-9 15 -13 25 -13 33c0 16 10 24 54 24c53 0 62 -4 75 -28l134 -242h13v236c0 29 13 34 58 34s58 -5 58 -34v-236h16l134 242c13 24 22 28 75 28c44 0 54 -8 54 -24c0 -8 -4 -18 -13 -33l-150 -250l155 -242
c16 -26 19 -36 19 -46c0 -14 -6 -26 -60 -26c-41 0 -55 5 -68 27l-146 248h-16v-241c0 -29 -13 -34 -58 -34s-58 5 -58 34v241h-13l-146 -248c-13 -22 -27 -27 -68 -27z" />
    <glyph glyph-name="afii10025" unicode="&#x417;" horiz-adv-x="453" 
d="M89 316c0 35 5 46 31 46h52c93 0 107 34 107 91c0 56 -13 72 -77 72c-67 0 -122 -11 -139 -11c-13 0 -21 8 -21 46c0 42 6 46 24 51c40 10 109 15 168 15c99 0 163 -28 163 -158c0 -81 -38 -136 -107 -147c87 -6 119 -53 119 -148c0 -131 -67 -180 -191 -180
c-56 0 -127 6 -165 15c-20 5 -29 11 -29 52c0 39 7 46 21 46c19 0 84 -12 151 -12c81 0 95 32 95 90c0 59 -13 86 -118 86h-53c-26 0 -31 12 -31 46z" />
    <glyph glyph-name="afii10026" unicode="&#x418;" horiz-adv-x="552" 
d="M441 0c-45 0 -58 5 -58 34v381h-9l-190 -383c-15 -30 -27 -32 -64 -32c-56 0 -67 5 -67 34v553c0 29 13 34 58 34c46 0 58 -5 58 -34v-381h9l186 382c15 31 28 33 66 33c56 0 69 -5 69 -34v-553c0 -29 -13 -34 -58 -34z" />
    <glyph glyph-name="afii10027" unicode="&#x419;" horiz-adv-x="552" 
d="M277 683c-94 0 -125 29 -125 112c0 29 7 33 41 33s39 -4 41 -26c2 -26 4 -34 43 -34s41 8 43 34c2 22 8 26 41 26c34 0 41 -4 41 -33c0 -83 -31 -112 -125 -112zM441 0c-45 0 -58 5 -58 34v381h-9l-190 -383c-15 -30 -27 -32 -64 -32c-56 0 -67 5 -67 34v553
c0 29 13 34 58 34c46 0 58 -5 58 -34v-381h9l186 382c15 31 28 33 66 33c56 0 69 -5 69 -34v-553c0 -29 -13 -34 -58 -34z" />
    <glyph glyph-name="afii10028" unicode="&#x41a;" horiz-adv-x="484" 
d="M111 0c-45 0 -58 5 -58 34v553c0 29 13 34 58 34c46 0 58 -5 58 -34v-236h16l143 242c14 24 23 28 75 28c44 0 54 -8 54 -24c0 -8 -3 -17 -13 -33l-158 -250l163 -242c17 -26 20 -36 20 -46c0 -14 -7 -26 -61 -26c-41 0 -54 5 -68 27l-155 248h-16v-241
c0 -29 -12 -34 -58 -34z" />
    <glyph glyph-name="afii10029" unicode="&#x41b;" horiz-adv-x="562" 
d="M450 0c-45 0 -58 5 -58 34v484h-141l-48 -438c-7 -60 -32 -87 -96 -87c-23 0 -42 1 -65 6c-20 4 -28 14 -28 55c0 38 8 41 20 41s20 -3 34 -3c20 0 28 4 32 42l48 458c2 22 9 29 37 29h287c28 0 36 -5 36 -31v-556c0 -29 -13 -34 -58 -34z" />
    <glyph glyph-name="afii10030" unicode="&#x41c;" horiz-adv-x="649" 
d="M110 0c-45 0 -57 5 -57 34v546c0 31 12 41 71 41s76 -4 91 -41l107 -277h5l107 277c15 37 32 41 91 41s70 -10 70 -41v-546c0 -29 -11 -34 -57 -34c-45 0 -57 5 -57 34l1 411h-6l-91 -247c-12 -34 -21 -40 -61 -40c-39 0 -48 6 -60 40l-91 247h-6v-411
c0 -29 -11 -34 -57 -34z" />
    <glyph glyph-name="afii10031" unicode="&#x41d;" horiz-adv-x="531" 
d="M169 366h193v221c0 29 12 34 58 34c45 0 58 -5 58 -34v-553c0 -29 -13 -34 -58 -34c-46 0 -58 5 -58 34v234h-193v-234c0 -29 -12 -34 -58 -34c-45 0 -58 5 -58 34v553c0 29 13 34 58 34c46 0 58 -5 58 -34v-221z" />
    <glyph glyph-name="afii10032" unicode="&#x41e;" horiz-adv-x="529" 
d="M264 93c89 0 108 19 108 190v53c0 170 -15 190 -108 190c-88 0 -107 -20 -107 -190v-53c0 -171 15 -190 107 -190zM264 -7c-160 0 -223 30 -223 279v69c0 259 67 285 223 285c166 0 224 -30 224 -285v-69c0 -254 -73 -279 -224 -279z" />
    <glyph glyph-name="afii10033" unicode="&#x41f;" horiz-adv-x="526" 
d="M111 0c-45 0 -58 5 -58 34v556c0 26 9 31 36 31h347c28 0 36 -5 36 -31v-556c0 -29 -13 -34 -58 -34s-58 5 -58 34v484h-187v-484c0 -29 -12 -34 -58 -34z" />
    <glyph glyph-name="afii10034" unicode="&#x420;" horiz-adv-x="493" 
d="M111 0c-45 0 -58 5 -58 34v544c0 28 11 36 35 39c51 6 112 9 171 9c139 0 203 -26 203 -193c0 -170 -78 -217 -238 -217h-55v-182c0 -29 -12 -34 -58 -34zM169 525v-214h60c90 0 112 24 112 116c0 86 -21 102 -95 102c-27 0 -57 -2 -77 -4z" />
    <glyph glyph-name="afii10035" unicode="&#x421;" horiz-adv-x="453" 
d="M255 -7c-123 0 -214 21 -214 265v88c0 260 94 280 216 280c51 0 102 -8 143 -19c16 -4 24 -10 24 -54c0 -34 -7 -45 -18 -45c-15 0 -58 15 -122 15c-97 0 -127 -15 -127 -185v-55c0 -177 32 -188 127 -188c68 0 104 16 122 16c14 0 18 -9 18 -46c0 -42 -8 -49 -24 -53
c-41 -12 -92 -19 -145 -19z" />
    <glyph glyph-name="afii10036" unicode="&#x422;" horiz-adv-x="440" 
d="M220 0c-45 0 -58 5 -58 34v484h-121c-23 0 -31 9 -31 51s8 52 31 52h358c23 0 31 -10 31 -52s-8 -51 -31 -51h-121v-484c0 -29 -13 -34 -58 -34z" />
    <glyph glyph-name="afii10037" unicode="&#x423;" horiz-adv-x="488" 
d="M14 597c0 14 9 24 57 24s58 -6 65 -30l105 -330h10l100 327c8 28 16 33 68 33c47 0 55 -11 55 -24c0 -9 -4 -26 -14 -54l-161 -443c-25 -70 -63 -105 -141 -105c-36 0 -66 2 -93 9c-20 5 -28 13 -28 53s6 43 19 43c18 0 45 -6 80 -6c46 0 68 9 83 61l3 11h-6
c-42 0 -55 15 -65 43l-123 333c-9 24 -14 43 -14 55z" />
    <glyph glyph-name="afii10038" unicode="&#x424;" horiz-adv-x="655" 
d="M28 327c0 181 85 207 217 207h26v59c0 28 13 33 58 33s58 -5 58 -33v-59h26c132 0 217 -26 217 -207c0 -177 -75 -224 -217 -224h-26v-75c0 -29 -13 -34 -58 -34s-58 5 -58 34v75h-26c-142 0 -217 47 -217 224zM413 439h-26v-242h26c80 0 102 18 102 130
c0 99 -22 112 -102 112zM143 327c0 -112 23 -130 102 -130h26v242h-26c-79 0 -102 -13 -102 -112z" />
    <glyph glyph-name="afii10039" unicode="&#x425;" horiz-adv-x="497" 
d="M75 0c-47 0 -58 11 -58 28c0 9 5 21 18 41l152 250l-140 230c-13 21 -18 34 -18 44c0 17 12 28 59 28s56 -6 71 -33l88 -160h4l86 160c13 29 25 33 72 33s58 -11 58 -28c0 -10 -5 -23 -17 -43l-141 -231l153 -248c13 -20 17 -34 17 -43c0 -17 -11 -28 -57 -28
c-47 0 -56 6 -71 33l-102 183h-4l-99 -183c-15 -28 -24 -33 -71 -33z" />
    <glyph glyph-name="afii10040" unicode="&#x426;" horiz-adv-x="555" 
d="M495 -106c-38 0 -47 4 -52 30l-16 76h-338c-27 0 -36 5 -36 31v556c0 29 13 34 58 34c46 0 58 -5 58 -34v-484h187v484c0 29 13 34 58 34s58 -5 58 -34v-484h15c40 0 53 -5 53 -36v-143c0 -26 -11 -30 -45 -30z" />
    <glyph glyph-name="afii10041" unicode="&#x427;" horiz-adv-x="493" 
d="M200 229c-121 0 -167 31 -167 170v188c0 29 13 34 58 34c46 0 58 -5 58 -34v-172c0 -75 14 -86 82 -86c22 0 58 1 93 3v255c0 29 12 34 58 34c45 0 58 -5 58 -34v-553c0 -29 -13 -34 -58 -34c-46 0 -58 5 -58 34v205c-39 -6 -82 -10 -124 -10z" />
    <glyph glyph-name="afii10042" unicode="&#x428;" horiz-adv-x="804" 
d="M111 621c46 0 58 -5 58 -34v-484h175v484c0 29 13 34 58 34s58 -5 58 -34v-484h174v484c0 29 13 34 58 34s58 -5 58 -34v-556c0 -26 -8 -31 -36 -31h-625c-27 0 -36 5 -36 31v556c0 29 13 34 58 34z" />
    <glyph glyph-name="afii10043" unicode="&#x429;" horiz-adv-x="833" 
d="M705 0h-616c-27 0 -36 5 -36 31v556c0 29 13 34 58 34c46 0 58 -5 58 -34v-484h175v484c0 29 13 34 58 34s58 -5 58 -34v-484h174v484c0 29 13 34 58 34s58 -5 58 -34v-484h15c40 0 53 -5 53 -36v-143c0 -26 -11 -30 -45 -30c-38 0 -47 4 -52 30z" />
    <glyph glyph-name="afii10044" unicode="&#x42a;" horiz-adv-x="553" 
d="M302 -7c-66 0 -112 1 -163 7c-30 3 -35 12 -35 37v481h-63c-23 0 -31 9 -31 51s8 52 31 52h121c45 0 58 -5 58 -34v-216c42 5 82 8 137 8c134 0 163 -58 163 -194c0 -145 -41 -192 -218 -192zM309 286c-18 0 -51 -1 -89 -3v-194c22 -2 54 -4 88 -4c83 0 93 16 93 104
c0 81 -16 97 -92 97z" />
    <glyph glyph-name="afii10045" unicode="&#x42b;" horiz-adv-x="723" 
d="M615 0c-45 0 -58 5 -58 34v553c0 29 13 34 58 34c46 0 58 -5 58 -34v-553c0 -29 -12 -34 -58 -34zM111 621c46 0 58 -5 58 -34v-216c42 5 83 8 137 8c135 0 164 -58 164 -194c0 -145 -42 -192 -218 -192c-66 0 -113 1 -163 7c-31 4 -36 12 -36 37v550c0 29 13 34 58 34z
M258 286c-18 0 -51 -1 -89 -3v-194c22 -2 54 -4 88 -4c83 0 94 16 94 104c0 81 -17 97 -93 97z" />
    <glyph glyph-name="afii10046" unicode="&#x42c;" horiz-adv-x="503" 
d="M111 621c46 0 58 -5 58 -34v-216c42 5 83 8 137 8c135 0 164 -58 164 -194c0 -145 -42 -192 -218 -192c-66 0 -113 1 -163 7c-31 4 -36 12 -36 37v550c0 29 13 34 58 34zM258 286c-18 0 -51 -1 -89 -3v-194c22 -2 54 -4 88 -4c83 0 94 16 94 104c0 81 -17 97 -93 97z" />
    <glyph glyph-name="afii10047" unicode="&#x42d;" horiz-adv-x="458" 
d="M80 320c0 39 5 46 31 46h195c-3 143 -31 157 -132 157c-64 0 -107 -13 -122 -13c-11 0 -18 11 -18 46c0 42 8 48 24 52c42 11 97 18 145 18c119 0 214 -20 214 -280v-88c0 -244 -95 -265 -209 -265c-55 0 -107 7 -150 18c-16 4 -24 12 -24 53c0 36 5 46 18 46
c18 0 58 -15 131 -15c95 0 122 11 123 179h-195c-26 0 -31 7 -31 46z" />
    <glyph glyph-name="afii10048" unicode="&#x42e;" horiz-adv-x="774" 
d="M510 -7c-151 0 -224 25 -224 280h-117v-239c0 -29 -12 -34 -58 -34c-45 0 -58 5 -58 34v553c0 29 13 34 58 34c46 0 58 -5 58 -34v-212h117c5 223 65 251 224 251c165 0 223 -30 223 -285v-69c0 -254 -72 -279 -223 -279zM510 93c88 0 107 19 107 190v53
c0 170 -15 190 -107 190c-93 0 -108 -20 -108 -190v-53c0 -171 19 -190 108 -190z" />
    <glyph glyph-name="afii10049" unicode="&#x42f;" horiz-adv-x="506" 
d="M397 0c-45 0 -58 5 -58 34v213h-54c-15 0 -29 0 -42 1l-86 -217c-11 -27 -18 -31 -76 -31c-42 0 -48 12 -48 23c0 6 1 13 13 38l97 206c-65 26 -96 79 -96 176c0 157 63 183 203 183c58 0 120 -3 171 -9c23 -3 34 -11 34 -39v-544c0 -29 -13 -34 -58 -34zM167 437
c0 -86 23 -106 112 -106h60v194c-19 2 -50 4 -76 4c-74 0 -96 -18 -96 -92z" />
    <glyph glyph-name="afii10065" unicode="&#x430;" horiz-adv-x="486" 
d="M162 -10c-88 0 -129 41 -129 146c0 104 46 148 190 148h87v50c0 65 -21 70 -82 70c-73 0 -124 -16 -145 -16c-14 0 -21 13 -21 46c0 34 7 43 25 49c32 10 96 20 156 20c123 0 182 -20 182 -140v-158c0 -115 20 -157 20 -178c0 -18 -8 -27 -53 -27c-40 0 -48 4 -55 30
l-15 56c-27 -66 -86 -96 -160 -96zM203 83c55 0 107 31 107 105v27l-87 -3c-63 -2 -79 -16 -79 -64c0 -56 18 -65 59 -65z" />
    <glyph glyph-name="afii10066" unicode="&#x431;" horiz-adv-x="511" 
d="M263 -10c-159 0 -215 52 -215 242v202c0 189 65 235 218 235c55 0 123 -7 159 -13c16 -3 24 -14 24 -48s-6 -44 -20 -44c-23 0 -78 9 -139 9c-96 0 -123 -11 -123 -117v-20c21 45 63 67 139 67c122 0 161 -40 161 -260c0 -212 -58 -253 -204 -253zM263 87
c74 0 86 20 86 166c0 140 -18 152 -94 152c-66 0 -90 -25 -90 -148v-20c0 -127 20 -150 98 -150z" />
    <glyph glyph-name="afii10067" unicode="&#x432;" horiz-adv-x="493" 
d="M252 94c73 0 87 11 87 61c0 46 -20 61 -101 61h-69v-119c20 -2 51 -3 83 -3zM246 -7c-71 0 -113 3 -157 9c-31 4 -36 10 -36 35v416c0 29 10 36 35 39c41 5 98 8 165 8c135 0 192 -15 192 -122c0 -89 -34 -117 -105 -125c80 -9 117 -30 117 -123
c0 -119 -67 -137 -211 -137zM247 399c-29 0 -57 -1 -78 -4v-106h69c65 0 89 12 89 59c0 45 -18 51 -80 51z" />
    <glyph glyph-name="afii10068" unicode="&#x433;" horiz-adv-x="352" 
d="M111 0c-45 0 -58 5 -58 34v428c0 26 9 31 36 31h222c23 0 31 -10 31 -52s-8 -51 -31 -51h-142v-356c0 -29 -12 -34 -58 -34z" />
    <glyph glyph-name="afii10069" unicode="&#x434;" horiz-adv-x="514" 
d="M56 -106c-34 0 -44 4 -44 30v128c0 42 5 51 31 51h22l46 356c4 29 13 34 58 34h213c45 0 58 -5 58 -34v-356h16c31 0 42 -5 42 -36v-143c0 -26 -11 -30 -44 -30c-36 0 -46 4 -51 30l-16 76h-265l-16 -76c-5 -26 -14 -30 -50 -30zM211 394l-37 -291h150v291h-113z" />
    <glyph glyph-name="afii10070" unicode="&#x435;" horiz-adv-x="475" 
d="M258 -10c-143 0 -215 30 -215 252c0 234 74 261 207 261c163 0 186 -74 186 -233c0 -36 -7 -54 -44 -54h-233c2 -111 21 -126 107 -126c78 0 130 17 144 17c12 0 19 -12 19 -47c0 -34 -8 -43 -27 -50c-33 -12 -100 -20 -144 -20zM248 406c-63 0 -85 -13 -89 -118h168
c0 85 -4 118 -79 118z" />
    <glyph glyph-name="afii10072" unicode="&#x436;" horiz-adv-x="683" 
d="M73 0c-44 0 -61 8 -61 23c0 11 6 18 13 29l147 206l-134 182c-8 11 -14 23 -14 33c0 14 14 20 58 20c50 0 58 -6 74 -29l117 -170h10v165c0 30 14 34 58 34c45 0 58 -4 58 -34v-165h11l117 170c16 23 24 29 74 29c44 0 57 -6 57 -20c0 -10 -5 -23 -13 -33l-134 -182
l147 -206c7 -11 13 -18 13 -29c0 -15 -17 -23 -61 -23c-45 0 -56 5 -71 28l-129 193h-11v-187c0 -30 -13 -34 -58 -34c-44 0 -58 4 -58 34v187h-10l-129 -193c-15 -23 -26 -28 -71 -28z" />
    <glyph glyph-name="afii10073" unicode="&#x437;" horiz-adv-x="436" 
d="M103 253c0 29 5 41 31 41h37c68 0 91 12 91 57c0 43 -13 48 -74 48c-67 0 -108 -10 -125 -10c-13 0 -21 9 -21 47c0 42 9 46 24 50c41 9 94 14 151 14c100 0 164 -17 164 -118c0 -100 -35 -121 -105 -129c80 -9 117 -27 117 -120c0 -122 -68 -140 -185 -140
c-60 0 -116 5 -155 14c-22 5 -29 12 -29 52s7 47 21 47c19 0 65 -12 135 -12c80 0 95 10 95 58c0 45 -19 59 -102 59h-39c-26 0 -31 11 -31 42z" />
    <glyph glyph-name="afii10074" unicode="&#x438;" horiz-adv-x="518" 
d="M403 493c52 0 61 -10 61 -37v-422c0 -29 -13 -34 -58 -34s-58 5 -58 34v288h-7l-155 -288c-16 -30 -32 -34 -71 -34c-51 0 -62 10 -62 37v422c0 29 13 34 58 34c46 0 58 -5 58 -34v-281h7l160 287c14 26 28 28 67 28z" />
    <glyph glyph-name="afii10075" unicode="&#x439;" horiz-adv-x="518" 
d="M257 548c-94 0 -125 29 -125 112c0 29 7 33 41 33s39 -4 41 -26c2 -26 4 -34 43 -34s41 8 43 34c2 22 8 26 41 26c34 0 41 -4 41 -33c0 -83 -31 -112 -125 -112zM403 493c52 0 61 -10 61 -37v-422c0 -29 -13 -34 -58 -34s-58 5 -58 34v288h-7l-155 -288
c-16 -30 -32 -34 -71 -34c-51 0 -62 10 -62 37v422c0 29 13 34 58 34c46 0 58 -5 58 -34v-281h7l160 287c14 26 28 28 67 28z" />
    <glyph glyph-name="afii10076" unicode="&#x43a;" horiz-adv-x="457" 
d="M111 0c-44 0 -58 4 -58 34v425c0 30 14 34 58 34c45 0 58 -4 58 -34v-165h11l122 170c16 23 25 29 75 29c43 0 56 -6 56 -20c0 -10 -5 -23 -13 -33l-137 -182l150 -206c8 -11 12 -18 12 -29c0 -15 -17 -23 -60 -23c-45 0 -54 5 -70 28l-135 193h-11v-187
c0 -30 -13 -34 -58 -34z" />
    <glyph glyph-name="afii10077" unicode="&#x43b;" horiz-adv-x="513" 
d="M402 0c-45 0 -58 5 -58 34v360h-113l-38 -314c-7 -60 -32 -87 -95 -87c-23 0 -43 1 -65 6c-20 4 -28 14 -28 55c0 38 7 41 20 41c11 0 19 -3 34 -3c20 0 27 4 32 42l40 325c4 29 12 34 43 34h250c27 0 36 -5 36 -31v-428c0 -29 -13 -34 -58 -34z" />
    <glyph glyph-name="afii10078" unicode="&#x43c;" horiz-adv-x="638" 
d="M111 0c-45 0 -58 5 -58 34v418c0 31 12 41 71 41s71 -4 86 -41l107 -264h4l107 264c15 37 27 41 86 41s70 -10 70 -41v-418c0 -29 -12 -34 -58 -34c-45 0 -58 5 -58 34c0 143 2 147 3 290h-6l-85 -222c-13 -33 -22 -39 -61 -39s-48 6 -61 39l-85 222h-6
c1 -143 2 -147 2 -290c0 -29 -12 -34 -58 -34z" />
    <glyph glyph-name="afii10079" unicode="&#x43d;" horiz-adv-x="499" 
d="M169 303h160v156c0 29 13 34 58 34s58 -5 58 -34v-425c0 -29 -13 -34 -58 -34s-58 5 -58 34v171h-160v-171c0 -29 -12 -34 -58 -34c-45 0 -58 5 -58 34v425c0 29 13 34 58 34c46 0 58 -5 58 -34v-156z" />
    <glyph glyph-name="afii10080" unicode="&#x43e;" horiz-adv-x="503" 
d="M243 -10c-151 0 -200 43 -200 253c0 213 60 260 216 260c151 0 200 -40 200 -250c0 -214 -59 -263 -216 -263zM247 87c80 0 94 28 94 157c0 141 -13 161 -86 161c-80 0 -94 -25 -94 -154c0 -141 13 -164 86 -164z" />
    <glyph glyph-name="afii10081" unicode="&#x43f;" horiz-adv-x="499" 
d="M111 0c-45 0 -58 5 -58 34v428c0 26 9 31 36 31h320c28 0 36 -5 36 -31v-428c0 -29 -13 -34 -58 -34s-58 5 -58 34v361h-160v-361c0 -29 -12 -34 -58 -34z" />
    <glyph glyph-name="afii10082" unicode="&#x440;" horiz-adv-x="526" 
d="M119 -187c-44 0 -58 4 -58 33v442c0 114 -20 157 -20 178c0 17 8 27 53 27c40 0 48 -4 55 -30l11 -44c26 54 76 84 157 84c131 0 165 -51 165 -249c0 -223 -57 -264 -182 -264c-64 0 -103 16 -123 53v-197c0 -29 -13 -33 -58 -33zM271 87c74 0 93 20 93 166
c0 132 -15 152 -85 152s-104 -22 -104 -138v-48c0 -104 19 -132 96 -132z" />
    <glyph glyph-name="afii10083" unicode="&#x441;" horiz-adv-x="430" 
d="M248 -10c-133 0 -205 30 -205 252c0 234 76 261 201 261c46 0 96 -9 128 -18c19 -6 26 -15 26 -50s-7 -47 -20 -47c-12 0 -72 16 -119 16c-75 0 -100 -13 -100 -151c0 -144 13 -163 103 -163c64 0 104 17 118 17c12 0 19 -12 19 -47c0 -34 -8 -43 -27 -50
c-33 -12 -84 -20 -124 -20z" />
    <glyph glyph-name="afii10084" unicode="&#x442;" horiz-adv-x="409" 
d="M204 0c-45 0 -58 5 -58 34v356h-101c-23 0 -31 9 -31 51s8 52 31 52h318c24 0 31 -10 31 -52s-7 -51 -31 -51h-101v-356c0 -29 -12 -34 -58 -34z" />
    <glyph glyph-name="afii10085" unicode="&#x443;" horiz-adv-x="471" 
d="M19 463c0 18 6 30 60 30c47 0 57 -5 63 -30l86 -366h11l90 366c6 25 16 30 62 30c53 0 62 -10 62 -29c0 -9 -2 -26 -16 -73l-125 -426c-35 -121 -61 -161 -167 -161c-36 0 -74 6 -97 14c-18 6 -27 14 -27 48c0 35 7 47 21 47c12 0 40 -9 90 -9c52 0 62 12 73 54l10 42
c-59 0 -73 14 -84 53l-94 325c-18 61 -18 76 -18 85z" />
    <glyph glyph-name="afii10086" unicode="&#x444;" horiz-adv-x="792" 
d="M199 -10c-132 0 -160 51 -160 249c0 223 51 264 177 264c62 0 100 -17 120 -64v183c0 29 13 33 58 33s58 -4 58 -33v-187c24 50 69 68 137 68c132 0 160 -51 160 -249c0 -223 -51 -264 -177 -264c-62 0 -101 19 -120 61v-205c0 -29 -13 -33 -58 -33s-58 4 -58 33v209
c-27 -48 -74 -65 -137 -65zM541 87c74 0 90 20 90 166c0 132 -12 152 -83 152c-74 0 -98 -21 -98 -132v-56c0 -103 14 -130 91 -130zM239 87c78 0 99 32 99 132v54c0 104 -14 132 -91 132c-74 0 -90 -19 -90 -165c0 -132 12 -153 82 -153z" />
    <glyph glyph-name="afii10087" unicode="&#x445;" horiz-adv-x="453" 
d="M75 0c-44 0 -56 8 -56 24c0 6 3 14 12 28l126 202l-112 177c-10 17 -15 27 -15 35c0 20 15 27 61 27c50 0 57 -4 70 -28l65 -117h4l63 117c13 25 20 28 69 28c46 0 61 -7 61 -27c0 -8 -4 -17 -14 -33l-115 -173l127 -206c9 -14 13 -24 13 -30c0 -15 -11 -24 -56 -24
c-50 0 -61 6 -78 37l-72 134h-4l-72 -134c-16 -30 -26 -37 -77 -37z" />
    <glyph glyph-name="afii10088" unicode="&#x446;" horiz-adv-x="507" 
d="M447 -106c-37 0 -46 4 -51 30l-16 76h-291c-27 0 -36 5 -36 31v428c0 29 13 34 58 34c46 0 58 -5 58 -34v-356h148v356c0 29 13 34 58 34s58 -5 58 -34v-356h15c32 0 42 -5 42 -36v-143c0 -26 -10 -30 -43 -30z" />
    <glyph glyph-name="afii10089" unicode="&#x447;" horiz-adv-x="457" 
d="M190 162c-117 0 -162 31 -162 169v128c0 29 13 34 58 34s58 -5 58 -34v-112c0 -74 14 -86 71 -86c20 0 46 1 72 3v195c0 29 13 34 58 34s58 -5 58 -34v-425c0 -29 -13 -34 -58 -34s-58 5 -58 34v135c-30 -4 -64 -7 -97 -7z" />
    <glyph glyph-name="afii10090" unicode="&#x448;" horiz-adv-x="735" 
d="M681 459v-428c0 -26 -8 -31 -36 -31h-556c-27 0 -36 5 -36 31v428c0 29 13 34 58 34c46 0 58 -5 58 -34v-356h140v356c0 29 13 34 58 34s58 -5 58 -34v-356h140v356c0 29 13 34 58 34s58 -5 58 -34z" />
    <glyph glyph-name="afii10091" unicode="&#x449;" horiz-adv-x="755" 
d="M695 -106c-37 0 -46 4 -51 30l-16 76h-539c-27 0 -36 5 -36 31v428c0 29 13 34 58 34c46 0 58 -5 58 -34v-356h140v356c0 29 13 34 58 34s58 -5 58 -34v-356h140v356c0 29 13 34 58 34s58 -5 58 -34v-356h15c32 0 42 -5 42 -36v-143c0 -26 -10 -30 -43 -30z" />
    <glyph glyph-name="afii10092" unicode="&#x44a;" horiz-adv-x="503" 
d="M84 390h-43c-23 0 -31 9 -31 51s8 52 31 52h101c45 0 58 -4 58 -34v-143h84c144 0 192 -25 192 -152c0 -150 -68 -171 -208 -171c-58 0 -104 3 -148 9c-31 4 -36 10 -36 35v353zM287 223h-87v-130c17 -2 41 -4 77 -4c68 0 82 12 82 71c0 50 -13 63 -72 63z" />
    <glyph glyph-name="afii10093" unicode="&#x44b;" horiz-adv-x="693" 
d="M582 0c-45 0 -58 4 -58 34v425c0 30 13 34 58 34c44 0 58 -4 58 -34v-425c0 -30 -14 -34 -58 -34zM237 -7c-58 0 -104 3 -148 9c-31 4 -36 10 -36 35v422c0 30 14 34 58 34c45 0 58 -4 58 -34v-143h84c144 0 192 -25 192 -152c0 -150 -68 -171 -208 -171zM256 223h-87
v-130c17 -2 41 -4 77 -4c68 0 82 12 82 71c0 50 -13 63 -72 63z" />
    <glyph glyph-name="afii10094" unicode="&#x44c;" horiz-adv-x="472" 
d="M237 -7c-58 0 -104 3 -148 9c-31 4 -36 10 -36 35v422c0 30 14 34 58 34c45 0 58 -4 58 -34v-143h84c144 0 192 -25 192 -152c0 -150 -68 -171 -208 -171zM256 223h-87v-130c17 -2 41 -4 77 -4c68 0 82 12 82 71c0 50 -13 63 -72 63z" />
    <glyph glyph-name="afii10095" unicode="&#x44d;" horiz-adv-x="447" 
d="M189 -10c-40 0 -102 8 -135 20c-19 7 -27 16 -27 50c0 35 7 47 19 47c20 0 58 -17 131 -17c96 0 118 15 121 118h-168c-26 0 -31 9 -31 43c0 33 5 42 31 42h168c-3 100 -21 111 -105 111c-66 0 -121 -14 -139 -14c-13 0 -19 11 -19 46s7 45 26 50c31 9 97 17 144 17
c150 0 204 -27 204 -261c0 -222 -69 -252 -220 -252z" />
    <glyph glyph-name="afii10096" unicode="&#x44e;" horiz-adv-x="717" 
d="M457 -10c-142 0 -194 38 -200 218h-88v-174c0 -30 -13 -34 -58 -34c-44 0 -58 4 -58 34v425c0 30 14 34 58 34c45 0 58 -4 58 -34v-155h90c11 161 74 199 215 199c150 0 199 -40 199 -250c0 -214 -59 -263 -216 -263zM461 87c80 0 94 28 94 157c0 141 -13 161 -86 161
c-80 0 -94 -25 -94 -154c0 -141 13 -164 86 -164z" />
    <glyph glyph-name="afii10097" unicode="&#x44f;" horiz-adv-x="489" 
d="M83 0c-47 0 -52 9 -52 21c0 6 4 18 15 37l80 139c-62 18 -83 60 -83 143c0 139 67 160 209 160c56 0 104 -4 148 -9c31 -4 36 -10 36 -35v-422c0 -30 -14 -34 -58 -34c-45 0 -58 4 -58 34v152h-90l-74 -155c-13 -27 -20 -31 -73 -31zM161 330c0 -46 13 -56 72 -56h87v121
c-17 2 -41 4 -76 4c-68 0 -83 -12 -83 -69z" />
    <glyph glyph-name="afii10071" unicode="&#x451;" horiz-adv-x="475" 
d="M258 -10c-143 0 -215 30 -215 252c0 234 74 261 207 261c163 0 186 -74 186 -233c0 -36 -7 -54 -44 -54h-233c2 -111 21 -126 107 -126c78 0 130 17 144 17c12 0 19 -12 19 -47c0 -34 -8 -43 -27 -50c-33 -12 -100 -20 -144 -20zM248 406c-63 0 -85 -13 -89 -118h168
c0 85 -4 118 -79 118zM154 553c-52 0 -60 8 -60 43v16c0 36 8 43 60 43s60 -7 60 -43v-16c0 -35 -8 -43 -60 -43zM321 553c-52 0 -59 8 -59 43v16c0 36 7 43 59 43s60 -7 60 -43v-16c0 -35 -8 -43 -60 -43z" />
    <glyph glyph-name="afii10099" unicode="&#x452;" horiz-adv-x="506" 
d="M111 0c-45 0 -58 4 -58 34v488h-22c-24 0 -29 6 -29 35c0 28 5 35 29 35h22v30c0 29 13 33 58 33c44 0 58 -4 58 -33v-30h117c24 0 28 -7 28 -35c0 -29 -4 -35 -28 -35h-117v-113c26 44 71 66 146 66c108 0 137 -43 137 -138v-406c0 -94 -41 -127 -115 -127
c-30 0 -59 5 -80 11s-29 14 -29 49c0 41 7 45 20 45c11 0 32 -5 52 -5c29 0 36 6 36 51v355c0 48 -12 65 -63 65c-78 0 -104 -45 -104 -162v-179c0 -30 -14 -34 -58 -34z" />
    <glyph glyph-name="afii10100" unicode="&#x453;" horiz-adv-x="352" 
d="M161 539c-35 0 -48 7 -48 21c0 9 6 24 11 35l33 74c15 33 17 38 69 38c51 0 60 -11 60 -27c0 -10 -6 -23 -14 -37l-44 -74c-12 -20 -18 -30 -67 -30zM111 0c-45 0 -58 5 -58 34v428c0 26 9 31 36 31h222c23 0 31 -10 31 -52s-8 -51 -31 -51h-142v-356
c0 -29 -12 -34 -58 -34z" />
    <glyph glyph-name="afii10101" unicode="&#x454;" horiz-adv-x="452" 
d="M264 -10c-152 0 -221 30 -221 252c0 234 54 261 204 261c48 0 113 -8 144 -17c19 -5 27 -15 27 -50s-7 -46 -20 -46c-18 0 -72 14 -138 14c-85 0 -103 -11 -106 -111h168c26 0 31 -9 31 -42c0 -34 -5 -43 -31 -43h-168c4 -103 24 -118 121 -118c74 0 112 17 131 17
c12 0 19 -12 19 -47c0 -34 -7 -43 -26 -50c-34 -12 -95 -20 -135 -20z" />
    <glyph glyph-name="afii10102" unicode="&#x455;" horiz-adv-x="437" 
d="M201 -10c-45 0 -101 7 -136 18c-19 6 -26 15 -26 50s7 47 19 47c14 0 68 -15 131 -15c69 0 92 18 92 57c0 23 -10 34 -32 42l-119 51c-43 18 -75 55 -75 124c0 113 86 139 167 139c45 0 103 -7 141 -17c19 -5 26 -13 26 -53c0 -42 -12 -45 -21 -45c-15 0 -67 17 -124 17
c-54 0 -71 -14 -71 -44c0 -22 6 -33 31 -43l116 -47c60 -24 78 -60 78 -120c0 -121 -86 -161 -197 -161z" />
    <glyph glyph-name="afii10103" unicode="&#x456;" horiz-adv-x="222" 
d="M109 0c-45 0 -58 4 -58 34v425c0 30 13 34 58 34c44 0 58 -4 58 -34v-425c0 -30 -14 -34 -58 -34zM109 553c-57 0 -63 8 -63 43v16c0 36 6 43 63 43c56 0 63 -7 63 -43v-16c0 -35 -7 -43 -63 -43z" />
    <glyph glyph-name="afii10104" unicode="&#x457;" horiz-adv-x="222" 
d="M28 553c-52 0 -60 8 -60 43v16c0 36 8 43 60 43s60 -7 60 -43v-16c0 -35 -8 -43 -60 -43zM195 553c-52 0 -59 8 -59 43v16c0 36 7 43 59 43s60 -7 60 -43v-16c0 -35 -8 -43 -60 -43zM109 0c-45 0 -58 4 -58 34v425c0 30 13 34 58 34c44 0 58 -4 58 -34v-425
c0 -30 -14 -34 -58 -34z" />
    <glyph glyph-name="afii10105" unicode="&#x458;" horiz-adv-x="222" 
d="M109 493c44 0 58 -4 58 -34v-528c0 -94 -41 -127 -115 -127c-31 0 -59 5 -81 11c-20 6 -29 14 -29 49c0 41 8 45 21 45c10 0 31 -5 51 -5c29 0 37 6 37 51v504c0 30 13 34 58 34zM109 553c-57 0 -63 8 -63 43v16c0 36 6 43 63 43c56 0 63 -7 63 -43v-16
c0 -35 -7 -43 -63 -43z" />
    <glyph glyph-name="afii10106" unicode="&#x459;" horiz-adv-x="761" 
d="M100 -7c-23 0 -42 1 -65 6c-20 4 -28 14 -28 55c0 38 8 41 20 41s19 -3 34 -3c20 0 27 4 32 42l40 325c4 29 12 34 43 34h248c27 0 36 -5 36 -31v-146h81c144 0 192 -25 192 -152c0 -150 -68 -171 -208 -171c-58 0 -101 3 -146 9c-30 4 -35 10 -35 35v357h-111l-38 -314
c-7 -60 -31 -87 -95 -87zM544 223h-84v-130c16 -2 38 -4 74 -4c68 0 82 12 82 71c0 50 -13 63 -72 63z" />
    <glyph glyph-name="afii10107" unicode="&#x45a;" horiz-adv-x="744" 
d="M111 0c-45 0 -58 5 -58 34v425c0 29 13 34 58 34c46 0 58 -5 58 -34v-156h158v156c0 29 13 34 58 34s58 -5 58 -34v-143h82c143 0 191 -25 191 -152c0 -150 -68 -171 -207 -171c-59 0 -102 3 -147 9c-30 4 -35 10 -35 35v168h-158v-171c0 -29 -12 -34 -58 -34zM527 223
h-84v-130c16 -2 39 -4 74 -4c68 0 82 12 82 71c0 50 -13 63 -72 63z" />
    <glyph glyph-name="afii10108" unicode="&#x45b;" horiz-adv-x="506" 
d="M2 557c0 28 5 35 29 35h22v30c0 29 13 33 58 33c44 0 58 -4 58 -33v-30h117c24 0 28 -7 28 -35c0 -29 -4 -35 -28 -35h-117v-113c26 44 71 66 146 66c108 0 137 -43 137 -138v-303c0 -30 -13 -34 -58 -34s-58 4 -58 34v276c0 48 -12 65 -63 65c-78 0 -104 -45 -104 -162
v-179c0 -30 -14 -34 -58 -34c-45 0 -58 4 -58 34v488h-22c-24 0 -29 6 -29 35z" />
    <glyph glyph-name="afii10109" unicode="&#x45c;" horiz-adv-x="457" 
d="M199 539c-35 0 -48 7 -48 21c0 9 6 24 11 35l33 74c15 33 17 38 69 38c51 0 60 -11 60 -27c0 -10 -6 -23 -14 -37l-44 -74c-12 -20 -18 -30 -67 -30zM111 0c-44 0 -58 4 -58 34v425c0 30 14 34 58 34c45 0 58 -4 58 -34v-165h11l122 170c16 23 25 29 75 29
c43 0 56 -6 56 -20c0 -10 -5 -23 -13 -33l-137 -182l150 -206c8 -11 12 -18 12 -29c0 -15 -17 -23 -60 -23c-45 0 -54 5 -70 28l-135 193h-11v-187c0 -30 -13 -34 -58 -34z" />
    <glyph glyph-name="afii10110" unicode="&#x45e;" horiz-adv-x="471" 
d="M19 463c0 18 6 30 60 30c47 0 57 -5 63 -30l86 -366h11l90 366c6 25 16 30 62 30c53 0 62 -10 62 -29c0 -9 -2 -26 -16 -73l-125 -426c-35 -121 -61 -161 -167 -161c-36 0 -74 6 -97 14c-18 6 -27 14 -27 48c0 35 7 47 21 47c12 0 40 -9 90 -9c52 0 62 12 73 54l10 42
c-59 0 -73 14 -84 53l-94 325c-18 61 -18 76 -18 85zM235 548c-94 0 -125 29 -125 112c0 29 7 33 41 33s39 -4 41 -26c2 -26 4 -34 43 -34s41 8 43 34c2 22 8 26 41 26c34 0 41 -4 41 -33c0 -83 -31 -112 -125 -112z" />
    <glyph glyph-name="afii10193" unicode="&#x45f;" horiz-adv-x="487" 
d="M243 -106c-35 0 -37 4 -39 31l-5 75h-110c-27 0 -36 5 -36 31v428c0 29 13 34 58 34c46 0 58 -5 58 -34v-362h148v362c0 29 13 34 58 34s58 -5 58 -34v-428c0 -26 -8 -31 -36 -31h-110l-4 -75c-2 -27 -4 -31 -40 -31z" />
    <glyph glyph-name="afii10050" unicode="&#x490;" horiz-adv-x="405" 
d="M347 727c34 0 44 -4 44 -30v-143c0 -31 -11 -36 -42 -36h-180v-484c0 -29 -12 -34 -58 -34c-45 0 -58 5 -58 34v556c0 26 9 31 36 31h192l16 76c8 25 14 30 50 30z" />
    <glyph glyph-name="afii10098" unicode="&#x491;" horiz-adv-x="356" 
d="M298 599c34 0 44 -4 44 -30v-144c0 -31 -11 -35 -42 -35h-131v-356c0 -29 -12 -34 -58 -34c-45 0 -58 5 -58 34v428c0 26 9 31 36 31h143l16 76c8 24 14 30 50 30z" />
    <glyph glyph-name="Wgrave" unicode="&#x1e80;" horiz-adv-x="802" 
d="M214 0c-66 0 -90 5 -98 47l-98 512c-2 13 -4 26 -4 35c0 20 8 27 56 27c50 0 63 -6 66 -33l80 -481h12l95 467c6 32 27 37 78 37s71 -5 78 -37l96 -467h11l80 481c3 27 16 33 66 33c48 0 56 -7 56 -27c0 -9 -2 -22 -3 -35l-98 -512c-8 -42 -33 -47 -99 -47
c-64 0 -89 8 -98 50l-84 401h-10l-83 -401c-9 -42 -34 -50 -99 -50zM409 665c-49 0 -55 10 -67 30l-43 74c-9 15 -15 31 -15 42c0 15 9 22 60 22c53 0 56 -7 70 -38l33 -74c5 -11 10 -26 10 -35c0 -14 -13 -21 -48 -21z" />
    <glyph glyph-name="wgrave" unicode="&#x1e81;" horiz-adv-x="709" 
d="M191 0c-66 0 -85 8 -92 42l-75 375c-4 19 -5 34 -5 43c0 25 6 33 58 33c51 0 61 -5 64 -35l60 -354h11l70 342c6 30 22 37 73 37c50 0 66 -7 72 -37l70 -342h11l60 354c5 30 14 35 65 35s57 -8 57 -33c0 -9 -1 -24 -5 -43l-75 -375c-7 -34 -25 -42 -91 -42
c-71 0 -95 8 -102 42l-58 272h-8l-59 -272c-7 -34 -31 -42 -101 -42zM381 539c-49 0 -55 10 -67 30l-43 74c-9 15 -15 31 -15 42c0 15 9 22 60 22c53 0 57 -8 70 -38l33 -74c5 -11 10 -26 10 -35c0 -14 -13 -21 -48 -21z" />
    <glyph glyph-name="Wacute" unicode="&#x1e82;" horiz-adv-x="802" 
d="M214 0c-66 0 -90 5 -98 47l-98 512c-2 13 -4 26 -4 35c0 20 8 27 56 27c50 0 63 -6 66 -33l80 -481h12l95 467c6 32 27 37 78 37s71 -5 78 -37l96 -467h11l80 481c3 27 16 33 66 33c48 0 56 -7 56 -27c0 -9 -2 -22 -3 -35l-98 -512c-8 -42 -33 -47 -99 -47
c-64 0 -89 8 -98 50l-84 401h-10l-83 -401c-9 -42 -34 -50 -99 -50zM393 665c-35 0 -48 7 -48 21c0 9 6 24 11 35l33 74c15 33 17 38 69 38c51 0 60 -11 60 -27c0 -10 -6 -23 -14 -37l-44 -74c-12 -20 -18 -30 -67 -30z" />
    <glyph glyph-name="wacute" unicode="&#x1e83;" horiz-adv-x="709" 
d="M191 0c-66 0 -85 8 -92 42l-75 375c-4 19 -5 34 -5 43c0 25 6 33 58 33c51 0 61 -5 64 -35l60 -354h11l70 342c6 30 22 37 73 37c50 0 66 -7 72 -37l70 -342h11l60 354c5 30 14 35 65 35s57 -8 57 -33c0 -9 -1 -24 -5 -43l-75 -375c-7 -34 -25 -42 -91 -42
c-71 0 -95 8 -102 42l-58 272h-8l-59 -272c-7 -34 -31 -42 -101 -42zM330 539c-35 0 -48 7 -48 21c0 9 6 24 11 35l33 74c15 33 17 38 69 38c51 0 60 -11 60 -27c0 -10 -6 -23 -14 -37l-44 -74c-12 -20 -18 -30 -67 -30z" />
    <glyph glyph-name="Wdieresis" unicode="&#x1e84;" horiz-adv-x="802" 
d="M214 0c-66 0 -90 5 -98 47l-98 512c-2 13 -4 26 -4 35c0 20 8 27 56 27c50 0 63 -6 66 -33l80 -481h12l95 467c6 32 27 37 78 37s71 -5 78 -37l96 -467h11l80 481c3 27 16 33 66 33c48 0 56 -7 56 -27c0 -9 -2 -22 -3 -35l-98 -512c-8 -42 -33 -47 -99 -47
c-64 0 -89 8 -98 50l-84 401h-10l-83 -401c-9 -42 -34 -50 -99 -50zM318 684c-52 0 -60 8 -60 43v16c0 36 8 43 60 43s60 -7 60 -43v-16c0 -35 -8 -43 -60 -43zM485 684c-52 0 -59 8 -59 43v16c0 36 7 43 59 43s60 -7 60 -43v-16c0 -35 -8 -43 -60 -43z" />
    <glyph glyph-name="wdieresis" unicode="&#x1e85;" horiz-adv-x="709" 
d="M191 0c-66 0 -85 8 -92 42l-75 375c-4 19 -5 34 -5 43c0 25 6 33 58 33c51 0 61 -5 64 -35l60 -354h11l70 342c6 30 22 37 73 37c50 0 66 -7 72 -37l70 -342h11l60 354c5 30 14 35 65 35s57 -8 57 -33c0 -9 -1 -24 -5 -43l-75 -375c-7 -34 -25 -42 -91 -42
c-71 0 -95 8 -102 42l-58 272h-8l-59 -272c-7 -34 -31 -42 -101 -42zM271 553c-52 0 -60 8 -60 43v16c0 36 8 43 60 43s60 -7 60 -43v-16c0 -35 -8 -43 -60 -43zM438 553c-52 0 -59 8 -59 43v16c0 36 7 43 59 43s60 -7 60 -43v-16c0 -35 -8 -43 -60 -43z" />
    <glyph glyph-name="Eszett" unicode="&#x1e9e;" horiz-adv-x="507" 
d="M102 0c-45 0 -58 5 -58 34v429c0 116 49 165 201 165c47 0 108 -10 144 -21c36 -12 54 -26 54 -52c0 -18 -5 -36 -14 -54l-78 -151l66 -66c44 -49 66 -76 66 -142c0 -104 -52 -147 -155 -147c-33 0 -72 6 -98 13c-21 5 -28 14 -28 55c0 39 7 45 18 45c15 0 43 -9 79 -9
c52 0 64 17 64 55c0 24 -9 40 -28 58l-68 67c-17 16 -26 33 -26 53c0 14 4 29 12 46l71 140c-15 6 -51 11 -81 11c-75 0 -83 -19 -83 -61v-434c0 -29 -13 -34 -58 -34z" />
    <glyph glyph-name="Ygrave" unicode="&#x1ef2;" horiz-adv-x="474" 
d="M237 0c-45 0 -58 5 -58 34v194l-150 320c-13 27 -15 38 -15 46c0 14 8 27 51 27c57 0 65 -6 76 -33l94 -239h5l93 239c11 28 18 33 74 33c46 0 54 -12 54 -26c0 -7 -3 -20 -16 -47l-150 -320v-194c0 -29 -13 -34 -58 -34zM256 665c-49 0 -55 10 -67 30l-43 74
c-9 15 -15 31 -15 42c0 15 9 22 60 22c53 0 57 -8 70 -38l33 -74c5 -11 10 -26 10 -35c0 -14 -13 -21 -48 -21z" />
    <glyph glyph-name="ygrave" unicode="&#x1ef3;" horiz-adv-x="471" 
d="M19 463c0 18 6 30 60 30c47 0 57 -5 63 -30l86 -366h11l90 366c6 25 16 30 62 30c53 0 62 -10 62 -29c0 -9 -2 -26 -16 -73l-125 -426c-35 -121 -61 -161 -167 -161c-36 0 -74 6 -97 14c-18 6 -27 14 -27 48c0 35 7 47 21 47c12 0 40 -9 90 -9c52 0 62 12 73 54l10 42
c-59 0 -73 14 -84 53l-94 325c-18 61 -18 76 -18 85zM258 539c-49 0 -55 10 -67 30l-43 74c-9 15 -15 31 -15 42c0 15 9 22 60 22c53 0 57 -8 70 -38l33 -74c5 -11 10 -26 10 -35c0 -14 -13 -21 -48 -21z" />
    <glyph glyph-name="endash" unicode="&#x2013;" horiz-adv-x="422" 
d="M30 257c0 42 5 51 31 51h300c26 0 31 -9 31 -51s-5 -51 -31 -51h-300c-26 0 -31 9 -31 51z" />
    <glyph glyph-name="emdash" unicode="&#x2014;" horiz-adv-x="670" 
d="M30 257c0 42 5 51 31 51h548c26 0 31 -9 31 -51s-5 -51 -31 -51h-548c-26 0 -31 9 -31 51z" />
    <glyph glyph-name="afii00208" unicode="&#x2015;" horiz-adv-x="670" 
d="M30 257c0 42 5 51 31 51h548c26 0 31 -9 31 -51s-5 -51 -31 -51h-548c-26 0 -31 9 -31 51z" />
    <glyph glyph-name="quoteleft" unicode="&#x2018;" horiz-adv-x="198" 
d="M91 405c-50 0 -59 7 -59 42v27c0 31 8 60 18 91l15 49c14 35 23 41 63 41c29 0 35 -6 35 -20c0 -22 -13 -79 -13 -126v-62c0 -35 -8 -42 -59 -42z" />
    <glyph glyph-name="quoteright" unicode="&#x2019;" horiz-adv-x="198" 
d="M107 655c51 0 59 -7 59 -42v-27c0 -31 -6 -60 -17 -91l-16 -49c-14 -35 -22 -41 -63 -41c-29 0 -35 7 -35 20c0 22 13 79 13 126v62c0 35 9 42 59 42z" />
    <glyph glyph-name="quotesinglbase" unicode="&#x201a;" horiz-adv-x="176" 
d="M89 122c51 0 59 -8 59 -43v-27c0 -32 -6 -60 -17 -92l-16 -48c-12 -37 -22 -42 -63 -42c-29 0 -35 7 -35 21c0 21 13 78 13 126v62c0 35 9 43 59 43z" />
    <glyph glyph-name="quotedblleft" unicode="&#x201c;" horiz-adv-x="370" 
d="M91 405c-50 0 -59 7 -59 42v27c0 31 8 60 18 91l15 49c14 35 23 41 63 41c29 0 35 -6 35 -20c0 -22 -13 -79 -13 -126v-62c0 -35 -8 -42 -59 -42zM263 405c-51 0 -59 7 -59 42v27c0 31 7 60 17 91l15 49c14 35 23 41 63 41c30 0 35 -6 35 -20c0 -22 -12 -79 -12 -126v-62
c0 -35 -9 -42 -59 -42z" />
    <glyph glyph-name="quotedblright" unicode="&#x201d;" horiz-adv-x="370" 
d="M278 655c51 0 59 -7 59 -42v-27c0 -31 -7 -60 -17 -91l-15 -49c-14 -35 -23 -41 -63 -41c-30 0 -36 7 -36 20c0 22 13 79 13 126v62c0 35 9 42 59 42zM107 655c51 0 59 -7 59 -42v-27c0 -31 -6 -60 -17 -91l-16 -49c-14 -35 -22 -41 -63 -41c-29 0 -35 7 -35 20
c0 22 13 79 13 126v62c0 35 9 42 59 42z" />
    <glyph glyph-name="quotedblbase" unicode="&#x201e;" horiz-adv-x="347" 
d="M89 122c51 0 59 -8 59 -43v-27c0 -32 -6 -60 -17 -92l-16 -48c-12 -37 -22 -42 -63 -42c-29 0 -35 7 -35 21c0 21 13 78 13 126v62c0 35 9 43 59 43zM260 122c51 0 59 -8 59 -43v-27c0 -32 -6 -60 -17 -92l-15 -48c-14 -36 -23 -42 -63 -42c-30 0 -36 7 -36 21
c0 21 13 78 13 126v62c0 35 9 43 59 43z" />
    <glyph glyph-name="dagger" unicode="&#x2020;" horiz-adv-x="439" 
d="M220 -189c-43 0 -57 4 -57 31v475h-108c-26 0 -31 8 -31 50s5 50 31 50h108v133c0 26 14 31 57 31c42 0 57 -5 57 -31v-133h107c26 0 31 -8 31 -50s-5 -50 -31 -50h-107v-475c0 -27 -15 -31 -57 -31z" />
    <glyph glyph-name="daggerdbl" unicode="&#x2021;" horiz-adv-x="439" 
d="M220 -189c-43 0 -57 4 -57 31v132h-108c-26 0 -31 8 -31 50s5 50 31 50h108v243h-108c-26 0 -31 8 -31 50s5 50 31 50h108v133c0 26 14 31 57 31c42 0 57 -5 57 -31v-133h107c26 0 31 -8 31 -50s-5 -50 -31 -50h-107v-243h107c26 0 31 -8 31 -50s-5 -50 -31 -50h-107
v-132c0 -27 -15 -31 -57 -31z" />
    <glyph glyph-name="bullet" unicode="&#x2022;" horiz-adv-x="322" 
d="M161 136c-99 0 -131 28 -131 135c0 112 32 133 131 133c98 0 131 -21 131 -133c0 -107 -33 -135 -131 -135z" />
    <glyph glyph-name="ellipsis" unicode="&#x2026;" horiz-adv-x="578" 
d="M95 0c-51 0 -60 7 -60 43v36c0 36 9 43 60 43c50 0 60 -7 60 -43v-36c0 -36 -10 -43 -60 -43zM290 0c-51 0 -61 7 -61 43v36c0 36 10 43 61 43c50 0 60 -7 60 -43v-36c0 -36 -10 -43 -60 -43zM484 0c-50 0 -60 7 -60 43v36c0 36 10 43 60 43c51 0 61 -7 61 -43v-36
c0 -36 -10 -43 -61 -43z" />
    <glyph glyph-name="perthousand" unicode="&#x2030;" horiz-adv-x="803" 
d="M143 335c-100 0 -123 28 -123 144s28 142 123 142s122 -26 122 -142c0 -35 -2 -62 -8 -82l118 201c10 17 19 23 63 23c29 0 40 -5 40 -17c0 -7 -2 -14 -13 -32l-180 -309c19 17 49 23 93 23c95 0 123 -25 123 -142c0 -116 -23 -144 -123 -144s-122 28 -122 144
c0 36 2 63 9 83l-119 -204c-10 -17 -20 -23 -63 -23c-29 0 -40 5 -40 16c0 8 2 15 12 33l179 307c-19 -16 -47 -21 -91 -21zM660 0c-100 0 -122 28 -122 144c0 117 28 142 122 142c95 0 123 -25 123 -142c0 -116 -23 -144 -123 -144zM143 404c37 0 41 12 41 73
c0 62 -4 74 -41 74c-38 0 -41 -12 -41 -74c0 -61 4 -73 41 -73zM378 70c37 0 41 12 41 73c0 62 -3 73 -41 73c-37 0 -41 -11 -41 -73c0 -61 4 -73 41 -73zM660 70c37 0 41 12 41 73c0 62 -3 73 -41 73c-37 0 -41 -11 -41 -73c0 -61 4 -73 41 -73z" />
    <glyph glyph-name="guilsinglleft" unicode="&#x2039;" horiz-adv-x="320" 
d="M142 255v-8l122 -91c23 -18 27 -25 27 -73c0 -33 -8 -39 -20 -39c-7 0 -15 4 -23 9l-177 112c-30 19 -42 29 -42 86c0 58 12 68 42 87l177 112c8 5 16 9 23 9c12 0 20 -7 20 -40c0 -47 -4 -54 -27 -72z" />
    <glyph glyph-name="guilsinglright" unicode="&#x203a;" horiz-adv-x="320" 
d="M291 251c0 -57 -12 -67 -42 -86l-176 -112c-8 -5 -17 -9 -24 -9c-11 0 -20 6 -20 39c0 48 4 55 28 73l121 91v8l-121 92c-24 18 -28 25 -28 72c0 33 9 40 20 40c7 0 16 -4 24 -9l176 -112c30 -19 42 -29 42 -87z" />
    <glyph glyph-name="fraction" unicode="&#x2044;" 
d="M343 631c30 0 39 -4 39 -17c0 -7 -2 -16 -8 -32l-203 -554c-7 -21 -17 -28 -53 -28c-31 0 -39 4 -39 16c0 8 1 17 7 33l204 554c8 21 16 28 53 28z" />
    <glyph glyph-name="Euro" unicode="&#x20ac;" 
d="M332 277c0 -7 -7 -33 -12 -48c-4 -11 -9 -12 -16 -12h-122c3 -112 29 -122 111 -122c67 0 104 16 121 16c14 0 18 -4 18 -46s-8 -48 -24 -53c-39 -12 -92 -19 -145 -19c-106 0 -184 19 -192 224h-41c-9 0 -13 3 -13 10s8 33 13 48c4 11 9 13 16 13h25v52h-41
c-9 0 -13 4 -13 10c0 8 8 34 13 48c4 11 9 13 16 13h26c10 197 90 215 194 215c51 0 103 -8 142 -19c16 -5 24 -10 24 -54c0 -40 -6 -45 -18 -45c-14 0 -58 15 -121 15c-84 0 -107 -12 -111 -112h160c9 0 12 -4 12 -11s-7 -33 -12 -48c-4 -10 -9 -12 -16 -12h-144v-52h138
c9 0 12 -4 12 -11z" />
    <glyph glyph-name="hryvnia" unicode="&#x20b4;" 
d="M46 367c0 32 6 37 28 37h166l23 26c20 22 31 43 31 62c0 24 -17 30 -76 30c-62 0 -124 -14 -139 -14c-13 0 -20 9 -20 46c0 43 8 49 25 54c39 11 114 18 159 18c98 0 156 -19 156 -107c0 -41 -19 -77 -48 -115h33c23 0 29 -5 29 -37c0 -33 -6 -37 -29 -37h-95l-32 -38
h127c23 0 29 -5 29 -38c0 -32 -6 -37 -29 -37h-191c-33 -38 -40 -56 -40 -79c0 -33 28 -42 100 -42c71 0 124 13 144 13c13 0 19 -5 19 -44c0 -41 -6 -49 -26 -54c-39 -11 -102 -18 -164 -18c-115 0 -178 26 -178 128c0 35 13 65 34 96h-8c-22 0 -28 5 -28 37
c0 33 6 38 28 38h70l33 38h-103c-22 0 -28 4 -28 37z" />
    <glyph glyph-name="afii61352" unicode="&#x2116;" horiz-adv-x="908" 
d="M574 132c0 42 5 51 31 51h219c26 0 31 -9 31 -51s-5 -51 -31 -51h-219c-26 0 -31 9 -31 51zM710 247c-101 0 -150 23 -150 186c0 171 50 193 163 193c101 0 151 -21 151 -184c0 -171 -50 -195 -164 -195zM712 325c54 0 66 13 66 109c0 105 -14 115 -58 115
c-53 0 -65 -12 -65 -108c0 -105 13 -116 57 -116zM104 0c-45 0 -58 5 -58 34v553c0 29 14 34 69 34c40 0 58 -3 74 -33l177 -382h9v381c0 29 13 34 58 34s58 -5 58 -34v-553c0 -29 -11 -34 -67 -34c-40 0 -52 3 -69 32l-184 383h-9v-381c0 -29 -13 -34 -58 -34z" />
    <glyph glyph-name="trademark" unicode="&#x2122;" horiz-adv-x="811" 
d="M176 264c-44 0 -51 5 -51 34v234h-70c-23 0 -31 3 -31 44c0 42 8 45 31 45h242c24 0 31 -3 31 -45c0 -41 -7 -44 -31 -44h-69v-234c0 -29 -7 -34 -52 -34zM426 261c-44 0 -51 5 -51 34v285c0 34 8 41 76 41c57 0 71 -5 86 -47l43 -126l44 126c15 43 29 47 86 47
c68 0 76 -7 76 -41v-285c0 -29 -7 -34 -51 -34s-51 5 -51 34c0 64 1 129 1 192h-7l-46 -124c-12 -32 -18 -38 -52 -38c-33 0 -39 6 -51 38l-46 124h-8c1 -63 2 -128 2 -192c0 -29 -7 -34 -51 -34z" />
    <glyph glyph-name="minus" unicode="&#x2212;" 
d="M84 257c0 42 5 51 31 51h236c26 0 31 -9 31 -51s-5 -51 -31 -51h-236c-26 0 -31 9 -31 51z" />
    <glyph glyph-name="ruble" 
d="M133 0c-45 0 -58 5 -58 34v109h-31c-23 0 -29 4 -29 37s6 37 29 37h31v47h-31c-23 0 -29 4 -29 37c0 32 6 37 29 37h31v240c0 28 11 36 35 39c43 5 92 9 147 9c142 0 182 -25 182 -165c0 -154 -48 -197 -201 -197h-47v-47h155c22 0 28 -4 28 -37s-6 -37 -28 -37h-155
v-109c0 -29 -13 -34 -58 -34zM191 536v-198h46c76 0 90 28 90 112c0 76 -6 90 -78 90c-20 0 -41 -2 -58 -4z" />
    </font>
</defs>
</svg>
