<?xml version="1.0" standalone="no"?>
<!DOCTYPE svg PUBLIC "-//W3C//DTD SVG 1.1//EN" "http://www.w3.org/Graphics/SVG/1.1/DTD/svg11.dtd" >
<svg xmlns="http://www.w3.org/2000/svg" xmlns:xlink="http://www.w3.org/1999/xlink" version="1.1">
<metadata>
Created by FontForge 20161116 at Wed Feb 24 11:26:26 2016
 By Jimmy Warting
Copyright (c) 2010-2012 by The Entente (AS&#38;EH). All rights reserved.
</metadata>
<defs>
<font id="ApercuPro-Bold" horiz-adv-x="532" >
  <font-face 
    font-family="Apercu Pro"
    font-weight="700"
    font-stretch="normal"
    units-per-em="2048"
    panose-1="2 0 8 3 4 0 0 2 0 4"
    ascent="1638"
    descent="-410"
    x-height="1032"
    cap-height="1434"
    bbox="-100 -545 2015 1878"
    underline-thickness="102"
    underline-position="-204"
    unicode-range="U+000A-25FC"
  />
<missing-glyph horiz-adv-x="748" 
d="M68 0v1365h544v-1365h-544zM136 68h408v1229h-408v-1229z" />
    <glyph glyph-name=".notdef" horiz-adv-x="748" 
d="M68 0v1365h544v-1365h-544zM136 68h408v1229h-408v-1229z" />
    <glyph glyph-name="glyph1" horiz-adv-x="0" 
 />
    <glyph glyph-name="uni000D" unicode="&#xd;" horiz-adv-x="507" 
 />
    <glyph glyph-name="glyph3" horiz-adv-x="0" 
 />
    <glyph glyph-name="glyph3" horiz-adv-x="0" 
 />
    <glyph glyph-name="uni000A" unicode="&#xa;" horiz-adv-x="681" 
 />
    <glyph glyph-name="space" unicode=" " horiz-adv-x="507" 
 />
    <glyph glyph-name="exclam" unicode="!" horiz-adv-x="737" 
d="M205 156q0 72 50.5 122t119.5 50q68 0 119 -51t51 -121t-49.5 -119t-120.5 -49t-120.5 49t-49.5 119zM207 1434h336l-58 -938h-221z" />
    <glyph glyph-name="quotedbl" unicode="&#x22;" horiz-adv-x="1005" 
d="M164 1450h289l-64 -510h-162zM553 1450h289l-64 -510h-162z" />
    <glyph glyph-name="numbersign" unicode="#" horiz-adv-x="1507" 
d="M133 395v201h275l49 242h-242v200h283l82 396h204l-82 -396h234l80 396h205l-80 -396h233v-200h-274l-49 -242h241v-201h-282l-82 -395h-205l82 395h-234l-79 -395h-205l80 395h-234zM612 596h234l49 242h-233z" />
    <glyph glyph-name="dollar" unicode="$" horiz-adv-x="1099" 
d="M72 385l215 135q82 -291 284 -291q187 0 187 187q0 62 -62 112q-35 29 -96 61t-116.5 56.5t-116.5 64t-105 83.5t-73 114t-29 156q0 133 76.5 236t203.5 137v182h250v-186q187 -53 275 -242l-215 -137q-76 149 -197 149q-60 0 -99.5 -36t-39.5 -95q0 -114 215 -213
q41 -19 60.5 -28t59.5 -29t61.5 -34t55 -38t52.5 -44.5t42 -50t35 -59t20.5 -67t8.5 -78.5q0 -173 -89.5 -286t-246.5 -146v-180h-250v182q-139 33 -238.5 139t-127.5 246z" />
    <glyph glyph-name="percent" unicode="%" horiz-adv-x="1716" 
d="M106 1122q0 139 96 233.5t240 94.5q145 0 240.5 -94.5t95.5 -233.5t-95.5 -233t-240.5 -94q-144 0 -240 94t-96 233zM240 41l1101 1468l148 -114l-1102 -1475zM315 1120q0 -58 34 -95.5t93 -37.5t93 37.5t34 95.5t-34 95.5t-93 37.5t-93 -37.5t-34 -95.5zM938 309
q0 139 95.5 233.5t240.5 94.5q144 0 240 -94.5t96 -233.5t-96 -233t-240 -94q-145 0 -240.5 94t-95.5 233zM1147 307q0 -58 34 -95.5t93 -37.5t93 37.5t34 95.5t-34 95.5t-93 37.5q-60 0 -93.5 -36t-33.5 -95v-2z" />
    <glyph glyph-name="ampersand" unicode="&#x26;" horiz-adv-x="1425" 
d="M135 422h2q0 143 74.5 257t198.5 185q-101 138 -101 281q0 129 94 217t240 88q148 0 241 -84t93 -203q0 -117 -65 -213t-169 -149l236 -312q56 106 104 261l148 -175q-37 -153 -109 -276l232 -299h-301l-84 113q-161 -127 -379 -127q-199 0 -327 118.5t-128 317.5z
M383 426q0 -89 59 -149t152 -60q131 0 233 82l-288 383q-156 -92 -156 -256zM535 1126q0 -76 63 -157q145 67 145 166q0 44 -28 71t-72 27q-46 0 -76 -29.5t-30 -75.5z" />
    <glyph glyph-name="quotesingle" unicode="'" horiz-adv-x="616" 
d="M164 1450h289l-64 -510h-162z" />
    <glyph glyph-name="parenleft" unicode="(" horiz-adv-x="614" 
d="M129 717q0 195 37 356q23 110 49 188t48.5 123.5t80.5 151.5h219q-186 -338 -186 -817q0 -270 42.5 -451t143.5 -368h-219q-64 117 -104 211q-43 97 -76 264t-33 342h-2z" />
    <glyph glyph-name="parenright" unicode=")" horiz-adv-x="614" 
d="M45 -104q103 192 147 371.5t44 447.5q0 473 -189 819h219q52 -94 107 -211q43 -96 75.5 -264t32.5 -344q0 -203 -32 -355q-18 -84 -33.5 -139.5t-42.5 -116t-42 -89.5t-63 -117h-219z" />
    <glyph glyph-name="asterisk" unicode="*" horiz-adv-x="995" 
d="M102 1090l68 202l223 -73v231h209v-231l223 73l68 -202l-223 -76l137 -187l-174 -129l-135 191l-136 -191l-174 129l138 187z" />
    <glyph glyph-name="plus" unicode="+" horiz-adv-x="1196" 
d="M113 539v221h376v377h222v-377h376v-221h-376v-377h-222v377h-376z" />
    <glyph glyph-name="comma" unicode="," horiz-adv-x="743" 
d="M117 -319l153 618h342l-317 -618h-178z" />
    <glyph glyph-name="hyphen" unicode="-" horiz-adv-x="1030" 
d="M133 539v221h764v-221h-764z" />
    <glyph glyph-name="period" unicode="." horiz-adv-x="671" 
d="M164 158q0 74 49.5 124t122.5 50t122.5 -50t49.5 -122q0 -74 -49 -123t-123 -49t-123 49t-49 123v-2z" />
    <glyph glyph-name="slash" unicode="/" horiz-adv-x="1126" 
d="M16 -102l893 1638h246l-893 -1638h-246z" />
    <glyph glyph-name="zero" unicode="0" horiz-adv-x="1310" 
d="M127 715q0 347 136.5 541t389.5 194t392 -193.5t139 -539.5q0 -347 -138.5 -540t-392.5 -193q-252 0 -389 193.5t-137 539.5v-2zM379 715q0 -496 274 -496q275 0 275 496q0 493 -275 493q-272 0 -272 -493h-2z" />
    <glyph glyph-name="one" unicode="1" horiz-adv-x="847" 
d="M139 909v279l420 246h113v-1434h-258v1073z" />
    <glyph glyph-name="two" unicode="2" horiz-adv-x="1185" 
d="M127 0v100l512 664q111 138 111 260q0 89 -46 138.5t-131 49.5q-78 0 -126 -49t-60 -139l-235 45q11 164 133 272.5t299 108.5q198 0 313 -114t115 -302q0 -181 -123 -340l-350 -456h503v-238h-915z" />
    <glyph glyph-name="three" unicode="3" horiz-adv-x="1206" 
d="M115 397l247 31q53 -209 234 -209q100 0 162.5 67t62.5 175q0 119 -62 186.5t-163 67.5q-69 0 -125 -33l-102 143l270 371h-457v240h822v-93l-338 -454q50 4 57 4q163 0 259.5 -118.5t96.5 -309.5q0 -217 -136.5 -349t-348.5 -132q-194 0 -327 115.5t-152 297.5z" />
    <glyph glyph-name="four" unicode="4" horiz-adv-x="1259" 
d="M121 266v131l604 1037h270v-930h160v-238h-160v-266h-258v266h-616zM434 504h303v547z" />
    <glyph glyph-name="five" unicode="5" horiz-adv-x="1193" 
d="M147 375l244 43q40 -199 215 -199q104 0 158.5 65.5t54.5 188.5q0 122 -57.5 186t-165.5 64q-139 0 -256 -129l-162 33l80 807h737v-240h-526l-33 -299q85 53 203 53q214 0 326 -126t112 -349q0 -218 -129 -353.5t-342 -135.5q-184 0 -313 108.5t-146 282.5z" />
    <glyph glyph-name="six" unicode="6" horiz-adv-x="1214" 
d="M143 451q0 130 70 249l418 750h287l-312 -532h33q199 0 331 -131.5t132 -335.5q0 -199 -138 -333t-341 -134q-132 0 -242 61t-174 168t-64 238zM401 449q0 -100 64.5 -165t159.5 -65t158 64t63 166q0 105 -63 168t-160 63t-159.5 -62.5t-62.5 -166.5v-2z" />
    <glyph glyph-name="seven" unicode="7" horiz-adv-x="1017" 
d="M100 1196v238h869v-107l-541 -1327h-254l490 1196h-564z" />
    <glyph glyph-name="eight" unicode="8" horiz-adv-x="1216" 
d="M139 426q0 238 191 346q-133 103 -133 287q0 165 116.5 278t294.5 113t295 -113t117 -276q0 -181 -135 -289q190 -105 190 -344q0 -131 -63.5 -233t-169.5 -155.5t-234 -53.5t-234 53.5t-169.5 155.5t-63.5 233zM397 424q0 -95 59.5 -151t151.5 -56q91 0 150 57t59 152
q0 94 -59 150.5t-150 56.5q-92 0 -151.5 -56t-59.5 -151v-2zM434 1051q0 -83 47.5 -134t124.5 -51q78 0 125 51t47 134q0 79 -46.5 128.5t-125.5 49.5q-77 0 -124.5 -49.5t-47.5 -128.5z" />
    <glyph glyph-name="nine" unicode="9" horiz-adv-x="1214" 
d="M143 983q0 199 139 333t343 134q132 0 242 -61t173.5 -168t63.5 -238q0 -133 -70 -252l-418 -747h-286l311 532h-33q-199 0 -331 131.5t-132 335.5h-2zM401 981q0 -104 62.5 -165.5t159.5 -61.5t160 62.5t63 166.5q0 99 -64 163t-157 64q-95 0 -159.5 -63.5t-64.5 -163.5
v-2z" />
    <glyph glyph-name="colon" unicode=":" horiz-adv-x="692" 
d="M168 158q0 74 49.5 124t122.5 50t122.5 -50t49.5 -122q0 -74 -49 -123t-123 -49t-123 49t-49 123v-2zM168 874q0 72 49.5 122.5t122.5 50.5t122.5 -49.5t49.5 -123.5t-49 -123t-123 -49t-123 49t-49 123z" />
    <glyph glyph-name="semicolon" unicode=";" horiz-adv-x="692" 
d="M25 -319l153 618h342l-317 -618h-178zM166 874q0 74 49.5 124.5t122.5 50.5q74 0 123 -49.5t49 -122.5t-49 -122.5t-123 -49.5t-123 49.5t-49 122.5v-3z" />
    <glyph glyph-name="less" unicode="&#x3c;" horiz-adv-x="997" 
d="M92 516v238l801 417v-268l-516 -268l516 -268v-269z" />
    <glyph glyph-name="equal" unicode="=" horiz-adv-x="1263" 
d="M184 340v221h895v-221h-895zM184 709v221h895v-221h-895z" />
    <glyph glyph-name="greater" unicode="&#x3e;" horiz-adv-x="997" 
d="M104 98v269l517 268l-517 268v268l801 -417v-238z" />
    <glyph glyph-name="question" unicode="?" horiz-adv-x="942" 
d="M82 1139q27 138 131.5 224.5t261.5 86.5q171 0 275 -88.5t104 -235.5q0 -113 -62 -175.5t-219 -123.5q-105 -42 -139.5 -68t-34.5 -67q0 -32 20.5 -50.5t53.5 -18.5q83 0 117 94l180 -70q-34 -98 -112 -154.5t-185 -56.5q-125 0 -204 73.5t-79 188.5q0 183 222 269
q119 43 160.5 78.5t41.5 89.5q0 50 -35.5 76t-95.5 26q-134 0 -174 -137l-223 37zM299 158q0 70 50.5 121t119.5 51t119.5 -51.5t50.5 -120.5q0 -70 -49.5 -120t-120.5 -50t-120.5 50t-49.5 120z" />
    <glyph glyph-name="at" unicode="@" horiz-adv-x="1855" 
d="M123 616l2 -6q0 254 108 449t301.5 301t442.5 106q369 0 575.5 -203.5t206.5 -543.5q0 -224 -108 -363t-283 -139q-74 0 -135.5 40t-85.5 99q-117 -141 -277 -141q-167 0 -264.5 107t-97.5 280q0 124 53.5 227t155.5 164.5t233 61.5q123 0 213 -78l23 61h170l-41 -446
l-4 -60q0 -106 80 -106q122 0 122 295q0 260 -146.5 399.5t-399.5 139.5q-243 0 -420 -168q-176 -167 -176 -478q0 -143 51.5 -260t136.5 -189.5t190 -111.5t216 -39q79 0 130.5 4t149 31t205.5 80l80 -199q-145 -69 -271 -96t-294 -27q-376 0 -609 230q-233 227 -233 579z
M741 592q0 -166 150 -166q91 0 153 71t62 175q0 82 -44 127t-124 45q-81 0 -138 -70t-57 -182h-2z" />
    <glyph glyph-name="A" unicode="A" horiz-adv-x="1257" 
d="M10 0l486 1434h266l485 -1434h-286l-105 338h-455l-104 -338h-287zM477 584h303l-151 497z" />
    <glyph glyph-name="B" unicode="B" horiz-adv-x="1277" 
d="M184 0v1434h525q190 0 299.5 -100t109.5 -287q0 -89 -37 -160.5t-104 -104.5q215 -89 215 -352q0 -205 -125.5 -317.5t-347.5 -112.5h-535zM451 246l243 2q232 0 232 190q0 193 -232 193h-243v-385zM453 879l243 -2q86 0 127 36t41 119q0 85 -42.5 121.5t-133.5 36.5
h-235v-311z" />
    <glyph glyph-name="C" unicode="C" horiz-adv-x="1433" 
d="M96 717q0 339 199 538q198 195 479 195q231 0 386 -114t206 -320l-240 -64q-91 250 -354 250q-180 0 -292.5 -127t-112.5 -358t114 -359.5t293 -128.5q260 0 354 250l240 -61q-51 -207 -206 -320.5t-388 -113.5q-285 0 -479 194q-197 194 -197 539h-2z" />
    <glyph glyph-name="D" unicode="D" horiz-adv-x="1398" 
d="M182 1434h449q136 0 255.5 -45.5t212.5 -132.5t147 -226t54 -313q0 -144 -36 -263.5t-99 -202t-148 -140t-181.5 -84.5t-202.5 -27h-449zM449 246l98 2q79 1 146 14t130 46.5t107.5 85.5t71 135t26.5 190q0 108 -27.5 191t-72.5 134.5t-108.5 84.5t-130 46t-142.5 13h-98
v-942z" />
    <glyph glyph-name="E" unicode="E" horiz-adv-x="1177" 
d="M184 0v1434h887v-246h-620v-301h497v-246h-497v-395h641v-246h-908z" />
    <glyph glyph-name="F" unicode="F" horiz-adv-x="1150" 
d="M184 0v1434h908v-246h-641v-328h516v-246h-516v-614h-267z" />
    <glyph glyph-name="G" unicode="G" horiz-adv-x="1499" 
d="M96 721q0 349 199 539q198 192 483 192q225 0 381.5 -123t214.5 -332l-244 -61q-111 268 -352 268q-186 0 -297.5 -126.5t-111.5 -358.5q0 -241 110 -365.5t295 -124.5q139 0 222.5 79t99.5 196h-267v221h525v-725h-224l-22 156q-114 -170 -348 -170q-276 0 -469 190
q-193 193 -193 541z" />
    <glyph glyph-name="H" unicode="H" horiz-adv-x="1474" 
d="M184 0v1434h267v-545h573v545h266v-1434h-266v643h-573v-643h-267z" />
    <glyph glyph-name="I" unicode="I" horiz-adv-x="634" 
d="M184 0v1434h267v-1434h-267z" />
    <glyph glyph-name="J" unicode="J" horiz-adv-x="1054" 
d="M4 354l262 54q35 -181 180 -181q93 0 142 58t49 188v961h266v-930q0 -275 -114.5 -397.5t-342.5 -122.5q-185 0 -302 98t-140 272z" />
    <glyph glyph-name="K" unicode="K" horiz-adv-x="1316" 
d="M184 0v1434h267v-533l489 533h328l-582 -641l623 -793h-338l-520 684v-684h-267z" />
    <glyph glyph-name="L" unicode="L" horiz-adv-x="1087" 
d="M184 0v1434h267v-1188h608v-246h-875z" />
    <glyph glyph-name="M" unicode="M" horiz-adv-x="1642" 
d="M184 0v1434h299l338 -895l338 895h299v-1434h-266v885l-274 -754h-193l-274 754v-885h-267z" />
    <glyph glyph-name="N" unicode="N" horiz-adv-x="1441" 
d="M184 0v1434h281l526 -947v947h266v-1434h-280l-526 946v-946h-267z" />
    <glyph glyph-name="O" unicode="O" horiz-adv-x="1548" 
d="M96 713q0 148 37 270t100.5 207t150 143.5t184.5 85.5t206 27q141 0 262 -46t214 -134t146.5 -230t53.5 -321q0 -148 -36.5 -270.5t-99.5 -207t-149 -142t-183.5 -84.5t-205.5 -27q-111 0 -211 28t-185.5 87.5t-148 145t-98 206.5t-35.5 266zM367 711q0 -235 113 -361.5
t292 -126.5t292.5 127t113.5 363q0 234 -113.5 360.5t-292.5 126.5t-291 -126t-112 -361z" />
    <glyph glyph-name="P" unicode="P" horiz-adv-x="1212" 
d="M184 0v1434h541q215 0 332 -118.5t117 -318.5t-117 -318t-332 -118h-274v-561h-267zM451 807l264 -2q188 0 188 190q0 193 -188 193h-264v-381z" />
    <glyph glyph-name="Q" unicode="Q" horiz-adv-x="1548" 
d="M98 715q0 147 37 269.5t100.5 207t150 143t185 86t205.5 27.5q140 0 261.5 -46.5t214.5 -135.5t146.5 -230t53.5 -319q0 -241 -96 -416l137 -133l-186 -184l-125 120q-166 -120 -400 -120q-141 0 -263 45t-217 133t-149.5 230.5t-54.5 324.5v-2zM367 713
q0 -234 113.5 -361t291.5 -127q127 0 219 62l-184 188l184 184l158 -157q31 91 31 211q0 234 -114 360.5t-294 126.5q-178 0 -290.5 -126t-112.5 -359z" />
    <glyph glyph-name="R" unicode="R" horiz-adv-x="1337" 
d="M182 1436h523q206 0 322 -111.5t116 -298.5q0 -143 -70 -245t-199 -140l398 -641h-297l-385 618h-139v-618h-267zM449 864h258q167 0 167 162q0 164 -167 164h-258v-326z" />
    <glyph glyph-name="S" unicode="S" horiz-adv-x="1099" 
d="M72 385l215 133q82 -291 284 -291q189 0 189 187q0 62 -62 112q-36 29 -97 61t-117 56.5t-117 64t-105 83.5t-73 114t-29 156q0 162 112.5 275.5t278.5 113.5q290 0 414 -260l-215 -137q-81 149 -197 149q-60 0 -99.5 -36.5t-39.5 -94.5q0 -116 215 -213
q157 -73 223 -121q172 -122 172 -309q0 -205 -125 -324.5t-334 -119.5q-184 0 -321.5 115t-171.5 286z" />
    <glyph glyph-name="T" unicode="T" horiz-adv-x="1093" 
d="M16 1188v246h1061v-246h-397v-1188h-266v1188h-398z" />
    <glyph glyph-name="U" unicode="U" horiz-adv-x="1343" 
d="M135 545v889h266v-893q0 -312 269 -312q268 0 268 312v893h266v-889q0 -274 -141 -417.5t-391 -143.5q-251 0 -393.5 143t-143.5 418z" />
    <glyph glyph-name="V" unicode="V" horiz-adv-x="1236" 
d="M2 1434h295l321 -1061l322 1061h295l-481 -1434h-271z" />
    <glyph glyph-name="W" unicode="W" horiz-adv-x="1884" 
d="M37 1434h282l240 -1055l268 903h230l268 -903l240 1055h282l-374 -1434h-271l-260 844l-260 -844h-270z" />
    <glyph glyph-name="X" unicode="X" horiz-adv-x="1212" 
d="M14 0l447 774l-379 660h291l233 -406l234 406h290l-378 -660l446 -774h-295l-297 518l-297 -518h-295z" />
    <glyph glyph-name="Y" unicode="Y" horiz-adv-x="1093" 
d="M0 1434h287l260 -557l260 557h287l-414 -824v-610h-266v610z" />
    <glyph glyph-name="Z" unicode="Z" horiz-adv-x="1142" 
d="M61 0v123l621 1065h-586v246h951v-123l-615 -1065h643v-246h-1014z" />
    <glyph glyph-name="bracketleft" unicode="[" horiz-adv-x="720" 
d="M184 -102v1638h471v-221h-225v-1196h225v-221h-471z" />
    <glyph glyph-name="backslash" unicode="\" horiz-adv-x="1126" 
d="M-29 1536h246l893 -1638h-246z" />
    <glyph glyph-name="bracketright" unicode="]" horiz-adv-x="720" 
d="M66 -102v221h225v1196h-225v221h471v-1638h-471z" />
    <glyph glyph-name="asciicircum" unicode="^" horiz-adv-x="1226" 
d="M104 825l400 609h219l399 -609h-245l-263 387l-264 -387h-246z" />
    <glyph glyph-name="underscore" unicode="_" horiz-adv-x="1034" 
d="M51 0h932v-221h-932v221z" />
    <glyph glyph-name="grave" unicode="`" 
d="M27 1450h344l131 -303h-195z" />
    <glyph glyph-name="a" unicode="a" horiz-adv-x="1052" 
d="M76 299q0 154 121.5 246t318.5 92h172v45q0 149 -176 149q-141 0 -180 -116l-215 49q25 129 132 208t261 79q434 0 434 -435v-616h-209l-26 131q-121 -145 -318 -145q-139 0 -226 82t-87 229zM342 303q0 -41 28.5 -69.5t78.5 -28.5q96 0 167.5 59.5t71.5 151.5v20h-170
q-176 0 -176 -133z" />
    <glyph glyph-name="b" unicode="b" horiz-adv-x="1226" 
d="M164 0v1448h254v-512q35 46 106 78.5t144 32.5q224 0 347.5 -143.5t123.5 -389.5q0 -245 -123.5 -387.5t-347.5 -142.5q-83 0 -154 37.5t-96 84.5v-106h-254zM393 512q0 -146 65.5 -229.5t172.5 -83.5q106 0 172.5 84.5t66.5 228.5q0 145 -66 230t-171 85
q-108 0 -173 -83t-65 -230z" />
    <glyph glyph-name="c" unicode="c" horiz-adv-x="1128" 
d="M88 516q0 233 134 383t370 150q350 0 467 -295l-228 -92q-81 167 -237 167q-118 0 -180 -85t-62 -230q0 -142 61.5 -227.5t176.5 -85.5q160 0 241 170l228 -92q-117 -295 -467 -295q-158 0 -273.5 70.5t-173 189.5t-57.5 272z" />
    <glyph glyph-name="d" unicode="d" horiz-adv-x="1226" 
d="M88 516q0 247 123.5 391t347.5 144q73 0 144 -33.5t106 -79.5v512h254v-1450h-254v106q-27 -48 -97.5 -85t-154.5 -37q-223 0 -346 143t-123 389zM354 516q0 -144 67 -229.5t173 -85.5t171.5 84t65.5 231q0 148 -65.5 231.5t-171.5 83.5t-173 -85t-67 -230z" />
    <glyph glyph-name="e" unicode="e" horiz-adv-x="1138" 
d="M86 514q0 80 18.5 156t58 145t96.5 120t140.5 81.5t182.5 30.5t181 -31.5t136.5 -82.5t92.5 -118.5t54.5 -137.5t16.5 -140v-105h-711q5 -98 71 -164.5t175 -66.5q156 0 248 157l205 -73q-129 -301 -467 -301q-101 0 -185.5 31.5t-141 83.5t-95.5 121t-56.5 143.5
t-17.5 152.5zM356 635h447q-43 194 -219 194q-89 0 -151.5 -55t-76.5 -139z" />
    <glyph glyph-name="f" unicode="f" horiz-adv-x="753" 
d="M66 815v217h131v53q0 179 93.5 272t262.5 93q115 0 192 -41l-55 -205q-72 29 -123 29q-116 0 -116 -129v-72h217v-217h-217v-815h-254v815h-131z" />
    <glyph glyph-name="g" unicode="g" horiz-adv-x="1054" 
d="M80 -94v-2q0 127 84 205q-53 59 -53 157q0 142 127 217q-72 87 -72 213q0 156 107.5 253.5t269.5 97.5q102 0 190 -46l195 103l100 -168l-147 -74q41 -74 41 -164q0 -155 -107 -249.5t-270 -94.5q-71 0 -152 23q-49 -27 -49 -78q0 -76 96 -76h211q168 0 266.5 -79
t98.5 -224q0 -74 -27 -134t-72.5 -100.5t-106.5 -68t-127 -39.5t-136 -12q-209 0 -338 89.5t-129 250.5zM313 -78h2q0 -70 63 -107.5t169 -37.5q215 0 215 127q0 104 -166 104h-139q-53 0 -119 8q-25 -31 -25 -94zM403 694q0 -61 41 -100t103 -39q61 0 101 39t40 100
q0 63 -40 104.5t-101 41.5t-102.5 -41t-41.5 -103v-2z" />
    <glyph glyph-name="h" unicode="h" horiz-adv-x="1214" 
d="M164 0v1450h254v-584q119 185 327 185q151 0 236.5 -81t85.5 -233v-737h-254v647q0 184 -154 184q-102 0 -171.5 -104t-69.5 -291v-436h-254z" />
    <glyph glyph-name="i" unicode="i" 
d="M102 1329q0 69 48 116.5t116 47.5q69 0 116.5 -48t47.5 -116q0 -69 -47.5 -117.5t-116.5 -48.5q-68 0 -116 48.5t-48 117.5zM139 0v1030h254v-1030h-254z" />
    <glyph glyph-name="j" unicode="j" 
d="M-100 -211v-2q126 33 181.5 100t55.5 201v944h254v-913q0 -241 -103 -371t-327 -182zM100 1327q0 69 48.5 116.5t117.5 47.5q68 0 115 -47.5t47 -116.5q0 -68 -47 -116t-115 -48q-69 0 -117.5 48t-48.5 116z" />
    <glyph glyph-name="k" unicode="k" horiz-adv-x="1099" 
d="M164 0v1450h254v-823l336 405h313l-414 -475l441 -557h-312l-364 487v-487h-254z" />
    <glyph glyph-name="l" unicode="l" horiz-adv-x="569" 
d="M160 0v1450h254v-1450h-254z" />
    <glyph glyph-name="m" unicode="m" horiz-adv-x="1773" 
d="M164 0v1032h254v-166q126 183 297 183q103 0 180.5 -55t108.5 -158q121 213 315 213q143 0 225 -85t82 -235v-729h-254v686q0 143 -127 143q-100 0 -161.5 -113t-61.5 -317v-399h-254v686q0 143 -127 143q-100 0 -161.5 -118t-61.5 -332v-379h-254z" />
    <glyph glyph-name="n" unicode="n" horiz-adv-x="1202" 
d="M166 0v1030h254v-166q128 185 317 185q145 0 231.5 -81.5t86.5 -230.5v-737h-254v662q0 167 -146 167q-101 0 -169 -113.5t-68 -303.5v-412h-252z" />
    <glyph glyph-name="o" unicode="o" horiz-adv-x="1224" 
d="M88 516q0 233 142.5 382t381.5 149q238 0 381.5 -149.5t143.5 -381.5t-143.5 -381t-381.5 -149q-239 0 -381.5 148.5t-142.5 381.5zM354 514q0 -134 70.5 -224.5t187.5 -90.5t187.5 90.5t70.5 224.5q0 136 -70.5 226.5t-187.5 90.5t-187.5 -90.5t-70.5 -226.5z" />
    <glyph glyph-name="p" unicode="p" horiz-adv-x="1226" 
d="M162 1030h254v-106q27 48 98 85.5t154 37.5q224 0 346.5 -143t122.5 -390q0 -245 -122.5 -387.5t-346.5 -142.5q-73 0 -144 32t-106 78v-512h-254zM391 512q0 -146 65.5 -229.5t172.5 -83.5q106 0 172.5 84.5t66.5 228.5q0 145 -66 230t-171 85q-108 0 -173 -83t-65 -230
z" />
    <glyph glyph-name="q" unicode="q" horiz-adv-x="1226" 
d="M86 516q0 247 123 391t346 144q84 0 154.5 -38t97.5 -85v104h254v-1450h-254v512q-35 -45 -106.5 -77.5t-143.5 -32.5q-223 0 -346 143t-123 389h-2zM350 516q0 -144 68 -229.5t174 -85.5q105 0 170 84t65 231q0 148 -65 231.5t-170 83.5q-106 0 -173 -85t-67 -230h-2z
" />
    <glyph glyph-name="r" unicode="r" horiz-adv-x="864" 
d="M166 0v1032h254v-168q56 90 134.5 138.5t170.5 48.5q51 0 125 -23l-47 -233q-50 26 -103 26q-129 0 -205.5 -111t-76.5 -343v-367h-252z" />
    <glyph glyph-name="s" unicode="s" horiz-adv-x="933" 
d="M74 262l194 105q62 -170 207 -170q127 0 127 110q0 45 -41 71t-141 60q-70 23 -117.5 47t-87.5 59.5t-59 84.5t-19 114q0 125 94.5 213t237.5 88q100 0 187 -45.5t139 -121.5l-154 -140q-69 90 -172 90q-40 0 -66 -23t-26 -63q0 -60 98 -100l76 -25q15 -5 35.5 -11.5
t32.5 -10.5t20 -8q29 -12 78 -42t67 -52q66 -80 66 -166q0 -143 -104.5 -242.5t-264.5 -99.5q-139 0 -249.5 81t-157.5 197z" />
    <glyph glyph-name="t" unicode="t" horiz-adv-x="802" 
d="M39 815v215h160v258l254 162v-420h272v-217h-272v-444q0 -90 33 -129t102 -39q50 0 96 24l59 -205q-73 -36 -159 -36q-185 0 -286 96t-101 285v450h-158z" />
    <glyph glyph-name="u" unicode="u" horiz-adv-x="1202" 
d="M145 295v735h254v-659q0 -170 148 -170q101 0 168 115.5t67 304.5v411h254v-1032h-254v166q-126 -182 -317 -182q-146 0 -232.5 81t-87.5 230z" />
    <glyph glyph-name="v" unicode="v" horiz-adv-x="950" 
d="M10 1032h256l209 -719l209 719h256l-350 -1032h-230z" />
    <glyph glyph-name="w" unicode="w" horiz-adv-x="1568" 
d="M51 1032h256l185 -708l174 708h237l174 -708l185 708h256l-330 -1032h-225l-179 668l-178 -668h-225z" />
    <glyph glyph-name="x" unicode="x" horiz-adv-x="987" 
d="M16 0l342 551l-299 481h267l168 -268l168 268h266l-299 -481l342 -551h-266l-211 336l-211 -336h-267z" />
    <glyph glyph-name="y" unicode="y" horiz-adv-x="985" 
d="M6 1032h256l240 -647l225 647h254l-532 -1450h-246l178 484z" />
    <glyph glyph-name="z" unicode="z" horiz-adv-x="952" 
d="M84 0v98l446 717h-413v217h729v-98l-443 -717h471v-217h-790z" />
    <glyph glyph-name="braceleft" unicode="{" horiz-adv-x="708" 
d="M115 606v221q92 0 128 35t36 129v340q0 91 55 148t147 57h181v-219h-56q-50 0 -68 -19.5t-18 -72.5v-305q0 -107 -35.5 -149t-113.5 -52q78 -11 114.5 -54t36.5 -149v-305q0 -53 17.5 -71.5t66.5 -18.5h58v-221h-183q-91 0 -146.5 55.5t-55.5 146.5v340q0 94 -35.5 129
t-128.5 35z" />
    <glyph glyph-name="bar" unicode="|" horiz-adv-x="618" 
d="M184 -102v1638h250v-1638h-250z" />
    <glyph glyph-name="braceright" unicode="}" horiz-adv-x="708" 
d="M43 -102v217h53q50 0 68 19.5t18 72.5v305q0 106 37 149t115 54q-78 10 -115 52t-37 148v306q0 53 -17 72.5t-67 19.5h-55v221h180q91 0 149 -57t58 -148v-340q0 -94 35.5 -129t128.5 -35v-221q-93 0 -128.5 -35t-35.5 -129v-340q0 -90 -57 -146t-148 -56h-182z" />
    <glyph glyph-name="asciitilde" unicode="~" horiz-adv-x="1339" 
d="M152 651l2 -4q40 97 125.5 163.5t183.5 66.5q89 0 215 -60q121 -59 192 -59q104 0 187 102l131 -139q-39 -96 -126 -161.5t-185 -65.5q-93 0 -215 61q-127 59 -193 59q-104 0 -186 -104z" />
    <glyph glyph-name="uni00A0" unicode="&#xa0;" horiz-adv-x="507" 
 />
    <glyph glyph-name="cent" unicode="&#xa2;" horiz-adv-x="1193" 
d="M111 717l2 -4q0 200 98.5 341.5t280.5 180.5v299h249v-299q251 -51 344 -283l-227 -92q-83 170 -242 170q-115 0 -176 -86t-61 -229q0 -144 60.5 -230t174.5 -86q159 0 242 170l227 -92q-94 -233 -344 -280v-299h-250v299q-180 37 -279 178.5t-99 341.5z" />
    <glyph glyph-name="sterling" unicode="&#xa3;" horiz-adv-x="1140" 
d="M76 135q61 59 110 111q43 46 77 116.5t34 135.5q0 56 -18 127h-170v235h98q-33 90 -33 162q0 185 121 305.5t315 120.5q158 0 268 -74.5t156 -208.5l-211 -100q-68 145 -213 145q-79 0 -130.5 -52t-51.5 -150q0 -91 16 -146h355v-237h-283q6 -37 6 -78q0 -112 -40 -186.5
t-126 -147.5q111 66 203 66q34 0 114 -31t107 -31q43 0 77.5 25.5t72.5 91.5l176 -113q-71 -123 -151.5 -180t-186.5 -57q-81 0 -166 36q-92 39 -147 39q-109 0 -238 -75l-141 155v-4z" />
    <glyph glyph-name="yen" unicode="&#xa5;" horiz-adv-x="1101" 
d="M16 1434h287l248 -557l248 557h286l-294 -603h186v-221h-293v-147h293v-221h-293v-242h-266v242h-293v221h293v147h-293v221h186z" />
    <glyph glyph-name="dieresis" unicode="&#xa8;" horiz-adv-x="780" 
d="M33 1333q0 63 41 104.5t104 41.5t104.5 -41.5t41.5 -104.5t-41.5 -104t-104.5 -41t-104 41t-41 104zM457 1333q0 63 41 104.5t104 41.5t104.5 -41.5t41.5 -104.5t-41.5 -104t-104.5 -41t-104 41t-41 104z" />
    <glyph glyph-name="copyright" unicode="&#xa9;" horiz-adv-x="1822" 
d="M121 715q0 341 225 569q229 232 563 232q337 0 564 -230q227 -233 227 -569q0 -342 -227 -572q-226 -229 -562 -229q-335 0 -563 231q-225 228 -225 570zM346 715q0 -166 71.5 -299t200 -208t291.5 -75q162 0 291 75t201 208t72 299q0 124 -42.5 231.5t-116.5 183.5
t-179 120t-226 44q-163 0 -291.5 -74.5t-200 -206.5t-71.5 -298zM498 715l2 -6q0 203 117.5 322.5t293.5 119.5q147 0 253 -76.5t124 -210.5l-196 -39q-45 136 -183 136q-82 0 -134 -70.5t-52 -177.5q0 -108 51.5 -177t134.5 -69q138 0 181 131l198 -39
q-20 -134 -125.5 -211.5t-253.5 -77.5q-176 0 -293.5 120t-117.5 325z" />
    <glyph glyph-name="guillemotleft" unicode="&#xab;" horiz-adv-x="1439" 
d="M90 551v168l633 446v-262l-379 -268l379 -268v-263zM705 551v168l632 446v-262l-379 -268l379 -268v-263z" />
    <glyph glyph-name="uni00AD" unicode="&#xad;" horiz-adv-x="1030" 
d="M133 539v221h764v-221h-764z" />
    <glyph glyph-name="registered" unicode="&#xae;" horiz-adv-x="1822" 
d="M121 715q0 341 225 569q229 232 563 232q337 0 564 -230q227 -233 227 -569q0 -342 -227 -572q-226 -229 -562 -229q-335 0 -563 231q-225 228 -225 570zM346 715q0 -166 71.5 -299t200 -208t291.5 -75q162 0 291 75t201 208t72 299q0 124 -42.5 231.5t-116.5 183.5
t-179 120t-226 44q-163 0 -291.5 -74.5t-200 -206.5t-71.5 -298zM590 279v870h346q287 0 287 -250q0 -99 -48 -160.5t-131 -76.5l240 -383h-231l-224 370h-24v-370h-215zM805 819h110q99 0 99 80t-99 80h-110v-160z" />
    <glyph glyph-name="acute" unicode="&#xb4;" 
d="M31 1147l131 303h344l-281 -303h-194z" />
    <glyph glyph-name="cedilla" unicode="&#xb8;" horiz-adv-x="493" 
d="M10 -410l289 287h184l-170 -422z" />
    <glyph glyph-name="guillemotright" unicode="&#xbb;" horiz-adv-x="1439" 
d="M102 104v263l379 268l-379 268v262l633 -446v-168zM717 104v263l379 268l-379 268v262l633 -446v-168z" />
    <glyph glyph-name="circumflex" unicode="&#x2c6;" horiz-adv-x="876" 
d="M53 1159l350 381h70l350 -381h-245l-140 152l-139 -152h-246z" />
    <glyph glyph-name="ring" unicode="&#x2da;" horiz-adv-x="479" 
d="M29 1341q0 90 59 148.5t152 58.5q92 0 152.5 -59t60.5 -148q0 -91 -60.5 -149.5t-152.5 -58.5t-151.5 59t-59.5 149zM174 1341q0 -65 64 -65q61 0 61 65q0 66 -61 66q-62 0 -62 -66h-2z" />
    <glyph glyph-name="tilde" unicode="&#x2dc;" horiz-adv-x="849" 
d="M31 1278q34 78 104 127t148 49q77 0 149 -41q76 -43 123 -43q65 0 131 88l133 -110q-35 -80 -104.5 -129.5t-147.5 -49.5q-72 0 -149 41q-76 43 -123 43q-67 0 -131 -88z" />
    <glyph glyph-name="uni0400" unicode="&#x400;" horiz-adv-x="1177" 
d="M184 0v1434h887v-246h-620v-301h497v-246h-497v-395h641v-246h-908zM324 1851h344l131 -303h-195z" />
    <glyph glyph-name="afii10023" unicode="&#x401;" horiz-adv-x="1177" 
d="M184 0v1434h887v-246h-620v-301h497v-246h-497v-395h641v-246h-908zM285 1735q0 63 40 103t103 40t104 -40t41 -103t-40 -104.5t-103 -41.5t-104 41.5t-41 104.5zM707 1735q0 63 41 103t104 40t104 -40t41 -103t-40 -104.5t-103 -41.5q-64 0 -104.5 41.5t-40.5 104.5h-2z
" />
    <glyph glyph-name="afii10051" unicode="&#x402;" horiz-adv-x="1474" 
d="M14 1188v246h1061v-246h-397v-322q120 183 328 183q153 0 237 -80.5t84 -233.5v-198q0 -241 -103 -371t-327 -182l-61 223q126 32 182.5 98.5t56.5 200.5v141q0 184 -153 184q-100 0 -171 -104.5t-71 -290.5v-436h-266v1188h-400z" />
    <glyph glyph-name="afii10052" unicode="&#x403;" horiz-adv-x="1085" 
d="M184 0v1434h889v-246h-622v-1188h-267zM446 1548l132 303h344l-281 -303h-195z" />
    <glyph glyph-name="afii10053" unicode="&#x404;" horiz-adv-x="1402" 
d="M92 717q0 342 178.5 537.5t468.5 195.5q209 0 370 -118.5t226 -315.5l-237 -68q-111 254 -359 254q-148 0 -243 -92t-121 -270h647v-246h-647q28 -180 122.5 -273.5t243.5 -93.5q246 0 357 254l239 -65q-67 -197 -226.5 -314.5t-369.5 -117.5q-190 0 -334.5 85.5
t-226.5 252.5t-82 395h-6z" />
    <glyph glyph-name="afii10054" unicode="&#x405;" horiz-adv-x="1099" 
d="M72 385l215 133q82 -291 284 -291q189 0 189 187q0 62 -62 112q-36 29 -97 61t-117 56.5t-117 64t-105 83.5t-73 114t-29 156q0 162 112.5 275.5t278.5 113.5q290 0 414 -260l-215 -137q-81 149 -197 149q-60 0 -99.5 -36.5t-39.5 -94.5q0 -116 215 -213
q157 -73 223 -121q172 -122 172 -309q0 -205 -125 -324.5t-334 -119.5q-184 0 -321.5 115t-171.5 286z" />
    <glyph glyph-name="afii10055" unicode="&#x406;" horiz-adv-x="634" 
d="M184 0v1434h267v-1434h-267z" />
    <glyph glyph-name="afii10056" unicode="&#x407;" horiz-adv-x="634" 
d="M-39 1735q0 63 41 103t104 40t104.5 -40t41.5 -103t-41.5 -104.5t-104.5 -41.5t-104 41.5t-41 104.5zM184 0v1434h267v-1434h-267zM385 1733q0 63 41 104t104 41t104.5 -41t41.5 -104t-41.5 -104.5t-104.5 -41.5t-104 41.5t-41 104.5z" />
    <glyph glyph-name="afii10057" unicode="&#x408;" horiz-adv-x="1054" 
d="M4 354l262 54q35 -181 180 -181q93 0 142 58t49 188v961h266v-930q0 -275 -114.5 -397.5t-342.5 -122.5q-185 0 -302 98t-140 272z" />
    <glyph glyph-name="afii10058" unicode="&#x409;" horiz-adv-x="1878" 
d="M12 256q40 -1 61 0t49.5 9t43 24t26.5 47t15 76l76 1024h768v-557h268q224 0 348.5 -115t124.5 -326q0 -210 -124.5 -324t-348.5 -114h-535v1180h-262l-57 -791q-13 -193 -128.5 -291t-322.5 -98zM1051 248h243q232 3 232 192q0 193 -234 193h-241v-385z" />
    <glyph glyph-name="afii10059" unicode="&#x40a;" horiz-adv-x="1949" 
d="M184 0v1436h267v-557h405v557h266v-557h269q224 0 348.5 -115t124.5 -326q0 -210 -124.5 -324t-348.5 -114h-535v631h-405v-631h-267zM1122 248h244q231 3 231 192q0 193 -231 193h-244v-385z" />
    <glyph glyph-name="afii10060" unicode="&#x40b;" horiz-adv-x="1476" 
d="M14 1188v248h1061v-246h-395v-324q116 185 328 185q151 0 236 -81t85 -233v-737h-254v647q0 184 -153 184q-102 0 -172 -104t-70 -291v-436h-266v1188h-400z" />
    <glyph glyph-name="afii10061" unicode="&#x40c;" horiz-adv-x="1316" 
d="M184 0v1434h267v-533l489 533h328l-582 -641l623 -793h-338l-520 684v-684h-267zM520 1548l131 303h344l-280 -303h-195z" />
    <glyph glyph-name="uni040D" unicode="&#x40d;" horiz-adv-x="1441" 
d="M184 0v1434h267v-947l526 947h280v-1434h-266v946l-526 -946h-281zM385 1851h344l131 -303h-194z" />
    <glyph glyph-name="afii10062" unicode="&#x40e;" horiz-adv-x="1064" 
d="M-4 1434h256l285 -691l278 691h254l-594 -1450h-246l183 450zM279 1835h186q0 -27 14.5 -43t38.5 -16t38.5 16t14.5 43h189q0 -93 -68 -158t-174 -65q-105 0 -172 65t-67 158z" />
    <glyph glyph-name="afii10145" unicode="&#x40f;" horiz-adv-x="1417" 
d="M184 0v1434h267v-1180h516v1180h266v-1434h-391v-254h-267v254h-391z" />
    <glyph glyph-name="afii10017" unicode="&#x410;" horiz-adv-x="1257" 
d="M10 0l486 1434h266l485 -1434h-286l-105 338h-455l-104 -338h-287zM477 584h303l-151 497z" />
    <glyph glyph-name="afii10018" unicode="&#x411;" horiz-adv-x="1277" 
d="M184 0v1436h873v-246h-606v-311h268q224 0 348.5 -115t124.5 -326q0 -210 -124.5 -324t-348.5 -114h-535zM451 248h243q117 2 174.5 49t57.5 143q0 193 -232 193h-243v-385z" />
    <glyph glyph-name="afii10019" unicode="&#x412;" horiz-adv-x="1277" 
d="M184 0v1434h525q190 0 299.5 -100t109.5 -287q0 -89 -37 -160.5t-104 -104.5q215 -89 215 -352q0 -205 -125.5 -317.5t-347.5 -112.5h-535zM451 246l243 2q232 0 232 190q0 193 -232 193h-243v-385zM453 879l243 -2q86 0 127 36t41 119q0 85 -42.5 121.5t-133.5 36.5
h-235v-311z" />
    <glyph glyph-name="afii10020" unicode="&#x413;" horiz-adv-x="1085" 
d="M184 0v1434h889v-246h-622v-1188h-267z" />
    <glyph glyph-name="afii10021" unicode="&#x414;" horiz-adv-x="1441" 
d="M102 254h131l201 1180h826v-1180h96v-508h-230v254h-766v-254h-258v508zM496 254h497v934h-325z" />
    <glyph glyph-name="afii10022" unicode="&#x415;" horiz-adv-x="1177" 
d="M184 0v1434h887v-246h-620v-301h497v-246h-497v-395h641v-246h-908z" />
    <glyph glyph-name="afii10024" unicode="&#x416;" horiz-adv-x="1998" 
d="M8 0l623 793l-582 641h328l489 -533v533h267v-533l489 533h328l-582 -641l623 -793h-338l-520 684v-684h-267v684l-520 -684h-338z" />
    <glyph glyph-name="afii10025" unicode="&#x417;" horiz-adv-x="1206" 
d="M115 397l247 31q53 -209 234 -209q100 0 162.5 67t62.5 175q0 119 -62 186.5t-163 67.5q-69 0 -125 -33l-102 143l270 371h-457v240h822v-93l-338 -454q50 4 57 4q163 0 259.5 -118.5t96.5 -309.5q0 -217 -136.5 -349t-348.5 -132q-194 0 -327 115.5t-152 297.5z" />
    <glyph glyph-name="afii10026" unicode="&#x418;" horiz-adv-x="1441" 
d="M184 0v1434h267v-947l526 947h280v-1434h-266v946l-526 -946h-281z" />
    <glyph glyph-name="afii10027" unicode="&#x419;" horiz-adv-x="1441" 
d="M184 0v1434h267v-947l526 947h280v-1434h-266v946l-526 -946h-281zM479 1835h187q0 -27 14.5 -43t40.5 -16q23 0 38 16.5t15 42.5h187q0 -94 -68 -158.5t-174 -64.5q-105 0 -172.5 65t-67.5 158z" />
    <glyph glyph-name="afii10028" unicode="&#x41a;" horiz-adv-x="1316" 
d="M184 0v1434h267v-533l489 533h328l-582 -641l623 -793h-338l-520 684v-684h-267z" />
    <glyph glyph-name="afii10029" unicode="&#x41b;" horiz-adv-x="1333" 
d="M12 256q44 0 70.5 2.5t52 11t39 25.5t23 45t12.5 70l76 1024h864v-1434h-266v1180h-359l-57 -791q-27 -389 -453 -389z" />
    <glyph glyph-name="afii10030" unicode="&#x41c;" horiz-adv-x="1642" 
d="M184 0v1434h299l338 -895l338 895h299v-1434h-266v885l-274 -754h-193l-274 754v-885h-267z" />
    <glyph glyph-name="afii10031" unicode="&#x41d;" horiz-adv-x="1474" 
d="M184 0v1434h267v-545h573v545h266v-1434h-266v643h-573v-643h-267z" />
    <glyph glyph-name="afii10032" unicode="&#x41e;" horiz-adv-x="1548" 
d="M96 713q0 148 37 270t100.5 207t150 143.5t184.5 85.5t206 27q141 0 262 -46t214 -134t146.5 -230t53.5 -321q0 -148 -36.5 -270.5t-99.5 -207t-149 -142t-183.5 -84.5t-205.5 -27q-111 0 -211 28t-185.5 87.5t-148 145t-98 206.5t-35.5 266zM367 711q0 -235 113 -361.5
t292 -126.5t292.5 127t113.5 363q0 234 -113.5 360.5t-292.5 126.5t-291 -126t-112 -361z" />
    <glyph glyph-name="afii10033" unicode="&#x41f;" horiz-adv-x="1417" 
d="M184 0v1434h1049v-1434h-266v1180h-516v-1180h-267z" />
    <glyph glyph-name="afii10034" unicode="&#x420;" horiz-adv-x="1212" 
d="M184 0v1434h541q215 0 332 -118.5t117 -318.5t-117 -318t-332 -118h-274v-561h-267zM451 807l264 -2q188 0 188 190q0 193 -188 193h-264v-381z" />
    <glyph glyph-name="afii10035" unicode="&#x421;" horiz-adv-x="1433" 
d="M96 717q0 339 199 538q198 195 479 195q231 0 386 -114t206 -320l-240 -64q-91 250 -354 250q-180 0 -292.5 -127t-112.5 -358t114 -359.5t293 -128.5q260 0 354 250l240 -61q-51 -207 -206 -320.5t-388 -113.5q-285 0 -479 194q-197 194 -197 539h-2z" />
    <glyph glyph-name="afii10036" unicode="&#x422;" horiz-adv-x="1093" 
d="M16 1188v246h1061v-246h-397v-1188h-266v1188h-398z" />
    <glyph glyph-name="afii10037" unicode="&#x423;" horiz-adv-x="1064" 
d="M-4 1434h256l285 -691l278 691h254l-594 -1450h-246l183 450z" />
    <glyph glyph-name="afii10038" unicode="&#x424;" horiz-adv-x="1597" 
d="M86 717q0 153 73 283t203.5 207t288.5 77h21v150h254v-150h16q160 0 290.5 -77t202.5 -206.5t72 -283.5q0 -155 -72 -285t-202.5 -207.5t-290.5 -77.5h-16v-147h-254v147h-21q-159 0 -289 77.5t-202 208t-72 284.5h-2zM352 715q0 -150 82.5 -251.5t216.5 -101.5h21v705
h-21q-134 0 -216.5 -101t-82.5 -249v-2zM926 362l16 3q135 0 217 100.5t82 249.5t-82 250.5t-217 101.5h-16v-705z" />
    <glyph glyph-name="afii10039" unicode="&#x425;" horiz-adv-x="1212" 
d="M14 0l447 774l-379 660h291l233 -406l234 406h290l-378 -660l446 -774h-295l-297 518l-297 -518h-295z" />
    <glyph glyph-name="afii10040" unicode="&#x426;" horiz-adv-x="1439" 
d="M184 0v1434h267v-1180h516v1180h266v-1180h149l-36 -508h-230v254h-932z" />
    <glyph glyph-name="afii10041" unicode="&#x427;" horiz-adv-x="1376" 
d="M150 942v492h266v-494q0 -138 58 -212.5t161 -74.5q101 0 161 27t130 98v656h266v-1434h-266v487q-125 -88 -336 -88q-206 0 -322.5 136.5t-117.5 406.5z" />
    <glyph glyph-name="afii10042" unicode="&#x428;" horiz-adv-x="2031" 
d="M184 0v1434h267v-1180h432v1180h266v-1180h432v1180h266v-1434h-1663z" />
    <glyph glyph-name="afii10043" unicode="&#x429;" horiz-adv-x="2054" 
d="M184 0v1434h267v-1180h432v1180h266v-1180h432v1180h266v-1180h150l-37 -508h-229v254h-1547z" />
    <glyph glyph-name="afii10044" unicode="&#x42a;" horiz-adv-x="1388" 
d="M20 1188v248h527v-557h268q223 0 348 -115t125 -326q0 -209 -125 -323.5t-348 -114.5h-534v1188h-261zM547 248h244q231 3 231 192q0 193 -231 193h-244v-385z" />
    <glyph glyph-name="afii10045" unicode="&#x42b;" horiz-adv-x="1822" 
d="M184 0v1436h267v-557h268q224 0 348.5 -115t124.5 -326q0 -210 -124.5 -324t-348.5 -114h-535zM451 248h243q232 0 232 192q0 193 -232 193h-243v-385zM1384 2v1450h254v-1450h-254z" />
    <glyph glyph-name="afii10046" unicode="&#x42c;" horiz-adv-x="1292" 
d="M184 0v1436h267v-557h268q224 0 348.5 -115t124.5 -326q0 -210 -124.5 -324t-348.5 -114h-535zM451 248h243q117 2 174.5 49t57.5 143q0 193 -232 193h-243v-385z" />
    <glyph glyph-name="afii10047" unicode="&#x42d;" horiz-adv-x="1402" 
d="M61 1016q65 196 226.5 315t369.5 119q290 0 469 -195t179 -538q0 -342 -179 -537.5t-469 -195.5q-208 0 -368.5 118.5t-225.5 315.5l238 63q112 -254 356 -254q149 0 244 94t123 273h-647v246h647q-27 178 -122.5 271t-244.5 93q-247 0 -356 -254z" />
    <glyph glyph-name="afii10048" unicode="&#x42e;" horiz-adv-x="2113" 
d="M184 0v1434h267v-594h217q23 194 117.5 333t236.5 207t317 68q111 0 211 -28.5t185.5 -87.5t147.5 -144.5t97 -206t35 -264.5q0 -148 -36 -270.5t-99 -207t-149.5 -142t-184.5 -84.5t-207 -27q-175 0 -317 68t-236.5 207t-117.5 333h-217v-594h-267zM932 713
q0 -234 113.5 -361t291.5 -127q87 0 160.5 31t129 91t87 154.5t31.5 213.5q0 234 -114 360.5t-294 126.5q-178 0 -290.5 -126.5t-112.5 -360.5z" />
    <glyph glyph-name="afii10049" unicode="&#x42f;" horiz-adv-x="1337" 
d="M66 0l395 639q-127 38 -196.5 140t-69.5 245q0 188 115 299t321 111h522v-1434h-266v618h-139l-386 -618h-296zM459 1024q0 -162 168 -162h258v324h-258q-168 0 -168 -162z" />
    <glyph glyph-name="afii10065" unicode="&#x430;" horiz-adv-x="1052" 
d="M76 299q0 154 121.5 246t318.5 92h172v45q0 149 -176 149q-141 0 -180 -116l-215 49q25 129 132 208t261 79q434 0 434 -435v-616h-209l-26 131q-121 -145 -318 -145q-139 0 -226 82t-87 229zM342 303q0 -41 28.5 -69.5t78.5 -28.5q96 0 167.5 59.5t71.5 151.5v20h-170
q-176 0 -176 -133z" />
    <glyph glyph-name="afii10066" unicode="&#x431;" horiz-adv-x="1224" 
d="M84 635q0 214 36 368.5t107 248.5t168.5 138t227.5 44h71q115 0 156 96h158q0 -157 -75 -237.5t-222 -80.5h-80q-263 0 -281 -272q115 109 293 109q224 0 358 -148.5t134 -384.5q0 -232 -147 -381t-382 -149q-236 0 -377 176.5t-141 472.5h-4zM350 514
q0 -134 70.5 -224.5t187.5 -90.5t187.5 90.5t70.5 224.5q0 136 -70.5 226.5t-187.5 90.5t-187.5 -90.5t-70.5 -226.5z" />
    <glyph glyph-name="afii10067" unicode="&#x432;" horiz-adv-x="1067" 
d="M162 1028h397q165 0 256.5 -69.5t91.5 -210.5q0 -54 -27 -106.5t-69 -80.5q73 -35 118.5 -104t45.5 -156q0 -149 -92 -225t-258 -76h-461zM416 213h139q160 0 160 109q0 108 -160 108h-139v-217zM416 651h129q117 0 117 86t-117 86h-129v-172z" />
    <glyph glyph-name="afii10068" unicode="&#x433;" horiz-adv-x="882" 
d="M164 0v1032h698v-217h-444v-815h-254z" />
    <glyph glyph-name="afii10069" unicode="&#x434;" horiz-adv-x="1187" 
d="M72 217h86l131 815h739v-815h76l-31 -450h-221v233h-528v-233h-220zM406 217h368v598h-276z" />
    <glyph glyph-name="afii10070" unicode="&#x435;" horiz-adv-x="1138" 
d="M86 514q0 80 18.5 156t58 145t96.5 120t140.5 81.5t182.5 30.5t181 -31.5t136.5 -82.5t92.5 -118.5t54.5 -137.5t16.5 -140v-105h-711q5 -98 71 -164.5t175 -66.5q156 0 248 157l205 -73q-129 -301 -467 -301q-101 0 -185.5 31.5t-141 83.5t-95.5 121t-56.5 143.5
t-17.5 152.5zM356 635h447q-43 194 -219 194q-89 0 -151.5 -55t-76.5 -139z" />
    <glyph glyph-name="afii10072" unicode="&#x436;" horiz-adv-x="1617" 
d="M6 0l440 557l-413 475h313l336 -405v405h254v-405l336 405h313l-414 -475l441 -557h-312l-364 487v-487h-254v487l-365 -487h-311z" />
    <glyph glyph-name="afii10073" unicode="&#x437;" horiz-adv-x="909" 
d="M86 299l229 33q11 -71 49.5 -112.5t102.5 -41.5q62 0 99.5 42.5t37.5 109.5t-37 109t-96 42q-46 0 -100 -26l-115 139l182 233h-297v205h633v-78l-250 -317q8 2 37 2q122 0 194 -83.5t72 -223.5q0 -154 -104 -250t-258 -96q-147 0 -254.5 86.5t-124.5 226.5z" />
    <glyph glyph-name="afii10074" unicode="&#x438;" horiz-adv-x="1212" 
d="M164 0v1032h254v-637l354 637h277v-1032h-254v637l-355 -637h-276z" />
    <glyph glyph-name="afii10075" unicode="&#x439;" horiz-adv-x="1212" 
d="M164 0v1032h254v-637l354 637h277v-1032h-254v637l-355 -637h-276zM365 1434h186q0 -27 14.5 -43.5t38.5 -16.5t39.5 17.5t15.5 42.5h187q0 -93 -68 -158.5t-174 -65.5q-105 0 -172 65.5t-67 158.5z" />
    <glyph glyph-name="afii10076" unicode="&#x43a;" horiz-adv-x="1099" 
d="M164 0v1032h254v-405l336 405h313l-414 -475l441 -557h-312l-364 487v-487h-254z" />
    <glyph glyph-name="afii10077" unicode="&#x43b;" horiz-adv-x="1228" 
d="M59 217q91 0 134.5 33t52.5 112l65 670h754v-1032h-254v815h-262l-64 -545q-7 -61 -23.5 -106t-46 -74.5t-62 -47.5t-82.5 -27t-96 -12t-114 -3z" />
    <glyph glyph-name="afii10078" unicode="&#x43c;" horiz-adv-x="1327" 
d="M164 0v1032h266l234 -594l233 594h266v-1032h-254v516l-157 -422h-177l-157 422v-516h-254z" />
    <glyph glyph-name="afii10079" unicode="&#x43d;" horiz-adv-x="1179" 
d="M164 0v1032h254v-375h344v375h254v-1032h-254v440h-344v-440h-254z" />
    <glyph glyph-name="afii10080" unicode="&#x43e;" horiz-adv-x="1224" 
d="M88 516q0 233 142.5 382t381.5 149q238 0 381.5 -149.5t143.5 -381.5t-143.5 -381t-381.5 -149q-239 0 -381.5 148.5t-142.5 381.5zM354 514q0 -134 70.5 -224.5t187.5 -90.5t187.5 90.5t70.5 224.5q0 136 -70.5 226.5t-187.5 90.5t-187.5 -90.5t-70.5 -226.5z" />
    <glyph glyph-name="afii10081" unicode="&#x43f;" horiz-adv-x="1173" 
d="M164 0v1032h846v-1032h-254v815h-338v-815h-254z" />
    <glyph glyph-name="afii10082" unicode="&#x440;" horiz-adv-x="1226" 
d="M162 1030h254v-106q27 48 98 85.5t154 37.5q224 0 346.5 -143t122.5 -390q0 -245 -122.5 -387.5t-346.5 -142.5q-73 0 -144 32t-106 78v-512h-254zM391 512q0 -146 65.5 -229.5t172.5 -83.5q106 0 172.5 84.5t66.5 228.5q0 145 -66 230t-171 85q-108 0 -173 -83t-65 -230
z" />
    <glyph glyph-name="afii10083" unicode="&#x441;" horiz-adv-x="1128" 
d="M88 516q0 233 134 383t370 150q350 0 467 -295l-228 -92q-81 167 -237 167q-118 0 -180 -85t-62 -230q0 -142 61.5 -227.5t176.5 -85.5q160 0 241 170l228 -92q-117 -295 -467 -295q-158 0 -273.5 70.5t-173 189.5t-57.5 272z" />
    <glyph glyph-name="afii10084" unicode="&#x442;" horiz-adv-x="933" 
d="M63 815v217h807v-217h-276v-815h-254v815h-277z" />
    <glyph glyph-name="afii10085" unicode="&#x443;" horiz-adv-x="985" 
d="M6 1032h256l240 -647l225 647h254l-532 -1450h-246l178 484z" />
    <glyph glyph-name="afii10086" unicode="&#x444;" horiz-adv-x="1478" 
d="M86 516q0 148 66 269.5t186.5 192.5t271.5 71v401h254v-401q151 0 272 -71t187 -192.5t66 -269.5q0 -226 -147.5 -378t-377.5 -152v-404h-254v404q-229 0 -375.5 151.5t-146.5 378.5h-2zM352 516l2 2q0 -134 69.5 -224.5t178.5 -90.5h10v628h-10q-110 0 -180 -91
t-70 -224zM866 203l11 -2q110 0 178.5 90.5t68.5 224.5t-69.5 226t-177.5 92h-11v-631z" />
    <glyph glyph-name="afii10087" unicode="&#x445;" horiz-adv-x="987" 
d="M16 0l342 551l-299 481h267l168 -268l168 268h266l-299 -481l342 -551h-266l-211 336l-211 -336h-267z" />
    <glyph glyph-name="afii10088" unicode="&#x446;" horiz-adv-x="1169" 
d="M164 0v1032h254v-815h338v815h254v-815h75l-30 -450h-221v233h-670z" />
    <glyph glyph-name="afii10089" unicode="&#x447;" horiz-adv-x="1179" 
d="M143 498v534h254v-440q0 -172 148 -172q126 0 217 184v428h254v-1032h-254v301q-74 -63 -140.5 -88t-162.5 -25q-143 0 -229.5 82t-86.5 228z" />
    <glyph glyph-name="afii10090" unicode="&#x448;" horiz-adv-x="1699" 
d="M164 0v1032h254v-815h305v815h254v-815h305v815h254v-1032h-1372z" />
    <glyph glyph-name="afii10091" unicode="&#x449;" horiz-adv-x="1695" 
d="M164 0v1032h254v-815h305v815h254v-815h305v815h254v-815h76l-31 -450h-221v233h-1196z" />
    <glyph glyph-name="afii10092" unicode="&#x44a;" horiz-adv-x="1126" 
d="M57 815v215h432v-391h189q162 0 259 -87.5t97 -232.5q0 -146 -96.5 -232.5t-259.5 -86.5h-442v815h-179zM489 215l144 2q143 0 143 102q0 103 -143 103h-144v-207z" />
    <glyph glyph-name="afii10093" unicode="&#x44b;" horiz-adv-x="1595" 
d="M164 0v1030h254v-391h188q162 0 259.5 -87.5t97.5 -232.5q0 -146 -97 -232.5t-260 -86.5h-442zM418 215l143 2q144 0 144 102q0 103 -144 103h-143v-207zM1180 0v1032h254v-1032h-254z" />
    <glyph glyph-name="afii10094" unicode="&#x44c;" horiz-adv-x="1054" 
d="M164 0v1030h254v-391h188q162 0 259.5 -87.5t97.5 -232.5q0 -146 -97 -232.5t-260 -86.5h-442zM418 215l143 2q144 0 144 102q0 103 -144 103h-143v-207z" />
    <glyph glyph-name="afii10095" unicode="&#x44d;" horiz-adv-x="1132" 
d="M68 252l208 102q90 -155 250 -155q92 0 157.5 58.5t82.5 156.5h-442v200h442q-18 95 -82.5 155t-155.5 60q-164 0 -252 -155l-208 104q158 271 452 271q162 0 282 -71t181 -190.5t61 -271.5q0 -233 -140.5 -382.5t-383.5 -149.5q-295 0 -452 268z" />
    <glyph glyph-name="afii10096" unicode="&#x44e;" horiz-adv-x="1685" 
d="M164 0v1028h254v-407h139q33 190 171 306.5t345 116.5q239 0 381.5 -148.5t142.5 -381.5t-142.5 -381.5t-381.5 -148.5q-209 0 -347 116t-169 308h-139v-408h-254zM815 512q0 -135 69.5 -225t186.5 -90q118 0 188 90t70 225t-70 225t-188 90q-117 0 -186.5 -90
t-69.5 -225z" />
    <glyph glyph-name="afii10097" unicode="&#x44f;" horiz-adv-x="1003" 
d="M37 0l268 461q-94 28 -148.5 102t-54.5 176q0 128 98.5 210.5t245.5 82.5h394v-1032h-254v446h-29l-250 -446h-270zM348 739q0 -75 82 -75h154v151h-154q-82 0 -82 -76z" />
    <glyph glyph-name="uni0450" unicode="&#x450;" horiz-adv-x="1138" 
d="M86 514q0 80 18.5 156t58 145t96.5 120t140.5 81.5t182.5 30.5t181 -31.5t136.5 -82.5t92.5 -118.5t54.5 -137.5t16.5 -140v-105h-711q5 -98 71 -164.5t175 -66.5q156 0 248 157l205 -73q-129 -301 -467 -301q-101 0 -185.5 31.5t-141 83.5t-95.5 121t-56.5 143.5
t-17.5 152.5zM244 1450h344l131 -303h-197zM356 635h447q-43 194 -219 194q-89 0 -151.5 -55t-76.5 -139z" />
    <glyph glyph-name="afii10071" unicode="&#x451;" horiz-adv-x="1138" 
d="M86 514q0 80 18.5 156t58 145t96.5 120t140.5 81.5t182.5 30.5t181 -31.5t136.5 -82.5t92.5 -118.5t54.5 -137.5t16.5 -140v-105h-711q5 -98 71 -164.5t175 -66.5q156 0 248 157l205 -73q-129 -301 -467 -301q-101 0 -185.5 31.5t-141 83.5t-95.5 121t-56.5 143.5
t-17.5 152.5zM223 1331q0 63 41.5 104.5t104.5 41.5t104 -41.5t41 -104.5t-41 -103t-104 -40t-104.5 40t-41.5 103zM356 633l447 2q-44 194 -219 194q-89 0 -151.5 -55.5t-76.5 -140.5zM649 1331q0 63 41.5 104.5t104.5 41.5t103 -41.5t40 -104.5t-40 -103t-103 -40
t-104.5 40t-41.5 103z" />
    <glyph glyph-name="afii10099" unicode="&#x452;" horiz-adv-x="1214" 
d="M14 1145v188h148v117h254v-117h227v-188h-227v-279q120 183 327 183q152 0 237 -80.5t85 -233.5v-616q0 -242 -103 -371.5t-327 -181.5l-64 221q127 34 184.5 101t57.5 200v559q0 184 -154 184q-102 0 -171.5 -104t-69.5 -291v-436h-254v1145h-150z" />
    <glyph glyph-name="afii10100" unicode="&#x453;" horiz-adv-x="882" 
d="M164 0v1032h698v-217h-444v-815h-254zM338 1147l131 303h344l-281 -303h-194z" />
    <glyph glyph-name="afii10101" unicode="&#x454;" horiz-adv-x="1132" 
d="M88 516q0 153 61 273t181 191t282 71q296 0 453 -271l-209 -104q-90 155 -250 155q-92 0 -157 -58.5t-82 -156.5h442v-200h-442q17 -96 81.5 -155.5t155.5 -59.5q164 0 252 155l209 -104q-155 -268 -453 -268q-243 0 -383.5 149.5t-140.5 382.5z" />
    <glyph glyph-name="afii10102" unicode="&#x455;" horiz-adv-x="933" 
d="M74 262l194 105q62 -170 207 -170q127 0 127 110q0 45 -41 71t-141 60q-70 23 -117.5 47t-87.5 59.5t-59 84.5t-19 114q0 125 94.5 213t237.5 88q100 0 187 -45.5t139 -121.5l-154 -140q-69 90 -172 90q-40 0 -66 -23t-26 -63q0 -60 98 -100l76 -25q15 -5 35.5 -11.5
t32.5 -10.5t20 -8q29 -12 78 -42t67 -52q66 -80 66 -166q0 -143 -104.5 -242.5t-264.5 -99.5q-139 0 -249.5 81t-157.5 197z" />
    <glyph glyph-name="afii10103" unicode="&#x456;" 
d="M102 1329q0 69 48 116.5t116 47.5q69 0 116.5 -48t47.5 -116q0 -69 -47.5 -117.5t-116.5 -48.5q-68 0 -116 48.5t-48 117.5zM139 0v1030h254v-1030h-254z" />
    <glyph glyph-name="afii10104" unicode="&#x457;" 
d="M-90 1333q0 63 41 104.5t104 41.5t104.5 -41.5t41.5 -104.5t-41.5 -104t-104.5 -41t-104 41t-41 104zM139 0v1030h254v-1030h-254zM334 1331q0 63 41 104.5t104 41.5t104.5 -41.5t41.5 -104.5t-41.5 -103t-104.5 -40t-104 40t-41 103z" />
    <glyph glyph-name="afii10105" unicode="&#x458;" 
d="M-100 -211v-2q126 33 181.5 100t55.5 201v944h254v-913q0 -241 -103 -371t-327 -182zM100 1327q0 69 48.5 116.5t117.5 47.5q68 0 115 -47.5t47 -116.5q0 -68 -47 -116t-115 -48q-69 0 -117.5 48t-48.5 116z" />
    <glyph glyph-name="afii10106" unicode="&#x459;" horiz-adv-x="1628" 
d="M59 215q90 0 134 33.5t51 111.5l67 670h678v-391h189q162 0 259 -87.5t97 -232.5t-96.5 -232t-257.5 -87h-445v815h-186l-64 -545q-7 -61 -23.5 -106t-46 -74.5t-62 -47.5t-82.5 -27t-96 -12t-114 -3zM989 215l144 2q143 0 143 102q0 103 -143 103h-144v-207z" />
    <glyph glyph-name="afii10107" unicode="&#x45a;" horiz-adv-x="1673" 
d="M164 0v1030h254v-391h364v391h254v-391h189q162 0 259 -87.5t97 -232.5q0 -146 -96.5 -232.5t-259.5 -86.5h-443v422h-364v-422h-254zM1036 215l144 2q143 0 143 102q0 103 -143 103h-144v-207z" />
    <glyph glyph-name="afii10108" unicode="&#x45b;" horiz-adv-x="1214" 
d="M16 1145v188h148v117h254v-117h227v-186h-227v-281q119 185 327 185q151 0 236.5 -81t85.5 -233v-737h-254v647q0 184 -154 184q-102 0 -171.5 -104t-69.5 -291v-436h-254v1145h-148z" />
    <glyph glyph-name="afii10109" unicode="&#x45c;" horiz-adv-x="1099" 
d="M164 0v1032h254v-405l336 405h313l-414 -475l441 -557h-312l-364 487v-487h-254zM428 1147l131 303h344l-280 -303h-195z" />
    <glyph glyph-name="uni045D" unicode="&#x45d;" horiz-adv-x="1212" 
d="M164 0v1032h254v-637l354 637h277v-1032h-254v637l-355 -637h-276zM276 1450h345l131 -303h-195z" />
    <glyph glyph-name="afii10110" unicode="&#x45e;" horiz-adv-x="985" 
d="M6 1032h256l240 -647l225 647h254l-532 -1450h-246l178 484zM260 1434h186q0 -27 15 -43.5t39 -16.5t39.5 17.5t15.5 42.5h184q0 -93 -67 -158.5t-172 -65.5t-172.5 65.5t-67.5 158.5z" />
    <glyph glyph-name="afii10193" unicode="&#x45f;" horiz-adv-x="1175" 
d="M164 0v1032h254v-815h340v815h254v-1032h-297v-233h-254v233h-297z" />
    <glyph glyph-name="uni2000" unicode="&#x2000;" horiz-adv-x="939" 
 />
    <glyph glyph-name="uni2001" unicode="&#x2001;" horiz-adv-x="1878" 
 />
    <glyph glyph-name="uni2002" unicode="&#x2002;" horiz-adv-x="939" 
 />
    <glyph glyph-name="uni2003" unicode="&#x2003;" horiz-adv-x="1878" 
 />
    <glyph glyph-name="uni2004" unicode="&#x2004;" horiz-adv-x="626" 
 />
    <glyph glyph-name="uni2005" unicode="&#x2005;" horiz-adv-x="469" 
 />
    <glyph glyph-name="uni2006" unicode="&#x2006;" horiz-adv-x="313" 
 />
    <glyph glyph-name="uni2007" unicode="&#x2007;" horiz-adv-x="313" 
 />
    <glyph glyph-name="uni2008" unicode="&#x2008;" horiz-adv-x="234" 
 />
    <glyph glyph-name="uni2009" unicode="&#x2009;" horiz-adv-x="375" 
 />
    <glyph glyph-name="uni200A" unicode="&#x200a;" horiz-adv-x="104" 
 />
    <glyph glyph-name="uni2010" unicode="&#x2010;" horiz-adv-x="1030" 
d="M133 539v221h764v-221h-764z" />
    <glyph glyph-name="uni2011" unicode="&#x2011;" horiz-adv-x="1030" 
d="M133 539v221h764v-221h-764z" />
    <glyph glyph-name="figuredash" unicode="&#x2012;" horiz-adv-x="1030" 
d="M133 539v221h764v-221h-764z" />
    <glyph glyph-name="endash" unicode="&#x2013;" horiz-adv-x="1198" 
d="M133 539v221h932v-221h-932z" />
    <glyph glyph-name="emdash" unicode="&#x2014;" horiz-adv-x="1579" 
d="M133 539v221h1313v-221h-1313z" />
    <glyph glyph-name="quoteleft" unicode="&#x2018;" horiz-adv-x="684" 
d="M102 1450h334l160 -500h-188z" />
    <glyph glyph-name="quoteright" unicode="&#x2019;" horiz-adv-x="684" 
d="M102 950l160 500h334l-305 -500h-189z" />
    <glyph glyph-name="quotesinglbase" unicode="&#x201a;" horiz-adv-x="684" 
d="M88 -29l160 500h334l-306 -500h-188z" />
    <glyph glyph-name="quotedblleft" unicode="&#x201c;" horiz-adv-x="1134" 
d="M102 1450h334l160 -500h-188zM553 1450h334l160 -500h-189z" />
    <glyph glyph-name="quotedblright" unicode="&#x201d;" horiz-adv-x="1134" 
d="M88 950l160 500h334l-306 -500h-188zM539 950l159 500h334l-305 -500h-188z" />
    <glyph glyph-name="quotedblbase" unicode="&#x201e;" horiz-adv-x="1134" 
d="M88 -29l160 500h334l-306 -500h-188zM539 -29l159 500h334l-305 -500h-188z" />
    <glyph glyph-name="bullet" unicode="&#x2022;" horiz-adv-x="802" 
d="M158 674q0 100 70.5 170.5t170.5 70.5t171 -70.5t71 -170.5t-70 -171t-170 -71q-99 0 -170 72t-71 172z" />
    <glyph glyph-name="ellipsis" unicode="&#x2026;" horiz-adv-x="1990" 
d="M164 158q0 74 49.5 124t122.5 50t122.5 -50t49.5 -122q0 -74 -49 -123t-123 -49t-123 49t-49 123v-2zM821 158q0 72 50.5 122t123.5 50t122.5 -49t49.5 -123t-49.5 -123t-122.5 -49t-122.5 49t-49.5 123h-2zM1483 156q0 74 49.5 124t122.5 50q72 0 122 -49.5t50 -122.5
t-50 -122.5t-122 -49.5q-73 0 -122.5 49t-49.5 123v-2z" />
    <glyph glyph-name="uni202F" unicode="&#x202f;" horiz-adv-x="375" 
 />
    <glyph glyph-name="guilsinglleft" unicode="&#x2039;" horiz-adv-x="825" 
d="M90 551v168l633 446v-262l-379 -268l379 -268v-263z" />
    <glyph glyph-name="guilsinglright" unicode="&#x203a;" horiz-adv-x="825" 
d="M102 104v263l379 268l-379 268v262l633 -446v-168z" />
    <glyph glyph-name="uni205F" unicode="&#x205f;" horiz-adv-x="469" 
 />
    <glyph glyph-name="Euro" unicode="&#x20ac;" horiz-adv-x="1318" 
d="M51 442l103 222h79v106h-182l103 221h102q50 220 195.5 339.5t353.5 119.5q311 0 440 -240l-221 -131q-66 133 -221 133q-222 0 -287 -221h430l-102 -221h-357v-104h459l-102 -224h-328q66 -221 287 -221q153 0 221 133l221 -131q-129 -237 -438 -237q-210 0 -355.5 117
t-195.5 339h-205z" />
    <glyph glyph-name="trademark" unicode="&#x2122;" horiz-adv-x="1744" 
d="M47 1249v185h625v-185h-213v-635h-199v635h-213zM795 614v820h198l199 -478l199 478h198v-820h-198v396l-134 -320h-131l-133 320v-396h-198z" />
    <glyph glyph-name="uni25FC" unicode="&#x25fc;" horiz-adv-x="1034" 
d="M0 0v1034h1034v-1034h-1034z" />
    </font>
</defs>
</svg>
