<?xml version="1.0" standalone="no"?>
<!DOCTYPE svg PUBLIC "-//W3C//DTD SVG 1.1//EN" "http://www.w3.org/Graphics/SVG/1.1/DTD/svg11.dtd" >
<svg xmlns="http://www.w3.org/2000/svg" xmlns:xlink="http://www.w3.org/1999/xlink" version="1.1">
<metadata>
Created by FontForge 20161116 at Sat Feb 15 08:34:09 2014
 By Jimmy Warting
Pragmatica Slabserif was designed as a complement to the popular type family Pragmatica by Vladimir Yefimov and Isabella Chaeva \(1989-2004\) by addition of square serifs. Inspired by Helserif \(Phil Martin, 1978\) which was formed in the same way by addition of square serifs to Helvetica \(Eduard Hoffman and Max Miedinger, 1957\). First sketches of Pragmatica Slabserif were created by Vladimir Yefimov in 1988 during development of Pragmatica. Olga Umpeleva designed the whole slabserif type family of six weights basing on that sketches. All styles of Pragmatica Slabserif coordinate with corresponding Pragmatica styles on metrics, proportions, weights and design. The new family can be used together with Pragmatica and separately. It's convenient for technical texts, for magazines of general nature, for business applications as well as for advertising and display matter. Pragmatica Slabserif was released by ParaType in 2011.
</metadata>
<defs>
<font id="PragmaticaSlab-Bold" horiz-adv-x="650" >
  <font-face 
    font-family="Pragmatica Slabserif"
    font-weight="700"
    font-stretch="normal"
    units-per-em="1000"
    panose-1="2 6 7 3 2 2 6 2 4 4"
    ascent="800"
    descent="-200"
    x-height="508"
    cap-height="700"
    bbox="-540 -300 1349 920"
    underline-thickness="50"
    underline-position="-100"
    unicode-range="U+0020-FB02"
  />
<missing-glyph horiz-adv-x="500" 
d="M58 8h384v496h-384v-496zM50 0v512h400v-512h-400z" />
    <glyph glyph-name="afii10017.var.accented" unicode="&#x410;`" horiz-adv-x="711" 
d="M170 577v123h269l215 -574h67v-126h-292v123h47l-15 45h-228l-16 -45h44v-123h-271v126h67l173 451h-60zM347 516l-82 -234h161zM350 885h160l-106 -132h-123z" />
    <glyph glyph-name="afii10022.var.accented" unicode="&#x415;`" horiz-adv-x="715" 
d="M671 465h-136v99h-253v-142h214v-129h-214v-157h267v135h136v-271h-635v136h67v428h-67v136h621v-235zM364 885h160l-106 -132h-123z" />
    <glyph glyph-name="afii10026.var.accented" unicode="&#x418;`" horiz-adv-x="843" 
d="M50 564v136h297v-136h-65v-316l279 452h232v-136h-67v-428h67v-136h-297v136h65v321l-279 -457h-232v136h67v428h-67zM418 885h160l-106 -132h-123z" />
    <glyph glyph-name="afii10032.var.accented" unicode="&#x41e;`" horiz-adv-x="788" 
d="M394 -20c-276 0 -354 207 -354 370s78 370 354 370c241 0 354 -158 354 -370s-113 -370 -354 -370zM394 116c168 0 176 175 176 234c0 64 -8 234 -176 234c-91 0 -175 -49 -175 -234c0 -183 84 -234 175 -234zM390 885h160l-106 -132h-123z" />
    <glyph glyph-name="afii10037.var.accented" unicode="&#x423;`" horiz-adv-x="665" 
d="M0 564v136h301v-136h-45l104 -209l77 209h-45v136h283v-136h-66l-251 -564h-220v136h119l22 57l-212 371h-67zM348 885h160l-106 -132h-123z" />
    <glyph glyph-name="afii10045.var.accented" unicode="&#x42b;`" horiz-adv-x="1079" 
d="M730 564v136h299v-136h-67v-428h67v-136h-284v136h52v428h-67zM50 564v136h299v-136h-67v-118h153c116 0 264 -43 264 -220c0 -146 -118 -226 -278 -226h-371v136h67v428h-67zM282 310v-174h118c72 0 121 26 121 90c0 53 -38 84 -123 84h-116zM527 885h160l-106 -132
h-123z" />
    <glyph glyph-name="afii10047.var.accented" unicode="&#x42d;`" horiz-adv-x="770" 
d="M552 288h-267v128h267c-16 162 -125 168 -177 168c-120 0 -168 -75 -173 -119h-148v235h136v-59c49 51 131 79 203 79c290 0 337 -196 337 -361c0 -360 -257 -379 -352 -379c-213 0 -327 120 -338 272h168c3 -66 55 -136 168 -136c68 0 171 23 176 172zM402 885h160
l-106 -132h-123z" />
    <glyph glyph-name="afii10048.var.accented" unicode="&#x42e;`" horiz-adv-x="1128" 
d="M50 564v136h295v-136h-63v-129h111c8 64 48 285 344 285c281 0 351 -207 351 -370s-70 -370 -351 -370c-272 0 -343 191 -348 319h-107v-163h63v-136h-295v136h67v428h-67zM910 350c0 64 -1 234 -172 234c-168 0 -171 -170 -171 -234c0 -60 3 -234 171 -234
c171 0 172 173 172 234zM537 885h160l-106 -132h-123z" />
    <glyph glyph-name="afii10049.var.accented" unicode="&#x42f;`" horiz-adv-x="767" 
d="M418 0v136h67v106h-88l-161 -242h-191v136h83l101 121c-76 16 -184 67 -184 216c0 189 180 227 262 227h410v-136h-67v-428h67v-136h-299zM485 564h-141c-88 0 -121 -47 -121 -93c0 -44 28 -93 127 -93h135v186zM394 885h160l-106 -132h-123z" />
    <glyph glyph-name="afii10023.var.accented" unicode="&#x401;`" horiz-adv-x="715" 
d="M671 465h-136v99h-253v-142h214v-129h-214v-157h267v135h136v-271h-635v136h67v428h-67v136h621v-235zM121 766v106h112v-106h-112zM479 766v106h112v-106h-112zM322 898h150l-106 -132h-113z" />
    <glyph glyph-name="afii10065.var.accented" unicode="&#x430;`" horiz-adv-x="632" 
d="M395 0v50h-3c-40 -51 -106 -69 -170 -69c-162 0 -177 104 -177 147c0 116 97 143 189 159c112 16 152 9 155 57v14c-3 67 -65 67 -82 67c-28 0 -93 -6 -93 -81h-145c8 176 183 183 239 183c229 0 233 -131 233 -190v-235h61v-102h-207zM390 210v32
c-32 -17 -65 -20 -100 -27c-32 -5 -89 -17 -89 -73c0 -48 49 -59 78 -59c37 0 111 25 111 127zM298 700h160l-106 -132h-123z" />
    <glyph glyph-name="afii10070.var.accented" unicode="&#x435;`" horiz-adv-x="616" 
d="M418 147h154c-40 -144 -171 -166 -264 -166c-67 0 -273 14 -273 274c0 178 116 272 282 272c157 0 225 -91 249 -179c15 -51 14 -100 14 -131h-387c0 -49 24 -134 122 -134c44 0 90 19 103 64zM193 302h232c-3 109 -70 123 -107 123c-90 0 -122 -71 -125 -123zM304 700
h160l-106 -132h-123z" />
    <glyph glyph-name="afii10074.var.accented" unicode="&#x438;`" horiz-adv-x="697" 
d="M660 102v-102h-269v102h56v228l-187 -330h-223v102h61v304h-61v102h269v-102h-56v-228l188 330h222v-102h-61v-304h61zM345 700h160l-106 -132h-123z" />
    <glyph glyph-name="afii10080.var.accented" unicode="&#x43e;`" horiz-adv-x="626" 
d="M313 -19c-158 0 -278 87 -278 274c0 200 137 272 278 272c159 0 278 -87 278 -272c0 -187 -120 -274 -278 -274zM313 83c109 0 120 108 120 172c0 162 -83 170 -120 170c-34 0 -120 -8 -120 -170c0 -65 12 -172 120 -172zM308 700h160l-106 -132h-123z" />
    <glyph glyph-name="afii10085.var.accented" unicode="&#x443;`" horiz-adv-x="595" 
d="M0 406v102h278v-102h-48l88 -229l63 229h-49v102h263v-102h-58l-214 -591h-196v102h93l28 85l-192 404h-56zM306 700h160l-106 -132h-123z" />
    <glyph glyph-name="afii10093.var.accented" unicode="&#x44b;`" horiz-adv-x="871" 
d="M560 406v102h274v-102h-61v-304h61v-102h-213v406h-61zM37 406v102h274v-102h-61v-82h82c48 0 228 11 228 -160c0 -123 -108 -164 -219 -164h-304v102h61v304h-61zM250 226v-124h58c53 0 94 17 94 62c0 63 -70 62 -98 62h-54zM431 700h160l-106 -132h-123z" />
    <glyph glyph-name="afii10095.var.accented" unicode="&#x44d;`" horiz-adv-x="617" 
d="M45 508h102v-49c37 43 95 68 167 68c68 0 268 -8 268 -279c0 -262 -225 -267 -277 -267c-212 0 -265 123 -270 211h150c3 -53 43 -109 120 -109c24 0 114 0 119 123h-176v102h176c0 39 -25 117 -120 117c-77 0 -125 -42 -129 -98h-130v181zM305 700h160l-106 -132h-123z
" />
    <glyph glyph-name="afii10096.var.accented" unicode="&#x44e;`" horiz-adv-x="918" 
d="M37 406v102h268v-98h-55v-93h90c11 104 91 210 271 210c160 0 272 -83 272 -272c0 -188 -114 -274 -274 -274c-195 0 -264 124 -272 234h-87v-117h50v-98h-263v102h61v304h-61zM609 83c98 0 116 84 116 172c0 162 -79 170 -116 170c-35 0 -114 -8 -114 -170
c0 -65 7 -172 114 -172zM465 700h160l-106 -132h-123z" />
    <glyph glyph-name="afii10097.var.accented" unicode="&#x44f;`" horiz-adv-x="623" 
d="M312 0v99h61v77h-63l-108 -176h-164v102h64l68 87c-96 19 -130 93 -130 152c0 164 167 167 198 167h348v-102h-61v-304h61v-102h-274zM373 406h-78c-36 0 -97 -6 -97 -64c0 -48 38 -64 94 -64h81v128zM291 700h160l-106 -132h-123z" />
    <glyph glyph-name="afii10071.var.accented" unicode="&#x451;`" horiz-adv-x="616" 
d="M418 147h154c-40 -144 -171 -166 -264 -166c-67 0 -273 14 -273 274c0 178 116 272 282 272c157 0 225 -91 249 -179c15 -51 14 -100 14 -131h-387c0 -49 24 -134 122 -134c44 0 90 19 103 64zM193 302h232c-3 109 -70 123 -107 123c-90 0 -122 -71 -125 -123zM51 578
v119h132v-119h-132zM433 578v119h132v-119h-132zM278 700h140l-106 -132h-103z" />
    <glyph glyph-name="fi" unicode="fi" horiz-adv-x="670" 
d="M369 0v102h46v304h-140v-304h46v-102h-264v102h66v304h-93v102h93v64c0 102 72 134 188 134c35 0 68 -3 79 -6v-102c-13 3 -38 6 -57 6c-57 0 -58 -42 -58 -58v-38h292v-406h66v-102h-264zM415 581v119h152v-119h-152z" />
    <glyph glyph-name="fl" unicode="fl" horiz-adv-x="670" 
d="M57 0v102h66v304h-93v102h93v64c0 102 72 134 188 134c35 0 68 -3 79 -6h177v-598h66v-102h-264v102h46v304h-140v-304h46v-102h-264zM415 598h-25c-13 3 -38 6 -57 6c-57 0 -58 -42 -58 -58v-38h140v90z" />
    <glyph glyph-name=".notdef" horiz-adv-x="500" 
d="M58 8h384v496h-384v-496zM50 0v512h400v-512h-400z" />
    <glyph glyph-name="NULL" horiz-adv-x="0" 
 />
    <glyph glyph-name="CR" horiz-adv-x="233" 
 />
    <glyph glyph-name="space" unicode=" " horiz-adv-x="233" 
 />
    <glyph glyph-name="exclam" unicode="!" horiz-adv-x="384" 
d="M106 700h172v-183l-43 -292h-86l-43 292v183zM109 0v158h166v-158h-166z" />
    <glyph glyph-name="quotedbl" unicode="&#x22;" horiz-adv-x="501" 
d="M229 700l-53 -192h-66l-53 192h172zM441 700l-53 -192h-66l-53 192h172z" />
    <glyph glyph-name="numbersign" unicode="#" 
d="M126 10l26 171h-135l13 80h135l28 185h-134l12 80h135l26 169h80l-26 -169h133l26 169h80l-26 -169h133l-12 -80h-134l-28 -185h133l-13 -80h-133l-26 -171h-80l26 171h-133l-26 -171h-80zM273 446l-28 -185h133l28 185h-133z" />
    <glyph glyph-name="dollar" unicode="$" 
d="M604 485h-152c1 44 -27 90 -83 107v-164c140 -34 250 -92 250 -215c0 -56 -15 -224 -250 -232v-76h-76v80c-51 9 -98 30 -123 67v-52h-136v235h162c0 -37 14 -109 97 -128v187l-11 3c-149 33 -221 101 -221 218c0 131 92 200 232 205v58h76v-66c39 -9 79 -29 99 -60v48
h136v-215zM455 191c0 49 -37 71 -86 86v-172c47 7 86 30 86 86zM210 528c0 -40 39 -64 83 -79v150c-63 -5 -83 -31 -83 -71z" />
    <glyph glyph-name="percent" unicode="%" horiz-adv-x="957" 
d="M53 520c0 172 125 200 183 200c57 0 184 -30 184 -200c0 -157 -111 -200 -184 -200c-60 0 -183 31 -183 200zM158 520c0 -88 43 -121 78 -121s78 33 78 121c0 95 -47 121 -78 121s-78 -26 -78 -121zM536 187c0 73 36 200 184 200s184 -127 184 -200
c0 -172 -128 -200 -184 -200s-184 28 -184 200zM642 187c0 -81 37 -121 78 -121c31 0 78 26 78 121c0 24 -6 121 -78 121c-35 0 -78 -33 -78 -121zM131 0l600 700h86l-600 -700h-86z" />
    <glyph glyph-name="ampersand" unicode="&#x26;" horiz-adv-x="721" 
d="M479 392h217v-116h-61c-11 -33 -28 -72 -63 -120l16 -20h88v-136h-151l-51 63c-59 -64 -142 -83 -211 -83c-164 0 -223 120 -223 213c0 110 53 155 160 214c-49 53 -58 92 -58 137c0 107 83 176 193 176c96 0 178 -59 178 -177c0 -53 -17 -121 -120 -171l103 -124
c9 16 17 37 20 50h-37v94zM403 152l-127 158c-72 -29 -81 -79 -81 -107s17 -96 102 -96c37 0 83 14 106 45zM322 457c37 16 78 42 78 93c0 52 -42 63 -65 63c-21 0 -64 -12 -64 -64c0 -35 22 -60 51 -92z" />
    <glyph glyph-name="quotesingle" unicode="'" horiz-adv-x="289" 
d="M229 700l-53 -192h-66l-53 192h172z" />
    <glyph glyph-name="parenleft" unicode="(" horiz-adv-x="398" 
d="M227 700h115c-59 -142 -112 -290 -112 -442c0 -155 53 -301 112 -443h-115c-89 158 -148 270 -148 443c0 171 60 284 148 442z" />
    <glyph glyph-name="parenright" unicode=")" horiz-adv-x="398" 
d="M170 -185h-114c68 157 111 298 111 443c0 147 -53 307 -111 442h114c123 -192 149 -332 149 -442c0 -111 -26 -251 -149 -443z" />
    <glyph glyph-name="asterisk" unicode="*" horiz-adv-x="485" 
d="M243 491l-71 -96l-60 47l68 92l-108 37l24 71l110 -37v115h74v-115l109 37l24 -71l-108 -37l69 -92l-61 -47z" />
    <glyph glyph-name="plus" unicode="+" horiz-adv-x="672" 
d="M53 390h243v243h80v-243h243v-80h-243v-243h-80v243h-243v80z" />
    <glyph glyph-name="comma" unicode="," horiz-adv-x="377" 
d="M106 0v158h165v-158c0 -45 -7 -174 -165 -177v79c31 0 86 17 86 92v6h-86z" />
    <glyph glyph-name="hyphen" unicode="-" horiz-adv-x="442" 
d="M75 205v125h292v-125h-292z" />
    <glyph glyph-name="period" unicode="." horiz-adv-x="377" 
d="M106 0v158h165v-158h-165z" />
    <glyph glyph-name="slash" unicode="/" horiz-adv-x="447" 
d="M0 -185l367 885h80l-367 -885h-80z" />
    <glyph glyph-name="zero" unicode="0" 
d="M325 -20c-52 0 -284 7 -284 370s232 370 284 370c51 0 284 -7 284 -370s-233 -370 -284 -370zM325 102c118 0 126 144 126 248s-8 248 -126 248c-115 0 -126 -147 -126 -248s11 -248 126 -248z" />
    <glyph glyph-name="one" unicode="1" 
d="M157 564v136h272v-564h107v-136h-379v136h107v428h-107z" />
    <glyph glyph-name="two" unicode="2" 
d="M603 0h-546v28c0 91 29 154 177 255c131 91 204 118 204 210c0 75 -52 105 -112 105c-72 0 -119 -43 -119 -115v-25h-153v21c0 101 55 241 278 241c33 0 262 -3 262 -220c0 -89 -35 -165 -191 -255c-74 -42 -122 -69 -152 -123h216v107h136v-229z" />
    <glyph glyph-name="three" unicode="3" 
d="M38 241h155c0 -61 28 -139 129 -139c112 0 120 82 120 107c0 41 -17 96 -110 96h-70v115h53c36 0 113 4 113 88c0 36 -22 90 -112 90c-55 0 -113 -19 -113 -129h-147c0 100 38 251 268 251c205 0 251 -116 251 -198c0 -109 -82 -144 -125 -155v-3c72 -8 148 -53 148 -170
c0 -199 -214 -214 -270 -214c-44 0 -294 -5 -290 261z" />
    <glyph glyph-name="four" unicode="4" 
d="M158 279h206v264zM364 167h-334v116l330 417h169v-421h85v-112h-85v-51h67v-116h-299v116h67v51z" />
    <glyph glyph-name="five" unicode="5" 
d="M50 203h156c5 -44 32 -103 117 -103c113 0 119 109 119 144c0 90 -59 131 -116 131c-32 0 -84 -10 -108 -50h-155l45 375h441v-177h-126v55h-208l-20 -152c21 16 74 50 168 50c147 0 235 -95 235 -234c0 -132 -79 -262 -279 -262c-216 0 -264 139 -269 223z" />
    <glyph glyph-name="six" unicode="6" 
d="M593 535h-142c-19 56 -85 63 -117 63c-100 0 -131 -80 -136 -179c40 41 92 62 155 62c116 0 248 -66 248 -239c0 -109 -52 -262 -263 -262c-73 0 -291 6 -291 366c0 73 7 374 295 374c181 0 235 -108 251 -185zM198 241c0 -73 46 -139 131 -139c84 0 127 63 127 136
c0 84 -53 135 -129 135c-63 0 -129 -39 -129 -132z" />
    <glyph glyph-name="seven" unicode="7" 
d="M126 116h70c13 61 32 118 55 165c23 49 78 171 200 288v9h-262v-93h-136v215h561v-116c-112 -104 -162 -208 -194 -277c-23 -55 -46 -123 -58 -191h73v-116h-309v116z" />
    <glyph glyph-name="eight" unicode="8" 
d="M166 373c-61 21 -102 77 -102 150c0 83 56 197 261 197c177 0 261 -88 261 -197c0 -73 -39 -127 -103 -150c80 -31 126 -84 126 -173c0 -61 -21 -220 -284 -220c-264 0 -284 158 -284 220c0 89 45 142 125 173zM325 102c104 0 132 62 132 111c0 36 -15 112 -132 112
s-132 -77 -132 -112c0 -48 28 -111 132 -111zM325 418c87 0 116 50 116 95c0 53 -48 85 -116 85c-60 0 -116 -23 -116 -85c0 -80 69 -95 116 -95z" />
    <glyph glyph-name="nine" unicode="9" 
d="M61 164h143c11 -43 60 -62 111 -62c71 0 127 43 135 178c-23 -23 -70 -63 -155 -63c-144 0 -248 98 -248 239c0 109 53 264 270 264c69 0 284 -7 284 -354c0 -75 -10 -386 -293 -386c-176 0 -231 111 -247 184zM450 458c0 32 -15 140 -131 140c-92 0 -127 -74 -127 -138
c0 -84 55 -135 128 -135c96 0 130 71 130 133z" />
    <glyph glyph-name="colon" unicode=":" horiz-adv-x="377" 
d="M106 350v158h165v-158h-165zM106 0v158h165v-158h-165z" />
    <glyph glyph-name="semicolon" unicode=";" horiz-adv-x="377" 
d="M106 350v158h165v-158h-165zM106 0v158h165v-158c0 -45 -7 -174 -165 -177v79c31 0 86 17 86 92v6h-86z" />
    <glyph glyph-name="less" unicode="&#x3c;" horiz-adv-x="672" 
d="M139 357l461 -265l-41 -70l-506 293v84l506 293l41 -70z" />
    <glyph glyph-name="equal" unicode="=" horiz-adv-x="672" 
d="M53 490h566v-80h-566v80zM53 290h566v-80h-566v80z" />
    <glyph glyph-name="greater" unicode="&#x3e;" horiz-adv-x="672" 
d="M533 357l-461 265l41 70l506 -293v-84l-506 -293l-41 70z" />
    <glyph glyph-name="question" unicode="?" horiz-adv-x="584" 
d="M199 0v158h166v-158h-166zM194 477h-154c-5 207 152 235 254 235c148 0 248 -59 248 -184c0 -100 -65 -145 -113 -177c-47 -29 -89 -55 -84 -126h-126v27c0 80 35 117 67 144c38 30 99 58 99 124c0 48 -33 77 -93 77c-19 0 -106 -2 -98 -120z" />
    <glyph glyph-name="at" unicode="@" horiz-adv-x="837" 
d="M573 104l38 -70c-61 -39 -114 -54 -194 -54c-248 0 -370 173 -370 370c0 219 162 370 370 370s370 -127 370 -354c0 -108 -65 -224 -186 -224c-51 0 -73 16 -85 40c-32 -48 -112 -46 -120 -46c-133 0 -178 102 -178 201c0 109 66 202 172 202c28 0 71 -3 102 -34l1 20h99
v-254c0 -39 6 -45 25 -45c63 0 88 73 88 140c0 197 -149 278 -288 278c-180 0 -288 -140 -288 -294c0 -171 115 -294 288 -294c64 0 112 17 156 48zM490 337c0 88 -38 117 -83 117c-48 0 -86 -36 -86 -117c0 -33 9 -117 85 -117c4 0 84 1 84 117z" />
    <glyph glyph-name="A" unicode="A" horiz-adv-x="711" 
d="M170 577v123h269l215 -574h67v-126h-292v123h47l-15 45h-228l-16 -45h44v-123h-271v126h67l173 451h-60zM347 516l-82 -234h161z" />
    <glyph glyph-name="B" unicode="B" horiz-adv-x="758" 
d="M50 564v136h418c183 0 216 -102 216 -178c0 -81 -47 -123 -115 -146v-1c54 -11 149 -51 149 -179c0 -168 -144 -196 -268 -196h-400v136h67v428h-67zM282 295v-159h171c29 0 91 15 91 79c0 67 -52 80 -112 80h-150zM282 564v-140h152c67 0 82 45 82 72
c0 29 -16 68 -89 68h-145z" />
    <glyph glyph-name="C" unicode="C" horiz-adv-x="731" 
d="M685 465h-152c-16 117 -119 119 -156 119s-159 -7 -159 -241c0 -132 60 -227 172 -227c109 0 139 79 147 131h164c-11 -105 -70 -267 -318 -267c-179 0 -343 85 -343 361c0 364 241 379 314 379c83 0 155 -24 195 -80v60h136v-235z" />
    <glyph glyph-name="D" unicode="D" horiz-adv-x="800" 
d="M50 564v136h363c67 0 347 -5 347 -346c0 -331 -249 -354 -362 -354h-348v136h67v428h-67zM282 564v-428h100c129 0 200 70 200 215c0 194 -121 213 -190 213h-110z" />
    <glyph glyph-name="E" unicode="E" horiz-adv-x="715" 
d="M671 465h-136v99h-253v-142h214v-129h-214v-157h267v135h136v-271h-635v136h67v428h-67v136h621v-235z" />
    <glyph glyph-name="F" unicode="F" horiz-adv-x="646" 
d="M626 465h-136v99h-208v-160h185v-136h-185v-132h67v-136h-299v136h67v428h-67v136h576v-235z" />
    <glyph glyph-name="G" unicode="G" horiz-adv-x="801" 
d="M714 465h-146c-3 28 -44 119 -160 119c-192 0 -190 -197 -190 -237c0 -42 4 -231 185 -231c72 0 153 41 161 137h-138v127h355v-127h-59v-253h-123v75h-2c-47 -69 -118 -95 -215 -95c-302 0 -342 239 -342 372c0 142 65 368 341 368c72 0 150 -20 198 -81v61h135v-235z
" />
    <glyph glyph-name="H" unicode="H" horiz-adv-x="832" 
d="M485 0v136h65v168h-268v-168h65v-136h-297v136h67v428h-67v136h297v-136h-65v-132h268v132h-65v136h297v-136h-67v-428h67v-136h-297z" />
    <glyph glyph-name="I" unicode="I" horiz-adv-x="399" 
d="M50 564v136h299v-136h-67v-428h67v-136h-299v136h67v428h-67z" />
    <glyph glyph-name="J" unicode="J" horiz-adv-x="625" 
d="M280 564v136h305v-136h-67v-311c0 -240 -129 -273 -241 -273c-217 0 -251 151 -251 234v44h165v-28c0 -76 21 -114 85 -114s77 42 77 114v334h-73z" />
    <glyph glyph-name="K" unicode="K" horiz-adv-x="725" 
d="M302 352l161 217h-51v131h290v-136h-60l-164 -199l192 -229h55v-136h-311v131h58zM282 569v-438h57v-131h-289v136h67v428h-67v136h289v-131h-57z" />
    <glyph glyph-name="L" unicode="L" horiz-adv-x="625" 
d="M50 564v136h299v-136h-67v-428h192v138h136v-274h-560v136h67v428h-67z" />
    <glyph glyph-name="M" unicode="M" horiz-adv-x="1068" 
d="M726 0v136h60v372h-3l-193 -508h-112l-193 508h-3v-372h60v-136h-292v136h67v428h-67v136h306l185 -481l185 481h292v-136h-67v-428h67v-136h-292z" />
    <glyph glyph-name="N" unicode="N" horiz-adv-x="845" 
d="M502 564v136h293v-136h-67v-564h-168l-276 441h-2v-305h61v-136h-293v136h67v428h-67v136h234l276 -438h3v302h-61z" />
    <glyph glyph-name="O" unicode="O" horiz-adv-x="788" 
d="M394 -20c-276 0 -354 207 -354 370s78 370 354 370c241 0 354 -158 354 -370s-113 -370 -354 -370zM394 116c168 0 176 175 176 234c0 64 -8 234 -176 234c-91 0 -175 -49 -175 -234c0 -183 84 -234 175 -234z" />
    <glyph glyph-name="P" unicode="P" horiz-adv-x="724" 
d="M50 564v136h379c147 0 278 -57 278 -226c0 -212 -197 -233 -282 -233h-143v-105h70v-136h-302v136h67v428h-67zM282 564v-187h117c80 0 130 32 130 96c0 91 -93 91 -130 91h-117z" />
    <glyph glyph-name="Q" unicode="Q" horiz-adv-x="787" 
d="M655 -82l-90 95c-39 -19 -88 -33 -172 -33c-315 0 -353 262 -353 370c0 163 77 370 353 370c240 0 354 -158 354 -370c0 -144 -56 -228 -86 -264l81 -86zM393 116c32 0 52 4 71 13l-83 89l79 74l82 -88c11 23 27 66 27 146c0 184 -87 234 -176 234
c-169 0 -175 -169 -175 -234s6 -234 175 -234z" />
    <glyph glyph-name="R" unicode="R" horiz-adv-x="782" 
d="M546 0l-139 258h-125v-122h67v-136h-299v136h67v428h-67v136h399c112 0 264 -44 264 -213c0 -71 -36 -167 -144 -205l85 -146h83v-136h-191zM282 564v-178h140c93 0 117 55 117 88c0 67 -51 90 -123 90h-134z" />
    <glyph glyph-name="S" unicode="S" horiz-adv-x="675" 
d="M606 485h-148c-5 38 -33 99 -124 99c-82 0 -108 -32 -108 -67c0 -60 78 -76 138 -86c149 -27 271 -63 271 -218c0 -57 -5 -233 -279 -233c-69 0 -148 23 -190 78v-58h-122v235h158c0 -43 21 -119 139 -119c61 0 125 16 125 75c0 76 -94 87 -178 106
c-125 27 -231 62 -231 218c0 73 35 140 107 175c39 19 81 30 152 30c61 0 139 -26 168 -73v53h122v-215z" />
    <glyph glyph-name="T" unicode="T" horiz-adv-x="725" 
d="M213 0v136h67v428h-129v-131h-136v267h695v-267h-136v131h-129v-428h67v-136h-299z" />
    <glyph glyph-name="U" unicode="U" horiz-adv-x="820" 
d="M481 564v136h299v-136h-67v-299c0 -71 -11 -285 -303 -285c-295 0 -303 209 -303 285v299h-67v136h299v-136h-67v-272c0 -116 35 -176 138 -176c101 0 138 55 138 176v272h-67z" />
    <glyph glyph-name="V" unicode="V" horiz-adv-x="690" 
d="M-10 564v136h297v-136h-47l113 -364l108 364h-45v136h284v-136h-67l-202 -564h-175l-201 564h-65z" />
    <glyph glyph-name="W" unicode="W" horiz-adv-x="1019" 
d="M730 564v136h299v-136h-72l-149 -564h-182l-120 517l-120 -517h-176l-149 564h-71v136h299v-136h-60l83 -375l122 511h150l122 -511l83 375h-59z" />
    <glyph glyph-name="X" unicode="X" horiz-adv-x="716" 
d="M406 574v126h293v-136h-67l-168 -200l185 -228h67v-136h-308v126h48l-98 138l-98 -138h50v-126h-310v136h67l185 228l-167 200h-67v136h302v-126h-50l93 -127l93 127h-50z" />
    <glyph glyph-name="Y" unicode="Y" horiz-adv-x="641" 
d="M-10 564v136h294v-136h-45l92 -167l91 167h-42v136h271v-136h-65l-179 -300v-128h67v-136h-299v136h67v128l-185 300h-67z" />
    <glyph glyph-name="Z" unicode="Z" horiz-adv-x="652" 
d="M483 265h136v-265h-589v146l364 418h-219v-99h-136v235h563v-127l-371 -437h252v129z" />
    <glyph glyph-name="bracketleft" unicode="[" horiz-adv-x="426" 
d="M106 700h264v-92h-132v-701h132v-92h-264v885z" />
    <glyph glyph-name="backslash" unicode="\" horiz-adv-x="447" 
d="M447 -185h-80l-367 885h80z" />
    <glyph glyph-name="bracketright" unicode="]" horiz-adv-x="426" 
d="M56 700h264v-885h-264v92h132v701h-132v92z" />
    <glyph glyph-name="asciicircum" unicode="^" horiz-adv-x="460" 
d="M229 652l-100 -170h-100l130 218h140l130 -218h-100z" />
    <glyph glyph-name="underscore" unicode="_" horiz-adv-x="497" 
d="M0 -185v80h497v-80h-497z" />
    <glyph glyph-name="grave" unicode="`" horiz-adv-x="349" 
d="M179 700l69 -132h-123l-106 132h160z" />
    <glyph glyph-name="a" unicode="a" horiz-adv-x="632" 
d="M395 0v50h-3c-40 -51 -106 -69 -170 -69c-162 0 -177 104 -177 147c0 116 97 143 189 159c112 16 152 9 155 57v14c-3 67 -65 67 -82 67c-28 0 -93 -6 -93 -81h-145c8 176 183 183 239 183c229 0 233 -131 233 -190v-235h61v-102h-207zM390 210v32
c-32 -17 -65 -20 -100 -27c-32 -5 -89 -17 -89 -73c0 -48 49 -59 78 -59c37 0 111 25 111 127z" />
    <glyph glyph-name="b" unicode="b" horiz-adv-x="673" 
d="M37 598v102h213v-243c39 47 96 70 153 70c148 0 235 -108 235 -271c0 -195 -116 -275 -233 -275c-71 0 -112 21 -163 80h-3v-61h-202v102h61v496h-61zM242 254c0 -126 58 -171 119 -171c73 0 119 63 119 171c0 89 -32 171 -119 171c-115 0 -119 -134 -119 -171z" />
    <glyph glyph-name="c" unicode="c" horiz-adv-x="597" 
d="M441 508h102v-181h-133c-11 82 -56 98 -99 98c-37 0 -118 -9 -118 -161c0 -169 83 -181 114 -181c80 0 100 74 100 109h150c-5 -79 -56 -211 -251 -211c-166 0 -271 95 -271 272c0 156 78 274 256 274c67 0 119 -26 150 -69v50z" />
    <glyph glyph-name="d" unicode="d" horiz-adv-x="672" 
d="M361 598v102h213v-598h61v-102h-213v61h-2c-51 -56 -90 -80 -154 -80c-143 0 -231 112 -231 275c0 160 89 271 234 271c51 0 118 -25 153 -70v141h-61zM430 254c0 112 -43 171 -119 171c-85 0 -118 -83 -118 -171c0 -108 46 -171 118 -171c61 0 119 45 119 171z" />
    <glyph glyph-name="e" unicode="e" horiz-adv-x="616" 
d="M418 147h154c-40 -144 -171 -166 -264 -166c-67 0 -273 14 -273 274c0 178 116 272 282 272c157 0 225 -91 249 -179c15 -51 14 -100 14 -131h-387c0 -49 24 -134 122 -134c44 0 90 19 103 64zM193 302h232c-3 109 -70 123 -107 123c-90 0 -122 -71 -125 -123z" />
    <glyph glyph-name="f" unicode="f" horiz-adv-x="385" 
d="M37 0v102h66v304h-73v102h73v64c0 102 72 134 188 134c35 0 78 -3 89 -6v-102c-13 3 -48 6 -67 6c-57 0 -58 -42 -58 -58v-38h84v-102h-84v-304h66v-102h-284z" />
    <glyph glyph-name="g" unicode="g" horiz-adv-x="673" 
d="M72 -40h148c5 -21 23 -57 99 -57c95 0 104 84 104 121v50h-4c-43 -43 -88 -62 -152 -62c-119 0 -232 71 -232 246c0 168 89 269 234 269c40 0 103 -3 151 -75h3v56h213v-102h-61v-359c0 -220 -151 -246 -257 -246c-96 0 -222 18 -246 159zM310 114c48 0 117 15 117 151
c0 100 -46 160 -118 160c-100 0 -116 -111 -116 -158c0 -53 12 -153 117 -153z" />
    <glyph glyph-name="h" unicode="h" horiz-adv-x="688" 
d="M37 598v102h213v-247c64 75 151 74 172 74c83 0 168 -36 168 -208v-217h61v-102h-271v102h58v192c0 47 -5 131 -86 131c-100 0 -102 -120 -102 -139v-184h58v-102h-271v102h61v496h-61z" />
    <glyph glyph-name="i" unicode="i" horiz-adv-x="348" 
d="M37 406v102h213v-406h61v-102h-274v102h61v304h-61zM98 581v119h152v-119h-152z" />
    <glyph glyph-name="j" unicode="j" horiz-adv-x="331" 
d="M53 406v102h213v-533c0 -160 -94 -167 -146 -167c-35 0 -63 0 -95 7v102c5 -1 9 -2 14 -2c73 0 75 38 75 75v416h-61zM114 581v119h152v-119h-152z" />
    <glyph glyph-name="k" unicode="k" horiz-adv-x="598" 
d="M37 598v102h213v-603h61v-97h-274v102h61v496h-61zM265 254l106 157h-26v97h230v-102h-57l-111 -137l123 -167h63v-102h-154z" />
    <glyph glyph-name="l" unicode="l" horiz-adv-x="348" 
d="M37 598v102h213v-598h61v-102h-274v102h61v496h-61z" />
    <glyph glyph-name="m" unicode="m" horiz-adv-x="990" 
d="M363 0v102h56v197c0 76 -16 126 -77 126c-39 0 -92 -33 -92 -133v-190h56v-102h-269v102h61v304h-61v102h203v-74c56 80 113 93 156 93c96 0 133 -59 149 -102c67 99 140 102 174 102c164 0 173 -150 173 -218v-207h61v-102h-269v102h56v197c0 53 -8 126 -76 126
c-43 0 -93 -32 -93 -133v-190h56v-102h-264z" />
    <glyph glyph-name="n" unicode="n" horiz-adv-x="688" 
d="M37 406v102h207v-61c41 56 108 80 176 80s170 -19 170 -208v-217h61v-102h-271v102h58v192c0 50 -5 131 -86 131c-100 0 -102 -117 -102 -139v-184h58v-102h-271v102h61v304h-61z" />
    <glyph glyph-name="o" unicode="o" horiz-adv-x="626" 
d="M313 -19c-158 0 -278 87 -278 274c0 200 137 272 278 272c159 0 278 -87 278 -272c0 -187 -120 -274 -278 -274zM313 83c109 0 120 108 120 172c0 162 -83 170 -120 170c-34 0 -120 -8 -120 -170c0 -65 12 -172 120 -172z" />
    <glyph glyph-name="p" unicode="p" horiz-adv-x="673" 
d="M37 406v102h203v-61h3c59 73 126 80 164 80c143 0 231 -106 231 -274c0 -160 -89 -272 -234 -272c-20 0 -104 5 -154 71v-135h61v-102h-274v102h61v489h-61zM243 255c0 -88 30 -172 119 -172c88 0 118 84 118 172c0 142 -73 170 -118 170c-46 0 -119 -28 -119 -170z" />
    <glyph glyph-name="q" unicode="q" horiz-adv-x="674" 
d="M637 -83v-102h-274v102h61v135c-40 -52 -100 -71 -153 -71c-120 0 -236 80 -236 272c0 197 113 274 234 274c62 0 136 -33 157 -80h6v61h205v-102h-61v-489h61zM432 255c0 142 -73 170 -119 170c-99 0 -120 -110 -120 -170c0 -63 22 -172 120 -172c101 0 119 108 119 172
z" />
    <glyph glyph-name="r" unicode="r" horiz-adv-x="461" 
d="M37 406v102h213v-83c40 83 112 102 179 102h18v-102c-7 1 -13 1 -20 1h-20c-87 0 -157 -39 -157 -218v-106h61v-102h-274v102h61v304h-61z" />
    <glyph glyph-name="s" unicode="s" horiz-adv-x="563" 
d="M394 508h109v-150h-131c0 45 -54 67 -91 67c-27 0 -79 -6 -79 -47c0 -51 72 -61 127 -69c87 -13 199 -37 199 -155c0 -77 -35 -173 -239 -173c-61 0 -113 21 -145 56v-37h-109v160h149c3 -56 43 -77 104 -77c35 0 82 15 82 54c0 59 -70 64 -146 77
c-75 13 -180 36 -180 157c0 109 80 156 207 156c56 0 112 -17 143 -53v34z" />
    <glyph glyph-name="t" unicode="t" horiz-adv-x="386" 
d="M13 406v102h92v152h152v-152h108v-102h-108v-268c0 -23 13 -45 60 -45c23 0 40 6 48 9v-102c-39 -8 -91 -14 -124 -14c-101 0 -136 44 -136 148v272h-92z" />
    <glyph glyph-name="u" unicode="u" horiz-adv-x="688" 
d="M651 102v-102h-213v61c-56 -63 -110 -80 -170 -80c-164 0 -170 148 -170 209v216h-61v102h213v-294c0 -100 29 -131 85 -131c96 0 103 103 103 140v183h-61v102h213v-406h61z" />
    <glyph glyph-name="v" unicode="v" horiz-adv-x="585" 
d="M0 406v102h268v-102h-54l80 -273l80 273h-49v102h260v-102h-64l-148 -406h-168l-149 406h-56z" />
    <glyph glyph-name="w" unicode="w" horiz-adv-x="865" 
d="M616 406v102h249v-102h-58l-132 -406h-146l-97 344l-97 -344h-146l-133 406h-56v102h257v-102h-50l66 -256l94 358h138l94 -358l66 256h-49z" />
    <glyph glyph-name="x" unicode="x" horiz-adv-x="564" 
d="M304 0v92h37l-63 84l-66 -84h34v-92h-241v102h59l133 161l-116 143h-59v102h248v-92h-35l53 -76l55 76h-33v92h240v-102h-61l-119 -143l131 -161h58v-102h-255z" />
    <glyph glyph-name="y" unicode="y" horiz-adv-x="595" 
d="M0 406v102h278v-102h-48l88 -229l63 229h-49v102h263v-102h-58l-214 -591h-196v102h93l28 85l-192 404h-56z" />
    <glyph glyph-name="z" unicode="z" horiz-adv-x="523" 
d="M391 196h102v-196h-463v102l273 304h-153v-79h-102v181h432v-101l-268 -305h179v94z" />
    <glyph glyph-name="braceleft" unicode="{" horiz-adv-x="503" 
d="M132 249v93c43 0 89 33 89 130c0 19 -1 34 -2 53c-1 17 -2 33 -2 50c0 145 105 167 182 164v-73c-60 -16 -70 -62 -70 -91c0 -19 2 -36 3 -55c1 -11 2 -20 2 -31v-31c0 -63 -23 -124 -114 -159v-7c92 -40 114 -89 114 -159v-31c0 -11 -1 -20 -2 -31c-1 -19 -3 -37 -3 -56
c0 -60 42 -85 70 -90v-73c-141 -8 -182 76 -182 163c0 38 4 46 4 104c0 92 -41 125 -89 130z" />
    <glyph glyph-name="bar" unicode="|" horiz-adv-x="498" 
d="M208 -224v1053h82v-1053h-82z" />
    <glyph glyph-name="braceright" unicode="}" horiz-adv-x="503" 
d="M371 342v-93c-85 -8 -89 -101 -89 -130c0 -60 4 -77 4 -104c0 -163 -142 -167 -182 -163v73c28 6 70 29 70 90c0 19 -2 37 -3 56c-1 11 -2 20 -2 31v31c0 67 22 119 114 159v7c-91 35 -114 96 -114 159v31c0 11 1 20 2 31c1 19 3 36 3 55c0 30 -10 75 -70 91v73
c69 3 182 -19 182 -164c0 -23 -4 -44 -4 -103c0 -96 46 -130 89 -130z" />
    <glyph glyph-name="asciitilde" unicode="~" horiz-adv-x="664" 
d="M121 268l-69 36c22 57 75 148 163 148c36 0 67 -12 87 -23l103 -55c15 -8 29 -13 52 -13c43 0 67 36 86 81l69 -36c-22 -57 -76 -148 -163 -148c-36 0 -67 12 -87 23l-103 55c-15 9 -33 13 -53 13c-48 0 -74 -45 -85 -81z" />
    <glyph glyph-name="Zcaron" horiz-adv-x="652" 
d="M483 265h136v-265h-589v146l364 418h-219v-99h-136v235h563v-127l-371 -437h252v129zM323 792l92 92h135l-113 -132h-228l-113 132h135z" />
    <glyph glyph-name="Zcaron" unicode="&#x17d;" horiz-adv-x="652" 
d="M483 265h136v-265h-589v146l364 418h-219v-99h-136v235h563v-127l-371 -437h252v129zM323 792l92 92h135l-113 -132h-228l-113 132h135z" />
    <glyph glyph-name="zcaron" horiz-adv-x="523" 
d="M391 196h102v-196h-463v102l273 304h-153v-79h-102v181h432v-101l-268 -305h179v94zM258 608l92 92h119l-111 -132h-200l-111 132h119z" />
    <glyph glyph-name="zcaron" unicode="&#x17e;" horiz-adv-x="523" 
d="M391 196h102v-196h-463v102l273 304h-153v-79h-102v181h432v-101l-268 -305h179v94zM258 608l92 92h119l-111 -132h-200l-111 132h119z" />
    <glyph glyph-name="uni00A0" unicode="&#xa0;" horiz-adv-x="233" 
 />
    <glyph glyph-name="exclamdown" unicode="&#xa1;" horiz-adv-x="384" 
d="M278 -192h-172v183l43 292h86l43 -292v-183zM109 350v158h166v-158h-166z" />
    <glyph glyph-name="cent" unicode="&#xa2;" 
d="M471 508h102v-181h-133c-11 82 -56 98 -99 98c-37 0 -118 -9 -118 -161c0 -169 83 -181 114 -181c80 0 100 74 100 109h150c-5 -74 -49 -193 -212 -209v-115h-79v115c-144 15 -231 106 -231 270c0 148 70 262 231 273v108h79v-114c41 -10 73 -31 96 -62v50z" />
    <glyph glyph-name="sterling" unicode="&#xa3;" 
d="M537 169l70 -109c-51 -45 -90 -83 -155 -83c-98 0 -130 59 -217 59c-35 0 -68 -16 -95 -39l-75 113c43 32 87 77 87 133c0 9 -2 32 -9 48h-102v79h65c-31 48 -37 86 -37 123c0 140 87 227 247 227c61 0 134 -31 150 -76v56h136v-242h-152c1 84 -32 141 -116 141
c-83 0 -107 -61 -107 -116c0 -33 12 -62 43 -113h135v-79h-115c1 -7 2 -13 2 -20c0 -20 -1 -78 -48 -115l2 -4c16 7 43 10 62 10c59 0 88 -38 146 -38c24 0 51 6 83 45z" />
    <glyph glyph-name="currency" unicode="&#xa4;" 
d="M36 325c0 61 18 118 50 165l-110 111l74 74l110 -110c47 33 103 52 166 52c61 0 117 -19 164 -51l109 109l74 -74l-109 -109c33 -48 52 -104 52 -167s-19 -119 -51 -166l108 -108l-74 -74l-108 107c-47 -33 -102 -52 -165 -52c-64 0 -120 19 -167 52l-109 -107l-74 74
l109 109c-31 47 -49 104 -49 165zM134 323c0 -104 87 -191 192 -191c104 0 192 87 192 191c0 105 -88 194 -192 194c-105 0 -192 -89 -192 -194z" />
    <glyph glyph-name="yen" unicode="&#xa5;" 
d="M514 226h-103v-29h103v-57h-103v-34h67v-106h-299v106h67v34h-103v57h103v29h-103v56h92l-171 282h-67v136h294v-136h-45l89 -177l88 177h-42v136h271v-136h-65l-166 -282h93v-56z" />
    <glyph glyph-name="brokenbar" unicode="&#xa6;" horiz-adv-x="498" 
d="M208 206h82v-430h-82v430zM290 399h-82v430h82v-430z" />
    <glyph glyph-name="section" unicode="&#xa7;" horiz-adv-x="620" 
d="M529 529h-134c-4 57 -42 86 -86 86c-43 0 -68 -24 -68 -59c0 -54 49 -52 161 -89c99 -32 163 -76 163 -185c0 -48 -13 -119 -101 -164c35 -31 52 -54 52 -105c0 -88 -49 -177 -195 -177c-41 0 -104 15 -128 67v-47h-116v189h136c3 -93 77 -96 96 -96c16 0 75 1 75 61
c0 53 -55 65 -134 86c-72 19 -196 53 -196 200c0 80 49 130 103 152c-31 24 -48 65 -48 110c0 101 68 162 185 162c24 0 90 -7 119 -55v35h116v-171zM267 224l119 -35c21 5 60 26 60 74c0 20 -7 57 -92 84l-118 36c-36 -8 -60 -38 -60 -73c0 -50 47 -73 91 -86z" />
    <glyph glyph-name="dieresis" unicode="&#xa8;" horiz-adv-x="540" 
d="M50 581v119h152v-119h-152zM332 581v119h152v-119h-152z" />
    <glyph glyph-name="copyright" unicode="&#xa9;" horiz-adv-x="806" 
d="M53 350c0 193 154 350 350 350s350 -157 350 -350s-154 -350 -350 -350s-350 157 -350 350zM137 350c0 -156 119 -278 266 -278s266 122 266 278s-119 278 -266 278s-266 -122 -266 -278zM544 405h-77c0 44 -21 66 -64 66c-59 0 -74 -64 -74 -122c0 -91 44 -113 79 -113
c44 0 58 35 61 59h82c-19 -107 -84 -125 -144 -125c-137 0 -166 111 -166 179c0 152 92 188 159 188c20 0 54 -6 73 -30v23h71v-125z" />
    <glyph glyph-name="ordfeminine" unicode="&#xaa;" horiz-adv-x="461" 
d="M175 610h-87c0 42 24 110 143 110c140 0 140 -79 140 -114v-141h32v-61h-119v30h-2c-37 -39 -75 -41 -102 -41c-81 0 -106 43 -106 88c0 64 51 87 112 95c59 8 91 3 94 34v9c0 40 -41 40 -49 40c-52 0 -56 -33 -56 -49zM281 530v19c-19 -11 -37 -13 -60 -16
c-47 -7 -54 -25 -54 -44c0 -27 27 -35 47 -35c64 0 67 67 67 76zM78 283v61h325v-61h-325z" />
    <glyph glyph-name="guillemotleft" unicode="&#xab;" horiz-adv-x="470" 
d="M125 268l82 -70v-138l-150 138v140l150 138v-138zM314 268l82 -70v-138l-150 138v140l150 138v-138z" />
    <glyph glyph-name="logicalnot" unicode="&#xac;" horiz-adv-x="672" 
d="M53 390h566v-224h-85v144h-481v80z" />
    <glyph glyph-name="uni00AD" unicode="&#xad;" horiz-adv-x="442" 
d="M75 205v125h292v-125h-292z" />
    <glyph glyph-name="registered" unicode="&#xae;" horiz-adv-x="640" 
d="M53 433c0 147 120 267 267 267s267 -120 267 -267s-120 -267 -267 -267s-267 120 -267 267zM373 311l-54 97h-30v-48h21v-49h-115v49h26v157h-26v49h167c37 0 88 -25 88 -78c0 -29 -21 -60 -61 -71l38 -57h27v-49h-81zM289 517v-62h33c23 0 49 5 49 32
c0 28 -25 30 -46 30h-36zM127 432c0 -111 81 -195 192 -195s193 84 193 195c0 112 -82 197 -193 197s-192 -85 -192 -197z" />
    <glyph glyph-name="overscore" unicode="&#xaf;" horiz-adv-x="484" 
d="M50 600v86h384v-86h-384z" />
    <glyph glyph-name="degree" unicode="&#xb0;" horiz-adv-x="300" 
d="M38 608c0 61 51 112 112 112s112 -51 112 -112s-51 -112 -112 -112s-112 51 -112 112zM96 608c0 -31 23 -54 54 -54s54 23 54 54s-23 54 -54 54s-54 -23 -54 -54z" />
    <glyph glyph-name="plusminus" unicode="&#xb1;" horiz-adv-x="672" 
d="M53 450h243v220h80v-220h243v-80h-243v-180h-80v180h-243v80zM53 140h566v-80h-566v80z" />
    <glyph glyph-name="twosuperior" unicode="&#xb2;" horiz-adv-x="472" 
d="M334 418h78v-138h-336v17c0 55 16 92 107 153c93 64 121 74 121 126c0 36 -24 63 -67 63c-44 0 -71 -26 -71 -69v-15h-92v12c0 144 144 145 167 145c21 0 157 -2 157 -132c0 -44 -8 -92 -115 -153c-43 -24 -67 -37 -91 -74h142v65z" />
    <glyph glyph-name="threesuperior" unicode="&#xb3;" horiz-adv-x="484" 
d="M74 433h93c0 -34 17 -84 77 -84c35 0 72 15 72 64c0 57 -53 58 -66 58h-42v69h32c16 0 68 1 68 53c0 47 -43 54 -67 54c-51 0 -65 -25 -68 -78h-88c-3 59 25 151 161 151c124 0 150 -67 150 -119c0 -56 -38 -84 -75 -93v-2c38 -5 89 -27 89 -102
c0 -61 -37 -128 -162 -128c-18 0 -182 -3 -174 157z" />
    <glyph glyph-name="acute" unicode="&#xb4;" horiz-adv-x="345" 
d="M167 700h160l-106 -132h-123z" />
    <glyph glyph-name="mu" unicode="&#xb5;" horiz-adv-x="688" 
d="M250 -185h-152v591h-61v102h213v-266c0 -115 43 -159 95 -159c51 0 93 43 93 159v164h-61v102h213v-406h61v-102h-213v75c-13 -63 -58 -94 -93 -94s-84 33 -95 94v-260z" />
    <glyph glyph-name="mu" unicode="&#x3bc;" horiz-adv-x="688" 
d="M250 -185h-152v591h-61v102h213v-266c0 -115 43 -159 95 -159c51 0 93 43 93 159v164h-61v102h213v-406h61v-102h-213v75c-13 -63 -58 -94 -93 -94s-84 33 -95 94v-260z" />
    <glyph glyph-name="paragraph" unicode="&#xb6;" horiz-adv-x="552" 
d="M386 -185v813h-100v-813h-90v525c-127 0 -179 81 -179 175c0 112 72 185 179 185h341v-72h-61v-813h-90z" />
    <glyph glyph-name="middot" unicode="&#xb7;" horiz-adv-x="250" 
d="M43 189v158h165v-158h-165z" />
    <glyph glyph-name="cedilla" unicode="&#xb8;" horiz-adv-x="299" 
d="M30 -240l18 64c13 -5 31 -9 59 -9s53 4 53 35c0 29 -27 33 -64 34h-17h-14l16 60c7 1 12 1 17 1h19c53 0 147 -16 147 -98c0 -63 -47 -100 -135 -100c-21 0 -54 1 -99 13z" />
    <glyph glyph-name="onesuperior" unicode="&#xb9;" horiz-adv-x="346" 
d="M67 627v73h184v-347h85v-73h-269v73h85v274h-85z" />
    <glyph glyph-name="ordmasculine" unicode="&#xba;" horiz-adv-x="424" 
d="M212 393c-96 0 -167 51 -167 164c0 112 71 163 167 163c132 0 167 -91 167 -163s-35 -164 -167 -164zM212 454c66 0 72 65 72 103c0 37 -6 102 -72 102c-33 0 -72 -17 -72 -102c0 -88 39 -103 72 -103zM64 283v61h298v-61h-298z" />
    <glyph glyph-name="guillemotright" unicode="&#xbb;" horiz-adv-x="470" 
d="M156 268l-82 70v138l150 -138v-140l-150 -138v138zM345 268l-82 70v138l150 -138v-140l-150 -138v138z" />
    <glyph glyph-name="onequarter" unicode="&#xbc;" horiz-adv-x="886" 
d="M631 0v58h55v43h-199v69l198 250h96v-253h55v-66h-55v-43h55v-58h-205zM562 167h124v159zM140 0l600 700h86l-600 -700h-86zM67 627v73h184v-347h85v-73h-269v73h85v274h-85z" />
    <glyph glyph-name="onehalf" unicode="&#xbd;" horiz-adv-x="989" 
d="M851 138h78v-138h-336v17c0 55 16 92 107 153c93 64 121 74 121 126c0 36 -24 63 -67 63c-44 0 -71 -26 -71 -69v-15h-92v12c0 144 144 145 167 145c21 0 157 -2 157 -132c0 -44 -8 -92 -115 -153c-43 -24 -67 -37 -91 -74h142v65zM67 627v73h184v-347h85v-73h-269v73h85
v274h-85zM140 0l600 700h86l-600 -700h-86z" />
    <glyph glyph-name="threequarters" unicode="&#xbe;" horiz-adv-x="906" 
d="M651 0v58h55v43h-199v69l198 250h96v-253h55v-66h-55v-43h55v-58h-205zM582 167h124v159zM160 0l600 700h86l-600 -700h-86zM74 433h93c0 -34 17 -84 77 -84c35 0 72 15 72 64c0 57 -53 58 -66 58h-42v69h32c16 0 68 1 68 53c0 47 -43 54 -67 54c-51 0 -65 -25 -68 -78
h-88c-3 59 25 151 161 151c124 0 150 -67 150 -119c0 -56 -38 -84 -75 -93v-2c38 -5 89 -27 89 -102c0 -61 -37 -128 -162 -128c-18 0 -182 -3 -174 157z" />
    <glyph glyph-name="questiondown" unicode="&#xbf;" horiz-adv-x="584" 
d="M385 508v-158h-166v158h166zM390 31h154c5 -207 -152 -235 -254 -235c-148 0 -248 59 -248 184c0 100 65 145 113 177c47 29 89 55 84 126h126v-27c0 -80 -35 -117 -67 -144c-38 -30 -99 -58 -99 -124c0 -48 33 -77 93 -77c19 0 106 2 98 120z" />
    <glyph glyph-name="Agrave" unicode="&#xc0;" horiz-adv-x="711" 
d="M170 577v123h269l215 -574h67v-126h-292v123h47l-15 45h-228l-16 -45h44v-123h-271v126h67l173 451h-60zM347 516l-82 -234h161zM360 886l69 -132h-123l-106 132h160z" />
    <glyph glyph-name="Aacute" unicode="&#xc1;" horiz-adv-x="711" 
d="M170 577v123h269l215 -574h67v-126h-292v123h47l-15 45h-228l-16 -45h44v-123h-271v126h67l173 451h-60zM347 516l-82 -234h161zM370 885h160l-106 -132h-123z" />
    <glyph glyph-name="Acircumflex" unicode="&#xc2;" horiz-adv-x="711" 
d="M170 577v123h269l215 -574h67v-126h-292v123h47l-15 45h-228l-16 -45h44v-123h-271v126h67l173 451h-60zM347 516l-82 -234h161zM335 858l-92 -92h-135l113 132h228l113 -132h-135z" />
    <glyph glyph-name="Atilde" unicode="&#xc3;" horiz-adv-x="711" 
d="M170 577v123h269l215 -574h67v-126h-292v123h47l-15 45h-228l-16 -45h44v-123h-271v126h67l173 451h-60zM347 516l-82 -234h161zM454 894h96c-19 -112 -83 -136 -126 -136c-42 0 -57 11 -98 27c-35 13 -52 24 -84 24c-35 0 -44 -21 -45 -41h-96c8 51 43 133 126 133
c45 0 67 -12 99 -28c49 -25 77 -25 84 -25c24 0 47 21 44 46z" />
    <glyph glyph-name="Adieresis" unicode="&#xc4;" horiz-adv-x="711" 
d="M170 577v123h269l215 -574h67v-126h-292v123h47l-15 45h-228l-16 -45h44v-123h-271v126h67l173 451h-60zM347 516l-82 -234h161zM138 766v106h142v-106h-142zM386 766v106h142v-106h-142z" />
    <glyph glyph-name="Aring" unicode="&#xc5;" horiz-adv-x="711" 
d="M170 577v123h269l215 -574h67v-126h-292v123h47l-15 45h-228l-16 -45h44v-123h-271v126h67l173 451h-60zM347 516l-82 -234h161zM235 820c0 56 44 100 100 100s100 -44 100 -100s-44 -100 -100 -100s-100 44 -100 100zM293 820c0 -24 18 -42 42 -42s42 18 42 42
s-18 42 -42 42s-42 -18 -42 -42z" />
    <glyph glyph-name="AE" unicode="&#xc6;" horiz-adv-x="1100" 
d="M-10 136h71l245 428h-59v136h809v-235h-136v99h-253v-142h214v-129h-214v-157h267v135h136v-271h-625v123h57v45h-239l-24 -45h53v-123h-302v136zM502 564h-26l-152 -282h178v282z" />
    <glyph glyph-name="Ccedilla" unicode="&#xc7;" horiz-adv-x="731" 
d="M685 465h-152c-16 117 -119 119 -156 119s-159 -7 -159 -241c0 -132 60 -227 172 -227c109 0 139 79 147 131h164c-11 -105 -70 -267 -318 -267c-179 0 -343 85 -343 361c0 364 241 379 314 379c83 0 155 -24 195 -80v60h136v-235zM223 -271l21 77c17 -7 36 -11 71 -11
s65 4 65 40s-33 36 -77 39h-22h-15l18 70c8 1 14 1 21 1h23c65 0 177 -15 177 -114c0 -76 -56 -117 -163 -117c-27 0 -66 0 -119 15z" />
    <glyph glyph-name="Egrave" unicode="&#xc8;" horiz-adv-x="715" 
d="M671 465h-136v99h-253v-142h214v-129h-214v-157h267v135h136v-271h-635v136h67v428h-67v136h621v-235zM398 886l69 -132h-123l-106 132h160z" />
    <glyph glyph-name="Eacute" unicode="&#xc9;" horiz-adv-x="715" 
d="M671 465h-136v99h-253v-142h214v-129h-214v-157h267v135h136v-271h-635v136h67v428h-67v136h621v-235zM384 885h160l-106 -132h-123z" />
    <glyph glyph-name="Ecircumflex" unicode="&#xca;" horiz-adv-x="715" 
d="M671 465h-136v99h-253v-142h214v-129h-214v-157h267v135h136v-271h-635v136h67v428h-67v136h621v-235zM373 858l-92 -92h-135l113 132h228l113 -132h-135z" />
    <glyph glyph-name="Edieresis" unicode="&#xcb;" horiz-adv-x="715" 
d="M671 465h-136v99h-253v-142h214v-129h-214v-157h267v135h136v-271h-635v136h67v428h-67v136h621v-235zM176 766v106h142v-106h-142zM424 766v106h142v-106h-142z" />
    <glyph glyph-name="Igrave" unicode="&#xcc;" horiz-adv-x="399" 
d="M50 564v136h299v-136h-67v-428h67v-136h-299v136h67v428h-67zM198 886l69 -132h-123l-106 132h160z" />
    <glyph glyph-name="Iacute" unicode="&#xcd;" horiz-adv-x="399" 
d="M50 564v136h299v-136h-67v-428h67v-136h-299v136h67v428h-67zM196 885h160l-106 -132h-123z" />
    <glyph glyph-name="Icircumflex" unicode="&#xce;" horiz-adv-x="399" 
d="M50 564v136h299v-136h-67v-428h67v-136h-299v136h67v428h-67zM201 858l-92 -92h-135l113 132h228l113 -132h-135z" />
    <glyph glyph-name="Idieresis" unicode="&#xcf;" horiz-adv-x="399" 
d="M50 564v136h299v-136h-67v-428h67v-136h-299v136h67v428h-67zM6 766v106h142v-106h-142zM254 766v106h142v-106h-142z" />
    <glyph glyph-name="Eth" unicode="&#xd0;" horiz-adv-x="800" 
d="M50 564v136h363c67 0 347 -5 347 -346c0 -331 -249 -354 -362 -354h-348v136h67v187h-89v86h89v155h-67zM282 564v-155h168v-86h-168v-187h100c129 0 200 70 200 215c0 194 -121 213 -190 213h-110z" />
    <glyph glyph-name="Ntilde" unicode="&#xd1;" horiz-adv-x="845" 
d="M502 564v136h293v-136h-67v-564h-168l-276 441h-2v-305h61v-136h-293v136h67v428h-67v136h234l276 -438h3v302h-61zM553 894h96c-19 -112 -83 -136 -126 -136c-42 0 -57 11 -98 27c-35 13 -52 24 -84 24c-35 0 -44 -21 -45 -41h-96c8 51 43 133 126 133
c45 0 67 -12 99 -28c49 -25 77 -25 84 -25c24 0 47 21 44 46z" />
    <glyph glyph-name="Ograve" unicode="&#xd2;" horiz-adv-x="788" 
d="M394 -20c-276 0 -354 207 -354 370s78 370 354 370c241 0 354 -158 354 -370s-113 -370 -354 -370zM394 116c168 0 176 175 176 234c0 64 -8 234 -176 234c-91 0 -175 -49 -175 -234c0 -183 84 -234 175 -234zM401 886l69 -132h-123l-106 132h160z" />
    <glyph glyph-name="Oacute" unicode="&#xd3;" horiz-adv-x="788" 
d="M394 -20c-276 0 -354 207 -354 370s78 370 354 370c241 0 354 -158 354 -370s-113 -370 -354 -370zM394 116c168 0 176 175 176 234c0 64 -8 234 -176 234c-91 0 -175 -49 -175 -234c0 -183 84 -234 175 -234zM390 885h160l-106 -132h-123z" />
    <glyph glyph-name="Ocircumflex" unicode="&#xd4;" horiz-adv-x="788" 
d="M394 -20c-276 0 -354 207 -354 370s78 370 354 370c241 0 354 -158 354 -370s-113 -370 -354 -370zM394 116c168 0 176 175 176 234c0 64 -8 234 -176 234c-91 0 -175 -49 -175 -234c0 -183 84 -234 175 -234zM395 858l-92 -92h-135l113 132h228l113 -132h-135z" />
    <glyph glyph-name="Otilde" unicode="&#xd5;" horiz-adv-x="788" 
d="M394 -20c-276 0 -354 207 -354 370s78 370 354 370c241 0 354 -158 354 -370s-113 -370 -354 -370zM394 116c168 0 176 175 176 234c0 64 -8 234 -176 234c-91 0 -175 -49 -175 -234c0 -183 84 -234 175 -234zM524 894h96c-19 -112 -83 -136 -126 -136
c-42 0 -57 11 -98 27c-35 13 -52 24 -84 24c-35 0 -44 -21 -45 -41h-96c8 51 43 133 126 133c45 0 67 -12 99 -28c49 -25 77 -25 84 -25c24 0 47 21 44 46z" />
    <glyph glyph-name="Odieresis" unicode="&#xd6;" horiz-adv-x="788" 
d="M394 -20c-276 0 -354 207 -354 370s78 370 354 370c241 0 354 -158 354 -370s-113 -370 -354 -370zM394 116c168 0 176 175 176 234c0 64 -8 234 -176 234c-91 0 -175 -49 -175 -234c0 -183 84 -234 175 -234zM198 766v106h142v-106h-142zM446 766v106h142v-106h-142z
" />
    <glyph glyph-name="multiply" unicode="&#xd7;" horiz-adv-x="672" 
d="M98 168l182 182l-182 182l56 56l182 -182l182 182l56 -56l-182 -182l182 -182l-56 -56l-182 182l-182 -182z" />
    <glyph glyph-name="Oslash" unicode="&#xd8;" horiz-adv-x="794" 
d="M55 0l73 88c-67 80 -86 188 -86 262c0 161 78 370 353 370c50 0 157 -8 215 -61l81 99l51 -42l-84 -99c19 -21 91 -102 91 -267c0 -163 -74 -370 -354 -370c-139 0 -202 48 -219 62l-70 -84zM548 485l-272 -323c31 -33 76 -46 119 -46c168 0 176 175 176 234
c0 73 -8 107 -23 135zM241 222l269 320c-30 36 -85 42 -115 42c-91 0 -175 -50 -175 -234c0 -80 16 -117 21 -128z" />
    <glyph glyph-name="Ugrave" unicode="&#xd9;" horiz-adv-x="820" 
d="M481 564v136h299v-136h-67v-299c0 -71 -11 -285 -303 -285c-295 0 -303 209 -303 285v299h-67v136h299v-136h-67v-272c0 -116 35 -176 138 -176c101 0 138 55 138 176v272h-67zM417 886l69 -132h-123l-106 132h160z" />
    <glyph glyph-name="Uacute" unicode="&#xda;" horiz-adv-x="820" 
d="M481 564v136h299v-136h-67v-299c0 -71 -11 -285 -303 -285c-295 0 -303 209 -303 285v299h-67v136h299v-136h-67v-272c0 -116 35 -176 138 -176c101 0 138 55 138 176v272h-67zM426 885h160l-106 -132h-123z" />
    <glyph glyph-name="Ucircumflex" unicode="&#xdb;" horiz-adv-x="820" 
d="M481 564v136h299v-136h-67v-299c0 -71 -11 -285 -303 -285c-295 0 -303 209 -303 285v299h-67v136h299v-136h-67v-272c0 -116 35 -176 138 -176c101 0 138 55 138 176v272h-67zM412 858l-92 -92h-135l113 132h228l113 -132h-135z" />
    <glyph glyph-name="Udieresis" unicode="&#xdc;" horiz-adv-x="820" 
d="M481 564v136h299v-136h-67v-299c0 -71 -11 -285 -303 -285c-295 0 -303 209 -303 285v299h-67v136h299v-136h-67v-272c0 -116 35 -176 138 -176c101 0 138 55 138 176v272h-67zM215 766v106h142v-106h-142zM463 766v106h142v-106h-142z" />
    <glyph glyph-name="Yacute" unicode="&#xdd;" horiz-adv-x="641" 
d="M-10 564v136h294v-136h-45l92 -167l91 167h-42v136h271v-136h-65l-179 -300v-128h67v-136h-299v136h67v128l-185 300h-67zM315 885h160l-106 -132h-123z" />
    <glyph glyph-name="Thorn" unicode="&#xde;" horiz-adv-x="724" 
d="M117 136v428h-67v136h299v-96h-67v-37h147c147 0 278 -35 278 -204c0 -195 -197 -219 -282 -219h-143v-48h67v-96h-299v136h67zM282 439v-167h117c80 0 130 24 130 88c0 80 -93 79 -130 79h-117z" />
    <glyph glyph-name="germandbls" unicode="&#xdf;" 
d="M37 102h61v397c0 147 98 212 238 212c153 0 217 -80 217 -171c0 -61 -34 -106 -82 -125v-2c61 -13 147 -55 147 -199c0 -221 -202 -221 -227 -221c-28 0 -52 0 -79 7v102c15 -5 23 -7 38 -7c73 0 111 50 111 123c0 92 -52 118 -136 118h-18v102h16c56 0 89 25 89 90
c0 28 -10 81 -75 81c-53 0 -87 -20 -87 -143v-466h-213v102z" />
    <glyph glyph-name="agrave" unicode="&#xe0;" horiz-adv-x="632" 
d="M395 0v50h-3c-40 -51 -106 -69 -170 -69c-162 0 -177 104 -177 147c0 116 97 143 189 159c112 16 152 9 155 57v14c-3 67 -65 67 -82 67c-28 0 -93 -6 -93 -81h-145c8 176 183 183 239 183c229 0 233 -131 233 -190v-235h61v-102h-207zM390 210v32
c-32 -17 -65 -20 -100 -27c-32 -5 -89 -17 -89 -73c0 -48 49 -59 78 -59c37 0 111 25 111 127zM316 700l69 -132h-123l-106 132h160z" />
    <glyph glyph-name="aacute" unicode="&#xe1;" horiz-adv-x="632" 
d="M395 0v50h-3c-40 -51 -106 -69 -170 -69c-162 0 -177 104 -177 147c0 116 97 143 189 159c112 16 152 9 155 57v14c-3 67 -65 67 -82 67c-28 0 -93 -6 -93 -81h-145c8 176 183 183 239 183c229 0 233 -131 233 -190v-235h61v-102h-207zM390 210v32
c-32 -17 -65 -20 -100 -27c-32 -5 -89 -17 -89 -73c0 -48 49 -59 78 -59c37 0 111 25 111 127zM298 700h160l-106 -132h-123z" />
    <glyph glyph-name="acircumflex" unicode="&#xe2;" horiz-adv-x="632" 
d="M395 0v50h-3c-40 -51 -106 -69 -170 -69c-162 0 -177 104 -177 147c0 116 97 143 189 159c112 16 152 9 155 57v14c-3 67 -65 67 -82 67c-28 0 -93 -6 -93 -81h-145c8 176 183 183 239 183c229 0 233 -131 233 -190v-235h61v-102h-207zM390 210v32
c-32 -17 -65 -20 -100 -27c-32 -5 -89 -17 -89 -73c0 -48 49 -59 78 -59c37 0 111 25 111 127zM312 660l-92 -92h-119l111 132h200l111 -132h-119z" />
    <glyph glyph-name="atilde" unicode="&#xe3;" horiz-adv-x="632" 
d="M395 0v50h-3c-40 -51 -106 -69 -170 -69c-162 0 -177 104 -177 147c0 116 97 143 189 159c112 16 152 9 155 57v14c-3 67 -65 67 -82 67c-28 0 -93 -6 -93 -81h-145c8 176 183 183 239 183c229 0 233 -131 233 -190v-235h61v-102h-207zM390 210v32
c-32 -17 -65 -20 -100 -27c-32 -5 -89 -17 -89 -73c0 -48 49 -59 78 -59c37 0 111 25 111 127zM437 700h92c-24 -110 -82 -128 -122 -128c-45 0 -54 8 -96 27c-49 21 -69 24 -81 24c-25 0 -40 -14 -44 -41h-93c13 80 66 126 122 126c43 0 75 -16 96 -27
c39 -19 55 -24 82 -24s41 19 44 43z" />
    <glyph glyph-name="adieresis" unicode="&#xe4;" horiz-adv-x="632" 
d="M395 0v50h-3c-40 -51 -106 -69 -170 -69c-162 0 -177 104 -177 147c0 116 97 143 189 159c112 16 152 9 155 57v14c-3 67 -65 67 -82 67c-28 0 -93 -6 -93 -81h-145c8 176 183 183 239 183c229 0 233 -131 233 -190v-235h61v-102h-207zM390 210v32
c-32 -17 -65 -20 -100 -27c-32 -5 -89 -17 -89 -73c0 -48 49 -59 78 -59c37 0 111 25 111 127zM91 581v119h152v-119h-152zM373 581v119h152v-119h-152z" />
    <glyph glyph-name="aring" unicode="&#xe5;" horiz-adv-x="632" 
d="M395 0v50h-3c-40 -51 -106 -69 -170 -69c-162 0 -177 104 -177 147c0 116 97 143 189 159c112 16 152 9 155 57v14c-3 67 -65 67 -82 67c-28 0 -93 -6 -93 -81h-145c8 176 183 183 239 183c229 0 233 -131 233 -190v-235h61v-102h-207zM390 210v32
c-32 -17 -65 -20 -100 -27c-32 -5 -89 -17 -89 -73c0 -48 49 -59 78 -59c37 0 111 25 111 127zM202 639c0 56 43 99 99 99s99 -43 99 -99s-43 -99 -99 -99s-99 43 -99 99zM259 639c0 -24 18 -42 42 -42s42 18 42 42s-18 42 -42 42s-42 -18 -42 -42z" />
    <glyph glyph-name="ae" unicode="&#xe6;" horiz-adv-x="958" 
d="M205 344h-139c11 153 130 183 246 183c51 0 123 -5 165 -79c47 74 147 79 173 79c163 0 269 -99 269 -282v-22h-389c0 -53 22 -140 122 -140c36 0 87 12 103 64h153c-32 -128 -145 -166 -249 -166c-92 0 -149 19 -194 83c-30 -46 -81 -83 -195 -83
c-172 0 -223 74 -223 154c0 140 151 148 239 159c100 11 106 20 106 50v15c0 10 0 66 -87 66c-32 0 -100 -5 -100 -81zM394 189v53c-33 -17 -53 -19 -101 -27c-19 -3 -88 -14 -88 -73c0 -47 38 -59 81 -59c37 0 108 19 108 106zM530 302h231c-3 116 -75 123 -106 123
c-101 0 -122 -92 -125 -123z" />
    <glyph glyph-name="ccedilla" unicode="&#xe7;" horiz-adv-x="597" 
d="M441 508h102v-181h-133c-11 82 -56 98 -99 98c-37 0 -118 -9 -118 -161c0 -169 83 -181 114 -181c80 0 100 74 100 109h150c-5 -79 -56 -211 -251 -211c-166 0 -271 95 -271 272c0 156 78 274 256 274c67 0 119 -26 150 -69v50zM176 -240l18 64c13 -5 31 -9 59 -9
s53 4 53 35c0 29 -27 33 -64 34h-17h-14l16 60c7 1 12 1 17 1h19c53 0 147 -16 147 -98c0 -63 -47 -100 -135 -100c-21 0 -54 1 -99 13z" />
    <glyph glyph-name="egrave" unicode="&#xe8;" horiz-adv-x="616" 
d="M418 147h154c-40 -144 -171 -166 -264 -166c-67 0 -273 14 -273 274c0 178 116 272 282 272c157 0 225 -91 249 -179c15 -51 14 -100 14 -131h-387c0 -49 24 -134 122 -134c44 0 90 19 103 64zM193 302h232c-3 109 -70 123 -107 123c-90 0 -122 -71 -125 -123zM314 700
l69 -132h-123l-106 132h160z" />
    <glyph glyph-name="eacute" unicode="&#xe9;" horiz-adv-x="616" 
d="M418 147h154c-40 -144 -171 -166 -264 -166c-67 0 -273 14 -273 274c0 178 116 272 282 272c157 0 225 -91 249 -179c15 -51 14 -100 14 -131h-387c0 -49 24 -134 122 -134c44 0 90 19 103 64zM193 302h232c-3 109 -70 123 -107 123c-90 0 -122 -71 -125 -123zM314 700
h160l-106 -132h-123z" />
    <glyph glyph-name="ecircumflex" unicode="&#xea;" horiz-adv-x="616" 
d="M418 147h154c-40 -144 -171 -166 -264 -166c-67 0 -273 14 -273 274c0 178 116 272 282 272c157 0 225 -91 249 -179c15 -51 14 -100 14 -131h-387c0 -49 24 -134 122 -134c44 0 90 19 103 64zM193 302h232c-3 109 -70 123 -107 123c-90 0 -122 -71 -125 -123zM310 660
l-92 -92h-119l111 132h200l111 -132h-119z" />
    <glyph glyph-name="edieresis" unicode="&#xeb;" horiz-adv-x="616" 
d="M99 581v119h152v-119h-152zM363 581v119h152v-119h-152zM418 147h154c-40 -144 -171 -166 -264 -166c-67 0 -273 14 -273 274c0 178 116 272 282 272c157 0 225 -91 249 -179c15 -51 14 -100 14 -131h-387c0 -49 24 -134 122 -134c44 0 90 19 103 64zM193 302h232
c-3 109 -70 123 -107 123c-90 0 -122 -71 -125 -123z" />
    <glyph glyph-name="igrave" unicode="&#xec;" horiz-adv-x="348" 
d="M37 406v102h213v-406h61v-102h-274v102h61v304h-61zM145 700l69 -132h-123l-106 132h160z" />
    <glyph glyph-name="iacute" unicode="&#xed;" horiz-adv-x="348" 
d="M37 406v102h213v-406h61v-102h-274v102h61v304h-61zM174 700h160l-106 -132h-123z" />
    <glyph glyph-name="icircumflex" unicode="&#xee;" horiz-adv-x="348" 
d="M37 406v102h213v-406h61v-102h-274v102h61v304h-61zM155 660l-92 -92h-119l111 132h200l111 -132h-119z" />
    <glyph glyph-name="idieresis" unicode="&#xef;" horiz-adv-x="348" 
d="M37 406v102h213v-406h61v-102h-274v102h61v304h-61zM-70 581v119h152v-119h-152zM212 581v119h152v-119h-152z" />
    <glyph glyph-name="eth" unicode="&#xf0;" horiz-adv-x="621" 
d="M143 652l20 103c100 -13 177 -40 204 -51l85 52l33 -49l-61 -38c131 -93 162 -229 162 -346c0 -338 -213 -342 -277 -342c-165 0 -274 98 -274 269c0 175 124 246 264 246c43 0 137 -18 175 -107h7c-16 83 -83 166 -171 211l-122 -75l-34 50l88 53c-39 12 -74 20 -99 24z
M310 394c-105 0 -117 -100 -117 -153c0 -47 16 -158 116 -158c72 0 118 60 118 160c0 136 -69 151 -117 151z" />
    <glyph glyph-name="ntilde" unicode="&#xf1;" horiz-adv-x="688" 
d="M37 406v102h207v-61c41 56 108 80 176 80s170 -19 170 -208v-217h61v-102h-271v102h58v192c0 50 -5 131 -86 131c-100 0 -102 -117 -102 -139v-184h58v-102h-271v102h61v304h-61zM470 700h92c-24 -110 -82 -128 -122 -128c-45 0 -54 8 -96 27c-49 21 -69 24 -81 24
c-25 0 -40 -14 -44 -41h-93c13 80 66 126 122 126c43 0 75 -16 96 -27c39 -19 55 -24 82 -24s41 19 44 43z" />
    <glyph glyph-name="ograve" unicode="&#xf2;" horiz-adv-x="626" 
d="M313 -19c-158 0 -278 87 -278 274c0 200 137 272 278 272c159 0 278 -87 278 -272c0 -187 -120 -274 -278 -274zM313 83c109 0 120 108 120 172c0 162 -83 170 -120 170c-34 0 -120 -8 -120 -170c0 -65 12 -172 120 -172zM318 700l69 -132h-123l-106 132h160z" />
    <glyph glyph-name="oacute" unicode="&#xf3;" horiz-adv-x="626" 
d="M313 -19c-158 0 -278 87 -278 274c0 200 137 272 278 272c159 0 278 -87 278 -272c0 -187 -120 -274 -278 -274zM313 83c109 0 120 108 120 172c0 162 -83 170 -120 170c-34 0 -120 -8 -120 -170c0 -65 12 -172 120 -172zM308 700h160l-106 -132h-123z" />
    <glyph glyph-name="ocircumflex" unicode="&#xf4;" horiz-adv-x="626" 
d="M313 -19c-158 0 -278 87 -278 274c0 200 137 272 278 272c159 0 278 -87 278 -272c0 -187 -120 -274 -278 -274zM313 83c109 0 120 108 120 172c0 162 -83 170 -120 170c-34 0 -120 -8 -120 -170c0 -65 12 -172 120 -172zM314 660l-92 -92h-119l111 132h200l111 -132
h-119z" />
    <glyph glyph-name="otilde" unicode="&#xf5;" horiz-adv-x="626" 
d="M313 -19c-158 0 -278 87 -278 274c0 200 137 272 278 272c159 0 278 -87 278 -272c0 -187 -120 -274 -278 -274zM313 83c109 0 120 108 120 172c0 162 -83 170 -120 170c-34 0 -120 -8 -120 -170c0 -65 12 -172 120 -172zM440 700h92c-24 -110 -82 -128 -122 -128
c-45 0 -54 8 -96 27c-49 21 -69 24 -81 24c-25 0 -40 -14 -44 -41h-93c13 80 66 126 122 126c43 0 75 -16 96 -27c39 -19 55 -24 82 -24s41 19 44 43z" />
    <glyph glyph-name="odieresis" unicode="&#xf6;" horiz-adv-x="626" 
d="M313 -19c-158 0 -278 87 -278 274c0 200 137 272 278 272c159 0 278 -87 278 -272c0 -187 -120 -274 -278 -274zM313 83c109 0 120 108 120 172c0 162 -83 170 -120 170c-34 0 -120 -8 -120 -170c0 -65 12 -172 120 -172zM94 581v119h152v-119h-152zM376 581v119h152
v-119h-152z" />
    <glyph glyph-name="divide" unicode="&#xf7;" horiz-adv-x="672" 
d="M53 390h566v-80h-566v80zM266 560c0 39 31 70 70 70s70 -31 70 -70s-31 -70 -70 -70s-70 31 -70 70zM266 140c0 39 31 70 70 70s70 -31 70 -70s-31 -70 -70 -70s-70 31 -70 70z" />
    <glyph glyph-name="oslash" unicode="&#xf8;" horiz-adv-x="626" 
d="M63 0l45 55c-63 66 -73 138 -73 200c0 188 113 272 277 272c60 0 109 -8 162 -39l49 58l44 -38l-47 -55c61 -58 71 -152 71 -198c0 -119 -56 -274 -278 -274c-96 0 -141 26 -156 39l-50 -58zM205 168l189 225c-23 27 -53 32 -81 32c-105 0 -120 -106 -120 -170
c0 -48 7 -72 12 -87zM423 338l-188 -225c27 -27 53 -30 78 -30c85 0 120 59 120 172c0 25 -1 43 -10 83z" />
    <glyph glyph-name="ugrave" unicode="&#xf9;" horiz-adv-x="688" 
d="M651 102v-102h-213v61c-56 -63 -110 -80 -170 -80c-164 0 -170 148 -170 209v216h-61v102h213v-294c0 -100 29 -131 85 -131c96 0 103 103 103 140v183h-61v102h213v-406h61zM352 700l69 -132h-123l-106 132h160z" />
    <glyph glyph-name="uacute" unicode="&#xfa;" horiz-adv-x="688" 
d="M651 102v-102h-213v61c-56 -63 -110 -80 -170 -80c-164 0 -170 148 -170 209v216h-61v102h213v-294c0 -100 29 -131 85 -131c96 0 103 103 103 140v183h-61v102h213v-406h61zM342 700h160l-106 -132h-123z" />
    <glyph glyph-name="ucircumflex" unicode="&#xfb;" horiz-adv-x="688" 
d="M651 102v-102h-213v61c-56 -63 -110 -80 -170 -80c-164 0 -170 148 -170 209v216h-61v102h213v-294c0 -100 29 -131 85 -131c96 0 103 103 103 140v183h-61v102h213v-406h61zM347 660l-92 -92h-119l111 132h200l111 -132h-119z" />
    <glyph glyph-name="udieresis" unicode="&#xfc;" horiz-adv-x="688" 
d="M651 102v-102h-213v61c-56 -63 -110 -80 -170 -80c-164 0 -170 148 -170 209v216h-61v102h213v-294c0 -100 29 -131 85 -131c96 0 103 103 103 140v183h-61v102h213v-406h61zM127 581v119h152v-119h-152zM409 581v119h152v-119h-152z" />
    <glyph glyph-name="yacute" unicode="&#xfd;" horiz-adv-x="595" 
d="M0 406v102h278v-102h-48l88 -229l63 229h-49v102h263v-102h-58l-214 -591h-196v102h93l28 85l-192 404h-56zM306 700h160l-106 -132h-123z" />
    <glyph glyph-name="thorn" unicode="&#xfe;" horiz-adv-x="673" 
d="M37 -83h61v681h-61v102h213v-250h3c32 52 90 77 154 77c143 0 231 -107 231 -274c0 -160 -89 -272 -234 -272c-20 0 -104 5 -154 71v-135h61v-102h-274v102zM243 255c0 -88 30 -172 119 -172c88 0 118 84 118 172c0 142 -73 170 -118 170c-46 0 -119 -28 -119 -170z" />
    <glyph glyph-name="ydieresis" unicode="&#xff;" horiz-adv-x="595" 
d="M0 406v102h278v-102h-48l88 -229l63 229h-49v102h263v-102h-58l-214 -591h-196v102h93l28 85l-192 404h-56zM88 581v119h152v-119h-152zM370 581v119h152v-119h-152z" />
    <glyph glyph-name="Amacron" unicode="&#x100;" horiz-adv-x="711" 
d="M170 577v123h269l215 -574h67v-126h-292v123h47l-15 45h-228l-16 -45h44v-123h-271v126h67l173 451h-60zM347 516l-82 -234h161zM133 760v86h384v-86h-384z" />
    <glyph glyph-name="amacron" unicode="&#x101;" horiz-adv-x="632" 
d="M395 0v50h-3c-40 -51 -106 -69 -170 -69c-162 0 -177 104 -177 147c0 116 97 143 189 159c112 16 152 9 155 57v14c-3 67 -65 67 -82 67c-28 0 -93 -6 -93 -81h-145c8 176 183 183 239 183c229 0 233 -131 233 -190v-235h61v-102h-207zM390 210v32
c-32 -17 -65 -20 -100 -27c-32 -5 -89 -17 -89 -73c0 -48 49 -59 78 -59c37 0 111 25 111 127zM115 600v86h384v-86h-384z" />
    <glyph glyph-name="Abreve" unicode="&#x102;" horiz-adv-x="711" 
d="M170 577v123h269l215 -574h67v-126h-292v123h47l-15 45h-228l-16 -45h44v-123h-271v126h67l173 451h-60zM347 516l-82 -234h161zM95 911h144c0 -31 19 -65 86 -65c66 0 86 34 86 65h144c-5 -136 -165 -151 -230 -151c-84 0 -222 22 -230 151z" />
    <glyph glyph-name="abreve" unicode="&#x103;" horiz-adv-x="632" 
d="M395 0v50h-3c-40 -51 -106 -69 -170 -69c-162 0 -177 104 -177 147c0 116 97 143 189 159c112 16 152 9 155 57v14c-3 67 -65 67 -82 67c-28 0 -93 -6 -93 -81h-145c8 176 183 183 239 183c229 0 233 -131 233 -190v-235h61v-102h-207zM390 210v32
c-32 -17 -65 -20 -100 -27c-32 -5 -89 -17 -89 -73c0 -48 49 -59 78 -59c37 0 111 25 111 127zM102 700h127c0 -48 53 -57 77 -57c40 0 79 22 76 57h128c-5 -60 -51 -143 -204 -143c-152 0 -204 83 -204 143z" />
    <glyph glyph-name="Aogonek" unicode="&#x104;" horiz-adv-x="711" 
d="M593 0h-164v123h47l-15 45h-228l-16 -45h44v-123h-271v126h67l173 451h-60v123h269l215 -574h67v-126h-25c-47 -37 -76 -85 -76 -132c0 -40 17 -75 58 -75c50 0 57 50 57 66h95c-5 -87 -67 -146 -158 -146c-96 0 -167 50 -167 131c0 65 41 121 88 156zM347 516l-82 -234
h161z" />
    <glyph glyph-name="aogonek" unicode="&#x105;" horiz-adv-x="632" 
d="M395 0v50h-3c-40 -51 -106 -69 -170 -69c-162 0 -177 104 -177 147c0 116 97 143 189 159c112 16 152 9 155 57v14c-3 67 -65 67 -82 67c-28 0 -93 -6 -93 -81h-145c8 176 183 183 239 183c229 0 233 -131 233 -190v-235h61v-102h-33c-43 -35 -71 -81 -71 -124
c0 -37 16 -70 55 -70c45 0 53 47 53 62h89c-5 -81 -64 -137 -148 -137c-90 0 -157 47 -157 123c0 61 40 114 83 146h-78zM390 210v32c-32 -17 -65 -20 -100 -27c-32 -5 -89 -17 -89 -73c0 -48 49 -59 78 -59c37 0 111 25 111 127z" />
    <glyph glyph-name="Cacute" unicode="&#x106;" horiz-adv-x="731" 
d="M685 465h-152c-16 117 -119 119 -156 119s-159 -7 -159 -241c0 -132 60 -227 172 -227c109 0 139 79 147 131h164c-11 -105 -70 -267 -318 -267c-179 0 -343 85 -343 361c0 364 241 379 314 379c83 0 155 -24 195 -80v60h136v-235zM389 885h160l-106 -132h-123z" />
    <glyph glyph-name="cacute" unicode="&#x107;" horiz-adv-x="597" 
d="M441 508h102v-181h-133c-11 82 -56 98 -99 98c-37 0 -118 -9 -118 -161c0 -169 83 -181 114 -181c80 0 100 74 100 109h150c-5 -79 -56 -211 -251 -211c-166 0 -271 95 -271 272c0 156 78 274 256 274c67 0 119 -26 150 -69v50zM290 700h160l-106 -132h-123z" />
    <glyph glyph-name="Ccircumflex" unicode="&#x108;" horiz-adv-x="731" 
d="M685 465h-152c-16 117 -119 119 -156 119s-159 -7 -159 -241c0 -132 60 -227 172 -227c109 0 139 79 147 131h164c-11 -105 -70 -267 -318 -267c-179 0 -343 85 -343 361c0 364 241 379 314 379c83 0 155 -24 195 -80v60h136v-235zM363 858l-92 -92h-135l113 132h228
l113 -132h-135z" />
    <glyph glyph-name="ccircumflex" unicode="&#x109;" horiz-adv-x="597" 
d="M441 508h102v-181h-133c-11 82 -56 98 -99 98c-37 0 -118 -9 -118 -161c0 -169 83 -181 114 -181c80 0 100 74 100 109h150c-5 -79 -56 -211 -251 -211c-166 0 -271 95 -271 272c0 156 78 274 256 274c67 0 119 -26 150 -69v50zM295 660l-92 -92h-119l111 132h200
l111 -132h-119z" />
    <glyph glyph-name="Cdotaccent" unicode="&#x10a;" horiz-adv-x="731" 
d="M685 465h-152c-16 117 -119 119 -156 119s-159 -7 -159 -241c0 -132 60 -227 172 -227c109 0 139 79 147 131h164c-11 -105 -70 -267 -318 -267c-179 0 -343 85 -343 361c0 364 241 379 314 379c83 0 155 -24 195 -80v60h136v-235zM284 766v106h165v-106h-165z" />
    <glyph glyph-name="cdotaccent" unicode="&#x10b;" horiz-adv-x="597" 
d="M441 508h102v-181h-133c-11 82 -56 98 -99 98c-37 0 -118 -9 -118 -161c0 -169 83 -181 114 -181c80 0 100 74 100 109h150c-5 -79 -56 -211 -251 -211c-166 0 -271 95 -271 272c0 156 78 274 256 274c67 0 119 -26 150 -69v50zM219 581v119h158v-119h-158z" />
    <glyph glyph-name="Ccaron" unicode="&#x10c;" horiz-adv-x="731" 
d="M685 465h-152c-16 117 -119 119 -156 119s-159 -7 -159 -241c0 -132 60 -227 172 -227c109 0 139 79 147 131h164c-11 -105 -70 -267 -318 -267c-179 0 -343 85 -343 361c0 364 241 379 314 379c83 0 155 -24 195 -80v60h136v-235zM366 792l92 92h135l-113 -132h-228
l-113 132h135z" />
    <glyph glyph-name="ccaron" unicode="&#x10d;" horiz-adv-x="597" 
d="M441 508h102v-181h-133c-11 82 -56 98 -99 98c-37 0 -118 -9 -118 -161c0 -169 83 -181 114 -181c80 0 100 74 100 109h150c-5 -79 -56 -211 -251 -211c-166 0 -271 95 -271 272c0 156 78 274 256 274c67 0 119 -26 150 -69v50zM295 608l92 92h119l-111 -132h-200
l-111 132h119z" />
    <glyph glyph-name="Dcaron" unicode="&#x10e;" horiz-adv-x="800" 
d="M50 564v136h363c67 0 347 -5 347 -346c0 -331 -249 -354 -362 -354h-348v136h67v428h-67zM282 564v-428h100c129 0 200 70 200 215c0 194 -121 213 -190 213h-110zM372 792l92 92h135l-113 -132h-228l-113 132h135z" />
    <glyph glyph-name="dcaron" unicode="&#x10f;" horiz-adv-x="801" 
d="M361 598v102h213v-598h61v-102h-213v61h-2c-51 -56 -90 -80 -154 -80c-143 0 -231 112 -231 275c0 160 89 271 234 271c51 0 118 -25 153 -70v141h-61zM430 254c0 112 -43 171 -119 171c-85 0 -118 -83 -118 -171c0 -108 46 -171 118 -171c61 0 119 45 119 171zM631 553
v147h154v-147c0 -36 3 -154 -154 -165v73c40 0 80 27 80 86v6h-80z" />
    <glyph glyph-name="Dcroat" unicode="&#x110;" horiz-adv-x="800" 
d="M50 564v136h363c67 0 347 -5 347 -346c0 -331 -249 -354 -362 -354h-348v136h67v187h-89v86h89v155h-67zM282 564v-155h168v-86h-168v-187h100c129 0 200 70 200 215c0 194 -121 213 -190 213h-110z" />
    <glyph glyph-name="dslash" unicode="&#x111;" horiz-adv-x="672" 
d="M361 628v72h213v-102h86v-58h-86v-438h61v-102h-213v61h-2c-51 -56 -90 -80 -154 -80c-143 0 -231 102 -231 265c0 160 89 261 234 261c51 0 118 -25 153 -70v103h-196v58h196v30h-61zM430 244c0 112 -43 161 -119 161c-85 0 -118 -73 -118 -161c0 -108 46 -161 118 -161
c61 0 119 36 119 161z" />
    <glyph glyph-name="Emacron" unicode="&#x112;" horiz-adv-x="715" 
d="M671 465h-136v99h-253v-142h214v-129h-214v-157h267v135h136v-271h-635v136h67v428h-67v136h621v-235zM181 760v86h384v-86h-384z" />
    <glyph glyph-name="emacron" unicode="&#x113;" horiz-adv-x="616" 
d="M418 147h154c-40 -144 -171 -166 -264 -166c-67 0 -273 14 -273 274c0 178 116 272 282 272c157 0 225 -91 249 -179c15 -51 14 -100 14 -131h-387c0 -49 24 -134 122 -134c44 0 90 19 103 64zM193 302h232c-3 109 -70 123 -107 123c-90 0 -122 -71 -125 -123zM118 600
v86h384v-86h-384z" />
    <glyph glyph-name="Edotaccent" unicode="&#x116;" horiz-adv-x="715" 
d="M671 465h-136v99h-253v-142h214v-129h-214v-157h267v135h136v-271h-635v136h67v428h-67v136h621v-235zM288 766v106h165v-106h-165z" />
    <glyph glyph-name="edotaccent" unicode="&#x117;" horiz-adv-x="616" 
d="M418 147h154c-40 -144 -171 -166 -264 -166c-67 0 -273 14 -273 274c0 178 116 272 282 272c157 0 225 -91 249 -179c15 -51 14 -100 14 -131h-387c0 -49 24 -134 122 -134c44 0 90 19 103 64zM193 302h232c-3 109 -70 123 -107 123c-90 0 -122 -71 -125 -123zM230 581
v119h158v-119h-158z" />
    <glyph glyph-name="Eogonek" unicode="&#x118;" horiz-adv-x="715" 
d="M535 0h-485v136h67v428h-67v136h621v-235h-136v99h-253v-142h214v-129h-214v-157h267v135h136v-271h-47c-47 -37 -76 -85 -76 -132c0 -40 17 -75 58 -75c50 0 57 50 57 66h95c-5 -87 -67 -146 -158 -146c-96 0 -167 50 -167 131c0 65 41 121 88 156z" />
    <glyph glyph-name="eogonek" unicode="&#x119;" horiz-adv-x="616" 
d="M418 147h154c-35 -124 -134 -156 -222 -164c-32 -32 -51 -71 -51 -107c0 -37 16 -70 55 -70c45 0 53 47 53 62h89c-5 -81 -64 -137 -148 -137c-90 0 -157 47 -157 123c0 52 29 98 64 131c-88 11 -220 62 -220 270c0 178 116 272 282 272c157 0 225 -91 249 -179
c15 -51 14 -100 14 -131h-387c0 -49 24 -134 122 -134c44 0 90 19 103 64zM193 302h232c-3 109 -70 123 -107 123c-90 0 -122 -71 -125 -123z" />
    <glyph glyph-name="Ecaron" unicode="&#x11a;" horiz-adv-x="715" 
d="M671 465h-136v99h-253v-142h214v-129h-214v-157h267v135h136v-271h-635v136h67v428h-67v136h621v-235zM373 792l92 92h135l-113 -132h-228l-113 132h135z" />
    <glyph glyph-name="ecaron" unicode="&#x11b;" horiz-adv-x="616" 
d="M418 147h154c-40 -144 -171 -166 -264 -166c-67 0 -273 14 -273 274c0 178 116 272 282 272c157 0 225 -91 249 -179c15 -51 14 -100 14 -131h-387c0 -49 24 -134 122 -134c44 0 90 19 103 64zM193 302h232c-3 109 -70 123 -107 123c-90 0 -122 -71 -125 -123zM310 608
l92 92h119l-111 -132h-200l-111 132h119z" />
    <glyph glyph-name="Gcircumflex" unicode="&#x11c;" horiz-adv-x="801" 
d="M714 465h-146c-3 28 -44 119 -160 119c-192 0 -190 -197 -190 -237c0 -42 4 -231 185 -231c72 0 153 41 161 137h-138v127h355v-127h-59v-253h-123v75h-2c-47 -69 -118 -95 -215 -95c-302 0 -342 239 -342 372c0 142 65 368 341 368c72 0 150 -20 198 -81v61h135v-235z
M392 858l-92 -92h-135l113 132h228l113 -132h-135z" />
    <glyph glyph-name="gcircumflex" unicode="&#x11d;" horiz-adv-x="673" 
d="M72 -40h148c5 -21 23 -57 99 -57c95 0 104 84 104 121v50h-4c-43 -43 -88 -62 -152 -62c-119 0 -232 71 -232 246c0 168 89 269 234 269c40 0 103 -3 151 -75h3v56h213v-102h-61v-359c0 -220 -151 -246 -257 -246c-96 0 -222 18 -246 159zM310 114c48 0 117 15 117 151
c0 100 -46 160 -118 160c-100 0 -116 -111 -116 -158c0 -53 12 -153 117 -153zM317 660l-92 -92h-119l111 132h200l111 -132h-119z" />
    <glyph glyph-name="Gbreve" unicode="&#x11e;" horiz-adv-x="801" 
d="M714 465h-146c-3 28 -44 119 -160 119c-192 0 -190 -197 -190 -237c0 -42 4 -231 185 -231c72 0 153 41 161 137h-138v127h355v-127h-59v-253h-123v75h-2c-47 -69 -118 -95 -215 -95c-302 0 -342 239 -342 372c0 142 65 368 341 368c72 0 150 -20 198 -81v61h135v-235z
M150 911h144c0 -31 19 -65 86 -65c66 0 86 34 86 65h144c-5 -136 -165 -151 -230 -151c-84 0 -222 22 -230 151z" />
    <glyph glyph-name="gbreve" unicode="&#x11f;" horiz-adv-x="673" 
d="M72 -40h148c5 -21 23 -57 99 -57c95 0 104 84 104 121v50h-4c-43 -43 -88 -62 -152 -62c-119 0 -232 71 -232 246c0 168 89 269 234 269c40 0 103 -3 151 -75h3v56h213v-102h-61v-359c0 -220 -151 -246 -257 -246c-96 0 -222 18 -246 159zM310 114c48 0 117 15 117 151
c0 100 -46 160 -118 160c-100 0 -116 -111 -116 -158c0 -53 12 -153 117 -153zM94 700h127c0 -48 53 -57 77 -57c40 0 79 22 76 57h128c-5 -60 -51 -143 -204 -143c-152 0 -204 83 -204 143z" />
    <glyph glyph-name="Gdotaccent" unicode="&#x120;" horiz-adv-x="801" 
d="M714 465h-146c-3 28 -44 119 -160 119c-192 0 -190 -197 -190 -237c0 -42 4 -231 185 -231c72 0 153 41 161 137h-138v127h355v-127h-59v-253h-123v75h-2c-47 -69 -118 -95 -215 -95c-302 0 -342 239 -342 372c0 142 65 368 341 368c72 0 150 -20 198 -81v61h135v-235z
M314 766v106h165v-106h-165z" />
    <glyph glyph-name="gdotaccent" unicode="&#x121;" horiz-adv-x="673" 
d="M72 -40h148c5 -21 23 -57 99 -57c95 0 104 84 104 121v50h-4c-43 -43 -88 -62 -152 -62c-119 0 -232 71 -232 246c0 168 89 269 234 269c40 0 103 -3 151 -75h3v56h213v-102h-61v-359c0 -220 -151 -246 -257 -246c-96 0 -222 18 -246 159zM310 114c48 0 117 15 117 151
c0 100 -46 160 -118 160c-100 0 -116 -111 -116 -158c0 -53 12 -153 117 -153zM257 581v119h158v-119h-158z" />
    <glyph glyph-name="Gcommaaccent" unicode="&#x122;" horiz-adv-x="801" 
d="M714 465h-146c-3 28 -44 119 -160 119c-192 0 -190 -197 -190 -237c0 -42 4 -231 185 -231c72 0 153 41 161 137h-138v127h355v-127h-59v-253h-123v75h-2c-47 -69 -118 -95 -215 -95c-302 0 -342 239 -342 372c0 142 65 368 341 368c72 0 150 -20 198 -81v61h135v-235z
M322 -176v119h181v-96c0 -30 -7 -84 -57 -118c-27 -19 -64 -29 -124 -29v78c20 0 40 1 55 8c16 7 27 19 27 34v4h-82z" />
    <glyph glyph-name="gcommaaccent" unicode="&#x123;" horiz-adv-x="673" 
d="M72 -40h148c5 -21 23 -57 99 -57c95 0 104 84 104 121v50h-4c-43 -43 -88 -62 -152 -62c-119 0 -232 71 -232 246c0 168 89 269 234 269c40 0 103 -3 151 -75h3v56h213v-102h-61v-359c0 -220 -151 -246 -257 -246c-96 0 -222 18 -246 159zM310 114c48 0 117 15 117 151
c0 100 -46 160 -118 160c-100 0 -116 -111 -116 -158c0 -53 12 -153 117 -153zM402 713v-109h-155v99c0 25 6 67 41 100c23 20 58 31 114 34v-65c-27 0 -78 -7 -78 -55v-4h78z" />
    <glyph glyph-name="Hcircumflex" unicode="&#x124;" horiz-adv-x="832" 
d="M485 0v136h65v168h-268v-168h65v-136h-297v136h67v428h-67v136h297v-136h-65v-132h268v132h-65v136h297v-136h-67v-428h67v-136h-297zM411 858l-92 -92h-135l113 132h228l113 -132h-135z" />
    <glyph glyph-name="hcircumflex" unicode="&#x125;" horiz-adv-x="688" 
d="M37 598v102h213v-247c64 75 151 74 172 74c83 0 168 -36 168 -208v-217h61v-102h-271v102h58v192c0 47 -5 131 -86 131c-100 0 -102 -120 -102 -139v-184h58v-102h-271v102h61v496h-61zM169 874l-92 -92h-119l111 132h200l111 -132h-119z" />
    <glyph glyph-name="Hbar" unicode="&#x126;" horiz-adv-x="842" 
d="M490 0v136h65v157h-268v-157h65v-136h-297v136h67v322h-67v70h67v56h-67v116h297v-116h-65v-56h268v56h-65v116h297v-116h-67v-56h67v-70h-67v-322h67v-136h-297zM287 398h268v60h-268v-60z" />
    <glyph glyph-name="hbar" unicode="&#x127;" horiz-adv-x="688" 
d="M37 628v72h213v-117h218v-60h-218v-110c64 75 151 74 172 74c83 0 168 -36 168 -208v-177h61v-102h-271v102h58v152c0 47 -5 131 -86 131c-100 0 -102 -120 -102 -139v-144h58v-102h-271v102h61v421h-79v60h79v45h-61z" />
    <glyph glyph-name="Imacron" unicode="&#x12a;" horiz-adv-x="399" 
d="M50 564v136h299v-136h-67v-428h67v-136h-299v136h67v428h-67zM9 760v86h384v-86h-384z" />
    <glyph glyph-name="imacron" unicode="&#x12b;" horiz-adv-x="348" 
d="M37 406v102h213v-406h61v-102h-274v102h61v304h-61zM-33 600v86h384v-86h-384z" />
    <glyph glyph-name="Iogonek" unicode="&#x12e;" horiz-adv-x="399" 
d="M161 0h-111v136h67v428h-67v136h299v-136h-67v-428h67v-136h-85c-47 -37 -76 -85 -76 -132c0 -40 17 -75 58 -75c50 0 57 50 57 66h95c-5 -87 -67 -146 -158 -146c-96 0 -167 50 -167 131c0 65 41 121 88 156z" />
    <glyph glyph-name="iogonek" unicode="&#x12f;" horiz-adv-x="348" 
d="M133 0h-96v102h61v304h-61v102h213v-406h61v-102h-82c-43 -35 -71 -81 -71 -124c0 -37 16 -70 55 -70c45 0 53 47 53 62h89c-5 -81 -64 -137 -148 -137c-90 0 -157 47 -157 123c0 61 40 114 83 146zM61 581v119h189v-119h-189z" />
    <glyph glyph-name="Idot" unicode="&#x130;" horiz-adv-x="399" 
d="M50 564v136h299v-136h-67v-428h67v-136h-299v136h67v428h-67zM117 766v106h165v-106h-165z" />
    <glyph glyph-name="dotlessi" unicode="&#x131;" horiz-adv-x="348" 
d="M37 406v102h213v-406h61v-102h-274v102h61v304h-61z" />
    <glyph glyph-name="Jcircumflex" unicode="&#x134;" horiz-adv-x="625" 
d="M280 564v136h305v-136h-67v-311c0 -240 -129 -273 -241 -273c-217 0 -251 151 -251 234v44h165v-28c0 -76 21 -114 85 -114s77 42 77 114v334h-73zM425 858l-92 -92h-135l113 132h228l113 -132h-135z" />
    <glyph glyph-name="jcircumflex" unicode="&#x135;" horiz-adv-x="331" 
d="M53 406v102h213v-533c0 -160 -94 -167 -146 -167c-35 0 -63 0 -95 7v102c5 -1 9 -2 14 -2c73 0 75 38 75 75v416h-61zM171 660l-92 -92h-119l111 132h200l111 -132h-119z" />
    <glyph glyph-name="Kcommaaccent" unicode="&#x136;" horiz-adv-x="725" 
d="M302 352l161 217h-51v131h290v-136h-60l-164 -199l192 -229h55v-136h-311v131h58zM282 569v-438h57v-131h-289v136h67v428h-67v136h289v-131h-57zM294 -176v119h181v-96c0 -30 -7 -84 -57 -118c-27 -19 -64 -29 -124 -29v78c20 0 40 1 55 8c16 7 27 19 27 34v4h-82z" />
    <glyph glyph-name="kcommaaccent" unicode="&#x137;" horiz-adv-x="598" 
d="M37 598v102h213v-603h61v-97h-274v102h61v496h-61zM265 254l106 157h-26v97h230v-102h-57l-111 -137l123 -167h63v-102h-154zM255 -169v109h155v-99c0 -25 -6 -67 -41 -100c-23 -20 -58 -31 -114 -34v65c27 0 78 7 78 55v4h-78z" />
    <glyph glyph-name="Lacute" unicode="&#x139;" horiz-adv-x="625" 
d="M50 564v136h299v-136h-67v-428h192v138h136v-274h-560v136h67v428h-67zM216 885h160l-106 -132h-123z" />
    <glyph glyph-name="lacute" unicode="&#x13a;" horiz-adv-x="348" 
d="M37 598v102h213v-598h61v-102h-274v102h61v496h-61zM178 892h160l-106 -132h-123z" />
    <glyph glyph-name="Lcommaaccent" unicode="&#x13b;" horiz-adv-x="625" 
d="M50 564v136h299v-136h-67v-428h192v138h136v-274h-560v136h67v428h-67zM241 -176v119h181v-96c0 -30 -7 -84 -57 -118c-27 -19 -64 -29 -124 -29v78c20 0 40 1 55 8c16 7 27 19 27 34v4h-82z" />
    <glyph glyph-name="lcommaaccent" unicode="&#x13c;" horiz-adv-x="348" 
d="M37 598v102h213v-598h61v-102h-274v102h61v496h-61zM97 -169v109h155v-99c0 -25 -6 -67 -41 -100c-23 -20 -58 -31 -114 -34v65c27 0 78 7 78 55v4h-78z" />
    <glyph glyph-name="Lcaron" unicode="&#x13d;" horiz-adv-x="625" 
d="M50 564v136h299v-136h-67v-428h192v138h136v-274h-560v136h67v428h-67zM433 542v158h165v-158c0 -37 4 -166 -165 -177v79c43 0 86 29 86 92v6h-86z" />
    <glyph glyph-name="lcaron" unicode="&#x13e;" horiz-adv-x="477" 
d="M37 598v102h213v-598h61v-102h-274v102h61v496h-61zM307 553v147h154v-147c0 -36 3 -154 -154 -165v73c40 0 80 27 80 86v6h-80z" />
    <glyph glyph-name="Ldot" unicode="&#x13f;" horiz-adv-x="625" 
d="M50 564v136h299v-136h-67v-428h192v138h136v-274h-560v136h67v428h-67zM449 357v137h144v-137h-144z" />
    <glyph glyph-name="ldot" unicode="&#x140;" horiz-adv-x="507" 
d="M37 598v102h213v-598h61v-102h-274v102h61v496h-61zM352 325v130h137v-130h-137z" />
    <glyph glyph-name="Lslash" unicode="&#x141;" horiz-adv-x="625" 
d="M50 564v136h299v-136h-67v-86l133 92v-120l-133 -92v-222h192v138h136v-274h-560v136h67v109l-117 -80v120l117 80v199h-67z" />
    <glyph glyph-name="lslash" unicode="&#x142;" horiz-adv-x="348" 
d="M37 598v102h213v-254l128 82v-80l-128 -82v-264h61v-102h-274v102h61v167l-128 -81v80l128 81v249h-61z" />
    <glyph glyph-name="Nacute" unicode="&#x143;" horiz-adv-x="845" 
d="M502 564v136h293v-136h-67v-564h-168l-276 441h-2v-305h61v-136h-293v136h67v428h-67v136h234l276 -438h3v302h-61zM399 885h160l-106 -132h-123z" />
    <glyph glyph-name="nacute" unicode="&#x144;" horiz-adv-x="688" 
d="M37 406v102h207v-61c41 56 108 80 176 80s170 -19 170 -208v-217h61v-102h-271v102h58v192c0 50 -5 131 -86 131c-100 0 -102 -117 -102 -139v-184h58v-102h-271v102h61v304h-61zM339 700h160l-106 -132h-123z" />
    <glyph glyph-name="Ncommaaccent" unicode="&#x145;" horiz-adv-x="845" 
d="M502 564v136h293v-136h-67v-564h-168l-276 441h-2v-305h61v-136h-293v136h67v428h-67v136h234l276 -438h3v302h-61zM334 -176v119h181v-96c0 -30 -7 -84 -57 -118c-27 -19 -64 -29 -124 -29v78c20 0 40 1 55 8c16 7 27 19 27 34v4h-82z" />
    <glyph glyph-name="ncommaaccent" unicode="&#x146;" horiz-adv-x="688" 
d="M37 406v102h207v-61c41 56 108 80 176 80s170 -19 170 -208v-217h61v-102h-271v102h58v192c0 50 -5 131 -86 131c-100 0 -102 -117 -102 -139v-184h58v-102h-271v102h61v304h-61zM264 -169v109h155v-99c0 -25 -6 -67 -41 -100c-23 -20 -58 -31 -114 -34v65
c27 0 78 7 78 55v4h-78z" />
    <glyph glyph-name="Ncaron" unicode="&#x147;" horiz-adv-x="845" 
d="M502 564v136h293v-136h-67v-564h-168l-276 441h-2v-305h61v-136h-293v136h67v428h-67v136h234l276 -438h3v302h-61zM424 792l92 92h135l-113 -132h-228l-113 132h135z" />
    <glyph glyph-name="ncaron" unicode="&#x148;" horiz-adv-x="688" 
d="M37 406v102h207v-61c41 56 108 80 176 80s170 -19 170 -208v-217h61v-102h-271v102h58v192c0 50 -5 131 -86 131c-100 0 -102 -117 -102 -139v-184h58v-102h-271v102h61v304h-61zM344 608l92 92h119l-111 -132h-200l-111 132h119z" />
    <glyph glyph-name="Omacron" unicode="&#x14c;" horiz-adv-x="788" 
d="M394 -20c-276 0 -354 207 -354 370s78 370 354 370c241 0 354 -158 354 -370s-113 -370 -354 -370zM394 116c168 0 176 175 176 234c0 64 -8 234 -176 234c-91 0 -175 -49 -175 -234c0 -183 84 -234 175 -234zM203 760v86h384v-86h-384z" />
    <glyph glyph-name="omacron" unicode="&#x14d;" horiz-adv-x="626" 
d="M313 -19c-158 0 -278 87 -278 274c0 200 137 272 278 272c159 0 278 -87 278 -272c0 -187 -120 -274 -278 -274zM313 83c109 0 120 108 120 172c0 162 -83 170 -120 170c-34 0 -120 -8 -120 -170c0 -65 12 -172 120 -172zM122 600v86h384v-86h-384z" />
    <glyph glyph-name="Ohungarumlaut" unicode="&#x150;" horiz-adv-x="788" 
d="M394 -20c-276 0 -354 207 -354 370s78 370 354 370c241 0 354 -158 354 -370s-113 -370 -354 -370zM394 116c168 0 176 175 176 234c0 64 -8 234 -176 234c-91 0 -175 -49 -175 -234c0 -183 84 -234 175 -234zM276 886h160l-106 -132h-123zM506 886h160l-106 -132h-123z
" />
    <glyph glyph-name="ohungarumlaut" unicode="&#x151;" horiz-adv-x="626" 
d="M313 -19c-158 0 -278 87 -278 274c0 200 137 272 278 272c159 0 278 -87 278 -272c0 -187 -120 -274 -278 -274zM313 83c109 0 120 108 120 172c0 162 -83 170 -120 170c-34 0 -120 -8 -120 -170c0 -65 12 -172 120 -172zM209 700h160l-106 -132h-123zM425 700h160
l-106 -132h-123z" />
    <glyph glyph-name="OE" unicode="&#x152;" horiz-adv-x="1131" 
d="M1087 465h-136v99h-253v-142h214v-129h-214v-157h267v135h136v-271h-558c-43 -15 -93 -20 -149 -20c-276 0 -354 207 -354 370s78 370 354 370c56 0 105 -7 149 -20h544v-235zM394 106c80 0 118 11 149 28v432c-28 8 -66 28 -149 28c-91 0 -175 -59 -175 -244
c0 -183 84 -244 175 -244z" />
    <glyph glyph-name="oe" unicode="&#x153;" horiz-adv-x="1014" 
d="M810 147h154c-16 -111 -139 -166 -253 -166c-62 0 -144 8 -200 88c-43 -65 -112 -88 -196 -88c-158 0 -278 87 -278 274c0 172 101 272 277 272c88 0 166 -33 198 -98c57 84 128 98 200 98c192 0 273 -151 262 -304h-389c0 -53 22 -140 122 -140c36 0 87 12 103 64z
M195 255c0 -65 12 -172 120 -172c109 0 120 108 120 172c0 162 -83 170 -120 170c-34 0 -120 -8 -120 -170zM585 302h232c3 45 -15 123 -107 123c-20 0 -109 2 -125 -123z" />
    <glyph glyph-name="Racute" unicode="&#x154;" horiz-adv-x="782" 
d="M546 0l-139 258h-125v-122h67v-136h-299v136h67v428h-67v136h399c112 0 264 -44 264 -213c0 -71 -36 -167 -144 -205l85 -146h83v-136h-191zM282 564v-178h140c93 0 117 55 117 88c0 67 -51 90 -123 90h-134zM374 885h160l-106 -132h-123z" />
    <glyph glyph-name="racute" unicode="&#x155;" horiz-adv-x="461" 
d="M37 406v102h213v-83c40 83 112 102 179 102h18v-102c-7 1 -13 1 -20 1h-20c-87 0 -157 -39 -157 -218v-106h61v-102h-274v102h61v304h-61zM243 700h160l-106 -132h-123z" />
    <glyph glyph-name="Rcommaaccent" unicode="&#x156;" horiz-adv-x="782" 
d="M546 0l-139 258h-125v-122h67v-136h-299v136h67v428h-67v136h399c112 0 264 -44 264 -213c0 -71 -36 -167 -144 -205l85 -146h83v-136h-191zM282 564v-178h140c93 0 117 55 117 88c0 67 -51 90 -123 90h-134zM329 -176v119h181v-96c0 -30 -7 -84 -57 -118
c-27 -19 -64 -29 -124 -29v78c20 0 40 1 55 8c16 7 27 19 27 34v4h-82z" />
    <glyph glyph-name="rcommaaccent" unicode="&#x157;" horiz-adv-x="461" 
d="M37 406v102h213v-83c40 83 112 102 179 102h18v-102c-7 1 -13 1 -20 1h-20c-87 0 -157 -39 -157 -218v-106h61v-102h-274v102h61v304h-61zM97 -169v109h155v-99c0 -25 -6 -67 -41 -100c-23 -20 -58 -31 -114 -34v65c27 0 78 7 78 55v4h-78z" />
    <glyph glyph-name="Rcaron" unicode="&#x158;" horiz-adv-x="782" 
d="M546 0l-139 258h-125v-122h67v-136h-299v136h67v428h-67v136h399c112 0 264 -44 264 -213c0 -71 -36 -167 -144 -205l85 -146h83v-136h-191zM282 564v-178h140c93 0 117 55 117 88c0 67 -51 90 -123 90h-134zM360 792l92 92h135l-113 -132h-228l-113 132h135z" />
    <glyph glyph-name="rcaron" unicode="&#x159;" horiz-adv-x="461" 
d="M37 406v102h213v-83c40 83 112 102 179 102h18v-102c-7 1 -13 1 -20 1h-20c-87 0 -157 -39 -157 -218v-106h61v-102h-274v102h61v304h-61zM250 608l92 92h119l-111 -132h-200l-111 132h119z" />
    <glyph glyph-name="Sacute" unicode="&#x15a;" horiz-adv-x="675" 
d="M606 485h-148c-5 38 -33 99 -124 99c-82 0 -108 -32 -108 -67c0 -60 78 -76 138 -86c149 -27 271 -63 271 -218c0 -57 -5 -233 -279 -233c-69 0 -148 23 -190 78v-58h-122v235h158c0 -43 21 -119 139 -119c61 0 125 16 125 75c0 76 -94 87 -178 106
c-125 27 -231 62 -231 218c0 73 35 140 107 175c39 19 81 30 152 30c61 0 139 -26 168 -73v53h122v-215zM310 885h160l-106 -132h-123z" />
    <glyph glyph-name="sacute" unicode="&#x15b;" horiz-adv-x="563" 
d="M394 508h109v-150h-131c0 45 -54 67 -91 67c-27 0 -79 -6 -79 -47c0 -51 72 -61 127 -69c87 -13 199 -37 199 -155c0 -77 -35 -173 -239 -173c-61 0 -113 21 -145 56v-37h-109v160h149c3 -56 43 -77 104 -77c35 0 82 15 82 54c0 59 -70 64 -146 77
c-75 13 -180 36 -180 157c0 109 80 156 207 156c56 0 112 -17 143 -53v34zM275 700h160l-106 -132h-123z" />
    <glyph glyph-name="Scircumflex" unicode="&#x15c;" horiz-adv-x="675" 
d="M606 485h-148c-5 38 -33 99 -124 99c-82 0 -108 -32 -108 -67c0 -60 78 -76 138 -86c149 -27 271 -63 271 -218c0 -57 -5 -233 -279 -233c-69 0 -148 23 -190 78v-58h-122v235h158c0 -43 21 -119 139 -119c61 0 125 16 125 75c0 76 -94 87 -178 106
c-125 27 -231 62 -231 218c0 73 35 140 107 175c39 19 81 30 152 30c61 0 139 -26 168 -73v53h122v-215zM335 858l-92 -92h-135l113 132h228l113 -132h-135z" />
    <glyph glyph-name="scircumflex" unicode="&#x15d;" horiz-adv-x="563" 
d="M394 508h109v-150h-131c0 45 -54 67 -91 67c-27 0 -79 -6 -79 -47c0 -51 72 -61 127 -69c87 -13 199 -37 199 -155c0 -77 -35 -173 -239 -173c-61 0 -113 21 -145 56v-37h-109v160h149c3 -56 43 -77 104 -77c35 0 82 15 82 54c0 59 -70 64 -146 77
c-75 13 -180 36 -180 157c0 109 80 156 207 156c56 0 112 -17 143 -53v34zM281 660l-92 -92h-119l111 132h200l111 -132h-119z" />
    <glyph glyph-name="Scedilla" unicode="&#x15e;" horiz-adv-x="675" 
d="M606 485h-148c-5 38 -33 99 -124 99c-82 0 -108 -32 -108 -67c0 -60 78 -76 138 -86c149 -27 271 -63 271 -218c0 -57 -5 -233 -279 -233c-69 0 -148 23 -190 78v-58h-122v235h158c0 -43 21 -119 139 -119c61 0 125 16 125 75c0 76 -94 87 -178 106
c-125 27 -231 62 -231 218c0 73 35 140 107 175c39 19 81 30 152 30c61 0 139 -26 168 -73v53h122v-215zM195 -271l21 77c17 -7 36 -11 71 -11s65 4 65 40s-33 36 -77 39h-22h-15l18 70c8 1 14 1 21 1h23c65 0 177 -15 177 -114c0 -76 -56 -117 -163 -117
c-27 0 -66 0 -119 15z" />
    <glyph glyph-name="scedilla" unicode="&#x15f;" horiz-adv-x="563" 
d="M394 508h109v-150h-131c0 45 -54 67 -91 67c-27 0 -79 -6 -79 -47c0 -51 72 -61 127 -69c87 -13 199 -37 199 -155c0 -77 -35 -173 -239 -173c-61 0 -113 21 -145 56v-37h-109v160h149c3 -56 43 -77 104 -77c35 0 82 15 82 54c0 59 -70 64 -146 77
c-75 13 -180 36 -180 157c0 109 80 156 207 156c56 0 112 -17 143 -53v34zM161 -240l18 64c13 -5 31 -9 59 -9s53 4 53 35c0 29 -27 33 -64 34h-17h-14l16 60c7 1 12 1 17 1h19c53 0 147 -16 147 -98c0 -63 -47 -100 -135 -100c-21 0 -54 1 -99 13z" />
    <glyph glyph-name="Scaron" unicode="&#x160;" horiz-adv-x="675" 
d="M606 485h-148c-5 38 -33 99 -124 99c-82 0 -108 -32 -108 -67c0 -60 78 -76 138 -86c149 -27 271 -63 271 -218c0 -57 -5 -233 -279 -233c-69 0 -148 23 -190 78v-58h-122v235h158c0 -43 21 -119 139 -119c61 0 125 16 125 75c0 76 -94 87 -178 106
c-125 27 -231 62 -231 218c0 73 35 140 107 175c39 19 81 30 152 30c61 0 139 -26 168 -73v53h122v-215zM335 792l92 92h135l-113 -132h-228l-113 132h135z" />
    <glyph glyph-name="scaron" unicode="&#x161;" horiz-adv-x="563" 
d="M394 508h109v-150h-131c0 45 -54 67 -91 67c-27 0 -79 -6 -79 -47c0 -51 72 -61 127 -69c87 -13 199 -37 199 -155c0 -77 -35 -173 -239 -173c-61 0 -113 21 -145 56v-37h-109v160h149c3 -56 43 -77 104 -77c35 0 82 15 82 54c0 59 -70 64 -146 77
c-75 13 -180 36 -180 157c0 109 80 156 207 156c56 0 112 -17 143 -53v34zM268 608l92 92h119l-111 -132h-200l-111 132h119z" />
    <glyph glyph-name="Tcedilla" unicode="&#x162;" horiz-adv-x="725" 
d="M213 0v136h67v428h-129v-131h-136v267h695v-267h-136v131h-129v-428h67v-136h-299zM223 -271l21 77c17 -7 36 -11 71 -11s65 4 65 40s-33 36 -77 39h-22h-15l18 70c8 1 14 1 21 1h23c65 0 177 -15 177 -114c0 -76 -56 -117 -163 -117c-27 0 -66 0 -119 15z" />
    <glyph glyph-name="tcedilla" unicode="&#x163;" horiz-adv-x="386" 
d="M13 406v102h92v152h152v-152h108v-102h-108v-268c0 -23 13 -45 60 -45c23 0 40 6 48 9v-102c-39 -8 -91 -14 -124 -14c-101 0 -136 44 -136 148v272h-92zM120 -240l18 64c13 -5 31 -9 59 -9s53 4 53 35c0 29 -27 33 -64 34h-17h-14l16 60c7 1 12 1 17 1h19
c53 0 147 -16 147 -98c0 -63 -47 -100 -135 -100c-21 0 -54 1 -99 13z" />
    <glyph glyph-name="Tcaron" unicode="&#x164;" horiz-adv-x="725" 
d="M213 0v136h67v428h-129v-131h-136v267h695v-267h-136v131h-129v-428h67v-136h-299zM362 792l92 92h135l-113 -132h-228l-113 132h135z" />
    <glyph glyph-name="tcaron" unicode="&#x165;" horiz-adv-x="550" 
d="M13 406v102h92v152h152v-152h108v-102h-108v-268c0 -23 13 -45 60 -45c23 0 40 6 48 9v-102c-39 -8 -91 -14 -124 -14c-101 0 -136 44 -136 148v272h-92zM405 553v147h154v-147c0 -36 3 -154 -154 -165v73c40 0 80 27 80 86v6h-80z" />
    <glyph glyph-name="Umacron" unicode="&#x16a;" horiz-adv-x="820" 
d="M481 564v136h299v-136h-67v-299c0 -71 -11 -285 -303 -285c-295 0 -303 209 -303 285v299h-67v136h299v-136h-67v-272c0 -116 35 -176 138 -176c101 0 138 55 138 176v272h-67zM220 760v86h384v-86h-384z" />
    <glyph glyph-name="umacron" unicode="&#x16b;" horiz-adv-x="688" 
d="M651 102v-102h-213v61c-56 -63 -110 -80 -170 -80c-164 0 -170 148 -170 209v216h-61v102h213v-294c0 -100 29 -131 85 -131c96 0 103 103 103 140v183h-61v102h213v-406h61zM135 600v86h384v-86h-384z" />
    <glyph glyph-name="Ubreve" unicode="&#x16c;" horiz-adv-x="820" 
d="M481 564v136h299v-136h-67v-299c0 -71 -11 -285 -303 -285c-295 0 -303 209 -303 285v299h-67v136h299v-136h-67v-272c0 -116 35 -176 138 -176c101 0 138 55 138 176v272h-67zM182 911h144c0 -31 19 -65 86 -65c66 0 86 34 86 65h144c-5 -136 -165 -151 -230 -151
c-84 0 -222 22 -230 151z" />
    <glyph glyph-name="ubreve" unicode="&#x16d;" horiz-adv-x="688" 
d="M651 102v-102h-213v61c-56 -63 -110 -80 -170 -80c-164 0 -170 148 -170 209v216h-61v102h213v-294c0 -100 29 -131 85 -131c96 0 103 103 103 140v183h-61v102h213v-406h61zM123 700h127c0 -48 53 -57 77 -57c40 0 79 22 76 57h128c-5 -60 -51 -143 -204 -143
c-152 0 -204 83 -204 143z" />
    <glyph glyph-name="Uring" unicode="&#x16e;" horiz-adv-x="820" 
d="M481 564v136h299v-136h-67v-299c0 -71 -11 -285 -303 -285c-295 0 -303 209 -303 285v299h-67v136h299v-136h-67v-272c0 -116 35 -176 138 -176c101 0 138 55 138 176v272h-67zM312 820c0 56 44 100 100 100s100 -44 100 -100s-44 -100 -100 -100s-100 44 -100 100z
M370 820c0 -24 18 -42 42 -42s42 18 42 42s-18 42 -42 42s-42 -18 -42 -42z" />
    <glyph glyph-name="uring" unicode="&#x16f;" horiz-adv-x="688" 
d="M651 102v-102h-213v61c-56 -63 -110 -80 -170 -80c-164 0 -170 148 -170 209v216h-61v102h213v-294c0 -100 29 -131 85 -131c96 0 103 103 103 140v183h-61v102h213v-406h61zM228 639c0 56 43 99 99 99s99 -43 99 -99s-43 -99 -99 -99s-99 43 -99 99zM285 639
c0 -24 18 -42 42 -42s42 18 42 42s-18 42 -42 42s-42 -18 -42 -42z" />
    <glyph glyph-name="Uhungarumlaut" unicode="&#x170;" horiz-adv-x="820" 
d="M481 564v136h299v-136h-67v-299c0 -71 -11 -285 -303 -285c-295 0 -303 209 -303 285v299h-67v136h299v-136h-67v-272c0 -116 35 -176 138 -176c101 0 138 55 138 176v272h-67zM283 886h160l-106 -132h-123zM513 886h160l-106 -132h-123z" />
    <glyph glyph-name="uhungarumlaut" unicode="&#x171;" horiz-adv-x="688" 
d="M651 102v-102h-213v61c-56 -63 -110 -80 -170 -80c-164 0 -170 148 -170 209v216h-61v102h213v-294c0 -100 29 -131 85 -131c96 0 103 103 103 140v183h-61v102h213v-406h61zM223 700h160l-106 -132h-123zM439 700h160l-106 -132h-123z" />
    <glyph glyph-name="Uogonek" unicode="&#x172;" horiz-adv-x="820" 
d="M481 564v136h299v-136h-67v-299c0 -66 -11 -253 -239 -281c-36 -35 -58 -76 -58 -116s17 -75 58 -75c50 0 57 50 57 66h95c-5 -87 -67 -146 -158 -146c-96 0 -167 50 -167 131c0 56 29 103 66 138c-253 20 -260 210 -260 283v299h-67v136h299v-136h-67v-272
c0 -116 35 -176 138 -176c101 0 138 55 138 176v272h-67z" />
    <glyph glyph-name="uogonek" unicode="&#x173;" horiz-adv-x="688" 
d="M488 0h-50v61c-56 -63 -110 -80 -170 -80c-164 0 -170 148 -170 209v216h-61v102h213v-294c0 -100 29 -131 85 -131c96 0 103 103 103 140v183h-61v102h213v-406h61v-102h-67c-43 -35 -71 -81 -71 -124c0 -37 16 -70 55 -70c45 0 53 47 53 62h89
c-5 -81 -64 -137 -148 -137c-90 0 -157 47 -157 123c0 61 40 114 83 146z" />
    <glyph glyph-name="Ydieresis" unicode="&#x178;" horiz-adv-x="641" 
d="M-10 564v136h294v-136h-45l92 -167l91 167h-42v136h271v-136h-65l-179 -300v-128h67v-136h-299v136h67v128l-185 300h-67zM123 766v106h142v-106h-142zM371 766v106h142v-106h-142z" />
    <glyph glyph-name="Zacute" unicode="&#x179;" horiz-adv-x="652" 
d="M483 265h136v-265h-589v146l364 418h-219v-99h-136v235h563v-127l-371 -437h252v129zM328 885h160l-106 -132h-123z" />
    <glyph glyph-name="zacute" unicode="&#x17a;" horiz-adv-x="523" 
d="M391 196h102v-196h-463v102l273 304h-153v-79h-102v181h432v-101l-268 -305h179v94zM246 700h160l-106 -132h-123z" />
    <glyph glyph-name="Zdotaccent" unicode="&#x17b;" horiz-adv-x="652" 
d="M483 265h136v-265h-589v146l364 418h-219v-99h-136v235h563v-127l-371 -437h252v129zM239 766v106h165v-106h-165z" />
    <glyph glyph-name="zdotaccent" unicode="&#x17c;" horiz-adv-x="523" 
d="M391 196h102v-196h-463v102l273 304h-153v-79h-102v181h432v-101l-268 -305h179v94zM172 581v119h158v-119h-158z" />
    <glyph glyph-name="uni018F" unicode="&#x18f;" horiz-adv-x="789" 
d="M381 592c-113 0 -152 -70 -171 -97h-148v205h136v-59c55 55 145 79 203 79c349 0 347 -307 347 -371c0 -238 -158 -369 -367 -369c-322 0 -341 293 -341 377v36h505c0 75 -35 199 -164 199zM545 265h-305c3 -67 32 -157 143 -157c119 0 157 93 162 157z" />
    <glyph glyph-name="florin" unicode="&#x192;" 
d="M448 508h113l-20 -102h-115l-91 -431c-32 -153 -127 -167 -189 -167c-36 0 -62 2 -89 7l21 102c7 -1 12 -2 15 -2c60 0 82 19 93 75l88 416h-93l21 102h94l9 44c27 139 107 157 207 157c36 0 62 -2 90 -9l-20 -99c-15 3 -42 6 -61 6c-39 0 -58 -26 -65 -61z" />
    <glyph glyph-name="uni01DD" unicode="&#x1dd;" horiz-adv-x="625" 
d="M307 431c-77 0 -113 -37 -129 -71h-130v148h102v-49c39 43 100 68 168 68c180 0 267 -106 267 -274c0 -176 -119 -270 -283 -270c-45 0 -262 8 -262 279v23h388c3 76 -38 146 -121 146zM428 200h-232c3 -59 25 -121 110 -121c97 0 117 80 122 121z" />
    <glyph glyph-name="Scommaaccent" unicode="&#x218;" horiz-adv-x="675" 
d="M606 485h-148c-5 38 -33 99 -124 99c-82 0 -108 -32 -108 -67c0 -60 78 -76 138 -86c149 -27 271 -63 271 -218c0 -57 -5 -233 -279 -233c-69 0 -148 23 -190 78v-58h-122v235h158c0 -43 21 -119 139 -119c61 0 125 16 125 75c0 76 -94 87 -178 106
c-125 27 -231 62 -231 218c0 73 35 140 107 175c39 19 81 30 152 30c61 0 139 -26 168 -73v53h122v-215zM245 -176v119h181v-96c0 -30 -7 -84 -57 -118c-27 -19 -64 -29 -124 -29v78c20 0 40 1 55 8c16 7 27 19 27 34v4h-82z" />
    <glyph glyph-name="scommaaccent" unicode="&#x219;" horiz-adv-x="563" 
d="M394 508h109v-150h-131c0 45 -54 67 -91 67c-27 0 -79 -6 -79 -47c0 -51 72 -61 127 -69c87 -13 199 -37 199 -155c0 -77 -35 -173 -239 -173c-61 0 -113 21 -145 56v-37h-109v160h149c3 -56 43 -77 104 -77c35 0 82 15 82 54c0 59 -70 64 -146 77
c-75 13 -180 36 -180 157c0 109 80 156 207 156c56 0 112 -17 143 -53v34zM200 -169v109h155v-99c0 -25 -6 -67 -41 -100c-23 -20 -58 -31 -114 -34v65c27 0 78 7 78 55v4h-78z" />
    <glyph glyph-name="Tcommaaccent" unicode="&#x21a;" horiz-adv-x="725" 
d="M213 0v136h67v428h-129v-131h-136v267h695v-267h-136v131h-129v-428h67v-136h-299zM272 -176v119h181v-96c0 -30 -7 -84 -57 -118c-27 -19 -64 -29 -124 -29v78c20 0 40 1 55 8c16 7 27 19 27 34v4h-82z" />
    <glyph glyph-name="tcommaaccent" unicode="&#x21b;" horiz-adv-x="386" 
d="M13 406v102h92v152h152v-152h108v-102h-108v-268c0 -23 13 -45 60 -45c23 0 40 6 48 9v-102c-39 -8 -91 -14 -124 -14c-101 0 -136 44 -136 148v272h-92zM158 -169v109h155v-99c0 -25 -6 -67 -41 -100c-23 -20 -58 -31 -114 -34v65c27 0 78 7 78 55v4h-78z" />
    <glyph glyph-name="uni0259" unicode="&#x259;" horiz-adv-x="625" 
d="M307 431c-77 0 -113 -37 -129 -71h-130v148h102v-49c39 43 100 68 168 68c180 0 267 -106 267 -274c0 -176 -119 -270 -283 -270c-45 0 -262 8 -262 279v23h388c3 76 -38 146 -121 146zM428 200h-232c3 -59 25 -121 110 -121c97 0 117 80 122 121z" />
    <glyph glyph-name="afii57929" unicode="&#x2bc;" horiz-adv-x="383" 
d="M113 553v147h154v-147c0 -36 3 -154 -154 -165v73c40 0 80 27 80 86v6h-80z" />
    <glyph glyph-name="circumflex" unicode="&#x2c6;" horiz-adv-x="522" 
d="M261 660l-92 -92h-119l111 132h200l111 -132h-119z" />
    <glyph glyph-name="caron" unicode="&#x2c7;" horiz-adv-x="522" 
d="M261 608l92 92h119l-111 -132h-200l-111 132h119z" />
    <glyph glyph-name="breve" unicode="&#x2d8;" horiz-adv-x="496" 
d="M44 700h127c0 -48 53 -57 77 -57c40 0 79 22 76 57h128c-5 -60 -51 -143 -204 -143c-152 0 -204 83 -204 143z" />
    <glyph glyph-name="dotaccent" unicode="&#x2d9;" horiz-adv-x="212" 
d="M26 581v119h158v-119h-158z" />
    <glyph glyph-name="ring" unicode="&#x2da;" horiz-adv-x="296" 
d="M49 639c0 56 43 99 99 99s99 -43 99 -99s-43 -99 -99 -99s-99 43 -99 99zM106 639c0 -24 18 -42 42 -42s42 18 42 42s-18 42 -42 42s-42 -18 -42 -42z" />
    <glyph glyph-name="ogonek" unicode="&#x2db;" horiz-adv-x="404" 
d="M158 0h96c-43 -35 -71 -81 -71 -124c0 -37 16 -70 55 -70c45 0 53 47 53 62h89c-5 -81 -64 -137 -148 -137c-90 0 -157 47 -157 123c0 61 40 114 83 146z" />
    <glyph glyph-name="tilde" unicode="&#x2dc;" horiz-adv-x="536" 
d="M394 700h92c-24 -110 -82 -128 -122 -128c-45 0 -54 8 -96 27c-49 21 -69 24 -81 24c-25 0 -40 -14 -44 -41h-93c13 80 66 126 122 126c43 0 75 -16 96 -27c39 -19 55 -24 82 -24s41 19 44 43z" />
    <glyph glyph-name="hungarumlaut" unicode="&#x2dd;" horiz-adv-x="521" 
d="M106 700h160l-106 -132h-123zM322 700h160l-106 -132h-123z" />
    <glyph glyph-name="gravecomb" unicode="&#x300;" horiz-adv-x="2" 
d="M-301 700l69 -132h-123l-106 132h160z" />
    <glyph glyph-name="acutecomb" unicode="&#x301;" horiz-adv-x="2" 
d="M-308 700h160l-106 -132h-123z" />
    <glyph glyph-name="uni0394" unicode="&#x394;" horiz-adv-x="691" 
d="M261 700h167l263 -700h-691zM473 136l-128 381l-131 -381h259z" />
    <glyph glyph-name="uni0394" unicode="&#x2206;" horiz-adv-x="691" 
d="M261 700h167l263 -700h-691zM473 136l-128 381l-131 -381h259z" />
    <glyph glyph-name="uni03A9" unicode="&#x3a9;" horiz-adv-x="892" 
d="M40 0v191h116v-74h104v58c-84 24 -174 83 -174 242c0 189 129 304 360 304s360 -115 360 -304c0 -159 -90 -218 -174 -242v-58h104v74h116v-191h-346v253c76 11 128 67 128 155c0 107 -64 177 -188 177s-188 -70 -188 -177c0 -88 52 -144 128 -155v-253h-346z" />
    <glyph glyph-name="uni03A9" unicode="&#x2126;" horiz-adv-x="892" 
d="M40 0v191h116v-74h104v58c-84 24 -174 83 -174 242c0 189 129 304 360 304s360 -115 360 -304c0 -159 -90 -218 -174 -242v-58h104v74h116v-191h-346v253c76 11 128 67 128 155c0 107 -64 177 -188 177s-188 -70 -188 -177c0 -88 52 -144 128 -155v-253h-346z" />
    <glyph glyph-name="pi" unicode="&#x3c0;" horiz-adv-x="693" 
d="M68 0v102h61v304c-47 1 -88 -14 -99 -21v102c44 23 88 21 119 21h507v-102h-61v-406h-152v406h-162v-406h-213z" />
    <glyph glyph-name="afii10023" unicode="&#x401;" horiz-adv-x="715" 
d="M671 465h-136v99h-253v-142h214v-129h-214v-157h267v135h136v-271h-635v136h67v428h-67v136h621v-235zM176 766v106h142v-106h-142zM424 766v106h142v-106h-142z" />
    <glyph glyph-name="afii10051" unicode="&#x402;" horiz-adv-x="905" 
d="M213 0v136h67v428h-129v-131h-136v267h695v-237h-136v101h-129v-167c43 5 112 10 157 10c208 0 258 -117 258 -220c0 -127 -80 -207 -233 -207c-32 0 -62 7 -90 15v124c12 -3 31 -7 46 -7c44 0 99 13 99 82c0 48 -22 87 -126 87c-36 0 -79 -4 -111 -8v-137h47v-136h-279z
" />
    <glyph glyph-name="afii10052" unicode="&#x403;" horiz-adv-x="621" 
d="M606 433h-136v131h-188v-428h67v-136h-299v136h67v428h-67v136h556v-267zM335 885h160l-106 -132h-123z" />
    <glyph glyph-name="afii10053" unicode="&#x404;" horiz-adv-x="741" 
d="M685 487h-152c-21 87 -107 97 -146 97c-42 0 -140 -6 -164 -168h302v-128h-303c15 -104 72 -172 168 -172c89 0 139 47 147 99h164c-11 -105 -110 -235 -318 -235c-179 0 -343 85 -343 361c0 364 241 379 314 379c83 0 155 -24 195 -80v60h136v-213z" />
    <glyph glyph-name="afii10054" unicode="&#x405;" horiz-adv-x="675" 
d="M606 485h-148c-5 38 -33 99 -124 99c-82 0 -108 -32 -108 -67c0 -60 78 -76 138 -86c149 -27 271 -63 271 -218c0 -57 -5 -233 -279 -233c-69 0 -148 23 -190 78v-58h-122v235h158c0 -43 21 -119 139 -119c61 0 125 16 125 75c0 76 -94 87 -178 106
c-125 27 -231 62 -231 218c0 73 35 140 107 175c39 19 81 30 152 30c61 0 139 -26 168 -73v53h122v-215z" />
    <glyph glyph-name="afii10055" unicode="&#x406;" horiz-adv-x="399" 
d="M50 564v136h299v-136h-67v-428h67v-136h-299v136h67v428h-67z" />
    <glyph glyph-name="afii10056" unicode="&#x407;" horiz-adv-x="399" 
d="M26 766v106h139v-106h-139zM234 766v106h139v-106h-139zM50 564v136h299v-136h-67v-428h67v-136h-299v136h67v428h-67z" />
    <glyph glyph-name="afii10057" unicode="&#x408;" horiz-adv-x="625" 
d="M280 564v136h305v-136h-67v-311c0 -240 -129 -273 -241 -273c-217 0 -251 151 -251 234v44h165v-28c0 -76 21 -114 85 -114s77 42 77 114v334h-73z" />
    <glyph glyph-name="afii10058" unicode="&#x409;" horiz-adv-x="1114" 
d="M324 564l-5 -180c-4 -136 -19 -424 -314 -384v136c157 -20 162 177 166 294l3 134h-70v136h633v-136h-67v-118h163c116 0 264 -43 264 -220c0 -146 -118 -226 -278 -226h-381v136h67v428h-181zM670 310v-174h128c72 0 121 26 121 90c0 53 -38 84 -123 84h-126z" />
    <glyph glyph-name="afii10059" unicode="&#x40a;" horiz-adv-x="1159" 
d="M485 564v136h297v-136h-67v-123h163c116 0 264 -36 264 -213c0 -147 -118 -228 -278 -228h-379v136h65v179h-268v-179h65v-136h-297v136h67v428h-67v136h297v-136h-65v-123h268v123h-65zM715 315v-179h128c72 0 121 28 121 92c0 53 -38 87 -123 87h-126z" />
    <glyph glyph-name="afii10060" unicode="&#x40b;" horiz-adv-x="926" 
d="M710 700v-237h-136v101h-129v-167c45 7 92 10 139 10c196 0 245 -99 245 -228v-43h67v-136h-232v163c0 69 -19 118 -123 118c-31 0 -59 -2 -96 -9v-136h62v-136h-294v136h67v428h-129v-131h-136v267h695z" />
    <glyph glyph-name="afii10061" unicode="&#x40c;" horiz-adv-x="725" 
d="M302 352l161 217h-51v131h290v-136h-60l-164 -199l192 -229h55v-136h-311v131h58zM282 569v-438h57v-131h-289v136h67v428h-67v136h289v-131h-57zM385 885h160l-106 -132h-123z" />
    <glyph glyph-name="afii10062" unicode="&#x40e;" horiz-adv-x="665" 
d="M0 564v136h301v-136h-45l104 -209l77 209h-45v136h283v-136h-66l-251 -564h-220v136h119l22 57l-212 371h-67zM114 911h144c0 -31 19 -65 86 -65c66 0 86 34 86 65h144c-5 -136 -165 -151 -230 -151c-84 0 -222 22 -230 151z" />
    <glyph glyph-name="afii10145" unicode="&#x40f;" horiz-adv-x="825" 
d="M479 564v136h296v-136h-67v-428h67v-136h-290v-226h-145v226h-290v136h67v428h-67v136h296v-136h-64v-428h261v428h-64z" />
    <glyph glyph-name="afii10017" unicode="&#x410;" horiz-adv-x="711" 
d="M170 577v123h269l215 -574h67v-126h-292v123h47l-15 45h-228l-16 -45h44v-123h-271v126h67l173 451h-60zM347 516l-82 -234h161z" />
    <glyph glyph-name="afii10018" unicode="&#x411;" horiz-adv-x="759" 
d="M50 564v136h615v-235h-136v106h-247v-153h155c59 0 280 16 280 -204c0 -139 -109 -214 -274 -214h-393v136h67v428h-67zM282 297v-161h124c65 0 133 16 133 81c0 83 -81 80 -130 80h-127z" />
    <glyph glyph-name="afii10019" unicode="&#x412;" horiz-adv-x="758" 
d="M50 564v136h418c183 0 216 -102 216 -178c0 -81 -47 -123 -115 -146v-1c54 -11 149 -51 149 -179c0 -168 -144 -196 -268 -196h-400v136h67v428h-67zM282 295v-159h171c29 0 91 15 91 79c0 67 -52 80 -112 80h-150zM282 564v-140h152c67 0 82 45 82 72
c0 29 -16 68 -89 68h-145z" />
    <glyph glyph-name="afii10020" unicode="&#x413;" horiz-adv-x="621" 
d="M606 433h-136v131h-188v-428h67v-136h-299v136h67v428h-67v136h556v-267z" />
    <glyph glyph-name="afii10021" unicode="&#x414;" horiz-adv-x="799" 
d="M675 136h99l-8 -294h-146v158h-461v-158h-146l-8 294h69c81 121 106 253 106 402v26h-78v136h640v-136h-67v-428zM327 564l-1 -83c-3 -153 -25 -258 -81 -345h265v428h-183z" />
    <glyph glyph-name="afii10022" unicode="&#x415;" horiz-adv-x="715" 
d="M671 465h-136v99h-253v-142h214v-129h-214v-157h267v135h136v-271h-635v136h67v428h-67v136h621v-235z" />
    <glyph glyph-name="afii10024" unicode="&#x416;" horiz-adv-x="1001" 
d="M579 579v-458h57v-121h-271v121h57v458h-58v121h277v-121h-62zM599 362l155 217h-44v121h266v-136h-63l-152 -188l162 -240h78v-136h-185zM247 579l155 -217l-217 -362h-185v136h78l162 240l-152 188h-63v136h266v-121h-44z" />
    <glyph glyph-name="afii10025" unicode="&#x417;" horiz-adv-x="731" 
d="M35 241h160c3 -72 45 -125 165 -125c117 0 142 53 142 92c0 80 -80 85 -120 85h-99v129h82c47 0 115 9 115 78c0 85 -99 84 -122 84s-57 -3 -92 -30c-19 -15 -32 -40 -39 -69h-151v215h131v-57c48 58 136 77 194 77c153 0 257 -50 257 -195c0 -101 -91 -148 -133 -156v-2
c100 -20 155 -69 155 -177c0 -160 -173 -210 -325 -210c-143 0 -309 32 -320 261z" />
    <glyph glyph-name="afii10026" unicode="&#x418;" horiz-adv-x="843" 
d="M50 564v136h297v-136h-65v-316l279 452h232v-136h-67v-428h67v-136h-297v136h65v321l-279 -457h-232v136h67v428h-67z" />
    <glyph glyph-name="afii10027" unicode="&#x419;" horiz-adv-x="843" 
d="M50 564v136h297v-136h-65v-316l279 452h232v-136h-67v-428h67v-136h-297v136h65v321l-279 -457h-232v136h67v428h-67zM187 911h144c0 -31 19 -65 86 -65c66 0 86 34 86 65h144c-5 -136 -165 -151 -230 -151c-84 0 -222 22 -230 151z" />
    <glyph glyph-name="afii10028" unicode="&#x41a;" horiz-adv-x="725" 
d="M302 352l161 217h-51v131h290v-136h-60l-164 -199l192 -229h55v-136h-311v131h58zM282 569v-438h57v-131h-289v136h67v428h-67v136h289v-131h-57z" />
    <glyph glyph-name="afii10029" unicode="&#x41b;" horiz-adv-x="787" 
d="M324 564l-5 -180c-4 -136 -19 -424 -314 -384v136c157 -20 162 177 166 294l3 134h-70v136h633v-136h-67v-428h67v-136h-299v136h67v428h-181z" />
    <glyph glyph-name="afii10030" unicode="&#x41c;" horiz-adv-x="1068" 
d="M726 0v136h60v372h-3l-193 -508h-112l-193 508h-3v-372h60v-136h-292v136h67v428h-67v136h306l185 -481l185 481h292v-136h-67v-428h67v-136h-292z" />
    <glyph glyph-name="afii10031" unicode="&#x41d;" horiz-adv-x="832" 
d="M485 0v136h65v168h-268v-168h65v-136h-297v136h67v428h-67v136h297v-136h-65v-132h268v132h-65v136h297v-136h-67v-428h67v-136h-297z" />
    <glyph glyph-name="afii10032" unicode="&#x41e;" horiz-adv-x="788" 
d="M394 -20c-276 0 -354 207 -354 370s78 370 354 370c241 0 354 -158 354 -370s-113 -370 -354 -370zM394 116c168 0 176 175 176 234c0 64 -8 234 -176 234c-91 0 -175 -49 -175 -234c0 -183 84 -234 175 -234z" />
    <glyph glyph-name="afii10033" unicode="&#x41f;" horiz-adv-x="825" 
d="M479 0v136h64v428h-261v-428h64v-136h-296v136h67v428h-67v136h725v-136h-67v-428h67v-136h-296z" />
    <glyph glyph-name="afii10034" unicode="&#x420;" horiz-adv-x="724" 
d="M50 564v136h379c147 0 278 -57 278 -226c0 -212 -197 -233 -282 -233h-143v-105h70v-136h-302v136h67v428h-67zM282 564v-187h117c80 0 130 32 130 96c0 91 -93 91 -130 91h-117z" />
    <glyph glyph-name="afii10035" unicode="&#x421;" horiz-adv-x="731" 
d="M685 465h-152c-16 117 -119 119 -156 119s-159 -7 -159 -241c0 -132 60 -227 172 -227c109 0 139 79 147 131h164c-11 -105 -70 -267 -318 -267c-179 0 -343 85 -343 361c0 364 241 379 314 379c83 0 155 -24 195 -80v60h136v-235z" />
    <glyph glyph-name="afii10036" unicode="&#x422;" horiz-adv-x="725" 
d="M213 0v136h67v428h-129v-131h-136v267h695v-267h-136v131h-129v-428h67v-136h-299z" />
    <glyph glyph-name="afii10037" unicode="&#x423;" horiz-adv-x="665" 
d="M0 564v136h301v-136h-45l104 -209l77 209h-45v136h283v-136h-66l-251 -564h-220v136h119l22 57l-212 371h-67z" />
    <glyph glyph-name="afii10038" unicode="&#x424;" horiz-adv-x="947" 
d="M324 634v106h299v-106h-67v-39h26c271 0 330 -123 330 -236c0 -116 -59 -236 -330 -236h-26v-43h67v-106h-299v106h67v43l-27 -1c-269 0 -329 121 -329 237c0 113 60 236 329 236h27v39h-67zM541 233h13c117 0 186 22 186 131c0 136 -152 121 -186 121h-13v-252zM406 233
v252h-13c-34 0 -186 12 -186 -124c0 -72 30 -128 186 -128h13z" />
    <glyph glyph-name="afii10039" unicode="&#x425;" horiz-adv-x="716" 
d="M406 574v126h293v-136h-67l-168 -200l185 -228h67v-136h-308v126h48l-98 138l-98 -138h50v-126h-310v136h67l185 228l-167 200h-67v136h302v-126h-50l93 -127l93 127h-50z" />
    <glyph glyph-name="afii10040" unicode="&#x426;" horiz-adv-x="834" 
d="M50 564v136h297v-136h-65v-428h263v428h-65v136h297v-136h-67v-428h99l-7 -294h-145v158h-607v136h67v428h-67z" />
    <glyph glyph-name="afii10041" unicode="&#x427;" horiz-adv-x="767" 
d="M418 0v136h67v147c-45 -8 -111 -10 -158 -10c-196 0 -245 99 -245 228v63h-67v136h294v-136h-62v-37c0 -69 19 -118 123 -118c31 0 78 2 115 9v146h-62v136h294v-136h-67v-428h67v-136h-299z" />
    <glyph glyph-name="afii10042" unicode="&#x428;" horiz-adv-x="1175" 
d="M50 564v136h294v-136h-62v-428h223v428h-62v136h289v-136h-62v-428h223v428h-62v136h294v-136h-67v-428h67v-136h-1075v136h67v428h-67z" />
    <glyph glyph-name="afii10043" unicode="&#x429;" horiz-adv-x="1182" 
d="M831 564v136h294v-136h-67v-428h99l-8 -288h-145v152h-954v136h67v428h-67v136h294v-136h-62v-428h223v428h-62v136h289v-136h-62v-428h223v428h-62z" />
    <glyph glyph-name="afii10044" unicode="&#x42a;" horiz-adv-x="874" 
d="M198 0v136h67v431h-114v-134h-136v267h482v-136h-67v-118h163c116 0 264 -43 264 -220c0 -146 -118 -226 -278 -226h-381zM430 310v-174h128c72 0 121 26 121 90c0 53 -38 84 -123 84h-126z" />
    <glyph glyph-name="afii10045" unicode="&#x42b;" horiz-adv-x="1079" 
d="M730 564v136h299v-136h-67v-428h67v-136h-284v136h52v428h-67zM50 564v136h299v-136h-67v-118h153c116 0 264 -43 264 -220c0 -146 -118 -226 -278 -226h-371v136h67v428h-67zM282 310v-174h118c72 0 121 26 121 90c0 53 -38 84 -123 84h-116z" />
    <glyph glyph-name="afii10046" unicode="&#x42c;" horiz-adv-x="726" 
d="M50 564v136h299v-136h-67v-118h163c116 0 264 -43 264 -220c0 -146 -118 -226 -278 -226h-381v136h67v428h-67zM282 310v-174h128c72 0 121 26 121 90c0 53 -38 84 -123 84h-126z" />
    <glyph glyph-name="afii10047" unicode="&#x42d;" horiz-adv-x="770" 
d="M552 288h-267v128h267c-16 162 -125 168 -177 168c-120 0 -168 -75 -173 -119h-148v235h136v-59c49 51 131 79 203 79c290 0 337 -196 337 -361c0 -360 -257 -379 -352 -379c-213 0 -327 120 -338 272h168c3 -66 55 -136 168 -136c68 0 171 23 176 172z" />
    <glyph glyph-name="afii10048" unicode="&#x42e;" horiz-adv-x="1128" 
d="M50 564v136h295v-136h-63v-129h111c8 64 48 285 344 285c281 0 351 -207 351 -370s-70 -370 -351 -370c-272 0 -343 191 -348 319h-107v-163h63v-136h-295v136h67v428h-67zM910 350c0 64 -1 234 -172 234c-168 0 -171 -170 -171 -234c0 -60 3 -234 171 -234
c171 0 172 173 172 234z" />
    <glyph glyph-name="afii10049" unicode="&#x42f;" horiz-adv-x="767" 
d="M418 0v136h67v106h-88l-161 -242h-191v136h83l101 121c-76 16 -184 67 -184 216c0 189 180 227 262 227h410v-136h-67v-428h67v-136h-299zM485 564h-141c-88 0 -121 -47 -121 -93c0 -44 28 -93 127 -93h135v186z" />
    <glyph glyph-name="afii10065" unicode="&#x430;" horiz-adv-x="632" 
d="M395 0v50h-3c-40 -51 -106 -69 -170 -69c-162 0 -177 104 -177 147c0 116 97 143 189 159c112 16 152 9 155 57v14c-3 67 -65 67 -82 67c-28 0 -93 -6 -93 -81h-145c8 176 183 183 239 183c229 0 233 -131 233 -190v-235h61v-102h-207zM390 210v32
c-32 -17 -65 -20 -100 -27c-32 -5 -89 -17 -89 -73c0 -48 49 -59 78 -59c37 0 111 25 111 127z" />
    <glyph glyph-name="afii10066" unicode="&#x431;" horiz-adv-x="624" 
d="M453 747h124c-12 -156 -165 -129 -297 -161c-73 -19 -151 -54 -162 -213h3c24 83 100 154 221 154c144 0 247 -108 247 -273c0 -172 -106 -273 -267 -273c-229 0 -287 177 -287 366c0 255 102 332 236 356c123 21 169 5 182 44zM431 244c0 145 -67 181 -117 181
c-51 0 -118 -36 -118 -181c0 -133 66 -161 118 -161c67 0 117 45 117 161z" />
    <glyph glyph-name="afii10067" unicode="&#x432;" horiz-adv-x="621" 
d="M37 406v102h358c47 0 173 0 173 -123c0 -68 -48 -111 -103 -119v-3c84 -19 121 -53 121 -133c0 -104 -82 -130 -192 -130h-357v102h61v304h-61zM250 214v-112h95c76 0 85 30 85 52c0 35 -15 60 -87 60h-93zM250 406v-97h79c25 0 83 2 83 47c0 42 -37 50 -80 50h-82z" />
    <glyph glyph-name="afii10068" unicode="&#x433;" horiz-adv-x="501" 
d="M37 406v102h454v-206h-102v104h-139v-304h61v-102h-274v102h61v304h-61z" />
    <glyph glyph-name="afii10069" unicode="&#x434;" horiz-adv-x="659" 
d="M85 406v102h536v-102h-61v-304h84l-8 -234h-130v132h-363v-132h-130l-8 234h67c52 79 78 171 79 304h-66zM285 406v-53c0 -120 -33 -200 -61 -251h184v304h-123z" />
    <glyph glyph-name="afii10070" unicode="&#x435;" horiz-adv-x="616" 
d="M418 147h154c-40 -144 -171 -166 -264 -166c-67 0 -273 14 -273 274c0 178 116 272 282 272c157 0 225 -91 249 -179c15 -51 14 -100 14 -131h-387c0 -49 24 -134 122 -134c44 0 90 19 103 64zM193 302h232c-3 109 -70 123 -107 123c-90 0 -122 -71 -125 -123z" />
    <glyph glyph-name="afii10072" unicode="&#x436;" horiz-adv-x="815" 
d="M516 508v-92h-35v-321h46v-95h-239v95h46v321h-35v92h217zM496 259l99 157h-34v92h235v-102h-59l-103 -129l115 -175h61v-102h-150zM220 416l99 -157l-164 -259h-150v102h61l115 175l-103 129h-59v102h235v-92h-34z" />
    <glyph glyph-name="afii10073" unicode="&#x437;" horiz-adv-x="577" 
d="M58 508h102v-44c47 50 115 63 158 63c84 0 214 -17 214 -140c0 -57 -33 -101 -98 -118v-3c84 -19 108 -65 108 -125c0 -113 -102 -160 -253 -160c-141 0 -249 48 -254 189h144c3 -36 19 -87 104 -87c49 0 103 14 103 65c0 31 -14 66 -91 66h-59v95h63c43 0 77 15 77 54
c0 48 -34 62 -83 62c-28 0 -101 -16 -109 -85h-126v168z" />
    <glyph glyph-name="afii10074" unicode="&#x438;" horiz-adv-x="697" 
d="M660 102v-102h-269v102h56v228l-187 -330h-223v102h61v304h-61v102h269v-102h-56v-228l188 330h222v-102h-61v-304h61z" />
    <glyph glyph-name="afii10075" unicode="&#x439;" horiz-adv-x="697" 
d="M660 102v-102h-269v102h56v228l-187 -330h-223v102h61v304h-61v102h269v-102h-56v-228l188 330h222v-102h-61v-304h61zM147 700h127c0 -48 53 -57 77 -57c40 0 79 22 76 57h128c-5 -60 -51 -143 -204 -143c-152 0 -204 83 -204 143z" />
    <glyph glyph-name="afii10076" unicode="&#x43a;" horiz-adv-x="598" 
d="M250 411v-309h42v-102h-255v102h61v304h-61v102h255v-97h-42zM265 254l106 157h-26v97h230v-102h-57l-111 -137l123 -167h63v-102h-154z" />
    <glyph glyph-name="afii10077" unicode="&#x43b;" horiz-adv-x="640" 
d="M270 406l-2 -94c-5 -256 -88 -320 -209 -320c-19 0 -39 2 -59 6v105c8 -1 17 -2 25 -2c65 0 101 70 106 210l2 95h-64v102h534v-102h-61v-304h61v-102h-274v102h61v304h-120z" />
    <glyph glyph-name="afii10078" unicode="&#x43c;" horiz-adv-x="867" 
d="M830 102v-102h-269v102h56v222l3 26h-3l-133 -350h-101l-133 350h-3l3 -26v-222h56v-102h-269v102h61v304h-61v102h275l126 -352h1l126 352h265v-102h-61v-304h61z" />
    <glyph glyph-name="afii10079" unicode="&#x43d;" horiz-adv-x="688" 
d="M384 0v102h54v113h-188v-113h52v-102h-265v102h61v304h-61v102h265v-102h-52v-89h188v89h-54v102h267v-102h-61v-304h61v-102h-267z" />
    <glyph glyph-name="afii10080" unicode="&#x43e;" horiz-adv-x="626" 
d="M313 -19c-158 0 -278 87 -278 274c0 200 137 272 278 272c159 0 278 -87 278 -272c0 -187 -120 -274 -278 -274zM313 83c109 0 120 108 120 172c0 162 -83 170 -120 170c-34 0 -120 -8 -120 -170c0 -65 12 -172 120 -172z" />
    <glyph glyph-name="afii10081" unicode="&#x43f;" horiz-adv-x="695" 
d="M387 0v102h58v304h-195v-304h58v-102h-271v102h61v304h-61v102h621v-102h-61v-304h61v-102h-271z" />
    <glyph glyph-name="afii10082" unicode="&#x440;" horiz-adv-x="673" 
d="M37 406v102h203v-61h3c59 73 126 80 164 80c143 0 231 -106 231 -274c0 -160 -89 -272 -234 -272c-20 0 -104 5 -154 71v-135h61v-102h-274v102h61v489h-61zM243 255c0 -88 30 -172 119 -172c88 0 118 84 118 172c0 142 -73 170 -118 170c-46 0 -119 -28 -119 -170z" />
    <glyph glyph-name="afii10083" unicode="&#x441;" horiz-adv-x="597" 
d="M441 508h102v-181h-133c-11 82 -56 98 -99 98c-37 0 -118 -9 -118 -161c0 -169 83 -181 114 -181c80 0 100 74 100 109h150c-5 -79 -56 -211 -251 -211c-166 0 -271 95 -271 272c0 156 78 274 256 274c67 0 119 -26 150 -69v50z" />
    <glyph glyph-name="afii10084" unicode="&#x442;" horiz-adv-x="588" 
d="M157 0v102h61v304h-106v-104h-102v206h568v-206h-102v104h-106v-304h61v-102h-274z" />
    <glyph glyph-name="afii10085" unicode="&#x443;" horiz-adv-x="595" 
d="M0 406v102h278v-102h-48l88 -229l63 229h-49v102h263v-102h-58l-214 -591h-196v102h93l28 85l-192 404h-56z" />
    <glyph glyph-name="afii10086" unicode="&#x444;" horiz-adv-x="858" 
d="M292 598v102h213v-180c278 4 318 -171 318 -263c0 -122 -58 -266 -318 -271v-69h61v-102h-274v102h61v69c-295 8 -318 189 -318 272c0 238 211 262 318 262v78h-61zM358 88v330h-20c-83 0 -145 -54 -145 -156c0 -149 106 -177 165 -174zM500 418v-330
c80 -3 165 42 165 173c0 108 -60 158 -165 157z" />
    <glyph glyph-name="afii10087" unicode="&#x445;" horiz-adv-x="564" 
d="M304 0v92h37l-63 84l-66 -84h34v-92h-241v102h59l133 161l-116 143h-59v102h248v-92h-35l53 -76l55 76h-33v92h240v-102h-61l-119 -143l131 -161h58v-102h-255z" />
    <glyph glyph-name="afii10088" unicode="&#x446;" horiz-adv-x="690" 
d="M37 406v102h271v-102h-58v-304h190v304h-58v102h271v-102h-61v-304h83l-9 -234h-129v132h-500v102h61v304h-61z" />
    <glyph glyph-name="afii10089" unicode="&#x447;" horiz-adv-x="633" 
d="M322 0v102h61v92c-25 -4 -75 -8 -112 -8c-162 0 -200 69 -200 165v55h-61v102h269v-102h-56v-44c0 -27 4 -74 80 -74c28 0 52 3 80 8v110h-56v102h269v-102h-61v-304h61v-102h-274z" />
    <glyph glyph-name="afii10090" unicode="&#x448;" horiz-adv-x="982" 
d="M37 406v102h269v-102h-56v-304h165v304h-56v102h264v-102h-56v-304h165v304h-56v102h269v-102h-61v-304h61v-102h-908v102h61v304h-61z" />
    <glyph glyph-name="afii10091" unicode="&#x449;" horiz-adv-x="982" 
d="M676 406v102h269v-102h-61v-304h83l-8 -234h-130v132h-792v102h61v304h-61v102h269v-102h-56v-304h165v304h-56v102h264v-102h-56v-304h165v304h-56z" />
    <glyph glyph-name="afii10092" unicode="&#x44a;" horiz-adv-x="701" 
d="M144 0v102h61v309h-93v-109h-102v206h408v-102h-61v-82h88c48 0 228 11 228 -160c0 -123 -108 -164 -219 -164h-310zM357 226v-124h64c53 0 94 17 94 62c0 63 -70 62 -98 62h-60z" />
    <glyph glyph-name="afii10093" unicode="&#x44b;" horiz-adv-x="871" 
d="M560 406v102h274v-102h-61v-304h61v-102h-213v406h-61zM37 406v102h274v-102h-61v-82h82c48 0 228 11 228 -160c0 -123 -108 -164 -219 -164h-304v102h61v304h-61zM250 226v-124h58c53 0 94 17 94 62c0 63 -70 62 -98 62h-54z" />
    <glyph glyph-name="afii10094" unicode="&#x44c;" horiz-adv-x="594" 
d="M37 406v102h274v-102h-61v-82h88c48 0 228 11 228 -160c0 -123 -108 -164 -219 -164h-310v102h61v304h-61zM250 226v-124h64c53 0 94 17 94 62c0 63 -70 62 -98 62h-60z" />
    <glyph glyph-name="afii10095" unicode="&#x44d;" horiz-adv-x="617" 
d="M45 508h102v-49c37 43 95 68 167 68c68 0 268 -8 268 -279c0 -262 -225 -267 -277 -267c-212 0 -265 123 -270 211h150c3 -53 43 -109 120 -109c24 0 114 0 119 123h-176v102h176c0 39 -25 117 -120 117c-77 0 -125 -42 -129 -98h-130v181z" />
    <glyph glyph-name="afii10096" unicode="&#x44e;" horiz-adv-x="918" 
d="M37 406v102h268v-98h-55v-93h90c11 104 91 210 271 210c160 0 272 -83 272 -272c0 -188 -114 -274 -274 -274c-195 0 -264 124 -272 234h-87v-117h50v-98h-263v102h61v304h-61zM609 83c98 0 116 84 116 172c0 162 -79 170 -116 170c-35 0 -114 -8 -114 -170
c0 -65 7 -172 114 -172z" />
    <glyph glyph-name="afii10097" unicode="&#x44f;" horiz-adv-x="623" 
d="M312 0v99h61v77h-63l-108 -176h-164v102h64l68 87c-96 19 -130 93 -130 152c0 164 167 167 198 167h348v-102h-61v-304h61v-102h-274zM373 406h-78c-36 0 -97 -6 -97 -64c0 -48 38 -64 94 -64h81v128z" />
    <glyph glyph-name="afii10071" unicode="&#x451;" horiz-adv-x="616" 
d="M99 581v119h152v-119h-152zM363 581v119h152v-119h-152zM418 147h154c-40 -144 -171 -166 -264 -166c-67 0 -273 14 -273 274c0 178 116 272 282 272c157 0 225 -91 249 -179c15 -51 14 -100 14 -131h-387c0 -49 24 -134 122 -134c44 0 90 19 103 64zM193 302h232
c-3 109 -70 123 -107 123c-90 0 -122 -71 -125 -123z" />
    <glyph glyph-name="afii10099" unicode="&#x452;" horiz-adv-x="634" 
d="M19 581h79v47h-61v72h213v-119h218v-70h-218v-122c67 70 142 74 172 74c123 0 175 -71 175 -274c0 -218 -29 -374 -250 -374v102h16c90 0 77 177 77 270c0 129 -21 174 -88 174c-56 0 -99 -40 -102 -132v-127h58v-102h-271v102h61v409h-79v70z" />
    <glyph glyph-name="afii10100" unicode="&#x453;" horiz-adv-x="501" 
d="M37 406v102h454v-206h-102v104h-139v-304h61v-102h-274v102h61v304h-61zM272 700h160l-106 -132h-123z" />
    <glyph glyph-name="afii10101" unicode="&#x454;" horiz-adv-x="607" 
d="M441 508h102v-157h-133c-11 57 -56 74 -99 74c-32 0 -102 -8 -115 -117h201v-102h-201c16 -115 79 -123 115 -123c71 0 91 49 96 78h150c-8 -79 -72 -180 -251 -180c-166 0 -271 95 -271 272c0 156 78 274 256 274c67 0 119 -26 150 -69v50z" />
    <glyph glyph-name="afii10102" unicode="&#x455;" horiz-adv-x="563" 
d="M394 508h109v-150h-131c0 45 -54 67 -91 67c-27 0 -79 -6 -79 -47c0 -51 72 -61 127 -69c87 -13 199 -37 199 -155c0 -77 -35 -173 -239 -173c-61 0 -113 21 -145 56v-37h-109v160h149c3 -56 43 -77 104 -77c35 0 82 15 82 54c0 59 -70 64 -146 77
c-75 13 -180 36 -180 157c0 109 80 156 207 156c56 0 112 -17 143 -53v34z" />
    <glyph glyph-name="afii10103" unicode="&#x456;" horiz-adv-x="348" 
d="M37 406v102h213v-406h61v-102h-274v102h61v304h-61zM98 581v119h152v-119h-152z" />
    <glyph glyph-name="afii10104" unicode="&#x457;" horiz-adv-x="348" 
d="M-1 581v119h123v-119h-123zM170 581v119h124v-119h-124zM37 406v102h213v-406h61v-102h-274v102h61v304h-61z" />
    <glyph glyph-name="afii10105" unicode="&#x458;" horiz-adv-x="331" 
d="M53 406v102h213v-533c0 -160 -94 -167 -146 -167c-35 0 -63 0 -95 7v102c5 -1 9 -2 14 -2c73 0 75 38 75 75v416h-61zM114 581v119h152v-119h-152z" />
    <glyph glyph-name="afii10106" unicode="&#x459;" horiz-adv-x="886" 
d="M270 406l-2 -94c-5 -256 -88 -320 -209 -320c-19 0 -39 2 -59 6v105c8 -1 17 -2 25 -2c65 0 101 70 106 210l2 95h-64v102h534v-102h-61v-82h88c48 0 228 11 228 -160c0 -123 -108 -164 -219 -164h-310v102h61v304h-120zM542 226v-124h64c53 0 94 17 94 62
c0 63 -70 62 -98 62h-60z" />
    <glyph glyph-name="afii10107" unicode="&#x45a;" horiz-adv-x="934" 
d="M384 0v102h54v122h-188v-122h52v-102h-265v102h61v304h-61v102h265v-102h-52v-84h188v84h-54v102h267v-102h-61v-84h88c48 0 228 13 228 -158c0 -123 -108 -164 -219 -164h-303zM590 224v-122h64c53 0 94 17 94 62c0 63 -70 60 -98 60h-60z" />
    <glyph glyph-name="afii10108" unicode="&#x45b;" horiz-adv-x="677" 
d="M37 628v72h213v-119h218v-70h-218v-122c64 75 145 74 165 74c83 0 164 -44 164 -208v-153h61v-102h-213v230c0 47 -1 131 -82 131c-100 0 -95 -120 -95 -139v-120h58v-102h-271v102h61v409h-79v70h79v47h-61z" />
    <glyph glyph-name="afii10109" unicode="&#x45c;" horiz-adv-x="598" 
d="M250 411v-309h42v-102h-255v102h61v304h-61v102h255v-97h-42zM265 254l106 157h-26v97h230v-102h-57l-111 -137l123 -167h63v-102h-154zM335 700h160l-106 -132h-123z" />
    <glyph glyph-name="afii10110" unicode="&#x45e;" horiz-adv-x="595" 
d="M0 406v102h278v-102h-48l88 -229l63 229h-49v102h263v-102h-58l-214 -591h-196v102h93l28 85l-192 404h-56zM101 700h127c0 -48 53 -57 77 -57c40 0 79 22 76 57h128c-5 -60 -51 -143 -204 -143c-152 0 -204 83 -204 143z" />
    <glyph glyph-name="afii10193" unicode="&#x45f;" horiz-adv-x="695" 
d="M387 406v102h271v-102h-61v-304h61v-102h-245v-185h-132v185h-244v102h61v304h-61v102h271v-102h-58v-304h195v304h-58z" />
    <glyph glyph-name="afii10146" unicode="&#x462;" horiz-adv-x="893" 
d="M569 475h-139v-109h163c116 0 264 -10 264 -174c0 -128 -107 -192 -278 -192h-381v136h67v339h-114v-151h-136v237h250v33h-67v106h299v-106h-67v-33h275v-157h-136v71zM430 260v-154h127c71 0 122 16 122 80c0 53 -38 74 -123 74h-126z" />
    <glyph glyph-name="afii10194" unicode="&#x463;" horiz-adv-x="701" 
d="M144 598v102h213v-192h202v-150h-102v58h-100v-110h88c48 0 228 5 228 -148c0 -123 -108 -158 -219 -158h-310v102h61v314h-93v-104h-102v196h195v90h-61zM357 213v-116h64c53 0 94 15 94 60c0 59 -70 56 -98 56h-60z" />
    <glyph glyph-name="afii10147" unicode="&#x472;" horiz-adv-x="788" 
d="M394 -20c-276 0 -354 207 -354 370s78 370 354 370c241 0 354 -158 354 -370s-113 -370 -354 -370zM394 116c137 0 166 114 174 190h-347c11 -148 90 -190 173 -190zM394 584c-82 0 -156 -39 -172 -178h345c-8 76 -44 178 -173 178z" />
    <glyph glyph-name="afii10195" unicode="&#x473;" horiz-adv-x="626" 
d="M313 -19c-158 0 -278 87 -278 274c0 200 137 272 278 272c159 0 278 -87 278 -272c0 -187 -120 -274 -278 -274zM313 83c91 0 113 75 118 137h-237c5 -63 28 -137 119 -137zM313 425c-32 0 -102 -8 -118 -125h235c-13 117 -85 125 -117 125z" />
    <glyph glyph-name="afii10148" unicode="&#x474;" horiz-adv-x="690" 
d="M431 0h-175l-201 564h-65v136h297v-136h-47l113 -364l80 314c29 117 73 199 213 199c31 0 63 -4 95 -13v-136c-19 7 -41 10 -65 10c-25 0 -72 -5 -96 -84z" />
    <glyph glyph-name="afii10196" unicode="&#x475;" horiz-adv-x="585" 
d="M379 0h-174l-149 406h-56v102h268v-102h-54l80 -273l51 200c35 137 86 184 187 184c20 0 47 -1 82 -9v-102c-15 7 -27 7 -42 7c-56 0 -69 -43 -82 -86z" />
    <glyph glyph-name="afii10050" unicode="&#x490;" horiz-adv-x="596" 
d="M581 564h-299v-428h67v-136h-299v136h67v428h-67v136h385v158h146v-294z" />
    <glyph glyph-name="afii10098" unicode="&#x491;" horiz-adv-x="487" 
d="M37 406v102h329v133h111v-235h-227v-304h61v-102h-274v102h61v304h-61z" />
    <glyph glyph-name="uni1E9E" unicode="&#x1e9e;" horiz-adv-x="763" 
d="M670 580l-162 -189c167 -5 204 -123 204 -204c0 -126 -96 -207 -248 -207c-32 0 -79 4 -107 15v124c12 -3 48 -7 63 -7c44 0 114 20 114 89c0 55 -34 96 -137 96h-45v88l141 176c-15 13 -45 23 -78 23c-103 0 -133 -63 -133 -179v-405h-232v136h67v275
c0 76 -6 309 305 309c143 0 222 -77 248 -140z" />
    <glyph glyph-name="uni2010" unicode="&#x2010;" horiz-adv-x="442" 
d="M75 205v125h292v-125h-292z" />
    <glyph glyph-name="uni2011" unicode="&#x2011;" horiz-adv-x="442" 
d="M75 205v125h292v-125h-292z" />
    <glyph glyph-name="figuredash" unicode="&#x2012;" horiz-adv-x="716" 
d="M75 422h566v-125h-566v125z" />
    <glyph glyph-name="endash" unicode="&#x2013;" horiz-adv-x="716" 
d="M75 330h566v-125h-566v125z" />
    <glyph glyph-name="emdash" unicode="&#x2014;" horiz-adv-x="942" 
d="M75 205v125h792v-125h-792z" />
    <glyph glyph-name="afii00208" unicode="&#x2015;" horiz-adv-x="942" 
d="M75 205v125h792v-125h-792z" />
    <glyph glyph-name="quoteleft" unicode="&#x2018;" horiz-adv-x="377" 
d="M271 542v-158h-165v158c0 58 13 169 165 177v-79c-43 0 -86 -29 -86 -93v-5h86z" />
    <glyph glyph-name="quoteright" unicode="&#x2019;" horiz-adv-x="378" 
d="M106 542v158h165v-158c0 -37 4 -166 -165 -177v79c43 0 86 29 86 92v6h-86z" />
    <glyph glyph-name="quotesinglbase" unicode="&#x201a;" horiz-adv-x="377" 
d="M106 0v158h165v-158c0 -45 -7 -174 -165 -177v79c31 0 86 17 86 92v6h-86z" />
    <glyph glyph-name="quotedblleft" unicode="&#x201c;" horiz-adv-x="562" 
d="M479 542v-158h-165v158c0 58 17 169 165 177v-79c-33 0 -85 -18 -85 -93v-5h85zM248 542v-158h-165v158c0 51 9 166 165 177v-79c-43 0 -86 -29 -86 -93v-5h86z" />
    <glyph glyph-name="quotedblright" unicode="&#x201d;" horiz-adv-x="562" 
d="M83 542v158h165v-158c0 -61 -10 -169 -165 -177v79c43 0 86 29 86 92v6h-86zM314 542v158h165v-158c0 -36 7 -166 -165 -177v79c43 0 86 29 86 92v6h-86z" />
    <glyph glyph-name="quotedblbase" unicode="&#x201e;" horiz-adv-x="563" 
d="M83 0v158h165v-158c0 -54 -10 -174 -165 -177v79c43 0 86 28 86 92v6h-86zM314 0v158h165v-158c0 -22 5 -177 -165 -177v79c43 0 86 28 86 92v6h-86z" />
    <glyph glyph-name="dagger" unicode="&#x2020;" horiz-adv-x="596" 
d="M112 316h-92v252h92v-60h107v100h-60v92h278v-92h-60v-100h107v60h92v-252h-92v60h-107v-561h-158v561h-107v-60z" />
    <glyph glyph-name="daggerdbl" unicode="&#x2021;" horiz-adv-x="596" 
d="M112 326h-92v242h92v-60h107v100h-60v92h278v-92h-60v-100h107v60h92v-242h-92v50h-107v-192h107v50h92v-242h-92v60h-107v-145h60v-92h-278v92h60v145h-107v-60h-92v242h92v-50h107v192h-107v-50z" />
    <glyph glyph-name="bullet" unicode="&#x2022;" horiz-adv-x="675" 
d="M169 337c0 93 75 168 168 168s168 -75 168 -168s-75 -168 -168 -168s-168 75 -168 168z" />
    <glyph glyph-name="ellipsis" unicode="&#x2026;" horiz-adv-x="1129" 
d="M106 0v158h165v-158h-165zM482 0v158h165v-158h-165zM858 0v158h165v-158h-165z" />
    <glyph glyph-name="perthousand" unicode="&#x2030;" horiz-adv-x="1402" 
d="M536 187c0 73 36 200 184 200s184 -127 184 -200c0 -172 -128 -200 -184 -200s-184 28 -184 200zM642 187c0 -81 37 -121 78 -121c31 0 78 26 78 121c0 24 -6 121 -78 121c-35 0 -78 -33 -78 -121zM981 187c0 88 47 200 184 200c159 0 184 -143 184 -200
c0 -76 -36 -200 -184 -200c-80 0 -184 50 -184 200zM1087 187c0 -95 47 -121 78 -121c35 0 79 32 79 121c0 88 -44 121 -79 121s-78 -33 -78 -121zM53 520c0 172 125 200 183 200c57 0 184 -30 184 -200c0 -157 -111 -200 -184 -200c-60 0 -183 31 -183 200zM158 520
c0 -88 43 -121 78 -121s78 33 78 121c0 95 -47 121 -78 121s-78 -26 -78 -121zM131 0l600 700h86l-600 -700h-86z" />
    <glyph glyph-name="guilsinglleft" unicode="&#x2039;" horiz-adv-x="281" 
d="M125 267l82 -70v-138l-150 137v142l150 137v-138z" />
    <glyph glyph-name="guilsinglright" unicode="&#x203a;" horiz-adv-x="281" 
d="M156 267l-82 70v138l150 -137v-142l-150 -137v138z" />
    <glyph glyph-name="fraction" unicode="&#x2044;" horiz-adv-x="286" 
d="M-200 0l600 700h86l-600 -700h-86z" />
    <glyph glyph-name="Euro" unicode="&#x20ac;" 
d="M479 384h-256c-1 -13 -1 -26 -1 -41v-29h227l-34 -79h-183c17 -79 60 -133 143 -133c71 0 114 39 122 91h143c-11 -105 -97 -213 -275 -213c-125 0 -250 63 -282 255h-83l34 79h41v27c0 15 1 28 1 43h-76l34 79h51c40 221 186 257 259 257c83 0 127 -33 159 -80v60h127
v-181h-143c-32 69 -83 79 -120 79c-36 0 -107 -14 -134 -135h280z" />
    <glyph glyph-name="uni20B4" unicode="&#x20b4;" 
d="M627 369h-601v73h305c53 16 112 43 112 89c0 41 -27 69 -108 69c-90 0 -134 -50 -134 -95h-152v195h136v-48c30 44 110 68 163 68c148 0 244 -57 244 -192c0 -32 -16 -63 -37 -86h72v-73zM26 334h601v-74h-359c-41 -20 -70 -45 -70 -84c0 -63 56 -73 117 -73
c105 0 142 62 142 112h162v-215h-136v52c-35 -51 -111 -72 -180 -72c-241 0 -269 124 -269 189c0 41 9 67 24 91h-32v74z" />
    <glyph glyph-name="uni20B6" unicode="&#x20b6;" 
d="M409 165h-137v-49h70v-116h-302v116h67v49h-79v67h79v39h-79v116h79v177h-67v136h354c147 0 278 -45 278 -214c0 -200 -197 -215 -282 -215h-118v-39h137v-67zM272 564v-177h92c87 0 130 32 130 95c0 69 -71 82 -130 82h-92z" />
    <glyph glyph-name="uni20B6" unicode="&#x20cf;" 
d="M409 165h-137v-49h70v-116h-302v116h67v49h-79v67h79v39h-79v116h79v177h-67v136h354c147 0 278 -45 278 -214c0 -200 -197 -215 -282 -215h-118v-39h137v-67zM272 564v-177h92c87 0 130 32 130 95c0 69 -71 82 -130 82h-92z" />
    <glyph glyph-name="uni20B6" unicode="&#x20ce;" 
d="M409 165h-137v-49h70v-116h-302v116h67v49h-79v67h79v39h-79v116h79v177h-67v136h354c147 0 278 -45 278 -214c0 -200 -197 -215 -282 -215h-118v-39h137v-67zM272 564v-177h92c87 0 130 32 130 95c0 69 -71 82 -130 82h-92z" />
    <glyph glyph-name="uni20B6" unicode="&#x20cd;" 
d="M409 165h-137v-49h70v-116h-302v116h67v49h-79v67h79v39h-79v116h79v177h-67v136h354c147 0 278 -45 278 -214c0 -200 -197 -215 -282 -215h-118v-39h137v-67zM272 564v-177h92c87 0 130 32 130 95c0 69 -71 82 -130 82h-92z" />
    <glyph glyph-name="uni20B6" unicode="&#x20cc;" 
d="M409 165h-137v-49h70v-116h-302v116h67v49h-79v67h79v39h-79v116h79v177h-67v136h354c147 0 278 -45 278 -214c0 -200 -197 -215 -282 -215h-118v-39h137v-67zM272 564v-177h92c87 0 130 32 130 95c0 69 -71 82 -130 82h-92z" />
    <glyph glyph-name="uni20B6" unicode="&#x20cb;" 
d="M409 165h-137v-49h70v-116h-302v116h67v49h-79v67h79v39h-79v116h79v177h-67v136h354c147 0 278 -45 278 -214c0 -200 -197 -215 -282 -215h-118v-39h137v-67zM272 564v-177h92c87 0 130 32 130 95c0 69 -71 82 -130 82h-92z" />
    <glyph glyph-name="uni20B6" unicode="&#x20ca;" 
d="M409 165h-137v-49h70v-116h-302v116h67v49h-79v67h79v39h-79v116h79v177h-67v136h354c147 0 278 -45 278 -214c0 -200 -197 -215 -282 -215h-118v-39h137v-67zM272 564v-177h92c87 0 130 32 130 95c0 69 -71 82 -130 82h-92z" />
    <glyph glyph-name="uni20B6" unicode="&#x20c9;" 
d="M409 165h-137v-49h70v-116h-302v116h67v49h-79v67h79v39h-79v116h79v177h-67v136h354c147 0 278 -45 278 -214c0 -200 -197 -215 -282 -215h-118v-39h137v-67zM272 564v-177h92c87 0 130 32 130 95c0 69 -71 82 -130 82h-92z" />
    <glyph glyph-name="uni20B6" unicode="&#x20c8;" 
d="M409 165h-137v-49h70v-116h-302v116h67v49h-79v67h79v39h-79v116h79v177h-67v136h354c147 0 278 -45 278 -214c0 -200 -197 -215 -282 -215h-118v-39h137v-67zM272 564v-177h92c87 0 130 32 130 95c0 69 -71 82 -130 82h-92z" />
    <glyph glyph-name="uni20B6" unicode="&#x20c7;" 
d="M409 165h-137v-49h70v-116h-302v116h67v49h-79v67h79v39h-79v116h79v177h-67v136h354c147 0 278 -45 278 -214c0 -200 -197 -215 -282 -215h-118v-39h137v-67zM272 564v-177h92c87 0 130 32 130 95c0 69 -71 82 -130 82h-92z" />
    <glyph glyph-name="uni20B6" unicode="&#x20c6;" 
d="M409 165h-137v-49h70v-116h-302v116h67v49h-79v67h79v39h-79v116h79v177h-67v136h354c147 0 278 -45 278 -214c0 -200 -197 -215 -282 -215h-118v-39h137v-67zM272 564v-177h92c87 0 130 32 130 95c0 69 -71 82 -130 82h-92z" />
    <glyph glyph-name="uni20B6" unicode="&#x20c5;" 
d="M409 165h-137v-49h70v-116h-302v116h67v49h-79v67h79v39h-79v116h79v177h-67v136h354c147 0 278 -45 278 -214c0 -200 -197 -215 -282 -215h-118v-39h137v-67zM272 564v-177h92c87 0 130 32 130 95c0 69 -71 82 -130 82h-92z" />
    <glyph glyph-name="uni20B6" unicode="&#x20c4;" 
d="M409 165h-137v-49h70v-116h-302v116h67v49h-79v67h79v39h-79v116h79v177h-67v136h354c147 0 278 -45 278 -214c0 -200 -197 -215 -282 -215h-118v-39h137v-67zM272 564v-177h92c87 0 130 32 130 95c0 69 -71 82 -130 82h-92z" />
    <glyph glyph-name="uni20B6" unicode="&#x20c3;" 
d="M409 165h-137v-49h70v-116h-302v116h67v49h-79v67h79v39h-79v116h79v177h-67v136h354c147 0 278 -45 278 -214c0 -200 -197 -215 -282 -215h-118v-39h137v-67zM272 564v-177h92c87 0 130 32 130 95c0 69 -71 82 -130 82h-92z" />
    <glyph glyph-name="uni20B6" unicode="&#x20c2;" 
d="M409 165h-137v-49h70v-116h-302v116h67v49h-79v67h79v39h-79v116h79v177h-67v136h354c147 0 278 -45 278 -214c0 -200 -197 -215 -282 -215h-118v-39h137v-67zM272 564v-177h92c87 0 130 32 130 95c0 69 -71 82 -130 82h-92z" />
    <glyph glyph-name="uni20B6" unicode="&#x20c1;" 
d="M409 165h-137v-49h70v-116h-302v116h67v49h-79v67h79v39h-79v116h79v177h-67v136h354c147 0 278 -45 278 -214c0 -200 -197 -215 -282 -215h-118v-39h137v-67zM272 564v-177h92c87 0 130 32 130 95c0 69 -71 82 -130 82h-92z" />
    <glyph glyph-name="uni20B6" unicode="&#x20c0;" 
d="M409 165h-137v-49h70v-116h-302v116h67v49h-79v67h79v39h-79v116h79v177h-67v136h354c147 0 278 -45 278 -214c0 -200 -197 -215 -282 -215h-118v-39h137v-67zM272 564v-177h92c87 0 130 32 130 95c0 69 -71 82 -130 82h-92z" />
    <glyph glyph-name="uni20B6" unicode="&#x20bf;" 
d="M409 165h-137v-49h70v-116h-302v116h67v49h-79v67h79v39h-79v116h79v177h-67v136h354c147 0 278 -45 278 -214c0 -200 -197 -215 -282 -215h-118v-39h137v-67zM272 564v-177h92c87 0 130 32 130 95c0 69 -71 82 -130 82h-92z" />
    <glyph glyph-name="uni20B6" unicode="&#x20be;" 
d="M409 165h-137v-49h70v-116h-302v116h67v49h-79v67h79v39h-79v116h79v177h-67v136h354c147 0 278 -45 278 -214c0 -200 -197 -215 -282 -215h-118v-39h137v-67zM272 564v-177h92c87 0 130 32 130 95c0 69 -71 82 -130 82h-92z" />
    <glyph glyph-name="uni20B6" unicode="&#x20bd;" 
d="M409 165h-137v-49h70v-116h-302v116h67v49h-79v67h79v39h-79v116h79v177h-67v136h354c147 0 278 -45 278 -214c0 -200 -197 -215 -282 -215h-118v-39h137v-67zM272 564v-177h92c87 0 130 32 130 95c0 69 -71 82 -130 82h-92z" />
    <glyph glyph-name="uni20B6" unicode="&#x20bc;" 
d="M409 165h-137v-49h70v-116h-302v116h67v49h-79v67h79v39h-79v116h79v177h-67v136h354c147 0 278 -45 278 -214c0 -200 -197 -215 -282 -215h-118v-39h137v-67zM272 564v-177h92c87 0 130 32 130 95c0 69 -71 82 -130 82h-92z" />
    <glyph glyph-name="uni20B6" unicode="&#x20bb;" 
d="M409 165h-137v-49h70v-116h-302v116h67v49h-79v67h79v39h-79v116h79v177h-67v136h354c147 0 278 -45 278 -214c0 -200 -197 -215 -282 -215h-118v-39h137v-67zM272 564v-177h92c87 0 130 32 130 95c0 69 -71 82 -130 82h-92z" />
    <glyph glyph-name="uni20B6" unicode="&#x20ba;" 
d="M409 165h-137v-49h70v-116h-302v116h67v49h-79v67h79v39h-79v116h79v177h-67v136h354c147 0 278 -45 278 -214c0 -200 -197 -215 -282 -215h-118v-39h137v-67zM272 564v-177h92c87 0 130 32 130 95c0 69 -71 82 -130 82h-92z" />
    <glyph glyph-name="uni20B6" unicode="&#x20b9;" 
d="M409 165h-137v-49h70v-116h-302v116h67v49h-79v67h79v39h-79v116h79v177h-67v136h354c147 0 278 -45 278 -214c0 -200 -197 -215 -282 -215h-118v-39h137v-67zM272 564v-177h92c87 0 130 32 130 95c0 69 -71 82 -130 82h-92z" />
    <glyph glyph-name="uni20B6" unicode="&#x20b7;" 
d="M409 165h-137v-49h70v-116h-302v116h67v49h-79v67h79v39h-79v116h79v177h-67v136h354c147 0 278 -45 278 -214c0 -200 -197 -215 -282 -215h-118v-39h137v-67zM272 564v-177h92c87 0 130 32 130 95c0 69 -71 82 -130 82h-92z" />
    <glyph glyph-name="uni20B8" unicode="&#x20b8;" 
d="M176 0v136h67v323h-119v-121h-132v237h667v-237h-132v121h-119v-323h67v-136h-299zM659 619h-668v81h668v-81z" />
    <glyph glyph-name="afii61352" unicode="&#x2116;" horiz-adv-x="1257" 
d="M852 146v119h351v-119h-351zM844 520c0 74 36 200 184 200s184 -128 184 -200c0 -76 -36 -200 -184 -200s-184 124 -184 200zM963 520c0 -42 12 -108 65 -108c48 0 65 60 65 108c0 89 -44 107 -65 107c-11 0 -65 -6 -65 -107zM502 564v136h293v-136h-67v-564h-168
l-276 441h-2v-305h61v-136h-293v136h67v428h-67v136h234l276 -438h3v302h-61z" />
    <glyph glyph-name="trademark" unicode="&#x2122;" horiz-adv-x="1016" 
d="M966 361h-173v69h30v122l4 44h-3l-92 -235h-58l-90 235h-4l5 -44v-122h29v-69h-173v69h48v200h-48v70h176l81 -213l4 -35h2l4 35l82 213h176v-70h-48v-200h48v-69zM327 361h-195v69h48v200h-60v-68h-70v138h359v-138h-70v68h-60v-200h48v-69z" />
    <glyph glyph-name="partialdiff" unicode="&#x2202;" horiz-adv-x="647" 
d="M247 648l20 107c268 -21 350 -170 350 -334c0 -171 -91 -440 -355 -440c-40 0 -233 1 -233 202c0 159 109 313 315 313c83 0 144 -40 161 -107h7c-5 94 -29 224 -265 259zM341 394c-112 0 -155 -118 -155 -209c0 -72 39 -102 88 -102c70 0 157 65 157 205
c0 102 -61 106 -90 106z" />
    <glyph glyph-name="product" unicode="&#x220f;" horiz-adv-x="825" 
d="M479 -185v136h64v613h-261v-613h64v-136h-296v136h67v613h-67v136h725v-136h-67v-613h67v-136h-296z" />
    <glyph glyph-name="summation" unicode="&#x2211;" horiz-adv-x="644" 
d="M50 -185v136l268 318l-254 295v136h536v-235h-136v99h-222l254 -295l-268 -318h250v135h136v-271h-564z" />
    <glyph glyph-name="minus" unicode="&#x2212;" horiz-adv-x="672" 
d="M53 390h566v-80h-566v80z" />
    <glyph glyph-name="uni2215" unicode="&#x2215;" horiz-adv-x="672" 
d="M-7 0l600 700h86l-600 -700h-86z" />
    <glyph glyph-name="radical" unicode="&#x221a;" horiz-adv-x="722" 
d="M256 500l134 -450l119 779h185v-80h-118l-138 -849h-89l-165 520h-125v80h197z" />
    <glyph glyph-name="infinity" unicode="&#x221e;" horiz-adv-x="998" 
d="M450 352c-73 81 -116 111 -179 111c-76 0 -136 -40 -136 -111c0 -65 43 -113 132 -113c49 0 119 38 183 113zM499 299c-98 -125 -188 -143 -253 -143c-108 0 -203 74 -203 196c0 116 86 194 214 194c58 0 149 -23 242 -142c93 119 183 142 241 142
c128 0 214 -78 214 -194c0 -122 -95 -196 -203 -196c-65 0 -154 19 -252 143zM547 352c65 -75 123 -113 173 -113c89 0 142 48 142 113c0 72 -50 111 -126 111c-63 0 -117 -30 -189 -111z" />
    <glyph glyph-name="integral" unicode="&#x222b;" horiz-adv-x="370" 
d="M-169 -95l26 71c15 -9 44 -18 63 -18c60 0 83 33 95 109l85 500c16 97 49 174 157 174c39 0 76 -10 113 -23l-22 -72c-16 12 -42 19 -61 19c-72 0 -91 -39 -102 -108l-84 -495c-16 -106 -60 -178 -167 -178c-33 0 -76 10 -103 21z" />
    <glyph glyph-name="approxequal" unicode="&#x2248;" horiz-adv-x="672" 
d="M125 378l-69 36c22 57 75 148 163 148c36 0 67 -12 87 -23l103 -55c15 -8 29 -13 52 -13c43 0 67 36 86 81l69 -36c-22 -57 -76 -148 -163 -148c-36 0 -67 12 -87 23l-103 55c-15 9 -33 13 -53 13c-48 0 -74 -45 -85 -81zM125 158l-69 36c22 57 75 148 163 148
c36 0 67 -12 87 -23l103 -55c15 -8 29 -13 52 -13c43 0 67 36 86 81l69 -36c-22 -57 -76 -148 -163 -148c-36 0 -67 12 -87 23l-103 55c-15 9 -33 13 -53 13c-48 0 -74 -45 -85 -81z" />
    <glyph glyph-name="notequal" unicode="&#x2260;" horiz-adv-x="672" 
d="M53 490h318l95 165l69 -40l-72 -125h156v-80h-202l-69 -120h271v-80h-318l-95 -165l-69 40l72 125h-156v80h202l69 120h-271v80z" />
    <glyph glyph-name="lessequal" unicode="&#x2264;" horiz-adv-x="672" 
d="M139 405l461 -265l-41 -70l-506 293v84l506 293l41 -70zM53 183l41 70l506 -293l-41 -70z" />
    <glyph glyph-name="greaterequal" unicode="&#x2265;" horiz-adv-x="672" 
d="M533 405l-461 265l41 70l506 -293v-84l-506 -293l-41 70zM619 183l-506 -293l-41 70l506 293z" />
    <glyph glyph-name="lozenge" unicode="&#x25ca;" horiz-adv-x="420" 
d="M370 350l-160 -350l-160 350l160 350zM290 350l-80 176l-80 -176l80 -176z" />
    <glyph glyph-name="uniF400" unicode="&#xf400;" horiz-adv-x="2" 
d="M-308 700h160l-106 -132h-123z" />
    <glyph glyph-name="uniF401" unicode="&#xf401;" horiz-adv-x="2" 
d="M-408 898h160l-106 -132h-123z" />
    <glyph glyph-name="uniF406" unicode="&#xf406;" horiz-adv-x="496" 
d="M18 911h144c0 -31 19 -65 86 -65c66 0 86 34 86 65h144c-5 -136 -165 -151 -230 -151c-84 0 -222 22 -230 151z" />
    <glyph glyph-name="uniF407" unicode="&#xf407;" horiz-adv-x="296" 
d="M9 -271l21 77c17 -7 36 -11 71 -11s65 4 65 40s-33 36 -77 39h-22h-15l18 70c8 1 14 1 21 1h23c65 0 177 -15 177 -114c0 -76 -56 -117 -163 -117c-27 0 -66 0 -119 15z" />
    <glyph glyph-name="uniF408" unicode="&#xf408;" horiz-adv-x="522" 
d="M261 858l-92 -92h-135l113 132h228l113 -132h-135z" />
    <glyph glyph-name="uniF409" unicode="&#xf409;" horiz-adv-x="383" 
d="M101 -176v119h181v-96c0 -30 -7 -84 -57 -118c-27 -19 -64 -29 -124 -29v78c20 0 40 1 55 8c16 7 27 19 27 34v4h-82z" />
    <glyph glyph-name="uniF40A" unicode="&#xf40a;" horiz-adv-x="383" 
d="M106 542v158h165v-158c0 -37 4 -166 -165 -177v79c43 0 86 29 86 92v6h-86z" />
    <glyph glyph-name="uniF40B" unicode="&#xf40b;" horiz-adv-x="269" 
d="M50 766v106h165v-106h-165z" />
    <glyph glyph-name="uniF40C" unicode="&#xf40c;" horiz-adv-x="296" 
d="M48 820c0 56 44 100 100 100s100 -44 100 -100s-44 -100 -100 -100s-100 44 -100 100zM106 820c0 -24 18 -42 42 -42s42 18 42 42s-18 42 -42 42s-42 -18 -42 -42z" />
    <glyph glyph-name="uniF40D" unicode="&#xf40d;" horiz-adv-x="536" 
d="M397 894h96c-19 -112 -83 -136 -126 -136c-42 0 -57 11 -98 27c-35 13 -52 24 -84 24c-35 0 -44 -21 -45 -41h-96c8 51 43 133 126 133c45 0 67 -12 99 -28c49 -25 77 -25 84 -25c24 0 47 21 44 46z" />
    <glyph glyph-name="uniF40E" unicode="&#xf40e;" horiz-adv-x="404" 
d="M148 0h103c-47 -37 -76 -85 -76 -132c0 -40 17 -75 58 -75c50 0 57 50 57 66h95c-5 -87 -67 -146 -158 -146c-96 0 -167 50 -167 131c0 65 41 121 88 156z" />
    <glyph glyph-name="uniF410" unicode="&#xf410;" horiz-adv-x="2" 
d="M-380 898l69 -132h-123l-106 132h160z" />
    <glyph glyph-name="dollar.fitted" unicode="&#xf5f5;" horiz-adv-x="624" 
d="M590 485h-152c1 44 -27 90 -83 107v-164c140 -34 250 -92 250 -215c0 -56 -15 -224 -250 -232v-76h-76v80c-51 9 -98 30 -123 67v-52h-136v235h162c0 -37 14 -109 97 -128v187l-11 3c-149 33 -221 101 -221 218c0 131 92 200 232 205v58h76v-66c39 -9 79 -29 99 -60v48
h136v-215zM441 191c0 49 -37 71 -86 86v-172c47 7 86 30 86 86zM196 528c0 -40 39 -64 83 -79v150c-63 -5 -83 -31 -83 -71z" />
    <glyph glyph-name="Euro.fitted" unicode="&#xf5f6;" horiz-adv-x="681" 
d="M495 384h-256c-1 -13 -1 -26 -1 -41v-29h227l-34 -79h-183c17 -79 60 -133 143 -133c71 0 114 39 122 91h143c-11 -105 -97 -213 -275 -213c-125 0 -250 63 -282 255h-83l34 79h41v27c0 15 1 28 1 43h-76l34 79h51c40 221 186 257 259 257c83 0 127 -33 159 -80v60h127
v-181h-143c-32 69 -83 79 -120 79c-36 0 -107 -14 -134 -135h280z" />
    <glyph glyph-name="cent.fitted" unicode="&#xf5f7;" horiz-adv-x="547" 
d="M421 508h102v-181h-133c-11 82 -56 98 -99 98c-37 0 -118 -9 -118 -161c0 -169 83 -181 114 -181c80 0 100 74 100 109h150c-5 -74 -49 -193 -212 -209v-115h-79v115c-144 15 -231 106 -231 270c0 148 70 262 231 273v108h79v-114c41 -10 73 -31 96 -62v50z" />
    <glyph glyph-name="sterling.fitted" unicode="&#xf5f8;" horiz-adv-x="616" 
d="M519 169l70 -109c-51 -45 -90 -83 -155 -83c-98 0 -130 59 -217 59c-35 0 -68 -16 -95 -39l-75 113c43 32 87 77 87 133c0 9 -2 32 -9 48h-102v79h65c-31 48 -37 86 -37 123c0 140 87 227 247 227c61 0 134 -31 150 -76v56h136v-242h-152c1 84 -32 141 -116 141
c-83 0 -107 -61 -107 -116c0 -33 12 -62 43 -113h135v-79h-115c1 -7 2 -13 2 -20c0 -20 -1 -78 -48 -115l2 -4c16 7 43 10 62 10c59 0 88 -38 146 -38c24 0 51 6 83 45z" />
    <glyph glyph-name="yen.fitted" unicode="&#xf5f9;" horiz-adv-x="693" 
d="M536 226h-103v-29h103v-57h-103v-34h67v-106h-299v106h67v34h-103v57h103v29h-103v56h92l-171 282h-67v136h294v-136h-45l89 -177l88 177h-42v136h271v-136h-65l-166 -282h93v-56z" />
    <glyph glyph-name="florin.fitted" unicode="&#xf5fa;" horiz-adv-x="561" 
d="M401 508h113l-20 -102h-115l-91 -431c-32 -153 -127 -167 -189 -167c-36 0 -62 2 -89 7l21 102c7 -1 12 -2 15 -2c60 0 82 19 93 75l88 416h-93l21 102h94l9 44c27 139 107 157 207 157c36 0 62 -2 90 -9l-20 -99c-15 3 -42 6 -61 6c-39 0 -58 -26 -65 -61z" />
    <glyph glyph-name="uni20B4.fitted" unicode="&#xf5fb;" horiz-adv-x="656" 
d="M629 369h-601v73h305c53 16 112 43 112 89c0 41 -27 69 -108 69c-90 0 -134 -50 -134 -95h-152v195h136v-48c30 44 110 68 163 68c148 0 244 -57 244 -192c0 -32 -16 -63 -37 -86h72v-73zM28 334h601v-74h-359c-41 -20 -70 -45 -70 -84c0 -63 56 -73 117 -73
c105 0 142 62 142 112h162v-215h-136v52c-35 -51 -111 -72 -180 -72c-241 0 -269 124 -269 189c0 41 9 67 24 91h-32v74z" />
    <glyph glyph-name="uni20B6.fitted" unicode="&#xf5fc;" horiz-adv-x="689" 
d="M413 165h-137v-49h70v-116h-302v116h67v49h-79v67h79v39h-79v116h79v177h-67v136h354c147 0 278 -45 278 -214c0 -200 -197 -215 -282 -215h-118v-39h137v-67zM276 564v-177h92c87 0 130 32 130 95c0 69 -71 82 -130 82h-92z" />
    <glyph glyph-name="uni20B8.fitted" unicode="&#xf5fd;" horiz-adv-x="703" 
d="M202 0v136h67v323h-119v-121h-132v237h667v-237h-132v121h-119v-323h67v-136h-299zM685 619h-668v81h668v-81z" />
    <glyph glyph-name="currency.fitted" unicode="&#xf5fe;" horiz-adv-x="753" 
d="M88 325c0 61 18 118 50 165l-110 111l74 74l110 -110c47 33 103 52 166 52c61 0 117 -19 164 -51l109 109l74 -74l-109 -109c33 -48 52 -104 52 -167s-19 -119 -51 -166l108 -108l-74 -74l-108 107c-47 -33 -102 -52 -165 -52c-64 0 -120 19 -167 52l-109 -107l-74 74
l109 109c-31 47 -49 104 -49 165zM186 323c0 -104 87 -191 192 -191c104 0 192 87 192 191c0 105 -88 194 -192 194c-105 0 -192 -89 -192 -194z" />
    <glyph glyph-name="numbersign.fitted" unicode="&#xf5ff;" horiz-adv-x="641" 
d="M123 10l26 171h-135l13 80h135l28 185h-134l12 80h135l26 169h80l-26 -169h133l26 169h80l-26 -169h133l-12 -80h-134l-28 -185h133l-13 -80h-133l-26 -171h-80l26 171h-133l-26 -171h-80zM270 446l-28 -185h133l28 185h-133z" />
    <glyph glyph-name="uniF639" unicode="&#xf639;" horiz-adv-x="616" 
d="M309 -20c-52 0 -284 7 -284 370s232 370 284 370c51 0 284 -7 284 -370s-233 -370 -284 -370zM309 102c118 0 126 144 126 248s-8 248 -126 248c-115 0 -126 -147 -126 -248s11 -248 126 -248z" />
    <glyph glyph-name="uniF63A" unicode="&#xf63a;" horiz-adv-x="603" 
d="M576 0h-546v28c0 91 29 154 177 255c131 91 204 118 204 210c0 75 -52 105 -112 105c-72 0 -119 -43 -119 -115v-25h-153v21c0 101 55 241 278 241c33 0 262 -3 262 -220c0 -89 -35 -165 -191 -255c-74 -42 -122 -69 -152 -123h216v107h136v-229z" />
    <glyph glyph-name="uniF63B" unicode="&#xf63b;" horiz-adv-x="608" 
d="M25 241h155c0 -61 28 -139 129 -139c112 0 120 82 120 107c0 41 -17 96 -110 96h-70v115h53c36 0 113 4 113 88c0 36 -22 90 -112 90c-55 0 -113 -19 -113 -129h-147c0 100 38 251 268 251c205 0 251 -116 251 -198c0 -109 -82 -144 -125 -155v-3c72 -8 148 -53 148 -170
c0 -199 -214 -214 -270 -214c-44 0 -294 -5 -290 261z" />
    <glyph glyph-name="uniF63C" unicode="&#xf63c;" horiz-adv-x="617" 
d="M137 279h206v264zM343 167h-334v116l330 417h169v-421h85v-112h-85v-51h67v-116h-299v116h67v51z" />
    <glyph glyph-name="uniF63D" unicode="&#xf63d;" horiz-adv-x="596" 
d="M25 203h156c5 -44 32 -103 117 -103c113 0 119 109 119 144c0 90 -59 131 -116 131c-32 0 -84 -10 -108 -50h-155l45 375h441v-177h-126v55h-208l-20 -152c21 16 74 50 168 50c147 0 235 -95 235 -234c0 -132 -79 -262 -279 -262c-216 0 -264 139 -269 223z" />
    <glyph glyph-name="uniF63E" unicode="&#xf63e;" horiz-adv-x="602" 
d="M571 535h-142c-19 56 -85 63 -117 63c-100 0 -131 -80 -136 -179c40 41 92 62 155 62c116 0 248 -66 248 -239c0 -109 -52 -262 -263 -262c-73 0 -291 6 -291 366c0 73 7 374 295 374c181 0 235 -108 251 -185zM176 241c0 -73 46 -139 131 -139c84 0 127 63 127 136
c0 84 -53 135 -129 135c-63 0 -129 -39 -129 -132z" />
    <glyph glyph-name="uniF63F" unicode="&#xf63f;" horiz-adv-x="604" 
d="M100 116h70c13 61 32 118 55 165c23 49 78 171 200 288v9h-262v-93h-136v215h561v-116c-112 -104 -162 -208 -194 -277c-23 -55 -46 -123 -58 -191h73v-116h-309v116z" />
    <glyph glyph-name="uniF640" unicode="&#xf640;" horiz-adv-x="617" 
d="M151 373c-61 21 -102 77 -102 150c0 83 56 197 261 197c177 0 261 -88 261 -197c0 -73 -39 -127 -103 -150c80 -31 126 -84 126 -173c0 -61 -21 -220 -284 -220c-264 0 -284 158 -284 220c0 89 45 142 125 173zM310 102c104 0 132 62 132 111c0 36 -15 112 -132 112
s-132 -77 -132 -112c0 -48 28 -111 132 -111zM310 418c87 0 116 50 116 95c0 53 -48 85 -116 85c-60 0 -116 -23 -116 -85c0 -80 69 -95 116 -95z" />
    <glyph glyph-name="uniF641" unicode="&#xf641;" horiz-adv-x="601" 
d="M38 164h143c11 -43 60 -62 111 -62c71 0 127 43 135 178c-23 -23 -70 -63 -155 -63c-144 0 -248 98 -248 239c0 109 53 264 270 264c69 0 284 -7 284 -354c0 -75 -10 -386 -293 -386c-176 0 -231 111 -247 184zM427 458c0 32 -15 140 -131 140c-92 0 -127 -74 -127 -138
c0 -84 55 -135 128 -135c96 0 130 71 130 133z" />
    <glyph glyph-name="uniF643" unicode="&#xf643;" 
d="M325 -19c-163 0 -278 87 -278 274c0 200 132 272 278 272c164 0 278 -87 278 -272c0 -187 -115 -274 -278 -274zM325 103c99 0 120 87 120 152c0 141 -83 150 -120 150c-34 0 -120 -9 -120 -150c0 -65 22 -152 120 -152z" />
    <glyph glyph-name="uniF644" unicode="&#xf644;" 
d="M135 372v136h272v-372h107v-136h-379v136h107v236h-107z" />
    <glyph glyph-name="uniF645" unicode="&#xf645;" 
d="M599 0h-546v28c0 77 36 163 164 214c141 56 217 65 217 118c0 45 -52 56 -112 56c-72 0 -119 -31 -119 -95v-19h-153v15c0 100 71 211 278 211c33 0 262 2 262 -160c0 -83 -39 -127 -191 -175c-86 -27 -158 -58 -166 -93h234v87h132v-187z" />
    <glyph glyph-name="uniF646" unicode="&#xf646;" 
d="M45 49h155c0 -61 28 -139 129 -139c112 0 120 82 120 107c0 41 -17 96 -110 96h-70v115h53c36 0 113 4 113 88c0 36 -22 90 -112 90c-55 0 -113 -19 -113 -129h-147c0 100 38 251 268 251c205 0 251 -116 251 -198c0 -109 -82 -144 -125 -155v-3c72 -8 148 -53 148 -170
c0 -199 -214 -214 -270 -214c-44 0 -294 -5 -290 261z" />
    <glyph glyph-name="uniF647" unicode="&#xf647;" 
d="M164 106h199v245zM363 0h-327v116l323 392h169v-402h85v-106h-85v-192h-165v192z" />
    <glyph glyph-name="uniF648" unicode="&#xf648;" 
d="M51 12h156c5 -44 32 -103 117 -103c113 0 119 109 119 144c0 90 -59 131 -116 131c-32 0 -84 -10 -108 -50h-155l45 375h441v-177h-126v55h-208l-20 -152c21 16 74 50 168 50c147 0 235 -95 235 -234c0 -132 -79 -262 -279 -262c-216 0 -264 139 -269 223z" />
    <glyph glyph-name="uniF649" unicode="&#xf649;" 
d="M594 535h-142c-19 56 -85 63 -117 63c-100 0 -131 -80 -136 -179c40 41 92 62 155 62c116 0 248 -66 248 -239c0 -109 -52 -262 -263 -262c-73 0 -291 6 -291 366c0 73 7 374 295 374c181 0 235 -108 251 -185zM199 241c0 -73 46 -139 131 -139c84 0 127 63 127 136
c0 84 -53 135 -129 135c-63 0 -129 -39 -129 -132z" />
    <glyph glyph-name="uniF64A" unicode="&#xf64a;" 
d="M44 508h561v-116c-112 -104 -162 -208 -194 -277c-37 -85 -72 -211 -69 -307h-172c7 101 37 205 72 281c23 49 78 171 200 288v9h-262v-93h-136v215z" />
    <glyph glyph-name="uniF64B" unicode="&#xf64b;" 
d="M166 373c-61 21 -102 77 -102 150c0 83 56 197 261 197c177 0 261 -88 261 -197c0 -73 -39 -127 -103 -150c80 -31 126 -84 126 -173c0 -61 -21 -220 -284 -220c-264 0 -284 158 -284 220c0 89 45 142 125 173zM325 102c104 0 132 62 132 111c0 36 -15 112 -132 112
s-132 -77 -132 -112c0 -48 28 -111 132 -111zM325 418c87 0 116 50 116 95c0 53 -48 85 -116 85c-60 0 -116 -23 -116 -85c0 -80 69 -95 116 -95z" />
    <glyph glyph-name="uniF64C" unicode="&#xf64c;" 
d="M62 -28h143c11 -43 60 -62 111 -62c71 0 127 43 135 178c-23 -23 -70 -63 -155 -63c-144 0 -248 98 -248 239c0 109 53 264 270 264c69 0 284 -7 284 -354c0 -75 -10 -386 -293 -386c-176 0 -231 111 -247 184zM451 266c0 32 -15 140 -131 140c-92 0 -127 -74 -127 -138
c0 -84 55 -135 128 -135c96 0 130 71 130 133z" />
    <glyph glyph-name="uniF6BA" unicode="&#xf6ba;" horiz-adv-x="442" 
d="M75 297v125h292v-125h-292z" />
    <glyph glyph-name="uniF6BB" unicode="&#xf6bb;" horiz-adv-x="716" 
d="M75 422h566v-125h-566v125z" />
    <glyph glyph-name="uniF6BC" unicode="&#xf6bc;" horiz-adv-x="942" 
d="M75 297v125h792v-125h-792z" />
    <glyph glyph-name="uniF6C3" unicode="&#xf6c3;" horiz-adv-x="383" 
d="M111 -169v109h155v-99c0 -25 -6 -67 -41 -100c-23 -20 -58 -31 -114 -34v65c27 0 78 7 78 55v4h-78z" />
    <glyph glyph-name="uniF6C9" unicode="&#xf6c9;" horiz-adv-x="329" 
d="M119 885h160l-106 -132h-123z" />
    <glyph glyph-name="uniF6CA" unicode="&#xf6ca;" horiz-adv-x="522" 
d="M261 792l92 92h135l-113 -132h-228l-113 132h135z" />
    <glyph glyph-name="uniF6CB" unicode="&#xf6cb;" horiz-adv-x="494" 
d="M50 766v106h142v-106h-142zM298 766v106h142v-106h-142z" />
    <glyph glyph-name="uniF6CC" unicode="&#xf6cc;" horiz-adv-x="590" 
d="M60 766v106h112v-106h-112zM418 766v106h112v-106h-112zM261 898h150l-106 -132h-113z" />
    <glyph glyph-name="uniF6CE" unicode="&#xf6ce;" horiz-adv-x="329" 
d="M210 886l69 -132h-123l-106 132h160z" />
    <glyph glyph-name="uniF6CF" unicode="&#xf6cf;" horiz-adv-x="546" 
d="M111 886h160l-106 -132h-123zM341 886h160l-106 -132h-123z" />
    <glyph glyph-name="uniF6D0" unicode="&#xf6d0;" horiz-adv-x="484" 
d="M50 760v86h384v-86h-384z" />
    <glyph glyph-name="uniF6D1" unicode="&#xf6d1;" horiz-adv-x="496" 
d="M18 911h144c0 -31 19 -65 86 -65c66 0 86 34 86 65h144c-5 -136 -165 -151 -230 -151c-84 0 -222 22 -230 151z" />
    <glyph glyph-name="uniF6D4" unicode="&#xf6d4;" horiz-adv-x="496" 
d="M44 700h127c0 -48 53 -57 77 -57c40 0 79 22 76 57h128c-5 -60 -51 -143 -204 -143c-152 0 -204 83 -204 143z" />
    <glyph glyph-name="uniF6D7" unicode="&#xf6d7;" horiz-adv-x="634" 
d="M60 578v119h132v-119h-132zM442 578v119h132v-119h-132zM287 700h140l-106 -132h-103z" />
    <glyph glyph-name="uniF6DC" unicode="&#xf6dc;" horiz-adv-x="431" 
d="M34 564v136h272v-564h107v-136h-379v136h107v428h-107z" />
    <glyph glyph-name="uniF6DE" unicode="&#xf6de;" horiz-adv-x="706" 
d="M56 205v125h594v-125h-594z" />
    <glyph glyph-name="uniF730" unicode="&#xf730;" 
d="M325 -19c-163 0 -278 87 -278 274c0 200 132 272 278 272c164 0 278 -87 278 -272c0 -187 -115 -274 -278 -274zM325 103c99 0 120 87 120 152c0 141 -83 150 -120 150c-34 0 -120 -9 -120 -150c0 -65 22 -152 120 -152z" />
    <glyph glyph-name="uniF731" unicode="&#xf731;" horiz-adv-x="489" 
d="M61 372v136h272v-372h107v-136h-379v136h107v236h-107z" />
    <glyph glyph-name="uniF732" unicode="&#xf732;" horiz-adv-x="636" 
d="M590 0h-546v28c0 77 36 163 164 214c141 56 217 65 217 118c0 45 -52 56 -112 56c-72 0 -119 -31 -119 -95v-19h-153v15c0 100 71 211 278 211c33 0 262 2 262 -160c0 -83 -39 -127 -191 -175c-86 -27 -158 -58 -166 -93h234v87h132v-187z" />
    <glyph glyph-name="uniF733" unicode="&#xf733;" horiz-adv-x="638" 
d="M27 49h155c0 -61 28 -139 129 -139c112 0 120 82 120 107c0 41 -17 96 -110 96h-70v115h53c36 0 113 4 113 88c0 36 -22 90 -112 90c-55 0 -113 -19 -113 -129h-147c0 100 38 251 268 251c205 0 251 -116 251 -198c0 -109 -82 -144 -125 -155v-3c72 -8 148 -53 148 -170
c0 -199 -214 -214 -270 -214c-44 0 -294 -5 -290 261z" />
    <glyph glyph-name="uniF734" unicode="&#xf734;" horiz-adv-x="622" 
d="M144 106h199v245zM343 0h-327v116l323 392h169v-402h85v-106h-85v-192h-165v192z" />
    <glyph glyph-name="uniF735" unicode="&#xf735;" horiz-adv-x="623" 
d="M36 12h156c5 -44 32 -103 117 -103c113 0 119 109 119 144c0 90 -59 131 -116 131c-32 0 -84 -10 -108 -50h-155l45 375h441v-177h-126v55h-208l-20 -152c21 16 74 50 168 50c147 0 235 -95 235 -234c0 -132 -79 -262 -279 -262c-216 0 -264 139 -269 223z" />
    <glyph glyph-name="uniF736" unicode="&#xf736;" 
d="M593 535h-142c-19 56 -85 63 -117 63c-100 0 -131 -80 -136 -179c40 41 92 62 155 62c116 0 248 -66 248 -239c0 -109 -52 -262 -263 -262c-73 0 -291 6 -291 366c0 73 7 374 295 374c181 0 235 -108 251 -185zM198 241c0 -73 46 -139 131 -139c84 0 127 63 127 136
c0 84 -53 135 -129 135c-63 0 -129 -39 -129 -132z" />
    <glyph glyph-name="uniF737" unicode="&#xf737;" horiz-adv-x="586" 
d="M21 508h561v-116c-112 -104 -162 -208 -194 -277c-37 -85 -72 -211 -69 -307h-172c7 101 37 205 72 281c23 49 78 171 200 288v9h-262v-93h-136v215z" />
    <glyph glyph-name="uniF738" unicode="&#xf738;" 
d="M166 373c-61 21 -102 77 -102 150c0 83 56 197 261 197c177 0 261 -88 261 -197c0 -73 -39 -127 -103 -150c80 -31 126 -84 126 -173c0 -61 -21 -220 -284 -220c-264 0 -284 158 -284 220c0 89 45 142 125 173zM325 102c104 0 132 62 132 111c0 36 -15 112 -132 112
s-132 -77 -132 -112c0 -48 28 -111 132 -111zM325 418c87 0 116 50 116 95c0 53 -48 85 -116 85c-60 0 -116 -23 -116 -85c0 -80 69 -95 116 -95z" />
    <glyph glyph-name="uniF739" unicode="&#xf739;" 
d="M61 -28h143c11 -43 60 -62 111 -62c71 0 127 43 135 178c-23 -23 -70 -63 -155 -63c-144 0 -248 98 -248 239c0 109 53 264 270 264c69 0 284 -7 284 -354c0 -75 -10 -386 -293 -386c-176 0 -231 111 -247 184zM450 266c0 32 -15 140 -131 140c-92 0 -127 -74 -127 -138
c0 -84 55 -135 128 -135c96 0 130 71 130 133z" />
    <glyph glyph-name="afii10099.alt01" horiz-adv-x="634" 
d="M19 508h79v120h-61v72h213v-192h218v-70h-218v-126c67 70 142 74 172 74c123 0 175 -80 175 -275c0 -136 -33 -296 -250 -296v102h16c68 0 77 100 77 193c0 125 -21 174 -88 174c-55 0 -98 -37 -102 -125v-57h58v-102h-271v102h61v336h-79v70z" />
    <glyph glyph-name="afii10108.alt01" horiz-adv-x="677" 
d="M37 628v72h213v-192h218v-70h-218v-126c64 75 145 74 165 74c83 0 164 -44 164 -208v-76h61v-102h-213v153c0 47 -1 131 -82 131c-100 0 -95 -120 -95 -139v-43h58v-102h-271v102h61v336h-79v70h79v120h-61z" />
    </font>
</defs>
</svg>
