<?xml version="1.0" standalone="no"?>
<!DOCTYPE svg PUBLIC "-//W3C//DTD SVG 1.1//EN" "http://www.w3.org/Graphics/SVG/1.1/DTD/svg11.dtd" >
<svg xmlns="http://www.w3.org/2000/svg" xmlns:xlink="http://www.w3.org/1999/xlink" version="1.1">
<metadata>
Created by FontForge 20161116 at Tue Oct  2 11:25:55 2012
 By Jimmy Wärting
Copyright (c) 2012 by Manuel Eduardo Corradine - Sergio Andre's Rami'rez. All rights reserved.
</metadata>
<defs>
<font id="Neuron" horiz-adv-x="463" >
  <font-face 
    font-family="Neuron"
    font-weight="400"
    font-stretch="normal"
    units-per-em="1000"
    panose-1="0 0 0 0 0 0 0 0 0 0"
    ascent="750"
    descent="-250"
    x-height="491"
    cap-height="615"
    bbox="-56 -237 861 854"
    underline-thickness="50"
    underline-position="-100"
    stemh="72"
    stemv="82"
    unicode-range="U+000D-2212"
  />
<missing-glyph horiz-adv-x="459" 
 />
    <glyph glyph-name=".notdef" horiz-adv-x="459" 
 />
    <glyph glyph-name="CR" unicode="&#xd;" horiz-adv-x="424" 
 />
    <glyph glyph-name="space" unicode=" " horiz-adv-x="202" 
 />
    <glyph glyph-name="exclam" unicode="!" horiz-adv-x="203" 
d="M101 145c-31 0 -36 5 -36 26c0 135 -7 274 -7 418c0 21 10 26 43 26s43 -5 43 -26c0 -144 -7 -283 -7 -418c0 -21 -5 -26 -36 -26zM101 0c-36 0 -44 5 -44 31v26c0 26 8 31 44 31c37 0 45 -5 45 -31v-26c0 -26 -8 -31 -45 -31z" />
    <glyph glyph-name="quotedbl" unicode="&#x22;" horiz-adv-x="261" 
d="M68 410c-22 0 -28 4 -30 20c-6 48 -13 135 -13 157s6 28 43 28c36 0 42 -6 42 -28s-7 -109 -13 -157c-1 -16 -7 -20 -29 -20zM193 410c-22 0 -28 4 -30 20c-5 48 -13 135 -13 157s7 28 43 28c37 0 43 -6 43 -28s-8 -109 -13 -157c-2 -16 -8 -20 -30 -20z" />
    <glyph glyph-name="numbersign" unicode="#" 
d="M310 38c-28 0 -36 3 -36 27v118h-89v-118c0 -24 -7 -27 -36 -27c-28 0 -35 3 -35 27v118h-60c-22 0 -27 4 -27 32s5 32 27 32h60v140h-60c-22 0 -27 5 -27 33s5 32 27 32h60v104c0 24 7 27 35 27c29 0 36 -3 36 -27v-104h89v104c0 24 8 27 36 27c29 0 36 -3 36 -27v-104
h62c22 0 27 -4 27 -32s-5 -33 -27 -33h-62v-140h62c22 0 27 -4 27 -32s-5 -32 -27 -32h-62v-118c0 -24 -7 -27 -36 -27zM185 387v-140h89v140h-89z" />
    <glyph glyph-name="dollar" unicode="$" 
d="M241 724c33 0 39 -4 39 -27v-80c35 -3 71 -8 98 -16c16 -4 24 -11 24 -40c0 -28 -5 -34 -17 -34c-13 0 -67 19 -139 19c-79 0 -106 -8 -106 -85c0 -46 12 -61 46 -76l139 -61c72 -32 92 -73 92 -157c0 -119 -64 -165 -154 -174v-81c0 -23 -6 -27 -39 -27
c-32 0 -38 4 -38 27v79c-42 2 -85 8 -115 17c-17 5 -26 13 -26 41c0 30 5 34 17 34c18 0 67 -18 143 -18c92 0 131 26 131 96c0 52 -11 76 -51 94l-129 57c-70 31 -97 61 -97 150c0 127 66 153 144 157v78c0 23 6 27 38 27z" />
    <glyph glyph-name="percent" unicode="%" horiz-adv-x="490" 
d="M356 0c-95 0 -113 29 -113 135c0 107 20 135 113 135c92 0 113 -28 113 -135c0 -106 -18 -135 -113 -135zM356 55c44 0 48 14 48 80s-3 80 -48 80s-49 -14 -49 -80s4 -80 49 -80zM134 345c-95 0 -113 30 -113 136c0 107 20 134 113 134c92 0 113 -27 113 -134
c0 -106 -18 -136 -113 -136zM134 400c44 0 48 14 48 80c0 67 -3 81 -48 81s-49 -14 -49 -81c0 -66 4 -80 49 -80zM66 0c-22 0 -29 5 -29 14c0 6 2 12 9 25l327 558c8 14 16 18 47 18c22 0 30 -4 30 -13c0 -7 -2 -13 -10 -26l-327 -558c-8 -14 -16 -18 -47 -18z" />
    <glyph glyph-name="ampersand" unicode="&#x26;" horiz-adv-x="516" 
d="M484 280h-55v-144c0 -119 -67 -145 -187 -145c-144 0 -195 48 -195 174c0 90 29 142 128 149c-75 13 -103 67 -103 148c0 130 59 158 148 158c52 0 110 -7 155 -20c16 -4 20 -9 20 -37c0 -29 -6 -33 -18 -33c-17 0 -79 17 -144 17c-58 0 -76 -15 -76 -94
c0 -64 15 -109 128 -109h69v62c0 23 5 27 36 27s36 -4 36 -27v-62h58c21 0 26 -7 26 -32s-5 -32 -26 -32zM243 63c80 0 111 15 111 81v136h-71c-136 0 -152 -46 -152 -112c0 -70 16 -105 112 -105z" />
    <glyph glyph-name="quotesingle" unicode="'" horiz-adv-x="136" 
d="M68 410c-22 0 -28 4 -30 20c-6 48 -13 135 -13 157s6 28 43 28c36 0 42 -6 42 -28s-7 -109 -13 -157c-1 -16 -7 -20 -29 -20z" />
    <glyph glyph-name="parenleft" unicode="(" horiz-adv-x="201" 
d="M46 303c0 164 42 289 69 348c7 14 16 20 42 20c22 0 30 -6 30 -18c0 -30 -59 -143 -59 -350s59 -319 59 -350c0 -11 -8 -17 -30 -17c-26 0 -35 5 -42 20c-27 59 -69 184 -69 347z" />
    <glyph glyph-name="parenright" unicode=")" horiz-adv-x="201" 
d="M155 303c0 -163 -42 -288 -69 -347c-8 -15 -16 -20 -43 -20c-21 0 -29 6 -29 17c0 31 58 144 58 350c0 207 -58 320 -58 350c0 12 8 18 29 18c27 0 35 -6 43 -20c27 -59 69 -184 69 -348z" />
    <glyph glyph-name="asterisk" unicode="*" horiz-adv-x="388" 
d="M194 620c29 0 34 -5 34 -23v-87c0 -12 -2 -19 -6 -25c6 6 12 9 23 13l78 26c16 5 23 1 32 -26c9 -28 6 -34 -11 -40l-78 -25c-11 -4 -17 -4 -24 -3c7 -3 12 -8 19 -17l51 -71c10 -13 9 -21 -15 -38c-23 -17 -30 -16 -40 -2l-52 71c-8 9 -11 15 -12 23
c-1 -8 -4 -14 -10 -23l-52 -71c-10 -14 -17 -15 -41 2s-24 25 -15 38l52 71c7 9 12 13 20 17c-8 -2 -15 -1 -26 3l-78 25c-16 5 -20 12 -11 40c9 27 17 31 32 26l78 -26c11 -4 17 -7 22 -12c-3 6 -4 13 -4 24v87c0 18 5 23 34 23z" />
    <glyph glyph-name="plus" unicode="+" 
d="M231 94c-30 0 -37 5 -37 25v116h-104c-21 0 -26 4 -26 34c0 31 5 35 26 35h104v116c0 21 7 26 37 26c31 0 38 -5 38 -26v-116h104c20 0 25 -4 25 -35c0 -30 -5 -34 -25 -34h-104v-116c0 -20 -7 -25 -38 -25z" />
    <glyph glyph-name="comma" unicode="," horiz-adv-x="157" 
d="M75 93c36 0 42 -6 42 -31v-28c0 -24 -5 -50 -13 -78l-16 -59c-9 -22 -16 -27 -43 -27c-22 0 -26 4 -26 15c0 20 13 74 13 125v52c0 25 6 31 43 31z" />
    <glyph glyph-name="hyphen" unicode="-" horiz-adv-x="317" 
d="M36 264c0 31 5 37 25 37h195c20 0 25 -6 25 -37s-5 -37 -25 -37h-195c-20 0 -25 6 -25 37z" />
    <glyph glyph-name="period" unicode="." horiz-adv-x="174" 
d="M87 0c-36 0 -45 5 -45 31v31c0 26 9 31 45 31c37 0 45 -5 45 -31v-31c0 -26 -8 -31 -45 -31z" />
    <glyph glyph-name="slash" unicode="/" horiz-adv-x="262" 
d="M212 671c26 0 36 -6 36 -18c0 -4 -2 -14 -6 -34l-147 -657c-5 -20 -17 -25 -44 -25c-26 0 -36 5 -36 17c0 4 2 14 6 34l148 657c4 20 16 26 43 26z" />
    <glyph glyph-name="zero" unicode="0" 
d="M231 63c94 0 116 30 116 180v123c0 155 -15 182 -116 182c-93 0 -115 -27 -115 -182v-123c0 -150 15 -180 115 -180zM231 -9c-144 0 -198 43 -198 240v142c0 212 63 247 198 247c150 0 198 -42 198 -247v-142c0 -205 -68 -240 -198 -240z" />
    <glyph glyph-name="one" unicode="1" 
d="M369 0h-272c-19 0 -25 7 -25 37c0 31 6 38 25 38h94v454l-86 -27c-10 -3 -17 -4 -22 -4c-8 0 -15 7 -15 37c0 29 4 36 18 40l106 34c13 5 27 6 41 6c33 0 41 -5 41 -26v-514h95c19 0 25 -7 25 -38c0 -30 -6 -37 -25 -37z" />
    <glyph glyph-name="two" unicode="2" 
d="M144 75h240c19 0 25 -7 25 -38c0 -30 -6 -37 -25 -37h-305c-19 0 -26 5 -26 30v65c0 75 28 104 86 158l137 128c26 25 41 40 41 82c0 76 -21 84 -100 84c-70 0 -118 -19 -134 -19c-11 0 -15 5 -15 33c0 29 8 35 24 40c40 12 98 19 147 19c85 0 162 -10 162 -150
c0 -77 -32 -105 -100 -167l-115 -106c-26 -24 -42 -39 -42 -88v-34z" />
    <glyph glyph-name="three" unicode="3" 
d="M235 -9c-53 0 -123 8 -162 19c-17 5 -26 11 -26 39c0 30 5 34 17 34c18 0 83 -18 155 -18c93 0 110 38 110 107c0 65 -19 108 -162 108c-20 0 -25 8 -25 35s5 35 25 35c119 0 149 41 149 106c0 74 -15 91 -95 91c-65 0 -122 -18 -139 -18c-11 0 -17 5 -17 34
c0 28 9 34 24 38c41 12 101 19 157 19c97 0 155 -28 155 -158c0 -81 -38 -132 -113 -145c97 -7 125 -58 125 -148c0 -126 -59 -178 -178 -178z" />
    <glyph glyph-name="four" unicode="4" 
d="M329 0c-34 0 -42 5 -42 27v132h-230c-23 0 -29 5 -29 42c0 18 0 28 10 45l195 340c15 27 29 29 77 29s60 -5 60 -26v-359h40c19 0 25 -4 25 -35s-6 -36 -25 -36h-40v-132c0 -22 -8 -27 -41 -27zM285 541l-173 -311h178l1 311h-6z" />
    <glyph glyph-name="five" unicode="5" 
d="M215 -9c-43 0 -94 8 -133 20c-17 4 -25 8 -25 37c0 30 4 34 16 34c14 0 58 -19 128 -19c99 0 122 18 122 114v33c0 87 -25 98 -92 98c-68 0 -110 -18 -136 -18c-16 0 -30 1 -30 24v276c0 20 6 25 30 25h265c19 0 25 -6 25 -37s-6 -38 -25 -38h-218v-175
c23 6 65 13 104 13c79 0 159 -5 159 -165v-42c0 -160 -84 -180 -190 -180z" />
    <glyph glyph-name="six" unicode="6" 
d="M229 -9c-119 0 -185 25 -185 243v128c0 236 102 258 205 258c33 0 84 -6 112 -13c17 -4 23 -6 23 -38c0 -27 -5 -34 -16 -34c-13 0 -64 13 -112 13c-79 0 -132 -7 -132 -189v-41c21 39 63 59 140 59c104 0 154 -30 154 -190c0 -151 -60 -196 -189 -196zM230 63
c74 0 109 16 109 119c0 101 -16 126 -102 126c-76 0 -113 -21 -113 -100c0 -131 30 -145 106 -145z" />
    <glyph glyph-name="seven" unicode="7" 
d="M167 0c-27 0 -36 7 -36 18c0 9 2 17 8 32l182 490h-249c-19 0 -25 7 -25 38s6 37 25 37h309c23 0 30 -5 30 -42c0 -18 -4 -27 -10 -45l-187 -506c-7 -19 -22 -22 -47 -22z" />
    <glyph glyph-name="eight" unicode="8" 
d="M231 -9c-150 0 -190 45 -190 183c0 94 32 133 79 150c-42 19 -65 58 -65 141c0 144 78 155 176 155s176 -11 176 -155c0 -83 -24 -122 -65 -141c46 -17 80 -56 80 -150c0 -138 -41 -183 -191 -183zM231 62c85 0 108 16 108 117c0 98 -31 110 -108 110
c-76 0 -108 -12 -108 -110c0 -101 23 -117 108 -117zM231 358c71 0 95 7 95 99c0 86 -25 94 -95 94s-94 -8 -94 -94c0 -92 24 -99 94 -99z" />
    <glyph glyph-name="nine" unicode="9" 
d="M203 -9c-42 0 -68 6 -107 13c-18 4 -25 7 -25 39c0 27 5 34 17 34c13 0 53 -14 104 -14c99 0 142 9 142 190v36c-20 -36 -60 -55 -135 -55c-105 0 -151 30 -151 191c0 150 51 195 181 195c119 0 185 -25 185 -243v-127c0 -244 -98 -259 -211 -259zM225 304
c76 0 109 21 109 100c0 132 -22 146 -105 146c-77 0 -103 -16 -103 -120c0 -102 13 -126 99 -126z" />
    <glyph glyph-name="colon" unicode=":" horiz-adv-x="174" 
d="M87 0c-36 0 -45 5 -45 31v31c0 26 9 31 45 31c37 0 45 -5 45 -31v-31c0 -26 -8 -31 -45 -31zM87 405c-36 0 -45 5 -45 31v31c0 26 9 31 45 31c37 0 45 -5 45 -31v-31c0 -26 -8 -31 -45 -31z" />
    <glyph glyph-name="semicolon" unicode=";" horiz-adv-x="160" 
d="M72 93c36 0 42 -6 42 -31v-28c0 -24 -5 -50 -13 -78l-16 -59c-9 -22 -16 -27 -43 -27c-22 0 -26 4 -26 15c0 20 13 74 13 125v52c0 25 6 31 43 31zM73 405c-36 0 -45 5 -45 31v31c0 26 9 31 45 31c37 0 45 -5 45 -31v-31c0 -26 -8 -31 -45 -31z" />
    <glyph glyph-name="less" unicode="&#x3c;" 
d="M135 264l204 -75c28 -10 31 -15 31 -51c0 -29 -6 -34 -18 -34c-5 0 -13 1 -22 5l-237 95c-26 10 -31 21 -31 65c0 45 6 54 31 64l237 95c9 3 17 5 22 5c12 0 18 -6 18 -35c0 -36 -3 -40 -31 -50l-204 -76v-8z" />
    <glyph glyph-name="equal" unicode="=" 
d="M81 201c0 31 5 35 25 35h250c20 0 25 -4 25 -35s-5 -34 -25 -34h-250c-20 0 -25 3 -25 34zM81 345c0 30 5 34 25 34h250c20 0 25 -4 25 -34c0 -31 -5 -35 -25 -35h-250c-20 0 -25 4 -25 35z" />
    <glyph glyph-name="greater" unicode="&#x3e;" 
d="M123 189l204 75v8l-204 76c-28 10 -31 14 -31 50c0 29 6 35 18 35c5 0 13 -2 22 -5l237 -95c25 -10 31 -19 31 -64c0 -44 -5 -55 -31 -65l-237 -95c-9 -4 -17 -5 -22 -5c-12 0 -18 5 -18 34c0 36 3 41 31 51z" />
    <glyph glyph-name="question" unicode="?" horiz-adv-x="360" 
d="M154 145c-31 0 -38 5 -38 26v35c0 55 12 77 38 105l75 82c18 19 30 39 30 83c0 63 -22 71 -98 71c-67 0 -112 -18 -127 -18c-12 0 -17 4 -17 33s8 34 25 39c39 12 90 19 138 19c85 0 163 -13 163 -132c0 -68 -19 -97 -54 -134l-71 -78c-15 -17 -25 -32 -25 -76v-29
c0 -21 -8 -26 -39 -26zM154 0c-36 0 -45 5 -45 31v26c0 26 9 31 45 31c37 0 45 -5 45 -31v-26c0 -26 -8 -31 -45 -31z" />
    <glyph glyph-name="at" unicode="@" horiz-adv-x="818" 
d="M370 -10c-132 0 -159 56 -159 257c0 214 56 254 177 254c58 0 103 -16 126 -68v32c0 23 6 26 39 26c32 0 38 -3 38 -26v-324c0 -58 18 -87 55 -87c42 0 67 22 67 149v104c0 246 -79 288 -306 288c-226 0 -303 -51 -303 -300v-107c0 -240 89 -294 307 -294
c19 0 26 -5 26 -34s-7 -34 -31 -34c-255 0 -379 71 -379 366v98c0 299 118 371 380 371s383 -64 383 -352v-105c0 -185 -78 -214 -150 -214c-66 0 -100 26 -117 88c-22 -57 -70 -88 -153 -88zM389 61c80 0 121 19 121 145v78c0 108 -17 147 -107 147
c-85 0 -107 -27 -107 -191c0 -150 16 -179 93 -179z" />
    <glyph glyph-name="A" unicode="A" horiz-adv-x="517" 
d="M57 0c-32 0 -40 5 -40 19c0 6 1 13 5 26l159 534c10 33 21 36 77 36c57 0 68 -3 78 -36l158 -534c4 -13 5 -20 5 -26c0 -13 -7 -19 -39 -19c-35 0 -42 5 -47 22l-48 162h-216l-46 -162c-5 -17 -11 -22 -46 -22zM252 543l-84 -293h180l-83 293h-13z" />
    <glyph glyph-name="B" unicode="B" horiz-adv-x="512" 
d="M257 -9c-66 0 -109 2 -162 8c-28 3 -33 11 -33 32v548c0 23 9 30 29 33c47 6 104 8 144 8c141 0 207 -10 207 -150c0 -78 -16 -125 -72 -144c68 -16 94 -61 94 -160c0 -130 -39 -175 -207 -175zM144 544v-189h97c97 0 115 15 115 107c0 77 -12 87 -113 87
c-41 0 -74 -2 -99 -5zM144 290v-224c28 -4 71 -5 116 -5c106 0 118 15 118 114c0 95 -19 115 -116 115h-118z" />
    <glyph glyph-name="C" unicode="C" horiz-adv-x="451" 
d="M256 -9c-127 0 -208 16 -208 273v76c0 260 77 280 210 280c46 0 94 -7 135 -19c16 -4 24 -8 24 -39c0 -27 -5 -33 -16 -33c-13 0 -60 18 -127 18c-113 0 -143 -15 -143 -216v-50c0 -204 36 -216 143 -216c71 0 113 18 127 18c12 0 16 -5 16 -33c0 -30 -8 -35 -24 -40
c-41 -11 -92 -19 -137 -19z" />
    <glyph glyph-name="D" unicode="D" horiz-adv-x="524" 
d="M252 65c108 0 141 14 141 216v57c0 193 -37 211 -154 211c-39 0 -73 -3 -95 -5v-474c27 -3 62 -5 108 -5zM252 -9c-66 0 -101 2 -156 8c-28 3 -34 12 -34 32v548c0 22 11 30 29 33c51 7 106 8 146 8c164 0 239 -20 239 -280v-59c0 -270 -84 -290 -224 -290z" />
    <glyph glyph-name="E" unicode="E" horiz-adv-x="455" 
d="M425 37c0 -30 -6 -37 -25 -37h-308c-24 0 -30 5 -30 25v565c0 20 6 25 30 25h298c19 0 25 -6 25 -37s-6 -38 -25 -38h-246v-179h191c20 0 25 -5 25 -36s-5 -37 -25 -37h-191v-213h256c19 0 25 -7 25 -38z" />
    <glyph glyph-name="F" unicode="F" horiz-adv-x="422" 
d="M103 0c-33 0 -41 5 -41 27v563c0 20 6 25 30 25h291c19 0 25 -6 25 -37s-6 -38 -25 -38h-239v-179h183c21 0 26 -5 26 -36s-5 -37 -26 -37h-183v-261c0 -22 -8 -27 -41 -27z" />
    <glyph glyph-name="G" unicode="G" horiz-adv-x="491" 
d="M248 -9c-122 0 -203 16 -203 273v76c0 260 77 280 211 280c46 0 103 -7 144 -19c16 -4 24 -8 24 -39c0 -27 -4 -33 -15 -33c-13 0 -72 18 -138 18c-113 0 -144 -15 -144 -216v-50c0 -204 38 -216 130 -216c80 0 110 20 110 133v63h-96c-18 0 -23 7 -23 38
c0 28 5 34 23 34h136c30 0 35 -7 35 -25v-122c0 -153 -54 -195 -194 -195z" />
    <glyph glyph-name="H" unicode="H" horiz-adv-x="519" 
d="M144 355h231v234c0 21 8 26 41 26c34 0 41 -5 41 -26v-562c0 -22 -7 -27 -41 -27c-33 0 -41 5 -41 27v255h-231v-255c0 -22 -8 -27 -41 -27s-41 5 -41 27v562c0 21 8 26 41 26s41 -5 41 -26v-234z" />
    <glyph glyph-name="I" unicode="I" horiz-adv-x="206" 
d="M103 0c-33 0 -41 5 -41 27v562c0 21 8 26 41 26s41 -5 41 -26v-562c0 -22 -8 -27 -41 -27z" />
    <glyph glyph-name="J" unicode="J" horiz-adv-x="335" 
d="M129 -9c-44 0 -76 7 -95 13c-17 5 -25 11 -25 39c0 29 4 31 16 31c14 0 46 -9 86 -9c63 0 80 18 80 90v434c0 21 8 26 41 26s41 -5 41 -26v-439c0 -115 -49 -159 -144 -159z" />
    <glyph glyph-name="K" unicode="K" horiz-adv-x="458" 
d="M103 0c-33 0 -41 5 -41 27v562c0 21 8 26 41 26s41 -5 41 -26v-246h14l180 253c11 16 18 19 54 19c30 0 40 -5 40 -17c0 -9 -5 -18 -13 -29l-190 -255l200 -263c11 -15 14 -24 14 -32c0 -12 -6 -19 -41 -19c-30 0 -41 4 -52 19l-193 267h-13v-259c0 -22 -8 -27 -41 -27z
" />
    <glyph glyph-name="L" unicode="L" horiz-adv-x="423" 
d="M144 75h236c19 0 25 -7 25 -38c0 -30 -6 -37 -25 -37h-288c-24 0 -30 5 -30 25v564c0 21 8 26 41 26s41 -5 41 -26v-514z" />
    <glyph glyph-name="M" unicode="M" horiz-adv-x="632" 
d="M103 0c-33 0 -41 5 -41 27v558c0 23 7 30 62 30c46 0 61 -3 73 -35l116 -316h6l116 316c12 32 27 35 74 35c54 0 61 -7 61 -30v-558c0 -22 -8 -27 -41 -27s-41 5 -41 27c0 154 0 322 1 477h-7l-117 -313c-10 -26 -19 -30 -49 -30c-29 0 -39 4 -49 30l-116 313h-8
c1 -155 1 -323 1 -477c0 -22 -8 -27 -41 -27z" />
    <glyph glyph-name="N" unicode="N" horiz-adv-x="543" 
d="M103 0c-33 0 -41 5 -41 27v562c0 21 9 26 59 26c40 0 54 -1 65 -26l203 -462h10v462c0 21 7 26 41 26c33 0 41 -5 41 -26v-562c0 -22 -8 -27 -58 -27c-40 0 -51 2 -62 26l-207 463h-10v-462c0 -22 -8 -27 -41 -27z" />
    <glyph glyph-name="O" unicode="O" horiz-adv-x="524" 
d="M262 63c107 0 132 23 132 218v49c0 196 -18 218 -132 218c-107 0 -131 -22 -131 -218v-49c0 -195 17 -218 131 -218zM262 -9c-160 0 -214 30 -214 285v57c0 265 66 287 214 287c163 0 214 -30 214 -287v-57c0 -262 -68 -285 -214 -285z" />
    <glyph glyph-name="P" unicode="P" horiz-adv-x="483" 
d="M103 0c-33 0 -41 5 -41 27v552c0 21 12 30 29 32c51 7 112 9 156 9c144 0 200 -21 200 -178c0 -152 -57 -206 -217 -206h-86v-209c0 -22 -8 -27 -41 -27zM144 544v-239h88c103 0 129 29 129 134c0 93 -21 110 -121 110c-34 0 -73 -3 -96 -5z" />
    <glyph glyph-name="Q" unicode="Q" horiz-adv-x="524" 
d="M262 -9c-160 0 -214 30 -214 285v57c0 265 66 287 214 287c163 0 214 -30 214 -287v-57c0 -166 -27 -236 -84 -265l44 -80c8 -14 11 -20 11 -28c0 -11 -8 -17 -37 -17c-27 0 -35 4 -44 21l-46 87c-18 -2 -37 -3 -58 -3zM262 63c107 0 132 23 132 218v49
c0 196 -18 218 -132 218c-107 0 -131 -22 -131 -218v-49c0 -195 17 -218 131 -218z" />
    <glyph glyph-name="R" unicode="R" horiz-adv-x="499" 
d="M103 0c-33 0 -41 5 -41 27v552c0 21 12 30 29 32c51 7 112 9 156 9c144 0 200 -20 200 -168c0 -101 -29 -155 -102 -178l108 -231c6 -14 8 -20 8 -25c0 -11 -7 -18 -36 -18c-39 0 -46 4 -53 21l-101 241c-11 -1 -23 -1 -36 -1h-91v-234c0 -22 -8 -27 -41 -27zM144 544
v-219h93c98 0 124 24 124 124c0 82 -21 100 -121 100c-34 0 -71 -3 -96 -5z" />
    <glyph glyph-name="S" unicode="S" horiz-adv-x="459" 
d="M217 -9c-51 0 -109 8 -148 19c-17 5 -26 12 -26 41s5 33 17 33c18 0 67 -18 143 -18c92 0 131 26 131 96c0 52 -10 74 -50 92l-129 58c-71 32 -98 61 -98 150c0 140 80 158 168 158c48 0 111 -7 152 -19c15 -4 23 -11 23 -40c0 -28 -5 -34 -17 -34c-13 0 -67 19 -139 19
c-79 0 -105 -8 -105 -85c0 -48 15 -61 55 -79l129 -58c72 -32 92 -72 92 -156c0 -137 -85 -177 -198 -177z" />
    <glyph glyph-name="T" unicode="T" horiz-adv-x="429" 
d="M214 0c-33 0 -41 5 -41 27v513h-138c-19 0 -25 7 -25 38s6 37 25 37h358c19 0 26 -6 26 -37s-7 -38 -26 -38h-137v-513c0 -22 -8 -27 -42 -27z" />
    <glyph glyph-name="U" unicode="U" horiz-adv-x="521" 
d="M261 -9c-141 0 -199 50 -199 186v412c0 21 8 26 41 26s41 -5 41 -26v-415c0 -78 23 -108 117 -108c93 0 116 30 116 108v415c0 21 8 26 41 26c34 0 41 -5 41 -26v-412c0 -136 -58 -186 -198 -186z" />
    <glyph glyph-name="V" unicode="V" horiz-adv-x="508" 
d="M260 72l143 521c5 18 13 22 48 22c32 0 40 -3 40 -17c0 -6 -3 -18 -7 -32l-155 -533c-8 -29 -18 -33 -75 -33s-67 4 -75 33l-155 533c-4 14 -7 26 -7 32c0 14 8 17 40 17c35 0 43 -4 48 -22l143 -521h12z" />
    <glyph glyph-name="W" unicode="W" horiz-adv-x="795" 
d="M212 0c-50 0 -66 4 -72 33l-120 538c-1 8 -3 17 -3 24c0 15 8 20 40 20c35 0 43 -4 47 -22l106 -516h12l113 500c4 24 22 28 63 28c40 0 58 -4 62 -28l113 -500h12l106 516c4 18 12 22 47 22c32 0 40 -5 40 -20c0 -7 -2 -16 -3 -24l-120 -538c-6 -29 -22 -33 -72 -33
c-49 0 -65 5 -72 35l-108 465h-10l-109 -465c-7 -30 -23 -35 -72 -35z" />
    <glyph glyph-name="X" unicode="X" horiz-adv-x="482" 
d="M63 0c-32 0 -41 7 -41 20c0 7 3 16 12 30l162 266l-152 248c-8 15 -12 24 -12 31c0 13 10 20 42 20c33 0 42 -3 52 -22l113 -198h4l112 198c10 19 20 22 53 22c32 0 41 -7 41 -20c0 -7 -3 -16 -12 -30l-153 -248l164 -266c9 -15 12 -24 12 -31c0 -13 -10 -20 -41 -20
c-33 0 -42 3 -52 22l-125 219h-4l-123 -219c-10 -19 -19 -22 -52 -22z" />
    <glyph glyph-name="Y" unicode="Y" horiz-adv-x="455" 
d="M227 0c-33 0 -41 5 -41 27v209l-158 328c-8 17 -11 25 -11 32c0 12 8 19 38 19c38 0 47 -3 54 -22l116 -268h5l116 268c7 19 15 22 53 22c31 0 39 -7 39 -19c0 -6 -3 -15 -11 -32l-158 -328v-209c0 -22 -8 -27 -42 -27z" />
    <glyph glyph-name="Z" unicode="Z" horiz-adv-x="408" 
d="M292 540h-229c-19 0 -26 7 -26 38s7 37 26 37h300c20 0 25 -7 25 -36c0 -20 -3 -30 -18 -57l-256 -447h250c19 0 25 -7 25 -38c0 -30 -6 -37 -25 -37h-321c-21 0 -26 8 -26 37c0 19 4 30 20 58z" />
    <glyph glyph-name="bracketleft" unicode="[" horiz-adv-x="259" 
d="M245 -25c0 -29 -7 -34 -26 -34h-131c-25 0 -32 7 -32 27v670c0 21 7 28 32 28h124c19 0 25 -5 25 -34c0 -30 -6 -36 -25 -36h-77v-586h84c19 0 26 -5 26 -35z" />
    <glyph glyph-name="backslash" unicode="\" horiz-adv-x="262" 
d="M212 -64c-26 0 -38 5 -43 25l-147 658c-6 26 -6 32 -6 35c0 11 10 17 36 17c27 0 39 -6 43 -26l147 -658c6 -26 7 -31 7 -34c0 -11 -10 -17 -37 -17z" />
    <glyph glyph-name="bracketright" unicode="]" horiz-adv-x="259" 
d="M14 -25c0 30 7 35 26 35h84v586h-77c-19 0 -25 6 -25 36c0 29 6 34 25 34h124c25 0 32 -7 32 -28v-670c0 -20 -7 -27 -32 -27h-131c-19 0 -26 5 -26 34z" />
    <glyph glyph-name="asciicircum" unicode="^" 
d="M235 545h-6l-79 -175c-9 -20 -13 -24 -49 -24c-29 0 -35 7 -35 18c0 6 5 16 10 27l91 195c11 24 19 30 67 30s55 -6 65 -30l87 -195c4 -10 10 -21 10 -27c0 -11 -6 -18 -35 -18c-36 0 -40 4 -49 24z" />
    <glyph glyph-name="underscore" unicode="_" horiz-adv-x="480" 
d="M32 -54c0 30 5 37 25 37h366c20 0 25 -7 25 -37c0 -31 -5 -38 -25 -38h-366c-20 0 -25 7 -25 38z" />
    <glyph glyph-name="grave" unicode="`" horiz-adv-x="203" 
d="M144 539c-34 0 -39 8 -49 23l-57 88c-7 11 -14 22 -14 31c0 10 10 16 47 16c39 0 42 -8 51 -26l47 -90c5 -10 10 -19 10 -26c0 -10 -9 -16 -35 -16z" />
    <glyph glyph-name="a" unicode="a" horiz-adv-x="486" 
d="M171 -10c-88 0 -129 39 -129 141s46 142 181 142h108v77c0 71 -26 80 -94 80c-77 0 -131 -19 -150 -19c-11 0 -16 9 -16 33c0 25 6 33 21 37c35 11 99 20 154 20c111 0 166 -20 166 -135v-186c0 -95 23 -144 23 -160c0 -12 -5 -20 -39 -20c-29 0 -34 3 -40 23l-17 65
c-30 -68 -95 -98 -168 -98zM195 59c72 0 136 43 136 123v36l-112 -3c-78 -2 -97 -18 -97 -76c0 -70 22 -80 73 -80z" />
    <glyph glyph-name="b" unicode="b" horiz-adv-x="507" 
d="M244 -10c-156 0 -183 44 -183 114v522c0 23 8 27 41 27c32 0 41 -4 41 -27v-210c26 56 78 85 153 85c126 0 159 -40 159 -250c0 -212 -56 -261 -211 -261zM248 61c97 0 122 33 122 181c0 162 -12 189 -98 189c-98 0 -130 -51 -130 -179v-139c0 -34 12 -52 106 -52z" />
    <glyph glyph-name="c" unicode="c" horiz-adv-x="428" 
d="M243 -10c-133 0 -191 30 -191 251c0 238 77 260 193 260c41 0 88 -7 122 -17c19 -6 25 -13 25 -39c0 -27 -5 -33 -15 -33c-13 0 -73 18 -125 18c-87 0 -116 -18 -116 -181c0 -162 12 -187 118 -187c68 0 110 21 124 21c9 0 14 -6 14 -33c0 -26 -5 -32 -24 -39
c-33 -12 -87 -21 -125 -21z" />
    <glyph glyph-name="d" unicode="d" horiz-adv-x="518" 
d="M221 -10c-139 0 -169 56 -169 255c0 216 59 256 187 256c60 0 105 -13 130 -56v181c0 23 9 27 42 27c32 0 41 -4 41 -27v-446c0 -95 23 -144 23 -160c0 -12 -6 -20 -39 -20c-29 0 -35 3 -40 23l-14 52c-23 -55 -73 -85 -161 -85zM240 61c88 0 131 21 131 145v76
c0 110 -20 149 -117 149c-95 0 -118 -27 -118 -191c0 -150 17 -179 104 -179z" />
    <glyph glyph-name="e" unicode="e" horiz-adv-x="468" 
d="M253 -10c-143 0 -201 30 -201 251c0 238 76 260 196 260c158 0 175 -76 175 -233c0 -28 -6 -42 -36 -42h-251c1 -141 17 -164 125 -164c77 0 127 21 141 21c9 0 14 -6 14 -33c0 -26 -5 -32 -24 -39c-33 -12 -93 -21 -139 -21zM246 431c-78 0 -106 -16 -110 -148h207
c0 102 -2 148 -97 148z" />
    <glyph glyph-name="f" unicode="f" horiz-adv-x="307" 
d="M32 456c0 27 5 34 23 34h44v55c0 87 31 120 107 120c24 0 52 -4 69 -8c18 -5 25 -8 25 -33s-5 -33 -17 -33c-10 0 -32 5 -61 5c-35 0 -43 -7 -43 -69v-37h84c18 0 23 -7 23 -34c0 -26 -5 -33 -23 -33h-81v-396c0 -23 -9 -27 -42 -27c-32 0 -41 4 -41 27v396h-44
c-18 0 -23 7 -23 33z" />
    <glyph glyph-name="g" unicode="g" horiz-adv-x="513" 
d="M52 250c0 211 59 251 189 251c65 0 114 -15 139 -71l10 39c5 20 11 22 41 22c33 0 38 -7 38 -19c0 -16 -23 -66 -23 -161v-275c0 -189 -88 -229 -216 -229c-48 0 -95 4 -135 12c-17 4 -25 10 -25 40c0 26 4 33 16 33c16 0 62 -11 146 -11c105 0 132 42 132 150v17
c-26 -38 -73 -58 -147 -58c-136 0 -165 56 -165 260zM136 240c0 -150 17 -179 104 -179c88 0 131 21 131 145v76c0 110 -20 149 -117 149c-95 0 -118 -27 -118 -191z" />
    <glyph glyph-name="h" unicode="h" horiz-adv-x="497" 
d="M102 0c-33 0 -41 4 -41 27v599c0 23 8 27 41 27c32 0 41 -4 41 -27v-199c26 52 75 74 156 74c110 0 136 -44 136 -131v-343c0 -23 -9 -27 -41 -27c-33 0 -42 4 -42 27v324c0 59 -14 78 -81 78c-95 0 -128 -49 -128 -168v-234c0 -23 -9 -27 -41 -27z" />
    <glyph glyph-name="i" unicode="i" horiz-adv-x="208" 
d="M102 0c-33 0 -41 4 -41 27v438c0 23 8 26 41 26c32 0 41 -3 41 -26v-438c0 -23 -9 -27 -41 -27zM102 569c-40 0 -46 5 -46 31v21c0 26 6 32 46 32c39 0 46 -6 46 -32v-21c0 -26 -7 -31 -46 -31z" />
    <glyph glyph-name="j" unicode="j" horiz-adv-x="208" 
d="M102 491c32 0 41 -3 41 -26v-534c0 -88 -30 -124 -105 -124c-25 0 -51 5 -68 10c-19 5 -26 10 -26 35c0 29 5 32 16 32s32 -5 57 -5c36 0 44 7 44 69v517c0 23 8 26 41 26zM102 569c-40 0 -46 5 -46 31v21c0 26 6 32 46 32c39 0 46 -6 46 -32v-21c0 -26 -7 -31 -46 -31z
" />
    <glyph glyph-name="k" unicode="k" horiz-adv-x="428" 
d="M102 0c-33 0 -41 4 -41 27v599c0 23 8 27 41 27c32 0 41 -4 41 -27v-342h9l157 187c14 16 21 20 55 20c30 0 40 -4 40 -14c0 -9 -6 -19 -14 -28l-165 -192l177 -215c7 -8 13 -16 13 -26c0 -11 -12 -16 -43 -16c-32 0 -37 4 -51 21l-170 207h-8v-201c0 -23 -9 -27 -41 -27
z" />
    <glyph glyph-name="l" unicode="l" horiz-adv-x="205" 
d="M102 0c-33 0 -41 4 -41 27v599c0 23 8 27 41 27c32 0 41 -4 41 -27v-599c0 -23 -9 -27 -41 -27z" />
    <glyph glyph-name="m" unicode="m" horiz-adv-x="781" 
d="M115 0c-33 0 -42 4 -42 27v284c0 95 -22 145 -22 161c0 12 5 19 38 19c29 0 37 -2 41 -22l12 -55c24 61 73 87 160 87c83 0 119 -26 131 -76c24 53 70 76 151 76c110 0 136 -44 136 -131v-343c0 -23 -9 -27 -42 -27c-32 0 -41 4 -41 27v324c0 59 -14 78 -81 78
c-94 0 -118 -49 -118 -168v-234c0 -23 -9 -27 -42 -27c-32 0 -41 4 -41 27v324c0 59 -14 78 -81 78c-94 0 -118 -49 -118 -168v-234c0 -23 -9 -27 -41 -27z" />
    <glyph glyph-name="n" unicode="n" horiz-adv-x="510" 
d="M115 0c-33 0 -42 4 -42 27v284c0 95 -22 145 -22 161c0 12 5 19 38 19c29 0 36 -2 41 -22l14 -59c27 63 80 91 168 91c110 0 136 -44 136 -131v-343c0 -23 -9 -27 -42 -27c-32 0 -41 4 -41 27v324c0 59 -14 78 -81 78c-95 0 -128 -49 -128 -168v-234
c0 -23 -9 -27 -41 -27z" />
    <glyph glyph-name="o" unicode="o" horiz-adv-x="497" 
d="M241 -10c-146 0 -189 41 -189 251c0 207 57 260 205 260c145 0 188 -40 188 -250c0 -206 -56 -261 -204 -261zM243 61c98 0 118 33 118 181c0 162 -13 189 -107 189c-98 0 -118 -32 -118 -180c0 -162 13 -190 107 -190z" />
    <glyph glyph-name="p" unicode="p" horiz-adv-x="525" 
d="M115 -189c-33 0 -42 4 -42 27v473c0 95 -22 145 -22 161c0 12 5 19 38 19c29 0 36 -2 41 -22l13 -54c25 55 77 86 162 86c139 0 168 -55 168 -254c0 -217 -58 -257 -186 -257c-61 0 -106 13 -131 54v-206c0 -23 -9 -27 -41 -27zM272 61c94 0 117 26 117 190
c0 150 -16 180 -103 180s-131 -27 -131 -160v-62c0 -110 20 -148 117 -148z" />
    <glyph glyph-name="q" unicode="q" horiz-adv-x="513" 
d="M405 -189c-32 0 -41 4 -41 27v210c-26 -38 -73 -58 -147 -58c-136 0 -165 56 -165 260c0 211 59 251 189 251c65 0 114 -15 139 -71l10 39c5 20 11 22 41 22c33 0 38 -7 38 -19c0 -16 -23 -66 -23 -161v-473c0 -23 -8 -27 -41 -27zM237 61c88 0 131 19 131 144v77
c0 109 -20 149 -116 149s-118 -26 -118 -187c0 -153 17 -183 103 -183z" />
    <glyph glyph-name="r" unicode="r" horiz-adv-x="341" 
d="M115 0c-33 0 -42 4 -42 27v284c0 95 -22 145 -22 161c0 12 5 19 38 19c29 0 36 -2 41 -22l14 -55c25 59 70 86 123 86c18 0 38 -4 45 -6c12 -5 17 -13 17 -39c0 -28 -8 -34 -17 -34c-8 0 -27 6 -53 6c-76 0 -103 -76 -103 -193v-207c0 -23 -9 -27 -41 -27z" />
    <glyph glyph-name="s" unicode="s" horiz-adv-x="429" 
d="M199 -10c-45 0 -95 7 -130 18c-19 6 -24 13 -24 38c0 27 5 34 13 34c16 0 67 -18 134 -18c81 0 109 26 109 79c0 31 -12 44 -38 55l-135 57c-40 17 -70 49 -70 118c0 105 75 130 156 130c45 0 96 -7 134 -17c19 -5 24 -11 24 -40c0 -30 -8 -32 -16 -32
c-13 0 -70 19 -131 19c-65 0 -83 -19 -83 -60c0 -31 7 -46 38 -59l131 -54c54 -22 73 -55 73 -113c0 -113 -74 -155 -185 -155z" />
    <glyph glyph-name="t" unicode="t" horiz-adv-x="317" 
d="M202 -10c-76 0 -103 36 -103 123v310h-52c-17 0 -22 7 -22 33c0 27 5 34 22 34h52v76c0 23 9 27 41 27c33 0 42 -4 42 -27v-76h89c17 0 22 -7 22 -34c0 -26 -5 -33 -22 -33h-89v-293c0 -60 6 -67 42 -67c27 0 46 6 56 6c12 0 17 -5 17 -32c0 -25 -8 -30 -24 -36
c-18 -6 -46 -11 -71 -11z" />
    <glyph glyph-name="u" unicode="u" horiz-adv-x="500" 
d="M195 -10c-107 0 -134 42 -134 129v346c0 23 8 26 41 26c32 0 41 -3 41 -26v-327c0 -59 15 -76 81 -76c96 0 128 49 128 169v234c0 23 8 26 41 26s41 -3 41 -26v-285c0 -95 23 -144 23 -160c0 -12 -5 -20 -38 -20c-30 0 -36 3 -41 23l-14 56c-27 -62 -81 -89 -169 -89z
" />
    <glyph glyph-name="v" unicode="v" horiz-adv-x="456" 
d="M225 0c-49 0 -61 5 -69 31l-123 400c-5 16 -8 30 -8 37c0 16 5 23 40 23c37 0 43 -3 51 -33l106 -384h10l108 384c9 30 15 33 51 33s41 -7 41 -23c0 -7 -4 -21 -8 -37l-128 -400c-8 -26 -23 -31 -71 -31z" />
    <glyph glyph-name="w" unicode="w" horiz-adv-x="699" 
d="M189 0c-45 0 -61 5 -67 31l-92 400c-3 15 -5 29 -5 37c0 17 5 23 40 23c37 0 44 -3 49 -28l79 -389h11l87 374c6 26 17 33 59 33c41 0 52 -7 58 -33l87 -374h11l79 389c5 25 12 28 49 28c35 0 40 -6 40 -23c0 -8 -2 -22 -5 -37l-92 -400c-6 -26 -22 -31 -67 -31
c-50 0 -71 5 -77 31l-80 338h-7l-80 -338c-6 -26 -27 -31 -77 -31z" />
    <glyph glyph-name="x" unicode="x" horiz-adv-x="440" 
d="M66 0c-31 0 -41 7 -41 19c0 6 3 12 10 24l137 212l-124 189c-7 11 -12 21 -12 27c0 15 11 20 45 20c33 0 41 -2 49 -19l89 -148h4l88 148c8 17 15 19 48 19c35 0 45 -5 45 -20c0 -6 -4 -15 -11 -26l-126 -187l138 -214c7 -12 11 -19 11 -24c0 -13 -10 -20 -41 -20
c-34 0 -45 3 -55 24l-98 168h-4l-98 -168c-9 -20 -21 -24 -54 -24z" />
    <glyph glyph-name="y" unicode="y" horiz-adv-x="454" 
d="M25 469c0 14 4 22 42 22c32 0 40 -2 45 -20l111 -399h8l111 399c5 18 13 20 44 20c37 0 44 -7 44 -21c0 -6 -1 -19 -11 -50l-145 -466c-33 -106 -53 -147 -141 -147c-32 0 -61 4 -81 11c-16 5 -24 11 -24 35c0 27 4 33 17 33c11 0 34 -7 79 -7s57 12 71 62l16 59
c-37 1 -49 15 -59 48l-112 357c-14 46 -15 57 -15 64z" />
    <glyph glyph-name="z" unicode="z" horiz-adv-x="396" 
d="M366 36c0 -25 -5 -36 -22 -36h-293c-18 0 -23 8 -23 34c0 27 4 40 20 63l228 322h-205c-18 0 -23 11 -23 36c0 26 5 36 23 36h273c17 0 22 -8 22 -33c0 -24 -3 -40 -17 -60l-231 -326h226c17 0 22 -11 22 -36z" />
    <glyph glyph-name="braceleft" unicode="{" horiz-adv-x="302" 
d="M105 216c0 37 -12 52 -45 52c-20 0 -25 5 -25 36s5 36 25 36c33 0 45 15 45 52c0 63 -2 116 -2 182c0 64 17 99 84 99c26 0 59 -4 82 -8c16 -3 19 -11 19 -34c0 -26 -6 -32 -19 -32c-14 0 -46 2 -68 2c-15 0 -19 -8 -19 -37c0 -58 2 -114 2 -172c0 -43 -14 -79 -50 -86
v-4c36 -7 50 -43 50 -86c0 -58 -2 -114 -2 -172c0 -28 4 -36 19 -36c22 0 54 2 68 2c13 0 19 -6 19 -32c0 -24 -3 -32 -19 -35c-23 -4 -56 -7 -82 -7c-67 0 -84 35 -84 98c0 66 2 119 2 182z" />
    <glyph glyph-name="bar" unicode="|" horiz-adv-x="173" 
d="M86 -189c-30 0 -34 4 -34 30v800c0 26 4 30 34 30c31 0 35 -4 35 -30v-800c0 -26 -4 -30 -35 -30z" />
    <glyph glyph-name="braceright" unicode="}" horiz-adv-x="302" 
d="M115 -64c-26 0 -59 3 -82 7c-16 3 -19 11 -19 35c0 26 6 32 19 32c14 0 46 -2 68 -2c15 0 19 8 19 36c0 58 -2 114 -2 172c0 43 14 79 50 86v4c-36 7 -50 43 -50 86c0 58 2 114 2 172c0 29 -4 37 -19 37c-22 0 -54 -2 -68 -2c-13 0 -19 6 -19 32c0 23 3 31 19 34
c23 4 56 8 82 8c67 0 84 -35 84 -99c0 -66 -2 -119 -2 -182c0 -37 12 -52 45 -52c20 0 25 -5 25 -36s-5 -36 -25 -36c-33 0 -45 -15 -45 -52c0 -63 2 -116 2 -182c0 -63 -17 -98 -84 -98z" />
    <glyph glyph-name="asciitilde" unicode="~" 
d="M82 263c0 22 7 32 25 43c10 7 34 18 60 18c41 0 98 -22 134 -22c34 0 54 19 64 19s14 -5 14 -30c0 -22 -6 -32 -24 -43c-10 -7 -34 -18 -60 -18c-42 0 -98 22 -134 22c-34 0 -54 -19 -65 -19c-9 0 -14 5 -14 30z" />
    <glyph glyph-name="exclamdown" unicode="&#xa1;" horiz-adv-x="203" 
d="M102 470c31 0 36 -5 36 -26c0 -135 7 -274 7 -418c0 -21 -10 -26 -43 -26s-43 5 -43 26c0 144 7 283 7 418c0 21 5 26 36 26zM102 615c36 0 44 -5 44 -31v-26c0 -26 -8 -31 -44 -31c-37 0 -45 5 -45 31v26c0 26 8 31 45 31z" />
    <glyph glyph-name="cent" unicode="&#xa2;" 
d="M249 615c30 0 38 -3 38 -26v-71c32 -2 63 -7 89 -14c19 -6 25 -11 25 -38s-5 -33 -15 -33c-12 0 -73 18 -139 18c-73 0 -102 -12 -102 -135c0 -122 13 -141 108 -141c78 0 120 21 135 21c8 0 13 -6 13 -33c0 -26 -5 -30 -24 -37c-23 -8 -55 -16 -90 -20v-79
c0 -23 -8 -27 -38 -27c-29 0 -37 4 -37 27v77c-102 4 -151 37 -151 204c0 177 61 207 151 211v70c0 23 8 26 37 26z" />
    <glyph glyph-name="sterling" unicode="&#xa3;" 
d="M284 304c0 -27 -6 -31 -24 -31h-77v-50c0 -77 -17 -122 -29 -148h235c19 0 26 -7 26 -38c0 -30 -7 -37 -26 -37h-298c-25 0 -30 5 -30 25c0 41 41 86 41 182v66h-47c-19 0 -25 4 -25 31c0 26 6 30 25 30h47v126c0 122 59 160 156 160c47 0 94 -7 115 -13
c16 -4 24 -10 24 -38s-5 -32 -16 -32c-14 0 -59 10 -101 10c-73 0 -97 -17 -97 -98v-115h77c18 0 24 -4 24 -30z" />
    <glyph glyph-name="currency" unicode="&#xa4;" 
d="M125 65c-25 0 -32 5 -32 13c0 7 4 16 10 31l21 48c-22 21 -29 56 -29 112s7 91 29 112l-21 49c-6 15 -10 24 -10 31c0 8 7 13 32 13c30 0 36 -3 42 -18l21 -50c13 1 28 2 44 2c15 0 30 -1 42 -2l23 50c7 15 12 18 42 18c25 0 32 -5 32 -13c0 -7 -4 -16 -10 -31l-22 -49
c22 -21 30 -56 30 -112s-8 -91 -30 -112l22 -48c6 -15 10 -24 10 -31c0 -8 -7 -13 -32 -13c-30 0 -35 2 -42 18l-22 50c-13 -2 -27 -2 -43 -2s-30 0 -43 2l-22 -50c-7 -16 -12 -18 -42 -18zM232 192c56 0 65 7 65 78c0 69 -9 77 -65 77s-65 -8 -65 -77c0 -71 9 -78 65 -78z
" />
    <glyph glyph-name="yen" unicode="&#xa5;" 
d="M231 0c-33 0 -41 5 -41 27v86h-93c-19 0 -25 5 -25 31s6 30 25 30h93v56h-94c-19 0 -24 5 -24 31s5 31 24 31h73l-134 273c-5 11 -10 22 -10 30c0 15 8 20 40 20c35 0 43 -3 51 -22l113 -262h5l113 262c8 19 15 22 50 22c32 0 40 -5 40 -20c0 -8 -4 -19 -10 -30
l-134 -273h74c19 0 25 -5 25 -31s-6 -31 -25 -31h-94v-56h94c19 0 24 -4 24 -30s-5 -31 -24 -31h-94v-86c0 -22 -8 -27 -42 -27z" />
    <glyph glyph-name="brokenbar" unicode="&#xa6;" horiz-adv-x="173" 
d="M86 281c-30 0 -34 4 -34 29v331c0 26 4 30 34 30c31 0 35 -4 35 -30v-331c0 -25 -4 -29 -35 -29zM86 -189c-30 0 -34 4 -34 30v331c0 25 4 29 34 29c31 0 35 -4 35 -29v-331c0 -26 -4 -30 -35 -30z" />
    <glyph glyph-name="section" unicode="&#xa7;" horiz-adv-x="456" 
d="M48 250c0 58 18 92 45 110c-27 23 -38 55 -38 112c0 132 81 148 169 148c47 0 110 -7 151 -19c16 -4 24 -11 24 -40c0 -28 -6 -34 -17 -34c-13 0 -68 19 -139 19c-79 0 -106 -9 -106 -75c0 -42 11 -58 45 -73l136 -57c70 -29 93 -74 93 -142c0 -54 -16 -86 -39 -105
c32 -27 42 -63 42 -123c0 -130 -85 -160 -198 -160c-51 0 -109 8 -148 19c-17 5 -26 12 -26 41s5 33 17 33c18 0 67 -18 142 -18c96 0 131 19 131 79c0 51 -10 72 -50 89l-143 61c-68 28 -91 68 -91 135zM130 261c0 -41 10 -63 45 -77l135 -57c12 10 19 29 19 62
c0 41 -8 66 -47 82l-129 55c-16 -10 -23 -29 -23 -65z" />
    <glyph glyph-name="dieresis" unicode="&#xa8;" horiz-adv-x="292" 
d="M73 569c-37 0 -44 5 -44 31v21c0 26 7 32 44 32s44 -6 44 -32v-21c0 -26 -7 -31 -44 -31zM220 569c-38 0 -45 5 -45 31v21c0 26 7 32 45 32c37 0 44 -6 44 -32v-21c0 -26 -7 -31 -44 -31z" />
    <glyph glyph-name="copyright" unicode="&#xa9;" horiz-adv-x="884" 
d="M442 -63c289 0 342 101 342 381c0 273 -53 375 -342 375s-342 -102 -342 -375c0 -280 53 -381 342 -381zM442 -128c-359 0 -415 156 -415 443s56 443 415 443c360 0 415 -156 415 -443s-55 -443 -415 -443zM448 60c-132 0 -191 30 -191 251c0 238 78 260 194 260
c41 0 87 -7 122 -17c19 -6 24 -13 24 -39c0 -27 -5 -33 -15 -33c-12 0 -72 18 -125 18c-87 0 -116 -18 -116 -181c0 -162 13 -187 118 -187c68 0 110 21 125 21c8 0 14 -6 14 -33c0 -26 -6 -32 -25 -39c-33 -12 -86 -21 -125 -21z" />
    <glyph glyph-name="ordfeminine" unicode="&#xaa;" horiz-adv-x="368" 
d="M133 251c-73 0 -101 30 -101 104c0 75 28 107 126 107h88v32c0 52 -13 66 -64 66c-59 0 -96 -14 -113 -14c-10 0 -14 6 -14 28c0 19 3 25 17 30c18 7 68 16 114 16c88 0 128 -18 128 -107v-102c0 -76 14 -119 14 -133c0 -10 -4 -17 -31 -17c-22 0 -28 2 -32 20l-11 44
c-19 -47 -60 -74 -121 -74zM150 309c45 0 96 15 96 98v8l-101 -4c-37 -1 -46 -11 -46 -52c0 -42 16 -50 51 -50z" />
    <glyph glyph-name="guillemotleft" unicode="&#xab;" horiz-adv-x="591" 
d="M399 248v-8l136 -117c18 -16 22 -23 22 -54c0 -27 -7 -32 -16 -32c-5 0 -14 4 -22 10l-171 129c-22 16 -31 24 -31 68c0 45 9 53 31 69l171 129c8 5 17 10 22 10c9 0 16 -5 16 -32c0 -31 -4 -38 -22 -54zM118 248v-8l143 -107c19 -14 22 -21 22 -54c0 -27 -7 -32 -15 -32
c-6 0 -14 4 -22 10l-181 122c-22 15 -30 24 -30 65c0 42 8 51 30 66l181 122c8 5 16 10 22 10c8 0 15 -5 15 -32c0 -33 -3 -40 -22 -54z" />
    <glyph glyph-name="logicalnot" unicode="&#xac;" 
d="M351 143c-33 0 -38 5 -38 26v76h-214c-20 0 -26 5 -26 36s6 36 26 36h260c25 0 31 -5 31 -25v-123c0 -21 -6 -26 -39 -26z" />
    <glyph glyph-name="registered" unicode="&#xae;" horiz-adv-x="884" 
d="M442 -128c-359 0 -415 156 -415 443s56 443 415 443c360 0 415 -156 415 -443s-55 -443 -415 -443zM442 -63c289 0 342 101 342 381c0 273 -53 375 -342 375s-342 -102 -342 -375c0 -280 53 -381 342 -381zM309 70c-33 0 -42 5 -42 27v437c0 21 12 29 30 32
c51 7 102 9 145 9c142 0 188 -20 188 -149c0 -85 -22 -128 -91 -145l97 -171c5 -10 9 -17 9 -23c0 -12 -9 -17 -39 -17c-37 0 -43 4 -51 21l-88 180h-116v-174c0 -22 -8 -27 -42 -27zM351 499v-165h83c95 0 112 11 112 94c0 65 -18 76 -108 76c-34 0 -62 -2 -87 -5z" />
    <glyph glyph-name="macron" unicode="&#xaf;" horiz-adv-x="260" 
d="M27 609c0 30 5 36 26 36h154c21 0 26 -6 26 -36s-5 -36 -26 -36h-154c-21 0 -26 6 -26 36z" />
    <glyph glyph-name="degree" unicode="&#xb0;" horiz-adv-x="435" 
d="M215 337c-111 0 -134 31 -134 140c0 107 18 143 138 143c109 0 135 -29 135 -139c0 -107 -16 -144 -139 -144zM152 476c0 -70 12 -77 63 -77c62 0 68 12 68 82c0 71 -12 77 -64 77c-61 0 -67 -12 -67 -82z" />
    <glyph glyph-name="plusminus" unicode="&#xb1;" 
d="M82 302c0 28 5 33 26 33h87v97c0 20 5 25 36 25c30 0 35 -5 35 -25v-97h88c20 0 25 -5 25 -33s-5 -32 -25 -32h-88v-97c0 -20 -5 -25 -35 -25c-31 0 -36 5 -36 25v97h-87c-21 0 -26 4 -26 32zM100 68c0 29 5 33 25 33h212c20 0 25 -4 25 -33c0 -30 -5 -34 -25 -34h-212
c-20 0 -25 4 -25 34z" />
    <glyph glyph-name="twosuperior" unicode="&#xb2;" horiz-adv-x="361" 
d="M129 358h146c16 0 23 -4 23 -31s-7 -32 -23 -32h-201c-17 0 -24 5 -24 27v15c0 21 9 32 29 53l100 105c29 30 36 48 36 69c0 36 -13 44 -50 44c-45 0 -72 -12 -85 -12c-10 0 -13 1 -13 27c0 23 7 28 22 32c24 7 56 12 88 12c61 0 109 -13 109 -89c0 -50 -14 -69 -59 -117
z" />
    <glyph glyph-name="threesuperior" unicode="&#xb3;" horiz-adv-x="370" 
d="M182 290c-32 0 -71 6 -95 13c-15 4 -22 9 -22 32c0 25 4 27 13 27c14 0 49 -12 92 -12c42 0 65 10 65 53c0 32 -9 55 -93 55c-15 0 -18 7 -18 26c0 20 3 27 18 27c71 0 84 15 84 54c0 35 -13 43 -54 43c-39 0 -72 -12 -84 -12c-10 0 -15 1 -15 27c0 23 8 28 23 32
c24 7 59 12 91 12c62 0 108 -13 108 -89c0 -57 -25 -87 -71 -95c60 -4 82 -37 82 -88c0 -88 -61 -105 -124 -105z" />
    <glyph glyph-name="acute" unicode="&#xb4;" horiz-adv-x="203" 
d="M59 539c-25 0 -35 6 -35 16c0 7 5 16 10 26l47 90c9 18 12 26 51 26c37 0 47 -6 47 -16c0 -9 -7 -20 -14 -31l-57 -88c-10 -15 -15 -23 -49 -23z" />
    <glyph glyph-name="mu" unicode="&#xb5;" horiz-adv-x="495" 
d="M98 -189c-33 0 -42 4 -42 27v627c0 23 9 26 42 26c32 0 41 -3 41 -26v-327c0 -59 14 -76 81 -76c96 0 128 49 128 169v234c0 23 8 26 41 26s41 -3 41 -26v-285c0 -95 23 -144 23 -160c0 -12 -5 -20 -38 -20c-30 0 -36 3 -41 23l-14 56c-27 -62 -79 -89 -158 -89
c-26 0 -47 2 -63 8v-160c0 -23 -9 -27 -41 -27z" />
    <glyph glyph-name="paragraph" unicode="&#xb6;" horiz-adv-x="560" 
d="M234 -193c-41 0 -80 4 -120 12c-17 4 -26 10 -26 40c0 26 5 33 17 33c15 0 62 -11 131 -11c105 0 118 42 118 150v509h-49v-315c0 -19 -6 -29 -28 -34c-23 -6 -48 -9 -81 -9c-102 0 -128 57 -128 209c0 167 32 224 148 224h276c19 0 25 -6 25 -37s-6 -38 -25 -38h-56
v-504c0 -189 -74 -229 -202 -229z" />
    <glyph glyph-name="middot" unicode="&#xb7;" horiz-adv-x="179" 
d="M89 226c-36 0 -45 5 -45 31v31c0 26 9 31 45 31c37 0 45 -5 45 -31v-31c0 -26 -8 -31 -45 -31z" />
    <glyph glyph-name="cedilla" unicode="&#xb8;" horiz-adv-x="221" 
d="M105 -206c-21 0 -36 1 -52 5c-18 3 -26 8 -26 32c0 26 5 31 18 31c10 0 22 -3 47 -3c16 0 27 1 27 17c0 14 -8 16 -28 28c-22 13 -31 25 -31 56v57h60v-43c0 -12 1 -17 15 -26c46 -27 58 -38 58 -82c0 -51 -32 -72 -88 -72z" />
    <glyph glyph-name="onesuperior" unicode="&#xb9;" horiz-adv-x="358" 
d="M75 327c0 26 5 29 23 29h56v240l-51 -15c-6 -2 -15 -4 -18 -4c-8 0 -14 6 -14 29c0 22 4 27 16 31l67 23c11 3 25 5 40 5c24 0 27 -4 27 -24v-285h59c15 0 22 -3 22 -29c0 -28 -7 -32 -22 -32h-182c-18 0 -23 4 -23 32z" />
    <glyph glyph-name="ordmasculine" unicode="&#xba;" horiz-adv-x="388" 
d="M187 251c-90 0 -143 16 -143 181c0 170 51 188 157 188c91 0 143 -14 143 -179c0 -171 -51 -190 -157 -190zM189 310c64 0 84 13 84 122c0 119 -19 130 -74 130c-64 0 -84 -12 -84 -122c0 -118 19 -130 74 -130z" />
    <glyph glyph-name="guillemotright" unicode="&#xbb;" horiz-adv-x="591" 
d="M274 244c0 -44 -8 -52 -30 -68l-172 -129c-8 -6 -16 -10 -22 -10c-9 0 -15 5 -15 32c0 31 3 38 21 54l136 117v8l-136 118c-18 16 -21 23 -21 54c0 27 6 32 15 32c6 0 14 -5 22 -10l172 -129c22 -16 30 -24 30 -69zM557 244c0 -41 -8 -50 -31 -65l-181 -122
c-8 -6 -16 -10 -22 -10c-8 0 -15 5 -15 32c0 33 3 40 22 54l143 107v8l-143 108c-19 14 -22 21 -22 54c0 27 7 32 15 32c6 0 14 -5 22 -10l181 -122c23 -15 31 -24 31 -66z" />
    <glyph glyph-name="onequarter" unicode="&#xbc;" horiz-adv-x="731" 
d="M618 0c-25 0 -35 4 -35 22v57h-154c-14 0 -18 8 -18 29c0 17 1 30 11 45l128 199c10 16 23 19 59 19c35 0 43 -4 43 -26v-211h27c16 0 21 -6 21 -28c0 -24 -5 -27 -21 -27h-27v-57c0 -18 -9 -22 -34 -22zM263 0c-22 0 -30 3 -30 14c0 6 2 12 7 25l210 563
c6 16 13 21 39 21c22 0 30 -3 30 -14c0 -6 -2 -12 -7 -25l-210 -563c-6 -16 -13 -21 -39 -21zM39 560c0 21 4 27 16 31l66 23c12 4 26 5 41 5c23 0 27 -4 27 -24v-285h59c15 0 22 -3 22 -30s-7 -31 -22 -31h-182c-18 0 -23 4 -23 31s5 30 23 30h56v240l-51 -15
c-6 -2 -15 -4 -18 -4c-8 0 -14 6 -14 29zM587 309l-110 -175h110v175z" />
    <glyph glyph-name="onehalf" unicode="&#xbd;" horiz-adv-x="736" 
d="M263 0c-22 0 -30 3 -30 14c0 6 2 12 7 25l210 563c6 16 13 21 39 21c22 0 30 -3 30 -14c0 -6 -2 -12 -7 -25l-210 -563c-6 -16 -13 -21 -39 -21zM43 280c0 27 5 30 23 30h56v240l-51 -15c-6 -2 -15 -4 -18 -4c-8 0 -14 6 -14 29c0 21 4 27 16 31l66 23c12 3 26 5 41 5
c23 0 27 -4 27 -24v-285h59c15 0 22 -3 22 -30s-7 -31 -22 -31h-182c-18 0 -23 4 -23 31zM709 31c0 -27 -7 -31 -23 -31h-201c-17 0 -24 5 -24 27v15c0 20 9 31 29 53l100 105c28 30 36 47 36 69c0 35 -13 43 -50 43c-45 0 -72 -12 -85 -12c-10 0 -14 2 -14 27
c0 23 8 28 23 33c24 6 56 11 88 11c61 0 109 -12 109 -88c0 -50 -13 -70 -59 -118l-98 -103h146c16 0 23 -4 23 -31z" />
    <glyph glyph-name="threequarters" unicode="&#xbe;" horiz-adv-x="718" 
d="M606 0c-25 0 -35 4 -35 22v57h-154c-15 0 -18 8 -18 29c0 17 1 30 11 45l128 199c10 16 23 19 59 19c35 0 43 -4 43 -26v-211h27c16 0 21 -6 21 -28c0 -24 -5 -27 -21 -27h-27v-57c0 -18 -9 -22 -34 -22zM146 244c-33 0 -71 6 -96 13c-15 4 -22 9 -22 32c0 25 4 27 13 27
c14 0 49 -12 93 -12c41 0 64 10 64 53c0 31 -9 55 -93 55c-14 0 -18 6 -18 26s4 26 18 26c71 0 85 15 85 54c0 36 -14 43 -54 43s-73 -11 -85 -11c-10 0 -15 1 -15 27c0 23 8 28 23 32c25 7 59 12 91 12c62 0 108 -13 108 -89c0 -57 -25 -87 -71 -95c60 -4 83 -38 83 -88
c0 -88 -62 -105 -124 -105zM250 0c-21 0 -29 3 -29 14c0 6 1 12 6 25l211 563c6 16 13 21 39 21c22 0 29 -3 29 -14c0 -6 -1 -12 -6 -25l-210 -563c-6 -16 -14 -21 -40 -21zM575 309l-110 -175h110v175z" />
    <glyph glyph-name="questiondown" unicode="&#xbf;" horiz-adv-x="360" 
d="M206 472c31 0 39 -5 39 -27v-34c0 -56 -13 -77 -38 -105l-76 -82c-18 -19 -29 -39 -29 -83c0 -63 21 -71 97 -71c67 0 113 18 128 18c11 0 16 -5 16 -34c0 -28 -8 -33 -25 -38c-39 -12 -89 -20 -138 -20c-85 0 -163 14 -163 133c0 68 20 96 55 134l71 77
c15 17 25 33 25 77v28c0 22 8 27 38 27zM206 617c37 0 45 -5 45 -31v-26c0 -26 -8 -31 -45 -31c-36 0 -45 5 -45 31v26c0 26 9 31 45 31z" />
    <glyph glyph-name="Agrave" unicode="&#xc0;" horiz-adv-x="517" 
d="M57 0c-32 0 -40 5 -40 19c0 6 1 13 5 26l159 534c10 33 21 36 77 36c57 0 68 -3 78 -36l158 -534c4 -13 5 -20 5 -26c0 -13 -7 -19 -39 -19c-35 0 -42 5 -47 22l-48 162h-216l-46 -162c-5 -17 -11 -22 -46 -22zM252 543l-84 -293h180l-83 293h-13zM263 659
c-34 0 -39 8 -49 23l-57 88c-7 11 -14 22 -14 31c0 10 10 16 47 16c39 0 42 -8 51 -26l47 -90c5 -10 10 -19 10 -26c0 -10 -9 -16 -35 -16z" />
    <glyph glyph-name="Aacute" unicode="&#xc1;" horiz-adv-x="517" 
d="M57 0c-32 0 -40 5 -40 19c0 6 1 13 5 26l159 534c10 33 21 36 77 36c57 0 68 -3 78 -36l158 -534c4 -13 5 -20 5 -26c0 -13 -7 -19 -39 -19c-35 0 -42 5 -47 22l-48 162h-216l-46 -162c-5 -17 -11 -22 -46 -22zM252 543l-84 -293h180l-83 293h-13zM252 659
c-25 0 -35 6 -35 16c0 7 5 16 10 26l47 90c9 18 12 26 51 26c37 0 47 -6 47 -16c0 -9 -7 -20 -14 -31l-57 -88c-10 -15 -15 -23 -49 -23z" />
    <glyph glyph-name="Acircumflex" unicode="&#xc2;" horiz-adv-x="517" 
d="M57 0c-32 0 -40 5 -40 19c0 6 1 13 5 26l159 534c10 33 21 36 77 36c57 0 68 -3 78 -36l158 -534c4 -13 5 -20 5 -26c0 -13 -7 -19 -39 -19c-35 0 -42 5 -47 22l-48 162h-216l-46 -162c-5 -17 -11 -22 -46 -22zM252 543l-84 -293h180l-83 293h-13zM261 755h-6l-48 -76
c-10 -16 -18 -20 -46 -20c-25 0 -32 6 -32 16c0 6 3 12 11 25l59 98c8 13 13 19 42 19h34c29 0 34 -6 42 -19l59 -98c8 -13 11 -19 11 -25c0 -10 -7 -16 -32 -16c-28 0 -36 4 -46 20z" />
    <glyph glyph-name="Atilde" unicode="&#xc3;" horiz-adv-x="517" 
d="M57 0c-32 0 -40 5 -40 19c0 6 1 13 5 26l159 534c10 33 21 36 77 36c57 0 68 -3 78 -36l158 -534c4 -13 5 -20 5 -26c0 -13 -7 -19 -39 -19c-35 0 -42 5 -47 22l-48 162h-216l-46 -162c-5 -17 -11 -22 -46 -22zM252 543l-84 -293h180l-83 293h-13zM126 711
c0 24 7 30 24 41c9 6 33 18 59 18c42 0 70 -21 103 -21c34 0 54 19 64 19s13 -4 13 -29c0 -24 -7 -31 -24 -42c-9 -5 -33 -17 -60 -17c-41 0 -69 20 -102 20c-34 0 -54 -18 -64 -18s-13 4 -13 29z" />
    <glyph glyph-name="Adieresis" unicode="&#xc4;" horiz-adv-x="517" 
d="M57 0c-32 0 -40 5 -40 19c0 6 1 13 5 26l159 534c10 33 21 36 77 36c57 0 68 -3 78 -36l158 -534c4 -13 5 -20 5 -26c0 -13 -7 -19 -39 -19c-35 0 -42 5 -47 22l-48 162h-216l-46 -162c-5 -17 -11 -22 -46 -22zM252 543l-84 -293h180l-83 293h-13zM185 692
c-37 0 -44 5 -44 31v21c0 26 7 32 44 32s44 -6 44 -32v-21c0 -26 -7 -31 -44 -31zM332 692c-38 0 -45 5 -45 31v21c0 26 7 32 45 32c37 0 44 -6 44 -32v-21c0 -26 -7 -31 -44 -31z" />
    <glyph glyph-name="Aring" unicode="&#xc5;" horiz-adv-x="517" 
d="M57 0c-32 0 -40 5 -40 19c0 6 1 13 5 26l159 534c10 33 21 36 77 36c57 0 68 -3 78 -36l158 -534c4 -13 5 -20 5 -26c0 -13 -7 -19 -39 -19c-35 0 -42 5 -47 22l-48 162h-216l-46 -162c-5 -17 -11 -22 -46 -22zM252 543l-84 -293h180l-83 293h-13zM258 727
c41 0 45 8 45 36c0 27 -4 36 -45 36c-40 0 -43 -9 -43 -36c0 -28 3 -36 43 -36zM258 672c-87 0 -106 25 -106 91s19 91 106 91c88 0 107 -25 107 -91s-19 -91 -107 -91z" />
    <glyph glyph-name="AE" unicode="&#xc6;" horiz-adv-x="723" 
d="M57 0c-32 0 -40 5 -40 19c0 6 1 13 5 26l159 534c10 33 21 36 77 36h400c19 0 25 -6 25 -37s-6 -38 -25 -38h-243v-179h187c21 0 26 -5 26 -36s-5 -37 -26 -37h-187v-213h253c19 0 25 -7 25 -38c0 -30 -6 -37 -25 -37h-305c-25 0 -31 5 -31 25v159h-183l-46 -162
c-5 -17 -11 -22 -46 -22zM252 543l-84 -293h164v293h-80z" />
    <glyph glyph-name="Ccedilla" unicode="&#xc7;" horiz-adv-x="451" 
d="M253 -206c-21 0 -36 2 -52 5c-18 4 -26 8 -26 32c0 26 5 31 18 31c10 0 22 -3 47 -3c16 0 27 1 27 17c0 14 -8 16 -28 28c-22 13 -31 25 -31 56v32c-99 7 -160 49 -160 272v76c0 260 77 280 210 280c46 0 94 -7 135 -19c16 -4 24 -8 24 -39c0 -27 -5 -33 -16 -33
c-13 0 -60 18 -127 18c-113 0 -143 -15 -143 -216v-50c0 -204 36 -216 143 -216c71 0 113 18 127 18c12 0 16 -5 16 -33c0 -30 -8 -35 -24 -40c-38 -10 -83 -17 -125 -19v-17c0 -12 1 -17 15 -26c46 -27 58 -38 58 -82c0 -51 -32 -72 -88 -72z" />
    <glyph glyph-name="Egrave" unicode="&#xc8;" horiz-adv-x="455" 
d="M425 37c0 -30 -6 -37 -25 -37h-308c-24 0 -30 5 -30 25v565c0 20 6 25 30 25h298c19 0 25 -6 25 -37s-6 -38 -25 -38h-246v-179h191c20 0 25 -5 25 -36s-5 -37 -25 -37h-191v-213h256c19 0 25 -7 25 -38zM249 659c-34 0 -39 8 -49 23l-57 88c-7 11 -14 22 -14 31
c0 10 10 16 47 16c39 0 42 -8 51 -26l47 -90c5 -10 10 -19 10 -26c0 -10 -9 -16 -35 -16z" />
    <glyph glyph-name="Eacute" unicode="&#xc9;" horiz-adv-x="455" 
d="M425 37c0 -30 -6 -37 -25 -37h-308c-24 0 -30 5 -30 25v565c0 20 6 25 30 25h298c19 0 25 -6 25 -37s-6 -38 -25 -38h-246v-179h191c20 0 25 -5 25 -36s-5 -37 -25 -37h-191v-213h256c19 0 25 -7 25 -38zM211 659c-25 0 -35 6 -35 16c0 7 5 16 10 26l47 90
c9 18 12 26 51 26c37 0 47 -6 47 -16c0 -9 -7 -20 -14 -31l-57 -88c-10 -15 -15 -23 -49 -23z" />
    <glyph glyph-name="Ecircumflex" unicode="&#xca;" horiz-adv-x="455" 
d="M425 37c0 -30 -6 -37 -25 -37h-308c-24 0 -30 5 -30 25v565c0 20 6 25 30 25h298c19 0 25 -6 25 -37s-6 -38 -25 -38h-246v-179h191c20 0 25 -5 25 -36s-5 -37 -25 -37h-191v-213h256c19 0 25 -7 25 -38zM243 755h-6l-48 -76c-10 -16 -18 -20 -46 -20c-25 0 -32 6 -32 16
c0 6 3 12 11 25l59 98c8 13 13 19 42 19h34c29 0 34 -6 42 -19l59 -98c8 -13 11 -19 11 -25c0 -10 -7 -16 -32 -16c-28 0 -36 4 -46 20z" />
    <glyph glyph-name="Edieresis" unicode="&#xcb;" horiz-adv-x="455" 
d="M425 37c0 -30 -6 -37 -25 -37h-308c-24 0 -30 5 -30 25v565c0 20 6 25 30 25h298c19 0 25 -6 25 -37s-6 -38 -25 -38h-246v-179h191c20 0 25 -5 25 -36s-5 -37 -25 -37h-191v-213h256c19 0 25 -7 25 -38zM167 689c-37 0 -44 5 -44 31v21c0 26 7 32 44 32s44 -6 44 -32
v-21c0 -26 -7 -31 -44 -31zM314 689c-38 0 -45 5 -45 31v21c0 26 7 32 45 32c37 0 44 -6 44 -32v-21c0 -26 -7 -31 -44 -31z" />
    <glyph glyph-name="Igrave" unicode="&#xcc;" horiz-adv-x="206" 
d="M103 0c-33 0 -41 5 -41 27v562c0 21 8 26 41 26s41 -5 41 -26v-562c0 -22 -8 -27 -41 -27zM115 659c-34 0 -39 8 -49 23l-57 88c-7 11 -14 22 -14 31c0 10 10 16 47 16c39 0 42 -8 51 -26l47 -90c5 -10 10 -19 10 -26c0 -10 -9 -16 -35 -16z" />
    <glyph glyph-name="Iacute" unicode="&#xcd;" horiz-adv-x="206" 
d="M103 0c-33 0 -41 5 -41 27v562c0 21 8 26 41 26s41 -5 41 -26v-562c0 -22 -8 -27 -41 -27zM92 659c-25 0 -35 6 -35 16c0 7 5 16 10 26l47 90c9 18 12 26 51 26c37 0 47 -6 47 -16c0 -9 -7 -20 -14 -31l-57 -88c-10 -15 -15 -23 -49 -23z" />
    <glyph glyph-name="Icircumflex" unicode="&#xce;" horiz-adv-x="206" 
d="M103 0c-33 0 -41 5 -41 27v562c0 21 8 26 41 26s41 -5 41 -26v-562c0 -22 -8 -27 -41 -27zM106 755h-6l-48 -76c-10 -16 -18 -20 -46 -20c-25 0 -32 6 -32 16c0 6 3 12 11 25l59 98c8 13 13 19 42 19h34c29 0 34 -6 42 -19l59 -98c8 -13 11 -19 11 -25
c0 -10 -7 -16 -32 -16c-28 0 -36 4 -46 20z" />
    <glyph glyph-name="Idieresis" unicode="&#xcf;" horiz-adv-x="206" 
d="M103 0c-33 0 -41 5 -41 27v562c0 21 8 26 41 26s41 -5 41 -26v-562c0 -22 -8 -27 -41 -27zM30 689c-37 0 -44 5 -44 31v21c0 26 7 32 44 32s44 -6 44 -32v-21c0 -26 -7 -31 -44 -31zM177 689c-38 0 -45 5 -45 31v21c0 26 7 32 45 32c37 0 44 -6 44 -32v-21
c0 -26 -7 -31 -44 -31z" />
    <glyph glyph-name="Eth" unicode="&#xd0;" horiz-adv-x="524" 
d="M6 312c0 31 5 37 25 37h31v230c0 22 11 30 29 33c51 7 106 8 146 8c164 0 239 -20 239 -280v-59c0 -270 -84 -290 -224 -290c-66 0 -101 2 -156 8c-28 3 -34 12 -34 32v244h-31c-20 0 -25 6 -25 37zM252 65c108 0 141 14 141 216v57c0 193 -37 211 -154 211
c-39 0 -73 -3 -95 -5v-196h37c20 0 25 -6 25 -36s-5 -36 -25 -36h-37v-206c27 -3 62 -5 108 -5z" />
    <glyph glyph-name="Ntilde" unicode="&#xd1;" horiz-adv-x="543" 
d="M103 0c-33 0 -41 5 -41 27v562c0 21 9 26 59 26c40 0 54 -1 65 -26l203 -462h10v462c0 21 7 26 41 26c33 0 41 -5 41 -26v-562c0 -22 -8 -27 -58 -27c-40 0 -51 2 -62 26l-207 463h-10v-462c0 -22 -8 -27 -41 -27zM140 719c0 24 7 30 24 41c9 6 33 18 59 18
c42 0 70 -21 103 -21c34 0 54 19 64 19s13 -4 13 -29c0 -24 -7 -31 -24 -42c-9 -5 -33 -17 -60 -17c-41 0 -69 20 -102 20c-34 0 -54 -18 -64 -18s-13 4 -13 29z" />
    <glyph glyph-name="Ograve" unicode="&#xd2;" horiz-adv-x="524" 
d="M262 63c107 0 132 23 132 218v49c0 196 -18 218 -132 218c-107 0 -131 -22 -131 -218v-49c0 -195 17 -218 131 -218zM262 -9c-160 0 -214 30 -214 285v57c0 265 66 287 214 287c163 0 214 -30 214 -287v-57c0 -262 -68 -285 -214 -285zM286 659c-34 0 -39 8 -49 23
l-57 88c-7 11 -14 22 -14 31c0 10 10 16 47 16c39 0 42 -8 51 -26l47 -90c5 -10 10 -19 10 -26c0 -10 -9 -16 -35 -16z" />
    <glyph glyph-name="Oacute" unicode="&#xd3;" horiz-adv-x="524" 
d="M262 63c107 0 132 23 132 218v49c0 196 -18 218 -132 218c-107 0 -131 -22 -131 -218v-49c0 -195 17 -218 131 -218zM262 -9c-160 0 -214 30 -214 285v57c0 265 66 287 214 287c163 0 214 -30 214 -287v-57c0 -262 -68 -285 -214 -285zM237 659c-25 0 -35 6 -35 16
c0 7 5 16 10 26l47 90c9 18 12 26 51 26c37 0 47 -6 47 -16c0 -9 -7 -20 -14 -31l-57 -88c-10 -15 -15 -23 -49 -23z" />
    <glyph glyph-name="Ocircumflex" unicode="&#xd4;" horiz-adv-x="524" 
d="M262 63c107 0 132 23 132 218v49c0 196 -18 218 -132 218c-107 0 -131 -22 -131 -218v-49c0 -195 17 -218 131 -218zM262 -9c-160 0 -214 30 -214 285v57c0 265 66 287 214 287c163 0 214 -30 214 -287v-57c0 -262 -68 -285 -214 -285zM266 755h-6l-48 -76
c-10 -16 -18 -20 -46 -20c-25 0 -32 6 -32 16c0 6 3 12 11 25l59 98c8 13 13 19 42 19h34c29 0 34 -6 42 -19l59 -98c8 -13 11 -19 11 -25c0 -10 -7 -16 -32 -16c-28 0 -36 4 -46 20z" />
    <glyph glyph-name="Otilde" unicode="&#xd5;" horiz-adv-x="524" 
d="M262 63c107 0 132 23 132 218v49c0 196 -18 218 -132 218c-107 0 -131 -22 -131 -218v-49c0 -195 17 -218 131 -218zM262 -9c-160 0 -214 30 -214 285v57c0 265 66 287 214 287c163 0 214 -30 214 -287v-57c0 -262 -68 -285 -214 -285zM131 711c0 24 7 30 24 41
c9 6 33 18 59 18c42 0 70 -21 103 -21c34 0 54 19 64 19s13 -4 13 -29c0 -24 -7 -31 -24 -42c-9 -5 -33 -17 -60 -17c-41 0 -69 20 -102 20c-34 0 -54 -18 -64 -18s-13 4 -13 29z" />
    <glyph glyph-name="Odieresis" unicode="&#xd6;" horiz-adv-x="524" 
d="M262 63c107 0 132 23 132 218v49c0 196 -18 218 -132 218c-107 0 -131 -22 -131 -218v-49c0 -195 17 -218 131 -218zM262 -9c-160 0 -214 30 -214 285v57c0 265 66 287 214 287c163 0 214 -30 214 -287v-57c0 -262 -68 -285 -214 -285zM189 691c-37 0 -44 5 -44 31v21
c0 26 7 32 44 32s44 -6 44 -32v-21c0 -26 -7 -31 -44 -31zM336 691c-38 0 -45 5 -45 31v21c0 26 7 32 45 32c37 0 44 -6 44 -32v-21c0 -26 -7 -31 -44 -31z" />
    <glyph glyph-name="multiply" unicode="&#xd7;" 
d="M85 128c0 7 8 18 14 26l90 115l-90 123c-6 8 -14 19 -14 26c0 10 7 15 36 15c24 0 35 -4 43 -15l64 -94l65 94c8 12 19 15 44 15c29 0 35 -5 35 -15c0 -7 -8 -17 -14 -26l-90 -123l90 -115c7 -8 14 -19 14 -26c0 -10 -6 -15 -35 -15c-25 0 -35 4 -44 15l-65 88l-64 -88
c-8 -11 -19 -15 -43 -15c-29 0 -36 5 -36 15z" />
    <glyph glyph-name="Oslash" unicode="&#xd8;" horiz-adv-x="524" 
d="M262 -9c-145 0 -214 23 -214 285v57c0 257 51 287 214 287s214 -30 214 -287v-57c0 -262 -68 -285 -214 -285zM131 330c0 -91 1 -125 4 -153l241 325c-17 39 -51 46 -114 46c-114 0 -131 -22 -131 -218zM262 63c107 0 132 23 132 218c0 86 -1 116 -3 142l-235 -320
c20 -34 52 -40 106 -40z" />
    <glyph glyph-name="Ugrave" unicode="&#xd9;" horiz-adv-x="521" 
d="M261 -9c-141 0 -199 50 -199 186v412c0 21 8 26 41 26s41 -5 41 -26v-415c0 -78 23 -108 117 -108c93 0 116 30 116 108v415c0 21 8 26 41 26c34 0 41 -5 41 -26v-412c0 -136 -58 -186 -198 -186zM283 659c-34 0 -39 8 -49 23l-57 88c-7 11 -14 22 -14 31
c0 10 10 16 47 16c39 0 42 -8 51 -26l47 -90c5 -10 10 -19 10 -26c0 -10 -9 -16 -35 -16z" />
    <glyph glyph-name="Uacute" unicode="&#xda;" horiz-adv-x="521" 
d="M261 -9c-141 0 -199 50 -199 186v412c0 21 8 26 41 26s41 -5 41 -26v-415c0 -78 23 -108 117 -108c93 0 116 30 116 108v415c0 21 8 26 41 26c34 0 41 -5 41 -26v-412c0 -136 -58 -186 -198 -186zM238 659c-25 0 -35 6 -35 16c0 7 5 16 10 26l47 90c9 18 12 26 51 26
c37 0 47 -6 47 -16c0 -9 -7 -20 -14 -31l-57 -88c-10 -15 -15 -23 -49 -23z" />
    <glyph glyph-name="Ucircumflex" unicode="&#xdb;" horiz-adv-x="521" 
d="M261 -9c-141 0 -199 50 -199 186v412c0 21 8 26 41 26s41 -5 41 -26v-415c0 -78 23 -108 117 -108c93 0 116 30 116 108v415c0 21 8 26 41 26c34 0 41 -5 41 -26v-412c0 -136 -58 -186 -198 -186zM264 755h-6l-48 -76c-10 -16 -18 -20 -46 -20c-25 0 -32 6 -32 16
c0 6 3 12 11 25l59 98c8 13 13 19 42 19h34c29 0 34 -6 42 -19l59 -98c8 -13 11 -19 11 -25c0 -10 -7 -16 -32 -16c-28 0 -36 4 -46 20z" />
    <glyph glyph-name="Udieresis" unicode="&#xdc;" horiz-adv-x="521" 
d="M261 -9c-141 0 -199 50 -199 186v412c0 21 8 26 41 26s41 -5 41 -26v-415c0 -78 23 -108 117 -108c93 0 116 30 116 108v415c0 21 8 26 41 26c34 0 41 -5 41 -26v-412c0 -136 -58 -186 -198 -186zM188 691c-37 0 -44 5 -44 31v21c0 26 7 32 44 32s44 -6 44 -32v-21
c0 -26 -7 -31 -44 -31zM335 691c-38 0 -45 5 -45 31v21c0 26 7 32 45 32c37 0 44 -6 44 -32v-21c0 -26 -7 -31 -44 -31z" />
    <glyph glyph-name="Yacute" unicode="&#xdd;" horiz-adv-x="455" 
d="M227 0c-33 0 -41 5 -41 27v209l-158 328c-8 17 -11 25 -11 32c0 12 8 19 38 19c38 0 47 -3 54 -22l116 -268h5l116 268c7 19 15 22 53 22c31 0 39 -7 39 -19c0 -6 -3 -15 -11 -32l-158 -328v-209c0 -22 -8 -27 -42 -27zM208 659c-25 0 -35 6 -35 16c0 7 5 16 10 26l47 90
c9 18 12 26 51 26c37 0 47 -6 47 -16c0 -9 -7 -20 -14 -31l-57 -88c-10 -15 -15 -23 -49 -23z" />
    <glyph glyph-name="Thorn" unicode="&#xde;" horiz-adv-x="469" 
d="M103 0c-33 0 -41 5 -41 27v562c0 21 8 26 41 26s41 -5 41 -26v-92c35 3 71 5 95 5c142 0 198 -22 198 -175c0 -148 -55 -202 -215 -202h-78v-98c0 -22 -8 -27 -41 -27zM144 425v-230h81c102 0 129 27 129 131c0 88 -21 104 -121 104c-34 0 -63 -3 -89 -5z" />
    <glyph glyph-name="germandbls" unicode="&#xdf;" horiz-adv-x="475" 
d="M202 665c114 0 165 -27 165 -109c0 -78 -48 -141 -48 -191c0 -31 8 -44 29 -59l62 -43c39 -26 49 -63 49 -121c0 -105 -50 -152 -139 -152c-42 0 -69 6 -92 14c-19 7 -25 13 -25 39s6 33 14 33c13 0 44 -13 90 -13c58 0 69 28 69 80c0 36 -2 54 -26 69l-57 37
c-33 22 -51 54 -51 100c0 70 45 130 45 191c0 49 -25 56 -84 56c-53 0 -60 -7 -60 -72v-497c0 -23 -9 -27 -41 -27c-33 0 -41 4 -41 27v510c0 89 24 128 141 128z" />
    <glyph glyph-name="agrave" unicode="&#xe0;" horiz-adv-x="486" 
d="M171 -10c-88 0 -129 39 -129 141s46 142 181 142h108v77c0 71 -26 80 -94 80c-77 0 -131 -19 -150 -19c-11 0 -16 9 -16 33c0 25 6 33 21 37c35 11 99 20 154 20c111 0 166 -20 166 -135v-186c0 -95 23 -144 23 -160c0 -12 -5 -20 -39 -20c-29 0 -34 3 -40 23l-17 65
c-30 -68 -95 -98 -168 -98zM195 59c72 0 136 43 136 123v36l-112 -3c-78 -2 -97 -18 -97 -76c0 -70 22 -80 73 -80zM265 539c-34 0 -39 8 -49 23l-57 88c-7 11 -14 22 -14 31c0 10 10 16 47 16c39 0 42 -8 51 -26l47 -90c5 -10 10 -19 10 -26c0 -10 -9 -16 -35 -16z" />
    <glyph glyph-name="aacute" unicode="&#xe1;" horiz-adv-x="486" 
d="M171 -10c-88 0 -129 39 -129 141s46 142 181 142h108v77c0 71 -26 80 -94 80c-77 0 -131 -19 -150 -19c-11 0 -16 9 -16 33c0 25 6 33 21 37c35 11 99 20 154 20c111 0 166 -20 166 -135v-186c0 -95 23 -144 23 -160c0 -12 -5 -20 -39 -20c-29 0 -34 3 -40 23l-17 65
c-30 -68 -95 -98 -168 -98zM195 59c72 0 136 43 136 123v36l-112 -3c-78 -2 -97 -18 -97 -76c0 -70 22 -80 73 -80zM218 539c-25 0 -35 6 -35 16c0 7 5 16 10 26l47 90c9 18 12 26 51 26c37 0 47 -6 47 -16c0 -9 -7 -20 -14 -31l-57 -88c-10 -15 -15 -23 -49 -23z" />
    <glyph glyph-name="acircumflex" unicode="&#xe2;" horiz-adv-x="486" 
d="M171 -10c-88 0 -129 39 -129 141s46 142 181 142h108v77c0 71 -26 80 -94 80c-77 0 -131 -19 -150 -19c-11 0 -16 9 -16 33c0 25 6 33 21 37c35 11 99 20 154 20c111 0 166 -20 166 -135v-186c0 -95 23 -144 23 -160c0 -12 -5 -20 -39 -20c-29 0 -34 3 -40 23l-17 65
c-30 -68 -95 -98 -168 -98zM195 59c72 0 136 43 136 123v36l-112 -3c-78 -2 -97 -18 -97 -76c0 -70 22 -80 73 -80zM238 635h-6l-48 -76c-10 -16 -18 -20 -46 -20c-25 0 -32 6 -32 16c0 6 3 12 11 25l59 98c8 13 13 19 42 19h34c29 0 34 -6 42 -19l59 -98
c8 -13 11 -19 11 -25c0 -10 -7 -16 -32 -16c-28 0 -36 4 -46 20z" />
    <glyph glyph-name="atilde" unicode="&#xe3;" horiz-adv-x="486" 
d="M171 -10c-88 0 -129 39 -129 141s46 142 181 142h108v77c0 71 -26 80 -94 80c-77 0 -131 -19 -150 -19c-11 0 -16 9 -16 33c0 25 6 33 21 37c35 11 99 20 154 20c111 0 166 -20 166 -135v-186c0 -95 23 -144 23 -160c0 -12 -5 -20 -39 -20c-29 0 -34 3 -40 23l-17 65
c-30 -68 -95 -98 -168 -98zM195 59c72 0 136 43 136 123v36l-112 -3c-78 -2 -97 -18 -97 -76c0 -70 22 -80 73 -80zM104 594c0 24 7 30 24 41c9 6 33 18 59 18c42 0 70 -21 103 -21c34 0 54 19 64 19s13 -4 13 -29c0 -24 -7 -31 -24 -42c-9 -5 -33 -17 -60 -17
c-41 0 -69 20 -102 20c-34 0 -54 -18 -64 -18s-13 4 -13 29z" />
    <glyph glyph-name="adieresis" unicode="&#xe4;" horiz-adv-x="486" 
d="M171 -10c-88 0 -129 39 -129 141s46 142 181 142h108v77c0 71 -26 80 -94 80c-77 0 -131 -19 -150 -19c-11 0 -16 9 -16 33c0 25 6 33 21 37c35 11 99 20 154 20c111 0 166 -20 166 -135v-186c0 -95 23 -144 23 -160c0 -12 -5 -20 -39 -20c-29 0 -34 3 -40 23l-17 65
c-30 -68 -95 -98 -168 -98zM195 59c72 0 136 43 136 123v36l-112 -3c-78 -2 -97 -18 -97 -76c0 -70 22 -80 73 -80zM162 569c-37 0 -44 5 -44 31v21c0 26 7 32 44 32s44 -6 44 -32v-21c0 -26 -7 -31 -44 -31zM309 569c-38 0 -45 5 -45 31v21c0 26 7 32 45 32
c37 0 44 -6 44 -32v-21c0 -26 -7 -31 -44 -31z" />
    <glyph glyph-name="aring" unicode="&#xe5;" horiz-adv-x="486" 
d="M171 -10c-88 0 -129 39 -129 141s46 142 181 142h108v77c0 71 -26 80 -94 80c-77 0 -131 -19 -150 -19c-11 0 -16 9 -16 33c0 25 6 33 21 37c35 11 99 20 154 20c111 0 166 -20 166 -135v-186c0 -95 23 -144 23 -160c0 -12 -5 -20 -39 -20c-29 0 -34 3 -40 23l-17 65
c-30 -68 -95 -98 -168 -98zM195 59c72 0 136 43 136 123v36l-112 -3c-78 -2 -97 -18 -97 -76c0 -70 22 -80 73 -80zM234 608c41 0 45 8 45 36c0 27 -4 36 -45 36c-40 0 -43 -9 -43 -36c0 -28 3 -36 43 -36zM234 553c-87 0 -106 25 -106 91s19 91 106 91
c88 0 107 -25 107 -91s-19 -91 -107 -91z" />
    <glyph glyph-name="ae" unicode="&#xe6;" horiz-adv-x="745" 
d="M513 -10c-88 0 -149 8 -169 109c-28 -75 -96 -109 -173 -109c-88 0 -129 39 -129 141s46 142 181 142h108v77c0 71 -26 80 -94 80c-77 0 -131 -19 -150 -19c-11 0 -16 9 -16 33c0 25 6 33 21 37c35 11 99 20 154 20c70 0 115 -9 140 -43c33 35 81 43 144 43
c153 0 170 -76 170 -233c0 -28 -6 -42 -36 -42h-251c2 -154 26 -164 106 -164c97 0 146 21 160 21c9 0 14 -6 14 -33c0 -26 -5 -32 -24 -39c-33 -12 -106 -21 -156 -21zM195 59c72 0 136 43 136 123v36l-112 -3c-78 -2 -97 -18 -97 -76c0 -70 22 -80 73 -80zM523 431
c-84 0 -107 -17 -110 -148h207c0 102 -2 148 -97 148z" />
    <glyph glyph-name="ccedilla" unicode="&#xe7;" horiz-adv-x="428" 
d="M230 -206c-21 0 -36 2 -52 5c-18 4 -26 8 -26 32c0 26 5 31 18 31c10 0 22 -3 47 -3c16 0 27 1 27 17c0 14 -8 16 -28 28c-22 13 -31 25 -31 56v33c-92 11 -133 62 -133 248c0 238 77 260 193 260c41 0 88 -7 122 -17c19 -6 25 -13 25 -39c0 -27 -5 -33 -15 -33
c-13 0 -73 18 -125 18c-87 0 -116 -18 -116 -181c0 -162 12 -187 118 -187c68 0 110 21 124 21c9 0 14 -6 14 -33c0 -26 -5 -32 -24 -39c-33 -12 -85 -20 -123 -21v-16c0 -12 1 -17 15 -26c46 -27 58 -38 58 -82c0 -51 -32 -72 -88 -72z" />
    <glyph glyph-name="egrave" unicode="&#xe8;" horiz-adv-x="468" 
d="M253 -10c-143 0 -201 30 -201 251c0 238 76 260 196 260c158 0 175 -76 175 -233c0 -28 -6 -42 -36 -42h-251c1 -141 17 -164 125 -164c77 0 127 21 141 21c9 0 14 -6 14 -33c0 -26 -5 -32 -24 -39c-33 -12 -93 -21 -139 -21zM246 431c-78 0 -106 -16 -110 -148h207
c0 102 -2 148 -97 148zM267 539c-34 0 -39 8 -49 23l-57 88c-7 11 -14 22 -14 31c0 10 10 16 47 16c39 0 42 -8 51 -26l47 -90c5 -10 10 -19 10 -26c0 -10 -9 -16 -35 -16z" />
    <glyph glyph-name="eacute" unicode="&#xe9;" horiz-adv-x="468" 
d="M253 -10c-143 0 -201 30 -201 251c0 238 76 260 196 260c158 0 175 -76 175 -233c0 -28 -6 -42 -36 -42h-251c1 -141 17 -164 125 -164c77 0 127 21 141 21c9 0 14 -6 14 -33c0 -26 -5 -32 -24 -39c-33 -12 -93 -21 -139 -21zM246 431c-78 0 -106 -16 -110 -148h207
c0 102 -2 148 -97 148zM217 539c-25 0 -35 6 -35 16c0 7 5 16 10 26l47 90c9 18 12 26 51 26c37 0 47 -6 47 -16c0 -9 -7 -20 -14 -31l-57 -88c-10 -15 -15 -23 -49 -23z" />
    <glyph glyph-name="ecircumflex" unicode="&#xea;" horiz-adv-x="468" 
d="M253 -10c-143 0 -201 30 -201 251c0 238 76 260 196 260c158 0 175 -76 175 -233c0 -28 -6 -42 -36 -42h-251c1 -141 17 -164 125 -164c77 0 127 21 141 21c9 0 14 -6 14 -33c0 -26 -5 -32 -24 -39c-33 -12 -93 -21 -139 -21zM246 431c-78 0 -106 -16 -110 -148h207
c0 102 -2 148 -97 148zM245 635h-6l-48 -76c-10 -16 -18 -20 -46 -20c-25 0 -32 6 -32 16c0 6 3 12 11 25l59 98c8 13 13 19 42 19h34c29 0 34 -6 42 -19l59 -98c8 -13 11 -19 11 -25c0 -10 -7 -16 -32 -16c-28 0 -36 4 -46 20z" />
    <glyph glyph-name="edieresis" unicode="&#xeb;" horiz-adv-x="468" 
d="M253 -10c-143 0 -201 30 -201 251c0 238 76 260 196 260c158 0 175 -76 175 -233c0 -28 -6 -42 -36 -42h-251c1 -141 17 -164 125 -164c77 0 127 21 141 21c9 0 14 -6 14 -33c0 -26 -5 -32 -24 -39c-33 -12 -93 -21 -139 -21zM246 431c-78 0 -106 -16 -110 -148h207
c0 102 -2 148 -97 148zM169 569c-37 0 -44 5 -44 31v21c0 26 7 32 44 32s44 -6 44 -32v-21c0 -26 -7 -31 -44 -31zM316 569c-38 0 -45 5 -45 31v21c0 26 7 32 45 32c37 0 44 -6 44 -32v-21c0 -26 -7 -31 -44 -31z" />
    <glyph glyph-name="igrave" unicode="&#xec;" horiz-adv-x="208" 
d="M118 539c-34 0 -39 8 -49 23l-57 88c-7 11 -14 22 -14 31c0 10 10 16 47 16c39 0 42 -8 51 -26l47 -90c5 -10 10 -19 10 -26c0 -10 -9 -16 -35 -16zM102 0c-33 0 -41 4 -41 27v438c0 23 8 26 41 26c32 0 41 -3 41 -26v-438c0 -23 -9 -27 -41 -27z" />
    <glyph glyph-name="iacute" unicode="&#xed;" horiz-adv-x="208" 
d="M87 539c-25 0 -35 6 -35 16c0 7 5 16 10 26l47 90c9 18 12 26 51 26c37 0 47 -6 47 -16c0 -9 -7 -20 -14 -31l-57 -88c-10 -15 -15 -23 -49 -23zM102 0c-33 0 -41 4 -41 27v438c0 23 8 26 41 26c32 0 41 -3 41 -26v-438c0 -23 -9 -27 -41 -27z" />
    <glyph glyph-name="icircumflex" unicode="&#xee;" horiz-adv-x="208" 
d="M103 0c-33 0 -41 4 -41 27v438c0 23 8 26 41 26c32 0 41 -3 41 -26v-438c0 -23 -9 -27 -41 -27zM107 635h-6l-48 -76c-10 -16 -18 -20 -46 -20c-25 0 -32 6 -32 16c0 6 3 12 11 25l59 98c8 13 13 19 42 19h34c29 0 34 -6 42 -19l59 -98c8 -13 11 -19 11 -25
c0 -10 -7 -16 -32 -16c-28 0 -36 4 -46 20z" />
    <glyph glyph-name="idieresis" unicode="&#xef;" horiz-adv-x="208" 
d="M31 569c-37 0 -44 5 -44 31v21c0 26 7 32 44 32s44 -6 44 -32v-21c0 -26 -7 -31 -44 -31zM178 569c-38 0 -45 5 -45 31v21c0 26 7 32 45 32c37 0 44 -6 44 -32v-21c0 -26 -7 -31 -44 -31zM102 0c-33 0 -41 4 -41 27v438c0 23 8 26 41 26c32 0 41 -3 41 -26v-438
c0 -23 -9 -27 -41 -27z" />
    <glyph glyph-name="eth" unicode="&#xf0;" horiz-adv-x="497" 
d="M419 589c0 -8 -3 -11 -12 -14l-44 -12c42 -76 82 -186 82 -312c0 -206 -56 -261 -204 -261c-146 0 -189 41 -189 251c0 214 48 260 169 260c47 0 78 -10 100 -27c-10 28 -21 51 -31 71l-47 -12c-5 -1 -9 -2 -12 -2c-9 0 -10 6 -14 17c-3 10 -5 18 -5 21c0 7 4 11 13 13
l38 10c-14 23 -23 38 -23 49c0 9 3 16 30 16c24 0 31 -3 39 -14c8 -10 16 -20 25 -33l55 14c7 2 10 2 13 2c6 0 10 -5 13 -17c3 -10 4 -17 4 -20zM243 61c98 0 118 33 118 181c0 162 -26 189 -107 189c-106 0 -118 -25 -118 -180c0 -162 13 -190 107 -190z" />
    <glyph glyph-name="ntilde" unicode="&#xf1;" horiz-adv-x="510" 
d="M115 0c-33 0 -42 4 -42 27v284c0 95 -22 145 -22 161c0 12 5 19 38 19c29 0 36 -2 41 -22l14 -59c27 63 80 91 168 91c110 0 136 -44 136 -131v-343c0 -23 -9 -27 -42 -27c-32 0 -41 4 -41 27v324c0 59 -14 78 -81 78c-95 0 -128 -49 -128 -168v-234
c0 -23 -9 -27 -41 -27zM130 594c0 24 7 30 24 41c9 6 33 18 59 18c42 0 70 -21 103 -21c34 0 54 19 64 19s13 -4 13 -29c0 -24 -7 -31 -24 -42c-9 -5 -33 -17 -60 -17c-41 0 -69 20 -102 20c-34 0 -54 -18 -64 -18s-13 4 -13 29z" />
    <glyph glyph-name="ograve" unicode="&#xf2;" horiz-adv-x="497" 
d="M241 -10c-146 0 -189 41 -189 251c0 207 57 260 205 260c145 0 188 -40 188 -250c0 -206 -56 -261 -204 -261zM243 61c98 0 118 33 118 181c0 162 -13 189 -107 189c-98 0 -118 -32 -118 -180c0 -162 13 -190 107 -190zM270 539c-34 0 -39 8 -49 23l-57 88
c-7 11 -14 22 -14 31c0 10 10 16 47 16c39 0 42 -8 51 -26l47 -90c5 -10 10 -19 10 -26c0 -10 -9 -16 -35 -16z" />
    <glyph glyph-name="oacute" unicode="&#xf3;" horiz-adv-x="497" 
d="M241 -10c-146 0 -189 41 -189 251c0 207 57 260 205 260c145 0 188 -40 188 -250c0 -206 -56 -261 -204 -261zM243 61c98 0 118 33 118 181c0 162 -13 189 -107 189c-98 0 -118 -32 -118 -180c0 -162 13 -190 107 -190zM227 539c-25 0 -35 6 -35 16c0 7 5 16 10 26l47 90
c9 18 12 26 51 26c37 0 47 -6 47 -16c0 -9 -7 -20 -14 -31l-57 -88c-10 -15 -15 -23 -49 -23z" />
    <glyph glyph-name="ocircumflex" unicode="&#xf4;" horiz-adv-x="497" 
d="M241 -10c-146 0 -189 41 -189 251c0 207 57 260 205 260c145 0 188 -40 188 -250c0 -206 -56 -261 -204 -261zM243 61c98 0 118 33 118 181c0 162 -13 189 -107 189c-98 0 -118 -32 -118 -180c0 -162 13 -190 107 -190zM252 635h-6l-48 -76c-10 -16 -18 -20 -46 -20
c-25 0 -32 6 -32 16c0 6 3 12 11 25l59 98c8 13 13 19 42 19h34c29 0 34 -6 42 -19l59 -98c8 -13 11 -19 11 -25c0 -10 -7 -16 -32 -16c-28 0 -36 4 -46 20z" />
    <glyph glyph-name="otilde" unicode="&#xf5;" horiz-adv-x="497" 
d="M241 -10c-146 0 -189 41 -189 251c0 207 57 260 205 260c145 0 188 -40 188 -250c0 -206 -56 -261 -204 -261zM243 61c98 0 118 33 118 181c0 162 -13 189 -107 189c-98 0 -118 -32 -118 -180c0 -162 13 -190 107 -190zM118 594c0 24 7 30 24 41c9 6 33 18 59 18
c42 0 70 -21 103 -21c34 0 54 19 64 19s13 -4 13 -29c0 -24 -7 -31 -24 -42c-9 -5 -33 -17 -60 -17c-41 0 -69 20 -102 20c-34 0 -54 -18 -64 -18s-13 4 -13 29z" />
    <glyph glyph-name="odieresis" unicode="&#xf6;" horiz-adv-x="497" 
d="M241 -10c-146 0 -189 41 -189 251c0 207 57 260 205 260c145 0 188 -40 188 -250c0 -206 -56 -261 -204 -261zM243 61c98 0 118 33 118 181c0 162 -13 189 -107 189c-98 0 -118 -32 -118 -180c0 -162 13 -190 107 -190zM176 569c-37 0 -44 5 -44 31v21c0 26 7 32 44 32
s44 -6 44 -32v-21c0 -26 -7 -31 -44 -31zM323 569c-38 0 -45 5 -45 31v21c0 26 7 32 45 32c37 0 44 -6 44 -32v-21c0 -26 -7 -31 -44 -31z" />
    <glyph glyph-name="divide" unicode="&#xf7;" 
d="M88 269c0 31 5 35 26 35h234c21 0 26 -4 26 -35c0 -30 -5 -34 -26 -34h-234c-21 0 -26 4 -26 34zM230 370c-31 0 -39 4 -39 27v28c0 23 8 27 39 27c32 0 39 -4 39 -27v-28c0 -23 -7 -27 -39 -27zM230 70c-31 0 -39 4 -39 27v28c0 23 8 27 39 27c32 0 39 -4 39 -27v-28
c0 -23 -7 -27 -39 -27z" />
    <glyph glyph-name="oslash" unicode="&#xf8;" horiz-adv-x="497" 
d="M241 -10c-146 0 -189 41 -189 251c0 207 57 260 205 260c145 0 188 -40 188 -250c0 -206 -56 -261 -204 -261zM243 61c98 0 118 33 118 181c0 43 -1 76 -4 102l-200 -254c16 -23 42 -29 86 -29zM136 251c0 -43 0 -75 3 -102l199 255c-15 21 -42 27 -84 27
c-98 0 -118 -32 -118 -180z" />
    <glyph glyph-name="ugrave" unicode="&#xf9;" horiz-adv-x="500" 
d="M195 -10c-107 0 -134 42 -134 129v346c0 23 8 26 41 26c32 0 41 -3 41 -26v-327c0 -59 15 -76 81 -76c96 0 128 49 128 169v234c0 23 8 26 41 26s41 -3 41 -26v-285c0 -95 23 -144 23 -160c0 -12 -5 -20 -38 -20c-30 0 -36 3 -41 23l-14 56c-27 -62 -81 -89 -169 -89z
M267 539c-34 0 -39 8 -49 23l-57 88c-7 11 -14 22 -14 31c0 10 10 16 47 16c39 0 42 -8 51 -26l47 -90c5 -10 10 -19 10 -26c0 -10 -9 -16 -35 -16z" />
    <glyph glyph-name="uacute" unicode="&#xfa;" horiz-adv-x="500" 
d="M195 -10c-107 0 -134 42 -134 129v346c0 23 8 26 41 26c32 0 41 -3 41 -26v-327c0 -59 15 -76 81 -76c96 0 128 49 128 169v234c0 23 8 26 41 26s41 -3 41 -26v-285c0 -95 23 -144 23 -160c0 -12 -5 -20 -38 -20c-30 0 -36 3 -41 23l-14 56c-27 -62 -81 -89 -169 -89z
M228 539c-25 0 -35 6 -35 16c0 7 5 16 10 26l47 90c9 18 12 26 51 26c37 0 47 -6 47 -16c0 -9 -7 -20 -14 -31l-57 -88c-10 -15 -15 -23 -49 -23z" />
    <glyph glyph-name="ucircumflex" unicode="&#xfb;" horiz-adv-x="500" 
d="M195 -10c-107 0 -134 42 -134 129v346c0 23 8 26 41 26c32 0 41 -3 41 -26v-327c0 -59 15 -76 81 -76c96 0 128 49 128 169v234c0 23 8 26 41 26s41 -3 41 -26v-285c0 -95 23 -144 23 -160c0 -12 -5 -20 -38 -20c-30 0 -36 3 -41 23l-14 56c-27 -62 -81 -89 -169 -89z
M251 635h-6l-48 -76c-10 -16 -18 -20 -46 -20c-25 0 -32 6 -32 16c0 6 3 12 11 25l59 98c8 13 13 19 42 19h34c29 0 34 -6 42 -19l59 -98c8 -13 11 -19 11 -25c0 -10 -7 -16 -32 -16c-28 0 -36 4 -46 20z" />
    <glyph glyph-name="udieresis" unicode="&#xfc;" horiz-adv-x="500" 
d="M195 -10c-107 0 -134 42 -134 129v346c0 23 8 26 41 26c32 0 41 -3 41 -26v-327c0 -59 15 -76 81 -76c96 0 128 49 128 169v234c0 23 8 26 41 26s41 -3 41 -26v-285c0 -95 23 -144 23 -160c0 -12 -5 -20 -38 -20c-30 0 -36 3 -41 23l-14 56c-27 -62 -81 -89 -169 -89z
M175 569c-37 0 -44 5 -44 31v21c0 26 7 32 44 32s44 -6 44 -32v-21c0 -26 -7 -31 -44 -31zM322 569c-38 0 -45 5 -45 31v21c0 26 7 32 45 32c37 0 44 -6 44 -32v-21c0 -26 -7 -31 -44 -31z" />
    <glyph glyph-name="yacute" unicode="&#xfd;" horiz-adv-x="454" 
d="M25 469c0 14 4 22 42 22c32 0 40 -2 45 -20l111 -399h8l111 399c5 18 13 20 44 20c37 0 44 -7 44 -21c0 -6 -1 -19 -11 -50l-145 -466c-33 -106 -53 -147 -141 -147c-32 0 -61 4 -81 11c-16 5 -24 11 -24 35c0 27 4 33 17 33c11 0 34 -7 79 -7s57 12 71 62l16 59
c-37 1 -49 15 -59 48l-112 357c-14 46 -15 57 -15 64zM208 539c-25 0 -35 6 -35 16c0 7 5 16 10 26l47 90c9 18 12 26 51 26c37 0 47 -6 47 -16c0 -9 -7 -20 -14 -31l-57 -88c-10 -15 -15 -23 -49 -23z" />
    <glyph glyph-name="thorn" unicode="&#xfe;" horiz-adv-x="525" 
d="M156 626v-189c28 41 76 64 149 64c139 0 168 -55 168 -254c0 -217 -58 -257 -186 -257c-61 0 -106 13 -131 54v-206c0 -23 -9 -27 -41 -27c-33 0 -42 4 -42 27v788c0 23 9 27 42 27c32 0 41 -4 41 -27zM272 61c94 0 117 26 117 190c0 150 -16 180 -103 180
s-131 -27 -131 -160v-62c0 -110 20 -148 117 -148z" />
    <glyph glyph-name="ydieresis" unicode="&#xff;" horiz-adv-x="454" 
d="M25 469c0 14 4 22 42 22c32 0 40 -2 45 -20l111 -399h8l111 399c5 18 13 20 44 20c37 0 44 -7 44 -21c0 -6 -1 -19 -11 -50l-145 -466c-33 -106 -53 -147 -141 -147c-32 0 -61 4 -81 11c-16 5 -24 11 -24 35c0 27 4 33 17 33c11 0 34 -7 79 -7s57 12 71 62l16 59
c-37 1 -49 15 -59 48l-112 357c-14 46 -15 57 -15 64zM155 569c-37 0 -44 5 -44 31v21c0 26 7 32 44 32s44 -6 44 -32v-21c0 -26 -7 -31 -44 -31zM302 569c-38 0 -45 5 -45 31v21c0 26 7 32 45 32c37 0 44 -6 44 -32v-21c0 -26 -7 -31 -44 -31z" />
    <glyph glyph-name="Amacron" unicode="&#x100;" horiz-adv-x="517" 
d="M57 0c-32 0 -40 5 -40 19c0 6 1 13 5 26l159 534c10 33 21 36 77 36c57 0 68 -3 78 -36l158 -534c4 -13 5 -20 5 -26c0 -13 -7 -19 -39 -19c-35 0 -42 5 -47 22l-48 162h-216l-46 -162c-5 -17 -11 -22 -46 -22zM252 543l-84 -293h180l-83 293h-13zM155 729
c0 30 5 36 26 36h154c21 0 26 -6 26 -36s-5 -36 -26 -36h-154c-21 0 -26 6 -26 36z" />
    <glyph glyph-name="amacron" unicode="&#x101;" horiz-adv-x="486" 
d="M171 -10c-88 0 -129 39 -129 141s46 142 181 142h108v77c0 71 -26 80 -94 80c-77 0 -131 -19 -150 -19c-11 0 -16 9 -16 33c0 25 6 33 21 37c35 11 99 20 154 20c111 0 166 -20 166 -135v-186c0 -95 23 -144 23 -160c0 -12 -5 -20 -39 -20c-29 0 -34 3 -40 23l-17 65
c-30 -68 -95 -98 -168 -98zM195 59c72 0 136 43 136 123v36l-112 -3c-78 -2 -97 -18 -97 -76c0 -70 22 -80 73 -80zM132 609c0 30 5 36 26 36h154c21 0 26 -6 26 -36s-5 -36 -26 -36h-154c-21 0 -26 6 -26 36z" />
    <glyph glyph-name="Abreve" unicode="&#x102;" horiz-adv-x="517" 
d="M57 0c-32 0 -40 5 -40 19c0 6 1 13 5 26l159 534c10 33 21 36 77 36c57 0 68 -3 78 -36l158 -534c4 -13 5 -20 5 -26c0 -13 -7 -19 -39 -19c-35 0 -42 5 -47 22l-48 162h-216l-46 -162c-5 -17 -11 -22 -46 -22zM252 543l-84 -293h180l-83 293h-13zM258 673
c-89 0 -107 27 -107 94c0 23 5 26 32 26s31 -3 32 -23c1 -28 3 -35 43 -35c41 0 43 7 44 35c1 20 4 23 32 23c27 0 31 -3 31 -26c0 -67 -17 -94 -107 -94z" />
    <glyph glyph-name="abreve" unicode="&#x103;" horiz-adv-x="486" 
d="M171 -10c-88 0 -129 39 -129 141s46 142 181 142h108v77c0 71 -26 80 -94 80c-77 0 -131 -19 -150 -19c-11 0 -16 9 -16 33c0 25 6 33 21 37c35 11 99 20 154 20c111 0 166 -20 166 -135v-186c0 -95 23 -144 23 -160c0 -12 -5 -20 -39 -20c-29 0 -34 3 -40 23l-17 65
c-30 -68 -95 -98 -168 -98zM195 59c72 0 136 43 136 123v36l-112 -3c-78 -2 -97 -18 -97 -76c0 -70 22 -80 73 -80zM235 554c-89 0 -107 27 -107 94c0 23 5 26 32 26s31 -3 32 -23c1 -28 3 -35 43 -35c41 0 43 7 44 35c1 20 4 23 32 23c27 0 31 -3 31 -26
c0 -67 -17 -94 -107 -94z" />
    <glyph glyph-name="Aogonek" unicode="&#x104;" horiz-adv-x="517" 
d="M424 -193c-47 0 -69 20 -69 71c0 46 30 84 73 125c-9 3 -12 9 -15 19l-48 162h-216l-46 -162c-5 -17 -11 -22 -46 -22c-32 0 -40 5 -40 19c0 6 1 13 5 26l159 534c10 33 21 36 77 36c57 0 68 -3 78 -36l158 -534c4 -13 5 -20 5 -26c0 -13 -4 -24 -27 -50
c-32 -37 -40 -53 -40 -71s4 -23 19 -23c17 0 21 3 31 3c12 0 17 -5 17 -30c0 -24 -7 -29 -26 -34c-15 -4 -26 -7 -49 -7zM252 543l-84 -293h180l-83 293h-13z" />
    <glyph glyph-name="aogonek" unicode="&#x105;" horiz-adv-x="486" 
d="M362 -193c-47 0 -70 20 -70 71c0 43 22 77 72 128c-4 3 -6 9 -8 17l-17 65c-30 -68 -95 -98 -168 -98c-88 0 -129 39 -129 141s46 142 181 142h108v77c0 71 -26 80 -94 80c-77 0 -131 -19 -150 -19c-11 0 -16 9 -16 33c0 25 6 33 21 37c35 11 99 20 154 20
c111 0 166 -20 166 -135v-186c0 -95 23 -144 23 -160c0 -10 -2 -19 -27 -49c-29 -35 -38 -53 -38 -73c0 -18 4 -23 19 -23c17 0 21 3 31 3c12 0 17 -5 17 -30c0 -24 -8 -29 -26 -34c-15 -4 -26 -7 -49 -7zM195 59c72 0 136 43 136 123v36l-112 -3c-78 -2 -97 -18 -97 -76
c0 -70 22 -80 73 -80z" />
    <glyph glyph-name="Cacute" unicode="&#x106;" horiz-adv-x="451" 
d="M256 -9c-127 0 -208 16 -208 273v76c0 260 77 280 210 280c46 0 94 -7 135 -19c16 -4 24 -8 24 -39c0 -27 -5 -33 -16 -33c-13 0 -60 18 -127 18c-113 0 -143 -15 -143 -216v-50c0 -204 36 -216 143 -216c71 0 113 18 127 18c12 0 16 -5 16 -33c0 -30 -8 -35 -24 -40
c-41 -11 -92 -19 -137 -19zM236 659c-25 0 -35 6 -35 16c0 7 5 16 10 26l47 90c9 18 12 26 51 26c37 0 47 -6 47 -16c0 -9 -7 -20 -14 -31l-57 -88c-10 -15 -15 -23 -49 -23z" />
    <glyph glyph-name="cacute" unicode="&#x107;" horiz-adv-x="428" 
d="M243 -10c-133 0 -191 30 -191 251c0 238 77 260 193 260c41 0 88 -7 122 -17c19 -6 25 -13 25 -39c0 -27 -5 -33 -15 -33c-13 0 -73 18 -125 18c-87 0 -116 -18 -116 -181c0 -162 12 -187 118 -187c68 0 110 21 124 21c9 0 14 -6 14 -33c0 -26 -5 -32 -24 -39
c-33 -12 -87 -21 -125 -21zM216 539c-25 0 -35 6 -35 16c0 7 5 16 10 26l47 90c9 18 12 26 51 26c37 0 47 -6 47 -16c0 -9 -7 -20 -14 -31l-57 -88c-10 -15 -15 -23 -49 -23z" />
    <glyph glyph-name="Ccircumflex" unicode="&#x108;" horiz-adv-x="451" 
d="M256 -9c-127 0 -208 16 -208 273v76c0 260 77 280 210 280c46 0 94 -7 135 -19c16 -4 24 -8 24 -39c0 -27 -5 -33 -16 -33c-13 0 -60 18 -127 18c-113 0 -143 -15 -143 -216v-50c0 -204 36 -216 143 -216c71 0 113 18 127 18c12 0 16 -5 16 -33c0 -30 -8 -35 -24 -40
c-41 -11 -92 -19 -137 -19zM246 755h-6l-48 -76c-10 -16 -18 -20 -46 -20c-25 0 -32 6 -32 16c0 6 3 12 11 25l59 98c8 13 13 19 42 19h34c29 0 34 -6 42 -19l59 -98c8 -13 11 -19 11 -25c0 -10 -7 -16 -32 -16c-28 0 -36 4 -46 20z" />
    <glyph glyph-name="ccircumflex" unicode="&#x109;" horiz-adv-x="428" 
d="M243 -10c-133 0 -191 30 -191 251c0 238 77 260 193 260c41 0 88 -7 122 -17c19 -6 25 -13 25 -39c0 -27 -5 -33 -15 -33c-13 0 -73 18 -125 18c-87 0 -116 -18 -116 -181c0 -162 12 -187 118 -187c68 0 110 21 124 21c9 0 14 -6 14 -33c0 -26 -5 -32 -24 -39
c-33 -12 -87 -21 -125 -21zM242 635h-6l-48 -76c-10 -16 -18 -20 -46 -20c-25 0 -32 6 -32 16c0 6 3 12 11 25l59 98c8 13 13 19 42 19h34c29 0 34 -6 42 -19l59 -98c8 -13 11 -19 11 -25c0 -10 -7 -16 -32 -16c-28 0 -36 4 -46 20z" />
    <glyph glyph-name="Cdotaccent" unicode="&#x10a;" horiz-adv-x="451" 
d="M256 -9c-127 0 -208 16 -208 273v76c0 260 77 280 210 280c46 0 94 -7 135 -19c16 -4 24 -8 24 -39c0 -27 -5 -33 -16 -33c-13 0 -60 18 -127 18c-113 0 -143 -15 -143 -216v-50c0 -204 36 -216 143 -216c71 0 113 18 127 18c12 0 16 -5 16 -33c0 -30 -8 -35 -24 -40
c-41 -11 -92 -19 -137 -19zM242 689c-39 0 -46 5 -46 31v21c0 26 7 32 46 32c40 0 47 -6 47 -32v-21c0 -26 -7 -31 -47 -31z" />
    <glyph glyph-name="cdotaccent" unicode="&#x10b;" horiz-adv-x="428" 
d="M243 -10c-133 0 -191 30 -191 251c0 238 77 260 193 260c41 0 88 -7 122 -17c19 -6 25 -13 25 -39c0 -27 -5 -33 -15 -33c-13 0 -73 18 -125 18c-87 0 -116 -18 -116 -181c0 -162 12 -187 118 -187c68 0 110 21 124 21c9 0 14 -6 14 -33c0 -26 -5 -32 -24 -39
c-33 -12 -87 -21 -125 -21zM238 569c-39 0 -46 5 -46 31v21c0 26 7 32 46 32c40 0 47 -6 47 -32v-21c0 -26 -7 -31 -47 -31z" />
    <glyph glyph-name="Ccaron" unicode="&#x10c;" horiz-adv-x="451" 
d="M256 -9c-127 0 -208 16 -208 273v76c0 260 77 280 210 280c46 0 94 -7 135 -19c16 -4 24 -8 24 -39c0 -27 -5 -33 -16 -33c-13 0 -60 18 -127 18c-113 0 -143 -15 -143 -216v-50c0 -204 36 -216 143 -216c71 0 113 18 127 18c12 0 16 -5 16 -33c0 -30 -8 -35 -24 -40
c-41 -11 -92 -19 -137 -19zM108 801c0 10 8 16 32 16c28 0 36 -3 47 -20l48 -76h5l48 76c10 16 19 20 47 20c24 0 32 -6 32 -16c0 -6 -4 -12 -11 -25l-59 -98c-8 -13 -14 -19 -43 -19h-33c-29 0 -35 6 -43 19l-59 98c-7 13 -11 19 -11 25z" />
    <glyph glyph-name="ccaron" unicode="&#x10d;" horiz-adv-x="428" 
d="M243 -10c-133 0 -191 30 -191 251c0 238 77 260 193 260c41 0 88 -7 122 -17c19 -6 25 -13 25 -39c0 -27 -5 -33 -15 -33c-13 0 -73 18 -125 18c-87 0 -116 -18 -116 -181c0 -162 12 -187 118 -187c68 0 110 21 124 21c9 0 14 -6 14 -33c0 -26 -5 -32 -24 -39
c-33 -12 -87 -21 -125 -21zM110 681c0 10 8 16 32 16c28 0 36 -3 47 -20l48 -76h5l48 76c10 16 19 20 47 20c24 0 32 -6 32 -16c0 -6 -4 -12 -11 -25l-59 -98c-8 -13 -14 -19 -43 -19h-33c-29 0 -35 6 -43 19l-59 98c-7 13 -11 19 -11 25z" />
    <glyph glyph-name="Dcaron" unicode="&#x10e;" horiz-adv-x="524" 
d="M252 65c108 0 141 14 141 216v57c0 193 -37 211 -154 211c-39 0 -73 -3 -95 -5v-474c27 -3 62 -5 108 -5zM252 -9c-66 0 -101 2 -156 8c-28 3 -34 12 -34 32v548c0 22 11 30 29 33c51 7 106 8 146 8c164 0 239 -20 239 -280v-59c0 -270 -84 -290 -224 -290zM127 801
c0 10 8 16 32 16c28 0 36 -3 47 -20l48 -76h5l48 76c10 16 19 20 47 20c24 0 32 -6 32 -16c0 -6 -4 -12 -11 -25l-59 -98c-8 -13 -14 -19 -43 -19h-33c-29 0 -35 6 -43 19l-59 98c-7 13 -11 19 -11 25z" />
    <glyph glyph-name="dcaron" unicode="&#x10f;" horiz-adv-x="640" 
d="M221 -10c-139 0 -169 56 -169 255c0 216 59 256 187 256c60 0 105 -13 130 -56v181c0 23 9 27 42 27c32 0 41 -4 41 -27v-446c0 -95 23 -144 23 -160c0 -12 -6 -20 -39 -20c-29 0 -35 3 -40 23l-14 52c-23 -55 -73 -85 -161 -85zM240 61c88 0 131 21 131 145v76
c0 110 -20 149 -117 149c-95 0 -118 -27 -118 -191c0 -150 17 -179 104 -179zM567 653c36 0 43 -7 43 -31v-28c0 -25 -5 -50 -13 -78l-17 -59c-8 -23 -15 -28 -43 -28c-22 0 -26 5 -26 16c0 20 13 74 13 125v52c0 24 6 31 43 31z" />
    <glyph glyph-name="Dcroat" unicode="&#x110;" horiz-adv-x="524" 
d="M252 -9c-66 0 -101 2 -156 8c-28 3 -34 12 -34 32v244h-30c-21 0 -26 6 -26 37s5 37 26 37h30v230c0 22 11 30 29 33c51 7 106 8 146 8c164 0 239 -20 239 -280v-59c0 -270 -84 -290 -224 -290zM252 65c108 0 141 14 141 216v57c0 193 -37 211 -154 211
c-39 0 -73 -3 -95 -5v-196h80c21 0 26 -6 26 -36s-5 -36 -26 -36h-80v-206c27 -3 62 -5 108 -5z" />
    <glyph glyph-name="dcroat" unicode="&#x111;" horiz-adv-x="518" 
d="M221 -10c-139 0 -169 56 -169 255c0 216 59 256 187 256c60 0 105 -13 130 -56v90h-35c-18 0 -23 5 -23 27c0 24 5 28 23 28h35v36c0 23 9 27 42 27c32 0 41 -4 41 -27v-36h43c18 0 22 -4 22 -28c0 -23 -4 -28 -22 -28h-43v-354c0 -95 23 -144 23 -160
c0 -12 -6 -20 -39 -20c-29 0 -35 3 -40 23l-14 52c-23 -55 -73 -85 -161 -85zM240 61c88 0 131 21 131 145v76c0 110 -20 149 -117 149c-95 0 -118 -27 -118 -191c0 -150 17 -179 104 -179z" />
    <glyph glyph-name="Emacron" unicode="&#x112;" horiz-adv-x="455" 
d="M425 37c0 -30 -6 -37 -25 -37h-308c-24 0 -30 5 -30 25v565c0 20 6 25 30 25h298c19 0 25 -6 25 -37s-6 -38 -25 -38h-246v-179h191c20 0 25 -5 25 -36s-5 -37 -25 -37h-191v-213h256c19 0 25 -7 25 -38zM138 729c0 30 5 36 26 36h154c21 0 26 -6 26 -36s-5 -36 -26 -36
h-154c-21 0 -26 6 -26 36z" />
    <glyph glyph-name="emacron" unicode="&#x113;" horiz-adv-x="468" 
d="M253 -10c-143 0 -201 30 -201 251c0 238 76 260 196 260c158 0 175 -76 175 -233c0 -28 -6 -42 -36 -42h-251c1 -141 17 -164 125 -164c77 0 127 21 141 21c9 0 14 -6 14 -33c0 -26 -5 -32 -24 -39c-33 -12 -93 -21 -139 -21zM246 431c-78 0 -106 -16 -110 -148h207
c0 102 -2 148 -97 148zM139 609c0 30 5 36 26 36h154c21 0 26 -6 26 -36s-5 -36 -26 -36h-154c-21 0 -26 6 -26 36z" />
    <glyph glyph-name="Ebreve" unicode="&#x114;" horiz-adv-x="455" 
d="M425 37c0 -30 -6 -37 -25 -37h-308c-24 0 -30 5 -30 25v565c0 20 6 25 30 25h298c19 0 25 -6 25 -37s-6 -38 -25 -38h-246v-179h191c20 0 25 -5 25 -36s-5 -37 -25 -37h-191v-213h256c19 0 25 -7 25 -38zM240 680c-89 0 -107 27 -107 94c0 23 5 26 32 26s31 -3 32 -23
c1 -28 3 -35 43 -35c41 0 43 7 44 35c1 20 4 23 32 23c27 0 31 -3 31 -26c0 -67 -17 -94 -107 -94z" />
    <glyph glyph-name="ebreve" unicode="&#x115;" horiz-adv-x="468" 
d="M253 -10c-143 0 -201 30 -201 251c0 238 76 260 196 260c158 0 175 -76 175 -233c0 -28 -6 -42 -36 -42h-251c1 -141 17 -164 125 -164c77 0 127 21 141 21c9 0 14 -6 14 -33c0 -26 -5 -32 -24 -39c-33 -12 -93 -21 -139 -21zM246 431c-78 0 -106 -16 -110 -148h207
c0 102 -2 148 -97 148zM241 554c-89 0 -107 27 -107 94c0 23 5 26 32 26s31 -3 32 -23c1 -28 3 -35 43 -35c41 0 43 7 44 35c1 20 4 23 32 23c27 0 31 -3 31 -26c0 -67 -17 -94 -107 -94z" />
    <glyph glyph-name="Edotaccent" unicode="&#x116;" horiz-adv-x="455" 
d="M425 37c0 -30 -6 -37 -25 -37h-308c-24 0 -30 5 -30 25v565c0 20 6 25 30 25h298c19 0 25 -6 25 -37s-6 -38 -25 -38h-246v-179h191c20 0 25 -5 25 -36s-5 -37 -25 -37h-191v-213h256c19 0 25 -7 25 -38zM240 691c-39 0 -46 5 -46 31v21c0 26 7 32 46 32
c40 0 47 -6 47 -32v-21c0 -26 -7 -31 -47 -31z" />
    <glyph glyph-name="edotaccent" unicode="&#x117;" horiz-adv-x="468" 
d="M253 -10c-143 0 -201 30 -201 251c0 238 76 260 196 260c158 0 175 -76 175 -233c0 -28 -6 -42 -36 -42h-251c1 -141 17 -164 125 -164c77 0 127 21 141 21c9 0 14 -6 14 -33c0 -26 -5 -32 -24 -39c-33 -12 -93 -21 -139 -21zM246 431c-78 0 -106 -16 -110 -148h207
c0 102 -2 148 -97 148zM241 569c-39 0 -46 5 -46 31v21c0 26 7 32 46 32c40 0 47 -6 47 -32v-21c0 -26 -7 -31 -47 -31z" />
    <glyph glyph-name="Eogonek" unicode="&#x118;" horiz-adv-x="455" 
d="M360 325c0 -31 -5 -37 -25 -37h-191v-213h256c19 0 25 -7 25 -38c0 -20 -3 -35 -27 -65c-31 -40 -40 -56 -40 -74s4 -23 19 -23c17 0 21 3 31 3c13 0 17 -5 17 -30c0 -24 -7 -29 -26 -34c-14 -4 -26 -7 -49 -7c-46 0 -69 20 -69 71c0 45 23 76 67 122h-256
c-24 0 -30 5 -30 25v565c0 20 6 25 30 25h298c19 0 25 -6 25 -37s-6 -38 -25 -38h-246v-179h191c20 0 25 -5 25 -36z" />
    <glyph glyph-name="eogonek" unicode="&#x119;" horiz-adv-x="468" 
d="M341 -193c-47 0 -70 20 -70 71c0 43 21 75 61 119c-26 -4 -55 -7 -79 -7c-143 0 -201 30 -201 251c0 238 76 260 196 260c158 0 175 -76 175 -233c0 -28 -6 -42 -36 -42h-251c1 -141 17 -164 125 -164c77 0 127 21 141 21c9 0 14 -6 14 -33c0 -29 -6 -41 -32 -78
c-24 -34 -35 -54 -35 -74c0 -18 4 -23 19 -23c17 0 21 3 31 3c12 0 17 -5 17 -30c0 -24 -7 -29 -26 -34c-15 -4 -26 -7 -49 -7zM246 431c-78 0 -106 -16 -110 -148h207c0 102 -2 148 -97 148z" />
    <glyph glyph-name="Ecaron" unicode="&#x11a;" horiz-adv-x="455" 
d="M425 37c0 -30 -6 -37 -25 -37h-308c-24 0 -30 5 -30 25v565c0 20 6 25 30 25h298c19 0 25 -6 25 -37s-6 -38 -25 -38h-246v-179h191c20 0 25 -5 25 -36s-5 -37 -25 -37h-191v-213h256c19 0 25 -7 25 -38zM111 801c0 10 8 16 32 16c28 0 36 -3 47 -20l48 -76h5l48 76
c10 16 19 20 47 20c24 0 32 -6 32 -16c0 -6 -4 -12 -11 -25l-59 -98c-8 -13 -14 -19 -43 -19h-33c-29 0 -35 6 -43 19l-59 98c-7 13 -11 19 -11 25z" />
    <glyph glyph-name="ecaron" unicode="&#x11b;" horiz-adv-x="468" 
d="M253 -10c-143 0 -201 30 -201 251c0 238 76 260 196 260c158 0 175 -76 175 -233c0 -28 -6 -42 -36 -42h-251c1 -141 17 -164 125 -164c77 0 127 21 141 21c9 0 14 -6 14 -33c0 -26 -5 -32 -24 -39c-33 -12 -93 -21 -139 -21zM246 431c-78 0 -106 -16 -110 -148h207
c0 102 -2 148 -97 148zM113 681c0 10 8 16 32 16c28 0 36 -3 47 -20l48 -76h5l48 76c10 16 19 20 47 20c24 0 32 -6 32 -16c0 -6 -4 -12 -11 -25l-59 -98c-8 -13 -14 -19 -43 -19h-33c-29 0 -35 6 -43 19l-59 98c-7 13 -11 19 -11 25z" />
    <glyph glyph-name="Gcircumflex" unicode="&#x11c;" horiz-adv-x="491" 
d="M248 -9c-122 0 -203 16 -203 273v76c0 260 77 280 211 280c46 0 103 -7 144 -19c16 -4 24 -8 24 -39c0 -27 -4 -33 -15 -33c-13 0 -72 18 -138 18c-113 0 -144 -15 -144 -216v-50c0 -204 38 -216 130 -216c80 0 110 20 110 133v63h-96c-18 0 -23 7 -23 38
c0 28 5 34 23 34h136c30 0 35 -7 35 -25v-122c0 -153 -54 -195 -194 -195zM244 755h-6l-48 -76c-10 -16 -18 -20 -46 -20c-25 0 -32 6 -32 16c0 6 3 12 11 25l59 98c8 13 13 19 42 19h34c29 0 34 -6 42 -19l59 -98c8 -13 11 -19 11 -25c0 -10 -7 -16 -32 -16
c-28 0 -36 4 -46 20z" />
    <glyph glyph-name="gcircumflex" unicode="&#x11d;" horiz-adv-x="513" 
d="M52 250c0 211 59 251 189 251c65 0 114 -15 139 -71l10 39c5 20 11 22 41 22c33 0 38 -7 38 -19c0 -16 -23 -66 -23 -161v-275c0 -189 -88 -229 -216 -229c-48 0 -95 4 -135 12c-17 4 -25 10 -25 40c0 26 4 33 16 33c16 0 62 -11 146 -11c105 0 132 42 132 150v17
c-26 -38 -73 -58 -147 -58c-136 0 -165 56 -165 260zM136 240c0 -150 17 -179 104 -179c88 0 131 21 131 145v76c0 110 -20 149 -117 149c-95 0 -118 -27 -118 -191zM260 635h-6l-48 -76c-10 -16 -18 -20 -46 -20c-25 0 -32 6 -32 16c0 6 3 12 11 25l59 98c8 13 13 19 42 19
h34c29 0 34 -6 42 -19l59 -98c8 -13 11 -19 11 -25c0 -10 -7 -16 -32 -16c-28 0 -36 4 -46 20z" />
    <glyph glyph-name="Gbreve" unicode="&#x11e;" horiz-adv-x="491" 
d="M248 -9c-122 0 -203 16 -203 273v76c0 260 77 280 211 280c46 0 103 -7 144 -19c16 -4 24 -8 24 -39c0 -27 -4 -33 -15 -33c-13 0 -72 18 -138 18c-113 0 -144 -15 -144 -216v-50c0 -204 38 -216 130 -216c80 0 110 20 110 133v63h-96c-18 0 -23 7 -23 38
c0 28 5 34 23 34h136c30 0 35 -7 35 -25v-122c0 -153 -54 -195 -194 -195zM240 674c-89 0 -107 27 -107 94c0 23 5 26 32 26s31 -3 32 -23c1 -28 3 -35 43 -35c41 0 43 7 44 35c1 20 4 23 32 23c27 0 31 -3 31 -26c0 -67 -17 -94 -107 -94z" />
    <glyph glyph-name="gbreve" unicode="&#x11f;" horiz-adv-x="513" 
d="M52 250c0 211 59 251 189 251c65 0 114 -15 139 -71l10 39c5 20 11 22 41 22c33 0 38 -7 38 -19c0 -16 -23 -66 -23 -161v-275c0 -189 -88 -229 -216 -229c-48 0 -95 4 -135 12c-17 4 -25 10 -25 40c0 26 4 33 16 33c16 0 62 -11 146 -11c105 0 132 42 132 150v17
c-26 -38 -73 -58 -147 -58c-136 0 -165 56 -165 260zM136 240c0 -150 17 -179 104 -179c88 0 131 21 131 145v76c0 110 -20 149 -117 149c-95 0 -118 -27 -118 -191zM256 554c-89 0 -107 27 -107 94c0 23 5 26 32 26s31 -3 32 -23c1 -28 3 -35 43 -35c41 0 43 7 44 35
c1 20 4 23 32 23c27 0 31 -3 31 -26c0 -67 -17 -94 -107 -94z" />
    <glyph glyph-name="Gdotaccent" unicode="&#x120;" horiz-adv-x="491" 
d="M248 -9c-122 0 -203 16 -203 273v76c0 260 77 280 211 280c46 0 103 -7 144 -19c16 -4 24 -8 24 -39c0 -27 -4 -33 -15 -33c-13 0 -72 18 -138 18c-113 0 -144 -15 -144 -216v-50c0 -204 38 -216 130 -216c80 0 110 20 110 133v63h-96c-18 0 -23 7 -23 38
c0 28 5 34 23 34h136c30 0 35 -7 35 -25v-122c0 -153 -54 -195 -194 -195zM240 691c-39 0 -46 5 -46 31v21c0 26 7 32 46 32c40 0 47 -6 47 -32v-21c0 -26 -7 -31 -47 -31z" />
    <glyph glyph-name="gdotaccent" unicode="&#x121;" horiz-adv-x="513" 
d="M52 250c0 211 59 251 189 251c65 0 114 -15 139 -71l10 39c5 20 11 22 41 22c33 0 38 -7 38 -19c0 -16 -23 -66 -23 -161v-275c0 -189 -88 -229 -216 -229c-48 0 -95 4 -135 12c-17 4 -25 10 -25 40c0 26 4 33 16 33c16 0 62 -11 146 -11c105 0 132 42 132 150v17
c-26 -38 -73 -58 -147 -58c-136 0 -165 56 -165 260zM136 240c0 -150 17 -179 104 -179c88 0 131 21 131 145v76c0 110 -20 149 -117 149c-95 0 -118 -27 -118 -191zM256 569c-39 0 -46 5 -46 31v21c0 26 7 32 46 32c40 0 47 -6 47 -32v-21c0 -26 -7 -31 -47 -31z" />
    <glyph glyph-name="Gcommaaccent" unicode="&#x122;" horiz-adv-x="491" 
d="M248 -9c-122 0 -203 16 -203 273v76c0 260 77 280 211 280c46 0 103 -7 144 -19c16 -4 24 -8 24 -39c0 -27 -4 -33 -15 -33c-13 0 -72 18 -138 18c-113 0 -144 -15 -144 -216v-50c0 -204 38 -216 130 -216c80 0 110 20 110 133v63h-96c-18 0 -23 7 -23 38
c0 28 5 34 23 34h136c30 0 35 -7 35 -25v-122c0 -153 -54 -195 -194 -195zM231 -230c-22 0 -27 5 -27 16c0 20 11 66 11 135c0 28 6 34 43 34c34 0 42 -6 42 -27c0 -31 -3 -55 -9 -74l-20 -63c-7 -15 -13 -21 -40 -21z" />
    <glyph glyph-name="gcommaaccent" unicode="&#x123;" horiz-adv-x="513" 
d="M52 250c0 211 59 251 189 251c65 0 114 -15 139 -71l10 39c5 20 11 22 41 22c33 0 38 -7 38 -19c0 -16 -23 -66 -23 -161v-275c0 -189 -88 -229 -216 -229c-48 0 -95 4 -135 12c-17 4 -25 10 -25 40c0 26 4 33 16 33c16 0 62 -11 146 -11c105 0 132 42 132 150v17
c-26 -38 -73 -58 -147 -58c-136 0 -165 56 -165 260zM136 240c0 -150 17 -179 104 -179c88 0 131 21 131 145v76c0 110 -20 149 -117 149c-95 0 -118 -27 -118 -191zM282 722c22 0 27 -5 27 -16c0 -20 -11 -66 -11 -135c0 -28 -6 -34 -43 -34c-34 0 -42 6 -42 27
c0 31 3 55 9 74l20 63c7 15 13 21 40 21z" />
    <glyph glyph-name="Hcircumflex" unicode="&#x124;" horiz-adv-x="519" 
d="M144 355h231v234c0 21 8 26 41 26c34 0 41 -5 41 -26v-562c0 -22 -7 -27 -41 -27c-33 0 -41 5 -41 27v255h-231v-255c0 -22 -8 -27 -41 -27s-41 5 -41 27v562c0 21 8 26 41 26s41 -5 41 -26v-234zM262 755h-6l-48 -76c-10 -16 -18 -20 -46 -20c-25 0 -32 6 -32 16
c0 6 3 12 11 25l59 98c8 13 13 19 42 19h34c29 0 34 -6 42 -19l59 -98c8 -13 11 -19 11 -25c0 -10 -7 -16 -32 -16c-28 0 -36 4 -46 20z" />
    <glyph glyph-name="hcircumflex" unicode="&#x125;" horiz-adv-x="497" 
d="M102 0c-33 0 -41 4 -41 27v599c0 23 8 27 41 27c32 0 41 -4 41 -27v-199c26 52 75 74 156 74c110 0 136 -44 136 -131v-343c0 -23 -9 -27 -41 -27c-33 0 -42 4 -42 27v324c0 59 -14 78 -81 78c-95 0 -128 -49 -128 -168v-234c0 -23 -9 -27 -41 -27zM269 765h-6l-48 -76
c-10 -16 -18 -20 -46 -20c-25 0 -32 6 -32 16c0 6 3 12 11 25l59 98c8 13 13 19 42 19h34c29 0 34 -6 42 -19l59 -98c8 -13 11 -19 11 -25c0 -10 -7 -16 -32 -16c-28 0 -36 4 -46 20z" />
    <glyph glyph-name="Hbar" unicode="&#x126;" horiz-adv-x="519" 
d="M11 482c0 28 4 33 23 33h28v74c0 21 8 26 41 26s41 -5 41 -26v-74h231v74c0 21 8 26 41 26c34 0 41 -5 41 -26v-74h25c19 0 24 -5 24 -33s-5 -33 -24 -33h-25v-422c0 -22 -7 -27 -41 -27c-33 0 -41 5 -41 27v255h-231v-255c0 -22 -8 -27 -41 -27s-41 5 -41 27v422h-28
c-19 0 -23 5 -23 33zM144 355h231v94h-231v-94z" />
    <glyph glyph-name="hbar" unicode="&#x127;" horiz-adv-x="497" 
d="M102 0c-33 0 -41 4 -41 27v507h-41c-17 0 -22 5 -22 28s5 28 22 28h41v36c0 23 8 27 41 27c32 0 41 -4 41 -27v-36h43c18 0 23 -4 23 -28c0 -22 -5 -27 -23 -27h-43v-108c26 52 75 74 156 74c110 0 136 -44 136 -131v-343c0 -23 -9 -27 -41 -27c-33 0 -42 4 -42 27v324
c0 59 -14 78 -81 78c-95 0 -128 -49 -128 -168v-234c0 -23 -9 -27 -41 -27z" />
    <glyph glyph-name="Itilde" unicode="&#x128;" horiz-adv-x="206" 
d="M103 0c-33 0 -41 5 -41 27v562c0 21 8 26 41 26s41 -5 41 -26v-562c0 -22 -8 -27 -41 -27zM-28 711c0 24 7 30 24 41c9 6 33 18 59 18c42 0 70 -21 103 -21c34 0 54 19 64 19s13 -4 13 -29c0 -24 -7 -31 -24 -42c-9 -5 -33 -17 -60 -17c-41 0 -69 20 -102 20
c-34 0 -54 -18 -64 -18s-13 4 -13 29z" />
    <glyph glyph-name="itilde" unicode="&#x129;" horiz-adv-x="208" 
d="M-27 594c0 24 7 30 24 41c9 6 33 18 59 18c42 0 70 -21 103 -21c34 0 54 19 64 19s13 -4 13 -29c0 -24 -7 -31 -24 -42c-9 -5 -33 -17 -60 -17c-41 0 -69 20 -102 20c-34 0 -54 -18 -64 -18s-13 4 -13 29zM102 0c-33 0 -41 4 -41 27v438c0 23 8 26 41 26
c32 0 41 -3 41 -26v-438c0 -23 -9 -27 -41 -27z" />
    <glyph glyph-name="Imacron" unicode="&#x12a;" horiz-adv-x="206" 
d="M103 0c-33 0 -41 5 -41 27v562c0 21 8 26 41 26s41 -5 41 -26v-562c0 -22 -8 -27 -41 -27zM1 729c0 30 5 36 26 36h154c21 0 26 -6 26 -36s-5 -36 -26 -36h-154c-21 0 -26 6 -26 36z" />
    <glyph glyph-name="imacron" unicode="&#x12b;" horiz-adv-x="208" 
d="M1 609c0 30 5 36 26 36h154c21 0 26 -6 26 -36s-5 -36 -26 -36h-154c-21 0 -26 6 -26 36zM102 0c-33 0 -41 4 -41 27v438c0 23 8 26 41 26c32 0 41 -3 41 -26v-438c0 -23 -9 -27 -41 -27z" />
    <glyph glyph-name="Ibreve" unicode="&#x12c;" horiz-adv-x="206" 
d="M103 0c-33 0 -41 5 -41 27v562c0 21 8 26 41 26s41 -5 41 -26v-562c0 -22 -8 -27 -41 -27zM103 673c-89 0 -107 27 -107 94c0 23 5 26 32 26s31 -3 32 -23c1 -28 3 -35 43 -35c41 0 43 7 44 35c1 20 4 23 32 23c27 0 31 -3 31 -26c0 -67 -17 -94 -107 -94z" />
    <glyph glyph-name="ibreve" unicode="&#x12d;" horiz-adv-x="208" 
d="M104 554c-89 0 -107 27 -107 94c0 23 5 26 32 26s31 -3 32 -23c1 -28 3 -35 43 -35c41 0 43 7 44 35c1 20 4 23 32 23c27 0 31 -3 31 -26c0 -67 -17 -94 -107 -94zM102 0c-33 0 -41 4 -41 27v438c0 23 8 26 41 26c32 0 41 -3 41 -26v-438c0 -23 -9 -27 -41 -27z" />
    <glyph glyph-name="Iogonek" unicode="&#x12e;" horiz-adv-x="206" 
d="M144 589v-551c0 -22 -2 -35 -27 -66c-31 -40 -40 -56 -40 -74s4 -23 19 -23c17 0 21 3 31 3c12 0 17 -5 17 -30c0 -24 -7 -29 -26 -34c-15 -4 -26 -7 -49 -7c-47 0 -69 20 -69 71c0 46 26 78 72 126c-8 4 -10 11 -10 23v562c0 21 8 26 41 26s41 -5 41 -26z" />
    <glyph glyph-name="iogonek" unicode="&#x12f;" horiz-adv-x="208" 
d="M68 -193c-47 0 -70 20 -70 71c0 40 20 74 72 126c-7 4 -9 11 -9 23v438c0 23 8 26 41 26c32 0 41 -3 41 -26v-438c0 -17 -3 -27 -31 -60c-27 -31 -36 -49 -36 -69c0 -18 4 -23 19 -23c17 0 21 3 31 3c12 0 17 -5 17 -30c0 -24 -8 -29 -26 -34c-15 -4 -26 -7 -49 -7z
M102 569c-40 0 -46 5 -46 31v21c0 26 6 32 46 32c39 0 46 -6 46 -32v-21c0 -26 -7 -31 -46 -31z" />
    <glyph glyph-name="Idotaccent" unicode="&#x130;" horiz-adv-x="206" 
d="M103 0c-33 0 -41 5 -41 27v562c0 21 8 26 41 26s41 -5 41 -26v-562c0 -22 -8 -27 -41 -27zM103 691c-39 0 -46 5 -46 31v21c0 26 7 32 46 32c40 0 47 -6 47 -32v-21c0 -26 -7 -31 -47 -31z" />
    <glyph glyph-name="dotlessi" unicode="&#x131;" horiz-adv-x="208" 
d="M102 0c-33 0 -41 4 -41 27v438c0 23 8 26 41 26c32 0 41 -3 41 -26v-438c0 -23 -9 -27 -41 -27z" />
    <glyph glyph-name="IJ" unicode="&#x132;" horiz-adv-x="541" 
d="M103 0c-33 0 -41 5 -41 27v562c0 21 8 26 41 26s41 -5 41 -26v-562c0 -22 -8 -27 -41 -27zM335 -9c-44 0 -76 7 -95 13c-17 5 -25 11 -25 39c0 29 4 31 16 31c14 0 46 -9 86 -9c63 0 80 18 80 90v434c0 21 8 26 41 26s41 -5 41 -26v-439c0 -115 -49 -159 -144 -159z" />
    <glyph glyph-name="ij" unicode="&#x133;" horiz-adv-x="417" 
d="M102 0c-33 0 -41 4 -41 27v438c0 23 8 26 41 26c32 0 41 -3 41 -26v-438c0 -23 -9 -27 -41 -27zM102 569c-40 0 -46 5 -46 31v21c0 26 6 32 46 32c39 0 46 -6 46 -32v-21c0 -26 -7 -31 -46 -31zM310 491c32 0 41 -3 41 -26v-534c0 -88 -30 -124 -105 -124
c-25 0 -51 5 -68 10c-19 5 -26 10 -26 35c0 29 5 32 16 32s32 -5 57 -5c36 0 44 7 44 69v517c0 23 8 26 41 26zM310 569c-40 0 -46 5 -46 31v21c0 26 6 32 46 32c39 0 46 -6 46 -32v-21c0 -26 -7 -31 -46 -31z" />
    <glyph glyph-name="Jcircumflex" unicode="&#x134;" horiz-adv-x="335" 
d="M129 -9c-44 0 -76 7 -95 13c-17 5 -25 11 -25 39c0 29 4 31 16 31c14 0 46 -9 86 -9c63 0 80 18 80 90v434c0 21 8 26 41 26s41 -5 41 -26v-439c0 -115 -49 -159 -144 -159zM234 755h-6l-48 -76c-10 -16 -18 -20 -46 -20c-25 0 -32 6 -32 16c0 6 3 12 11 25l59 98
c8 13 13 19 42 19h34c29 0 34 -6 42 -19l59 -98c8 -13 11 -19 11 -25c0 -10 -7 -16 -32 -16c-28 0 -36 4 -46 20z" />
    <glyph glyph-name="jcircumflex" unicode="&#x135;" horiz-adv-x="208" 
d="M102 491c32 0 41 -3 41 -26v-534c0 -88 -30 -124 -105 -124c-25 0 -51 5 -68 10c-19 5 -26 10 -26 35c0 29 5 32 16 32s32 -5 57 -5c36 0 44 7 44 69v517c0 23 8 26 41 26zM105 635h-6l-48 -76c-10 -16 -18 -20 -46 -20c-25 0 -32 6 -32 16c0 6 3 12 11 25l59 98
c8 13 13 19 42 19h34c29 0 34 -6 42 -19l59 -98c8 -13 11 -19 11 -25c0 -10 -7 -16 -32 -16c-28 0 -36 4 -46 20z" />
    <glyph glyph-name="Kcommaaccent" unicode="&#x136;" horiz-adv-x="458" 
d="M103 0c-33 0 -41 5 -41 27v562c0 21 8 26 41 26s41 -5 41 -26v-246h14l180 253c11 16 18 19 54 19c30 0 40 -5 40 -17c0 -9 -5 -18 -13 -29l-190 -255l200 -263c11 -15 14 -24 14 -32c0 -12 -6 -19 -41 -19c-30 0 -41 4 -52 19l-193 267h-13v-259c0 -22 -8 -27 -41 -27z
M208 -230c-22 0 -27 5 -27 16c0 20 11 66 11 135c0 28 6 34 43 34c34 0 42 -6 42 -27c0 -31 -3 -55 -9 -74l-20 -63c-7 -15 -13 -21 -40 -21z" />
    <glyph glyph-name="kcommaaccent" unicode="&#x137;" horiz-adv-x="428" 
d="M102 0c-33 0 -41 4 -41 27v599c0 23 8 27 41 27c32 0 41 -4 41 -27v-342h9l157 187c14 16 21 20 55 20c30 0 40 -4 40 -14c0 -9 -6 -19 -14 -28l-165 -192l177 -215c7 -8 13 -16 13 -26c0 -11 -12 -16 -43 -16c-32 0 -37 4 -51 21l-170 207h-8v-201c0 -23 -9 -27 -41 -27
zM194 -230c-22 0 -27 5 -27 16c0 20 11 66 11 135c0 28 6 34 43 34c34 0 42 -6 42 -27c0 -31 -3 -55 -9 -74l-20 -63c-7 -15 -13 -21 -40 -21z" />
    <glyph glyph-name="Lacute" unicode="&#x139;" horiz-adv-x="423" 
d="M144 75h236c19 0 25 -7 25 -38c0 -30 -6 -37 -25 -37h-288c-24 0 -30 5 -30 25v564c0 21 8 26 41 26s41 -5 41 -26v-514zM110 659c-25 0 -35 6 -35 16c0 7 5 16 10 26l47 90c9 18 12 26 51 26c37 0 47 -6 47 -16c0 -9 -7 -20 -14 -31l-57 -88c-10 -15 -15 -23 -49 -23z
" />
    <glyph glyph-name="lacute" unicode="&#x13a;" horiz-adv-x="205" 
d="M102 0c-33 0 -41 4 -41 27v599c0 23 8 27 41 27c32 0 41 -4 41 -27v-599c0 -23 -9 -27 -41 -27zM90 689c-25 0 -35 6 -35 16c0 7 5 16 10 26l47 90c9 18 12 26 51 26c37 0 47 -6 47 -16c0 -9 -7 -20 -14 -31l-57 -88c-10 -15 -15 -23 -49 -23z" />
    <glyph glyph-name="Lcommaaccent" unicode="&#x13b;" horiz-adv-x="423" 
d="M144 75h236c19 0 25 -7 25 -38c0 -30 -6 -37 -25 -37h-288c-24 0 -30 5 -30 25v564c0 21 8 26 41 26s41 -5 41 -26v-514zM208 -230c-22 0 -27 5 -27 16c0 20 11 66 11 135c0 28 6 34 43 34c34 0 42 -6 42 -27c0 -31 -3 -55 -9 -74l-20 -63c-7 -15 -13 -21 -40 -21z" />
    <glyph glyph-name="lcommaaccent" unicode="&#x13c;" horiz-adv-x="205" 
d="M102 0c-33 0 -41 4 -41 27v599c0 23 8 27 41 27c32 0 41 -4 41 -27v-599c0 -23 -9 -27 -41 -27zM76 -230c-22 0 -27 5 -27 16c0 20 11 66 11 135c0 28 6 34 43 34c34 0 42 -6 42 -27c0 -31 -3 -55 -9 -74l-20 -63c-7 -15 -13 -21 -40 -21z" />
    <glyph glyph-name="Lcaron" unicode="&#x13d;" horiz-adv-x="423" 
d="M144 75h236c19 0 25 -7 25 -38c0 -30 -6 -37 -25 -37h-288c-24 0 -30 5 -30 25v564c0 21 8 26 41 26s41 -5 41 -26v-514zM280 616c36 0 43 -7 43 -31v-28c0 -25 -5 -50 -13 -78l-17 -59c-8 -23 -15 -28 -43 -28c-22 0 -26 5 -26 16c0 20 13 74 13 125v52c0 24 6 31 43 31
z" />
    <glyph glyph-name="lcaron" unicode="&#x13e;" horiz-adv-x="332" 
d="M262 653c37 0 43 -7 43 -31v-28c0 -25 -5 -50 -13 -78l-17 -59c-8 -23 -15 -28 -42 -28c-22 0 -27 5 -27 16c0 20 14 74 14 125v52c0 24 6 31 42 31zM102 0c-33 0 -41 4 -41 27v599c0 23 8 27 41 27c32 0 41 -4 41 -27v-599c0 -23 -9 -27 -41 -27z" />
    <glyph glyph-name="Ldot" unicode="&#x13f;" horiz-adv-x="423" 
d="M144 75h236c19 0 25 -7 25 -38c0 -30 -6 -37 -25 -37h-288c-24 0 -30 5 -30 25v564c0 21 8 26 41 26s41 -5 41 -26v-514zM262 281c-39 0 -46 5 -46 31v21c0 26 7 32 46 32c40 0 47 -6 47 -32v-21c0 -26 -7 -31 -47 -31z" />
    <glyph glyph-name="ldot" unicode="&#x140;" horiz-adv-x="305" 
d="M102 0c-33 0 -41 4 -41 27v599c0 23 8 27 41 27c32 0 41 -4 41 -27v-599c0 -23 -9 -27 -41 -27zM240 220c-39 0 -46 5 -46 31v21c0 26 7 32 46 32c40 0 47 -6 47 -32v-21c0 -26 -7 -31 -47 -31z" />
    <glyph glyph-name="Lslash" unicode="&#x141;" horiz-adv-x="423" 
d="M144 75h236c19 0 25 -7 25 -38c0 -30 -6 -37 -25 -37h-288c-24 0 -30 5 -30 25v203l-29 -18c-11 -7 -16 -8 -20 -8c-8 0 -14 4 -14 31c0 28 6 39 21 48l42 26v282c0 21 8 26 41 26s41 -5 41 -26v-230l115 74c10 6 15 8 19 8c8 0 14 -5 14 -31c0 -28 -6 -38 -21 -48
l-127 -81v-206z" />
    <glyph glyph-name="lslash" unicode="&#x142;" horiz-adv-x="223" 
d="M111 0c-33 0 -41 4 -41 27v223l-36 -23c-10 -6 -15 -7 -19 -7c-7 0 -13 4 -13 29c0 28 5 38 20 48l48 31v298c0 23 8 27 41 27c32 0 41 -4 41 -27v-244l38 25c10 6 15 7 19 7c7 0 13 -4 13 -29c0 -28 -5 -38 -20 -48l-50 -33v-277c0 -23 -9 -27 -41 -27z" />
    <glyph glyph-name="Nacute" unicode="&#x143;" horiz-adv-x="543" 
d="M103 0c-33 0 -41 5 -41 27v562c0 21 9 26 59 26c40 0 54 -1 65 -26l203 -462h10v462c0 21 7 26 41 26c33 0 41 -5 41 -26v-562c0 -22 -8 -27 -58 -27c-40 0 -51 2 -62 26l-207 463h-10v-462c0 -22 -8 -27 -41 -27zM252 659c-25 0 -35 6 -35 16c0 7 5 16 10 26l47 90
c9 18 12 26 51 26c37 0 47 -6 47 -16c0 -9 -7 -20 -14 -31l-57 -88c-10 -15 -15 -23 -49 -23z" />
    <glyph glyph-name="nacute" unicode="&#x144;" horiz-adv-x="510" 
d="M115 0c-33 0 -42 4 -42 27v284c0 95 -22 145 -22 161c0 12 5 19 38 19c29 0 36 -2 41 -22l14 -59c27 63 80 91 168 91c110 0 136 -44 136 -131v-343c0 -23 -9 -27 -42 -27c-32 0 -41 4 -41 27v324c0 59 -14 78 -81 78c-95 0 -128 -49 -128 -168v-234
c0 -23 -9 -27 -41 -27zM240 539c-25 0 -35 6 -35 16c0 7 5 16 10 26l47 90c9 18 12 26 51 26c37 0 47 -6 47 -16c0 -9 -7 -20 -14 -31l-57 -88c-10 -15 -15 -23 -49 -23z" />
    <glyph glyph-name="Ncommaaccent" unicode="&#x145;" horiz-adv-x="543" 
d="M103 0c-33 0 -41 5 -41 27v562c0 21 9 26 59 26c40 0 54 -1 65 -26l203 -462h10v462c0 21 7 26 41 26c33 0 41 -5 41 -26v-562c0 -22 -8 -27 -58 -27c-40 0 -51 2 -62 26l-207 463h-10v-462c0 -22 -8 -27 -41 -27zM250 -230c-22 0 -27 5 -27 16c0 20 11 66 11 135
c0 28 6 34 43 34c34 0 42 -6 42 -27c0 -31 -3 -55 -9 -74l-20 -63c-7 -15 -13 -21 -40 -21z" />
    <glyph glyph-name="ncommaaccent" unicode="&#x146;" horiz-adv-x="510" 
d="M115 0c-33 0 -42 4 -42 27v284c0 95 -22 145 -22 161c0 12 5 19 38 19c29 0 36 -2 41 -22l14 -59c27 63 80 91 168 91c110 0 136 -44 136 -131v-343c0 -23 -9 -27 -42 -27c-32 0 -41 4 -41 27v324c0 59 -14 78 -81 78c-95 0 -128 -49 -128 -168v-234
c0 -23 -9 -27 -41 -27zM237 -230c-22 0 -27 5 -27 16c0 20 11 66 11 135c0 28 6 34 43 34c34 0 42 -6 42 -27c0 -31 -3 -55 -9 -74l-20 -63c-7 -15 -13 -21 -40 -21z" />
    <glyph glyph-name="Ncaron" unicode="&#x147;" horiz-adv-x="543" 
d="M103 0c-33 0 -41 5 -41 27v562c0 21 9 26 59 26c40 0 54 -1 65 -26l203 -462h10v462c0 21 7 26 41 26c33 0 41 -5 41 -26v-562c0 -22 -8 -27 -58 -27c-40 0 -51 2 -62 26l-207 463h-10v-462c0 -22 -8 -27 -41 -27zM145 801c0 10 8 16 32 16c28 0 36 -3 47 -20l48 -76h5
l48 76c10 16 19 20 47 20c24 0 32 -6 32 -16c0 -6 -4 -12 -11 -25l-59 -98c-8 -13 -14 -19 -43 -19h-33c-29 0 -35 6 -43 19l-59 98c-7 13 -11 19 -11 25z" />
    <glyph glyph-name="ncaron" unicode="&#x148;" horiz-adv-x="510" 
d="M115 0c-33 0 -42 4 -42 27v284c0 95 -22 145 -22 161c0 12 5 19 38 19c29 0 36 -2 41 -22l14 -59c27 63 80 91 168 91c110 0 136 -44 136 -131v-343c0 -23 -9 -27 -42 -27c-32 0 -41 4 -41 27v324c0 59 -14 78 -81 78c-95 0 -128 -49 -128 -168v-234
c0 -23 -9 -27 -41 -27zM132 681c0 10 8 16 32 16c28 0 36 -3 47 -20l48 -76h5l48 76c10 16 19 20 47 20c24 0 32 -6 32 -16c0 -6 -4 -12 -11 -25l-59 -98c-8 -13 -14 -19 -43 -19h-33c-29 0 -35 6 -43 19l-59 98c-7 13 -11 19 -11 25z" />
    <glyph glyph-name="Eng" unicode="&#x14a;" horiz-adv-x="543" 
d="M376 -193c-25 0 -51 5 -68 10c-18 5 -26 10 -26 35c0 29 5 32 16 32s32 -5 57 -5c36 0 44 7 44 69v52c-21 2 -29 7 -38 26l-207 463h-10v-462c0 -22 -8 -27 -41 -27s-41 5 -41 27v562c0 21 9 26 59 26c40 0 54 -1 65 -26l203 -462h10v462c0 21 7 26 41 26
c33 0 41 -5 41 -26v-658c0 -88 -30 -124 -105 -124z" />
    <glyph glyph-name="eng" unicode="&#x14b;" horiz-adv-x="510" 
d="M115 0c-33 0 -42 4 -42 27v284c0 95 -22 145 -22 161c0 12 5 19 38 19c29 0 36 -2 41 -22l14 -59c27 63 80 91 168 91c110 0 136 -44 136 -131v-439c0 -88 -31 -124 -105 -124c-25 0 -52 5 -69 10c-18 5 -26 10 -26 35c0 29 6 32 17 32c10 0 32 -5 57 -5c36 0 43 7 43 69
v403c0 59 -14 78 -81 78c-95 0 -128 -49 -128 -168v-234c0 -23 -9 -27 -41 -27z" />
    <glyph glyph-name="Omacron" unicode="&#x14c;" horiz-adv-x="524" 
d="M262 63c107 0 132 23 132 218v49c0 196 -18 218 -132 218c-107 0 -131 -22 -131 -218v-49c0 -195 17 -218 131 -218zM262 -9c-160 0 -214 30 -214 285v57c0 265 66 287 214 287c163 0 214 -30 214 -287v-57c0 -262 -68 -285 -214 -285zM160 729c0 30 5 36 26 36h154
c21 0 26 -6 26 -36s-5 -36 -26 -36h-154c-21 0 -26 6 -26 36z" />
    <glyph glyph-name="omacron" unicode="&#x14d;" horiz-adv-x="497" 
d="M241 -10c-146 0 -189 41 -189 251c0 207 57 260 205 260c145 0 188 -40 188 -250c0 -206 -56 -261 -204 -261zM243 61c98 0 118 33 118 181c0 162 -13 189 -107 189c-98 0 -118 -32 -118 -180c0 -162 13 -190 107 -190zM146 609c0 30 5 36 26 36h154c21 0 26 -6 26 -36
s-5 -36 -26 -36h-154c-21 0 -26 6 -26 36z" />
    <glyph glyph-name="Obreve" unicode="&#x14e;" horiz-adv-x="524" 
d="M262 63c107 0 132 23 132 218v49c0 196 -18 218 -132 218c-107 0 -131 -22 -131 -218v-49c0 -195 17 -218 131 -218zM262 -9c-160 0 -214 30 -214 285v57c0 265 66 287 214 287c163 0 214 -30 214 -287v-57c0 -262 -68 -285 -214 -285zM262 674c-89 0 -107 27 -107 94
c0 23 5 26 32 26s31 -3 32 -23c1 -28 3 -35 43 -35c41 0 43 7 44 35c1 20 4 23 32 23c27 0 31 -3 31 -26c0 -67 -17 -94 -107 -94z" />
    <glyph glyph-name="obreve" unicode="&#x14f;" horiz-adv-x="497" 
d="M241 -10c-146 0 -189 41 -189 251c0 207 57 260 205 260c145 0 188 -40 188 -250c0 -206 -56 -261 -204 -261zM243 61c98 0 118 33 118 181c0 162 -13 189 -107 189c-98 0 -118 -32 -118 -180c0 -162 13 -190 107 -190zM248 554c-89 0 -107 27 -107 94c0 23 5 26 32 26
s31 -3 32 -23c1 -28 3 -35 43 -35c41 0 43 7 44 35c1 20 4 23 32 23c27 0 31 -3 31 -26c0 -67 -17 -94 -107 -94z" />
    <glyph glyph-name="Ohungarumlaut" unicode="&#x150;" horiz-adv-x="524" 
d="M262 63c107 0 132 23 132 218v49c0 196 -18 218 -132 218c-107 0 -131 -22 -131 -218v-49c0 -195 17 -218 131 -218zM262 -9c-160 0 -214 30 -214 285v57c0 265 66 287 214 287c163 0 214 -30 214 -287v-57c0 -262 -68 -285 -214 -285zM154 675c0 6 2 13 47 124
c4 12 10 18 47 18c31 0 43 -1 43 -16c0 -8 -2 -17 -60 -122c-7 -14 -12 -20 -46 -20c-26 0 -31 6 -31 16zM279 675c0 6 2 13 62 124c6 12 12 18 48 18c30 0 43 -2 43 -16c0 -8 -2 -16 -76 -122c-9 -14 -13 -20 -46 -20c-26 0 -31 6 -31 16z" />
    <glyph glyph-name="ohungarumlaut" unicode="&#x151;" horiz-adv-x="497" 
d="M241 -10c-146 0 -189 41 -189 251c0 207 57 260 205 260c145 0 188 -40 188 -250c0 -206 -56 -261 -204 -261zM243 61c98 0 118 33 118 181c0 162 -13 189 -107 189c-98 0 -118 -32 -118 -180c0 -162 13 -190 107 -190zM139 555c0 6 2 13 47 124c4 12 10 18 47 18
c31 0 43 -1 43 -16c0 -8 -2 -17 -60 -122c-7 -14 -12 -20 -46 -20c-26 0 -31 6 -31 16zM264 555c0 6 2 13 62 124c6 12 12 18 48 18c30 0 43 -2 43 -16c0 -8 -2 -16 -76 -122c-9 -14 -13 -20 -46 -20c-26 0 -31 6 -31 16z" />
    <glyph glyph-name="OE" unicode="&#x152;" horiz-adv-x="787" 
d="M262 -9c-145 0 -214 23 -214 285v57c0 257 51 287 214 287c64 0 110 -5 142 -28c0 18 10 23 34 23h284c19 0 25 -6 25 -37s-6 -38 -25 -38h-246v-179h190c21 0 26 -5 26 -36s-5 -37 -26 -37h-190v-213h256c19 0 25 -7 25 -38c0 -30 -6 -37 -25 -37h-294
c-24 0 -34 4 -34 23c-34 -27 -81 -32 -142 -32zM262 63c108 0 132 22 132 204v66c0 191 -17 215 -132 215c-114 0 -131 -22 -131 -218v-49c0 -195 24 -218 131 -218z" />
    <glyph glyph-name="oe" unicode="&#x153;" horiz-adv-x="777" 
d="M241 -10c-146 0 -189 41 -189 251c0 207 57 260 205 260c75 0 122 -11 150 -53c34 46 86 53 151 53c157 0 174 -76 174 -233c0 -28 -6 -42 -36 -42h-251c1 -142 18 -164 126 -164c77 0 126 21 141 21c8 0 14 -6 14 -33c0 -26 -6 -32 -25 -39c-33 -12 -93 -21 -139 -21
c-81 0 -132 10 -162 58c-32 -43 -83 -58 -159 -58zM243 61c98 0 118 33 118 181c0 162 -13 189 -107 189c-98 0 -118 -32 -118 -180c0 -162 13 -190 107 -190zM556 431c-78 0 -107 -16 -111 -148h207c0 102 -2 148 -96 148z" />
    <glyph glyph-name="Racute" unicode="&#x154;" horiz-adv-x="499" 
d="M103 0c-33 0 -41 5 -41 27v552c0 21 12 30 29 32c51 7 112 9 156 9c144 0 200 -20 200 -168c0 -101 -29 -155 -102 -178l108 -231c6 -14 8 -20 8 -25c0 -11 -7 -18 -36 -18c-39 0 -46 4 -53 21l-101 241c-11 -1 -23 -1 -36 -1h-91v-234c0 -22 -8 -27 -41 -27zM144 544
v-219h93c98 0 124 24 124 124c0 82 -21 100 -121 100c-34 0 -71 -3 -96 -5zM215 659c-25 0 -35 6 -35 16c0 7 5 16 10 26l47 90c9 18 12 26 51 26c37 0 47 -6 47 -16c0 -9 -7 -20 -14 -31l-57 -88c-10 -15 -15 -23 -49 -23z" />
    <glyph glyph-name="racute" unicode="&#x155;" horiz-adv-x="341" 
d="M115 0c-33 0 -42 4 -42 27v284c0 95 -22 145 -22 161c0 12 5 19 38 19c29 0 36 -2 41 -22l14 -55c25 59 70 86 123 86c18 0 38 -4 45 -6c12 -5 17 -13 17 -39c0 -28 -8 -34 -17 -34c-8 0 -27 6 -53 6c-76 0 -103 -76 -103 -193v-207c0 -23 -9 -27 -41 -27zM137 539
c-25 0 -35 6 -35 16c0 7 5 16 10 26l47 90c9 18 12 26 51 26c37 0 47 -6 47 -16c0 -9 -7 -20 -14 -31l-57 -88c-10 -15 -15 -23 -49 -23z" />
    <glyph glyph-name="Rcommaaccent" unicode="&#x156;" horiz-adv-x="499" 
d="M103 0c-33 0 -41 5 -41 27v552c0 21 12 30 29 32c51 7 112 9 156 9c144 0 200 -20 200 -168c0 -101 -29 -155 -102 -178l108 -231c6 -14 8 -20 8 -25c0 -11 -7 -18 -36 -18c-39 0 -46 4 -53 21l-101 241c-11 -1 -23 -1 -36 -1h-91v-234c0 -22 -8 -27 -41 -27zM144 544
v-219h93c98 0 124 24 124 124c0 82 -21 100 -121 100c-34 0 -71 -3 -96 -5zM229 -230c-22 0 -27 5 -27 16c0 20 11 66 11 135c0 28 6 34 43 34c34 0 42 -6 42 -27c0 -31 -3 -55 -9 -74l-20 -63c-7 -15 -13 -21 -40 -21z" />
    <glyph glyph-name="rcommaaccent" unicode="&#x157;" horiz-adv-x="341" 
d="M115 0c-33 0 -42 4 -42 27v284c0 95 -22 145 -22 161c0 12 5 19 38 19c29 0 36 -2 41 -22l14 -55c25 59 70 86 123 86c18 0 38 -4 45 -6c12 -5 17 -13 17 -39c0 -28 -8 -34 -17 -34c-8 0 -27 6 -53 6c-76 0 -103 -76 -103 -193v-207c0 -23 -9 -27 -41 -27zM91 -237
c-22 0 -27 5 -27 16c0 20 11 66 11 135c0 28 6 34 43 34c34 0 42 -6 42 -27c0 -31 -3 -55 -9 -74l-20 -63c-7 -15 -13 -21 -40 -21z" />
    <glyph glyph-name="Rcaron" unicode="&#x158;" horiz-adv-x="499" 
d="M103 0c-33 0 -41 5 -41 27v552c0 21 12 30 29 32c51 7 112 9 156 9c144 0 200 -20 200 -168c0 -101 -29 -155 -102 -178l108 -231c6 -14 8 -20 8 -25c0 -11 -7 -18 -36 -18c-39 0 -46 4 -53 21l-101 241c-11 -1 -23 -1 -36 -1h-91v-234c0 -22 -8 -27 -41 -27zM144 544
v-219h93c98 0 124 24 124 124c0 82 -21 100 -121 100c-34 0 -71 -3 -96 -5zM122 801c0 10 8 16 32 16c28 0 36 -3 47 -20l48 -76h5l48 76c10 16 19 20 47 20c24 0 32 -6 32 -16c0 -6 -4 -12 -11 -25l-59 -98c-8 -13 -14 -19 -43 -19h-33c-29 0 -35 6 -43 19l-59 98
c-7 13 -11 19 -11 25z" />
    <glyph glyph-name="rcaron" unicode="&#x159;" horiz-adv-x="341" 
d="M115 0c-33 0 -42 4 -42 27v284c0 95 -22 145 -22 161c0 12 5 19 38 19c29 0 36 -2 41 -22l14 -55c25 59 70 86 123 86c18 0 38 -4 45 -6c12 -5 17 -13 17 -39c0 -28 -8 -34 -17 -34c-8 0 -27 6 -53 6c-76 0 -103 -76 -103 -193v-207c0 -23 -9 -27 -41 -27zM45 681
c0 10 8 16 32 16c28 0 36 -3 47 -20l48 -76h5l48 76c10 16 19 20 47 20c24 0 32 -6 32 -16c0 -6 -4 -12 -11 -25l-59 -98c-8 -13 -14 -19 -43 -19h-33c-29 0 -35 6 -43 19l-59 98c-7 13 -11 19 -11 25z" />
    <glyph glyph-name="Sacute" unicode="&#x15a;" horiz-adv-x="459" 
d="M217 -9c-51 0 -109 8 -148 19c-17 5 -26 12 -26 41s5 33 17 33c18 0 67 -18 143 -18c92 0 131 26 131 96c0 52 -10 74 -50 92l-129 58c-71 32 -98 61 -98 150c0 140 80 158 168 158c48 0 111 -7 152 -19c15 -4 23 -11 23 -40c0 -28 -5 -34 -17 -34c-13 0 -67 19 -139 19
c-79 0 -105 -8 -105 -85c0 -48 15 -61 55 -79l129 -58c72 -32 92 -72 92 -156c0 -137 -85 -177 -198 -177zM212 659c-25 0 -35 6 -35 16c0 7 5 16 10 26l47 90c9 18 12 26 51 26c37 0 47 -6 47 -16c0 -9 -7 -20 -14 -31l-57 -88c-10 -15 -15 -23 -49 -23z" />
    <glyph glyph-name="sacute" unicode="&#x15b;" horiz-adv-x="429" 
d="M199 -10c-45 0 -95 7 -130 18c-19 6 -24 13 -24 38c0 27 5 34 13 34c16 0 67 -18 134 -18c81 0 109 26 109 79c0 31 -12 44 -38 55l-135 57c-40 17 -70 49 -70 118c0 105 75 130 156 130c45 0 96 -7 134 -17c19 -5 24 -11 24 -40c0 -30 -8 -32 -16 -32
c-13 0 -70 19 -131 19c-65 0 -83 -19 -83 -60c0 -31 7 -46 38 -59l131 -54c54 -22 73 -55 73 -113c0 -113 -74 -155 -185 -155zM192 539c-25 0 -35 6 -35 16c0 7 5 16 10 26l47 90c9 18 12 26 51 26c37 0 47 -6 47 -16c0 -9 -7 -20 -14 -31l-57 -88c-10 -15 -15 -23 -49 -23
z" />
    <glyph glyph-name="Scircumflex" unicode="&#x15c;" horiz-adv-x="459" 
d="M217 -9c-51 0 -109 8 -148 19c-17 5 -26 12 -26 41s5 33 17 33c18 0 67 -18 143 -18c92 0 131 26 131 96c0 52 -10 74 -50 92l-129 58c-71 32 -98 61 -98 150c0 140 80 158 168 158c48 0 111 -7 152 -19c15 -4 23 -11 23 -40c0 -28 -5 -34 -17 -34c-13 0 -67 19 -139 19
c-79 0 -105 -8 -105 -85c0 -48 15 -61 55 -79l129 -58c72 -32 92 -72 92 -156c0 -137 -85 -177 -198 -177zM240 755h-6l-48 -76c-10 -16 -18 -20 -46 -20c-25 0 -32 6 -32 16c0 6 3 12 11 25l59 98c8 13 13 19 42 19h34c29 0 34 -6 42 -19l59 -98c8 -13 11 -19 11 -25
c0 -10 -7 -16 -32 -16c-28 0 -36 4 -46 20z" />
    <glyph glyph-name="scircumflex" unicode="&#x15d;" horiz-adv-x="429" 
d="M199 -10c-45 0 -95 7 -130 18c-19 6 -24 13 -24 38c0 27 5 34 13 34c16 0 67 -18 134 -18c81 0 109 26 109 79c0 31 -12 44 -38 55l-135 57c-40 17 -70 49 -70 118c0 105 75 130 156 130c45 0 96 -7 134 -17c19 -5 24 -11 24 -40c0 -30 -8 -32 -16 -32
c-13 0 -70 19 -131 19c-65 0 -83 -19 -83 -60c0 -31 7 -46 38 -59l131 -54c54 -22 73 -55 73 -113c0 -113 -74 -155 -185 -155zM216 635h-6l-48 -76c-10 -16 -18 -20 -46 -20c-25 0 -32 6 -32 16c0 6 3 12 11 25l59 98c8 13 13 19 42 19h34c29 0 34 -6 42 -19l59 -98
c8 -13 11 -19 11 -25c0 -10 -7 -16 -32 -16c-28 0 -36 4 -46 20z" />
    <glyph glyph-name="Scedilla" unicode="&#x15e;" horiz-adv-x="459" 
d="M233 -206c-21 0 -36 2 -52 5c-18 4 -26 8 -26 32c0 26 5 31 18 31c10 0 22 -3 47 -3c16 0 27 1 27 17c0 14 -8 16 -28 28c-22 13 -31 25 -31 56v32c-43 2 -87 9 -119 18c-17 5 -26 12 -26 41s5 33 17 33c18 0 67 -18 143 -18c92 0 131 26 131 96c0 52 -10 74 -50 92
l-129 58c-71 32 -98 61 -98 150c0 140 80 158 168 158c48 0 111 -7 152 -19c15 -4 23 -11 23 -40c0 -28 -5 -34 -17 -34c-13 0 -67 19 -139 19c-79 0 -105 -8 -105 -85c0 -48 15 -61 55 -79l129 -58c72 -32 92 -72 92 -156c0 -124 -70 -169 -167 -176v-18
c0 -12 1 -17 15 -26c46 -27 58 -38 58 -82c0 -51 -32 -72 -88 -72z" />
    <glyph glyph-name="scedilla" unicode="&#x15f;" horiz-adv-x="429" 
d="M218 -206c-21 0 -36 2 -52 5c-18 4 -26 8 -26 32c0 26 5 31 18 31c10 0 22 -3 47 -3c16 0 27 1 27 17c0 14 -8 16 -28 28c-22 13 -31 25 -31 56v31c-38 2 -76 8 -104 17c-19 6 -24 13 -24 38c0 27 5 34 13 34c16 0 67 -18 134 -18c81 0 109 26 109 79c0 31 -12 44 -38 55
l-135 57c-40 17 -70 49 -70 118c0 105 75 130 156 130c45 0 96 -7 134 -17c19 -5 24 -11 24 -40c0 -30 -8 -32 -16 -32c-13 0 -70 19 -131 19c-65 0 -83 -19 -83 -60c0 -31 7 -46 38 -59l131 -54c54 -22 73 -55 73 -113c0 -101 -59 -145 -151 -153v-18c0 -12 1 -17 15 -26
c46 -27 58 -38 58 -82c0 -51 -32 -72 -88 -72z" />
    <glyph glyph-name="Scaron" unicode="&#x160;" horiz-adv-x="459" 
d="M217 -9c-51 0 -109 8 -148 19c-17 5 -26 12 -26 41s5 33 17 33c18 0 67 -18 143 -18c92 0 131 26 131 96c0 52 -10 74 -50 92l-129 58c-71 32 -98 61 -98 150c0 140 80 158 168 158c48 0 111 -7 152 -19c15 -4 23 -11 23 -40c0 -28 -5 -34 -17 -34c-13 0 -67 19 -139 19
c-79 0 -105 -8 -105 -85c0 -48 15 -61 55 -79l129 -58c72 -32 92 -72 92 -156c0 -137 -85 -177 -198 -177zM112 801c0 10 8 16 32 16c28 0 36 -3 47 -20l48 -76h5l48 76c10 16 19 20 47 20c24 0 32 -6 32 -16c0 -6 -4 -12 -11 -25l-59 -98c-8 -13 -14 -19 -43 -19h-33
c-29 0 -35 6 -43 19l-59 98c-7 13 -11 19 -11 25z" />
    <glyph glyph-name="scaron" unicode="&#x161;" horiz-adv-x="429" 
d="M199 -10c-45 0 -95 7 -130 18c-19 6 -24 13 -24 38c0 27 5 34 13 34c16 0 67 -18 134 -18c81 0 109 26 109 79c0 31 -12 44 -38 55l-135 57c-40 17 -70 49 -70 118c0 105 75 130 156 130c45 0 96 -7 134 -17c19 -5 24 -11 24 -40c0 -30 -8 -32 -16 -32
c-13 0 -70 19 -131 19c-65 0 -83 -19 -83 -60c0 -31 7 -46 38 -59l131 -54c54 -22 73 -55 73 -113c0 -113 -74 -155 -185 -155zM84 681c0 10 8 16 32 16c28 0 36 -3 47 -20l48 -76h5l48 76c10 16 19 20 47 20c24 0 32 -6 32 -16c0 -6 -4 -12 -11 -25l-59 -98
c-8 -13 -14 -19 -43 -19h-33c-29 0 -35 6 -43 19l-59 98c-7 13 -11 19 -11 25z" />
    <glyph glyph-name="Tcommaaccent" unicode="&#x162;" horiz-adv-x="429" 
d="M214 0c-33 0 -41 5 -41 27v513h-138c-19 0 -25 7 -25 38s6 37 25 37h358c19 0 26 -6 26 -37s-7 -38 -26 -38h-137v-513c0 -22 -8 -27 -42 -27zM190 -230c-22 0 -27 5 -27 16c0 20 11 66 11 135c0 28 6 34 43 34c34 0 42 -6 42 -27c0 -31 -3 -55 -9 -74l-20 -63
c-7 -15 -13 -21 -40 -21z" />
    <glyph glyph-name="tcommaaccent" unicode="&#x163;" horiz-adv-x="317" 
d="M202 -10c-76 0 -103 36 -103 123v310h-52c-17 0 -22 7 -22 33c0 27 5 34 22 34h52v76c0 23 9 27 41 27c33 0 42 -4 42 -27v-76h89c17 0 22 -7 22 -34c0 -26 -5 -33 -22 -33h-89v-293c0 -60 6 -67 42 -67c27 0 46 6 56 6c12 0 17 -5 17 -32c0 -25 -8 -30 -24 -36
c-18 -6 -46 -11 -71 -11zM164 -230c-22 0 -27 5 -27 16c0 20 11 66 11 135c0 28 6 34 43 34c34 0 42 -6 42 -27c0 -31 -3 -55 -9 -74l-20 -63c-7 -15 -13 -21 -40 -21z" />
    <glyph glyph-name="Tcaron" unicode="&#x164;" horiz-adv-x="429" 
d="M214 0c-33 0 -41 5 -41 27v513h-138c-19 0 -25 7 -25 38s6 37 25 37h358c19 0 26 -6 26 -37s-7 -38 -26 -38h-137v-513c0 -22 -8 -27 -42 -27zM85 801c0 10 8 16 32 16c28 0 36 -3 47 -20l48 -76h5l48 76c10 16 19 20 47 20c24 0 32 -6 32 -16c0 -6 -4 -12 -11 -25
l-59 -98c-8 -13 -14 -19 -43 -19h-33c-29 0 -35 6 -43 19l-59 98c-7 13 -11 19 -11 25z" />
    <glyph glyph-name="tcaron" unicode="&#x165;" horiz-adv-x="453" 
d="M381 653c37 0 43 -7 43 -31v-28c0 -25 -5 -50 -13 -78l-17 -59c-8 -23 -15 -28 -43 -28c-22 0 -26 5 -26 16c0 20 14 74 14 125v52c0 24 6 31 42 31zM202 -10c-76 0 -103 36 -103 123v310h-52c-17 0 -22 7 -22 33c0 27 5 34 22 34h52v76c0 23 9 27 41 27
c33 0 42 -4 42 -27v-76h89c17 0 22 -7 22 -34c0 -26 -5 -33 -22 -33h-89v-293c0 -60 6 -67 42 -67c27 0 46 6 56 6c12 0 17 -5 17 -32c0 -25 -8 -30 -24 -36c-18 -6 -46 -11 -71 -11z" />
    <glyph glyph-name="Tbar" unicode="&#x166;" horiz-adv-x="429" 
d="M214 0c-33 0 -41 5 -41 27v257h-118c-20 0 -25 6 -25 33s5 33 25 33h118v190h-138c-19 0 -25 7 -25 38s6 37 25 37h358c19 0 26 -6 26 -37s-7 -38 -26 -38h-137v-190h117c21 0 26 -6 26 -33s-5 -33 -26 -33h-117v-257c0 -22 -8 -27 -42 -27z" />
    <glyph glyph-name="tbar" unicode="&#x167;" horiz-adv-x="317" 
d="M202 -10c-76 0 -103 36 -103 123v102h-50c-16 0 -21 7 -21 34c0 28 5 34 21 34h50v140h-52c-17 0 -22 7 -22 33c0 27 5 34 22 34h52v76c0 23 9 27 41 27c33 0 42 -4 42 -27v-76h89c17 0 22 -7 22 -34c0 -26 -5 -33 -22 -33h-89v-140h87c17 0 22 -6 22 -34
c0 -27 -5 -34 -22 -34h-87v-85c0 -60 6 -67 42 -67c27 0 46 6 56 6c12 0 17 -5 17 -32c0 -25 -8 -30 -24 -36c-18 -6 -46 -11 -71 -11z" />
    <glyph glyph-name="Utilde" unicode="&#x168;" horiz-adv-x="521" 
d="M261 -9c-141 0 -199 50 -199 186v412c0 21 8 26 41 26s41 -5 41 -26v-415c0 -78 23 -108 117 -108c93 0 116 30 116 108v415c0 21 8 26 41 26c34 0 41 -5 41 -26v-412c0 -136 -58 -186 -198 -186zM130 711c0 24 7 30 24 41c9 6 33 18 59 18c42 0 70 -21 103 -21
c34 0 54 19 64 19s13 -4 13 -29c0 -24 -7 -31 -24 -42c-9 -5 -33 -17 -60 -17c-41 0 -69 20 -102 20c-34 0 -54 -18 -64 -18s-13 4 -13 29z" />
    <glyph glyph-name="utilde" unicode="&#x169;" horiz-adv-x="500" 
d="M195 -10c-107 0 -134 42 -134 129v346c0 23 8 26 41 26c32 0 41 -3 41 -26v-327c0 -59 15 -76 81 -76c96 0 128 49 128 169v234c0 23 8 26 41 26s41 -3 41 -26v-285c0 -95 23 -144 23 -160c0 -12 -5 -20 -38 -20c-30 0 -36 3 -41 23l-14 56c-27 -62 -81 -89 -169 -89z
M117 594c0 24 7 30 24 41c9 6 33 18 59 18c42 0 70 -21 103 -21c34 0 54 19 64 19s13 -4 13 -29c0 -24 -7 -31 -24 -42c-9 -5 -33 -17 -60 -17c-41 0 -69 20 -102 20c-34 0 -54 -18 -64 -18s-13 4 -13 29z" />
    <glyph glyph-name="Umacron" unicode="&#x16a;" horiz-adv-x="521" 
d="M261 -9c-141 0 -199 50 -199 186v412c0 21 8 26 41 26s41 -5 41 -26v-415c0 -78 23 -108 117 -108c93 0 116 30 116 108v415c0 21 8 26 41 26c34 0 41 -5 41 -26v-412c0 -136 -58 -186 -198 -186zM157 729c0 30 5 36 26 36h154c21 0 26 -6 26 -36s-5 -36 -26 -36h-154
c-21 0 -26 6 -26 36z" />
    <glyph glyph-name="umacron" unicode="&#x16b;" horiz-adv-x="500" 
d="M195 -10c-107 0 -134 42 -134 129v346c0 23 8 26 41 26c32 0 41 -3 41 -26v-327c0 -59 15 -76 81 -76c96 0 128 49 128 169v234c0 23 8 26 41 26s41 -3 41 -26v-285c0 -95 23 -144 23 -160c0 -12 -5 -20 -38 -20c-30 0 -36 3 -41 23l-14 56c-27 -62 -81 -89 -169 -89z
M145 609c0 30 5 36 26 36h154c21 0 26 -6 26 -36s-5 -36 -26 -36h-154c-21 0 -26 6 -26 36z" />
    <glyph glyph-name="Ubreve" unicode="&#x16c;" horiz-adv-x="521" 
d="M261 -9c-141 0 -199 50 -199 186v412c0 21 8 26 41 26s41 -5 41 -26v-415c0 -78 23 -108 117 -108c93 0 116 30 116 108v415c0 21 8 26 41 26c34 0 41 -5 41 -26v-412c0 -136 -58 -186 -198 -186zM260 673c-89 0 -107 27 -107 94c0 23 5 26 32 26s31 -3 32 -23
c1 -28 3 -35 43 -35c41 0 43 7 44 35c1 20 4 23 32 23c27 0 31 -3 31 -26c0 -67 -17 -94 -107 -94z" />
    <glyph glyph-name="ubreve" unicode="&#x16d;" horiz-adv-x="500" 
d="M195 -10c-107 0 -134 42 -134 129v346c0 23 8 26 41 26c32 0 41 -3 41 -26v-327c0 -59 15 -76 81 -76c96 0 128 49 128 169v234c0 23 8 26 41 26s41 -3 41 -26v-285c0 -95 23 -144 23 -160c0 -12 -5 -20 -38 -20c-30 0 -36 3 -41 23l-14 56c-27 -62 -81 -89 -169 -89z
M247 554c-89 0 -107 27 -107 94c0 23 5 26 32 26s31 -3 32 -23c1 -28 3 -35 43 -35c41 0 43 7 44 35c1 20 4 23 32 23c27 0 31 -3 31 -26c0 -67 -17 -94 -107 -94z" />
    <glyph glyph-name="Uring" unicode="&#x16e;" horiz-adv-x="521" 
d="M261 -9c-141 0 -199 50 -199 186v412c0 21 8 26 41 26s41 -5 41 -26v-415c0 -78 23 -108 117 -108c93 0 116 30 116 108v415c0 21 8 26 41 26c34 0 41 -5 41 -26v-412c0 -136 -58 -186 -198 -186zM260 727c41 0 45 8 45 36c0 27 -4 36 -45 36c-40 0 -43 -9 -43 -36
c0 -28 3 -36 43 -36zM260 672c-87 0 -106 25 -106 91s19 91 106 91c88 0 107 -25 107 -91s-19 -91 -107 -91z" />
    <glyph glyph-name="uring" unicode="&#x16f;" horiz-adv-x="500" 
d="M195 -10c-107 0 -134 42 -134 129v346c0 23 8 26 41 26c32 0 41 -3 41 -26v-327c0 -59 15 -76 81 -76c96 0 128 49 128 169v234c0 23 8 26 41 26s41 -3 41 -26v-285c0 -95 23 -144 23 -160c0 -12 -5 -20 -38 -20c-30 0 -36 3 -41 23l-14 56c-27 -62 -81 -89 -169 -89z
M247 608c41 0 45 8 45 36c0 27 -4 36 -45 36c-40 0 -43 -9 -43 -36c0 -28 3 -36 43 -36zM247 553c-87 0 -106 25 -106 91s19 91 106 91c88 0 107 -25 107 -91s-19 -91 -107 -91z" />
    <glyph glyph-name="Uhungarumlaut" unicode="&#x170;" horiz-adv-x="521" 
d="M261 -9c-141 0 -199 50 -199 186v412c0 21 8 26 41 26s41 -5 41 -26v-415c0 -78 23 -108 117 -108c93 0 116 30 116 108v415c0 21 8 26 41 26c34 0 41 -5 41 -26v-412c0 -136 -58 -186 -198 -186zM151 675c0 6 2 13 47 124c4 12 10 18 47 18c31 0 43 -1 43 -16
c0 -8 -2 -17 -60 -122c-7 -14 -12 -20 -46 -20c-26 0 -31 6 -31 16zM276 675c0 6 2 13 62 124c6 12 12 18 48 18c30 0 43 -2 43 -16c0 -8 -2 -16 -76 -122c-9 -14 -13 -20 -46 -20c-26 0 -31 6 -31 16z" />
    <glyph glyph-name="uhungarumlaut" unicode="&#x171;" horiz-adv-x="500" 
d="M195 -10c-107 0 -134 42 -134 129v346c0 23 8 26 41 26c32 0 41 -3 41 -26v-327c0 -59 15 -76 81 -76c96 0 128 49 128 169v234c0 23 8 26 41 26s41 -3 41 -26v-285c0 -95 23 -144 23 -160c0 -12 -5 -20 -38 -20c-30 0 -36 3 -41 23l-14 56c-27 -62 -81 -89 -169 -89z
M137 555c0 6 2 13 47 124c4 12 10 18 47 18c31 0 43 -1 43 -16c0 -8 -2 -17 -60 -122c-7 -14 -12 -20 -46 -20c-26 0 -31 6 -31 16zM262 555c0 6 2 13 62 124c6 12 12 18 48 18c30 0 43 -2 43 -16c0 -8 -2 -16 -76 -122c-9 -14 -13 -20 -46 -20c-26 0 -31 6 -31 16z" />
    <glyph glyph-name="Uogonek" unicode="&#x172;" horiz-adv-x="521" 
d="M352 -7c-70 -34 -82 -72 -82 -95c0 -18 4 -23 19 -23c17 0 21 3 31 3c12 0 17 -5 17 -30c0 -24 -7 -29 -26 -34c-15 -4 -26 -7 -49 -7c-47 0 -70 20 -70 71c0 41 18 79 64 113c-138 1 -194 51 -194 186v412c0 21 8 26 41 26s41 -5 41 -26v-415c0 -78 23 -108 117 -108
c93 0 116 30 116 108v415c0 21 8 26 41 26c34 0 41 -5 41 -26v-412c0 -88 -19 -142 -107 -184z" />
    <glyph glyph-name="uogonek" unicode="&#x173;" horiz-adv-x="500" 
d="M382 -193c-47 0 -70 20 -70 71c0 44 22 75 75 127c-1 1 -3 6 -4 10l-20 64c-27 -62 -80 -89 -168 -89c-107 0 -134 42 -134 129v346c0 23 8 26 41 26c32 0 41 -3 41 -26v-327c0 -59 15 -76 81 -76c96 0 128 49 128 169v234c0 23 8 26 41 26s41 -3 41 -26v-285
c0 -95 23 -144 23 -160c0 -11 -3 -20 -29 -51c-29 -33 -38 -51 -38 -71c0 -18 4 -23 19 -23c17 0 21 3 31 3c12 0 17 -5 17 -30c0 -24 -7 -29 -26 -34c-15 -4 -26 -7 -49 -7z" />
    <glyph glyph-name="Wcircumflex" unicode="&#x174;" horiz-adv-x="795" 
d="M212 0c-50 0 -66 4 -72 33l-120 538c-1 8 -3 17 -3 24c0 15 8 20 40 20c35 0 43 -4 47 -22l106 -516h12l113 500c4 24 22 28 63 28c40 0 58 -4 62 -28l113 -500h12l106 516c4 18 12 22 47 22c32 0 40 -5 40 -20c0 -7 -2 -16 -3 -24l-120 -538c-6 -29 -22 -33 -72 -33
c-49 0 -65 5 -72 35l-108 465h-10l-109 -465c-7 -30 -23 -35 -72 -35zM400 755h-6l-48 -76c-10 -16 -18 -20 -46 -20c-25 0 -32 6 -32 16c0 6 3 12 11 25l59 98c8 13 13 19 42 19h34c29 0 34 -6 42 -19l59 -98c8 -13 11 -19 11 -25c0 -10 -7 -16 -32 -16c-28 0 -36 4 -46 20
z" />
    <glyph glyph-name="wcircumflex" unicode="&#x175;" horiz-adv-x="699" 
d="M189 0c-45 0 -61 5 -67 31l-92 400c-3 15 -5 29 -5 37c0 17 5 23 40 23c37 0 44 -3 49 -28l79 -389h11l87 374c6 26 17 33 59 33c41 0 52 -7 58 -33l87 -374h11l79 389c5 25 12 28 49 28c35 0 40 -6 40 -23c0 -8 -2 -22 -5 -37l-92 -400c-6 -26 -22 -31 -67 -31
c-50 0 -71 5 -77 31l-80 338h-7l-80 -338c-6 -26 -27 -31 -77 -31zM352 635h-6l-48 -76c-10 -16 -18 -20 -46 -20c-25 0 -32 6 -32 16c0 6 3 12 11 25l59 98c8 13 13 19 42 19h34c29 0 34 -6 42 -19l59 -98c8 -13 11 -19 11 -25c0 -10 -7 -16 -32 -16c-28 0 -36 4 -46 20z
" />
    <glyph glyph-name="Ycircumflex" unicode="&#x176;" horiz-adv-x="455" 
d="M227 0c-33 0 -41 5 -41 27v209l-158 328c-8 17 -11 25 -11 32c0 12 8 19 38 19c38 0 47 -3 54 -22l116 -268h5l116 268c7 19 15 22 53 22c31 0 39 -7 39 -19c0 -6 -3 -15 -11 -32l-158 -328v-209c0 -22 -8 -27 -42 -27zM232 755h-6l-48 -76c-10 -16 -18 -20 -46 -20
c-25 0 -32 6 -32 16c0 6 3 12 11 25l59 98c8 13 13 19 42 19h34c29 0 34 -6 42 -19l59 -98c8 -13 11 -19 11 -25c0 -10 -7 -16 -32 -16c-28 0 -36 4 -46 20z" />
    <glyph glyph-name="ycircumflex" unicode="&#x177;" horiz-adv-x="454" 
d="M25 469c0 14 4 22 42 22c32 0 40 -2 45 -20l111 -399h8l111 399c5 18 13 20 44 20c37 0 44 -7 44 -21c0 -6 -1 -19 -11 -50l-145 -466c-33 -106 -53 -147 -141 -147c-32 0 -61 4 -81 11c-16 5 -24 11 -24 35c0 27 4 33 17 33c11 0 34 -7 79 -7s57 12 71 62l16 59
c-37 1 -49 15 -59 48l-112 357c-14 46 -15 57 -15 64zM231 635h-6l-48 -76c-10 -16 -18 -20 -46 -20c-25 0 -32 6 -32 16c0 6 3 12 11 25l59 98c8 13 13 19 42 19h34c29 0 34 -6 42 -19l59 -98c8 -13 11 -19 11 -25c0 -10 -7 -16 -32 -16c-28 0 -36 4 -46 20z" />
    <glyph glyph-name="Ydieresis" unicode="&#x178;" horiz-adv-x="455" 
d="M227 0c-33 0 -41 5 -41 27v209l-158 328c-8 17 -11 25 -11 32c0 12 8 19 38 19c38 0 47 -3 54 -22l116 -268h5l116 268c7 19 15 22 53 22c31 0 39 -7 39 -19c0 -6 -3 -15 -11 -32l-158 -328v-209c0 -22 -8 -27 -42 -27zM155 691c-37 0 -44 5 -44 31v21c0 26 7 32 44 32
s44 -6 44 -32v-21c0 -26 -7 -31 -44 -31zM302 691c-38 0 -45 5 -45 31v21c0 26 7 32 45 32c37 0 44 -6 44 -32v-21c0 -26 -7 -31 -44 -31z" />
    <glyph glyph-name="Zacute" unicode="&#x179;" horiz-adv-x="408" 
d="M292 540h-229c-19 0 -26 7 -26 38s7 37 26 37h300c20 0 25 -7 25 -36c0 -20 -3 -30 -18 -57l-256 -447h250c19 0 25 -7 25 -38c0 -30 -6 -37 -25 -37h-321c-21 0 -26 8 -26 37c0 19 4 30 20 58zM190 659c-25 0 -35 6 -35 16c0 7 5 16 10 26l47 90c9 18 12 26 51 26
c37 0 47 -6 47 -16c0 -9 -7 -20 -14 -31l-57 -88c-10 -15 -15 -23 -49 -23z" />
    <glyph glyph-name="zacute" unicode="&#x17a;" horiz-adv-x="396" 
d="M366 36c0 -25 -5 -36 -22 -36h-293c-18 0 -23 8 -23 34c0 27 4 40 20 63l228 322h-205c-18 0 -23 11 -23 36c0 26 5 36 23 36h273c17 0 22 -8 22 -33c0 -24 -3 -40 -17 -60l-231 -326h226c17 0 22 -11 22 -36zM183 539c-25 0 -35 6 -35 16c0 7 5 16 10 26l47 90
c9 18 12 26 51 26c37 0 47 -6 47 -16c0 -9 -7 -20 -14 -31l-57 -88c-10 -15 -15 -23 -49 -23z" />
    <glyph glyph-name="Zdotaccent" unicode="&#x17b;" horiz-adv-x="408" 
d="M292 540h-229c-19 0 -26 7 -26 38s7 37 26 37h300c20 0 25 -7 25 -36c0 -20 -3 -30 -18 -57l-256 -447h250c19 0 25 -7 25 -38c0 -30 -6 -37 -25 -37h-321c-21 0 -26 8 -26 37c0 19 4 30 20 58zM211 691c-39 0 -46 5 -46 31v21c0 26 7 32 46 32c40 0 47 -6 47 -32v-21
c0 -26 -7 -31 -47 -31z" />
    <glyph glyph-name="zdotaccent" unicode="&#x17c;" horiz-adv-x="396" 
d="M366 36c0 -25 -5 -36 -22 -36h-293c-18 0 -23 8 -23 34c0 27 4 40 20 63l228 322h-205c-18 0 -23 11 -23 36c0 26 5 36 23 36h273c17 0 22 -8 22 -33c0 -24 -3 -40 -17 -60l-231 -326h226c17 0 22 -11 22 -36zM204 569c-39 0 -46 5 -46 31v21c0 26 7 32 46 32
c40 0 47 -6 47 -32v-21c0 -26 -7 -31 -47 -31z" />
    <glyph glyph-name="Zcaron" unicode="&#x17d;" horiz-adv-x="408" 
d="M292 540h-229c-19 0 -26 7 -26 38s7 37 26 37h300c20 0 25 -7 25 -36c0 -20 -3 -30 -18 -57l-256 -447h250c19 0 25 -7 25 -38c0 -30 -6 -37 -25 -37h-321c-21 0 -26 8 -26 37c0 19 4 30 20 58zM82 801c0 10 8 16 32 16c28 0 36 -3 47 -20l48 -76h5l48 76
c10 16 19 20 47 20c24 0 32 -6 32 -16c0 -6 -4 -12 -11 -25l-59 -98c-8 -13 -14 -19 -43 -19h-33c-29 0 -35 6 -43 19l-59 98c-7 13 -11 19 -11 25z" />
    <glyph glyph-name="zcaron" unicode="&#x17e;" horiz-adv-x="396" 
d="M366 36c0 -25 -5 -36 -22 -36h-293c-18 0 -23 8 -23 34c0 27 4 40 20 63l228 322h-205c-18 0 -23 11 -23 36c0 26 5 36 23 36h273c17 0 22 -8 22 -33c0 -24 -3 -40 -17 -60l-231 -326h226c17 0 22 -11 22 -36zM75 681c0 10 8 16 32 16c28 0 36 -3 47 -20l48 -76h5l48 76
c10 16 19 20 47 20c24 0 32 -6 32 -16c0 -6 -4 -12 -11 -25l-59 -98c-8 -13 -14 -19 -43 -19h-33c-29 0 -35 6 -43 19l-59 98c-7 13 -11 19 -11 25z" />
    <glyph glyph-name="florin" unicode="&#x192;" 
d="M116 393c0 26 5 33 22 33h63l9 74c10 88 34 120 111 120c24 0 51 -4 68 -8c18 -5 25 -8 25 -33s-5 -33 -17 -33c-10 0 -31 5 -60 5c-36 0 -39 -7 -47 -69l-7 -56h67c18 0 23 -7 23 -33s-5 -33 -23 -33h-74l-28 -249c-10 -88 -35 -121 -112 -121c-24 0 -48 4 -66 9
s-24 8 -24 32c0 26 5 33 16 33s29 -5 58 -5c36 0 40 7 47 69l27 232h-56c-17 0 -22 7 -22 33z" />
    <glyph glyph-name="AEacute" unicode="&#x1fc;" horiz-adv-x="723" 
d="M57 0c-32 0 -40 5 -40 19c0 6 1 13 5 26l159 534c10 33 21 36 77 36h400c19 0 25 -6 25 -37s-6 -38 -25 -38h-243v-179h187c21 0 26 -5 26 -36s-5 -37 -26 -37h-187v-213h253c19 0 25 -7 25 -38c0 -30 -6 -37 -25 -37h-305c-25 0 -31 5 -31 25v159h-183l-46 -162
c-5 -17 -11 -22 -46 -22zM252 543l-84 -293h164v293h-80zM387 659c-25 0 -35 6 -35 16c0 7 5 16 10 26l47 90c9 18 12 26 51 26c37 0 47 -6 47 -16c0 -9 -7 -20 -14 -31l-57 -88c-10 -15 -15 -23 -49 -23z" />
    <glyph glyph-name="aeacute" unicode="&#x1fd;" horiz-adv-x="745" 
d="M513 -10c-88 0 -149 8 -169 109c-28 -75 -96 -109 -173 -109c-88 0 -129 39 -129 141s46 142 181 142h108v77c0 71 -26 80 -94 80c-77 0 -131 -19 -150 -19c-11 0 -16 9 -16 33c0 25 6 33 21 37c35 11 99 20 154 20c70 0 115 -9 140 -43c33 35 81 43 144 43
c153 0 170 -76 170 -233c0 -28 -6 -42 -36 -42h-251c2 -154 26 -164 106 -164c97 0 146 21 160 21c9 0 14 -6 14 -33c0 -26 -5 -32 -24 -39c-33 -12 -106 -21 -156 -21zM195 59c72 0 136 43 136 123v36l-112 -3c-78 -2 -97 -18 -97 -76c0 -70 22 -80 73 -80zM523 431
c-84 0 -107 -17 -110 -148h207c0 102 -2 148 -97 148zM376 539c-25 0 -35 6 -35 16c0 7 5 16 10 26l47 90c9 18 12 26 51 26c37 0 47 -6 47 -16c0 -9 -7 -20 -14 -31l-57 -88c-10 -15 -15 -23 -49 -23z" />
    <glyph glyph-name="Oslashacute" unicode="&#x1fe;" horiz-adv-x="524" 
d="M239 659c-25 0 -35 6 -35 16c0 7 5 16 10 26l47 90c9 18 12 26 51 26c37 0 47 -6 47 -16c0 -9 -7 -20 -14 -31l-57 -88c-10 -15 -15 -23 -49 -23zM262 -9c-145 0 -214 23 -214 285v57c0 257 51 287 214 287s214 -30 214 -287v-57c0 -262 -68 -285 -214 -285zM131 330
c0 -91 1 -125 4 -153l241 325c-17 39 -51 46 -114 46c-114 0 -131 -22 -131 -218zM262 63c107 0 132 23 132 218c0 86 -1 116 -3 142l-235 -320c20 -34 52 -40 106 -40z" />
    <glyph glyph-name="oslashacute" unicode="&#x1ff;" horiz-adv-x="497" 
d="M227 539c-25 0 -35 6 -35 16c0 7 5 16 10 26l47 90c9 18 12 26 51 26c37 0 47 -6 47 -16c0 -9 -7 -20 -14 -31l-57 -88c-10 -15 -15 -23 -49 -23zM241 -10c-146 0 -189 41 -189 251c0 207 57 260 205 260c145 0 188 -40 188 -250c0 -206 -56 -261 -204 -261zM243 61
c98 0 118 33 118 181c0 43 -1 76 -4 102l-200 -254c16 -23 42 -29 86 -29zM136 251c0 -43 0 -75 3 -102l199 255c-15 21 -42 27 -84 27c-98 0 -118 -32 -118 -180z" />
    <glyph glyph-name="Scommaaccent" unicode="&#x218;" horiz-adv-x="459" 
d="M217 -9c-51 0 -109 8 -148 19c-17 5 -26 12 -26 41s5 33 17 33c18 0 67 -18 143 -18c92 0 131 26 131 96c0 52 -10 74 -50 92l-129 58c-71 32 -98 61 -98 150c0 140 80 158 168 158c48 0 111 -7 152 -19c15 -4 23 -11 23 -40c0 -28 -5 -34 -17 -34c-13 0 -67 19 -139 19
c-79 0 -105 -8 -105 -85c0 -48 15 -61 55 -79l129 -58c72 -32 92 -72 92 -156c0 -137 -85 -177 -198 -177zM215 -230c-22 0 -27 5 -27 16c0 20 11 66 11 135c0 28 6 34 43 34c34 0 42 -6 42 -27c0 -31 -3 -55 -9 -74l-20 -63c-7 -15 -13 -21 -40 -21z" />
    <glyph glyph-name="scommaaccent" unicode="&#x219;" horiz-adv-x="429" 
d="M199 -10c-45 0 -95 7 -130 18c-19 6 -24 13 -24 38c0 27 5 34 13 34c16 0 67 -18 134 -18c81 0 109 26 109 79c0 31 -12 44 -38 55l-135 57c-40 17 -70 49 -70 118c0 105 75 130 156 130c45 0 96 -7 134 -17c19 -5 24 -11 24 -40c0 -30 -8 -32 -16 -32
c-13 0 -70 19 -131 19c-65 0 -83 -19 -83 -60c0 -31 7 -46 38 -59l131 -54c54 -22 73 -55 73 -113c0 -113 -74 -155 -185 -155zM193 -230c-22 0 -27 5 -27 16c0 20 11 66 11 135c0 28 6 34 43 34c34 0 42 -6 42 -27c0 -31 -3 -55 -9 -74l-20 -63c-7 -15 -13 -21 -40 -21z
" />
    <glyph glyph-name="dotlessj" unicode="&#x237;" horiz-adv-x="208" 
d="M102 491c32 0 41 -3 41 -26v-534c0 -88 -30 -124 -105 -124c-25 0 -51 5 -68 10c-19 5 -26 10 -26 35c0 29 5 32 16 32s32 -5 57 -5c36 0 44 7 44 69v517c0 23 8 26 41 26z" />
    <glyph glyph-name="circumflex" unicode="&#x2c6;" horiz-adv-x="311" 
d="M166 635h-6l-48 -76c-10 -16 -18 -20 -46 -20c-25 0 -32 6 -32 16c0 6 3 12 11 25l59 98c8 13 13 19 42 19h34c29 0 34 -6 42 -19l59 -98c8 -13 11 -19 11 -25c0 -10 -7 -16 -32 -16c-28 0 -36 4 -46 20z" />
    <glyph glyph-name="caron" unicode="&#x2c7;" horiz-adv-x="311" 
d="M26 681c0 10 8 16 32 16c28 0 36 -3 47 -20l48 -76h5l48 76c10 16 19 20 47 20c24 0 32 -6 32 -16c0 -6 -4 -12 -11 -25l-59 -98c-8 -13 -14 -19 -43 -19h-33c-29 0 -35 6 -43 19l-59 98c-7 13 -11 19 -11 25z" />
    <glyph glyph-name="breve" unicode="&#x2d8;" horiz-adv-x="269" 
d="M134 554c-89 0 -107 27 -107 94c0 23 5 26 32 26s31 -3 32 -23c1 -28 3 -35 43 -35c41 0 43 7 44 35c1 20 4 23 32 23c27 0 31 -3 31 -26c0 -67 -17 -94 -107 -94z" />
    <glyph glyph-name="dotaccent" unicode="&#x2d9;" horiz-adv-x="147" 
d="M72 569c-39 0 -46 5 -46 31v21c0 26 7 32 46 32c40 0 47 -6 47 -32v-21c0 -26 -7 -31 -47 -31z" />
    <glyph glyph-name="ring" unicode="&#x2da;" horiz-adv-x="267" 
d="M133 608c41 0 45 8 45 36c0 27 -4 36 -45 36c-40 0 -43 -9 -43 -36c0 -28 3 -36 43 -36zM133 553c-87 0 -106 25 -106 91s19 91 106 91c88 0 107 -25 107 -91s-19 -91 -107 -91z" />
    <glyph glyph-name="ogonek" unicode="&#x2db;" horiz-adv-x="199" 
d="M97 -193c-47 0 -70 20 -70 71c0 58 39 97 113 172h32c0 -29 -6 -41 -32 -78c-24 -34 -35 -54 -35 -74c0 -18 4 -23 19 -23c17 0 21 3 31 3c12 0 17 -5 17 -30c0 -24 -8 -29 -26 -34c-15 -4 -26 -7 -49 -7z" />
    <glyph glyph-name="tilde" unicode="&#x2dc;" horiz-adv-x="317" 
d="M27 594c0 24 7 30 24 41c9 6 33 18 59 18c42 0 70 -21 103 -21c34 0 54 19 64 19s13 -4 13 -29c0 -24 -7 -31 -24 -42c-9 -5 -33 -17 -60 -17c-41 0 -69 20 -102 20c-34 0 -54 -18 -64 -18s-13 4 -13 29z" />
    <glyph glyph-name="hungarumlaut" unicode="&#x2dd;" horiz-adv-x="332" 
d="M27 555c0 6 2 13 47 124c4 12 10 18 47 18c31 0 43 -1 43 -16c0 -8 -2 -17 -60 -122c-7 -14 -12 -20 -46 -20c-26 0 -31 6 -31 16zM152 555c0 6 2 13 62 124c6 12 12 18 48 18c30 0 43 -2 43 -16c0 -8 -2 -16 -76 -122c-9 -14 -13 -20 -46 -20c-26 0 -31 6 -31 16z" />
    <glyph glyph-name="commaaccent" unicode="&#x326;" horiz-adv-x="153" 
d="M56 -230c-22 0 -27 5 -27 16c0 20 11 66 11 135c0 28 6 34 43 34c34 0 42 -6 42 -27c0 -31 -3 -55 -9 -74l-20 -63c-7 -15 -13 -21 -40 -21z" />
    <glyph glyph-name="afii10023" unicode="&#x401;" horiz-adv-x="455" 
d="M425 37c0 -30 -6 -37 -25 -37h-308c-24 0 -30 5 -30 25v565c0 20 6 25 30 25h298c19 0 25 -6 25 -37s-6 -38 -25 -38h-246v-179h191c20 0 25 -5 25 -36s-5 -37 -25 -37h-191v-213h256c19 0 25 -7 25 -38zM158 693c-37 0 -44 5 -44 31v21c0 26 7 32 44 32s44 -6 44 -32
v-21c0 -26 -7 -31 -44 -31zM305 693c-38 0 -45 5 -45 31v21c0 26 7 32 45 32c37 0 44 -6 44 -32v-21c0 -26 -7 -31 -44 -31z" />
    <glyph glyph-name="afii10051" unicode="&#x402;" horiz-adv-x="579" 
d="M204 0c-32 0 -41 4 -41 27v513h-128c-19 0 -25 7 -25 38s6 37 25 37h341c19 0 25 -6 25 -37s-6 -38 -25 -38h-130v-151c25 52 70 74 141 74c105 0 130 -45 130 -131v-219c0 -85 -30 -118 -100 -118c-22 0 -45 3 -61 8c-19 5 -27 11 -27 36c0 29 5 33 17 33
c8 0 26 -5 50 -5c32 0 39 6 39 68v178c0 59 -14 78 -81 78c-75 0 -108 -46 -108 -156v-208c0 -23 -9 -27 -42 -27z" />
    <glyph glyph-name="afii10052" unicode="&#x403;" horiz-adv-x="403" 
d="M185 674c-25 0 -35 6 -35 16c0 7 5 16 10 26l47 90c9 18 12 26 51 26c37 0 47 -6 47 -16c0 -9 -7 -20 -14 -31l-57 -88c-10 -15 -15 -23 -49 -23zM103 0c-33 0 -41 5 -41 27v563c0 20 6 25 30 25h268c19 0 25 -6 25 -37s-6 -38 -25 -38h-216v-513c0 -22 -8 -27 -41 -27z
" />
    <glyph glyph-name="afii10053" unicode="&#x404;" horiz-adv-x="451" 
d="M360 320c0 -29 -5 -35 -25 -35h-207c0 -208 33 -220 131 -220c80 0 128 16 142 16c12 0 16 -5 16 -33c0 -29 -8 -35 -24 -39c-43 -11 -96 -18 -145 -18c-112 0 -200 16 -200 273v76c0 260 80 280 207 280c40 0 96 -6 138 -17c16 -4 24 -8 24 -37c0 -28 -5 -34 -16 -34
c-13 0 -60 15 -127 15c-114 0 -144 -14 -146 -192h207c20 0 25 -6 25 -35z" />
    <glyph glyph-name="afii10054" unicode="&#x405;" horiz-adv-x="459" 
d="M217 -9c-51 0 -109 8 -148 19c-17 5 -26 12 -26 41s5 33 17 33c18 0 67 -18 143 -18c92 0 131 26 131 96c0 52 -10 74 -50 92l-129 58c-71 32 -98 61 -98 150c0 140 80 158 168 158c48 0 111 -7 152 -19c15 -4 23 -11 23 -40c0 -28 -5 -34 -17 -34c-13 0 -67 19 -139 19
c-79 0 -105 -8 -105 -85c0 -48 15 -61 55 -79l129 -58c72 -32 92 -72 92 -156c0 -137 -85 -177 -198 -177z" />
    <glyph glyph-name="afii10055" unicode="&#x406;" horiz-adv-x="206" 
d="M103 0c-33 0 -41 5 -41 27v562c0 21 8 26 41 26s41 -5 41 -26v-562c0 -22 -8 -27 -41 -27z" />
    <glyph glyph-name="afii10056" unicode="&#x407;" horiz-adv-x="206" 
d="M103 0c-33 0 -41 5 -41 27v562c0 21 8 26 41 26s41 -5 41 -26v-562c0 -22 -8 -27 -41 -27zM30 689c-37 0 -44 5 -44 31v21c0 26 7 32 44 32s44 -6 44 -32v-21c0 -26 -7 -31 -44 -31zM177 689c-38 0 -45 5 -45 31v21c0 26 7 32 45 32c37 0 44 -6 44 -32v-21
c0 -26 -7 -31 -44 -31z" />
    <glyph glyph-name="afii10057" unicode="&#x408;" horiz-adv-x="335" 
d="M129 -9c-44 0 -76 7 -95 13c-17 5 -25 11 -25 39c0 29 4 31 16 31c14 0 46 -9 86 -9c63 0 80 18 80 90v434c0 21 8 26 41 26s41 -5 41 -26v-439c0 -115 -49 -159 -144 -159z" />
    <glyph glyph-name="afii10058" unicode="&#x409;" horiz-adv-x="846" 
d="M90 -9c-20 0 -37 2 -55 6s-25 11 -25 39c0 27 5 30 16 30c13 0 23 -3 40 -3c23 0 30 6 34 48l49 480c2 19 6 24 31 24h273c25 0 31 -5 31 -25v-237c45 6 87 9 148 9c142 0 168 -55 168 -187c0 -137 -36 -184 -205 -184c-66 0 -108 2 -160 8c-29 3 -34 11 -34 32v509h-177
l-49 -462c-6 -54 -22 -87 -85 -87zM599 293c-21 0 -68 -2 -115 -5v-222c27 -4 69 -5 114 -5c105 0 117 17 117 116c0 100 -21 116 -116 116z" />
    <glyph glyph-name="afii10059" unicode="&#x40a;" horiz-adv-x="819" 
d="M103 0c-33 0 -41 5 -41 27v562c0 21 8 26 41 26s41 -5 41 -26v-234h231v234c0 21 8 26 41 26c34 0 41 -5 41 -26v-236c45 5 87 9 149 9c141 0 168 -55 168 -187c0 -137 -37 -184 -205 -184c-66 0 -108 2 -161 8c-28 3 -33 11 -33 32v251h-231v-255c0 -22 -8 -27 -41 -27z
M572 293c-21 0 -67 -2 -115 -5v-222c28 -4 70 -5 115 -5c104 0 116 17 116 116c0 100 -20 116 -116 116z" />
    <glyph glyph-name="afii10060" unicode="&#x40b;" horiz-adv-x="579" 
d="M204 0c-32 0 -41 4 -41 27v513h-128c-19 0 -25 7 -25 38s6 37 25 37h341c19 0 25 -6 25 -37s-6 -38 -25 -38h-130v-151c25 52 70 74 141 74c105 0 130 -45 130 -131v-305c0 -23 -8 -27 -41 -27c-32 0 -41 4 -41 27v286c0 59 -14 78 -81 78c-75 0 -108 -46 -108 -156v-208
c0 -23 -9 -27 -42 -27z" />
    <glyph glyph-name="afii10061" unicode="&#x40c;" horiz-adv-x="458" 
d="M103 0c-33 0 -41 5 -41 27v562c0 21 8 26 41 26s41 -5 41 -26v-246h14l180 253c11 16 18 19 54 19c30 0 40 -5 40 -17c0 -9 -5 -18 -13 -29l-190 -255l200 -263c11 -15 14 -24 14 -32c0 -12 -6 -19 -41 -19c-30 0 -41 4 -52 19l-193 267h-13v-259c0 -22 -8 -27 -41 -27z
M200 674c-25 0 -35 6 -35 16c0 7 5 16 10 26l47 90c9 18 12 26 51 26c37 0 47 -6 47 -16c0 -9 -7 -20 -14 -31l-57 -88c-10 -15 -15 -23 -49 -23z" />
    <glyph glyph-name="afii10062" unicode="&#x40e;" horiz-adv-x="475" 
d="M238 689c-89 0 -107 27 -107 94c0 23 5 26 32 26s31 -3 32 -23c1 -28 3 -35 43 -35c41 0 43 7 44 35c1 20 4 23 32 23c27 0 31 -3 31 -26c0 -67 -17 -94 -107 -94zM17 598c0 12 9 17 41 17c34 0 41 -4 46 -20l131 -369h13l121 367c6 20 13 22 48 22c33 0 41 -6 41 -17
c0 -7 -5 -23 -12 -42l-172 -466c-21 -57 -50 -95 -125 -95c-31 0 -60 2 -83 8c-18 4 -26 11 -26 38c0 30 5 32 17 32c13 0 43 -7 79 -7c47 0 63 12 81 66l8 26h-7c-31 0 -41 13 -48 32l-142 369c-7 18 -11 32 -11 39z" />
    <glyph glyph-name="afii10145" unicode="&#x40f;" horiz-adv-x="517" 
d="M258 -109c-27 0 -29 3 -30 22l-4 87h-132c-24 0 -30 5 -30 25v564c0 21 8 26 41 26s41 -5 41 -26v-514h228v514c0 21 8 26 42 26c33 0 41 -5 41 -26v-564c0 -20 -6 -25 -31 -25h-131l-5 -87c-1 -19 -3 -22 -30 -22z" />
    <glyph glyph-name="afii10017" unicode="&#x410;" horiz-adv-x="517" 
d="M57 0c-32 0 -40 5 -40 19c0 6 1 13 5 26l159 534c10 33 21 36 77 36c57 0 68 -3 78 -36l158 -534c4 -13 5 -20 5 -26c0 -13 -7 -19 -39 -19c-35 0 -42 5 -47 22l-48 162h-216l-46 -162c-5 -17 -11 -22 -46 -22zM252 543l-84 -293h180l-83 293h-13z" />
    <glyph glyph-name="afii10018" unicode="&#x411;" horiz-adv-x="511" 
d="M257 -9c-66 0 -109 2 -162 8c-28 3 -33 11 -33 32v559c0 20 6 25 30 25h307c19 0 25 -6 25 -37s-6 -38 -25 -38h-255v-190c47 6 90 9 152 9c141 0 168 -54 168 -186c0 -137 -39 -182 -207 -182zM262 290c-21 0 -70 -2 -118 -5v-219c28 -4 71 -5 116 -5
c106 0 118 15 118 114c0 100 -19 115 -116 115z" />
    <glyph glyph-name="afii10019" unicode="&#x412;" horiz-adv-x="512" 
d="M257 -9c-66 0 -109 2 -162 8c-28 3 -33 11 -33 32v548c0 23 9 30 29 33c47 6 104 8 144 8c141 0 207 -10 207 -150c0 -78 -16 -125 -72 -144c68 -16 94 -61 94 -160c0 -130 -39 -175 -207 -175zM144 544v-189h97c97 0 115 15 115 107c0 77 -12 87 -113 87
c-41 0 -74 -2 -99 -5zM144 290v-224c28 -4 71 -5 116 -5c106 0 118 15 118 114c0 95 -19 115 -116 115h-118z" />
    <glyph glyph-name="afii10020" unicode="&#x413;" horiz-adv-x="403" 
d="M103 0c-33 0 -41 5 -41 27v563c0 20 6 25 30 25h268c19 0 25 -6 25 -37s-6 -38 -25 -38h-216v-513c0 -22 -8 -27 -41 -27z" />
    <glyph glyph-name="afii10021" unicode="&#x414;" horiz-adv-x="529" 
d="M48 -109c-24 0 -31 2 -31 20v134c0 26 8 30 31 30h19l52 516c2 19 6 24 31 24h278c25 0 30 -5 30 -25v-515h23c23 0 31 -4 31 -30v-134c0 -18 -7 -20 -31 -20c-27 0 -33 3 -36 20l-14 89h-333l-14 -89c-3 -17 -9 -20 -36 -20zM193 540l-47 -465h230v465h-183z" />
    <glyph glyph-name="afii10022" unicode="&#x415;" horiz-adv-x="455" 
d="M425 37c0 -30 -6 -37 -25 -37h-308c-24 0 -30 5 -30 25v565c0 20 6 25 30 25h298c19 0 25 -6 25 -37s-6 -38 -25 -38h-246v-179h191c20 0 25 -5 25 -36s-5 -37 -25 -37h-191v-213h256c19 0 25 -7 25 -38z" />
    <glyph glyph-name="afii10024" unicode="&#x416;" horiz-adv-x="680" 
d="M56 0c-34 0 -41 7 -41 19c0 8 4 17 15 32l184 263l-175 255c-8 11 -12 20 -12 29c0 12 10 17 39 17c36 0 44 -3 54 -19l166 -253h12v246c0 21 8 26 41 26c34 0 41 -5 41 -26v-246h14l165 253c11 16 18 19 54 19c30 0 40 -5 40 -17c0 -9 -4 -18 -12 -29l-176 -255
l185 -263c11 -15 15 -24 15 -32c0 -12 -7 -19 -42 -19c-30 0 -41 4 -51 19l-179 267h-13v-259c0 -22 -7 -27 -41 -27c-33 0 -41 5 -41 27v259h-11l-179 -267c-10 -15 -21 -19 -52 -19z" />
    <glyph glyph-name="afii10025" unicode="&#x417;" horiz-adv-x="445" 
d="M92 314c0 27 5 35 26 35h51c110 0 128 42 128 107c0 74 -16 91 -95 91c-73 0 -123 -13 -139 -13c-12 0 -18 4 -18 33c0 28 4 33 24 38c39 10 105 15 157 15c97 0 155 -28 155 -158c0 -81 -38 -132 -106 -145c90 -7 118 -58 118 -148c0 -126 -59 -178 -177 -178
c-53 0 -123 7 -163 17c-17 4 -26 11 -26 39c0 29 5 34 17 34c18 0 84 -16 156 -16c93 0 109 38 109 107c0 65 -14 107 -140 107h-51c-21 0 -26 8 -26 35z" />
    <glyph glyph-name="afii10026" unicode="&#x418;" horiz-adv-x="543" 
d="M440 0c-34 0 -41 5 -41 27v462h-10l-213 -463c-11 -24 -20 -26 -57 -26c-50 0 -57 5 -57 27v562c0 21 8 26 41 26s41 -5 41 -26v-462h10l211 462c11 24 20 26 58 26c50 0 58 -5 58 -26v-562c0 -22 -8 -27 -41 -27z" />
    <glyph glyph-name="afii10027" unicode="&#x419;" horiz-adv-x="543" 
d="M274 689c-89 0 -107 27 -107 94c0 23 5 26 32 26s31 -3 32 -23c1 -28 3 -35 43 -35c41 0 43 7 44 35c1 20 4 23 32 23c27 0 31 -3 31 -26c0 -67 -17 -94 -107 -94zM440 0c-34 0 -41 5 -41 27v462h-10l-213 -463c-11 -24 -20 -26 -57 -26c-50 0 -57 5 -57 27v562
c0 21 8 26 41 26s41 -5 41 -26v-462h10l211 462c11 24 20 26 58 26c50 0 58 -5 58 -26v-562c0 -22 -8 -27 -41 -27z" />
    <glyph glyph-name="afii10028" unicode="&#x41a;" horiz-adv-x="458" 
d="M103 0c-33 0 -41 5 -41 27v562c0 21 8 26 41 26s41 -5 41 -26v-246h14l180 253c11 16 18 19 54 19c30 0 40 -5 40 -17c0 -9 -5 -18 -13 -29l-190 -255l200 -263c11 -15 14 -24 14 -32c0 -12 -6 -19 -41 -19c-30 0 -41 4 -52 19l-193 267h-13v-259c0 -22 -8 -27 -41 -27z
" />
    <glyph glyph-name="afii10029" unicode="&#x41b;" horiz-adv-x="556" 
d="M453 0c-34 0 -42 5 -42 27v513h-180l-49 -462c-6 -54 -21 -87 -85 -87c-20 0 -37 2 -54 6c-18 4 -26 11 -26 39c0 27 5 30 17 30s22 -3 39 -3c23 0 30 6 34 48l49 480c2 19 6 24 31 24h276c25 0 31 -5 31 -25v-563c0 -22 -8 -27 -41 -27z" />
    <glyph glyph-name="afii10030" unicode="&#x41c;" horiz-adv-x="632" 
d="M103 0c-33 0 -41 5 -41 27v558c0 23 7 30 62 30c46 0 61 -3 73 -35l116 -316h6l116 316c12 32 27 35 74 35c54 0 61 -7 61 -30v-558c0 -22 -8 -27 -41 -27s-41 5 -41 27c0 154 0 322 1 477h-7l-117 -313c-10 -26 -19 -30 -49 -30c-29 0 -39 4 -49 30l-116 313h-8
c1 -155 1 -323 1 -477c0 -22 -8 -27 -41 -27z" />
    <glyph glyph-name="afii10031" unicode="&#x41d;" horiz-adv-x="519" 
d="M144 355h231v234c0 21 8 26 41 26c34 0 41 -5 41 -26v-562c0 -22 -7 -27 -41 -27c-33 0 -41 5 -41 27v255h-231v-255c0 -22 -8 -27 -41 -27s-41 5 -41 27v562c0 21 8 26 41 26s41 -5 41 -26v-234z" />
    <glyph glyph-name="afii10032" unicode="&#x41e;" horiz-adv-x="524" 
d="M262 63c107 0 132 23 132 218v49c0 196 -18 218 -132 218c-107 0 -131 -22 -131 -218v-49c0 -195 17 -218 131 -218zM262 -9c-160 0 -214 30 -214 285v57c0 265 66 287 214 287c163 0 214 -30 214 -287v-57c0 -262 -68 -285 -214 -285z" />
    <glyph glyph-name="afii10033" unicode="&#x41f;" horiz-adv-x="517" 
d="M103 0c-33 0 -41 5 -41 27v563c0 20 6 25 30 25h332c25 0 31 -5 31 -25v-563c0 -22 -8 -27 -41 -27c-34 0 -42 5 -42 27v513h-228v-513c0 -22 -8 -27 -41 -27z" />
    <glyph glyph-name="afii10034" unicode="&#x420;" horiz-adv-x="483" 
d="M103 0c-33 0 -41 5 -41 27v552c0 21 12 30 29 32c51 7 112 9 156 9c144 0 200 -21 200 -178c0 -152 -57 -206 -217 -206h-86v-209c0 -22 -8 -27 -41 -27zM144 544v-239h88c103 0 129 29 129 134c0 93 -21 110 -121 110c-34 0 -73 -3 -96 -5z" />
    <glyph glyph-name="afii10035" unicode="&#x421;" horiz-adv-x="451" 
d="M256 -9c-127 0 -208 16 -208 273v76c0 260 77 280 210 280c46 0 94 -7 135 -19c16 -4 24 -8 24 -39c0 -27 -5 -33 -16 -33c-13 0 -60 18 -127 18c-113 0 -143 -15 -143 -216v-50c0 -204 36 -216 143 -216c71 0 113 18 127 18c12 0 16 -5 16 -33c0 -30 -8 -35 -24 -40
c-41 -11 -92 -19 -137 -19z" />
    <glyph glyph-name="afii10036" unicode="&#x422;" horiz-adv-x="429" 
d="M214 0c-33 0 -41 5 -41 27v513h-138c-19 0 -25 7 -25 38s6 37 25 37h358c19 0 26 -6 26 -37s-7 -38 -26 -38h-137v-513c0 -22 -8 -27 -42 -27z" />
    <glyph glyph-name="afii10037" unicode="&#x423;" horiz-adv-x="475" 
d="M17 598c0 12 9 17 41 17c34 0 41 -4 46 -20l131 -369h13l121 367c6 20 13 22 48 22c33 0 41 -6 41 -17c0 -7 -5 -23 -12 -42l-172 -466c-21 -57 -50 -95 -125 -95c-31 0 -60 2 -83 8c-18 4 -26 11 -26 38c0 30 5 32 17 32c13 0 43 -7 79 -7c47 0 63 12 81 66l8 26h-7
c-31 0 -41 13 -48 32l-142 369c-7 18 -11 32 -11 39z" />
    <glyph glyph-name="afii10038" unicode="&#x424;" horiz-adv-x="618" 
d="M27 331c0 168 76 191 203 191h41v69c0 22 7 27 41 27c33 0 41 -5 41 -27v-69h41c127 0 202 -23 202 -191c0 -160 -59 -214 -202 -214h-41v-93c0 -22 -8 -27 -41 -27c-34 0 -41 5 -41 27v93h-41c-143 0 -203 54 -203 214zM111 331c0 -124 26 -144 119 -144h41v265h-41
c-93 0 -119 -16 -119 -121zM394 452h-41v-265h41c92 0 119 20 119 144c0 105 -27 121 -119 121z" />
    <glyph glyph-name="afii10039" unicode="&#x425;" horiz-adv-x="482" 
d="M63 0c-32 0 -41 7 -41 20c0 7 3 16 12 30l162 266l-152 248c-8 15 -12 24 -12 31c0 13 10 20 42 20c33 0 42 -3 52 -22l113 -198h4l112 198c10 19 20 22 53 22c32 0 41 -7 41 -20c0 -7 -3 -16 -12 -30l-153 -248l164 -266c9 -15 12 -24 12 -31c0 -13 -10 -20 -41 -20
c-33 0 -42 3 -52 22l-125 219h-4l-123 -219c-10 -19 -19 -22 -52 -22z" />
    <glyph glyph-name="afii10040" unicode="&#x426;" horiz-adv-x="533" 
d="M484 -109c-27 0 -34 3 -37 20l-13 89h-342c-24 0 -30 5 -30 25v564c0 21 8 26 41 26s41 -5 41 -26v-514h228v514c0 21 8 26 42 26c33 0 41 -5 41 -26v-514h25c26 0 36 -4 36 -30v-134c0 -18 -8 -20 -32 -20z" />
    <glyph glyph-name="afii10041" unicode="&#x427;" horiz-adv-x="481" 
d="M206 245c-117 0 -164 22 -164 150v194c0 21 8 26 41 26s41 -5 41 -26v-182c0 -79 19 -88 99 -88c29 0 76 2 114 6v264c0 21 8 26 41 26c34 0 41 -5 41 -26v-562c0 -22 -7 -27 -41 -27c-33 0 -41 5 -41 27v229c-39 -6 -88 -11 -131 -11z" />
    <glyph glyph-name="afii10042" unicode="&#x428;" horiz-adv-x="800" 
d="M103 615c33 0 41 -5 41 -26v-514h215v514c0 21 8 26 41 26s41 -5 41 -26v-514h214v514c0 21 8 26 42 26c33 0 41 -5 41 -26v-564c0 -20 -6 -25 -31 -25h-615c-24 0 -30 5 -30 25v564c0 21 8 26 41 26z" />
    <glyph glyph-name="afii10043" unicode="&#x429;" horiz-adv-x="816" 
d="M717 0h-625c-24 0 -30 5 -30 25v564c0 21 8 26 41 26s41 -5 41 -26v-514h215v514c0 21 8 26 41 26s41 -5 41 -26v-514h214v514c0 21 8 26 42 26c33 0 41 -5 41 -26v-514h25c27 0 36 -4 36 -30v-134c0 -18 -7 -20 -32 -20c-27 0 -34 2 -37 20z" />
    <glyph glyph-name="afii10044" unicode="&#x42a;" horiz-adv-x="545" 
d="M299 -9c-66 0 -109 2 -161 8c-29 3 -34 11 -34 32v509h-69c-19 0 -25 7 -25 38s6 37 25 37h111c33 0 41 -5 41 -26v-236c45 6 87 9 149 9c141 0 167 -55 167 -187c0 -137 -36 -184 -204 -184zM302 293c-21 0 -68 -2 -115 -5v-222c27 -4 69 -5 114 -5
c105 0 117 17 117 116c0 100 -20 116 -116 116z" />
    <glyph glyph-name="afii10045" unicode="&#x42b;" horiz-adv-x="706" 
d="M610 0c-33 0 -41 5 -41 27v562c0 21 8 26 41 26s41 -5 41 -26v-562c0 -22 -8 -27 -41 -27zM103 615c33 0 41 -5 41 -26v-236c45 5 87 9 149 9c141 0 168 -55 168 -187c0 -137 -37 -184 -205 -184c-66 0 -108 2 -161 8c-28 3 -33 11 -33 32v558c0 21 8 26 41 26zM259 293
c-21 0 -67 -2 -115 -5v-222c28 -4 69 -5 115 -5c104 0 116 17 116 116c0 100 -20 116 -116 116z" />
    <glyph glyph-name="afii10046" unicode="&#x42c;" horiz-adv-x="503" 
d="M103 615c33 0 41 -5 41 -26v-236c45 5 87 9 149 9c141 0 168 -55 168 -187c0 -137 -37 -184 -205 -184c-66 0 -108 2 -161 8c-28 3 -33 11 -33 32v558c0 21 8 26 41 26zM259 293c-21 0 -67 -2 -115 -5v-222c28 -4 69 -5 115 -5c104 0 116 17 116 116
c0 100 -20 116 -116 116z" />
    <glyph glyph-name="afii10047" unicode="&#x42d;" horiz-adv-x="454" 
d="M92 320c0 29 5 35 26 35h208c-2 178 -32 192 -146 192c-67 0 -114 -15 -127 -15c-11 0 -16 6 -16 34c0 29 8 33 24 37c42 11 98 17 138 17c127 0 207 -20 207 -280v-76c0 -257 -88 -273 -200 -273c-49 0 -102 7 -145 18c-16 4 -24 10 -24 39c0 28 4 33 16 33
c14 0 62 -16 142 -16c98 0 131 12 131 216v4h-208c-21 0 -26 6 -26 35z" />
    <glyph glyph-name="afii10048" unicode="&#x42e;" horiz-adv-x="754" 
d="M492 -9c-145 0 -214 23 -214 285v9h-134v-258c0 -22 -8 -27 -41 -27s-41 5 -41 27v562c0 21 8 26 41 26s41 -5 41 -26v-230h134c3 233 56 261 214 261c163 0 214 -30 214 -287v-57c0 -262 -69 -285 -214 -285zM492 63c107 0 132 23 132 218v49c0 196 -18 218 -132 218
s-132 -22 -132 -218v-49c0 -195 25 -218 132 -218z" />
    <glyph glyph-name="afii10049" unicode="&#x42f;" horiz-adv-x="501" 
d="M399 0c-33 0 -41 5 -41 27v234h-85c-15 0 -29 0 -43 1l-100 -241c-7 -17 -14 -21 -52 -21c-30 0 -37 7 -37 18c0 5 2 11 10 29l106 228c-73 23 -102 77 -102 177c0 148 56 168 201 168c43 0 104 -2 155 -9c17 -2 29 -11 29 -32v-552c0 -22 -8 -27 -41 -27zM141 449
c0 -100 27 -124 129 -124h88v219c-25 2 -62 5 -96 5c-100 0 -121 -18 -121 -100z" />
    <glyph glyph-name="afii10065" unicode="&#x430;" horiz-adv-x="486" 
d="M171 -10c-88 0 -129 39 -129 141s46 142 181 142h108v77c0 71 -26 80 -94 80c-77 0 -131 -19 -150 -19c-11 0 -16 9 -16 33c0 25 6 33 21 37c35 11 99 20 154 20c111 0 166 -20 166 -135v-186c0 -95 23 -144 23 -160c0 -12 -5 -20 -39 -20c-29 0 -34 3 -40 23l-17 65
c-30 -68 -95 -98 -168 -98zM195 59c72 0 136 43 136 123v36l-112 -3c-78 -2 -97 -18 -97 -76c0 -70 22 -80 73 -80z" />
    <glyph glyph-name="afii10066" unicode="&#x431;" horiz-adv-x="506" 
d="M263 -10c-160 0 -204 56 -204 246v216c0 172 65 213 201 213c52 0 119 -7 155 -14c14 -2 20 -11 20 -36s-4 -32 -15 -32c-20 0 -76 11 -148 11c-90 0 -129 -12 -129 -122v-39c22 47 65 68 142 68c129 0 169 -36 169 -260c0 -211 -50 -251 -191 -251zM263 61
c95 0 107 26 107 190c0 163 -21 180 -117 180c-81 0 -110 -28 -110 -173v-19c0 -148 23 -178 120 -178z" />
    <glyph glyph-name="afii10067" unicode="&#x432;" horiz-adv-x="485" 
d="M248 65c93 0 109 13 109 79c0 59 -25 80 -125 80h-88v-154c27 -3 63 -5 104 -5zM246 -9c-64 0 -101 3 -151 9c-28 3 -33 10 -33 31v428c0 23 9 30 29 33c47 6 94 8 159 8c128 0 180 -16 180 -118c0 -92 -34 -118 -103 -127c79 -11 115 -32 115 -124
c0 -116 -59 -140 -196 -140zM241 427c-35 0 -72 -2 -97 -5v-138h90c84 0 111 18 111 77s-23 66 -104 66z" />
    <glyph glyph-name="afii10068" unicode="&#x433;" horiz-adv-x="341" 
d="M103 0c-33 0 -41 5 -41 27v439c0 20 6 25 30 25h213c19 0 26 -6 26 -37s-7 -38 -26 -38h-161v-389c0 -22 -8 -27 -41 -27z" />
    <glyph glyph-name="afii10069" unicode="&#x434;" horiz-adv-x="501" 
d="M47 -109c-25 0 -31 2 -31 20v127c0 31 5 37 25 37h26l45 390c2 21 8 26 41 26h228c33 0 41 -5 41 -26v-390h25c23 0 30 -4 30 -30v-134c0 -18 -6 -20 -30 -20c-27 0 -34 2 -37 20l-13 89h-300l-14 -89c-3 -17 -9 -20 -36 -20zM185 418l-39 -343h193v343h-154z" />
    <glyph glyph-name="afii10070" unicode="&#x435;" horiz-adv-x="468" 
d="M253 -10c-143 0 -201 30 -201 251c0 238 76 260 196 260c158 0 175 -76 175 -233c0 -28 -6 -42 -36 -42h-251c1 -141 17 -164 125 -164c77 0 127 21 141 21c9 0 14 -6 14 -33c0 -26 -5 -32 -24 -39c-33 -12 -93 -21 -139 -21zM246 431c-78 0 -106 -16 -110 -148h207
c0 102 -2 148 -97 148z" />
    <glyph glyph-name="afii10072" unicode="&#x436;" horiz-adv-x="639" 
d="M57 0c-31 0 -43 5 -43 16c0 10 5 18 12 26l173 215l-161 192c-7 9 -13 19 -13 28c0 10 9 14 41 14c34 0 42 -3 55 -20l148 -187h9v181c0 23 9 26 41 26c33 0 42 -3 42 -26v-181h8l149 187c13 16 20 20 55 20c31 0 41 -4 41 -14c0 -9 -6 -19 -14 -28l-160 -192l173 -215
c7 -8 12 -16 12 -26c0 -11 -12 -16 -44 -16s-39 4 -52 21l-160 207h-8v-201c0 -23 -9 -27 -42 -27c-32 0 -41 4 -41 27v201h-8l-161 -207c-13 -17 -19 -21 -52 -21z" />
    <glyph glyph-name="afii10073" unicode="&#x437;" horiz-adv-x="437" 
d="M110 254c0 25 5 33 25 33h39c87 0 115 17 115 76c0 57 -16 64 -92 64c-72 0 -118 -12 -134 -12c-12 0 -18 5 -18 34s9 34 24 37c41 9 95 14 149 14c97 0 155 -17 155 -116c0 -97 -34 -120 -102 -129c79 -11 114 -30 114 -119c0 -121 -59 -145 -174 -145
c-55 0 -116 5 -158 16c-20 4 -26 11 -26 39c0 29 5 34 17 34c18 0 71 -15 148 -15c93 0 109 13 109 77c0 59 -23 79 -127 79h-39c-20 0 -25 8 -25 33z" />
    <glyph glyph-name="afii10074" unicode="&#x438;" horiz-adv-x="506" 
d="M392 491c20 0 31 -1 39 -4c10 -5 13 -13 13 -26v-434c0 -22 -8 -27 -41 -27c-34 0 -42 5 -42 27v355h-7l-178 -353c-12 -24 -24 -29 -63 -29c-19 0 -31 1 -38 5c-10 4 -13 13 -13 25v435c0 21 8 26 41 26s41 -5 41 -26v-352h7l182 355c11 21 21 23 59 23z" />
    <glyph glyph-name="afii10075" unicode="&#x439;" horiz-adv-x="506" 
d="M251 554c-89 0 -107 27 -107 94c0 23 5 26 32 26s31 -3 32 -23c1 -28 3 -35 43 -35c41 0 43 7 44 35c1 20 4 23 32 23c27 0 31 -3 31 -26c0 -67 -17 -94 -107 -94zM392 491c20 0 31 -1 39 -4c10 -5 13 -13 13 -26v-434c0 -22 -8 -27 -41 -27c-34 0 -42 5 -42 27v355h-7
l-178 -353c-12 -24 -24 -29 -63 -29c-19 0 -31 1 -38 5c-10 4 -13 13 -13 25v435c0 21 8 26 41 26s41 -5 41 -26v-352h7l182 355c11 21 21 23 59 23z" />
    <glyph glyph-name="afii10076" unicode="&#x43a;" horiz-adv-x="430" 
d="M103 0c-33 0 -41 4 -41 27v438c0 23 8 26 41 26s41 -3 41 -26v-181h9l157 187c14 17 21 20 55 20c30 0 40 -4 40 -14c0 -9 -6 -19 -14 -28l-164 -192l177 -215c7 -8 12 -16 12 -26c0 -11 -12 -16 -42 -16c-33 0 -38 4 -52 21l-170 207h-8v-201c0 -23 -8 -27 -41 -27z" />
    <glyph glyph-name="afii10077" unicode="&#x43b;" horiz-adv-x="506" 
d="M403 0c-33 0 -41 5 -41 27v391h-155l-37 -340c-6 -54 -22 -87 -85 -87c-20 0 -37 2 -55 6s-25 11 -25 39c0 27 5 30 16 30c13 0 23 -3 40 -3c23 0 29 6 34 48l39 354c2 21 7 26 34 26h246c24 0 30 -5 30 -25v-439c0 -22 -8 -27 -41 -27z" />
    <glyph glyph-name="afii10078" unicode="&#x43c;" horiz-adv-x="627" 
d="M103 0c-33 0 -41 5 -41 27v434c0 23 7 30 62 30c46 0 58 -3 70 -35l117 -310h5l117 310c12 32 23 35 70 35c55 0 62 -7 62 -30v-434c0 -22 -8 -27 -41 -27c-34 0 -42 5 -42 27c0 170 1 186 2 356h-8l-114 -300c-10 -26 -19 -30 -49 -30c-29 0 -38 4 -48 30l-114 300h-8
c1 -170 1 -186 1 -356c0 -22 -8 -27 -41 -27z" />
    <glyph glyph-name="afii10079" unicode="&#x43d;" horiz-adv-x="492" 
d="M144 291h203v174c0 21 8 26 42 26c33 0 41 -5 41 -26v-438c0 -22 -8 -27 -41 -27c-34 0 -42 5 -42 27v191h-203v-191c0 -22 -8 -27 -41 -27s-41 5 -41 27v438c0 21 8 26 41 26s41 -5 41 -26v-174z" />
    <glyph glyph-name="afii10080" unicode="&#x43e;" horiz-adv-x="497" 
d="M241 -10c-146 0 -189 41 -189 251c0 207 57 260 205 260c145 0 188 -40 188 -250c0 -206 -56 -261 -204 -261zM243 61c98 0 118 33 118 181c0 162 -13 189 -107 189c-98 0 -118 -32 -118 -180c0 -162 13 -190 107 -190z" />
    <glyph glyph-name="afii10081" unicode="&#x43f;" horiz-adv-x="492" 
d="M103 0c-33 0 -41 5 -41 27v439c0 20 6 25 30 25h307c25 0 31 -5 31 -25v-439c0 -22 -8 -27 -41 -27c-34 0 -42 5 -42 27v392h-203v-392c0 -22 -8 -27 -41 -27z" />
    <glyph glyph-name="afii10082" unicode="&#x440;" horiz-adv-x="525" 
d="M115 -189c-33 0 -42 4 -42 27v473c0 95 -22 145 -22 161c0 12 5 19 38 19c29 0 36 -2 41 -22l13 -54c25 55 77 86 162 86c139 0 168 -55 168 -254c0 -217 -58 -257 -186 -257c-61 0 -106 13 -131 54v-206c0 -23 -9 -27 -41 -27zM272 61c94 0 117 26 117 190
c0 150 -16 180 -103 180s-131 -27 -131 -160v-62c0 -110 20 -148 117 -148z" />
    <glyph glyph-name="afii10083" unicode="&#x441;" horiz-adv-x="428" 
d="M243 -10c-133 0 -191 30 -191 251c0 238 77 260 193 260c41 0 88 -7 122 -17c19 -6 25 -13 25 -39c0 -27 -5 -33 -15 -33c-13 0 -73 18 -125 18c-87 0 -116 -18 -116 -181c0 -162 12 -187 118 -187c68 0 110 21 124 21c9 0 14 -6 14 -33c0 -26 -5 -32 -24 -39
c-33 -12 -87 -21 -125 -21z" />
    <glyph glyph-name="afii10084" unicode="&#x442;" horiz-adv-x="403" 
d="M202 0c-34 0 -42 5 -42 27v389h-117c-19 0 -26 7 -26 38s7 37 26 37h318c19 0 25 -6 25 -37s-6 -38 -25 -38h-118v-389c0 -22 -8 -27 -41 -27z" />
    <glyph glyph-name="afii10085" unicode="&#x443;" horiz-adv-x="454" 
d="M25 469c0 14 4 22 42 22c32 0 40 -2 45 -20l111 -399h8l111 399c5 18 13 20 44 20c37 0 44 -7 44 -21c0 -6 -1 -19 -11 -50l-145 -466c-33 -106 -53 -147 -141 -147c-32 0 -61 4 -81 11c-16 5 -24 11 -24 35c0 27 4 33 17 33c11 0 34 -7 79 -7s57 12 71 62l16 59
c-37 1 -49 15 -59 48l-112 357c-14 46 -15 57 -15 64z" />
    <glyph glyph-name="afii10086" unicode="&#x444;" horiz-adv-x="801" 
d="M211 -10c-139 0 -166 56 -166 255c0 216 56 256 184 256c62 0 105 -14 127 -63v188c0 23 8 27 41 27s41 -4 41 -27v-195c25 57 76 70 145 70c139 0 166 -55 166 -254c0 -217 -56 -257 -184 -257c-61 0 -105 17 -127 65v-217c0 -23 -8 -27 -41 -27s-41 4 -41 27v223
c-28 -54 -81 -71 -145 -71zM549 61c95 0 116 26 116 190c0 150 -15 180 -102 180c-96 0 -126 -26 -126 -149v-77c0 -109 15 -144 112 -144zM231 61c99 0 126 38 126 145v76c0 110 -15 149 -112 149c-95 0 -116 -27 -116 -191c0 -150 15 -179 102 -179z" />
    <glyph glyph-name="afii10087" unicode="&#x445;" horiz-adv-x="440" 
d="M66 0c-31 0 -41 7 -41 19c0 6 3 12 10 24l137 212l-124 189c-7 11 -12 21 -12 27c0 15 11 20 45 20c33 0 41 -2 49 -19l89 -148h4l88 148c8 17 15 19 48 19c35 0 45 -5 45 -20c0 -6 -4 -15 -11 -26l-126 -187l138 -214c7 -12 11 -19 11 -24c0 -13 -10 -20 -41 -20
c-34 0 -45 3 -55 24l-98 168h-4l-98 -168c-9 -20 -21 -24 -54 -24z" />
    <glyph glyph-name="afii10088" unicode="&#x446;" horiz-adv-x="489" 
d="M435 -109c-27 0 -33 3 -36 20l-14 89h-293c-24 0 -30 5 -30 25v440c0 21 8 26 41 26s41 -5 41 -26v-390h184v390c0 21 8 26 41 26s41 -5 41 -26v-390h25c23 0 31 -4 31 -30v-134c0 -18 -7 -20 -31 -20z" />
    <glyph glyph-name="afii10089" unicode="&#x447;" horiz-adv-x="453" 
d="M196 171c-110 0 -157 22 -157 150v144c0 21 8 26 41 26c34 0 42 -5 42 -26v-132c0 -79 18 -88 89 -88c28 0 65 2 98 5v215c0 21 8 26 41 26s41 -5 41 -26v-438c0 -22 -8 -27 -41 -27s-41 5 -41 27v154c-33 -6 -75 -10 -113 -10z" />
    <glyph glyph-name="afii10090" unicode="&#x448;" horiz-adv-x="725" 
d="M663 465v-440c0 -20 -5 -25 -30 -25h-541c-24 0 -30 5 -30 25v440c0 21 8 26 41 26s41 -5 41 -26v-390h177v390c0 21 8 26 42 26c33 0 41 -5 41 -26v-390h177v390c0 21 8 26 41 26s41 -5 41 -26z" />
    <glyph glyph-name="afii10091" unicode="&#x449;" horiz-adv-x="742" 
d="M688 -109c-27 0 -33 3 -36 20l-14 89h-546c-24 0 -30 5 -30 25v440c0 21 8 26 41 26s41 -5 41 -26v-390h177v390c0 21 8 26 42 26c33 0 41 -5 41 -26v-390h177v390c0 21 8 26 41 26s41 -5 41 -26v-390h25c23 0 31 -4 31 -30v-134c0 -18 -7 -20 -31 -20z" />
    <glyph glyph-name="afii10092" unicode="&#x44a;" horiz-adv-x="495" 
d="M87 416h-52c-19 0 -25 7 -25 38s6 37 25 37h93c33 0 42 -3 42 -26v-168h107c133 0 184 -21 184 -143c0 -138 -59 -163 -194 -163c-58 0 -97 3 -147 9c-28 3 -33 10 -33 31v385zM287 227h-117v-159c25 -3 58 -5 101 -5c90 0 106 13 106 88c0 60 -15 76 -90 76z" />
    <glyph glyph-name="afii10093" unicode="&#x44b;" horiz-adv-x="672" 
d="M569 0c-33 0 -41 4 -41 27v438c0 23 8 26 41 26c32 0 41 -3 41 -26v-438c0 -23 -9 -27 -41 -27zM241 -9c-57 0 -96 3 -146 9c-28 3 -33 10 -33 31v434c0 23 8 26 41 26s41 -3 41 -26v-168h108c133 0 184 -21 184 -143c0 -138 -59 -163 -195 -163zM261 227h-117v-159
c25 -3 59 -5 101 -5c91 0 107 13 107 88c0 60 -15 76 -91 76z" />
    <glyph glyph-name="afii10094" unicode="&#x44c;" horiz-adv-x="470" 
d="M241 -9c-57 0 -96 3 -146 9c-28 3 -33 10 -33 31v434c0 23 8 26 41 26s41 -3 41 -26v-168h108c133 0 184 -21 184 -143c0 -138 -59 -163 -195 -163zM261 227h-117v-159c25 -3 59 -5 101 -5c91 0 107 13 107 88c0 60 -15 76 -91 76z" />
    <glyph glyph-name="afii10095" unicode="&#x44d;" horiz-adv-x="436" 
d="M183 -10c-39 0 -97 9 -130 21c-19 7 -24 13 -24 39c0 27 5 33 14 33c17 0 63 -21 133 -21c109 0 128 22 130 158h-176c-21 0 -26 6 -26 33s5 33 26 33h176c-3 129 -21 144 -110 144c-71 0 -132 -16 -147 -16c-10 0 -15 6 -15 33s5 33 24 38c35 9 96 16 140 16
c138 0 189 -22 189 -260c0 -221 -60 -251 -204 -251z" />
    <glyph glyph-name="afii10096" unicode="&#x44e;" horiz-adv-x="689" 
d="M432 -10c-140 0 -186 38 -189 230h-99v-193c0 -23 -8 -27 -41 -27s-41 4 -41 27v438c0 23 8 26 41 26s41 -3 41 -26v-174h100c9 165 68 210 204 210c146 0 189 -40 189 -250c0 -206 -57 -261 -205 -261zM434 61c99 0 119 33 119 181c0 162 -14 189 -108 189
c-98 0 -117 -32 -117 -180c0 -162 12 -190 106 -190z" />
    <glyph glyph-name="afii10097" unicode="&#x44f;" horiz-adv-x="490" 
d="M78 0c-31 0 -37 6 -37 16c0 6 3 15 10 27l93 164c-65 14 -90 51 -90 136c0 132 58 157 195 157c56 0 96 -3 146 -9c28 -3 33 -10 33 -31v-433c0 -23 -8 -27 -41 -27s-41 4 -41 27v172h-126l-89 -178c-9 -18 -16 -21 -53 -21zM138 339c0 -58 15 -73 91 -73h117v156
c-25 3 -58 5 -101 5c-90 0 -107 -14 -107 -88z" />
    <glyph glyph-name="afii10071" unicode="&#x451;" horiz-adv-x="468" 
d="M253 -10c-143 0 -201 30 -201 251c0 238 76 260 196 260c158 0 175 -76 175 -233c0 -28 -6 -42 -36 -42h-251c1 -141 17 -164 125 -164c77 0 127 21 141 21c9 0 14 -6 14 -33c0 -26 -5 -32 -24 -39c-33 -12 -93 -21 -139 -21zM246 431c-78 0 -106 -16 -110 -148h207
c0 102 -2 148 -97 148zM160 569c-37 0 -44 5 -44 31v21c0 26 7 32 44 32s44 -6 44 -32v-21c0 -26 -7 -31 -44 -31zM307 569c-38 0 -45 5 -45 31v21c0 26 7 32 45 32c37 0 44 -6 44 -32v-21c0 -26 -7 -31 -44 -31z" />
    <glyph glyph-name="afii10099" unicode="&#x452;" horiz-adv-x="500" 
d="M105 0c-33 0 -42 4 -42 27v505h-33c-19 0 -24 5 -24 28c0 24 5 29 24 29h33v37c0 23 9 27 42 27c32 0 41 -4 41 -27v-37h124c19 0 24 -5 24 -29c0 -23 -5 -28 -24 -28h-124v-128c26 52 75 74 156 74c110 0 136 -45 136 -132v-415c0 -88 -30 -124 -105 -124
c-25 0 -52 5 -69 10c-18 5 -26 10 -26 35c0 29 6 32 17 32s32 -5 57 -5c36 0 43 7 43 69v380c0 58 -14 78 -81 78c-95 0 -128 -50 -128 -169v-210c0 -23 -9 -27 -41 -27z" />
    <glyph glyph-name="afii10100" unicode="&#x453;" horiz-adv-x="341" 
d="M158 539c-25 0 -35 6 -35 16c0 7 5 16 10 26l47 90c9 18 12 26 51 26c37 0 47 -6 47 -16c0 -9 -7 -20 -14 -31l-57 -88c-10 -15 -15 -23 -49 -23zM103 0c-33 0 -41 5 -41 27v439c0 20 6 25 30 25h213c19 0 26 -6 26 -37s-7 -38 -26 -38h-161v-389c0 -22 -8 -27 -41 -27z
" />
    <glyph glyph-name="afii10101" unicode="&#x454;" horiz-adv-x="439" 
d="M256 -10c-144 0 -204 30 -204 251c0 238 51 260 188 260c45 0 106 -7 141 -16c19 -5 24 -11 24 -38s-5 -33 -15 -33c-15 0 -76 16 -148 16c-88 0 -107 -15 -109 -144h176c21 0 26 -6 26 -33s-5 -33 -26 -33h-176c2 -136 20 -158 130 -158c70 0 116 21 133 21
c9 0 14 -6 14 -33c0 -26 -5 -32 -24 -39c-33 -12 -91 -21 -130 -21z" />
    <glyph glyph-name="afii10102" unicode="&#x455;" horiz-adv-x="429" 
d="M199 -10c-45 0 -95 7 -130 18c-19 6 -24 13 -24 38c0 27 5 34 13 34c16 0 67 -18 134 -18c81 0 109 26 109 79c0 31 -12 44 -38 55l-135 57c-40 17 -70 49 -70 118c0 105 75 130 156 130c45 0 96 -7 134 -17c19 -5 24 -11 24 -40c0 -30 -8 -32 -16 -32
c-13 0 -70 19 -131 19c-65 0 -83 -19 -83 -60c0 -31 7 -46 38 -59l131 -54c54 -22 73 -55 73 -113c0 -113 -74 -155 -185 -155z" />
    <glyph glyph-name="afii10103" unicode="&#x456;" horiz-adv-x="208" 
d="M102 0c-33 0 -41 4 -41 27v438c0 23 8 26 41 26c32 0 41 -3 41 -26v-438c0 -23 -9 -27 -41 -27zM102 569c-40 0 -46 5 -46 31v21c0 26 6 32 46 32c39 0 46 -6 46 -32v-21c0 -26 -7 -31 -46 -31z" />
    <glyph glyph-name="afii10104" unicode="&#x457;" horiz-adv-x="208" 
d="M31 569c-37 0 -44 5 -44 31v21c0 26 7 32 44 32s44 -6 44 -32v-21c0 -26 -7 -31 -44 -31zM178 569c-38 0 -45 5 -45 31v21c0 26 7 32 45 32c37 0 44 -6 44 -32v-21c0 -26 -7 -31 -44 -31zM102 0c-33 0 -41 4 -41 27v438c0 23 8 26 41 26c32 0 41 -3 41 -26v-438
c0 -23 -9 -27 -41 -27z" />
    <glyph glyph-name="afii10105" unicode="&#x458;" horiz-adv-x="208" 
d="M102 491c32 0 41 -3 41 -26v-534c0 -88 -30 -124 -105 -124c-25 0 -51 5 -68 10c-19 5 -26 10 -26 35c0 29 5 32 16 32s32 -5 57 -5c36 0 44 7 44 69v517c0 23 8 26 41 26zM102 569c-40 0 -46 5 -46 31v21c0 26 6 32 46 32c39 0 46 -6 46 -32v-21c0 -26 -7 -31 -46 -31z
" />
    <glyph glyph-name="afii10106" unicode="&#x459;" horiz-adv-x="766" 
d="M88 -9c-19 0 -36 2 -54 6s-25 11 -25 39c0 27 5 30 16 30c13 0 22 -3 39 -3c24 0 30 6 35 48l39 354c2 21 7 26 33 26h243c24 0 30 -5 30 -25v-169h104c133 0 184 -21 184 -143c0 -138 -59 -163 -195 -163c-57 0 -92 3 -142 9c-28 3 -33 10 -33 31v387h-151l-37 -340
c-6 -54 -22 -87 -86 -87zM557 227h-113v-159c25 -3 55 -5 97 -5c91 0 107 13 107 88c0 60 -15 76 -91 76z" />
    <glyph glyph-name="afii10107" unicode="&#x45a;" horiz-adv-x="748" 
d="M103 0c-33 0 -41 5 -41 27v438c0 21 8 26 41 26s41 -5 41 -26v-174h200v174c0 21 8 26 41 26s41 -5 41 -26v-168h104c133 0 184 -21 184 -143c0 -138 -59 -163 -195 -163c-57 0 -92 3 -142 9c-28 3 -33 10 -33 31v187h-200v-191c0 -22 -8 -27 -41 -27zM539 227h-113v-159
c25 -3 55 -5 98 -5c90 0 106 13 106 88c0 60 -15 76 -91 76z" />
    <glyph glyph-name="afii10108" unicode="&#x45b;" horiz-adv-x="500" 
d="M6 560c0 24 5 29 24 29h33v37c0 23 9 27 42 27c32 0 41 -4 41 -27v-37h124c19 0 24 -5 24 -29c0 -23 -5 -28 -24 -28h-124v-128c26 52 75 74 156 74c110 0 136 -45 136 -132v-319c0 -23 -9 -27 -41 -27c-33 0 -42 4 -42 27v301c0 58 -14 78 -81 78
c-95 0 -128 -50 -128 -169v-210c0 -23 -9 -27 -41 -27c-33 0 -42 4 -42 27v505h-33c-19 0 -24 5 -24 28z" />
    <glyph glyph-name="afii10109" unicode="&#x45c;" horiz-adv-x="430" 
d="M189 539c-25 0 -35 6 -35 16c0 7 5 16 10 26l47 90c9 18 12 26 51 26c37 0 47 -6 47 -16c0 -9 -7 -20 -14 -31l-57 -88c-10 -15 -15 -23 -49 -23zM103 0c-33 0 -41 4 -41 27v438c0 23 8 26 41 26s41 -3 41 -26v-181h9l157 187c14 17 21 20 55 20c30 0 40 -4 40 -14
c0 -9 -6 -19 -14 -28l-164 -192l177 -215c7 -8 12 -16 12 -26c0 -11 -12 -16 -42 -16c-33 0 -38 4 -52 21l-170 207h-8v-201c0 -23 -8 -27 -41 -27z" />
    <glyph glyph-name="afii10110" unicode="&#x45e;" horiz-adv-x="454" 
d="M25 469c0 14 4 22 42 22c32 0 40 -2 45 -20l111 -399h8l111 399c5 18 13 20 44 20c37 0 44 -7 44 -21c0 -6 -1 -19 -11 -50l-145 -466c-33 -106 -53 -147 -141 -147c-32 0 -61 4 -81 11c-16 5 -24 11 -24 35c0 27 4 33 17 33c11 0 34 -7 79 -7s57 12 71 62l16 59
c-37 1 -49 15 -59 48l-112 357c-14 46 -15 57 -15 64zM226 554c-89 0 -107 27 -107 94c0 23 5 26 32 26s31 -3 32 -23c1 -28 3 -35 43 -35c41 0 43 7 44 35c1 20 4 23 32 23c27 0 31 -3 31 -26c0 -67 -17 -94 -107 -94z" />
    <glyph glyph-name="afii10193" unicode="&#x45f;" horiz-adv-x="472" 
d="M236 -109c-27 0 -29 3 -30 22l-5 87h-109c-24 0 -30 5 -30 25v440c0 21 8 26 41 26s41 -5 41 -26v-393h184v393c0 21 8 26 41 26s41 -5 41 -26v-440c0 -20 -6 -25 -30 -25h-109l-5 -87c-1 -19 -3 -22 -30 -22z" />
    <glyph glyph-name="afii10050" unicode="&#x490;" horiz-adv-x="403" 
d="M355 725c24 0 30 -3 30 -20v-135c0 -25 -7 -30 -30 -30h-211v-513c0 -22 -8 -27 -41 -27s-41 5 -41 27v563c0 20 6 25 30 25h213l13 90c5 16 10 20 37 20z" />
    <glyph glyph-name="afii10098" unicode="&#x491;" horiz-adv-x="348" 
d="M300 601c24 0 31 -3 31 -20v-135c0 -25 -8 -30 -31 -30h-156v-389c0 -22 -8 -27 -41 -27s-41 5 -41 27v439c0 20 6 25 30 25h158l14 90c4 16 9 20 36 20z" />
    <glyph glyph-name="Wgrave" unicode="&#x1e80;" horiz-adv-x="795" 
d="M212 0c-50 0 -66 4 -72 33l-120 538c-1 8 -3 17 -3 24c0 15 8 20 40 20c35 0 43 -4 47 -22l106 -516h12l113 500c4 24 22 28 63 28c40 0 58 -4 62 -28l113 -500h12l106 516c4 18 12 22 47 22c32 0 40 -5 40 -20c0 -7 -2 -16 -3 -24l-120 -538c-6 -29 -22 -33 -72 -33
c-49 0 -65 5 -72 35l-108 465h-10l-109 -465c-7 -30 -23 -35 -72 -35zM401 659c-34 0 -39 8 -49 23l-57 88c-7 11 -14 22 -14 31c0 10 10 16 47 16c39 0 42 -8 51 -26l47 -90c5 -10 10 -19 10 -26c0 -10 -9 -16 -35 -16z" />
    <glyph glyph-name="wgrave" unicode="&#x1e81;" horiz-adv-x="699" 
d="M189 0c-45 0 -61 5 -67 31l-92 400c-3 15 -5 29 -5 37c0 17 5 23 40 23c37 0 44 -3 49 -28l79 -389h11l87 374c6 26 17 33 59 33c41 0 52 -7 58 -33l87 -374h11l79 389c5 25 12 28 49 28c35 0 40 -6 40 -23c0 -8 -2 -22 -5 -37l-92 -400c-6 -26 -22 -31 -67 -31
c-50 0 -71 5 -77 31l-80 338h-7l-80 -338c-6 -26 -27 -31 -77 -31zM372 539c-34 0 -39 8 -49 23l-57 88c-7 11 -14 22 -14 31c0 10 10 16 47 16c39 0 42 -8 51 -26l47 -90c5 -10 10 -19 10 -26c0 -10 -9 -16 -35 -16z" />
    <glyph glyph-name="Wacute" unicode="&#x1e82;" horiz-adv-x="795" 
d="M212 0c-50 0 -66 4 -72 33l-120 538c-1 8 -3 17 -3 24c0 15 8 20 40 20c35 0 43 -4 47 -22l106 -516h12l113 500c4 24 22 28 63 28c40 0 58 -4 62 -28l113 -500h12l106 516c4 18 12 22 47 22c32 0 40 -5 40 -20c0 -7 -2 -16 -3 -24l-120 -538c-6 -29 -22 -33 -72 -33
c-49 0 -65 5 -72 35l-108 465h-10l-109 -465c-7 -30 -23 -35 -72 -35zM394 659c-25 0 -35 6 -35 16c0 7 5 16 10 26l47 90c9 18 12 26 51 26c37 0 47 -6 47 -16c0 -9 -7 -20 -14 -31l-57 -88c-10 -15 -15 -23 -49 -23z" />
    <glyph glyph-name="wacute" unicode="&#x1e83;" horiz-adv-x="699" 
d="M189 0c-45 0 -61 5 -67 31l-92 400c-3 15 -5 29 -5 37c0 17 5 23 40 23c37 0 44 -3 49 -28l79 -389h11l87 374c6 26 17 33 59 33c41 0 52 -7 58 -33l87 -374h11l79 389c5 25 12 28 49 28c35 0 40 -6 40 -23c0 -8 -2 -22 -5 -37l-92 -400c-6 -26 -22 -31 -67 -31
c-50 0 -71 5 -77 31l-80 338h-7l-80 -338c-6 -26 -27 -31 -77 -31zM328 539c-25 0 -35 6 -35 16c0 7 5 16 10 26l47 90c9 18 12 26 51 26c37 0 47 -6 47 -16c0 -9 -7 -20 -14 -31l-57 -88c-10 -15 -15 -23 -49 -23z" />
    <glyph glyph-name="Wdieresis" unicode="&#x1e84;" horiz-adv-x="795" 
d="M212 0c-50 0 -66 4 -72 33l-120 538c-1 8 -3 17 -3 24c0 15 8 20 40 20c35 0 43 -4 47 -22l106 -516h12l113 500c4 24 22 28 63 28c40 0 58 -4 62 -28l113 -500h12l106 516c4 18 12 22 47 22c32 0 40 -5 40 -20c0 -7 -2 -16 -3 -24l-120 -538c-6 -29 -22 -33 -72 -33
c-49 0 -65 5 -72 35l-108 465h-10l-109 -465c-7 -30 -23 -35 -72 -35zM325 694c-37 0 -44 5 -44 31v21c0 26 7 32 44 32s44 -6 44 -32v-21c0 -26 -7 -31 -44 -31zM472 694c-38 0 -45 5 -45 31v21c0 26 7 32 45 32c37 0 44 -6 44 -32v-21c0 -26 -7 -31 -44 -31z" />
    <glyph glyph-name="wdieresis" unicode="&#x1e85;" horiz-adv-x="699" 
d="M189 0c-45 0 -61 5 -67 31l-92 400c-3 15 -5 29 -5 37c0 17 5 23 40 23c37 0 44 -3 49 -28l79 -389h11l87 374c6 26 17 33 59 33c41 0 52 -7 58 -33l87 -374h11l79 389c5 25 12 28 49 28c35 0 40 -6 40 -23c0 -8 -2 -22 -5 -37l-92 -400c-6 -26 -22 -31 -67 -31
c-50 0 -71 5 -77 31l-80 338h-7l-80 -338c-6 -26 -27 -31 -77 -31zM277 569c-37 0 -44 5 -44 31v21c0 26 7 32 44 32s44 -6 44 -32v-21c0 -26 -7 -31 -44 -31zM424 569c-38 0 -45 5 -45 31v21c0 26 7 32 45 32c37 0 44 -6 44 -32v-21c0 -26 -7 -31 -44 -31z" />
    <glyph glyph-name="Eszett" unicode="&#x1e9e;" horiz-adv-x="502" 
d="M99 0c-34 0 -42 5 -42 27v453c0 98 45 144 185 144c46 0 105 -10 140 -21c33 -11 45 -23 45 -45c0 -15 -6 -30 -13 -45l-94 -170l84 -77c42 -43 66 -67 66 -130c0 -100 -49 -143 -155 -143c-32 0 -73 6 -101 13c-20 6 -25 12 -25 41c0 28 5 32 13 32c14 0 53 -12 98 -12
c72 0 85 25 85 75c0 29 -11 44 -32 64l-84 77c-18 16 -29 30 -29 50c0 15 5 27 15 44l87 159c-17 7 -62 14 -102 14c-92 0 -100 -23 -100 -67v-456c0 -22 -8 -27 -41 -27z" />
    <glyph glyph-name="Ygrave" unicode="&#x1ef2;" horiz-adv-x="455" 
d="M227 0c-33 0 -41 5 -41 27v209l-158 328c-8 17 -11 25 -11 32c0 12 8 19 38 19c38 0 47 -3 54 -22l116 -268h5l116 268c7 19 15 22 53 22c31 0 39 -7 39 -19c0 -6 -3 -15 -11 -32l-158 -328v-209c0 -22 -8 -27 -42 -27zM249 659c-34 0 -39 8 -49 23l-57 88
c-7 11 -14 22 -14 31c0 10 10 16 47 16c39 0 42 -8 51 -26l47 -90c5 -10 10 -19 10 -26c0 -10 -9 -16 -35 -16z" />
    <glyph glyph-name="ygrave" unicode="&#x1ef3;" horiz-adv-x="454" 
d="M25 469c0 14 4 22 42 22c32 0 40 -2 45 -20l111 -399h8l111 399c5 18 13 20 44 20c37 0 44 -7 44 -21c0 -6 -1 -19 -11 -50l-145 -466c-33 -106 -53 -147 -141 -147c-32 0 -61 4 -81 11c-16 5 -24 11 -24 35c0 27 4 33 17 33c11 0 34 -7 79 -7s57 12 71 62l16 59
c-37 1 -49 15 -59 48l-112 357c-14 46 -15 57 -15 64zM248 539c-34 0 -39 8 -49 23l-57 88c-7 11 -14 22 -14 31c0 10 10 16 47 16c39 0 42 -8 51 -26l47 -90c5 -10 10 -19 10 -26c0 -10 -9 -16 -35 -16z" />
    <glyph glyph-name="endash" unicode="&#x2013;" horiz-adv-x="418" 
d="M36 264c0 31 5 37 25 37h295c21 0 26 -6 26 -37s-5 -37 -26 -37h-295c-20 0 -25 6 -25 37z" />
    <glyph glyph-name="emdash" unicode="&#x2014;" horiz-adv-x="665" 
d="M36 264c0 31 5 37 25 37h542c21 0 26 -6 26 -37s-5 -37 -26 -37h-542c-20 0 -25 6 -25 37z" />
    <glyph glyph-name="afii00208" unicode="&#x2015;" horiz-adv-x="665" 
d="M36 264c0 31 5 37 25 37h542c21 0 26 -6 26 -37s-5 -37 -26 -37h-542c-20 0 -25 6 -25 37z" />
    <glyph glyph-name="quoteleft" unicode="&#x2018;" horiz-adv-x="193" 
d="M89 429c-36 0 -43 7 -43 31v28c0 25 6 50 14 78l16 59c9 23 15 28 43 28c22 0 26 -5 26 -16c0 -20 -13 -74 -13 -125v-52c0 -24 -6 -31 -43 -31z" />
    <glyph glyph-name="quoteright" unicode="&#x2019;" horiz-adv-x="193" 
d="M104 653c36 0 43 -7 43 -31v-28c0 -25 -5 -50 -13 -78l-17 -59c-8 -23 -15 -28 -43 -28c-22 0 -26 5 -26 16c0 20 13 74 13 125v52c0 24 6 31 43 31z" />
    <glyph glyph-name="quotesinglbase" unicode="&#x201a;" horiz-adv-x="157" 
d="M75 93c36 0 42 -6 42 -31v-28c0 -24 -5 -50 -13 -78l-16 -59c-9 -22 -16 -27 -43 -27c-22 0 -26 4 -26 15c0 20 13 74 13 125v52c0 25 6 31 43 31z" />
    <glyph glyph-name="quotedblleft" unicode="&#x201c;" horiz-adv-x="343" 
d="M89 429c-36 0 -43 7 -43 31v28c0 25 6 50 14 78l16 59c9 23 15 28 43 28c22 0 26 -5 26 -16c0 -20 -13 -74 -13 -125v-52c0 -24 -6 -31 -43 -31zM239 429c-36 0 -42 7 -42 31v28c0 25 5 50 13 78l16 59c9 23 16 28 43 28c22 0 27 -5 27 -16c0 -20 -14 -74 -14 -125v-52
c0 -24 -6 -31 -43 -31z" />
    <glyph glyph-name="quotedblright" unicode="&#x201d;" horiz-adv-x="343" 
d="M254 653c37 0 43 -7 43 -31v-28c0 -25 -5 -50 -13 -78l-17 -59c-8 -23 -15 -28 -43 -28c-22 0 -26 5 -26 16c0 20 14 74 14 125v52c0 24 6 31 42 31zM104 653c36 0 43 -7 43 -31v-28c0 -25 -5 -50 -13 -78l-17 -59c-8 -23 -15 -28 -43 -28c-22 0 -26 5 -26 16
c0 20 13 74 13 125v52c0 24 6 31 43 31z" />
    <glyph glyph-name="quotedblbase" unicode="&#x201e;" horiz-adv-x="307" 
d="M75 93c36 0 42 -6 42 -31v-28c0 -24 -5 -50 -13 -78l-16 -59c-9 -22 -16 -27 -43 -27c-22 0 -26 4 -26 15c0 20 13 74 13 125v52c0 25 6 31 43 31zM225 93c37 0 43 -6 43 -31v-28c0 -24 -5 -50 -13 -78l-17 -59c-8 -22 -15 -27 -43 -27c-22 0 -26 4 -26 15
c0 20 13 74 13 125v52c0 25 7 31 43 31z" />
    <glyph glyph-name="dagger" unicode="&#x2020;" horiz-adv-x="426" 
d="M213 -190c-31 0 -40 4 -40 26v495h-120c-21 0 -26 5 -26 36s5 36 26 36h120v146c0 22 9 26 40 26c32 0 41 -4 41 -26v-146h120c20 0 25 -5 25 -36s-5 -36 -25 -36h-120v-495c0 -22 -9 -26 -41 -26z" />
    <glyph glyph-name="daggerdbl" unicode="&#x2021;" horiz-adv-x="426" 
d="M213 -190c-31 0 -40 4 -40 26v145h-120c-21 0 -26 6 -26 37s5 36 26 36h120v277h-120c-21 0 -26 5 -26 36s5 36 26 36h120v146c0 22 9 26 40 26c32 0 41 -4 41 -26v-146h120c20 0 25 -5 25 -36s-5 -36 -25 -36h-120v-277h120c20 0 25 -5 25 -36s-5 -37 -25 -37h-120v-145
c0 -22 -9 -26 -41 -26z" />
    <glyph glyph-name="bullet" unicode="&#x2022;" horiz-adv-x="287" 
d="M143 157c-85 0 -113 24 -113 118c0 96 28 114 113 114c86 0 114 -18 114 -114c0 -94 -28 -118 -114 -118z" />
    <glyph glyph-name="ellipsis" unicode="&#x2026;" horiz-adv-x="543" 
d="M87 0c-36 0 -45 5 -45 31v31c0 26 9 31 45 31c37 0 45 -5 45 -31v-31c0 -26 -8 -31 -45 -31zM272 0c-36 0 -45 5 -45 31v31c0 26 9 31 45 31c37 0 45 -5 45 -31v-31c0 -26 -8 -31 -45 -31zM457 0c-37 0 -45 5 -45 31v31c0 26 8 31 45 31c36 0 45 -5 45 -31v-31
c0 -26 -9 -31 -45 -31z" />
    <glyph glyph-name="perthousand" unicode="&#x2030;" horiz-adv-x="760" 
d="M356 0c-95 0 -113 29 -113 135c0 107 20 135 113 135c92 0 113 -28 113 -135c0 -106 -18 -135 -113 -135zM356 55c44 0 48 14 48 80s-3 80 -48 80s-49 -14 -49 -80s4 -80 49 -80zM134 345c-95 0 -113 30 -113 136c0 107 20 134 113 134c92 0 113 -27 113 -134
c0 -106 -18 -136 -113 -136zM134 400c44 0 48 14 48 80c0 67 -3 81 -48 81s-49 -14 -49 -81c0 -66 4 -80 49 -80zM66 0c-22 0 -29 5 -29 14c0 6 2 12 9 25l327 558c8 14 16 18 47 18c22 0 30 -4 30 -13c0 -7 -2 -13 -10 -26l-327 -558c-8 -14 -16 -18 -47 -18zM626 0
c-94 0 -113 29 -113 135c0 107 21 135 113 135c93 0 114 -28 114 -135c0 -106 -18 -135 -114 -135zM626 55c45 0 49 14 49 80s-4 80 -49 80c-44 0 -48 -14 -48 -80s4 -80 48 -80z" />
    <glyph glyph-name="guilsinglleft" unicode="&#x2039;" horiz-adv-x="318" 
d="M118 256v-8l143 -108c19 -14 22 -21 22 -54c0 -27 -7 -32 -15 -32c-6 0 -14 5 -22 10l-181 122c-22 15 -30 24 -30 66c0 41 8 50 30 65l181 122c8 6 16 10 22 10c8 0 15 -5 15 -32c0 -32 -3 -39 -22 -54z" />
    <glyph glyph-name="guilsinglright" unicode="&#x203a;" horiz-adv-x="318" 
d="M283 252c0 -42 -8 -51 -31 -66l-180 -122c-8 -5 -16 -10 -22 -10c-9 0 -15 5 -15 32c0 33 2 40 21 54l143 108v8l-143 107c-19 15 -21 22 -21 54c0 27 6 32 15 32c6 0 14 -4 22 -10l180 -122c23 -15 31 -24 31 -65z" />
    <glyph glyph-name="fraction" unicode="&#x2044;" 
d="M342 623c21 0 29 -3 29 -14c0 -6 -1 -12 -6 -25l-210 -563c-6 -16 -14 -21 -40 -21c-21 0 -29 3 -29 14c0 6 1 12 6 25l211 563c5 16 13 21 39 21z" />
    <glyph glyph-name="Euro" unicode="&#x20ac;" 
d="M316 274c0 -6 -6 -27 -10 -38c-3 -8 -7 -9 -12 -9h-143c4 -152 34 -162 131 -162c71 0 113 18 127 18c12 0 16 -3 16 -33s-8 -35 -24 -40c-41 -11 -92 -19 -137 -19c-116 0 -186 14 -192 236h-46c-7 0 -10 2 -10 8c0 5 6 26 10 37c3 8 7 10 12 10h34v64h-46
c-7 0 -10 2 -10 8c0 5 6 26 10 37c3 8 7 10 12 10h35c9 202 75 219 193 219c46 0 94 -7 135 -19c16 -5 24 -8 24 -39c0 -30 -5 -33 -16 -33c-13 0 -60 18 -127 18c-100 0 -126 -12 -131 -146h177c7 0 10 -3 10 -8c0 -6 -6 -26 -10 -38c-3 -8 -7 -9 -12 -9h-165v-64h155
c7 0 10 -3 10 -8z" />
    <glyph glyph-name="hryvnia" unicode="&#x20b4;" 
d="M53 359c0 26 6 31 24 31h164l37 42c26 30 42 54 42 78c0 27 -21 36 -93 36c-73 0 -135 -18 -148 -18c-11 0 -17 5 -17 34s8 35 22 39c43 13 113 19 155 19c92 0 159 -14 159 -98c0 -46 -25 -84 -70 -132h57c19 0 24 -5 24 -31s-5 -30 -24 -30h-111l-40 -47h151
c19 0 24 -4 24 -30c0 -27 -5 -31 -24 -31h-203c-44 -51 -56 -70 -56 -102c0 -44 40 -53 116 -53c79 0 138 16 156 16c11 0 16 -3 16 -32c0 -28 -6 -36 -23 -40c-42 -11 -113 -19 -170 -19c-102 0 -172 18 -172 119c0 41 15 73 45 111h-17c-18 0 -24 4 -24 31
c0 26 6 30 24 30h71l40 47h-111c-18 0 -24 4 -24 30z" />
    <glyph glyph-name="afii61352" unicode="&#x2116;" horiz-adv-x="905" 
d="M575 141c0 31 5 37 26 37h213c20 0 25 -6 25 -37s-5 -37 -25 -37h-213c-21 0 -26 6 -26 37zM704 251c-91 0 -143 16 -143 181c0 170 51 188 157 188c90 0 143 -14 143 -179c0 -171 -51 -190 -157 -190zM705 310c65 0 85 13 85 122c0 119 -19 130 -74 130
c-64 0 -84 -12 -84 -122c0 -118 19 -130 73 -130zM104 0c-34 0 -42 5 -42 27v562c0 21 10 26 60 26c40 0 53 -1 64 -26l204 -462h9v462c0 21 8 26 41 26c34 0 41 -5 41 -26v-562c0 -22 -8 -27 -58 -27c-40 0 -51 2 -62 26l-207 463h-9v-462c0 -22 -8 -27 -41 -27z" />
    <glyph glyph-name="trademark" unicode="&#x2122;" horiz-adv-x="740" 
d="M162 285c-31 0 -36 5 -36 27v238h-73c-19 0 -26 3 -26 33s7 32 26 32h219c19 0 26 -2 26 -32s-7 -33 -26 -33h-73v-238c0 -22 -5 -27 -37 -27zM384 281c-32 0 -36 5 -36 27v277c0 24 5 30 61 30c46 0 56 -3 68 -38l53 -159l54 159c12 35 22 38 67 38c57 0 62 -6 62 -30
v-277c0 -22 -5 -27 -37 -27c-31 0 -36 5 -36 27c0 72 1 147 1 219h-9l-61 -172c-9 -25 -14 -29 -41 -29c-26 0 -32 4 -41 29l-61 172h-8c0 -72 1 -147 1 -219c0 -22 -5 -27 -37 -27z" />
    <glyph glyph-name="minus" unicode="&#x2212;" 
d="M96 264c0 31 5 37 25 37h221c20 0 25 -6 25 -37s-5 -37 -25 -37h-221c-20 0 -25 6 -25 37z" />
    <glyph glyph-name="ruble" 
d="M121 0c-33 0 -41 5 -41 27v123h-39c-19 0 -24 4 -24 30c0 27 5 31 24 31h39v52h-39c-19 0 -24 5 -24 31s5 30 24 30h39v255c0 21 12 30 29 32c45 6 94 9 136 9c146 0 183 -20 183 -162c0 -141 -39 -195 -192 -195h-74v-52h172c19 0 24 -4 24 -31c0 -26 -5 -30 -24 -30
h-172v-123c0 -22 -8 -27 -41 -27zM162 549v-225h73c93 0 110 30 110 129c0 86 -5 101 -104 101c-27 0 -57 -2 -79 -5z" />
    </font>
</defs>
</svg>
