<?xml version="1.0" standalone="no"?>
<!DOCTYPE svg PUBLIC "-//W3C//DTD SVG 1.1//EN" "http://www.w3.org/Graphics/SVG/1.1/DTD/svg11.dtd" >
<svg xmlns="http://www.w3.org/2000/svg" xmlns:xlink="http://www.w3.org/1999/xlink" version="1.1">
<metadata>
Created by FontForge 20161116 at Sat Feb 15 08:34:10 2014
 By Jimmy Wärting
Pragmatica Slabserif was designed as a complement to the popular type family Pragmatica by Vladimir Yefimov and Isabella Chaeva \(1989-2004\) by addition of square serifs. Inspired by Helserif \(Phil Martin, 1978\) which was formed in the same way by addition of square serifs to Helvetica \(Eduard Hoffman and Max Miedinger, 1957\). First sketches of Pragmatica Slabserif were created by Vladimir Yefimov in 1988 during development of Pragmatica. Olga Umpeleva designed the whole slabserif type family of six weights basing on that sketches. All styles of Pragmatica Slabserif coordinate with corresponding Pragmatica styles on metrics, proportions, weights and design. The new family can be used together with Pragmatica and separately. It's convenient for technical texts, for magazines of general nature, for business applications as well as for advertising and display matter. Pragmatica Slabserif was released by ParaType in 2011.
</metadata>
<defs>
<font id="PragmaticaSlab-Book" horiz-adv-x="580" >
  <font-face 
    font-family="Pragmatica Slabserif"
    font-weight="400"
    font-stretch="normal"
    units-per-em="1000"
    panose-1="2 6 5 3 2 2 6 2 4 4"
    ascent="800"
    descent="-200"
    x-height="508"
    cap-height="700"
    bbox="-538 -276 1245 926"
    underline-thickness="50"
    underline-position="-100"
    unicode-range="U+0020-FB02"
  />
<missing-glyph horiz-adv-x="500" 
d="M58 8h384v496h-384v-496zM50 0v512h400v-512h-400z" />
    <glyph glyph-name="afii10017.var.accented" unicode="&#x410;`" horiz-adv-x="706" 
d="M471 0v79h65l-37 102h-296l-37 -102h64v-79h-230v79h70l205 542h-78v79h208l235 -621h66v-79h-235zM229 260h244l-122 346zM372 900h112l-102 -140h-84z" />
    <glyph glyph-name="afii10022.var.accented" unicode="&#x415;`" horiz-adv-x="665" 
d="M624 490h-79v131h-326v-220h279v-79h-279v-243h337v141h79v-220h-580v79h70v542h-70v79h569v-210zM359 900h112l-102 -140h-84z" />
    <glyph glyph-name="afii10026.var.accented" unicode="&#x418;`" horiz-adv-x="811" 
d="M55 621v79h234v-79h-70v-484l373 563h164v-79h-70v-542h70v-79h-234v79h70v488l-373 -567h-164v79h70v542h-70zM432 900h112l-102 -140h-84z" />
    <glyph glyph-name="afii10032.var.accented" unicode="&#x41e;`" horiz-adv-x="758" 
d="M45 350c0 245 139 371 334 371c155 0 334 -86 334 -371c0 -366 -291 -371 -334 -371c-46 0 -334 5 -334 371zM145 350c0 -113 34 -292 234 -292c48 0 234 10 234 292c0 165 -73 292 -234 292c-214 0 -234 -216 -234 -292zM396 900h112l-102 -140h-84z" />
    <glyph glyph-name="afii10037.var.accented" unicode="&#x423;`" horiz-adv-x="651" 
d="M5 621v79h232v-79h-57l170 -342l130 342h-59v79h225v-79h-68l-263 -621h-160v79h110l37 95l-234 447h-63zM340 900h112l-102 -140h-84z" />
    <glyph glyph-name="afii10045.var.accented" unicode="&#x42b;`" horiz-adv-x="958" 
d="M669 621v79h234v-79h-70v-542h70v-79h-229v79h65v542h-70zM55 621v79h234v-79h-70v-206h172c84 0 249 -26 249 -206c0 -183 -174 -209 -247 -209h-338v79h70v542h-70zM219 336v-257h170c20 0 155 6 155 130c0 76 -52 127 -168 127h-157zM476 900h112l-102 -140h-84z" />
    <glyph glyph-name="afii10047.var.accented" unicode="&#x42d;`" horiz-adv-x="719" 
d="M244 401h330c0 54 -19 241 -220 241c-122 0 -194 -83 -205 -152h-79v210h75v-82c44 64 126 103 219 103c275 0 310 -218 310 -363c0 -139 -41 -379 -330 -379c-219 0 -288 158 -299 264h94c8 -56 46 -185 209 -185c183 0 221 144 226 231c1 11 1 22 0 33h-330v79z
M366 900h112l-102 -140h-84z" />
    <glyph glyph-name="afii10048.var.accented" unicode="&#x42e;`" horiz-adv-x="1033" 
d="M55 621v79h229v-79h-65v-213h115c11 154 105 313 324 313c193 0 330 -126 330 -371c0 -204 -93 -371 -330 -371c-258 0 -320 191 -328 350h-111v-250h65v-79h-229v79h70v542h-70zM659 58c201 0 229 180 229 292c0 260 -153 292 -229 292c-72 0 -229 -31 -229 -292
c0 -153 57 -292 229 -292zM543 900h112l-102 -140h-84z" />
    <glyph glyph-name="afii10049.var.accented" unicode="&#x42f;`" horiz-adv-x="730" 
d="M441 0v79h70v199h-164l-156 -278h-152v79h88l123 210c-62 8 -187 46 -187 202c0 115 81 209 257 209h355v-79h-70v-542h70v-79h-234zM511 621h-191c-123 0 -161 -75 -161 -131s34 -133 174 -133h178v264zM397 900h112l-102 -140h-84z" />
    <glyph glyph-name="afii10023.var.accented" unicode="&#x401;`" horiz-adv-x="665" 
d="M624 490h-79v131h-326v-220h279v-79h-279v-243h337v141h79v-220h-580v79h70v542h-70v79h569v-210zM161 782v79h94v-79h-94zM447 782v79h94v-79h-94zM340 900h112l-102 -140h-84z" />
    <glyph glyph-name="afii10065.var.accented" unicode="&#x430;`" horiz-adv-x="569" 
d="M390 0v72c-35 -64 -105 -92 -174 -92c-107 0 -179 46 -179 153c0 88 45 142 249 161c75 5 99 4 99 70c0 24 -2 102 -114 102c-32 0 -135 -2 -132 -108h-84c0 68 36 170 216 170c82 0 205 -23 202 -171v-295h64v-62h-147zM385 224v36c-26 -20 -56 -17 -112 -25
c-78 -13 -145 -16 -145 -99c0 -60 41 -94 98 -94c69 0 159 46 159 182zM284 700h106l-96 -132h-80z" />
    <glyph glyph-name="afii10070.var.accented" unicode="&#x435;`" horiz-adv-x="570" 
d="M438 147h84c-13 -72 -66 -167 -222 -167c-252 0 -257 226 -257 272c0 70 13 276 248 276c203 0 230 -159 235 -269c0 -8 1 -17 1 -25h-391c0 -87 45 -192 161 -192c85 0 130 49 141 105zM136 296h298c-3 68 -26 170 -141 170c-131 0 -157 -106 -157 -170zM293 700h106
l-96 -132h-80z" />
    <glyph glyph-name="afii10074.var.accented" unicode="&#x438;`" horiz-adv-x="658" 
d="M40 62h66v384h-66v62h220v-62h-66v-343l260 405h164v-62h-66v-384h66v-62h-220v62h66v344l-259 -406h-165v62zM339 700h106l-96 -132h-80z" />
    <glyph glyph-name="afii10080.var.accented" unicode="&#x43e;`" horiz-adv-x="586" 
d="M43 254c0 135 65 274 250 274s250 -139 250 -274s-65 -274 -250 -274s-250 139 -250 274zM136 255c0 -204 118 -213 157 -213s157 9 157 213s-118 213 -157 213s-157 -9 -157 -213zM301 700h106l-96 -132h-80z" />
    <glyph glyph-name="afii10085.var.accented" unicode="&#x443;`" horiz-adv-x="558" 
d="M-10 446v62h231v-62h-62l139 -349l114 349h-64v62h220v-62h-69l-236 -631h-140v62h87l43 123l-196 446h-67zM300 700h106l-96 -132h-80z" />
    <glyph glyph-name="afii10093.var.accented" unicode="&#x44b;`" horiz-adv-x="772" 
d="M512 446v62h220v-62h-66v-384h66v-62h-154v446h-66zM40 446v62h220v-62h-66v-139h109c78 0 208 -14 208 -150c0 -121 -107 -157 -190 -157h-281v62h66v384h-66zM194 245v-183h105c45 0 121 13 121 95c0 84 -97 88 -137 88h-89zM399 700h106l-96 -132h-80z" />
    <glyph glyph-name="afii10095.var.accented" unicode="&#x44d;`" horiz-adv-x="553" 
d="M198 233v62h219c-5 157 -105 171 -142 171c-92 0 -143 -51 -150 -118h-67v160h64v-48h3c57 68 125 68 158 68c90 0 227 -26 227 -278c0 -232 -137 -270 -241 -270c-68 0 -205 8 -232 196h84c11 -88 56 -134 148 -134c140 0 148 143 148 191h-219zM284 700h106l-96 -132
h-80z" />
    <glyph glyph-name="afii10096.var.accented" unicode="&#x44e;`" horiz-adv-x="815" 
d="M40 446v62h220v-62h-66v-147h87c11 109 76 229 244 229c130 0 247 -76 247 -273c0 -273 -218 -275 -245 -275c-190 0 -238 145 -246 257h-87v-175h66v-62h-220v62h66v384h-66zM374 255c0 -77 16 -213 153 -213c152 0 152 171 152 213c0 43 -1 211 -152 211
c-38 0 -153 -8 -153 -211zM432 700h106l-96 -132h-80z" />
    <glyph glyph-name="afii10097.var.accented" unicode="&#x44f;`" horiz-adv-x="577" 
d="M317 0v62h66v138h-116l-126 -200h-127v62h71l93 140c-64 13 -131 57 -131 149c0 64 37 157 181 157h309v-62h-66v-384h66v-62h-220zM383 446h-123c-36 0 -122 -4 -122 -95c0 -43 26 -89 125 -89h120v184zM299 700h106l-96 -132h-80z" />
    <glyph glyph-name="afii10071.var.accented" unicode="&#x451;`" horiz-adv-x="570" 
d="M438 147h84c-13 -72 -66 -167 -222 -167c-252 0 -257 226 -257 272c0 70 13 276 248 276c203 0 230 -159 235 -269c0 -8 1 -17 1 -25h-391c0 -87 45 -192 161 -192c85 0 130 49 141 105zM136 296h298c-3 68 -26 170 -141 170c-131 0 -157 -106 -157 -170zM107 588v92h88
v-92h-88zM399 588v92h88v-92h-88zM283 700h106l-96 -132h-80z" />
    <glyph glyph-name="fi" unicode="fi" horiz-adv-x="553" 
d="M354 608v92h88v-92h-88zM38 0v62h71v384h-94v62h94v69c0 88 42 127 134 127c19 0 50 -3 65 -4v-62c-43 3 -53 1 -62 1c-48 0 -49 -49 -49 -70v-61h245v-446h71v-62h-220v62h61v384h-157v-384h61v-62h-220z" />
    <glyph glyph-name="fl" unicode="fl" horiz-adv-x="553" 
d="M38 0v62h71v384h-94v62h94v69c0 88 42 127 134 127c19 0 50 -3 65 -4h134v-638h71v-62h-220v62h61v384h-157v-384h61v-62h-220zM197 508h157v130h-46c-43 3 -53 1 -62 1c-48 0 -49 -49 -49 -70v-61z" />
    <glyph glyph-name=".notdef" horiz-adv-x="500" 
d="M58 8h384v496h-384v-496zM50 0v512h400v-512h-400z" />
    <glyph glyph-name="NULL" horiz-adv-x="0" 
 />
    <glyph glyph-name="CR" horiz-adv-x="233" 
 />
    <glyph glyph-name="space" unicode=" " horiz-adv-x="233" 
 />
    <glyph glyph-name="exclam" unicode="!" horiz-adv-x="311" 
d="M106 700h99v-269l-25 -230h-49l-25 230v269zM106 0v109h99v-109h-99z" />
    <glyph glyph-name="quotedbl" unicode="&#x22;" horiz-adv-x="420" 
d="M182 700l-40 -192h-52l-40 192h132zM370 700l-40 -192h-52l-40 192h132z" />
    <glyph glyph-name="numbersign" unicode="#" 
d="M102 10l27 179h-139l12 62h137l31 202h-139l12 62h137l28 179h61l-28 -179h150l28 179h61l-28 -179h138l-12 -62h-136l-31 -202h138l-12 -62h-136l-27 -179h-61l27 179h-150l-27 -179h-61zM231 453l-31 -202h150l31 202h-150z" />
    <glyph glyph-name="dollar" unicode="$" 
d="M29 235h89c0 -141 91 -181 147 -184v272c-177 40 -213 118 -213 203c0 161 136 193 213 193v58h59v-58c34 0 102 -23 131 -70v51h72v-200h-86c0 96 -49 152 -117 153v-254c200 -35 221 -139 221 -207c0 -175 -154 -207 -221 -210v-75h-59v75c-75 3 -126 27 -162 94v-76
h-74v235zM324 314v-263c85 -3 132 72 132 141c0 91 -81 117 -132 122zM265 408v245c-44 0 -126 -24 -126 -124c0 -65 42 -105 126 -121z" />
    <glyph glyph-name="percent" unicode="%" horiz-adv-x="911" 
d="M53 513c0 165 110 200 164 200s164 -35 164 -200c0 -72 -31 -200 -164 -200s-164 128 -164 200zM117 513c0 -46 13 -147 100 -147s100 101 100 147c0 116 -60 147 -100 147s-100 -31 -100 -147zM530 192c0 165 110 200 164 200s164 -35 164 -200
c0 -72 -31 -200 -164 -200s-164 128 -164 200zM594 192c0 -46 13 -147 100 -147s100 101 100 147c0 116 -60 147 -100 147s-100 -31 -100 -147zM202 0l454 700h58l-454 -700h-58z" />
    <glyph glyph-name="ampersand" unicode="&#x26;" horiz-adv-x="683" 
d="M482 365h200v-75h-64c-11 -53 -23 -99 -55 -148l53 -63h87v-79h-125l-69 82c-47 -71 -137 -103 -217 -103c-160 0 -220 112 -220 208c0 108 56 177 169 228c-65 76 -66 129 -66 156c0 92 73 150 163 150c102 0 153 -75 153 -147c0 -89 -73 -153 -131 -179l153 -192
c10 17 19 46 26 87h-57v75zM463 139l-176 219c-100 -40 -122 -114 -122 -170c0 -60 40 -134 139 -134c65 0 126 29 159 85zM317 448c52 31 94 66 94 126c0 39 -27 75 -74 75c-36 0 -80 -24 -80 -78c0 -48 31 -87 60 -123z" />
    <glyph glyph-name="quotesingle" unicode="'" horiz-adv-x="232" 
d="M182 700l-40 -192h-52l-40 192h132z" />
    <glyph glyph-name="parenleft" unicode="(" horiz-adv-x="365" 
d="M216 700h66c-91 -176 -122 -325 -122 -442c0 -147 53 -314 122 -442h-66c-122 208 -145 313 -145 442s23 234 145 442z" />
    <glyph glyph-name="parenright" unicode=")" horiz-adv-x="365" 
d="M149 -184h-66c117 226 122 375 122 442c0 56 -4 215 -122 442h66c130 -207 145 -344 145 -442s-15 -235 -145 -442z" />
    <glyph glyph-name="asterisk" unicode="*" horiz-adv-x="465" 
d="M233 511l-80 -108l-40 30l78 108l-125 40l16 47l126 -40v132h50v-132l125 40l16 -47l-124 -40l78 -108l-41 -30z" />
    <glyph glyph-name="plus" unicode="+" horiz-adv-x="600" 
d="M50 386h219v219h62v-219h219v-62h-219v-219h-62v219h-219v62z" />
    <glyph glyph-name="comma" unicode="," horiz-adv-x="311" 
d="M106 109h99v-140c0 -80 -60 -109 -99 -117v55c28 3 50 31 50 62v31h-50v109z" />
    <glyph glyph-name="hyphen" unicode="-" horiz-adv-x="371" 
d="M50 230v79h271v-79h-271z" />
    <glyph glyph-name="period" unicode="." horiz-adv-x="311" 
d="M106 0v109h99v-109h-99z" />
    <glyph glyph-name="slash" unicode="/" horiz-adv-x="420" 
d="M0 -185l357 885h63l-357 -885h-63z" />
    <glyph glyph-name="zero" unicode="0" 
d="M290 -21c-52 0 -245 12 -245 371s193 371 245 371s245 -12 245 -371s-193 -371 -245 -371zM290 58c112 0 152 133 152 292s-40 292 -152 292s-152 -133 -152 -292s40 -292 152 -292z" />
    <glyph glyph-name="one" unicode="1" 
d="M150 621v79h214v-621h120v-79h-334v79h120v542h-120z" />
    <glyph glyph-name="two" unicode="2" 
d="M528 224v-224h-477c0 169 101 234 237 319c58 37 144 81 144 189c0 88 -58 134 -142 134c-89 0 -145 -55 -145 -139v-26h-92v21c0 63 27 223 240 223c144 0 232 -79 232 -212c0 -132 -60 -173 -223 -277c-95 -60 -134 -102 -147 -153h294v145h79z" />
    <glyph glyph-name="three" unicode="3" 
d="M40 213h90l3 -23c5 -33 22 -136 146 -136c145 0 157 104 157 148c0 77 -48 126 -128 126h-70v76h25c30 0 153 1 153 121c0 56 -28 121 -137 121c-32 0 -134 -4 -134 -159h-87c0 61 11 234 226 234c195 0 225 -136 225 -192c0 -77 -50 -136 -118 -155v-2
c71 -10 138 -71 138 -177c0 -137 -105 -216 -244 -216c-203 0 -242 141 -245 234z" />
    <glyph glyph-name="four" unicode="4" 
d="M353 162h-330v79l329 459h95v-459h110v-79h-110v-83h70v-79h-234v79h70v83zM113 241h240v336z" />
    <glyph glyph-name="five" unicode="5" 
d="M424 621h-240l-28 -207c44 39 94 53 158 53c129 0 222 -90 222 -239c0 -140 -82 -249 -254 -249c-180 0 -228 120 -236 200h92c5 -46 33 -125 142 -125c47 0 163 9 163 173c0 124 -78 165 -154 165c-46 0 -111 -21 -135 -61h-88l49 369h388v-177h-79v98z" />
    <glyph glyph-name="six" unicode="6" 
d="M525 546h-84c-24 100 -104 100 -134 100c-147 0 -170 -150 -170 -259h2c41 56 107 74 171 74c128 0 226 -87 226 -235c0 -145 -89 -247 -241 -247c-155 0 -251 81 -251 362c0 375 202 380 264 380c40 0 188 -5 217 -175zM143 224c0 -87 49 -170 156 -170
c103 0 144 85 144 173c0 85 -47 159 -146 159c-100 0 -154 -66 -154 -162z" />
    <glyph glyph-name="seven" unicode="7" 
d="M107 79h79c15 76 36 151 72 235c43 100 110 214 195 307h-330v-131h-79v210h501v-64c-94 -104 -146 -196 -194 -314c-35 -84 -55 -156 -68 -243h73v-79h-249v79z" />
    <glyph glyph-name="eight" unicode="8" 
d="M181 379c-64 23 -101 87 -101 154c0 73 41 188 210 188s210 -115 210 -188c0 -67 -37 -131 -101 -154c80 -21 127 -100 127 -181c0 -120 -73 -219 -236 -219s-236 99 -236 219c0 81 47 160 127 181zM290 412c91 0 124 55 124 118c0 36 -15 116 -124 116
s-124 -80 -124 -116c0 -63 33 -118 124 -118zM290 54c67 0 146 44 146 149c0 58 -30 137 -146 137s-146 -79 -146 -137c0 -105 77 -149 146 -149z" />
    <glyph glyph-name="nine" unicode="9" 
d="M54 154h84c24 -100 105 -100 134 -100c147 0 170 149 170 259h-2c-41 -56 -107 -74 -171 -74c-128 0 -225 87 -225 235c0 145 88 247 240 247c120 0 251 -43 251 -362c0 -333 -155 -380 -264 -380c-40 0 -188 5 -217 175zM436 476c0 87 -49 170 -156 170
c-103 0 -146 -85 -146 -173c0 -86 48 -159 148 -159s154 66 154 162z" />
    <glyph glyph-name="colon" unicode=":" horiz-adv-x="311" 
d="M106 399v109h99v-109h-99zM106 0v109h99v-109h-99z" />
    <glyph glyph-name="semicolon" unicode=";" horiz-adv-x="311" 
d="M106 399v109h99v-109h-99zM106 109h99v-140c0 -80 -60 -109 -99 -117v55c28 3 50 31 50 62v31h-50v109z" />
    <glyph glyph-name="less" unicode="&#x3c;" horiz-adv-x="600" 
d="M38 366l495 285l30 -54l-449 -255l449 -255l-30 -54l-495 285v48z" />
    <glyph glyph-name="equal" unicode="=" horiz-adv-x="600" 
d="M50 476h500v-62h-500v62zM50 276h500v-62h-500v62z" />
    <glyph glyph-name="greater" unicode="&#x3e;" horiz-adv-x="600" 
d="M562 318l-495 -285l-30 54l449 255l-449 255l30 54l495 -285v-48z" />
    <glyph glyph-name="question" unicode="?" horiz-adv-x="548" 
d="M220 0v109h99v-109h-99zM140 489h-87c-5 115 41 228 225 228c131 0 217 -65 217 -181c0 -78 -33 -120 -103 -179c-42 -34 -85 -71 -85 -133v-21h-73c-5 42 0 107 45 152c51 57 129 93 129 177c0 43 -28 113 -131 113c-37 0 -142 -7 -137 -156z" />
    <glyph glyph-name="at" unicode="@" horiz-adv-x="863" 
d="M588 82l29 -53c-61 -36 -114 -50 -186 -50c-205 0 -371 131 -371 372c0 220 165 370 371 370c253 0 372 -167 372 -350c0 -105 -65 -224 -182 -224c-27 0 -70 5 -89 48c-13 -29 -45 -54 -122 -54c-108 0 -173 77 -173 197c0 109 61 197 166 197c67 0 99 -26 118 -55h3v41
h76v-252c0 -52 18 -58 38 -58c73 0 102 89 102 160c0 190 -137 294 -309 294c-191 0 -308 -150 -308 -314c0 -220 163 -315 308 -315c76 0 126 26 157 46zM517 337c0 80 -28 132 -96 132c-72 0 -100 -63 -100 -132c0 -56 18 -131 99 -131c83 0 97 79 97 131z" />
    <glyph glyph-name="A" unicode="A" horiz-adv-x="706" 
d="M471 0v79h65l-37 102h-296l-37 -102h64v-79h-230v79h70l205 542h-78v79h208l235 -621h66v-79h-235zM229 260h244l-122 346z" />
    <glyph glyph-name="B" unicode="B" horiz-adv-x="711" 
d="M55 621v79h377c170 0 209 -96 209 -178c0 -75 -52 -140 -117 -150v-3c58 -10 147 -49 147 -174c0 -100 -51 -195 -250 -195h-366v79h70v542h-70zM219 324v-245h195c65 0 161 10 161 124c0 90 -63 121 -161 121h-195zM219 621v-218h189c103 0 137 51 137 109
c0 40 -17 109 -134 109h-192z" />
    <glyph glyph-name="C" unicode="C" horiz-adv-x="712" 
d="M652 490h-79c-5 51 -44 152 -205 152c-176 0 -223 -148 -223 -300c0 -163 89 -284 237 -284c112 0 193 74 198 174h94c-13 -100 -71 -253 -296 -253c-208 0 -333 135 -333 359c0 372 258 383 317 383c95 0 167 -31 216 -93v72h74v-210z" />
    <glyph glyph-name="D" unicode="D" horiz-adv-x="756" 
d="M55 621v79h322c72 0 339 -12 339 -348c0 -340 -255 -352 -374 -352h-287v79h70v542h-70zM219 621v-542h126c181 0 271 87 271 271c0 208 -125 271 -244 271h-153z" />
    <glyph glyph-name="E" unicode="E" horiz-adv-x="665" 
d="M624 490h-79v131h-326v-220h279v-79h-279v-243h337v141h79v-220h-580v79h70v542h-70v79h569v-210z" />
    <glyph glyph-name="F" unicode="F" horiz-adv-x="615" 
d="M595 490h-79v131h-297v-228h244v-79h-244v-235h70v-79h-234v79h70v542h-70v79h540v-210z" />
    <glyph glyph-name="G" unicode="G" horiz-adv-x="787" 
d="M400 286v79h357v-79h-75v-286h-73v113h-2c-40 -84 -121 -134 -233 -134c-167 0 -329 97 -329 378c0 237 130 364 338 364c88 0 162 -28 209 -93v72h73v-210h-79c-5 63 -56 152 -201 152c-221 0 -240 -213 -240 -288c0 -51 15 -296 239 -296c172 0 212 142 212 228h-196z
" />
    <glyph glyph-name="H" unicode="H" horiz-adv-x="797" 
d="M508 0v79h70v250h-359v-250h70v-79h-234v79h70v542h-70v79h234v-79h-70v-213h359v213h-70v79h234v-79h-70v-542h70v-79h-234z" />
    <glyph glyph-name="I" unicode="I" horiz-adv-x="344" 
d="M55 621v79h234v-79h-70v-542h70v-79h-234v79h70v542h-70z" />
    <glyph glyph-name="J" unicode="J" horiz-adv-x="553" 
d="M279 621v79h239v-79h-70v-379c0 -183 -58 -263 -211 -263c-71 0 -214 16 -214 217v36h94c0 -111 27 -174 121 -174c100 0 116 73 116 175v388h-75z" />
    <glyph glyph-name="K" unicode="K" horiz-adv-x="655" 
d="M249 360l218 261h-52v79h217v-79h-58l-214 -256l228 -286h62v-79h-229v79h52zM219 621v-542h70v-79h-234v79h70v542h-70v79h234v-79h-70z" />
    <glyph glyph-name="L" unicode="L" horiz-adv-x="600" 
d="M55 621v79h234v-79h-70v-542h282v156h79v-235h-525v79h70v542h-70z" />
    <glyph glyph-name="M" unicode="M" horiz-adv-x="990" 
d="M701 0v79h70v485l2 27h-3l-237 -591h-76l-238 591h-2l2 -27v-485h70v-79h-234v79h70v542h-70v79h214l229 -581l229 581h208v-79h-70v-542h70v-79h-234z" />
    <glyph glyph-name="N" unicode="N" horiz-adv-x="816" 
d="M527 621v79h234v-79h-70v-621h-103l-369 560v-481h70v-79h-234v79h70v542h-70v79h174l368 -560v481h-70z" />
    <glyph glyph-name="O" unicode="O" horiz-adv-x="758" 
d="M45 350c0 245 139 371 334 371c155 0 334 -86 334 -371c0 -366 -291 -371 -334 -371c-46 0 -334 5 -334 371zM145 350c0 -113 34 -292 234 -292c48 0 234 10 234 292c0 165 -73 292 -234 292c-214 0 -234 -216 -234 -292z" />
    <glyph glyph-name="P" unicode="P" horiz-adv-x="675" 
d="M55 621v79h337c144 0 255 -63 255 -203c0 -125 -84 -218 -265 -218h-163v-200h70v-79h-234v79h70v542h-70zM219 621v-263h159c113 0 173 52 173 139c0 81 -65 124 -173 124h-159z" />
    <glyph glyph-name="Q" unicode="Q" horiz-adv-x="758" 
d="M612 62l79 -87l-52 -49l-83 93c-13 -8 -70 -40 -177 -40c-271 0 -334 219 -334 371c0 119 47 371 334 371c195 0 334 -126 334 -371c0 -72 -8 -189 -101 -288zM471 220l79 -89c43 56 63 119 63 219c0 261 -162 292 -234 292c-76 0 -234 -32 -234 -292
c0 -108 34 -292 234 -292c33 0 84 7 116 28l-78 87z" />
    <glyph glyph-name="R" unicode="R" horiz-adv-x="731" 
d="M539 0l-106 297h-214v-218h70v-79h-234v79h70v542h-70v79h365c81 0 248 -21 248 -198c0 -73 -46 -156 -139 -191l74 -232h88v-79h-152zM219 621v-245h201c44 0 148 18 148 126c0 92 -74 119 -162 119h-187z" />
    <glyph glyph-name="S" unicode="S" horiz-adv-x="656" 
d="M578 500h-79c-5 89 -98 142 -180 142c-97 0 -150 -45 -150 -117c0 -85 83 -99 175 -117c125 -24 267 -59 267 -218c0 -200 -194 -211 -252 -211c-60 0 -175 14 -225 93v-72h-74v235h79c3 -87 76 -177 200 -177s172 63 172 130c0 86 -76 109 -141 123
c-160 35 -301 51 -301 212c0 132 96 198 249 198c76 0 148 -31 188 -84v63h72v-200z" />
    <glyph glyph-name="T" unicode="T" horiz-adv-x="638" 
d="M202 0v79h70v542h-183v-171h-79v250h618v-250h-79v171h-183v-542h70v-79h-234z" />
    <glyph glyph-name="U" unicode="U" horiz-adv-x="772" 
d="M498 621v79h234v-79h-70v-350c0 -285 -200 -292 -276 -292c-256 0 -276 172 -276 292v350h-70v79h234v-79h-70v-338c0 -86 6 -225 182 -225c139 0 182 78 182 225v338h-70z" />
    <glyph glyph-name="V" unicode="V" horiz-adv-x="684" 
d="M0 621v79h234v-79h-63l176 -524l176 524h-62v79h223v-79h-62l-221 -621h-112l-222 621h-67z" />
    <glyph glyph-name="W" unicode="W" horiz-adv-x="989" 
d="M764 621v79h225v-79h-61l-165 -621h-120l-145 589l-145 -589h-120l-165 621h-68v79h232v-79h-60l127 -509l145 588h108l145 -588l126 509h-59z" />
    <glyph glyph-name="X" unicode="X" horiz-adv-x="672" 
d="M20 621v79h231v-79h-55l139 -196l138 196h-55v79h232v-79h-63l-192 -263l209 -279h63v-79h-234v79h54l-152 212l-148 -212h52v-79h-234v79h65l205 279l-193 263h-62z" />
    <glyph glyph-name="Y" unicode="Y" horiz-adv-x="634" 
d="M0 621v79h237v-79h-62l148 -245l146 245h-55v79h220v-79h-60l-209 -329v-213h70v-79h-234v79h70v213l-209 329h-62z" />
    <glyph glyph-name="Z" unicode="Z" horiz-adv-x="614" 
d="M132 490h-79v210h506v-75l-409 -546h350v156h79v-235h-544v86l414 535h-317v-131z" />
    <glyph glyph-name="bracketleft" unicode="[" horiz-adv-x="370" 
d="M106 700h211v-62h-123v-761h123v-62h-211v885z" />
    <glyph glyph-name="backslash" unicode="\" horiz-adv-x="420" 
d="M420 -185h-63l-357 885h63z" />
    <glyph glyph-name="bracketright" unicode="]" horiz-adv-x="370" 
d="M53 700h211v-885h-211v62h122v761h-122v62z" />
    <glyph glyph-name="asciicircum" unicode="^" horiz-adv-x="442" 
d="M176 700h90l120 -218h-70l-95 175l-95 -175h-70z" />
    <glyph glyph-name="underscore" unicode="_" horiz-adv-x="497" 
d="M0 -185v78h497v-78h-497z" />
    <glyph glyph-name="grave" unicode="`" horiz-adv-x="312" 
d="M148 700l70 -132h-80l-96 132h106z" />
    <glyph glyph-name="a" unicode="a" horiz-adv-x="569" 
d="M390 0v72c-35 -64 -105 -92 -174 -92c-107 0 -179 46 -179 153c0 88 45 142 249 161c75 5 99 4 99 70c0 24 -2 102 -114 102c-32 0 -135 -2 -132 -108h-84c0 68 36 170 216 170c82 0 205 -23 202 -171v-295h64v-62h-147zM385 224v36c-26 -20 -56 -17 -112 -25
c-78 -13 -145 -16 -145 -99c0 -60 41 -94 98 -94c69 0 159 46 159 182z" />
    <glyph glyph-name="b" unicode="b" horiz-adv-x="635" 
d="M40 638v62h154v-258c28 60 94 86 167 86c220 0 231 -211 231 -273c0 -221 -139 -275 -233 -275c-84 0 -136 43 -168 90h-3v-70h-148v62h66v576h-66zM188 257c0 -160 76 -215 152 -215c84 0 159 55 159 213c0 152 -71 211 -154 211c-85 0 -157 -61 -157 -209z" />
    <glyph glyph-name="c" unicode="c" horiz-adv-x="552" 
d="M496 348h-67c-19 113 -113 118 -144 118c-109 0 -149 -93 -149 -208s45 -216 157 -216c100 0 132 83 135 139h84c-5 -60 -41 -201 -221 -201c-51 0 -248 7 -248 278c0 118 44 270 240 270c68 0 121 -26 148 -66h3v46h62v-160z" />
    <glyph glyph-name="d" unicode="d" horiz-adv-x="633" 
d="M373 638v62h154v-638h66v-62h-148v70h-3c-17 -33 -61 -90 -168 -90c-148 0 -231 112 -231 275c0 107 33 273 229 273c68 0 126 -17 167 -86v196h-66zM136 255c0 -192 106 -213 157 -213c77 0 152 58 152 215c0 147 -73 209 -157 209s-152 -62 -152 -211z" />
    <glyph glyph-name="e" unicode="e" horiz-adv-x="570" 
d="M438 147h84c-13 -72 -66 -167 -222 -167c-252 0 -257 226 -257 272c0 70 13 276 248 276c203 0 230 -159 235 -269c0 -8 1 -17 1 -25h-391c0 -87 45 -192 161 -192c85 0 130 49 141 105zM136 296h298c-3 68 -26 170 -141 170c-131 0 -157 -106 -157 -170z" />
    <glyph glyph-name="f" unicode="f" horiz-adv-x="313" 
d="M28 0v62h71v384h-84v62h84v69c0 88 42 127 134 127c19 0 48 -1 75 -5v-62c-28 3 -47 2 -72 2c-48 0 -49 -49 -49 -70v-61h91v-62h-91v-384h71v-62h-230z" />
    <glyph glyph-name="g" unicode="g" horiz-adv-x="627" 
d="M78 -57h84c16 -59 80 -73 134 -73c138 0 140 131 140 158v55c-47 -76 -89 -103 -164 -103c-120 0 -229 82 -229 278c0 47 0 270 220 270c85 0 143 -30 176 -90h3v70h145v-62h-63v-433c0 -195 -179 -206 -228 -206s-186 -2 -218 136zM292 42c32 0 150 22 150 218
c0 129 -54 206 -158 206c-148 0 -148 -164 -148 -205c0 -205 115 -219 156 -219z" />
    <glyph glyph-name="h" unicode="h" horiz-adv-x="640" 
d="M380 0v62h66v249c0 59 3 155 -106 155c-48 0 -146 -21 -146 -189v-215h66v-62h-220v62h66v576h-66v62h154v-263c47 64 102 91 174 91c169 0 166 -148 166 -190v-276h66v-62h-220z" />
    <glyph glyph-name="i" unicode="i" horiz-adv-x="300" 
d="M40 446v62h154v-446h66v-62h-220v62h66v384h-66zM106 608v92h88v-92h-88z" />
    <glyph glyph-name="j" unicode="j" horiz-adv-x="262" 
d="M38 446v62h154v-555c0 -91 -26 -142 -120 -142c-17 0 -45 3 -57 4v62c92 16 89 20 89 87v482h-66zM104 608v92h88v-92h-88z" />
    <glyph glyph-name="k" unicode="k" horiz-adv-x="543" 
d="M40 638v62h154v-638h66v-62h-220v62h66v576h-66zM219 266l152 180h-49v62h198v-62h-58l-152 -177l166 -207h67v-62h-116z" />
    <glyph glyph-name="l" unicode="l" horiz-adv-x="300" 
d="M40 638v62h154v-638h66v-62h-220v62h66v576h-66z" />
    <glyph glyph-name="m" unicode="m" horiz-adv-x="940" 
d="M363 0v62h63v259c0 74 -18 145 -98 145c-73 0 -134 -63 -134 -163v-241h63v-62h-217v62h66v384h-66v62h154v-73c27 60 93 93 156 93c88 0 132 -56 145 -109c18 39 71 109 176 109c156 0 163 -144 163 -200v-266h66v-62h-217v62h63v260c0 53 -7 144 -98 144
c-60 0 -134 -32 -134 -163v-241h63v-62h-214z" />
    <glyph glyph-name="n" unicode="n" horiz-adv-x="641" 
d="M381 0v62h66v249c0 54 2 155 -107 155c-48 0 -146 -21 -146 -189v-215h66v-62h-220v62h66v384h-66v62h154v-71c35 51 94 91 174 91c133 0 167 -89 167 -190v-276h66v-62h-220z" />
    <glyph glyph-name="o" unicode="o" horiz-adv-x="586" 
d="M43 254c0 135 65 274 250 274s250 -139 250 -274s-65 -274 -250 -274s-250 139 -250 274zM136 255c0 -204 118 -213 157 -213s157 9 157 213s-118 213 -157 213s-157 -9 -157 -213z" />
    <glyph glyph-name="p" unicode="p" horiz-adv-x="631" 
d="M40 446v62h148v-70h3c51 77 124 90 168 90c125 0 229 -84 229 -274c0 -197 -111 -274 -227 -274c-20 0 -122 5 -167 93v-196h66v-62h-220v62h66v569h-66zM188 252c0 -157 90 -210 157 -210c71 0 150 50 150 212c0 132 -55 212 -155 212c-45 0 -152 -22 -152 -214z" />
    <glyph glyph-name="q" unicode="q" horiz-adv-x="632" 
d="M592 -123v-62h-220v62h66v195c-11 -21 -52 -92 -167 -92c-193 0 -228 177 -228 274c0 148 75 274 231 274c84 0 136 -42 167 -90h3v70h148v-62h-66v-569h66zM136 254c0 -162 79 -212 152 -212c67 0 156 52 156 210c0 169 -82 214 -151 214c-83 0 -157 -57 -157 -212z" />
    <glyph glyph-name="r" unicode="r" horiz-adv-x="403" 
d="M40 446v62h154v-98h2c24 75 97 114 168 117l26 1v-62c-118 -5 -187 -50 -195 -178c-1 -9 -1 -18 -1 -27v-199h66v-62h-220v62h66v384h-66z" />
    <glyph glyph-name="s" unicode="s" horiz-adv-x="524" 
d="M390 508h59v-140h-62c-3 22 -28 98 -126 98c-11 0 -103 1 -103 -80c0 -72 66 -78 138 -94c104 -24 178 -52 178 -152c0 -156 -155 -160 -196 -160c-51 0 -121 17 -156 70h-3v-50h-62v175h62c8 -81 68 -133 145 -133c117 0 119 68 119 89c0 33 -5 67 -104 91l-54 12
c-85 19 -158 45 -158 148c0 108 91 146 183 146c60 0 113 -25 137 -60h3v40z" />
    <glyph glyph-name="t" unicode="t" horiz-adv-x="320" 
d="M13 508h91v152h88v-152h108v-62h-108v-323c0 -37 -3 -70 53 -70c19 0 38 4 55 9v-62c-28 -12 -61 -20 -92 -20c-105 0 -104 72 -104 125v341h-91v62z" />
    <glyph glyph-name="u" unicode="u" horiz-adv-x="641" 
d="M535 508v-446h66v-62h-154v72h-2c-51 -88 -154 -92 -172 -92c-150 0 -167 115 -167 191v275h-66v62h154v-311c0 -128 44 -155 107 -155c148 0 146 153 146 189v215h-66v62h154z" />
    <glyph glyph-name="v" unicode="v" horiz-adv-x="541" 
d="M-10 446v62h215v-62h-57l125 -358l123 358h-63v62h218v-62h-63l-166 -446h-102l-167 446h-63z" />
    <glyph glyph-name="w" unicode="w" horiz-adv-x="800" 
d="M596 446v62h214v-62h-65l-147 -446h-94l-106 407l-106 -407h-94l-147 446h-61v62h211v-62h-60l108 -345l106 407h86l106 -407l108 345h-59z" />
    <glyph glyph-name="x" unicode="x" horiz-adv-x="539" 
d="M322 0v62h55l-107 149l-106 -149h55v-62h-214v62h63l152 203l-141 181h-53v62h207v-62h-56l93 -128l91 128h-52v62h203v-62h-55l-137 -181l157 -203h57v-62h-212z" />
    <glyph glyph-name="y" unicode="y" horiz-adv-x="558" 
d="M-10 446v62h231v-62h-62l139 -349l114 349h-64v62h220v-62h-69l-236 -631h-140v62h87l43 123l-196 446h-67z" />
    <glyph glyph-name="z" unicode="z" horiz-adv-x="470" 
d="M382 175h62v-175h-418v62l304 384h-221v-98h-62v160h380v-62l-295 -384h250v113z" />
    <glyph glyph-name="braceleft" unicode="{" horiz-adv-x="366" 
d="M75 224v66c32 3 89 27 89 135c0 36 -4 72 -4 107c0 61 16 160 156 168v-53c-47 -10 -70 -42 -70 -95c0 -17 1 -35 3 -53c2 -19 3 -38 3 -57c0 -92 -35 -147 -116 -184v-2c81 -37 116 -92 116 -184c0 -19 -1 -38 -3 -57c-2 -18 -3 -36 -3 -53c0 -53 23 -85 70 -95v-53
c-140 8 -156 107 -156 168c0 35 4 71 4 107c0 112 -57 130 -89 135z" />
    <glyph glyph-name="bar" unicode="|" horiz-adv-x="478" 
d="M208 -224v1053h62v-1053h-62z" />
    <glyph glyph-name="braceright" unicode="}" horiz-adv-x="366" 
d="M291 290v-66c-32 -5 -89 -23 -89 -135c0 -36 4 -72 4 -107c0 -61 -16 -160 -156 -168v53c47 10 70 42 70 95c0 17 -1 35 -3 53c-2 19 -3 38 -3 57c0 92 35 147 116 184v2c-81 37 -116 92 -116 184c0 19 1 38 3 57c2 18 3 36 3 53c0 53 -23 85 -70 95v53
c140 -8 156 -107 156 -168c0 -35 -4 -71 -4 -107c0 -108 57 -132 89 -135z" />
    <glyph glyph-name="asciitilde" unicode="~" horiz-adv-x="600" 
d="M89 288l-39 16c19 51 61 128 133 128c31 0 60 -8 87 -23l103 -55c1 -1 25 -13 52 -13c20 0 59 12 86 81l39 -16c-18 -52 -61 -128 -133 -128c-31 0 -60 8 -87 23l-103 55c-15 7 -36 13 -53 13c-39 0 -70 -38 -85 -81z" />
    <glyph glyph-name="Zcaron" horiz-adv-x="614" 
d="M132 490h-79v210h506v-75l-409 -546h350v156h79v-235h-544v86l414 535h-317v-131zM376 760h-142l-125 140h94l102 -105l102 105h94z" />
    <glyph glyph-name="Zcaron" unicode="&#x17d;" horiz-adv-x="614" 
d="M132 490h-79v210h506v-75l-409 -546h350v156h79v-235h-544v86l414 535h-317v-131zM376 760h-142l-125 140h94l102 -105l102 105h94z" />
    <glyph glyph-name="zcaron" horiz-adv-x="470" 
d="M382 175h62v-175h-418v62l304 384h-221v-98h-62v160h380v-62l-295 -384h250v113zM312 568h-132l-119 132h88l97 -99l97 99h88z" />
    <glyph glyph-name="zcaron" unicode="&#x17e;" horiz-adv-x="470" 
d="M382 175h62v-175h-418v62l304 384h-221v-98h-62v160h380v-62l-295 -384h250v113zM312 568h-132l-119 132h88l97 -99l97 99h88z" />
    <glyph glyph-name="uni00A0" unicode="&#xa0;" horiz-adv-x="233" 
 />
    <glyph glyph-name="exclamdown" unicode="&#xa1;" horiz-adv-x="311" 
d="M205 -192h-99v269l25 230h49l25 -230v-269zM106 399v109h99v-109h-99z" />
    <glyph glyph-name="cent" unicode="&#xa2;" 
d="M513 348h-67c-16 84 -71 110 -112 115v-419c81 11 108 85 111 137h84c-5 -57 -36 -187 -195 -200v-73h-59v74c-75 8 -215 46 -215 276c0 113 39 256 215 269v67h59v-68c51 -7 91 -31 114 -64h3v46h62v-160zM153 258c0 -101 35 -195 122 -213v419
c-90 -13 -122 -101 -122 -206z" />
    <glyph glyph-name="sterling" unicode="&#xa3;" 
d="M507 106l44 -60c-36 -36 -73 -67 -132 -67c-73 0 -149 52 -206 52c-28 0 -65 -6 -108 -38l-45 65c61 43 101 94 101 167c0 29 -8 52 -16 79h-104v61h73c-27 56 -38 85 -38 140c0 209 197 216 223 216c71 0 132 -22 167 -78v57h74v-219h-89v33c0 76 -59 142 -141 142
c-91 0 -142 -67 -142 -157c0 -51 18 -78 47 -134h141v-61h-117c7 -21 9 -38 9 -62c0 -45 -9 -93 -65 -144l2 -6c21 9 44 11 73 11c53 0 122 -43 164 -43c39 0 68 25 85 46z" />
    <glyph glyph-name="currency" unicode="&#xa4;" 
d="M-56 53l111 111c-39 56 -52 114 -52 166c0 40 8 106 52 166l-111 112l66 66l110 -112c57 44 119 57 170 57c94 0 152 -42 170 -57l111 112l66 -66l-111 -112c39 -53 53 -113 53 -166c0 -52 -14 -110 -53 -166l111 -111l-66 -66l-111 111c-21 -16 -74 -56 -170 -56
c-94 0 -151 40 -170 56l-110 -111zM77 330c0 -117 95 -214 213 -214c119 0 215 98 215 214c0 117 -98 215 -215 215c-116 0 -213 -98 -213 -215z" />
    <glyph glyph-name="yen" unicode="&#xa5;" 
d="M120 200h124v42h-124v54h121l-201 325h-62v79h237v-79h-62l143 -255l141 255h-55v79h220v-79h-60l-202 -325h124v-54h-126v-42h126v-54h-126v-67h70v-79h-234v79h70v67h-124v54z" />
    <glyph glyph-name="brokenbar" unicode="&#xa6;" horiz-adv-x="478" 
d="M208 206h62v-430h-62v430zM270 399h-62v430h62v-430z" />
    <glyph glyph-name="section" unicode="&#xa7;" horiz-adv-x="579" 
d="M94 -123v155h84c-3 -48 29 -110 100 -110c74 0 92 41 92 76c0 69 -66 85 -143 117c-71 29 -163 77 -163 199c0 94 54 143 119 159c-36 27 -53 61 -53 117c0 71 53 131 161 131c25 0 81 -6 111 -52v31h72v-147h-81c-3 92 -66 102 -103 102c-51 0 -75 -26 -75 -67
c0 -75 76 -92 151 -124c94 -40 149 -92 149 -190c0 -110 -86 -148 -122 -159c60 -30 61 -98 61 -111c0 -140 -139 -148 -175 -148c-51 0 -94 17 -113 48v-27h-72zM332 150c40 11 98 47 98 128c0 69 -39 105 -186 158c-71 -20 -96 -68 -96 -117c0 -98 74 -121 184 -169z" />
    <glyph glyph-name="dieresis" unicode="&#xa8;" horiz-adv-x="386" 
d="M50 608v92h88v-92h-88zM248 608v92h88v-92h-88z" />
    <glyph glyph-name="copyright" unicode="&#xa9;" horiz-adv-x="820" 
d="M60 350c0 193 154 350 350 350s350 -157 350 -350s-154 -350 -350 -350s-350 157 -350 350zM126 350c0 -165 125 -297 284 -297s284 132 284 297s-125 297 -284 297s-284 -132 -284 -297zM548 420h-62c-3 22 -12 69 -76 69c-85 0 -94 -91 -94 -138c0 -37 14 -129 99 -129
c61 0 74 51 77 75h66c-19 -107 -84 -125 -144 -125c-137 0 -166 111 -166 179c0 152 93 188 160 188c32 0 69 -11 92 -48v38h48v-109z" />
    <glyph glyph-name="ordfeminine" unicode="&#xaa;" horiz-adv-x="368" 
d="M106 619h-50c0 43 21 102 130 102c120 0 119 -79 119 -103v-177h32v-39h-83v44c-23 -35 -62 -54 -101 -54c-59 0 -108 22 -108 92c0 87 103 91 150 96c42 3 59 2 59 42c0 10 1 62 -68 62c-31 0 -77 -5 -80 -65zM253 534l1 26c-10 -10 -18 -7 -67 -15
c-47 -8 -87 -10 -87 -59c0 -37 24 -57 59 -57c39 0 91 21 94 105zM37 319v37h299v-37h-299z" />
    <glyph glyph-name="guillemotleft" unicode="&#xab;" horiz-adv-x="462" 
d="M105 272l106 -90v-82l-149 131v82l149 131v-82zM281 272l106 -90v-82l-149 131v82l149 131v-82z" />
    <glyph glyph-name="logicalnot" unicode="&#xac;" horiz-adv-x="600" 
d="M50 386h500v-202h-62v140h-438v62z" />
    <glyph glyph-name="uni00AD" unicode="&#xad;" horiz-adv-x="371" 
d="M50 230v79h271v-79h-271z" />
    <glyph glyph-name="registered" unicode="&#xae;" horiz-adv-x="648" 
d="M60 436c0 147 117 264 264 264s264 -117 264 -264s-117 -264 -264 -264s-264 117 -264 264zM374 320l-49 96h-42v-59h24v-37h-104v37h29v170h-29v37h151c37 0 82 -20 82 -73c0 -29 -24 -64 -60 -71l38 -63h32v-37h-72zM283 527v-73h46c23 0 49 5 49 36
c0 35 -33 37 -54 37h-41zM123 435c0 -111 88 -203 200 -203c111 0 201 92 201 203s-90 205 -201 205c-112 0 -200 -94 -200 -205z" />
    <glyph glyph-name="overscore" unicode="&#xaf;" horiz-adv-x="416" 
d="M50 613v60h316v-60h-316z" />
    <glyph glyph-name="degree" unicode="&#xb0;" horiz-adv-x="266" 
d="M37 605c0 53 43 96 96 96s96 -43 96 -96s-43 -96 -96 -96s-96 43 -96 96zM83 605c0 -27 23 -50 50 -50s50 23 50 50s-23 50 -50 50s-50 -23 -50 -50z" />
    <glyph glyph-name="plusminus" unicode="&#xb1;" horiz-adv-x="600" 
d="M50 451h219v199h62v-199h219v-62h-219v-179h-62v179h-219v62zM50 142h500v-62h-500v62z" />
    <glyph glyph-name="twosuperior" unicode="&#xb2;" horiz-adv-x="360" 
d="M186 419c-64 -40 -81 -64 -86 -91h183v88h48v-136h-294c3 101 55 138 140 191c48 29 88 57 88 114c0 32 -15 80 -84 80c-56 0 -87 -32 -87 -83v-16h-56v13c0 25 9 134 144 134c84 0 141 -44 141 -128c0 -91 -73 -126 -137 -166z" />
    <glyph glyph-name="threesuperior" unicode="&#xb3;" horiz-adv-x="360" 
d="M34 408h54c0 -77 61 -93 90 -93c21 0 92 4 92 86c0 47 -29 74 -74 74h-43v48h17c19 0 90 1 90 72c0 28 -16 70 -81 70c-56 0 -79 -33 -82 -93h-52c0 60 24 141 136 141c81 0 133 -44 133 -116c0 -57 -38 -83 -69 -93v-3c43 -7 81 -40 81 -104c0 -81 -57 -130 -145 -130
c-121 0 -144 86 -147 141z" />
    <glyph glyph-name="acute" unicode="&#xb4;" horiz-adv-x="312" 
d="M164 700h106l-96 -132h-80z" />
    <glyph glyph-name="mu" unicode="&#xb5;" horiz-adv-x="641" 
d="M535 508v-446h66v-62h-154v72h-2c-29 -76 -111 -92 -135 -92c-40 0 -85 13 -116 64v-229h-88v631h-66v62h154v-271c0 -121 39 -195 120 -195c148 0 133 183 133 219v185h-66v62h154z" />
    <glyph glyph-name="mu" unicode="&#x3bc;" horiz-adv-x="641" 
d="M535 508v-446h66v-62h-154v72h-2c-29 -76 -111 -92 -135 -92c-40 0 -85 13 -116 64v-229h-88v631h-66v62h154v-271c0 -121 39 -195 120 -195c148 0 133 183 133 219v185h-66v62h154z" />
    <glyph glyph-name="paragraph" unicode="&#xb6;" horiz-adv-x="491" 
d="M362 -185v832h-95v-832h-62v555c-92 3 -165 70 -165 165c0 92 74 165 165 165h293v-53h-74v-832h-62z" />
    <glyph glyph-name="middot" unicode="&#xb7;" horiz-adv-x="250" 
d="M76 213v110h99v-110h-99z" />
    <glyph glyph-name="cedilla" unicode="&#xb8;" horiz-adv-x="298" 
d="M43 -232l17 56c11 -4 27 -8 62 -8c45 0 63 16 63 37c0 29 -30 37 -59 37h-27h-17l15 52h32c115 0 133 -47 133 -88c0 -34 -21 -94 -128 -94c-15 0 -44 1 -91 8z" />
    <glyph glyph-name="onesuperior" unicode="&#xb9;" horiz-adv-x="360" 
d="M78 652v48h139v-372h83v-48h-222v48h83v324h-83z" />
    <glyph glyph-name="ordmasculine" unicode="&#xba;" horiz-adv-x="385" 
d="M43 557c0 72 31 164 149 164c120 0 150 -92 150 -164s-30 -165 -150 -165c-118 0 -149 93 -149 165zM99 557c0 -25 1 -128 93 -128c91 0 94 104 94 128c0 123 -70 127 -94 127c-23 0 -93 -4 -93 -127zM43 319v37h299v-37h-299z" />
    <glyph glyph-name="guillemotright" unicode="&#xbb;" horiz-adv-x="462" 
d="M357 272l-106 90v82l149 -131v-82l-149 -131v82zM181 272l-106 90v82l149 -131v-82l-149 -131v82z" />
    <glyph glyph-name="onequarter" unicode="&#xbc;" horiz-adv-x="833" 
d="M522 145h144v201zM78 652v48h139v-372h83v-48h-222v48h83v324h-83zM180 0l454 700h58l-454 -700h-58zM613 0v48h53v49h-198v48l197 275h57v-275h66v-48h-66v-49h53v-48h-162z" />
    <glyph glyph-name="onehalf" unicode="&#xbd;" horiz-adv-x="860" 
d="M78 652v48h139v-372h83v-48h-222v48h83v324h-83zM180 0l454 700h58l-454 -700h-58zM677 139c-64 -40 -81 -64 -86 -91h183v88h48v-136h-294c3 101 55 138 140 191c48 29 88 57 88 114c0 32 -15 80 -84 80c-56 0 -87 -32 -87 -83v-16h-56v13c0 25 9 134 144 134
c84 0 141 -44 141 -128c0 -91 -73 -126 -137 -166z" />
    <glyph glyph-name="threequarters" unicode="&#xbe;" horiz-adv-x="849" 
d="M538 145h144v201zM34 408h54c0 -77 61 -93 90 -93c21 0 92 4 92 86c0 47 -29 74 -74 74h-43v48h17c19 0 90 1 90 72c0 28 -16 70 -81 70c-56 0 -79 -33 -82 -93h-52c0 60 24 141 136 141c81 0 133 -44 133 -116c0 -57 -38 -83 -69 -93v-3c43 -7 81 -40 81 -104
c0 -81 -57 -130 -145 -130c-121 0 -144 86 -147 141zM194 0l454 700h58l-454 -700h-58zM629 0v48h53v49h-198v48l197 275h57v-275h66v-48h-66v-49h53v-48h-162z" />
    <glyph glyph-name="questiondown" unicode="&#xbf;" horiz-adv-x="548" 
d="M328 508v-109h-99v109h99zM408 19h87c5 -115 -41 -228 -225 -228c-131 0 -217 65 -217 181c0 78 33 120 103 179c42 34 85 71 85 133v21h73c5 -42 0 -107 -45 -152c-51 -57 -129 -93 -129 -177c0 -43 28 -113 131 -113c37 0 142 7 137 156z" />
    <glyph glyph-name="Agrave" unicode="&#xc0;" horiz-adv-x="706" 
d="M471 0v79h65l-37 102h-296l-37 -102h64v-79h-230v79h70l205 542h-78v79h208l235 -621h66v-79h-235zM229 260h244l-122 346zM327 900l75 -140h-84l-103 140h112z" />
    <glyph glyph-name="Aacute" unicode="&#xc1;" horiz-adv-x="706" 
d="M471 0v79h65l-37 102h-296l-37 -102h64v-79h-230v79h70l205 542h-78v79h208l235 -621h66v-79h-235zM229 260h244l-122 346zM372 900h112l-102 -140h-84z" />
    <glyph glyph-name="Acircumflex" unicode="&#xc2;" horiz-adv-x="706" 
d="M471 0v79h65l-37 102h-296l-37 -102h64v-79h-230v79h70l205 542h-78v79h208l235 -621h66v-79h-235zM229 260h244l-122 346zM139 760l125 140h142l125 -140h-94l-102 105l-102 -105h-94z" />
    <glyph glyph-name="Atilde" unicode="&#xc3;" horiz-adv-x="706" 
d="M471 0v79h65l-37 102h-296l-37 -102h64v-79h-230v79h70l205 542h-78v79h208l235 -621h66v-79h-235zM229 260h244l-122 346zM476 875h65c-8 -56 -45 -115 -123 -115c-59 0 -111 55 -167 55c-31 0 -52 -15 -59 -44h-66c8 57 53 112 125 112c77 0 107 -55 165 -55
c25 0 52 12 60 47z" />
    <glyph glyph-name="Adieresis" unicode="&#xc4;" horiz-adv-x="706" 
d="M471 0v79h65l-37 102h-296l-37 -102h64v-79h-230v79h70l205 542h-78v79h208l235 -621h66v-79h-235zM229 260h244l-122 346zM176 772v79h94v-79h-94zM392 772v79h94v-79h-94z" />
    <glyph glyph-name="Aring" unicode="&#xc5;" horiz-adv-x="706" 
d="M471 0v79h65l-37 102h-296l-37 -102h64v-79h-230v79h70l205 542h-78v79h208l235 -621h66v-79h-235zM229 260h244l-122 346zM239 828c0 56 42 98 98 98s98 -42 98 -98s-42 -98 -98 -98s-98 42 -98 98zM281 828c0 -31 25 -56 56 -56s56 25 56 56s-25 56 -56 56
s-56 -25 -56 -56z" />
    <glyph glyph-name="AE" unicode="&#xc6;" horiz-adv-x="1034" 
d="M993 490h-79v131h-326v-220h279v-79h-279v-243h337v141h79v-220h-580v79h70v102h-264l-56 -102h60v-79h-234v79h73l302 542h-66v79h684v-210zM494 260v361h-27l-195 -361h222z" />
    <glyph glyph-name="Ccedilla" unicode="&#xc7;" horiz-adv-x="712" 
d="M652 490h-79c-5 51 -44 152 -205 152c-176 0 -223 -148 -223 -300c0 -163 89 -284 237 -284c112 0 193 74 198 174h94c-13 -100 -71 -253 -296 -253c-208 0 -333 135 -333 359c0 372 258 383 317 383c95 0 167 -31 216 -93v72h74v-210zM234 -248l19 61c11 -4 28 -8 67 -8
c49 0 69 16 69 40c0 32 -32 40 -65 40h-29h-18l16 57h35c125 0 145 -53 145 -97c0 -37 -23 -101 -139 -101c-17 0 -49 1 -100 8z" />
    <glyph glyph-name="Egrave" unicode="&#xc8;" horiz-adv-x="665" 
d="M624 490h-79v131h-326v-220h279v-79h-279v-243h337v141h79v-220h-580v79h70v542h-70v79h569v-210zM338 900l75 -140h-84l-103 140h112z" />
    <glyph glyph-name="Eacute" unicode="&#xc9;" horiz-adv-x="665" 
d="M624 490h-79v131h-326v-220h279v-79h-279v-243h337v141h79v-220h-580v79h70v542h-70v79h569v-210zM359 900h112l-102 -140h-84z" />
    <glyph glyph-name="Ecircumflex" unicode="&#xca;" horiz-adv-x="665" 
d="M624 490h-79v131h-326v-220h279v-79h-279v-243h337v141h79v-220h-580v79h70v542h-70v79h569v-210zM154 760l125 140h142l125 -140h-94l-102 105l-102 -105h-94z" />
    <glyph glyph-name="Edieresis" unicode="&#xcb;" horiz-adv-x="665" 
d="M624 490h-79v131h-326v-220h279v-79h-279v-243h337v141h79v-220h-580v79h70v542h-70v79h569v-210zM191 772v79h94v-79h-94zM407 772v79h94v-79h-94z" />
    <glyph glyph-name="Igrave" unicode="&#xcc;" horiz-adv-x="344" 
d="M55 621v79h234v-79h-70v-542h70v-79h-234v79h70v542h-70zM147 900l75 -140h-84l-103 140h112z" />
    <glyph glyph-name="Iacute" unicode="&#xcd;" horiz-adv-x="344" 
d="M55 621v79h234v-79h-70v-542h70v-79h-234v79h70v542h-70zM200 900h112l-102 -140h-84z" />
    <glyph glyph-name="Icircumflex" unicode="&#xce;" horiz-adv-x="344" 
d="M55 621v79h234v-79h-70v-542h70v-79h-234v79h70v542h-70zM-23 760l125 140h142l125 -140h-94l-102 105l-102 -105h-94z" />
    <glyph glyph-name="Idieresis" unicode="&#xcf;" horiz-adv-x="344" 
d="M55 621v79h234v-79h-70v-542h70v-79h-234v79h70v542h-70zM18 772v79h94v-79h-94zM234 772v79h94v-79h-94z" />
    <glyph glyph-name="Eth" unicode="&#xd0;" horiz-adv-x="756" 
d="M55 621v79h322c72 0 339 -12 339 -348c0 -340 -255 -352 -374 -352h-287v79h70v257h-94v62h94v223h-70zM219 621v-223h198v-62h-198v-257h126c181 0 271 87 271 271c0 208 -125 271 -244 271h-153z" />
    <glyph glyph-name="Ntilde" unicode="&#xd1;" horiz-adv-x="816" 
d="M527 621v79h234v-79h-70v-621h-103l-369 560v-481h70v-79h-234v79h70v542h-70v79h174l368 -560v481h-70zM547 875h65c-8 -56 -45 -115 -123 -115c-59 0 -111 55 -167 55c-31 0 -52 -15 -59 -44h-66c8 57 53 112 125 112c77 0 107 -55 165 -55c25 0 52 12 60 47z" />
    <glyph glyph-name="Ograve" unicode="&#xd2;" horiz-adv-x="758" 
d="M45 350c0 245 139 371 334 371c155 0 334 -86 334 -371c0 -366 -291 -371 -334 -371c-46 0 -334 5 -334 371zM145 350c0 -113 34 -292 234 -292c48 0 234 10 234 292c0 165 -73 292 -234 292c-214 0 -234 -216 -234 -292zM364 900l75 -140h-84l-103 140h112z" />
    <glyph glyph-name="Oacute" unicode="&#xd3;" horiz-adv-x="758" 
d="M45 350c0 245 139 371 334 371c155 0 334 -86 334 -371c0 -366 -291 -371 -334 -371c-46 0 -334 5 -334 371zM145 350c0 -113 34 -292 234 -292c48 0 234 10 234 292c0 165 -73 292 -234 292c-214 0 -234 -216 -234 -292zM396 900h112l-102 -140h-84z" />
    <glyph glyph-name="Ocircumflex" unicode="&#xd4;" horiz-adv-x="758" 
d="M45 350c0 245 139 371 334 371c155 0 334 -86 334 -371c0 -366 -291 -371 -334 -371c-46 0 -334 5 -334 371zM145 350c0 -113 34 -292 234 -292c48 0 234 10 234 292c0 165 -73 292 -234 292c-214 0 -234 -216 -234 -292zM183 760l125 140h142l125 -140h-94l-102 105
l-102 -105h-94z" />
    <glyph glyph-name="Otilde" unicode="&#xd5;" horiz-adv-x="758" 
d="M45 350c0 245 139 371 334 371c155 0 334 -86 334 -371c0 -366 -291 -371 -334 -371c-46 0 -334 5 -334 371zM145 350c0 -113 34 -292 234 -292c48 0 234 10 234 292c0 165 -73 292 -234 292c-214 0 -234 -216 -234 -292zM521 875h65c-8 -56 -45 -115 -123 -115
c-59 0 -111 55 -167 55c-31 0 -52 -15 -59 -44h-66c8 57 53 112 125 112c77 0 107 -55 165 -55c25 0 52 12 60 47z" />
    <glyph glyph-name="Odieresis" unicode="&#xd6;" horiz-adv-x="758" 
d="M45 350c0 245 139 371 334 371c155 0 334 -86 334 -371c0 -366 -291 -371 -334 -371c-46 0 -334 5 -334 371zM145 350c0 -113 34 -292 234 -292c48 0 234 10 234 292c0 165 -73 292 -234 292c-214 0 -234 -216 -234 -292zM224 772v79h94v-79h-94zM440 772v79h94v-79h-94z
" />
    <glyph glyph-name="multiply" unicode="&#xd7;" horiz-adv-x="600" 
d="M65 158l191 191l-191 191l44 44l191 -191l191 191l44 -44l-191 -191l191 -191l-44 -44l-191 191l-191 -191z" />
    <glyph glyph-name="Oslash" unicode="&#xd8;" horiz-adv-x="758" 
d="M720 716l-88 -105c34 -42 81 -115 81 -261c0 -366 -291 -371 -334 -371c-54 0 -149 7 -218 71l-94 -113l-45 37l99 118c-29 34 -76 115 -76 258c0 245 139 371 334 371c74 0 161 -21 211 -68l81 97zM569 536l-350 -417c19 -21 66 -61 160 -61c48 0 234 10 234 292
c0 64 -9 122 -44 186zM184 167l349 418c-38 38 -108 57 -154 57c-76 0 -234 -32 -234 -292c0 -108 26 -160 39 -183z" />
    <glyph glyph-name="Ugrave" unicode="&#xd9;" horiz-adv-x="772" 
d="M498 621v79h234v-79h-70v-350c0 -285 -200 -292 -276 -292c-256 0 -276 172 -276 292v350h-70v79h234v-79h-70v-338c0 -86 6 -225 182 -225c139 0 182 78 182 225v338h-70zM368 900l75 -140h-84l-103 140h112z" />
    <glyph glyph-name="Uacute" unicode="&#xda;" horiz-adv-x="772" 
d="M498 621v79h234v-79h-70v-350c0 -285 -200 -292 -276 -292c-256 0 -276 172 -276 292v350h-70v79h234v-79h-70v-338c0 -86 6 -225 182 -225c139 0 182 78 182 225v338h-70zM413 900h112l-102 -140h-84z" />
    <glyph glyph-name="Ucircumflex" unicode="&#xdb;" horiz-adv-x="772" 
d="M498 621v79h234v-79h-70v-350c0 -285 -200 -292 -276 -292c-256 0 -276 172 -276 292v350h-70v79h234v-79h-70v-338c0 -86 6 -225 182 -225c139 0 182 78 182 225v338h-70zM190 760l125 140h142l125 -140h-94l-102 105l-102 -105h-94z" />
    <glyph glyph-name="Udieresis" unicode="&#xdc;" horiz-adv-x="772" 
d="M498 621v79h234v-79h-70v-350c0 -285 -200 -292 -276 -292c-256 0 -276 172 -276 292v350h-70v79h234v-79h-70v-338c0 -86 6 -225 182 -225c139 0 182 78 182 225v338h-70zM231 772v79h94v-79h-94zM447 772v79h94v-79h-94z" />
    <glyph glyph-name="Yacute" unicode="&#xdd;" horiz-adv-x="634" 
d="M0 621v79h237v-79h-62l148 -245l146 245h-55v79h220v-79h-60l-209 -329v-213h70v-79h-234v79h70v213l-209 329h-62zM354 900h112l-102 -140h-84z" />
    <glyph glyph-name="Thorn" unicode="&#xde;" horiz-adv-x="679" 
d="M55 621v79h234v-79h-70v-56h173c144 0 255 -63 255 -203c0 -125 -84 -218 -265 -218h-163v-65h70v-79h-234v79h70v542h-70zM219 486v-263h159c113 0 173 52 173 139c0 81 -65 124 -173 124h-159z" />
    <glyph glyph-name="germandbls" unicode="&#xdf;" horiz-adv-x="600" 
d="M40 0v62h65v393c0 112 12 253 212 253c128 0 189 -73 189 -170c0 -65 -38 -125 -93 -138v-3c83 -16 144 -84 144 -191c0 -208 -182 -213 -215 -213c-29 0 -52 3 -75 7v65c21 -8 38 -9 59 -9c27 0 140 8 140 152c0 141 -115 150 -174 150h-25v61l31 -1c31 0 120 5 120 114
c0 49 -20 114 -102 114c-68 0 -123 -18 -123 -178v-468h-153z" />
    <glyph glyph-name="agrave" unicode="&#xe0;" horiz-adv-x="569" 
d="M390 0v72c-35 -64 -105 -92 -174 -92c-107 0 -179 46 -179 153c0 88 45 142 249 161c75 5 99 4 99 70c0 24 -2 102 -114 102c-32 0 -135 -2 -132 -108h-84c0 68 36 170 216 170c82 0 205 -23 202 -171v-295h64v-62h-147zM385 224v36c-26 -20 -56 -17 -112 -25
c-78 -13 -145 -16 -145 -99c0 -60 41 -94 98 -94c69 0 159 46 159 182zM268 700l70 -132h-80l-96 132h106z" />
    <glyph glyph-name="aacute" unicode="&#xe1;" horiz-adv-x="569" 
d="M390 0v72c-35 -64 -105 -92 -174 -92c-107 0 -179 46 -179 153c0 88 45 142 249 161c75 5 99 4 99 70c0 24 -2 102 -114 102c-32 0 -135 -2 -132 -108h-84c0 68 36 170 216 170c82 0 205 -23 202 -171v-295h64v-62h-147zM385 224v36c-26 -20 -56 -17 -112 -25
c-78 -13 -145 -16 -145 -99c0 -60 41 -94 98 -94c69 0 159 46 159 182zM284 700h106l-96 -132h-80z" />
    <glyph glyph-name="acircumflex" unicode="&#xe2;" horiz-adv-x="569" 
d="M390 0v72c-35 -64 -105 -92 -174 -92c-107 0 -179 46 -179 153c0 88 45 142 249 161c75 5 99 4 99 70c0 24 -2 102 -114 102c-32 0 -135 -2 -132 -108h-84c0 68 36 170 216 170c82 0 205 -23 202 -171v-295h64v-62h-147zM385 224v36c-26 -20 -56 -17 -112 -25
c-78 -13 -145 -16 -145 -99c0 -60 41 -94 98 -94c69 0 159 46 159 182zM81 568l119 132h132l119 -132h-88l-97 99l-97 -99h-88z" />
    <glyph glyph-name="atilde" unicode="&#xe3;" horiz-adv-x="569" 
d="M390 0v72c-35 -64 -105 -92 -174 -92c-107 0 -179 46 -179 153c0 88 45 142 249 161c75 5 99 4 99 70c0 24 -2 102 -114 102c-32 0 -135 -2 -132 -108h-84c0 68 36 170 216 170c82 0 205 -23 202 -171v-295h64v-62h-147zM385 224v36c-26 -20 -56 -17 -112 -25
c-78 -13 -145 -16 -145 -99c0 -60 41 -94 98 -94c69 0 159 46 159 182zM393 700h58c-8 -41 -35 -102 -111 -102c-32 0 -57 13 -82 26c-21 11 -43 24 -67 24c-21 0 -48 -9 -51 -40h-59c9 52 47 100 111 100c28 0 46 -6 74 -22c19 -11 45 -28 74 -28c25 0 46 18 53 42z" />
    <glyph glyph-name="adieresis" unicode="&#xe4;" horiz-adv-x="569" 
d="M390 0v72c-35 -64 -105 -92 -174 -92c-107 0 -179 46 -179 153c0 88 45 142 249 161c75 5 99 4 99 70c0 24 -2 102 -114 102c-32 0 -135 -2 -132 -108h-84c0 68 36 170 216 170c82 0 205 -23 202 -171v-295h64v-62h-147zM385 224v36c-26 -20 -56 -17 -112 -25
c-78 -13 -145 -16 -145 -99c0 -60 41 -94 98 -94c69 0 159 46 159 182zM133 608v92h88v-92h-88zM331 608v92h88v-92h-88z" />
    <glyph glyph-name="aring" unicode="&#xe5;" horiz-adv-x="569" 
d="M390 0v72c-35 -64 -105 -92 -174 -92c-107 0 -179 46 -179 153c0 88 45 142 249 161c75 5 99 4 99 70c0 24 -2 102 -114 102c-32 0 -135 -2 -132 -108h-84c0 68 36 170 216 170c82 0 205 -23 202 -171v-295h64v-62h-147zM385 224v36c-26 -20 -56 -17 -112 -25
c-78 -13 -145 -16 -145 -99c0 -60 41 -94 98 -94c69 0 159 46 159 182zM173 643c0 52 41 93 93 93s93 -41 93 -93s-41 -93 -93 -93s-93 41 -93 93zM214 643c0 -29 23 -52 52 -52s52 23 52 52s-23 52 -52 52s-52 -23 -52 -52z" />
    <glyph glyph-name="ae" unicode="&#xe6;" horiz-adv-x="914" 
d="M144 358h-84c-3 90 63 170 215 170c44 0 142 -6 174 -86c53 83 151 86 183 86c91 0 239 -30 239 -269v-25h-393c0 -77 35 -192 160 -192c87 0 124 49 140 105h84c-13 -72 -65 -167 -218 -167c-64 0 -157 6 -213 110c-53 -93 -131 -110 -198 -110c-61 0 -196 5 -196 153
c0 85 45 145 252 161c77 5 101 4 101 70c0 24 -2 102 -114 102c-32 0 -135 -2 -132 -108zM390 217v43c-28 -20 -55 -17 -114 -25c-78 -13 -148 -16 -148 -99c0 -44 27 -94 103 -94c133 0 159 116 159 175zM478 296h302c3 68 -25 170 -145 170c-109 0 -157 -83 -157 -170z
" />
    <glyph glyph-name="ccedilla" unicode="&#xe7;" horiz-adv-x="552" 
d="M496 348h-67c-19 113 -113 118 -144 118c-109 0 -149 -93 -149 -208s45 -216 157 -216c100 0 132 83 135 139h84c-5 -60 -41 -201 -221 -201c-51 0 -248 7 -248 278c0 118 44 270 240 270c68 0 121 -26 148 -66h3v46h62v-160zM168 -232l17 56c11 -4 27 -8 62 -8
c45 0 63 16 63 37c0 29 -30 37 -59 37h-27h-17l15 52h32c115 0 133 -47 133 -88c0 -34 -21 -94 -128 -94c-15 0 -44 1 -91 8z" />
    <glyph glyph-name="egrave" unicode="&#xe8;" horiz-adv-x="570" 
d="M438 147h84c-13 -72 -66 -167 -222 -167c-252 0 -257 226 -257 272c0 70 13 276 248 276c203 0 230 -159 235 -269c0 -8 1 -17 1 -25h-391c0 -87 45 -192 161 -192c85 0 130 49 141 105zM136 296h298c-3 68 -26 170 -141 170c-131 0 -157 -106 -157 -170zM277 700
l70 -132h-80l-96 132h106z" />
    <glyph glyph-name="eacute" unicode="&#xe9;" horiz-adv-x="570" 
d="M438 147h84c-13 -72 -66 -167 -222 -167c-252 0 -257 226 -257 272c0 70 13 276 248 276c203 0 230 -159 235 -269c0 -8 1 -17 1 -25h-391c0 -87 45 -192 161 -192c85 0 130 49 141 105zM136 296h298c-3 68 -26 170 -141 170c-131 0 -157 -106 -157 -170zM293 700h106
l-96 -132h-80z" />
    <glyph glyph-name="ecircumflex" unicode="&#xea;" horiz-adv-x="570" 
d="M438 147h84c-13 -72 -66 -167 -222 -167c-252 0 -257 226 -257 272c0 70 13 276 248 276c203 0 230 -159 235 -269c0 -8 1 -17 1 -25h-391c0 -87 45 -192 161 -192c85 0 130 49 141 105zM136 296h298c-3 68 -26 170 -141 170c-131 0 -157 -106 -157 -170zM100 568
l119 132h132l119 -132h-88l-97 99l-97 -99h-88z" />
    <glyph glyph-name="edieresis" unicode="&#xeb;" horiz-adv-x="570" 
d="M438 147h84c-13 -72 -66 -167 -222 -167c-252 0 -257 226 -257 272c0 70 13 276 248 276c203 0 230 -159 235 -269c0 -8 1 -17 1 -25h-391c0 -87 45 -192 161 -192c85 0 130 49 141 105zM136 296h298c-3 68 -26 170 -141 170c-131 0 -157 -106 -157 -170zM142 608v92h88
v-92h-88zM340 608v92h88v-92h-88z" />
    <glyph glyph-name="igrave" unicode="&#xec;" horiz-adv-x="300" 
d="M40 446v62h154v-446h66v-62h-220v62h66v384h-66zM110 700l70 -132h-80l-96 132h106z" />
    <glyph glyph-name="iacute" unicode="&#xed;" horiz-adv-x="300" 
d="M40 446v62h154v-446h66v-62h-220v62h66v384h-66zM156 700h106l-96 -132h-80z" />
    <glyph glyph-name="icircumflex" unicode="&#xee;" horiz-adv-x="300" 
d="M40 446v62h154v-446h66v-62h-220v62h66v384h-66zM-51 568l119 132h132l119 -132h-88l-97 99l-97 -99h-88z" />
    <glyph glyph-name="idieresis" unicode="&#xef;" horiz-adv-x="300" 
d="M40 446v62h154v-446h66v-62h-220v62h66v384h-66zM-16 608v92h88v-92h-88zM182 608v92h88v-92h-88z" />
    <glyph glyph-name="eth" unicode="&#xf0;" horiz-adv-x="592" 
d="M142 671l14 62c65 -11 128 -31 179 -54l85 51l22 -34l-63 -38c140 -83 176 -187 176 -335c0 -297 -161 -343 -268 -343c-149 0 -244 96 -244 256c0 146 67 272 243 272c56 0 152 -15 197 -115h3c-8 69 -59 166 -171 219l-138 -88l-23 36l115 72c-40 19 -84 30 -127 39z
M456 247c0 51 -10 199 -161 199c-148 0 -159 -154 -159 -216c0 -169 99 -188 159 -188c43 0 161 10 161 205z" />
    <glyph glyph-name="ntilde" unicode="&#xf1;" horiz-adv-x="641" 
d="M381 0v62h66v249c0 54 2 155 -107 155c-48 0 -146 -21 -146 -189v-215h66v-62h-220v62h66v384h-66v62h154v-71c35 51 94 91 174 91c133 0 167 -89 167 -190v-276h66v-62h-220zM447 700h58c-8 -41 -35 -102 -111 -102c-32 0 -57 13 -82 26c-21 11 -43 24 -67 24
c-21 0 -48 -9 -51 -40h-59c9 52 47 100 111 100c28 0 46 -6 74 -22c19 -11 45 -28 74 -28c25 0 46 18 53 42z" />
    <glyph glyph-name="ograve" unicode="&#xf2;" horiz-adv-x="586" 
d="M43 254c0 135 65 274 250 274s250 -139 250 -274s-65 -274 -250 -274s-250 139 -250 274zM136 255c0 -204 118 -213 157 -213s157 9 157 213s-118 213 -157 213s-157 -9 -157 -213zM285 700l70 -132h-80l-96 132h106z" />
    <glyph glyph-name="oacute" unicode="&#xf3;" horiz-adv-x="586" 
d="M43 254c0 135 65 274 250 274s250 -139 250 -274s-65 -274 -250 -274s-250 139 -250 274zM136 255c0 -204 118 -213 157 -213s157 9 157 213s-118 213 -157 213s-157 -9 -157 -213zM301 700h106l-96 -132h-80z" />
    <glyph glyph-name="ocircumflex" unicode="&#xf4;" horiz-adv-x="586" 
d="M43 254c0 135 65 274 250 274s250 -139 250 -274s-65 -274 -250 -274s-250 139 -250 274zM136 255c0 -204 118 -213 157 -213s157 9 157 213s-118 213 -157 213s-157 -9 -157 -213zM108 568l119 132h132l119 -132h-88l-97 99l-97 -99h-88z" />
    <glyph glyph-name="otilde" unicode="&#xf5;" horiz-adv-x="586" 
d="M43 254c0 135 65 274 250 274s250 -139 250 -274s-65 -274 -250 -274s-250 139 -250 274zM136 255c0 -204 118 -213 157 -213s157 9 157 213s-118 213 -157 213s-157 -9 -157 -213zM420 700h58c-8 -41 -35 -102 -111 -102c-32 0 -57 13 -82 26c-21 11 -43 24 -67 24
c-21 0 -48 -9 -51 -40h-59c9 52 47 100 111 100c28 0 46 -6 74 -22c19 -11 45 -28 74 -28c25 0 46 18 53 42z" />
    <glyph glyph-name="odieresis" unicode="&#xf6;" horiz-adv-x="586" 
d="M43 254c0 135 65 274 250 274s250 -139 250 -274s-65 -274 -250 -274s-250 139 -250 274zM136 255c0 -204 118 -213 157 -213s157 9 157 213s-118 213 -157 213s-157 -9 -157 -213zM150 608v92h88v-92h-88zM348 608v92h88v-92h-88z" />
    <glyph glyph-name="divide" unicode="&#xf7;" horiz-adv-x="600" 
d="M240 529c0 27 17 60 60 60s60 -33 60 -60s-17 -60 -60 -60s-60 33 -60 60zM240 181c0 27 17 60 60 60s60 -33 60 -60s-17 -60 -60 -60s-60 33 -60 60zM50 324v62h500v-62h-500z" />
    <glyph glyph-name="oslash" unicode="&#xf8;" horiz-adv-x="586" 
d="M43 0l56 66c-39 53 -56 125 -56 189c0 157 78 273 249 273c84 0 129 -24 156 -47l55 65l44 -38l-58 -69c19 -30 52 -86 52 -184c0 -120 -51 -275 -249 -275c-72 0 -116 16 -151 45l-53 -63zM156 134l243 289c-32 36 -72 43 -107 43c-137 0 -156 -134 -156 -211
c0 -30 4 -89 20 -121zM431 371l-242 -288c36 -35 64 -41 103 -41c37 0 156 9 156 213c0 71 -10 101 -17 116z" />
    <glyph glyph-name="ugrave" unicode="&#xf9;" horiz-adv-x="641" 
d="M535 508v-446h66v-62h-154v72h-2c-51 -88 -154 -92 -172 -92c-150 0 -167 115 -167 191v275h-66v62h154v-311c0 -128 44 -155 107 -155c148 0 146 153 146 189v215h-66v62h154zM312 700l70 -132h-80l-96 132h106z" />
    <glyph glyph-name="uacute" unicode="&#xfa;" horiz-adv-x="641" 
d="M535 508v-446h66v-62h-154v72h-2c-51 -88 -154 -92 -172 -92c-150 0 -167 115 -167 191v275h-66v62h154v-311c0 -128 44 -155 107 -155c148 0 146 153 146 189v215h-66v62h154zM328 700h106l-96 -132h-80z" />
    <glyph glyph-name="ucircumflex" unicode="&#xfb;" horiz-adv-x="641" 
d="M535 508v-446h66v-62h-154v72h-2c-51 -88 -154 -92 -172 -92c-150 0 -167 115 -167 191v275h-66v62h154v-311c0 -128 44 -155 107 -155c148 0 146 153 146 189v215h-66v62h154zM125 568l119 132h132l119 -132h-88l-97 99l-97 -99h-88z" />
    <glyph glyph-name="udieresis" unicode="&#xfc;" horiz-adv-x="641" 
d="M535 508v-446h66v-62h-154v72h-2c-51 -88 -154 -92 -172 -92c-150 0 -167 115 -167 191v275h-66v62h154v-311c0 -128 44 -155 107 -155c148 0 146 153 146 189v215h-66v62h154zM167 608v92h88v-92h-88zM365 608v92h88v-92h-88z" />
    <glyph glyph-name="yacute" unicode="&#xfd;" horiz-adv-x="558" 
d="M-10 446v62h231v-62h-62l139 -349l114 349h-64v62h220v-62h-69l-236 -631h-140v62h87l43 123l-196 446h-67zM300 700h106l-96 -132h-80z" />
    <glyph glyph-name="thorn" unicode="&#xfe;" horiz-adv-x="631" 
d="M40 -123h66v761h-66v62h154v-262c31 57 97 90 165 90c152 0 229 -116 229 -274c0 -197 -111 -274 -227 -274c-20 0 -122 5 -167 93v-196h66v-62h-220v62zM188 252c0 -157 90 -210 157 -210c71 0 150 50 150 212c0 132 -55 212 -155 212c-45 0 -152 -22 -152 -214z" />
    <glyph glyph-name="ydieresis" unicode="&#xff;" horiz-adv-x="558" 
d="M-10 446v62h231v-62h-62l139 -349l114 349h-64v62h220v-62h-69l-236 -631h-140v62h87l43 123l-196 446h-67zM143 608v92h88v-92h-88zM341 608v92h88v-92h-88z" />
    <glyph glyph-name="Amacron" unicode="&#x100;" horiz-adv-x="706" 
d="M471 0v79h65l-37 102h-296l-37 -102h64v-79h-230v79h70l205 542h-78v79h208l235 -621h66v-79h-235zM229 260h244l-122 346zM166 772v60h316v-60h-316z" />
    <glyph glyph-name="amacron" unicode="&#x101;" horiz-adv-x="569" 
d="M390 0v72c-35 -64 -105 -92 -174 -92c-107 0 -179 46 -179 153c0 88 45 142 249 161c75 5 99 4 99 70c0 24 -2 102 -114 102c-32 0 -135 -2 -132 -108h-84c0 68 36 170 216 170c82 0 205 -23 202 -171v-295h64v-62h-147zM385 224v36c-26 -20 -56 -17 -112 -25
c-78 -13 -145 -16 -145 -99c0 -60 41 -94 98 -94c69 0 159 46 159 182zM118 613v60h316v-60h-316z" />
    <glyph glyph-name="Abreve" unicode="&#x102;" horiz-adv-x="706" 
d="M471 0v79h65l-37 102h-296l-37 -102h64v-79h-230v79h70l205 542h-78v79h208l235 -621h66v-79h-235zM229 260h244l-122 346zM144 900h86c7 -41 33 -78 101 -78c67 0 94 37 101 78h86c-16 -108 -104 -140 -187 -140s-171 32 -187 140z" />
    <glyph glyph-name="abreve" unicode="&#x103;" horiz-adv-x="569" 
d="M390 0v72c-35 -64 -105 -92 -174 -92c-107 0 -179 46 -179 153c0 88 45 142 249 161c75 5 99 4 99 70c0 24 -2 102 -114 102c-32 0 -135 -2 -132 -108h-84c0 68 36 170 216 170c82 0 205 -23 202 -171v-295h64v-62h-147zM385 224v36c-26 -20 -56 -17 -112 -25
c-78 -13 -145 -16 -145 -99c0 -60 41 -94 98 -94c69 0 159 46 159 182zM266 623c53 0 89 26 96 77h78c-15 -84 -73 -134 -174 -134s-159 50 -174 134h78c7 -51 43 -77 96 -77z" />
    <glyph glyph-name="Aogonek" unicode="&#x104;" horiz-adv-x="706" 
d="M471 0v79h65l-37 102h-296l-37 -102h64v-79h-230v79h70l205 542h-78v79h208l235 -621h66v-79h-31c-39 -23 -64 -66 -64 -103c0 -31 14 -59 46 -59c33 0 44 32 44 52h74c-3 -54 -41 -114 -123 -114c-76 0 -131 38 -131 102c0 51 34 95 69 122h-119zM229 260h244l-122 346z
" />
    <glyph glyph-name="aogonek" unicode="&#x105;" horiz-adv-x="569" 
d="M390 0v72c-35 -64 -105 -92 -174 -92c-107 0 -179 46 -179 153c0 88 45 142 249 161c75 5 99 4 99 70c0 24 -2 102 -114 102c-32 0 -135 -2 -132 -108h-84c0 68 36 170 216 170c82 0 205 -23 202 -171v-295h64v-62h-15c-39 -23 -62 -63 -62 -99c0 -31 14 -56 45 -56
c32 0 42 30 42 49h71c-3 -51 -40 -109 -118 -109c-73 0 -126 37 -126 98c0 49 33 90 66 117h-50zM385 224v36c-26 -20 -56 -17 -112 -25c-78 -13 -145 -16 -145 -99c0 -60 41 -94 98 -94c69 0 159 46 159 182z" />
    <glyph glyph-name="Cacute" unicode="&#x106;" horiz-adv-x="712" 
d="M652 490h-79c-5 51 -44 152 -205 152c-176 0 -223 -148 -223 -300c0 -163 89 -284 237 -284c112 0 193 74 198 174h94c-13 -100 -71 -253 -296 -253c-208 0 -333 135 -333 359c0 372 258 383 317 383c95 0 167 -31 216 -93v72h74v-210zM389 900h112l-102 -140h-84z" />
    <glyph glyph-name="cacute" unicode="&#x107;" horiz-adv-x="552" 
d="M496 348h-67c-19 113 -113 118 -144 118c-109 0 -149 -93 -149 -208s45 -216 157 -216c100 0 132 83 135 139h84c-5 -60 -41 -201 -221 -201c-51 0 -248 7 -248 278c0 118 44 270 240 270c68 0 121 -26 148 -66h3v46h62v-160zM292 700h106l-96 -132h-80z" />
    <glyph glyph-name="Ccircumflex" unicode="&#x108;" horiz-adv-x="712" 
d="M652 490h-79c-5 51 -44 152 -205 152c-176 0 -223 -148 -223 -300c0 -163 89 -284 237 -284c112 0 193 74 198 174h94c-13 -100 -71 -253 -296 -253c-208 0 -333 135 -333 359c0 372 258 383 317 383c95 0 167 -31 216 -93v72h74v-210zM177 760l125 140h142l125 -140h-94
l-102 105l-102 -105h-94z" />
    <glyph glyph-name="ccircumflex" unicode="&#x109;" horiz-adv-x="552" 
d="M496 348h-67c-19 113 -113 118 -144 118c-109 0 -149 -93 -149 -208s45 -216 157 -216c100 0 132 83 135 139h84c-5 -60 -41 -201 -221 -201c-51 0 -248 7 -248 278c0 118 44 270 240 270c68 0 121 -26 148 -66h3v46h62v-160zM89 568l119 132h132l119 -132h-88l-97 99
l-97 -99h-88z" />
    <glyph glyph-name="Cdotaccent" unicode="&#x10a;" horiz-adv-x="712" 
d="M652 490h-79c-5 51 -44 152 -205 152c-176 0 -223 -148 -223 -300c0 -163 89 -284 237 -284c112 0 193 74 198 174h94c-13 -100 -71 -253 -296 -253c-208 0 -333 135 -333 359c0 372 258 383 317 383c95 0 167 -31 216 -93v72h74v-210zM327 772v79h94v-79h-94z" />
    <glyph glyph-name="cdotaccent" unicode="&#x10b;" horiz-adv-x="552" 
d="M496 348h-67c-19 113 -113 118 -144 118c-109 0 -149 -93 -149 -208s45 -216 157 -216c100 0 132 83 135 139h84c-5 -60 -41 -201 -221 -201c-51 0 -248 7 -248 278c0 118 44 270 240 270c68 0 121 -26 148 -66h3v46h62v-160zM230 608v92h92v-92h-92z" />
    <glyph glyph-name="Ccaron" unicode="&#x10c;" horiz-adv-x="712" 
d="M652 490h-79c-5 51 -44 152 -205 152c-176 0 -223 -148 -223 -300c0 -163 89 -284 237 -284c112 0 193 74 198 174h94c-13 -100 -71 -253 -296 -253c-208 0 -333 135 -333 359c0 372 258 383 317 383c95 0 167 -31 216 -93v72h74v-210zM445 760h-142l-125 140h94
l102 -105l102 105h94z" />
    <glyph glyph-name="ccaron" unicode="&#x10d;" horiz-adv-x="552" 
d="M496 348h-67c-19 113 -113 118 -144 118c-109 0 -149 -93 -149 -208s45 -216 157 -216c100 0 132 83 135 139h84c-5 -60 -41 -201 -221 -201c-51 0 -248 7 -248 278c0 118 44 270 240 270c68 0 121 -26 148 -66h3v46h62v-160zM350 568h-132l-119 132h88l97 -99l97 99h88z
" />
    <glyph glyph-name="Dcaron" unicode="&#x10e;" horiz-adv-x="756" 
d="M55 621v79h322c72 0 339 -12 339 -348c0 -340 -255 -352 -374 -352h-287v79h70v542h-70zM219 621v-542h126c181 0 271 87 271 271c0 208 -125 271 -244 271h-153zM420 760h-142l-125 140h94l102 -105l102 105h94z" />
    <glyph glyph-name="dcaron" unicode="&#x10f;" horiz-adv-x="704" 
d="M373 638v62h154v-638h66v-62h-148v70h-3c-17 -33 -61 -90 -168 -90c-148 0 -231 112 -231 275c0 107 33 273 229 273c68 0 126 -17 167 -86v196h-66zM136 255c0 -192 106 -213 157 -213c77 0 152 58 152 215c0 147 -73 209 -157 209s-152 -62 -152 -211zM605 700h99v-140
c0 -80 -60 -109 -99 -117v55c28 3 50 31 50 62v31h-50v109z" />
    <glyph glyph-name="Dcroat" unicode="&#x110;" horiz-adv-x="756" 
d="M55 621v79h322c72 0 339 -12 339 -348c0 -340 -255 -352 -374 -352h-287v79h70v257h-94v62h94v223h-70zM219 621v-223h198v-62h-198v-257h126c181 0 271 87 271 271c0 208 -125 271 -244 271h-153z" />
    <glyph glyph-name="dslash" unicode="&#x111;" horiz-adv-x="630" 
d="M373 638v62h154v-92h81v-54h-81v-492h66v-62h-148v70h-3c-17 -33 -61 -90 -168 -90c-148 0 -231 112 -231 275c0 107 33 273 229 273c68 0 126 -17 167 -86v112h-188v54h188v30h-66zM136 255c0 -192 106 -213 157 -213c77 0 152 58 152 215c0 147 -73 209 -157 209
s-152 -62 -152 -211z" />
    <glyph glyph-name="Emacron" unicode="&#x112;" horiz-adv-x="665" 
d="M624 490h-79v131h-326v-220h279v-79h-279v-243h337v141h79v-220h-580v79h70v542h-70v79h569v-210zM188 772v60h316v-60h-316z" />
    <glyph glyph-name="emacron" unicode="&#x113;" horiz-adv-x="570" 
d="M438 147h84c-13 -72 -66 -167 -222 -167c-252 0 -257 226 -257 272c0 70 13 276 248 276c203 0 230 -159 235 -269c0 -8 1 -17 1 -25h-391c0 -87 45 -192 161 -192c85 0 130 49 141 105zM136 296h298c-3 68 -26 170 -141 170c-131 0 -157 -106 -157 -170zM127 613v60h316
v-60h-316z" />
    <glyph glyph-name="Edotaccent" unicode="&#x116;" horiz-adv-x="665" 
d="M624 490h-79v131h-326v-220h279v-79h-279v-243h337v141h79v-220h-580v79h70v542h-70v79h569v-210zM299 772v79h94v-79h-94z" />
    <glyph glyph-name="edotaccent" unicode="&#x117;" horiz-adv-x="570" 
d="M438 147h84c-13 -72 -66 -167 -222 -167c-252 0 -257 226 -257 272c0 70 13 276 248 276c203 0 230 -159 235 -269c0 -8 1 -17 1 -25h-391c0 -87 45 -192 161 -192c85 0 130 49 141 105zM136 296h298c-3 68 -26 170 -141 170c-131 0 -157 -106 -157 -170zM239 608v92h92
v-92h-92z" />
    <glyph glyph-name="Eogonek" unicode="&#x118;" horiz-adv-x="665" 
d="M500 0h-445v79h70v542h-70v79h569v-210h-79v131h-326v-220h279v-79h-279v-243h337v141h79v-220h-50c-39 -23 -64 -66 -64 -103c0 -31 14 -59 46 -59c33 0 44 32 44 52h74c-3 -54 -41 -114 -123 -114c-76 0 -131 38 -131 102c0 51 34 95 69 122z" />
    <glyph glyph-name="eogonek" unicode="&#x119;" horiz-adv-x="570" 
d="M438 147h84c-11 -54 -43 -121 -124 -151c-35 -23 -55 -60 -55 -95c0 -31 14 -56 45 -56c32 0 42 30 42 49h71c-3 -51 -40 -109 -118 -109c-73 0 -126 37 -126 98c0 39 19 72 44 97h-1c-252 0 -257 226 -257 272c0 70 13 276 248 276c203 0 230 -159 235 -269
c0 -8 1 -17 1 -25h-391c0 -87 45 -192 161 -192c85 0 130 49 141 105zM136 296h298c-3 68 -26 170 -141 170c-131 0 -157 -106 -157 -170z" />
    <glyph glyph-name="Ecaron" unicode="&#x11a;" horiz-adv-x="665" 
d="M624 490h-79v131h-326v-220h279v-79h-279v-243h337v141h79v-220h-580v79h70v542h-70v79h569v-210zM417 760h-142l-125 140h94l102 -105l102 105h94z" />
    <glyph glyph-name="ecaron" unicode="&#x11b;" horiz-adv-x="570" 
d="M438 147h84c-13 -72 -66 -167 -222 -167c-252 0 -257 226 -257 272c0 70 13 276 248 276c203 0 230 -159 235 -269c0 -8 1 -17 1 -25h-391c0 -87 45 -192 161 -192c85 0 130 49 141 105zM136 296h298c-3 68 -26 170 -141 170c-131 0 -157 -106 -157 -170zM351 568h-132
l-119 132h88l97 -99l97 99h88z" />
    <glyph glyph-name="Gcircumflex" unicode="&#x11c;" horiz-adv-x="787" 
d="M400 286v79h357v-79h-75v-286h-73v113h-2c-40 -84 -121 -134 -233 -134c-167 0 -329 97 -329 378c0 237 130 364 338 364c88 0 162 -28 209 -93v72h73v-210h-79c-5 63 -56 152 -201 152c-221 0 -240 -213 -240 -288c0 -51 15 -296 239 -296c172 0 212 142 212 228h-196z
M174 760l125 140h142l125 -140h-94l-102 105l-102 -105h-94z" />
    <glyph glyph-name="gcircumflex" unicode="&#x11d;" horiz-adv-x="627" 
d="M78 -57h84c16 -59 80 -73 134 -73c138 0 140 131 140 158v55c-47 -76 -89 -103 -164 -103c-120 0 -229 82 -229 278c0 47 0 270 220 270c85 0 143 -30 176 -90h3v70h145v-62h-63v-433c0 -195 -179 -206 -228 -206s-186 -2 -218 136zM292 42c32 0 150 22 150 218
c0 129 -54 206 -158 206c-148 0 -148 -164 -148 -205c0 -205 115 -219 156 -219zM111 568l119 132h132l119 -132h-88l-97 99l-97 -99h-88z" />
    <glyph glyph-name="Gbreve" unicode="&#x11e;" horiz-adv-x="787" 
d="M400 286v79h357v-79h-75v-286h-73v113h-2c-40 -84 -121 -134 -233 -134c-167 0 -329 97 -329 378c0 237 130 364 338 364c88 0 162 -28 209 -93v72h73v-210h-79c-5 63 -56 152 -201 152c-221 0 -240 -213 -240 -288c0 -51 15 -296 239 -296c172 0 212 142 212 228h-196z
M184 900h86c7 -41 33 -78 101 -78c67 0 94 37 101 78h86c-16 -108 -104 -140 -187 -140s-171 32 -187 140z" />
    <glyph glyph-name="gbreve" unicode="&#x11f;" horiz-adv-x="627" 
d="M78 -57h84c16 -59 80 -73 134 -73c138 0 140 131 140 158v55c-47 -76 -89 -103 -164 -103c-120 0 -229 82 -229 278c0 47 0 270 220 270c85 0 143 -30 176 -90h3v70h145v-62h-63v-433c0 -195 -179 -206 -228 -206s-186 -2 -218 136zM292 42c32 0 150 22 150 218
c0 129 -54 206 -158 206c-148 0 -148 -164 -148 -205c0 -205 115 -219 156 -219zM276 623c53 0 89 26 96 77h78c-15 -84 -73 -134 -174 -134s-159 50 -174 134h78c7 -51 43 -77 96 -77z" />
    <glyph glyph-name="Gdotaccent" unicode="&#x120;" horiz-adv-x="787" 
d="M400 286v79h357v-79h-75v-286h-73v113h-2c-40 -84 -121 -134 -233 -134c-167 0 -329 97 -329 378c0 237 130 364 338 364c88 0 162 -28 209 -93v72h73v-210h-79c-5 63 -56 152 -201 152c-221 0 -240 -213 -240 -288c0 -51 15 -296 239 -296c172 0 212 142 212 228h-196z
M344 772v79h94v-79h-94z" />
    <glyph glyph-name="gdotaccent" unicode="&#x121;" horiz-adv-x="627" 
d="M78 -57h84c16 -59 80 -73 134 -73c138 0 140 131 140 158v55c-47 -76 -89 -103 -164 -103c-120 0 -229 82 -229 278c0 47 0 270 220 270c85 0 143 -30 176 -90h3v70h145v-62h-63v-433c0 -195 -179 -206 -228 -206s-186 -2 -218 136zM292 42c32 0 150 22 150 218
c0 129 -54 206 -158 206c-148 0 -148 -164 -148 -205c0 -205 115 -219 156 -219zM245 608v92h92v-92h-92z" />
    <glyph glyph-name="Gcommaaccent" unicode="&#x122;" horiz-adv-x="787" 
d="M400 286v79h357v-79h-75v-286h-73v113h-2c-40 -84 -121 -134 -233 -134c-167 0 -329 97 -329 378c0 237 130 364 338 364c88 0 162 -28 209 -93v72h73v-210h-79c-5 63 -56 152 -201 152c-221 0 -240 -213 -240 -288c0 -51 15 -296 239 -296c172 0 212 142 212 228h-196z
M316 -60h107v-109c0 -77 -66 -99 -107 -107v59c31 4 54 23 54 48v12h-54v97z" />
    <glyph glyph-name="gcommaaccent" unicode="&#x123;" horiz-adv-x="627" 
d="M78 -57h84c16 -59 80 -73 134 -73c138 0 140 131 140 158v55c-47 -76 -89 -103 -164 -103c-120 0 -229 82 -229 278c0 47 0 270 220 270c85 0 143 -30 176 -90h3v70h145v-62h-63v-433c0 -195 -179 -206 -228 -206s-186 -2 -218 136zM292 42c32 0 150 22 150 218
c0 129 -54 206 -158 206c-148 0 -148 -164 -148 -205c0 -205 115 -219 156 -219zM343 599h-99v101c0 71 61 91 99 99v-55c-28 -3 -50 -21 -50 -44v-11h50v-90z" />
    <glyph glyph-name="Hcircumflex" unicode="&#x124;" horiz-adv-x="797" 
d="M508 0v79h70v250h-359v-250h70v-79h-234v79h70v542h-70v79h234v-79h-70v-213h359v213h-70v79h234v-79h-70v-542h70v-79h-234zM199 760l125 140h142l125 -140h-94l-102 105l-102 -105h-94z" />
    <glyph glyph-name="hcircumflex" unicode="&#x125;" horiz-adv-x="640" 
d="M380 0v62h66v249c0 59 3 155 -106 155c-48 0 -146 -21 -146 -189v-215h66v-62h-220v62h66v576h-66v62h154v-263c47 64 102 91 174 91c169 0 166 -148 166 -190v-276h66v-62h-220zM-51 780l119 132h132l119 -132h-88l-97 99l-97 -99h-88z" />
    <glyph glyph-name="Hbar" unicode="&#x126;" horiz-adv-x="797" 
d="M508 0v79h70v250h-359v-250h70v-79h-234v79h70v413h-69v62h69v67h-70v79h234v-79h-70v-67h359v67h-70v79h234v-79h-70v-67h70v-62h-70v-413h70v-79h-234zM219 408h359v84h-359v-84z" />
    <glyph glyph-name="hbar" unicode="&#x127;" horiz-adv-x="614" 
d="M354 0v62h66v229c0 59 3 155 -106 155c-48 0 -146 -21 -146 -189v-195h66v-62h-220v62h66v482h-80v54h80v40h-66v62h154v-102h210v-54h-210v-127c47 64 102 91 174 91c169 0 166 -148 166 -190v-256h66v-62h-220z" />
    <glyph glyph-name="Imacron" unicode="&#x12a;" horiz-adv-x="344" 
d="M55 621v79h234v-79h-70v-542h70v-79h-234v79h70v542h-70zM15 772v60h316v-60h-316z" />
    <glyph glyph-name="imacron" unicode="&#x12b;" horiz-adv-x="300" 
d="M40 446v62h154v-446h66v-62h-220v62h66v384h-66zM-24 613v60h316v-60h-316z" />
    <glyph glyph-name="Iogonek" unicode="&#x12e;" horiz-adv-x="344" 
d="M162 0h-107v79h70v542h-70v79h234v-79h-70v-542h70v-79h-42c-39 -23 -64 -66 -64 -103c0 -31 14 -59 46 -59c33 0 44 32 44 52h74c-3 -54 -41 -114 -123 -114c-76 0 -131 38 -131 102c0 51 34 95 69 122z" />
    <glyph glyph-name="iogonek" unicode="&#x12f;" horiz-adv-x="300" 
d="M109 0h-69v62h66v384h-66v62h154v-446h66v-62h-69c-39 -23 -62 -63 -62 -99c0 -31 14 -56 45 -56c32 0 42 30 42 49h71c-3 -51 -40 -109 -118 -109c-73 0 -126 37 -126 98c0 49 33 90 66 117zM106 608v92h88v-92h-88z" />
    <glyph glyph-name="Idot" unicode="&#x130;" horiz-adv-x="344" 
d="M55 621v79h234v-79h-70v-542h70v-79h-234v79h70v542h-70zM125 772v79h94v-79h-94z" />
    <glyph glyph-name="dotlessi" unicode="&#x131;" horiz-adv-x="300" 
d="M40 446v62h154v-446h66v-62h-220v62h66v384h-66z" />
    <glyph glyph-name="Jcircumflex" unicode="&#x134;" horiz-adv-x="553" 
d="M279 621v79h239v-79h-70v-379c0 -183 -58 -263 -211 -263c-71 0 -214 16 -214 217v36h94c0 -111 27 -174 121 -174c100 0 116 73 116 175v388h-75zM204 760l125 140h142l125 -140h-94l-102 105l-102 -105h-94z" />
    <glyph glyph-name="jcircumflex" unicode="&#x135;" horiz-adv-x="262" 
d="M38 446v62h154v-555c0 -91 -26 -142 -120 -142c-17 0 -45 3 -57 4v62c92 16 89 20 89 87v482h-66zM-60 568l119 132h132l119 -132h-88l-97 99l-97 -99h-88z" />
    <glyph glyph-name="Kcommaaccent" unicode="&#x136;" horiz-adv-x="655" 
d="M249 360l218 261h-52v79h217v-79h-58l-214 -256l228 -286h62v-79h-229v79h52zM219 621v-542h70v-79h-234v79h70v542h-70v79h234v-79h-70zM299 -60h107v-109c0 -77 -66 -99 -107 -107v59c31 4 54 23 54 48v12h-54v97z" />
    <glyph glyph-name="kcommaaccent" unicode="&#x137;" horiz-adv-x="543" 
d="M40 638v62h154v-638h66v-62h-220v62h66v576h-66zM219 266l152 180h-49v62h198v-62h-58l-152 -177l166 -207h67v-62h-116zM232 -60h99v-101c0 -71 -61 -91 -99 -99v55c28 3 50 21 50 44v11h-50v90z" />
    <glyph glyph-name="Lacute" unicode="&#x139;" horiz-adv-x="600" 
d="M55 621v79h234v-79h-70v-542h282v156h79v-235h-525v79h70v542h-70zM211 900h112l-102 -140h-84z" />
    <glyph glyph-name="lacute" unicode="&#x13a;" horiz-adv-x="300" 
d="M40 638v62h154v-638h66v-62h-220v62h66v576h-66zM178 883h106l-96 -132h-80z" />
    <glyph glyph-name="Lcommaaccent" unicode="&#x13b;" horiz-adv-x="600" 
d="M55 621v79h234v-79h-70v-542h282v156h79v-235h-525v79h70v542h-70zM278 -60h107v-109c0 -77 -66 -99 -107 -107v59c31 4 54 23 54 48v12h-54v97z" />
    <glyph glyph-name="lcommaaccent" unicode="&#x13c;" horiz-adv-x="300" 
d="M40 638v62h154v-638h66v-62h-220v62h66v576h-66zM101 -60h99v-101c0 -71 -61 -91 -99 -99v55c28 3 50 21 50 44v11h-50v90z" />
    <glyph glyph-name="Lcaron" unicode="&#x13d;" horiz-adv-x="600" 
d="M55 621v79h234v-79h-70v-542h282v156h79v-235h-525v79h70v542h-70zM357 700h99v-140c0 -80 -60 -109 -99 -117v55c28 3 50 31 50 62v31h-50v109z" />
    <glyph glyph-name="lcaron" unicode="&#x13e;" horiz-adv-x="371" 
d="M40 638v62h154v-638h66v-62h-220v62h66v576h-66zM272 700h99v-140c0 -80 -60 -109 -99 -117v55c28 3 50 31 50 62v31h-50v109z" />
    <glyph glyph-name="Ldot" unicode="&#x13f;" horiz-adv-x="600" 
d="M55 621v79h234v-79h-70v-542h282v156h79v-235h-525v79h70v542h-70zM402 323v110h99v-110h-99z" />
    <glyph glyph-name="ldot" unicode="&#x140;" horiz-adv-x="359" 
d="M40 638v62h154v-638h66v-62h-220v62h66v576h-66zM275 272v110h99v-110h-99z" />
    <glyph glyph-name="Lslash" unicode="&#x141;" horiz-adv-x="600" 
d="M55 621v79h234v-79h-70v-241l182 172v-84l-182 -172v-217h282v156h79v-235h-525v79h70v128l-95 -89v84l95 89v330h-70z" />
    <glyph glyph-name="lslash" unicode="&#x142;" horiz-adv-x="300" 
d="M40 638v62h154v-263l123 82v-70l-123 -82v-305h66v-62h-220v62h66v247l-123 -81v70l123 81v259h-66z" />
    <glyph glyph-name="Nacute" unicode="&#x143;" horiz-adv-x="816" 
d="M527 621v79h234v-79h-70v-621h-103l-369 560v-481h70v-79h-234v79h70v542h-70v79h174l368 -560v481h-70zM417 900h112l-102 -140h-84z" />
    <glyph glyph-name="nacute" unicode="&#x144;" horiz-adv-x="641" 
d="M381 0v62h66v249c0 54 2 155 -107 155c-48 0 -146 -21 -146 -189v-215h66v-62h-220v62h66v384h-66v62h154v-71c35 51 94 91 174 91c133 0 167 -89 167 -190v-276h66v-62h-220zM328 700h106l-96 -132h-80z" />
    <glyph glyph-name="Ncommaaccent" unicode="&#x145;" horiz-adv-x="816" 
d="M527 621v79h234v-79h-70v-621h-103l-369 560v-481h70v-79h-234v79h70v542h-70v79h174l368 -560v481h-70zM356 -60h107v-109c0 -77 -66 -99 -107 -107v59c31 4 54 23 54 48v12h-54v97z" />
    <glyph glyph-name="ncommaaccent" unicode="&#x146;" horiz-adv-x="641" 
d="M381 0v62h66v249c0 54 2 155 -107 155c-48 0 -146 -21 -146 -189v-215h66v-62h-220v62h66v384h-66v62h154v-71c35 51 94 91 174 91c133 0 167 -89 167 -190v-276h66v-62h-220zM237 -60h99v-101c0 -71 -61 -91 -99 -99v55c28 3 50 21 50 44v11h-50v90z" />
    <glyph glyph-name="Ncaron" unicode="&#x147;" horiz-adv-x="816" 
d="M527 621v79h234v-79h-70v-621h-103l-369 560v-481h70v-79h-234v79h70v542h-70v79h174l368 -560v481h-70zM481 760h-142l-125 140h94l102 -105l102 105h94z" />
    <glyph glyph-name="ncaron" unicode="&#x148;" horiz-adv-x="641" 
d="M381 0v62h66v249c0 54 2 155 -107 155c-48 0 -146 -21 -146 -189v-215h66v-62h-220v62h66v384h-66v62h154v-71c35 51 94 91 174 91c133 0 167 -89 167 -190v-276h66v-62h-220zM386 568h-132l-119 132h88l97 -99l97 99h88z" />
    <glyph glyph-name="Omacron" unicode="&#x14c;" horiz-adv-x="758" 
d="M45 350c0 245 139 371 334 371c155 0 334 -86 334 -371c0 -366 -291 -371 -334 -371c-46 0 -334 5 -334 371zM145 350c0 -113 34 -292 234 -292c48 0 234 10 234 292c0 165 -73 292 -234 292c-214 0 -234 -216 -234 -292zM221 772v60h316v-60h-316z" />
    <glyph glyph-name="omacron" unicode="&#x14d;" horiz-adv-x="586" 
d="M43 254c0 135 65 274 250 274s250 -139 250 -274s-65 -274 -250 -274s-250 139 -250 274zM136 255c0 -204 118 -213 157 -213s157 9 157 213s-118 213 -157 213s-157 -9 -157 -213zM135 613v60h316v-60h-316z" />
    <glyph glyph-name="Ohungarumlaut" unicode="&#x150;" horiz-adv-x="758" 
d="M45 350c0 245 139 371 334 371c155 0 334 -86 334 -371c0 -366 -291 -371 -334 -371c-46 0 -334 5 -334 371zM145 350c0 -113 34 -292 234 -292c48 0 234 10 234 292c0 165 -73 292 -234 292c-214 0 -234 -216 -234 -292zM324 900h106l-96 -140h-80zM477 900h106
l-96 -140h-80z" />
    <glyph glyph-name="ohungarumlaut" unicode="&#x151;" horiz-adv-x="586" 
d="M43 254c0 135 65 274 250 274s250 -139 250 -274s-65 -274 -250 -274s-250 139 -250 274zM136 255c0 -204 118 -213 157 -213s157 9 157 213s-118 213 -157 213s-157 -9 -157 -213zM238 700h106l-96 -132h-80zM391 700h106l-96 -132h-80z" />
    <glyph glyph-name="OE" unicode="&#x152;" horiz-adv-x="1093" 
d="M1052 490h-79v131h-326v-220h279v-79h-279v-243h337v141h79v-220h-510c-76 -24 -156 -21 -174 -21c-46 0 -334 5 -334 371c0 245 139 371 334 371c55 0 118 -4 174 -21h499v-210zM379 58c26 0 107 -3 174 34v516c-51 25 -98 34 -174 34c-214 0 -234 -216 -234 -292
c0 -113 34 -292 234 -292z" />
    <glyph glyph-name="oe" unicode="&#x153;" horiz-adv-x="972" 
d="M840 148h84c-35 -147 -153 -168 -225 -168c-56 0 -151 3 -207 104c-50 -95 -145 -104 -200 -104c-171 0 -249 121 -249 276c0 79 21 272 253 272c52 0 141 -5 196 -100c59 91 144 100 199 100c229 0 238 -198 238 -268v-25h-393c0 -89 43 -193 160 -193
c87 0 131 53 144 106zM136 256c0 -204 118 -214 156 -214c135 0 156 137 156 214c0 76 -21 210 -156 210c-37 0 -156 -10 -156 -210zM536 297h300c-13 112 -44 169 -143 169c-129 0 -154 -105 -157 -169z" />
    <glyph glyph-name="Racute" unicode="&#x154;" horiz-adv-x="731" 
d="M539 0l-106 297h-214v-218h70v-79h-234v79h70v542h-70v79h365c81 0 248 -21 248 -198c0 -73 -46 -156 -139 -191l74 -232h88v-79h-152zM219 621v-245h201c44 0 148 18 148 126c0 92 -74 119 -162 119h-187zM387 900h112l-102 -140h-84z" />
    <glyph glyph-name="racute" unicode="&#x155;" horiz-adv-x="403" 
d="M40 446v62h154v-98h2c24 75 97 114 168 117l26 1v-62c-118 -5 -187 -50 -195 -178c-1 -9 -1 -18 -1 -27v-199h66v-62h-220v62h66v384h-66zM246 700h106l-96 -132h-80z" />
    <glyph glyph-name="Rcommaaccent" unicode="&#x156;" horiz-adv-x="731" 
d="M539 0l-106 297h-214v-218h70v-79h-234v79h70v542h-70v79h365c81 0 248 -21 248 -198c0 -73 -46 -156 -139 -191l74 -232h88v-79h-152zM219 621v-245h201c44 0 148 18 148 126c0 92 -74 119 -162 119h-187zM327 -60h107v-109c0 -77 -66 -99 -107 -107v59
c31 4 54 23 54 48v12h-54v97z" />
    <glyph glyph-name="rcommaaccent" unicode="&#x157;" horiz-adv-x="403" 
d="M40 446v62h154v-98h2c24 75 97 114 168 117l26 1v-62c-118 -5 -187 -50 -195 -178c-1 -9 -1 -18 -1 -27v-199h66v-62h-220v62h66v384h-66zM100 -60h99v-101c0 -71 -61 -91 -99 -99v55c28 3 50 21 50 44v11h-50v90z" />
    <glyph glyph-name="Rcaron" unicode="&#x158;" horiz-adv-x="731" 
d="M539 0l-106 297h-214v-218h70v-79h-234v79h70v542h-70v79h365c81 0 248 -21 248 -198c0 -73 -46 -156 -139 -191l74 -232h88v-79h-152zM219 621v-245h201c44 0 148 18 148 126c0 92 -74 119 -162 119h-187zM451 760h-142l-125 140h94l102 -105l102 105h94z" />
    <glyph glyph-name="rcaron" unicode="&#x159;" horiz-adv-x="403" 
d="M40 446v62h154v-98h2c24 75 97 114 168 117l26 1v-62c-118 -5 -187 -50 -195 -178c-1 -9 -1 -18 -1 -27v-199h66v-62h-220v62h66v384h-66zM286 568h-132l-119 132h88l97 -99l97 99h88z" />
    <glyph glyph-name="Sacute" unicode="&#x15a;" horiz-adv-x="656" 
d="M578 500h-79c-5 89 -98 142 -180 142c-97 0 -150 -45 -150 -117c0 -85 83 -99 175 -117c125 -24 267 -59 267 -218c0 -200 -194 -211 -252 -211c-60 0 -175 14 -225 93v-72h-74v235h79c3 -87 76 -177 200 -177s172 63 172 130c0 86 -76 109 -141 123
c-160 35 -301 51 -301 212c0 132 96 198 249 198c76 0 148 -31 188 -84v63h72v-200zM345 900h112l-102 -140h-84z" />
    <glyph glyph-name="sacute" unicode="&#x15b;" horiz-adv-x="524" 
d="M390 508h59v-140h-62c-3 22 -28 98 -126 98c-11 0 -103 1 -103 -80c0 -72 66 -78 138 -94c104 -24 178 -52 178 -152c0 -156 -155 -160 -196 -160c-51 0 -121 17 -156 70h-3v-50h-62v175h62c8 -81 68 -133 145 -133c117 0 119 68 119 89c0 33 -5 67 -104 91l-54 12
c-85 19 -158 45 -158 148c0 108 91 146 183 146c60 0 113 -25 137 -60h3v40zM271 700h106l-96 -132h-80z" />
    <glyph glyph-name="Scircumflex" unicode="&#x15c;" horiz-adv-x="656" 
d="M578 500h-79c-5 89 -98 142 -180 142c-97 0 -150 -45 -150 -117c0 -85 83 -99 175 -117c125 -24 267 -59 267 -218c0 -200 -194 -211 -252 -211c-60 0 -175 14 -225 93v-72h-74v235h79c3 -87 76 -177 200 -177s172 63 172 130c0 86 -76 109 -141 123
c-160 35 -301 51 -301 212c0 132 96 198 249 198c76 0 148 -31 188 -84v63h72v-200zM132 760l125 140h142l125 -140h-94l-102 105l-102 -105h-94z" />
    <glyph glyph-name="scircumflex" unicode="&#x15d;" horiz-adv-x="524" 
d="M390 508h59v-140h-62c-3 22 -28 98 -126 98c-11 0 -103 1 -103 -80c0 -72 66 -78 138 -94c104 -24 178 -52 178 -152c0 -156 -155 -160 -196 -160c-51 0 -121 17 -156 70h-3v-50h-62v175h62c8 -81 68 -133 145 -133c117 0 119 68 119 89c0 33 -5 67 -104 91l-54 12
c-85 19 -158 45 -158 148c0 108 91 146 183 146c60 0 113 -25 137 -60h3v40zM63 568l119 132h132l119 -132h-88l-97 99l-97 -99h-88z" />
    <glyph glyph-name="Scedilla" unicode="&#x15e;" horiz-adv-x="656" 
d="M578 500h-79c-5 89 -98 142 -180 142c-97 0 -150 -45 -150 -117c0 -85 83 -99 175 -117c125 -24 267 -59 267 -218c0 -200 -194 -211 -252 -211c-60 0 -175 14 -225 93v-72h-74v235h79c3 -87 76 -177 200 -177s172 63 172 130c0 86 -76 109 -141 123
c-160 35 -301 51 -301 212c0 132 96 198 249 198c76 0 148 -31 188 -84v63h72v-200zM222 -232l17 56c11 -4 27 -8 62 -8c45 0 63 16 63 37c0 29 -30 37 -59 37h-27h-17l15 52h32c115 0 133 -47 133 -88c0 -34 -21 -94 -128 -94c-15 0 -44 1 -91 8z" />
    <glyph glyph-name="scedilla" unicode="&#x15f;" horiz-adv-x="524" 
d="M390 508h59v-140h-62c-3 22 -28 98 -126 98c-11 0 -103 1 -103 -80c0 -72 66 -78 138 -94c104 -24 178 -52 178 -152c0 -156 -155 -160 -196 -160c-51 0 -121 17 -156 70h-3v-50h-62v175h62c8 -81 68 -133 145 -133c117 0 119 68 119 89c0 33 -5 67 -104 91l-54 12
c-85 19 -158 45 -158 148c0 108 91 146 183 146c60 0 113 -25 137 -60h3v40zM142 -232l17 56c11 -4 27 -8 62 -8c45 0 63 16 63 37c0 29 -30 37 -59 37h-27h-17l15 52h32c115 0 133 -47 133 -88c0 -34 -21 -94 -128 -94c-15 0 -44 1 -91 8z" />
    <glyph glyph-name="Scaron" unicode="&#x160;" horiz-adv-x="656" 
d="M578 500h-79c-5 89 -98 142 -180 142c-97 0 -150 -45 -150 -117c0 -85 83 -99 175 -117c125 -24 267 -59 267 -218c0 -200 -194 -211 -252 -211c-60 0 -175 14 -225 93v-72h-74v235h79c3 -87 76 -177 200 -177s172 63 172 130c0 86 -76 109 -141 123
c-160 35 -301 51 -301 212c0 132 96 198 249 198c76 0 148 -31 188 -84v63h72v-200zM399 760h-142l-125 140h94l102 -105l102 105h94z" />
    <glyph glyph-name="scaron" unicode="&#x161;" horiz-adv-x="524" 
d="M390 508h59v-140h-62c-3 22 -28 98 -126 98c-11 0 -103 1 -103 -80c0 -72 66 -78 138 -94c104 -24 178 -52 178 -152c0 -156 -155 -160 -196 -160c-51 0 -121 17 -156 70h-3v-50h-62v175h62c8 -81 68 -133 145 -133c117 0 119 68 119 89c0 33 -5 67 -104 91l-54 12
c-85 19 -158 45 -158 148c0 108 91 146 183 146c60 0 113 -25 137 -60h3v40zM314 568h-132l-119 132h88l97 -99l97 99h88z" />
    <glyph glyph-name="Tcedilla" unicode="&#x162;" horiz-adv-x="638" 
d="M202 0v79h70v542h-183v-171h-79v250h618v-250h-79v171h-183v-542h70v-79h-234zM213 -248l19 61c11 -4 28 -8 67 -8c49 0 69 16 69 40c0 32 -32 40 -65 40h-29h-18l16 57h35c125 0 145 -53 145 -97c0 -37 -23 -101 -139 -101c-17 0 -49 1 -100 8z" />
    <glyph glyph-name="tcedilla" unicode="&#x163;" horiz-adv-x="320" 
d="M13 508h91v152h88v-152h108v-62h-108v-323c0 -37 -3 -70 53 -70c19 0 38 4 55 9v-62c-28 -12 -61 -20 -92 -20c-105 0 -104 72 -104 125v341h-91v62zM83 -232l17 56c11 -4 27 -8 62 -8c45 0 63 16 63 37c0 29 -30 37 -59 37h-27h-17l15 52h32c115 0 133 -47 133 -88
c0 -34 -21 -94 -128 -94c-15 0 -44 1 -91 8z" />
    <glyph glyph-name="Tcaron" unicode="&#x164;" horiz-adv-x="638" 
d="M202 0v79h70v542h-183v-171h-79v250h618v-250h-79v171h-183v-542h70v-79h-234zM389 760h-142l-125 140h94l102 -105l102 105h94z" />
    <glyph glyph-name="tcaron" unicode="&#x165;" horiz-adv-x="435" 
d="M13 508h91v152h88v-152h108v-62h-108v-323c0 -37 -3 -70 53 -70c19 0 38 4 55 9v-62c-28 -12 -61 -20 -92 -20c-105 0 -104 72 -104 125v341h-91v62zM336 700h99v-140c0 -80 -60 -109 -99 -117v55c28 3 50 31 50 62v31h-50v109z" />
    <glyph glyph-name="Umacron" unicode="&#x16a;" horiz-adv-x="772" 
d="M498 621v79h234v-79h-70v-350c0 -285 -200 -292 -276 -292c-256 0 -276 172 -276 292v350h-70v79h234v-79h-70v-338c0 -86 6 -225 182 -225c139 0 182 78 182 225v338h-70zM228 772v60h316v-60h-316z" />
    <glyph glyph-name="umacron" unicode="&#x16b;" horiz-adv-x="641" 
d="M535 508v-446h66v-62h-154v72h-2c-51 -88 -154 -92 -172 -92c-150 0 -167 115 -167 191v275h-66v62h154v-311c0 -128 44 -155 107 -155c148 0 146 153 146 189v215h-66v62h154zM152 613v60h316v-60h-316z" />
    <glyph glyph-name="Ubreve" unicode="&#x16c;" horiz-adv-x="772" 
d="M498 621v79h234v-79h-70v-350c0 -285 -200 -292 -276 -292c-256 0 -276 172 -276 292v350h-70v79h234v-79h-70v-338c0 -86 6 -225 182 -225c139 0 182 78 182 225v338h-70zM199 900h86c7 -41 33 -78 101 -78c67 0 94 37 101 78h86c-16 -108 -104 -140 -187 -140
s-171 32 -187 140z" />
    <glyph glyph-name="ubreve" unicode="&#x16d;" horiz-adv-x="641" 
d="M535 508v-446h66v-62h-154v72h-2c-51 -88 -154 -92 -172 -92c-150 0 -167 115 -167 191v275h-66v62h154v-311c0 -128 44 -155 107 -155c148 0 146 153 146 189v215h-66v62h154zM310 623c53 0 89 26 96 77h78c-15 -84 -73 -134 -174 -134s-159 50 -174 134h78
c7 -51 43 -77 96 -77z" />
    <glyph glyph-name="Uring" unicode="&#x16e;" horiz-adv-x="772" 
d="M498 621v79h234v-79h-70v-350c0 -285 -200 -292 -276 -292c-256 0 -276 172 -276 292v350h-70v79h234v-79h-70v-338c0 -86 6 -225 182 -225c139 0 182 78 182 225v338h-70zM288 828c0 56 42 98 98 98s98 -42 98 -98s-42 -98 -98 -98s-98 42 -98 98zM330 828
c0 -31 25 -56 56 -56s56 25 56 56s-25 56 -56 56s-56 -25 -56 -56z" />
    <glyph glyph-name="uring" unicode="&#x16f;" horiz-adv-x="641" 
d="M535 508v-446h66v-62h-154v72h-2c-51 -88 -154 -92 -172 -92c-150 0 -167 115 -167 191v275h-66v62h154v-311c0 -128 44 -155 107 -155c148 0 146 153 146 189v215h-66v62h154zM227 643c0 52 41 93 93 93s93 -41 93 -93s-41 -93 -93 -93s-93 41 -93 93zM268 643
c0 -29 23 -52 52 -52s52 23 52 52s-23 52 -52 52s-52 -23 -52 -52z" />
    <glyph glyph-name="Uhungarumlaut" unicode="&#x170;" horiz-adv-x="772" 
d="M498 621v79h234v-79h-70v-350c0 -285 -200 -292 -276 -292c-256 0 -276 172 -276 292v350h-70v79h234v-79h-70v-338c0 -86 6 -225 182 -225c139 0 182 78 182 225v338h-70zM321 900h106l-96 -140h-80zM474 900h106l-96 -140h-80z" />
    <glyph glyph-name="uhungarumlaut" unicode="&#x171;" horiz-adv-x="641" 
d="M535 508v-446h66v-62h-154v72h-2c-51 -88 -154 -92 -172 -92c-150 0 -167 115 -167 191v275h-66v62h154v-311c0 -128 44 -155 107 -155c148 0 146 153 146 189v215h-66v62h154zM256 700h106l-96 -132h-80zM409 700h106l-96 -132h-80z" />
    <glyph glyph-name="Uogonek" unicode="&#x172;" horiz-adv-x="772" 
d="M498 621v79h234v-79h-70v-350c0 -264 -171 -288 -256 -292c-23 -23 -37 -54 -37 -82c0 -31 14 -59 46 -59c33 0 44 32 44 52h74c-3 -54 -41 -114 -123 -114c-76 0 -131 38 -131 102c0 41 22 78 49 105c-200 24 -218 178 -218 288v350h-70v79h234v-79h-70v-338
c0 -86 6 -225 182 -225c139 0 182 78 182 225v338h-70z" />
    <glyph glyph-name="uogonek" unicode="&#x173;" horiz-adv-x="641" 
d="M477 0h-30v72h-2c-51 -88 -154 -92 -172 -92c-150 0 -167 115 -167 191v275h-66v62h154v-311c0 -128 44 -155 107 -155c148 0 146 153 146 189v215h-66v62h154v-446h66v-62h-42c-39 -23 -62 -63 -62 -99c0 -31 14 -56 45 -56c32 0 42 30 42 49h71
c-3 -51 -40 -109 -118 -109c-73 0 -126 37 -126 98c0 49 33 90 66 117z" />
    <glyph glyph-name="Ydieresis" unicode="&#x178;" horiz-adv-x="634" 
d="M0 621v79h237v-79h-62l148 -245l146 245h-55v79h220v-79h-60l-209 -329v-213h70v-79h-234v79h70v213l-209 329h-62zM162 772v79h94v-79h-94zM378 772v79h94v-79h-94z" />
    <glyph glyph-name="Zacute" unicode="&#x179;" horiz-adv-x="614" 
d="M132 490h-79v210h506v-75l-409 -546h350v156h79v-235h-544v86l414 535h-317v-131zM312 900h112l-102 -140h-84z" />
    <glyph glyph-name="zacute" unicode="&#x17a;" horiz-adv-x="470" 
d="M382 175h62v-175h-418v62l304 384h-221v-98h-62v160h380v-62l-295 -384h250v113zM250 700h106l-96 -132h-80z" />
    <glyph glyph-name="Zdotaccent" unicode="&#x17b;" horiz-adv-x="614" 
d="M132 490h-79v210h506v-75l-409 -546h350v156h79v-235h-544v86l414 535h-317v-131zM258 772v79h94v-79h-94z" />
    <glyph glyph-name="zdotaccent" unicode="&#x17c;" horiz-adv-x="470" 
d="M382 175h62v-175h-418v62l304 384h-221v-98h-62v160h380v-62l-295 -384h250v113zM190 608v92h92v-92h-92z" />
    <glyph glyph-name="uni018F" unicode="&#x18f;" horiz-adv-x="759" 
d="M372 642c-126 0 -206 -83 -217 -152h-79v210h75v-82c45 64 138 103 231 103c196 0 332 -126 332 -371c0 -366 -291 -371 -334 -371c-269 0 -338 226 -334 382h568c-4 242 -157 281 -242 281zM611 278h-463c8 -77 58 -220 232 -220c149 0 223 111 231 220z" />
    <glyph glyph-name="florin" unicode="&#x192;" 
d="M465 508l-13 -62h-109l-103 -490c-14 -57 -30 -145 -151 -145c-20 0 -48 3 -55 4l14 65c3 -1 8 -1 14 -1c56 0 77 20 90 83l102 484h-93l13 62h93l15 69c18 82 72 123 162 123c23 0 43 -2 62 -7l-12 -60c-15 3 -47 5 -62 5c-51 0 -60 -53 -63 -69l-13 -61h109z" />
    <glyph glyph-name="uni01DD" unicode="&#x1dd;" horiz-adv-x="566" 
d="M429 212h-299c5 -164 118 -170 142 -170c132 0 154 106 157 170zM276 528c248 0 246 -221 246 -272c0 -270 -209 -276 -248 -276c-189 0 -239 138 -236 294h391c0 73 -31 192 -154 192c-92 0 -144 -51 -153 -118h-67v160h64v-48h3c47 55 122 68 154 68z" />
    <glyph glyph-name="Scommaaccent" unicode="&#x218;" horiz-adv-x="656" 
d="M578 500h-79c-5 89 -98 142 -180 142c-97 0 -150 -45 -150 -117c0 -85 83 -99 175 -117c125 -24 267 -59 267 -218c0 -200 -194 -211 -252 -211c-60 0 -175 14 -225 93v-72h-74v235h79c3 -87 76 -177 200 -177s172 63 172 130c0 86 -76 109 -141 123
c-160 35 -301 51 -301 212c0 132 96 198 249 198c76 0 148 -31 188 -84v63h72v-200zM284 -60h107v-109c0 -77 -66 -99 -107 -107v59c31 4 54 23 54 48v12h-54v97z" />
    <glyph glyph-name="scommaaccent" unicode="&#x219;" horiz-adv-x="524" 
d="M390 508h59v-140h-62c-3 22 -28 98 -126 98c-11 0 -103 1 -103 -80c0 -72 66 -78 138 -94c104 -24 178 -52 178 -152c0 -156 -155 -160 -196 -160c-51 0 -121 17 -156 70h-3v-50h-62v175h62c8 -81 68 -133 145 -133c117 0 119 68 119 89c0 33 -5 67 -104 91l-54 12
c-85 19 -158 45 -158 148c0 108 91 146 183 146c60 0 113 -25 137 -60h3v40zM209 -60h99v-101c0 -71 -61 -91 -99 -99v55c28 3 50 21 50 44v11h-50v90z" />
    <glyph glyph-name="Tcommaaccent" unicode="&#x21a;" horiz-adv-x="638" 
d="M202 0v79h70v542h-183v-171h-79v250h618v-250h-79v171h-183v-542h70v-79h-234zM265 -60h107v-109c0 -77 -66 -99 -107 -107v59c31 4 54 23 54 48v12h-54v97z" />
    <glyph glyph-name="tcommaaccent" unicode="&#x21b;" horiz-adv-x="320" 
d="M13 508h91v152h88v-152h108v-62h-108v-323c0 -37 -3 -70 53 -70c19 0 38 4 55 9v-62c-28 -12 -61 -20 -92 -20c-105 0 -104 72 -104 125v341h-91v62zM154 -60h99v-101c0 -71 -61 -91 -99 -99v55c28 3 50 21 50 44v11h-50v90z" />
    <glyph glyph-name="uni0259" unicode="&#x259;" horiz-adv-x="566" 
d="M429 212h-299c5 -164 118 -170 142 -170c132 0 154 106 157 170zM276 528c248 0 246 -221 246 -272c0 -270 -209 -276 -248 -276c-189 0 -239 138 -236 294h391c0 73 -31 192 -154 192c-92 0 -144 -51 -153 -118h-67v160h64v-48h3c47 55 122 68 154 68z" />
    <glyph glyph-name="afii57929" unicode="&#x2bc;" horiz-adv-x="199" 
d="M50 700h99v-140c0 -80 -60 -109 -99 -117v55c28 3 50 31 50 62v31h-50v109z" />
    <glyph glyph-name="circumflex" unicode="&#x2c6;" horiz-adv-x="470" 
d="M50 568l119 132h132l119 -132h-88l-97 99l-97 -99h-88z" />
    <glyph glyph-name="caron" unicode="&#x2c7;" horiz-adv-x="470" 
d="M301 568h-132l-119 132h88l97 -99l97 99h88z" />
    <glyph glyph-name="breve" unicode="&#x2d8;" horiz-adv-x="444" 
d="M222 623c53 0 89 26 96 77h78c-15 -84 -73 -134 -174 -134s-159 50 -174 134h78c7 -51 43 -77 96 -77z" />
    <glyph glyph-name="dotaccent" unicode="&#x2d9;" horiz-adv-x="192" 
d="M50 608v92h92v-92h-92z" />
    <glyph glyph-name="ring" unicode="&#x2da;" horiz-adv-x="284" 
d="M49 643c0 52 41 93 93 93s93 -41 93 -93s-41 -93 -93 -93s-93 41 -93 93zM90 643c0 -29 23 -52 52 -52s52 23 52 52s-23 52 -52 52s-52 -23 -52 -52z" />
    <glyph glyph-name="ogonek" unicode="&#x2db;" horiz-adv-x="350" 
d="M123 0h82c-39 -23 -62 -63 -62 -99c0 -31 14 -56 45 -56c32 0 42 30 42 49h71c-3 -51 -40 -109 -118 -109c-73 0 -126 37 -126 98c0 49 33 90 66 117z" />
    <glyph glyph-name="tilde" unicode="&#x2dc;" horiz-adv-x="470" 
d="M362 700h58c-8 -41 -35 -102 -111 -102c-32 0 -57 13 -82 26c-21 11 -43 24 -67 24c-21 0 -48 -9 -51 -40h-59c9 52 47 100 111 100c28 0 46 -6 74 -22c19 -11 45 -28 74 -28c25 0 46 18 53 42z" />
    <glyph glyph-name="hungarumlaut" unicode="&#x2dd;" horiz-adv-x="429" 
d="M120 700h106l-96 -132h-80zM273 700h106l-96 -132h-80z" />
    <glyph glyph-name="gravecomb" unicode="&#x300;" horiz-adv-x="2" 
d="M-322 700l70 -132h-80l-96 132h106z" />
    <glyph glyph-name="acutecomb" unicode="&#x301;" horiz-adv-x="2" 
d="M-267 700h106l-96 -132h-80z" />
    <glyph glyph-name="uni0394" unicode="&#x394;" horiz-adv-x="663" 
d="M329 602l-195 -523h390zM10 0l273 700h97l273 -700h-643z" />
    <glyph glyph-name="uni0394" unicode="&#x2206;" horiz-adv-x="663" 
d="M329 602l-195 -523h390zM10 0l273 700h97l273 -700h-643z" />
    <glyph glyph-name="uni03A9" unicode="&#x3a9;" horiz-adv-x="772" 
d="M30 155h79v-76h135v38c-111 29 -190 130 -190 286c0 169 101 318 337 318s337 -149 337 -318c0 -156 -79 -257 -190 -286v-38h125v76h79v-155h-283v167c64 13 169 55 169 236c0 160 -102 239 -237 239s-237 -79 -237 -239c0 -181 105 -223 169 -236v-167h-293v155z" />
    <glyph glyph-name="uni03A9" unicode="&#x2126;" horiz-adv-x="772" 
d="M30 155h79v-76h135v38c-111 29 -190 130 -190 286c0 169 101 318 337 318s337 -149 337 -318c0 -156 -79 -257 -190 -286v-38h125v76h79v-155h-283v167c64 13 169 55 169 236c0 160 -102 239 -237 239s-237 -79 -237 -239c0 -181 105 -223 169 -236v-167h-293v155z" />
    <glyph glyph-name="pi" unicode="&#x3c0;" horiz-adv-x="621" 
d="M59 62h66v384h-13c-23 0 -60 -9 -77 -20v62c31 17 66 20 95 20h451v-62h-66v-446h-88v446h-214v-446h-154v62z" />
    <glyph glyph-name="afii10023" unicode="&#x401;" horiz-adv-x="665" 
d="M624 490h-79v131h-326v-220h279v-79h-279v-243h337v141h79v-220h-580v79h70v542h-70v79h569v-210zM191 772v79h94v-79h-94zM407 772v79h94v-79h-94z" />
    <glyph glyph-name="afii10051" unicode="&#x402;" horiz-adv-x="797" 
d="M202 0v79h69v542h-182v-171h-79v250h618v-230h-79v151h-183v-225c34 3 115 7 152 7c212 0 247 -119 247 -204c0 -133 -80 -212 -213 -212c-33 0 -56 5 -79 13v79c23 -7 48 -13 71 -13c44 0 125 14 125 126c0 72 -28 132 -169 132c-40 0 -105 -4 -134 -7v-238h50v-79h-214
z" />
    <glyph glyph-name="afii10052" unicode="&#x403;" horiz-adv-x="576" 
d="M55 621v79h511v-250h-79v171h-268v-542h70v-79h-234v79h70v542h-70zM339 900h112l-102 -140h-84z" />
    <glyph glyph-name="afii10053" unicode="&#x404;" horiz-adv-x="712" 
d="M652 490h-79c-5 51 -44 152 -205 152c-151 0 -210 -113 -221 -242h343v-79h-345c8 -152 96 -263 237 -263c112 0 193 74 198 174h94c-13 -100 -71 -253 -296 -253c-208 0 -333 135 -333 359c0 372 258 383 317 383c95 0 167 -31 216 -93v72h74v-210z" />
    <glyph glyph-name="afii10054" unicode="&#x405;" horiz-adv-x="656" 
d="M578 500h-79c-5 89 -98 142 -180 142c-97 0 -150 -45 -150 -117c0 -85 83 -99 175 -117c125 -24 267 -59 267 -218c0 -200 -194 -211 -252 -211c-60 0 -175 14 -225 93v-72h-74v235h79c3 -87 76 -177 200 -177s172 63 172 130c0 86 -76 109 -141 123
c-160 35 -301 51 -301 212c0 132 96 198 249 198c76 0 148 -31 188 -84v63h72v-200z" />
    <glyph glyph-name="afii10055" unicode="&#x406;" horiz-adv-x="344" 
d="M55 621v79h234v-79h-70v-542h70v-79h-234v79h70v542h-70z" />
    <glyph glyph-name="afii10056" unicode="&#x407;" horiz-adv-x="344" 
d="M47 772v79h94v-79h-94zM203 772v79h94v-79h-94zM55 621v79h234v-79h-70v-542h70v-79h-234v79h70v542h-70z" />
    <glyph glyph-name="afii10057" unicode="&#x408;" horiz-adv-x="553" 
d="M279 621v79h239v-79h-70v-379c0 -183 -58 -263 -211 -263c-71 0 -214 16 -214 217v36h94c0 -111 27 -174 121 -174c100 0 116 73 116 175v388h-75z" />
    <glyph glyph-name="afii10058" unicode="&#x409;" horiz-adv-x="1060" 
d="M441 0v79h70v542h-236v-178c0 -331 -115 -467 -270 -443v82c104 -13 176 96 176 367v172h-81v79h575v-79h-70v-206h178c84 0 249 -26 249 -206c0 -183 -174 -209 -247 -209h-344zM605 336v-257h176c20 0 155 6 155 130c0 76 -52 127 -168 127h-163z" />
    <glyph glyph-name="afii10059" unicode="&#x40a;" horiz-adv-x="1127" 
d="M508 0v79h70v256h-359v-256h70v-79h-234v79h70v542h-70v79h234v-79h-70v-206h359v206h-70v79h234v-79h-70v-206h178c84 0 249 -26 249 -206c0 -183 -174 -209 -247 -209h-344zM672 336v-257h176c20 0 155 6 155 130c0 76 -52 127 -168 127h-163z" />
    <glyph glyph-name="afii10060" unicode="&#x40b;" horiz-adv-x="876" 
d="M628 700v-230h-79v151h-183v-227c40 7 94 9 141 9c163 0 239 -56 239 -199v-125h70v-79h-164v192c0 99 -50 132 -163 132c-47 0 -78 -4 -123 -9v-236h70v-79h-234v79h70v542h-183v-171h-79v250h618z" />
    <glyph glyph-name="afii10061" unicode="&#x40c;" horiz-adv-x="655" 
d="M249 360l218 261h-52v79h217v-79h-58l-214 -256l228 -286h62v-79h-229v79h52zM219 621v-542h70v-79h-234v79h70v542h-70v79h234v-79h-70zM380 900h112l-102 -140h-84z" />
    <glyph glyph-name="afii10062" unicode="&#x40e;" horiz-adv-x="651" 
d="M5 621v79h232v-79h-57l170 -342l130 342h-59v79h225v-79h-68l-263 -621h-160v79h110l37 95l-234 447h-63zM126 900h86c7 -41 33 -78 101 -78c67 0 94 37 101 78h86c-16 -108 -104 -140 -187 -140s-171 32 -187 140z" />
    <glyph glyph-name="afii10145" unicode="&#x40f;" horiz-adv-x="790" 
d="M501 621v79h234v-79h-70v-542h70v-79h-295v-189h-90v189h-295v79h70v542h-70v79h234v-79h-70v-542h352v542h-70z" />
    <glyph glyph-name="afii10017" unicode="&#x410;" horiz-adv-x="706" 
d="M471 0v79h65l-37 102h-296l-37 -102h64v-79h-230v79h70l205 542h-78v79h208l235 -621h66v-79h-235zM229 260h244l-122 346z" />
    <glyph glyph-name="afii10018" unicode="&#x411;" horiz-adv-x="713" 
d="M55 621v79h567v-210h-79v131h-324v-210h196c70 0 253 -9 253 -205c0 -93 -63 -206 -251 -206h-362v79h70v542h-70zM219 332v-253h192c75 0 161 31 161 129c0 109 -98 124 -166 124h-187z" />
    <glyph glyph-name="afii10019" unicode="&#x412;" horiz-adv-x="711" 
d="M55 621v79h377c170 0 209 -96 209 -178c0 -75 -52 -140 -117 -150v-3c58 -10 147 -49 147 -174c0 -100 -51 -195 -250 -195h-366v79h70v542h-70zM219 324v-245h195c65 0 161 10 161 124c0 90 -63 121 -161 121h-195zM219 621v-218h189c103 0 137 51 137 109
c0 40 -17 109 -134 109h-192z" />
    <glyph glyph-name="afii10020" unicode="&#x413;" horiz-adv-x="576" 
d="M55 621v79h511v-250h-79v171h-268v-542h70v-79h-234v79h70v542h-70z" />
    <glyph glyph-name="afii10021" unicode="&#x414;" horiz-adv-x="770" 
d="M114 621v79h585v-79h-70v-542h101l-9 -237h-82v158h-539v-158h-82l-8 237h63c65 81 133 215 133 477v65h-92zM300 621v-87c0 -183 -26 -322 -116 -455h351v542h-235z" />
    <glyph glyph-name="afii10022" unicode="&#x415;" horiz-adv-x="665" 
d="M624 490h-79v131h-326v-220h279v-79h-279v-243h337v141h79v-220h-580v79h70v542h-70v79h569v-210z" />
    <glyph glyph-name="afii10024" unicode="&#x416;" horiz-adv-x="969" 
d="M439 79v542h-62v79h215v-79h-62v-542h62v-79h-215v79h62zM560 366l188 255h-56v79h226v-79h-63l-195 -249l222 -293h82v-79h-136zM221 621l188 -255l-268 -366h-136v79h82l222 293l-195 249h-63v79h226v-79h-56z" />
    <glyph glyph-name="afii10025" unicode="&#x417;" horiz-adv-x="649" 
d="M45 215h94c5 -68 39 -157 199 -157c138 0 175 77 175 139c0 59 -25 132 -160 132h-92v79h83c32 0 141 3 141 111c0 121 -132 123 -161 123s-147 -12 -173 -142h-79v200h77v-69c53 75 138 90 195 90c152 0 237 -71 237 -196c0 -76 -46 -139 -119 -152v-2
c108 -25 147 -91 147 -183c0 -93 -52 -209 -265 -209c-241 0 -294 127 -299 236z" />
    <glyph glyph-name="afii10026" unicode="&#x418;" horiz-adv-x="811" 
d="M55 621v79h234v-79h-70v-484l373 563h164v-79h-70v-542h70v-79h-234v79h70v488l-373 -567h-164v79h70v542h-70z" />
    <glyph glyph-name="afii10027" unicode="&#x419;" horiz-adv-x="811" 
d="M55 621v79h234v-79h-70v-484l373 563h164v-79h-70v-542h70v-79h-234v79h70v488l-373 -567h-164v79h70v542h-70zM218 900h86c7 -41 33 -78 101 -78c67 0 94 37 101 78h86c-16 -108 -104 -140 -187 -140s-171 32 -187 140z" />
    <glyph glyph-name="afii10028" unicode="&#x41a;" horiz-adv-x="655" 
d="M249 360l218 261h-52v79h217v-79h-58l-214 -256l228 -286h62v-79h-229v79h52zM219 621v-542h70v-79h-234v79h70v542h-70v79h234v-79h-70z" />
    <glyph glyph-name="afii10029" unicode="&#x41b;" horiz-adv-x="730" 
d="M441 0v79h70v542h-236v-178c0 -331 -115 -467 -270 -443v82c104 -13 176 96 176 367v172h-81v79h575v-79h-70v-542h70v-79h-234z" />
    <glyph glyph-name="afii10030" unicode="&#x41c;" horiz-adv-x="990" 
d="M701 0v79h70v485l2 27h-3l-237 -591h-76l-238 591h-2l2 -27v-485h70v-79h-234v79h70v542h-70v79h214l229 -581l229 581h208v-79h-70v-542h70v-79h-234z" />
    <glyph glyph-name="afii10031" unicode="&#x41d;" horiz-adv-x="797" 
d="M508 0v79h70v250h-359v-250h70v-79h-234v79h70v542h-70v79h234v-79h-70v-213h359v213h-70v79h234v-79h-70v-542h70v-79h-234z" />
    <glyph glyph-name="afii10032" unicode="&#x41e;" horiz-adv-x="758" 
d="M45 350c0 245 139 371 334 371c155 0 334 -86 334 -371c0 -366 -291 -371 -334 -371c-46 0 -334 5 -334 371zM145 350c0 -113 34 -292 234 -292c48 0 234 10 234 292c0 165 -73 292 -234 292c-214 0 -234 -216 -234 -292z" />
    <glyph glyph-name="afii10033" unicode="&#x41f;" horiz-adv-x="790" 
d="M501 0v79h70v542h-352v-542h70v-79h-234v79h70v542h-70v79h680v-79h-70v-542h70v-79h-234z" />
    <glyph glyph-name="afii10034" unicode="&#x420;" horiz-adv-x="675" 
d="M55 621v79h337c144 0 255 -63 255 -203c0 -125 -84 -218 -265 -218h-163v-200h70v-79h-234v79h70v542h-70zM219 621v-263h159c113 0 173 52 173 139c0 81 -65 124 -173 124h-159z" />
    <glyph glyph-name="afii10035" unicode="&#x421;" horiz-adv-x="712" 
d="M652 490h-79c-5 51 -44 152 -205 152c-176 0 -223 -148 -223 -300c0 -163 89 -284 237 -284c112 0 193 74 198 174h94c-13 -100 -71 -253 -296 -253c-208 0 -333 135 -333 359c0 372 258 383 317 383c95 0 167 -31 216 -93v72h74v-210z" />
    <glyph glyph-name="afii10036" unicode="&#x422;" horiz-adv-x="638" 
d="M202 0v79h70v542h-183v-171h-79v250h618v-250h-79v171h-183v-542h70v-79h-234z" />
    <glyph glyph-name="afii10037" unicode="&#x423;" horiz-adv-x="651" 
d="M5 621v79h232v-79h-57l170 -342l130 342h-59v79h225v-79h-68l-263 -621h-160v79h110l37 95l-234 447h-63z" />
    <glyph glyph-name="afii10038" unicode="&#x424;" horiz-adv-x="886" 
d="M326 668v72h234v-72h-70v-41h39c121 0 317 -35 317 -270c0 -249 -228 -271 -317 -271h-39v-42h70v-71h-234v71h70v42h-39c-60 0 -317 5 -317 271c0 56 15 270 317 270h39v41h-70zM490 157h27c92 0 229 20 229 200c0 200 -174 199 -229 199h-27v-399zM396 157v399h-26
c-227 0 -230 -151 -230 -199c0 -53 6 -200 230 -200h26z" />
    <glyph glyph-name="afii10039" unicode="&#x425;" horiz-adv-x="672" 
d="M20 621v79h231v-79h-55l139 -196l138 196h-55v79h232v-79h-63l-192 -263l209 -279h63v-79h-234v79h54l-152 212l-148 -212h52v-79h-234v79h65l205 279l-193 263h-62z" />
    <glyph glyph-name="afii10040" unicode="&#x426;" horiz-adv-x="806" 
d="M55 621v79h234v-79h-70v-542h355v542h-70v79h234v-79h-70v-542h98l-7 -237h-82v158h-622v79h70v542h-70z" />
    <glyph glyph-name="afii10041" unicode="&#x427;" horiz-adv-x="708" 
d="M419 0v79h70v227c-40 -5 -114 -9 -160 -9c-163 0 -239 56 -239 199v125h-70v79h234v-79h-70v-113c0 -99 50 -132 163 -132c47 0 97 4 142 9v236h-70v79h234v-79h-70v-542h70v-79h-234z" />
    <glyph glyph-name="afii10042" unicode="&#x428;" horiz-adv-x="1098" 
d="M55 621v79h230v-79h-66v-542h283v542h-66v79h226v-79h-66v-542h283v542h-66v79h230v-79h-70v-542h70v-79h-988v79h70v542h-70z" />
    <glyph glyph-name="afii10043" unicode="&#x429;" horiz-adv-x="1117" 
d="M813 621v79h230v-79h-70v-542h104l-9 -237h-82v158h-931v79h70v542h-70v79h230v-79h-66v-542h283v542h-66v79h226v-79h-66v-542h283v542h-66z" />
    <glyph glyph-name="afii10044" unicode="&#x42a;" horiz-adv-x="783" 
d="M164 0v79h70v542h-145v-171h-79v250h388v-79h-70v-206h178c84 0 249 -26 249 -206c0 -183 -174 -209 -247 -209h-344zM328 336v-257h176c20 0 155 6 155 130c0 76 -52 127 -168 127h-163z" />
    <glyph glyph-name="afii10045" unicode="&#x42b;" horiz-adv-x="958" 
d="M669 621v79h234v-79h-70v-542h70v-79h-229v79h65v542h-70zM55 621v79h234v-79h-70v-206h172c84 0 249 -26 249 -206c0 -183 -174 -209 -247 -209h-338v79h70v542h-70zM219 336v-257h170c20 0 155 6 155 130c0 76 -52 127 -168 127h-157z" />
    <glyph glyph-name="afii10046" unicode="&#x42c;" horiz-adv-x="674" 
d="M55 621v79h234v-79h-70v-206h178c84 0 249 -26 249 -206c0 -183 -174 -209 -247 -209h-344v79h70v542h-70zM219 336v-257h176c20 0 155 6 155 130c0 76 -52 127 -168 127h-163z" />
    <glyph glyph-name="afii10047" unicode="&#x42d;" horiz-adv-x="719" 
d="M244 401h330c0 54 -19 241 -220 241c-122 0 -194 -83 -205 -152h-79v210h75v-82c44 64 126 103 219 103c275 0 310 -218 310 -363c0 -139 -41 -379 -330 -379c-219 0 -288 158 -299 264h94c8 -56 46 -185 209 -185c183 0 221 144 226 231c1 11 1 22 0 33h-330v79z" />
    <glyph glyph-name="afii10048" unicode="&#x42e;" horiz-adv-x="1033" 
d="M55 621v79h229v-79h-65v-213h115c11 154 105 313 324 313c193 0 330 -126 330 -371c0 -204 -93 -371 -330 -371c-258 0 -320 191 -328 350h-111v-250h65v-79h-229v79h70v542h-70zM659 58c201 0 229 180 229 292c0 260 -153 292 -229 292c-72 0 -229 -31 -229 -292
c0 -153 57 -292 229 -292z" />
    <glyph glyph-name="afii10049" unicode="&#x42f;" horiz-adv-x="730" 
d="M441 0v79h70v199h-164l-156 -278h-152v79h88l123 210c-62 8 -187 46 -187 202c0 115 81 209 257 209h355v-79h-70v-542h70v-79h-234zM511 621h-191c-123 0 -161 -75 -161 -131s34 -133 174 -133h178v264z" />
    <glyph glyph-name="afii10065" unicode="&#x430;" horiz-adv-x="569" 
d="M390 0v72c-35 -64 -105 -92 -174 -92c-107 0 -179 46 -179 153c0 88 45 142 249 161c75 5 99 4 99 70c0 24 -2 102 -114 102c-32 0 -135 -2 -132 -108h-84c0 68 36 170 216 170c82 0 205 -23 202 -171v-295h64v-62h-147zM385 224v36c-26 -20 -56 -17 -112 -25
c-78 -13 -145 -16 -145 -99c0 -60 41 -94 98 -94c69 0 159 46 159 182z" />
    <glyph glyph-name="afii10066" unicode="&#x431;" horiz-adv-x="592" 
d="M449 733h75c-8 -134 -179 -108 -274 -132c-75 -21 -139 -69 -142 -210h2c19 51 68 129 197 129c173 0 242 -135 242 -274c0 -132 -73 -266 -250 -266c-243 0 -256 244 -256 343c0 268 91 332 200 356c133 32 193 9 206 54zM136 240c0 -77 28 -198 161 -198
c105 0 159 77 159 194c0 80 -18 222 -159 222c-142 0 -161 -139 -161 -218z" />
    <glyph glyph-name="afii10067" unicode="&#x432;" horiz-adv-x="558" 
d="M40 446v62h298c51 0 171 -15 171 -121c0 -91 -75 -113 -92 -119v-3c92 -24 111 -77 111 -126c0 -108 -110 -139 -193 -139h-295v62h66v384h-66zM194 234v-172h129c30 0 114 2 114 78c0 88 -78 94 -117 94h-126zM194 446v-150h122c83 0 104 43 104 78c0 68 -64 72 -100 72
h-126z" />
    <glyph glyph-name="afii10068" unicode="&#x433;" horiz-adv-x="456" 
d="M40 446v62h411v-180h-62v118h-195v-384h66v-62h-220v62h66v384h-66z" />
    <glyph glyph-name="afii10069" unicode="&#x434;" horiz-adv-x="605" 
d="M76 446v62h487v-62h-66v-384h88l-7 -194h-74v132h-417v-132h-74l-8 194h64c51 75 83 175 83 361v23h-76zM234 446v-71c0 -93 -18 -229 -72 -313h247v384h-175z" />
    <glyph glyph-name="afii10070" unicode="&#x435;" horiz-adv-x="570" 
d="M438 147h84c-13 -72 -66 -167 -222 -167c-252 0 -257 226 -257 272c0 70 13 276 248 276c203 0 230 -159 235 -269c0 -8 1 -17 1 -25h-391c0 -87 45 -192 161 -192c85 0 130 49 141 105zM136 296h298c-3 68 -26 170 -141 170c-131 0 -157 -106 -157 -170z" />
    <glyph glyph-name="afii10072" unicode="&#x436;" horiz-adv-x="768" 
d="M486 508v-62h-58v-384h58v-62h-204v62h58v384h-58v62h204zM450 261l143 185h-51v62h200v-62h-57l-147 -178l163 -206h67v-62h-117zM175 446l143 -185l-201 -261h-117v62h67l163 206l-147 178h-57v62h200v-62h-51z" />
    <glyph glyph-name="afii10073" unicode="&#x437;" horiz-adv-x="499" 
d="M32 156h84c0 -59 44 -114 135 -114c77 0 132 31 132 100c0 89 -89 91 -115 91h-75v62h65c36 0 106 4 106 79c0 27 -9 92 -114 92c-77 0 -126 -58 -131 -108h-67v150h64v-41h3c46 54 116 61 147 61c80 0 126 -20 153 -47c29 -29 36 -65 36 -93c0 -72 -53 -111 -88 -119v-3
c52 -8 107 -47 107 -130c0 -64 -37 -156 -216 -156c-195 0 -223 119 -226 176z" />
    <glyph glyph-name="afii10074" unicode="&#x438;" horiz-adv-x="658" 
d="M40 62h66v384h-66v62h220v-62h-66v-343l260 405h164v-62h-66v-384h66v-62h-220v62h66v344l-259 -406h-165v62z" />
    <glyph glyph-name="afii10075" unicode="&#x439;" horiz-adv-x="658" 
d="M40 62h66v384h-66v62h220v-62h-66v-343l260 405h164v-62h-66v-384h66v-62h-220v62h66v344l-259 -406h-165v62zM323 623c53 0 89 26 96 77h78c-15 -84 -73 -134 -174 -134s-159 50 -174 134h78c7 -51 43 -77 96 -77z" />
    <glyph glyph-name="afii10076" unicode="&#x43a;" horiz-adv-x="543" 
d="M194 446v-384h66v-62h-220v62h66v384h-66v62h220v-62h-66zM219 266l152 180h-49v62h198v-62h-58l-152 -177l166 -207h67v-62h-116z" />
    <glyph glyph-name="afii10077" unicode="&#x43b;" horiz-adv-x="591" 
d="M331 0v62h66v384h-172v-99c0 -176 -26 -383 -214 -347v65c119 -24 132 162 132 282v99h-76v62h484v-62h-66v-384h66v-62h-220z" />
    <glyph glyph-name="afii10078" unicode="&#x43c;" horiz-adv-x="800" 
d="M760 62v-62h-212v62h58v322l3 27h-3l-172 -411h-68l-172 411h-2l2 -27v-322h58v-62h-212v62h66v384h-66v62h190l173 -413l173 413h184v-62h-66v-384h66z" />
    <glyph glyph-name="afii10079" unicode="&#x43d;" horiz-adv-x="645" 
d="M385 0v62h66v175h-257v-175h66v-62h-220v62h66v384h-66v62h220v-62h-66v-147h257v147h-66v62h220v-62h-66v-384h66v-62h-220z" />
    <glyph glyph-name="afii10080" unicode="&#x43e;" horiz-adv-x="586" 
d="M43 254c0 135 65 274 250 274s250 -139 250 -274s-65 -274 -250 -274s-250 139 -250 274zM136 255c0 -204 118 -213 157 -213s157 9 157 213s-118 213 -157 213s-157 -9 -157 -213z" />
    <glyph glyph-name="afii10081" unicode="&#x43f;" horiz-adv-x="640" 
d="M380 0v62h66v384h-252v-384h66v-62h-220v62h66v384h-66v62h560v-62h-66v-384h66v-62h-220z" />
    <glyph glyph-name="afii10082" unicode="&#x440;" horiz-adv-x="631" 
d="M40 446v62h148v-70h3c51 77 124 90 168 90c125 0 229 -84 229 -274c0 -197 -111 -274 -227 -274c-20 0 -122 5 -167 93v-196h66v-62h-220v62h66v569h-66zM188 252c0 -157 90 -210 157 -210c71 0 150 50 150 212c0 132 -55 212 -155 212c-45 0 -152 -22 -152 -214z" />
    <glyph glyph-name="afii10083" unicode="&#x441;" horiz-adv-x="552" 
d="M496 348h-67c-19 113 -113 118 -144 118c-109 0 -149 -93 -149 -208s45 -216 157 -216c100 0 132 83 135 139h84c-5 -60 -41 -201 -221 -201c-51 0 -248 7 -248 278c0 118 44 270 240 270c68 0 121 -26 148 -66h3v46h62v-160z" />
    <glyph glyph-name="afii10084" unicode="&#x442;" horiz-adv-x="490" 
d="M135 0v62h66v384h-134v-118h-62v180h480v-180h-62v118h-134v-384h66v-62h-220z" />
    <glyph glyph-name="afii10085" unicode="&#x443;" horiz-adv-x="558" 
d="M-10 446v62h231v-62h-62l139 -349l114 349h-64v62h220v-62h-69l-236 -631h-140v62h87l43 123l-196 446h-67z" />
    <glyph glyph-name="afii10086" unicode="&#x444;" horiz-adv-x="788" 
d="M284 638v62h154v-180c117 4 310 -35 310 -263c0 -152 -83 -265 -310 -270v-110h66v-62h-220v62h66v110c-240 5 -310 133 -310 270c0 97 39 271 310 263v118h-66zM350 49v409c-88 5 -217 -28 -217 -200c0 -183 141 -209 217 -209zM438 458v-409c181 0 217 123 217 209
c0 68 -29 212 -217 200z" />
    <glyph glyph-name="afii10087" unicode="&#x445;" horiz-adv-x="539" 
d="M322 0v62h55l-107 149l-106 -149h55v-62h-214v62h63l152 203l-141 181h-53v62h207v-62h-56l93 -128l91 128h-52v62h203v-62h-55l-137 -181l157 -203h57v-62h-212z" />
    <glyph glyph-name="afii10088" unicode="&#x446;" horiz-adv-x="646" 
d="M40 446v62h220v-62h-66v-384h256v384h-66v62h220v-62h-66v-384h88l-7 -194h-74v132h-505v62h66v384h-66z" />
    <glyph glyph-name="afii10089" unicode="&#x447;" horiz-adv-x="576" 
d="M316 0v62h66v150c-43 -4 -74 -5 -118 -5c-160 0 -185 75 -185 146v93h-66v62h220v-62h-66v-84c0 -53 10 -93 115 -93c42 0 60 0 100 5v172h-66v62h220v-62h-66v-384h66v-62h-220z" />
    <glyph glyph-name="afii10090" unicode="&#x448;" horiz-adv-x="900" 
d="M40 446v62h216v-62h-62v-384h212v384h-62v62h212v-62h-62v-384h212v384h-62v62h216v-62h-66v-384h66v-62h-820v62h66v384h-66z" />
    <glyph glyph-name="afii10091" unicode="&#x449;" horiz-adv-x="900" 
d="M644 446v62h216v-62h-66v-384h86l-8 -194h-74v132h-758v62h66v384h-66v62h216v-62h-62v-384h212v384h-62v62h212v-62h-62v-384h212v384h-62z" />
    <glyph glyph-name="afii10092" unicode="&#x44a;" horiz-adv-x="611" 
d="M106 0v62h66v384h-105v-118h-62v180h321v-62h-66v-139h123c78 0 208 -14 208 -150c0 -121 -107 -157 -190 -157h-295zM260 245v-183h119c45 0 121 13 121 95c0 84 -97 88 -137 88h-103z" />
    <glyph glyph-name="afii10093" unicode="&#x44b;" horiz-adv-x="772" 
d="M512 446v62h220v-62h-66v-384h66v-62h-154v446h-66zM40 446v62h220v-62h-66v-139h109c78 0 208 -14 208 -150c0 -121 -107 -157 -190 -157h-281v62h66v384h-66zM194 245v-183h105c45 0 121 13 121 95c0 84 -97 88 -137 88h-89z" />
    <glyph glyph-name="afii10094" unicode="&#x44c;" horiz-adv-x="545" 
d="M40 446v62h220v-62h-66v-139h123c78 0 208 -14 208 -150c0 -121 -107 -157 -190 -157h-295v62h66v384h-66zM194 245v-183h119c45 0 121 13 121 95c0 84 -97 88 -137 88h-103z" />
    <glyph glyph-name="afii10095" unicode="&#x44d;" horiz-adv-x="553" 
d="M198 233v62h219c-5 157 -105 171 -142 171c-92 0 -143 -51 -150 -118h-67v160h64v-48h3c57 68 125 68 158 68c90 0 227 -26 227 -278c0 -232 -137 -270 -241 -270c-68 0 -205 8 -232 196h84c11 -88 56 -134 148 -134c140 0 148 143 148 191h-219z" />
    <glyph glyph-name="afii10096" unicode="&#x44e;" horiz-adv-x="815" 
d="M40 446v62h220v-62h-66v-147h87c11 109 76 229 244 229c130 0 247 -76 247 -273c0 -273 -218 -275 -245 -275c-190 0 -238 145 -246 257h-87v-175h66v-62h-220v62h66v384h-66zM374 255c0 -77 16 -213 153 -213c152 0 152 171 152 213c0 43 -1 211 -152 211
c-38 0 -153 -8 -153 -211z" />
    <glyph glyph-name="afii10097" unicode="&#x44f;" horiz-adv-x="577" 
d="M317 0v62h66v138h-116l-126 -200h-127v62h71l93 140c-64 13 -131 57 -131 149c0 64 37 157 181 157h309v-62h-66v-384h66v-62h-220zM383 446h-123c-36 0 -122 -4 -122 -95c0 -43 26 -89 125 -89h120v184z" />
    <glyph glyph-name="afii10071" unicode="&#x451;" horiz-adv-x="570" 
d="M438 147h84c-13 -72 -66 -167 -222 -167c-252 0 -257 226 -257 272c0 70 13 276 248 276c203 0 230 -159 235 -269c0 -8 1 -17 1 -25h-391c0 -87 45 -192 161 -192c85 0 130 49 141 105zM136 296h298c-3 68 -26 170 -141 170c-131 0 -157 -106 -157 -170zM142 608v92h88
v-92h-88zM340 608v92h88v-92h-88z" />
    <glyph glyph-name="afii10099" unicode="&#x452;" horiz-adv-x="588" 
d="M26 586h80v52h-66v62h154v-114h210v-54h-210v-147c40 64 100 91 167 91c150 0 187 -95 187 -296c0 -171 -6 -362 -230 -365v65h22c117 0 115 160 115 297c0 135 2 237 -118 237s-143 -111 -143 -179v-173h66v-62h-220v62h66v470h-80v54z" />
    <glyph glyph-name="afii10100" unicode="&#x453;" horiz-adv-x="456" 
d="M40 446v62h411v-180h-62v118h-195v-384h66v-62h-220v62h66v384h-66zM261 700h106l-96 -132h-80z" />
    <glyph glyph-name="afii10101" unicode="&#x454;" horiz-adv-x="552" 
d="M496 348h-67c-19 113 -113 118 -144 118c-99 0 -140 -74 -148 -171h232v-62h-232c5 -104 52 -191 156 -191c100 0 132 83 135 139h84c-5 -60 -41 -201 -221 -201c-51 0 -248 7 -248 278c0 118 44 270 240 270c68 0 121 -26 148 -66h3v46h62v-160z" />
    <glyph glyph-name="afii10102" unicode="&#x455;" horiz-adv-x="524" 
d="M390 508h59v-140h-62c-3 22 -28 98 -126 98c-11 0 -103 1 -103 -80c0 -72 66 -78 138 -94c104 -24 178 -52 178 -152c0 -156 -155 -160 -196 -160c-51 0 -121 17 -156 70h-3v-50h-62v175h62c8 -81 68 -133 145 -133c117 0 119 68 119 89c0 33 -5 67 -104 91l-54 12
c-85 19 -158 45 -158 148c0 108 91 146 183 146c60 0 113 -25 137 -60h3v40z" />
    <glyph glyph-name="afii10103" unicode="&#x456;" horiz-adv-x="300" 
d="M40 446v62h154v-446h66v-62h-220v62h66v384h-66zM106 608v92h88v-92h-88z" />
    <glyph glyph-name="afii10104" unicode="&#x457;" horiz-adv-x="300" 
d="M13 608v92h88v-92h-88zM152 608v92h88v-92h-88zM40 446v62h154v-446h66v-62h-220v62h66v384h-66z" />
    <glyph glyph-name="afii10105" unicode="&#x458;" horiz-adv-x="262" 
d="M38 446v62h154v-555c0 -91 -26 -142 -120 -142c-17 0 -45 3 -57 4v62c92 16 89 20 89 87v482h-66zM104 608v92h88v-92h-88z" />
    <glyph glyph-name="afii10106" unicode="&#x459;" horiz-adv-x="836" 
d="M331 0v62h66v384h-172v-99c0 -176 -26 -383 -214 -347v65c119 -24 132 162 132 282v99h-76v62h484v-62h-66v-139h123c78 0 208 -14 208 -150c0 -121 -107 -157 -190 -157h-295zM485 245v-183h119c45 0 121 13 121 95c0 84 -97 88 -137 88h-103z" />
    <glyph glyph-name="afii10107" unicode="&#x45a;" horiz-adv-x="890" 
d="M385 0v62h66v183h-257v-183h66v-62h-220v62h66v384h-66v62h220v-62h-66v-139h257v139h-66v62h220v-62h-66v-139h123c78 0 208 -14 208 -150c0 -121 -107 -157 -190 -157h-295zM539 245v-183h119c45 0 121 13 121 95c0 84 -97 88 -137 88h-103z" />
    <glyph glyph-name="afii10108" unicode="&#x45b;" horiz-adv-x="626" 
d="M586 0h-154v259c0 59 4 155 -101 155c-43 0 -137 -21 -137 -189v-163h66v-62h-220v62h66v470h-80v54h80v52h-66v62h154v-114h210v-54h-210v-147c39 60 93 91 165 91c164 0 161 -148 161 -190v-224h66v-62z" />
    <glyph glyph-name="afii10109" unicode="&#x45c;" horiz-adv-x="543" 
d="M194 446v-384h66v-62h-220v62h66v384h-66v62h220v-62h-66zM219 266l152 180h-49v62h198v-62h-58l-152 -177l166 -207h67v-62h-116zM316 700h106l-96 -132h-80z" />
    <glyph glyph-name="afii10110" unicode="&#x45e;" horiz-adv-x="558" 
d="M-10 446v62h231v-62h-62l139 -349l114 349h-64v62h220v-62h-69l-236 -631h-140v62h87l43 123l-196 446h-67zM283 623c53 0 89 26 96 77h78c-15 -84 -73 -134 -174 -134s-159 50 -174 134h78c7 -51 43 -77 96 -77z" />
    <glyph glyph-name="afii10193" unicode="&#x45f;" horiz-adv-x="640" 
d="M380 446v62h220v-62h-66v-384h66v-62h-241v-185h-78v185h-241v62h66v384h-66v62h220v-62h-66v-384h252v384h-66z" />
    <glyph glyph-name="afii10146" unicode="&#x462;" horiz-adv-x="783" 
d="M164 631v69h230v-69h-70v-47h254v-148h-79v79h-175v-123h182c84 0 249 -15 249 -195c0 -183 -174 -197 -247 -197h-344v79h70v436h-145v-161h-79v230h224v47h-70zM324 318v-245h180c20 0 155 0 155 124c0 76 -52 121 -168 121h-167z" />
    <glyph glyph-name="afii10194" unicode="&#x463;" horiz-adv-x="612" 
d="M107 638v62h154v-192h196v-150h-62v88h-134v-139h123c78 0 208 -14 208 -150c0 -121 -107 -157 -190 -157h-295v62h66v384h-106v-118h-62v180h168v130h-66zM261 245v-183h119c45 0 121 13 121 95c0 84 -97 88 -137 88h-103z" />
    <glyph glyph-name="afii10147" unicode="&#x472;" horiz-adv-x="758" 
d="M45 350c0 245 139 371 334 371c155 0 334 -86 334 -371c0 -366 -291 -371 -334 -371c-46 0 -334 5 -334 371zM379 58c47 0 217 9 233 260h-466c5 -112 52 -260 233 -260zM379 642c-186 0 -225 -163 -233 -255h466c-11 146 -84 255 -233 255z" />
    <glyph glyph-name="afii10195" unicode="&#x473;" horiz-adv-x="586" 
d="M43 254c0 135 65 274 250 274s250 -139 250 -274s-65 -274 -250 -274s-250 139 -250 274zM293 42c36 0 145 8 156 184h-312c11 -176 119 -184 156 -184zM293 468c-36 0 -145 -9 -156 -180h311c-13 171 -118 180 -155 180z" />
    <glyph glyph-name="afii10148" unicode="&#x474;" horiz-adv-x="684" 
d="M289 0l-222 621h-67v79h234v-79h-63l176 -524l125 435c45 155 118 174 185 174c29 0 50 -2 78 -10v-82c-23 8 -46 11 -66 11c-49 0 -83 -19 -110 -103l-158 -522h-112z" />
    <glyph glyph-name="afii10196" unicode="&#x475;" horiz-adv-x="541" 
d="M273 88l82 284c32 113 75 140 155 140c16 0 33 -1 53 -4v-66c-15 4 -25 5 -40 5c-31 0 -66 -4 -90 -86l-111 -361h-102l-167 446h-63v62h215v-62h-57z" />
    <glyph glyph-name="afii10050" unicode="&#x490;" horiz-adv-x="566" 
d="M55 621v79h422v158h79v-237h-337v-542h70v-79h-234v79h70v542h-70z" />
    <glyph glyph-name="afii10098" unicode="&#x491;" horiz-adv-x="444" 
d="M40 446v62h327v133h72v-195h-245v-384h66v-62h-220v62h66v384h-66z" />
    <glyph glyph-name="uni1E9E" unicode="&#x1e9e;" horiz-adv-x="703" 
d="M601 599l-173 -199c216 0 235 -138 235 -201c0 -132 -102 -212 -234 -212c-33 0 -88 5 -111 13v79c23 -8 79 -13 103 -13c54 0 146 24 146 136c0 72 -36 129 -182 129h-52v78l162 190c-20 21 -58 43 -109 43c-166 0 -167 -139 -167 -225v-417h-164v79h70v350
c0 120 29 292 265 292c121 0 187 -61 211 -122z" />
    <glyph glyph-name="uni2010" unicode="&#x2010;" horiz-adv-x="371" 
d="M50 230v79h271v-79h-271z" />
    <glyph glyph-name="uni2011" unicode="&#x2011;" horiz-adv-x="371" 
d="M50 230v79h271v-79h-271z" />
    <glyph glyph-name="figuredash" unicode="&#x2012;" horiz-adv-x="600" 
d="M50 400h500v-79h-500v79z" />
    <glyph glyph-name="endash" unicode="&#x2013;" horiz-adv-x="600" 
d="M50 309h500v-79h-500v79z" />
    <glyph glyph-name="emdash" unicode="&#x2014;" horiz-adv-x="984" 
d="M50 230v79h884v-79h-884z" />
    <glyph glyph-name="afii00208" unicode="&#x2015;" horiz-adv-x="984" 
d="M50 230v79h884v-79h-884z" />
    <glyph glyph-name="quoteleft" unicode="&#x2018;" horiz-adv-x="311" 
d="M205 462h-99v140c0 80 60 109 99 117v-55c-28 -3 -50 -31 -50 -62v-31h50v-109z" />
    <glyph glyph-name="quoteright" unicode="&#x2019;" horiz-adv-x="311" 
d="M106 700h99v-140c0 -80 -60 -109 -99 -117v55c28 3 50 31 50 62v31h-50v109z" />
    <glyph glyph-name="quotesinglbase" unicode="&#x201a;" horiz-adv-x="311" 
d="M106 109h99v-140c0 -80 -60 -109 -99 -117v55c28 3 50 31 50 62v31h-50v109z" />
    <glyph glyph-name="quotedblleft" unicode="&#x201c;" horiz-adv-x="422" 
d="M343 462h-99v141c0 69 48 106 99 117v-54c-27 -8 -50 -30 -50 -63v-32h50v-109zM178 462h-99v141c0 69 48 106 99 117v-54c-27 -8 -50 -30 -50 -63v-32h50v-109z" />
    <glyph glyph-name="quotedblright" unicode="&#x201d;" horiz-adv-x="422" 
d="M79 700h99v-141c0 -69 -48 -106 -99 -117v54c27 8 50 30 50 63v32h-50v109zM244 700h99v-141c0 -69 -48 -106 -99 -117v54c27 8 50 30 50 63v32h-50v109z" />
    <glyph glyph-name="quotedblbase" unicode="&#x201e;" horiz-adv-x="422" 
d="M79 109h99v-140c0 -64 -31 -98 -99 -117v55c28 5 50 30 50 62v31h-50v109zM244 109h99v-140c0 -64 -34 -100 -99 -117v55c28 5 50 30 50 62v31h-50v109z" />
    <glyph glyph-name="dagger" unicode="&#x2020;" horiz-adv-x="500" 
d="M15 374v200h59v-66h136v133h-66v59h212v-59h-66v-133h136v66h59v-200h-59v66h-136v-625h-80v625h-136v-66h-59z" />
    <glyph glyph-name="daggerdbl" unicode="&#x2021;" horiz-adv-x="500" 
d="M15 382v192h59v-66h136v133h-66v59h212v-59h-66v-133h136v66h59v-192h-59v58h-136v-192h136v52h59v-192h-59v72h-136v-305h66v-60h-212v60h66v305h-136v-72h-59v192h59v-52h136v192h-136v-58h-59z" />
    <glyph glyph-name="bullet" unicode="&#x2022;" horiz-adv-x="600" 
d="M200 350c0 55 43 100 100 100c56 0 100 -44 100 -100c0 -57 -45 -100 -100 -100c-57 0 -100 43 -100 100z" />
    <glyph glyph-name="ellipsis" unicode="&#x2026;" horiz-adv-x="931" 
d="M106 0v109h99v-109h-99zM416 0v109h99v-109h-99zM726 0v109h99v-109h-99z" />
    <glyph glyph-name="perthousand" unicode="&#x2030;" horiz-adv-x="1298" 
d="M530 192c0 57 22 200 164 200c101 0 164 -75 164 -200c0 -165 -107 -200 -164 -200c-65 0 -164 45 -164 200zM594 192c0 -109 56 -147 100 -147c47 0 100 38 100 147c0 77 -28 147 -100 147c-91 0 -100 -112 -100 -147zM917 192c0 73 31 200 164 200
c101 0 164 -75 164 -200c0 -165 -107 -200 -164 -200c-54 0 -164 35 -164 200zM981 192c0 -116 60 -147 100 -147s100 31 100 147c0 67 -24 147 -100 147c-87 0 -100 -102 -100 -147zM53 513c0 165 110 200 164 200s164 -35 164 -200c0 -72 -31 -200 -164 -200
s-164 128 -164 200zM117 513c0 -46 13 -147 100 -147s100 101 100 147c0 116 -60 147 -100 147s-100 -31 -100 -147zM202 0l454 700h58l-454 -700h-58z" />
    <glyph glyph-name="guilsinglleft" unicode="&#x2039;" horiz-adv-x="286" 
d="M105 272l106 -90v-82l-149 131v82l149 131v-82z" />
    <glyph glyph-name="guilsinglright" unicode="&#x203a;" horiz-adv-x="286" 
d="M181 272l-106 90v82l149 -131v-82l-149 -131v82z" />
    <glyph glyph-name="fraction" unicode="&#x2044;" horiz-adv-x="100" 
d="M-206 0l454 700h58l-454 -700h-58z" />
    <glyph glyph-name="Euro" unicode="&#x20ac;" 
d="M339 721c47 0 118 -26 145 -79v58h74v-210h-79c-3 50 -30 152 -137 152c-35 0 -78 -6 -117 -46c-33 -35 -51 -93 -54 -146h276l-24 -56h-257c-1 -17 -2 -33 -2 -50v-20c0 -7 0 -13 1 -20h220l-24 -56h-190c3 -93 55 -190 172 -190c80 0 122 38 145 106h84
c-5 -37 -31 -89 -60 -121c-50 -56 -122 -64 -173 -64c-88 0 -155 30 -199 82c-40 47 -61 111 -68 187h-72l24 56h44c-1 7 -1 11 -1 18v19c0 19 1 34 2 53h-69l24 56h50c5 71 36 150 85 201c58 61 127 70 180 70z" />
    <glyph glyph-name="uni20B4" unicode="&#x20b4;" 
d="M552 381h-534v59h362c37 25 55 58 55 101c0 102 -88 115 -141 115c-117 0 -161 -72 -161 -156h-86v200h72v-54c35 48 109 75 180 75c77 0 223 -20 223 -180c0 -35 -9 -73 -32 -101h62v-59zM18 332h534v-59h-381c-31 -24 -53 -58 -53 -105c0 -69 50 -117 158 -117
c80 0 180 44 180 184h89v-235h-74v76c-37 -66 -133 -97 -211 -97c-68 0 -231 18 -231 186c0 32 7 69 34 108h-45v59z" />
    <glyph glyph-name="uni20B6" unicode="&#x20b6;" 
d="M45 357h70v264h-70v79h302c144 0 255 -63 255 -203c0 -124 -84 -214 -265 -214h-128v-52h176v-67h-176v-85h70v-79h-234v79h70v85h-70v67h70v53h-70v73zM209 621v-263h124c113 0 173 52 173 139c0 81 -65 124 -173 124h-124z" />
    <glyph glyph-name="uni20B6" unicode="&#x20cf;" 
d="M45 357h70v264h-70v79h302c144 0 255 -63 255 -203c0 -124 -84 -214 -265 -214h-128v-52h176v-67h-176v-85h70v-79h-234v79h70v85h-70v67h70v53h-70v73zM209 621v-263h124c113 0 173 52 173 139c0 81 -65 124 -173 124h-124z" />
    <glyph glyph-name="uni20B6" unicode="&#x20ce;" 
d="M45 357h70v264h-70v79h302c144 0 255 -63 255 -203c0 -124 -84 -214 -265 -214h-128v-52h176v-67h-176v-85h70v-79h-234v79h70v85h-70v67h70v53h-70v73zM209 621v-263h124c113 0 173 52 173 139c0 81 -65 124 -173 124h-124z" />
    <glyph glyph-name="uni20B6" unicode="&#x20cd;" 
d="M45 357h70v264h-70v79h302c144 0 255 -63 255 -203c0 -124 -84 -214 -265 -214h-128v-52h176v-67h-176v-85h70v-79h-234v79h70v85h-70v67h70v53h-70v73zM209 621v-263h124c113 0 173 52 173 139c0 81 -65 124 -173 124h-124z" />
    <glyph glyph-name="uni20B6" unicode="&#x20cc;" 
d="M45 357h70v264h-70v79h302c144 0 255 -63 255 -203c0 -124 -84 -214 -265 -214h-128v-52h176v-67h-176v-85h70v-79h-234v79h70v85h-70v67h70v53h-70v73zM209 621v-263h124c113 0 173 52 173 139c0 81 -65 124 -173 124h-124z" />
    <glyph glyph-name="uni20B6" unicode="&#x20cb;" 
d="M45 357h70v264h-70v79h302c144 0 255 -63 255 -203c0 -124 -84 -214 -265 -214h-128v-52h176v-67h-176v-85h70v-79h-234v79h70v85h-70v67h70v53h-70v73zM209 621v-263h124c113 0 173 52 173 139c0 81 -65 124 -173 124h-124z" />
    <glyph glyph-name="uni20B6" unicode="&#x20ca;" 
d="M45 357h70v264h-70v79h302c144 0 255 -63 255 -203c0 -124 -84 -214 -265 -214h-128v-52h176v-67h-176v-85h70v-79h-234v79h70v85h-70v67h70v53h-70v73zM209 621v-263h124c113 0 173 52 173 139c0 81 -65 124 -173 124h-124z" />
    <glyph glyph-name="uni20B6" unicode="&#x20c9;" 
d="M45 357h70v264h-70v79h302c144 0 255 -63 255 -203c0 -124 -84 -214 -265 -214h-128v-52h176v-67h-176v-85h70v-79h-234v79h70v85h-70v67h70v53h-70v73zM209 621v-263h124c113 0 173 52 173 139c0 81 -65 124 -173 124h-124z" />
    <glyph glyph-name="uni20B6" unicode="&#x20c8;" 
d="M45 357h70v264h-70v79h302c144 0 255 -63 255 -203c0 -124 -84 -214 -265 -214h-128v-52h176v-67h-176v-85h70v-79h-234v79h70v85h-70v67h70v53h-70v73zM209 621v-263h124c113 0 173 52 173 139c0 81 -65 124 -173 124h-124z" />
    <glyph glyph-name="uni20B6" unicode="&#x20c7;" 
d="M45 357h70v264h-70v79h302c144 0 255 -63 255 -203c0 -124 -84 -214 -265 -214h-128v-52h176v-67h-176v-85h70v-79h-234v79h70v85h-70v67h70v53h-70v73zM209 621v-263h124c113 0 173 52 173 139c0 81 -65 124 -173 124h-124z" />
    <glyph glyph-name="uni20B6" unicode="&#x20c6;" 
d="M45 357h70v264h-70v79h302c144 0 255 -63 255 -203c0 -124 -84 -214 -265 -214h-128v-52h176v-67h-176v-85h70v-79h-234v79h70v85h-70v67h70v53h-70v73zM209 621v-263h124c113 0 173 52 173 139c0 81 -65 124 -173 124h-124z" />
    <glyph glyph-name="uni20B6" unicode="&#x20c5;" 
d="M45 357h70v264h-70v79h302c144 0 255 -63 255 -203c0 -124 -84 -214 -265 -214h-128v-52h176v-67h-176v-85h70v-79h-234v79h70v85h-70v67h70v53h-70v73zM209 621v-263h124c113 0 173 52 173 139c0 81 -65 124 -173 124h-124z" />
    <glyph glyph-name="uni20B6" unicode="&#x20c4;" 
d="M45 357h70v264h-70v79h302c144 0 255 -63 255 -203c0 -124 -84 -214 -265 -214h-128v-52h176v-67h-176v-85h70v-79h-234v79h70v85h-70v67h70v53h-70v73zM209 621v-263h124c113 0 173 52 173 139c0 81 -65 124 -173 124h-124z" />
    <glyph glyph-name="uni20B6" unicode="&#x20c3;" 
d="M45 357h70v264h-70v79h302c144 0 255 -63 255 -203c0 -124 -84 -214 -265 -214h-128v-52h176v-67h-176v-85h70v-79h-234v79h70v85h-70v67h70v53h-70v73zM209 621v-263h124c113 0 173 52 173 139c0 81 -65 124 -173 124h-124z" />
    <glyph glyph-name="uni20B6" unicode="&#x20c2;" 
d="M45 357h70v264h-70v79h302c144 0 255 -63 255 -203c0 -124 -84 -214 -265 -214h-128v-52h176v-67h-176v-85h70v-79h-234v79h70v85h-70v67h70v53h-70v73zM209 621v-263h124c113 0 173 52 173 139c0 81 -65 124 -173 124h-124z" />
    <glyph glyph-name="uni20B6" unicode="&#x20c1;" 
d="M45 357h70v264h-70v79h302c144 0 255 -63 255 -203c0 -124 -84 -214 -265 -214h-128v-52h176v-67h-176v-85h70v-79h-234v79h70v85h-70v67h70v53h-70v73zM209 621v-263h124c113 0 173 52 173 139c0 81 -65 124 -173 124h-124z" />
    <glyph glyph-name="uni20B6" unicode="&#x20c0;" 
d="M45 357h70v264h-70v79h302c144 0 255 -63 255 -203c0 -124 -84 -214 -265 -214h-128v-52h176v-67h-176v-85h70v-79h-234v79h70v85h-70v67h70v53h-70v73zM209 621v-263h124c113 0 173 52 173 139c0 81 -65 124 -173 124h-124z" />
    <glyph glyph-name="uni20B6" unicode="&#x20bf;" 
d="M45 357h70v264h-70v79h302c144 0 255 -63 255 -203c0 -124 -84 -214 -265 -214h-128v-52h176v-67h-176v-85h70v-79h-234v79h70v85h-70v67h70v53h-70v73zM209 621v-263h124c113 0 173 52 173 139c0 81 -65 124 -173 124h-124z" />
    <glyph glyph-name="uni20B6" unicode="&#x20be;" 
d="M45 357h70v264h-70v79h302c144 0 255 -63 255 -203c0 -124 -84 -214 -265 -214h-128v-52h176v-67h-176v-85h70v-79h-234v79h70v85h-70v67h70v53h-70v73zM209 621v-263h124c113 0 173 52 173 139c0 81 -65 124 -173 124h-124z" />
    <glyph glyph-name="uni20B6" unicode="&#x20bd;" 
d="M45 357h70v264h-70v79h302c144 0 255 -63 255 -203c0 -124 -84 -214 -265 -214h-128v-52h176v-67h-176v-85h70v-79h-234v79h70v85h-70v67h70v53h-70v73zM209 621v-263h124c113 0 173 52 173 139c0 81 -65 124 -173 124h-124z" />
    <glyph glyph-name="uni20B6" unicode="&#x20bc;" 
d="M45 357h70v264h-70v79h302c144 0 255 -63 255 -203c0 -124 -84 -214 -265 -214h-128v-52h176v-67h-176v-85h70v-79h-234v79h70v85h-70v67h70v53h-70v73zM209 621v-263h124c113 0 173 52 173 139c0 81 -65 124 -173 124h-124z" />
    <glyph glyph-name="uni20B6" unicode="&#x20bb;" 
d="M45 357h70v264h-70v79h302c144 0 255 -63 255 -203c0 -124 -84 -214 -265 -214h-128v-52h176v-67h-176v-85h70v-79h-234v79h70v85h-70v67h70v53h-70v73zM209 621v-263h124c113 0 173 52 173 139c0 81 -65 124 -173 124h-124z" />
    <glyph glyph-name="uni20B6" unicode="&#x20ba;" 
d="M45 357h70v264h-70v79h302c144 0 255 -63 255 -203c0 -124 -84 -214 -265 -214h-128v-52h176v-67h-176v-85h70v-79h-234v79h70v85h-70v67h70v53h-70v73zM209 621v-263h124c113 0 173 52 173 139c0 81 -65 124 -173 124h-124z" />
    <glyph glyph-name="uni20B6" unicode="&#x20b9;" 
d="M45 357h70v264h-70v79h302c144 0 255 -63 255 -203c0 -124 -84 -214 -265 -214h-128v-52h176v-67h-176v-85h70v-79h-234v79h70v85h-70v67h70v53h-70v73zM209 621v-263h124c113 0 173 52 173 139c0 81 -65 124 -173 124h-124z" />
    <glyph glyph-name="uni20B6" unicode="&#x20b7;" 
d="M45 357h70v264h-70v79h302c144 0 255 -63 255 -203c0 -124 -84 -214 -265 -214h-128v-52h176v-67h-176v-85h70v-79h-234v79h70v85h-70v67h70v53h-70v73zM209 621v-263h124c113 0 173 52 173 139c0 81 -65 124 -173 124h-124z" />
    <glyph glyph-name="uni20B8" unicode="&#x20b8;" 
d="M173 0v79h70v417h-173v-161h-79v240h598v-240h-79v161h-173v-417h70v-79h-234zM-9 699h597v-68h-597v68z" />
    <glyph glyph-name="afii61352" unicode="&#x2116;" horiz-adv-x="1168" 
d="M795 535c0 68 32 186 165 186c100 0 165 -66 165 -186c0 -176 -137 -186 -165 -186c-52 0 -165 30 -165 186zM873 535c0 -80 36 -123 87 -123c75 0 87 87 87 123s-15 123 -87 123c-51 0 -87 -43 -87 -123zM808 193v74h304v-74h-304zM527 621v79h234v-79h-70v-621h-103
l-369 560v-481h70v-79h-234v79h70v542h-70v79h174l368 -560v481h-70z" />
    <glyph glyph-name="trademark" unicode="&#x2122;" horiz-adv-x="1034" 
d="M808 350v55h38v168l4 45h-5l-103 -268h-52l-102 268h-5l4 -45v-168h38v-55h-171v55h58v240h-58v55h158l94 -241l9 -35h4l8 35l94 241h158v-55h-58v-240h58v-55h-171zM134 350v55h58v240h-82v-100h-55v155h349v-155h-55v100h-82v-240h58v-55h-191z" />
    <glyph glyph-name="partialdiff" unicode="&#x2202;" horiz-adv-x="595" 
d="M247 669l13 64c232 -24 321 -138 321 -282c0 -116 -29 -471 -326 -471c-204 0 -212 160 -212 201c0 168 105 327 301 327c32 0 134 -7 166 -104h3c3 92 -27 156 -76 195c-51 40 -115 55 -190 70zM261 42c152 0 203 166 203 263c0 96 -45 141 -125 141
c-152 0 -202 -166 -202 -267c0 -126 86 -137 124 -137z" />
    <glyph glyph-name="product" unicode="&#x220f;" horiz-adv-x="790" 
d="M501 -185v79h70v727h-352v-727h70v-79h-234v79h70v727h-70v79h680v-79h-70v-727h70v-79h-234z" />
    <glyph glyph-name="summation" unicode="&#x2211;" horiz-adv-x="603" 
d="M55 -185v69l246 380l-230 365v71h486v-210h-79v131h-288l220 -357l-237 -370h321v141h79v-220h-518z" />
    <glyph glyph-name="minus" unicode="&#x2212;" horiz-adv-x="600" 
d="M50 386h500v-62h-500v62z" />
    <glyph glyph-name="uni2215" unicode="&#x2215;" horiz-adv-x="600" 
d="M44 0l454 700h58l-454 -700h-58z" />
    <glyph glyph-name="radical" unicode="&#x221a;" horiz-adv-x="668" 
d="M237 500l122 -427l115 756h168v-62h-118l-136 -867h-39l-162 538h-123v62h173z" />
    <glyph glyph-name="infinity" unicode="&#x221e;" horiz-adv-x="998" 
d="M460 352c-71 87 -118 123 -199 123c-76 0 -136 -42 -136 -123c0 -76 53 -125 142 -125c69 0 129 45 193 125zM499 308c-98 -124 -185 -143 -250 -143c-107 0 -189 75 -189 187c0 106 71 185 200 185c58 0 146 -23 239 -142c93 119 180 142 238 142
c127 0 200 -79 200 -185c0 -112 -82 -187 -189 -187c-65 0 -151 19 -249 143zM537 352c64 -80 124 -125 193 -125c89 0 142 49 142 125c0 81 -60 123 -136 123c-81 0 -128 -36 -199 -123z" />
    <glyph glyph-name="integral" unicode="&#x222b;" horiz-adv-x="320" 
d="M-164 -98l19 58c15 -9 46 -20 65 -20c60 0 83 35 95 111l86 516c16 97 46 174 147 174c35 0 73 -10 101 -23l-21 -53c-16 12 -43 21 -62 21c-77 0 -91 -50 -102 -119l-84 -505c-16 -106 -48 -178 -147 -178c-27 0 -70 7 -97 18z" />
    <glyph glyph-name="approxequal" unicode="&#x2248;" horiz-adv-x="600" 
d="M89 388l-39 16c19 51 61 128 133 128c31 0 60 -8 87 -23l103 -55c1 -1 25 -13 52 -13c20 0 59 12 86 81l39 -16c-18 -52 -61 -128 -133 -128c-31 0 -60 8 -87 23l-103 55c-15 7 -36 13 -53 13c-39 0 -70 -38 -85 -81zM89 188l-39 16c19 51 61 128 133 128
c31 0 60 -8 87 -23l103 -55c1 -1 25 -13 52 -13c20 0 59 12 86 81l39 -16c-18 -52 -61 -128 -133 -128c-31 0 -60 8 -87 23l-103 55c-15 7 -36 13 -53 13c-39 0 -70 -38 -85 -81z" />
    <glyph glyph-name="notequal" unicode="&#x2260;" horiz-adv-x="600" 
d="M50 476h290l70 121l53 -31l-52 -90h139v-62h-174l-80 -138h254v-62h-290l-70 -121l-53 31l52 90h-139v62h174l80 138h-254v62z" />
    <glyph glyph-name="lessequal" unicode="&#x2264;" horiz-adv-x="600" 
d="M38 387v48l495 285l30 -54l-449 -255l449 -255l-30 -54zM38 227l30 54l495 -285l-30 -54z" />
    <glyph glyph-name="greaterequal" unicode="&#x2265;" horiz-adv-x="600" 
d="M562 387l-495 -285l-30 54l449 255l-449 255l30 54l495 -285v-48zM562 227l-495 -285l-30 54l495 285z" />
    <glyph glyph-name="lozenge" unicode="&#x25ca;" horiz-adv-x="420" 
d="M308 350l-98 214l-98 -214l98 -214zM370 350l-160 -350l-160 350l160 350z" />
    <glyph glyph-name="uniF400" unicode="&#xf400;" horiz-adv-x="2" 
d="M-267 700h106l-96 -132h-80z" />
    <glyph glyph-name="uniF401" unicode="&#xf401;" horiz-adv-x="2" 
d="M-360 900h112l-102 -140h-84z" />
    <glyph glyph-name="uniF406" unicode="&#xf406;" horiz-adv-x="466" 
d="M46 900h86c7 -41 33 -78 101 -78c67 0 94 37 101 78h86c-16 -108 -104 -140 -187 -140s-171 32 -187 140z" />
    <glyph glyph-name="uniF407" unicode="&#xf407;" horiz-adv-x="298" 
d="M15 -248l19 61c11 -4 28 -8 67 -8c49 0 69 16 69 40c0 32 -32 40 -65 40h-29h-18l16 57h35c125 0 145 -53 145 -97c0 -37 -23 -101 -139 -101c-17 0 -49 1 -100 8z" />
    <glyph glyph-name="uniF408" unicode="&#xf408;" horiz-adv-x="492" 
d="M50 760l125 140h142l125 -140h-94l-102 105l-102 -105h-94z" />
    <glyph glyph-name="uniF409" unicode="&#xf409;" horiz-adv-x="199" 
d="M46 -60h107v-109c0 -77 -66 -99 -107 -107v59c31 4 54 23 54 48v12h-54v97z" />
    <glyph glyph-name="uniF40A" unicode="&#xf40a;" horiz-adv-x="199" 
d="M50 700h99v-140c0 -80 -60 -109 -99 -117v55c28 3 50 31 50 62v31h-50v109z" />
    <glyph glyph-name="uniF40B" unicode="&#xf40b;" horiz-adv-x="194" 
d="M50 772v79h94v-79h-94z" />
    <glyph glyph-name="uniF40C" unicode="&#xf40c;" horiz-adv-x="296" 
d="M50 828c0 56 42 98 98 98s98 -42 98 -98s-42 -98 -98 -98s-98 42 -98 98zM92 828c0 -31 25 -56 56 -56s56 25 56 56s-25 56 -56 56s-56 -25 -56 -56z" />
    <glyph glyph-name="uniF40D" unicode="&#xf40d;" horiz-adv-x="492" 
d="M388 875h65c-8 -56 -45 -115 -123 -115c-59 0 -111 55 -167 55c-31 0 -52 -15 -59 -44h-66c8 57 53 112 125 112c77 0 107 -55 165 -55c25 0 52 12 60 47z" />
    <glyph glyph-name="uniF40E" unicode="&#xf40e;" horiz-adv-x="350" 
d="M117 0h85c-39 -23 -64 -66 -64 -103c0 -31 14 -59 46 -59c33 0 44 32 44 52h74c-3 -54 -41 -114 -123 -114c-76 0 -131 38 -131 102c0 51 34 95 69 122z" />
    <glyph glyph-name="uniF410" unicode="&#xf410;" horiz-adv-x="2" 
d="M-426 900l75 -140h-84l-103 140h112z" />
    <glyph glyph-name="dollar.fitted" unicode="&#xf5f5;" horiz-adv-x="555" 
d="M20 235h89c0 -141 91 -181 147 -184v272c-177 40 -213 118 -213 203c0 161 136 193 213 193v58h59v-58c34 0 102 -23 131 -70v51h72v-200h-86c0 96 -49 152 -117 153v-254c200 -35 221 -139 221 -207c0 -175 -154 -207 -221 -210v-75h-59v75c-75 3 -126 27 -162 94v-76
h-74v235zM315 314v-263c85 -3 132 72 132 141c0 91 -81 117 -132 122zM256 408v245c-44 0 -126 -24 -126 -124c0 -65 42 -105 126 -121z" />
    <glyph glyph-name="Euro.fitted" unicode="&#xf5f6;" horiz-adv-x="613" 
d="M355 721c47 0 118 -26 145 -79v58h74v-210h-79c-3 50 -30 152 -137 152c-35 0 -78 -6 -117 -46c-33 -35 -51 -93 -54 -146h276l-24 -56h-257c-1 -17 -2 -33 -2 -50v-20c0 -7 0 -13 1 -20h220l-24 -56h-190c3 -93 55 -190 172 -190c80 0 122 38 145 106h84
c-5 -37 -31 -89 -60 -121c-50 -56 -122 -64 -173 -64c-88 0 -155 30 -199 82c-40 47 -61 111 -68 187h-72l24 56h44c-1 7 -1 11 -1 18v19c0 19 1 34 2 53h-69l24 56h50c5 71 36 150 85 201c58 61 127 70 180 70z" />
    <glyph glyph-name="cent.fitted" unicode="&#xf5f7;" horiz-adv-x="500" 
d="M471 348h-67c-16 84 -71 110 -112 115v-419c81 11 108 85 111 137h84c-5 -57 -36 -187 -195 -200v-73h-59v74c-75 8 -215 46 -215 276c0 113 39 256 215 269v67h59v-68c51 -7 91 -31 114 -64h3v46h62v-160zM111 258c0 -101 35 -195 122 -213v419
c-90 -13 -122 -101 -122 -206z" />
    <glyph glyph-name="sterling.fitted" unicode="&#xf5f8;" horiz-adv-x="559" 
d="M488 106l44 -60c-36 -36 -73 -67 -132 -67c-73 0 -149 52 -206 52c-28 0 -65 -6 -108 -38l-45 65c61 43 101 94 101 167c0 29 -8 52 -16 79h-104v61h73c-27 56 -38 85 -38 140c0 209 197 216 223 216c71 0 132 -22 167 -78v57h74v-219h-89v33c0 76 -59 142 -141 142
c-91 0 -142 -67 -142 -157c0 -51 18 -78 47 -134h141v-61h-117c7 -21 9 -38 9 -62c0 -45 -9 -93 -65 -144l2 -6c21 9 44 11 73 11c53 0 122 -43 164 -43c39 0 68 25 85 46z" />
    <glyph glyph-name="yen.fitted" unicode="&#xf5f9;" horiz-adv-x="654" 
d="M157 200h124v42h-124v54h121l-201 325h-62v79h237v-79h-62l143 -255l141 255h-55v79h220v-79h-60l-202 -325h124v-54h-126v-42h126v-54h-126v-67h70v-79h-234v79h70v67h-124v54z" />
    <glyph glyph-name="florin.fitted" unicode="&#xf5fa;" horiz-adv-x="482" 
d="M438 508l-13 -62h-109l-103 -490c-14 -57 -30 -145 -151 -145c-20 0 -48 3 -55 4l14 65c3 -1 8 -1 14 -1c56 0 77 20 90 83l102 484h-93l13 62h93l15 69c18 82 72 123 162 123c23 0 43 -2 62 -7l-12 -60c-15 3 -47 5 -62 5c-51 0 -60 -53 -63 -69l-13 -61h109z" />
    <glyph glyph-name="uni20B4.fitted" unicode="&#xf5fb;" horiz-adv-x="588" 
d="M561 381h-534v59h362c37 25 55 58 55 101c0 102 -88 115 -141 115c-117 0 -161 -72 -161 -156h-86v200h72v-54c35 48 109 75 180 75c77 0 223 -20 223 -180c0 -35 -9 -73 -32 -101h62v-59zM27 332h534v-59h-381c-31 -24 -53 -58 -53 -105c0 -69 50 -117 158 -117
c80 0 180 44 180 184h89v-235h-74v76c-37 -66 -133 -97 -211 -97c-68 0 -231 18 -231 186c0 32 7 69 34 108h-45v59z" />
    <glyph glyph-name="uni20B6.fitted" unicode="&#xf5fc;" horiz-adv-x="598" 
d="M32 357h70v264h-70v79h302c144 0 255 -63 255 -203c0 -124 -84 -214 -265 -214h-128v-52h176v-67h-176v-85h70v-79h-234v79h70v85h-70v67h70v53h-70v73zM196 621v-263h124c113 0 173 52 173 139c0 81 -65 124 -173 124h-124z" />
    <glyph glyph-name="uni20B8.fitted" unicode="&#xf5fd;" horiz-adv-x="626" 
d="M196 0v79h70v417h-173v-161h-79v240h598v-240h-79v161h-173v-417h70v-79h-234zM14 699h597v-68h-597v68z" />
    <glyph glyph-name="currency.fitted" unicode="&#xf5fe;" horiz-adv-x="751" 
d="M29 53l111 111c-39 56 -52 114 -52 166c0 40 8 106 52 166l-111 112l66 66l110 -112c57 44 119 57 170 57c94 0 152 -42 170 -57l111 112l66 -66l-111 -112c39 -53 53 -113 53 -166c0 -52 -14 -110 -53 -166l111 -111l-66 -66l-111 111c-21 -16 -74 -56 -170 -56
c-94 0 -151 40 -170 56l-110 -111zM162 330c0 -117 95 -214 213 -214c119 0 215 98 215 214c0 117 -98 215 -215 215c-116 0 -213 -98 -213 -215z" />
    <glyph glyph-name="numbersign.fitted" unicode="&#xf5ff;" horiz-adv-x="622" 
d="M123 10l27 179h-139l12 62h137l31 202h-139l12 62h137l28 179h61l-28 -179h150l28 179h61l-28 -179h138l-12 -62h-136l-31 -202h138l-12 -62h-136l-27 -179h-61l27 179h-150l-27 -179h-61zM252 453l-31 -202h150l31 202h-150z" />
    <glyph glyph-name="uniF639" unicode="&#xf639;" horiz-adv-x="539" 
d="M270 -21c-52 0 -245 12 -245 371s193 371 245 371s245 -12 245 -371s-193 -371 -245 -371zM270 58c112 0 152 133 152 292s-40 292 -152 292s-152 -133 -152 -292s40 -292 152 -292z" />
    <glyph glyph-name="uniF63A" unicode="&#xf63a;" horiz-adv-x="532" 
d="M504 224v-224h-477c0 169 101 234 237 319c58 37 144 81 144 189c0 88 -58 134 -142 134c-89 0 -145 -55 -145 -139v-26h-92v21c0 63 27 223 240 223c144 0 232 -79 232 -212c0 -132 -60 -173 -223 -277c-95 -60 -134 -102 -147 -153h294v145h79z" />
    <glyph glyph-name="uniF63B" unicode="&#xf63b;" horiz-adv-x="534" 
d="M22 213h90l3 -23c5 -33 22 -136 146 -136c145 0 157 104 157 148c0 77 -48 126 -128 126h-70v76h25c30 0 153 1 153 121c0 56 -28 121 -137 121c-32 0 -134 -4 -134 -159h-87c0 61 11 234 226 234c195 0 225 -136 225 -192c0 -77 -50 -136 -118 -155v-2
c71 -10 138 -71 138 -177c0 -137 -105 -216 -244 -216c-203 0 -242 141 -245 234z" />
    <glyph glyph-name="uniF63C" unicode="&#xf63c;" horiz-adv-x="559" 
d="M337 162h-330v79l329 459h95v-459h110v-79h-110v-83h70v-79h-234v79h70v83zM97 241h240v336z" />
    <glyph glyph-name="uniF63D" unicode="&#xf63d;" horiz-adv-x="537" 
d="M401 621h-240l-28 -207c44 39 94 53 158 53c129 0 222 -90 222 -239c0 -140 -82 -249 -254 -249c-180 0 -228 120 -236 200h92c5 -46 33 -125 142 -125c47 0 163 9 163 173c0 124 -78 165 -154 165c-46 0 -111 -21 -135 -61h-88l49 369h388v-177h-79v98z" />
    <glyph glyph-name="uniF63E" unicode="&#xf63e;" horiz-adv-x="540" 
d="M507 546h-84c-24 100 -104 100 -134 100c-147 0 -170 -150 -170 -259h2c41 56 107 74 171 74c128 0 226 -87 226 -235c0 -145 -89 -247 -241 -247c-155 0 -251 81 -251 362c0 375 202 380 264 380c40 0 188 -5 217 -175zM125 224c0 -87 49 -170 156 -170
c103 0 144 85 144 173c0 85 -47 159 -146 159c-100 0 -154 -66 -154 -162z" />
    <glyph glyph-name="uniF63F" unicode="&#xf63f;" horiz-adv-x="538" 
d="M89 79h79c15 76 36 151 72 235c43 100 110 214 195 307h-330v-131h-79v210h501v-64c-94 -104 -146 -196 -194 -314c-35 -84 -55 -156 -68 -243h73v-79h-249v79z" />
    <glyph glyph-name="uniF640" unicode="&#xf640;" horiz-adv-x="518" 
d="M151 379c-64 23 -101 87 -101 154c0 73 41 188 210 188s210 -115 210 -188c0 -67 -37 -131 -101 -154c80 -21 127 -100 127 -181c0 -120 -73 -219 -236 -219s-236 99 -236 219c0 81 47 160 127 181zM260 412c91 0 124 55 124 118c0 36 -15 116 -124 116
s-124 -80 -124 -116c0 -63 33 -118 124 -118zM260 54c67 0 146 44 146 149c0 58 -30 137 -146 137s-146 -79 -146 -137c0 -105 77 -149 146 -149z" />
    <glyph glyph-name="uniF641" unicode="&#xf641;" horiz-adv-x="539" 
d="M34 154h84c24 -100 105 -100 134 -100c147 0 170 149 170 259h-2c-41 -56 -107 -74 -171 -74c-128 0 -225 87 -225 235c0 145 88 247 240 247c120 0 251 -43 251 -362c0 -333 -155 -380 -264 -380c-40 0 -188 5 -217 175zM416 476c0 87 -49 170 -156 170
c-103 0 -146 -85 -146 -173c0 -86 48 -159 148 -159s154 66 154 162z" />
    <glyph glyph-name="uniF643" unicode="&#xf643;" 
d="M290 -20c-49 0 -245 7 -245 274c0 266 196 274 245 274s245 -8 245 -274s-196 -274 -245 -274zM290 55c103 0 152 74 152 199s-49 199 -152 199s-152 -74 -152 -199s49 -199 152 -199z" />
    <glyph glyph-name="uniF644" unicode="&#xf644;" 
d="M133 429v79h204v-429h110v-79h-314v79h110v350h-110z" />
    <glyph glyph-name="uniF645" unicode="&#xf645;" 
d="M536 187v-187h-491c-3 124 123 177 238 228c69 29 145 57 145 133c0 52 -43 92 -143 92c-113 0 -148 -75 -148 -132v-16h-90v15c0 139 114 208 242 208c132 0 232 -50 232 -166c0 -100 -80 -149 -203 -200c-72 -31 -131 -55 -146 -82h285v107h79z" />
    <glyph glyph-name="uniF646" unicode="&#xf646;" 
d="M45 21h90l3 -23c5 -33 22 -136 146 -136c145 0 157 104 157 148c0 77 -48 126 -128 126h-70v76h25c30 0 153 1 153 121c0 56 -28 121 -137 121c-32 0 -134 -4 -134 -159h-87c0 61 11 234 226 234c195 0 225 -136 225 -192c0 -77 -50 -136 -118 -155v-2
c71 -10 138 -71 138 -177c0 -137 -105 -216 -244 -216c-203 0 -242 141 -245 234z" />
    <glyph glyph-name="uniF647" unicode="&#xf647;" 
d="M113 79h240v306zM353 0h-330v79l329 429h95v-429h110v-79h-110v-192h-94v192z" />
    <glyph glyph-name="uniF648" unicode="&#xf648;" 
d="M424 430h-240l-28 -207c44 39 94 53 158 53c129 0 222 -90 222 -239c0 -140 -82 -249 -254 -249c-180 0 -228 120 -236 200h92c5 -46 33 -125 142 -125c47 0 163 9 163 173c0 124 -78 165 -154 165c-46 0 -111 -21 -135 -61h-88l49 369h388v-177h-79v98z" />
    <glyph glyph-name="uniF649" unicode="&#xf649;" 
d="M525 546h-84c-24 100 -104 100 -134 100c-147 0 -170 -150 -170 -259h2c41 56 107 74 171 74c128 0 226 -87 226 -235c0 -145 -89 -247 -241 -247c-155 0 -251 81 -251 362c0 375 202 380 264 380c40 0 188 -5 217 -175zM143 224c0 -87 49 -170 156 -170
c103 0 144 85 144 173c0 85 -47 159 -146 159c-100 0 -154 -66 -154 -162z" />
    <glyph glyph-name="uniF64A" unicode="&#xf64a;" 
d="M540 508v-64c-94 -104 -146 -196 -194 -314c-45 -109 -64 -196 -77 -322h-100c13 101 36 201 84 314c43 100 110 214 195 307h-330v-131h-79v210h501z" />
    <glyph glyph-name="uniF64B" unicode="&#xf64b;" 
d="M181 379c-64 23 -101 87 -101 154c0 73 41 188 210 188s210 -115 210 -188c0 -67 -37 -131 -101 -154c80 -21 127 -100 127 -181c0 -120 -73 -219 -236 -219s-236 99 -236 219c0 81 47 160 127 181zM290 412c91 0 124 55 124 118c0 36 -15 116 -124 116
s-124 -80 -124 -116c0 -63 33 -118 124 -118zM290 54c67 0 146 44 146 149c0 58 -30 137 -146 137s-146 -79 -146 -137c0 -105 77 -149 146 -149z" />
    <glyph glyph-name="uniF64C" unicode="&#xf64c;" 
d="M54 -38h84c24 -100 105 -100 134 -100c147 0 170 149 170 259h-2c-41 -56 -107 -74 -171 -74c-128 0 -225 87 -225 235c0 145 88 247 240 247c120 0 251 -43 251 -362c0 -333 -155 -380 -264 -380c-40 0 -188 5 -217 175zM436 284c0 87 -49 170 -156 170
c-103 0 -146 -85 -146 -173c0 -86 48 -159 148 -159s154 66 154 162z" />
    <glyph glyph-name="uniF6BA" unicode="&#xf6ba;" horiz-adv-x="371" 
d="M50 321v79h271v-79h-271z" />
    <glyph glyph-name="uniF6BB" unicode="&#xf6bb;" horiz-adv-x="600" 
d="M50 400h500v-79h-500v79z" />
    <glyph glyph-name="uniF6BC" unicode="&#xf6bc;" horiz-adv-x="984" 
d="M50 321v79h884v-79h-884z" />
    <glyph glyph-name="uniF6C3" unicode="&#xf6c3;" horiz-adv-x="199" 
d="M50 -60h99v-101c0 -71 -61 -91 -99 -99v55c28 3 50 21 50 44v11h-50v90z" />
    <glyph glyph-name="uniF6C9" unicode="&#xf6c9;" horiz-adv-x="322" 
d="M168 900h112l-102 -140h-84z" />
    <glyph glyph-name="uniF6CA" unicode="&#xf6ca;" horiz-adv-x="492" 
d="M317 760h-142l-125 140h94l102 -105l102 105h94z" />
    <glyph glyph-name="uniF6CB" unicode="&#xf6cb;" horiz-adv-x="410" 
d="M50 772v79h94v-79h-94zM266 772v79h94v-79h-94z" />
    <glyph glyph-name="uniF6CC" unicode="&#xf6cc;" horiz-adv-x="500" 
d="M60 782v79h94v-79h-94zM346 782v79h94v-79h-94zM239 900h112l-102 -140h-84z" />
    <glyph glyph-name="uniF6CE" unicode="&#xf6ce;" horiz-adv-x="323" 
d="M154 900l75 -140h-84l-103 140h112z" />
    <glyph glyph-name="uniF6CF" unicode="&#xf6cf;" horiz-adv-x="429" 
d="M120 900h106l-96 -140h-80zM273 900h106l-96 -140h-80z" />
    <glyph glyph-name="uniF6D0" unicode="&#xf6d0;" horiz-adv-x="416" 
d="M50 772v60h316v-60h-316z" />
    <glyph glyph-name="uniF6D1" unicode="&#xf6d1;" horiz-adv-x="466" 
d="M46 900h86c7 -41 33 -78 101 -78c67 0 94 37 101 78h86c-16 -108 -104 -140 -187 -140s-171 32 -187 140z" />
    <glyph glyph-name="uniF6D4" unicode="&#xf6d4;" horiz-adv-x="444" 
d="M222 623c53 0 89 26 96 77h78c-15 -84 -73 -134 -174 -134s-159 50 -174 134h78c7 -51 43 -77 96 -77z" />
    <glyph glyph-name="uniF6D7" unicode="&#xf6d7;" horiz-adv-x="500" 
d="M60 588v92h88v-92h-88zM352 588v92h88v-92h-88zM236 700h106l-96 -132h-80z" />
    <glyph glyph-name="uniF6DC" unicode="&#xf6dc;" horiz-adv-x="370" 
d="M25 621v79h214v-621h120v-79h-334v79h120v542h-120z" />
    <glyph glyph-name="uniF6DE" unicode="&#xf6de;" horiz-adv-x="738" 
d="M37 230v79h663v-79h-663z" />
    <glyph glyph-name="uniF730" unicode="&#xf730;" horiz-adv-x="562" 
d="M278 -20c-49 0 -245 7 -245 274c0 266 196 274 245 274s245 -8 245 -274s-196 -274 -245 -274zM278 55c103 0 152 74 152 199s-49 199 -152 199s-152 -74 -152 -199s49 -199 152 -199z" />
    <glyph glyph-name="uniF731" unicode="&#xf731;" horiz-adv-x="439" 
d="M71 429v79h204v-429h110v-79h-314v79h110v350h-110z" />
    <glyph glyph-name="uniF732" unicode="&#xf732;" horiz-adv-x="587" 
d="M537 187v-187h-491c-3 124 123 177 238 228c69 29 145 57 145 133c0 52 -43 92 -143 92c-113 0 -148 -75 -148 -132v-16h-90v15c0 139 114 208 242 208c132 0 232 -50 232 -166c0 -100 -80 -149 -203 -200c-72 -31 -131 -55 -146 -82h285v107h79z" />
    <glyph glyph-name="uniF733" unicode="&#xf733;" horiz-adv-x="570" 
d="M31 21h90l3 -23c5 -33 22 -136 146 -136c145 0 157 104 157 148c0 77 -48 126 -128 126h-70v76h25c30 0 153 1 153 121c0 56 -28 121 -137 121c-32 0 -134 -4 -134 -159h-87c0 61 11 234 226 234c195 0 225 -136 225 -192c0 -77 -50 -136 -118 -155v-2
c71 -10 138 -71 138 -177c0 -137 -105 -216 -244 -216c-203 0 -242 141 -245 234z" />
    <glyph glyph-name="uniF734" unicode="&#xf734;" horiz-adv-x="572" 
d="M113 79h240v306zM353 0h-330v79l329 429h95v-429h110v-79h-110v-192h-94v192z" />
    <glyph glyph-name="uniF735" unicode="&#xf735;" 
d="M424 430h-240l-28 -207c44 39 94 53 158 53c129 0 222 -90 222 -239c0 -140 -82 -249 -254 -249c-180 0 -228 120 -236 200h92c5 -46 33 -125 142 -125c47 0 163 9 163 173c0 124 -78 165 -154 165c-46 0 -111 -21 -135 -61h-88l49 369h388v-177h-79v98z" />
    <glyph glyph-name="uniF736" unicode="&#xf736;" 
d="M525 546h-84c-24 100 -104 100 -134 100c-147 0 -170 -150 -170 -259h2c41 56 107 74 171 74c128 0 226 -87 226 -235c0 -145 -89 -247 -241 -247c-155 0 -251 81 -251 362c0 375 202 380 264 380c40 0 188 -5 217 -175zM143 224c0 -87 49 -170 156 -170
c103 0 144 85 144 173c0 85 -47 159 -146 159c-100 0 -154 -66 -154 -162z" />
    <glyph glyph-name="uniF737" unicode="&#xf737;" horiz-adv-x="521" 
d="M522 508v-64c-94 -104 -146 -196 -194 -314c-45 -109 -64 -196 -77 -322h-100c13 101 36 201 84 314c43 100 110 214 195 307h-330v-131h-79v210h501z" />
    <glyph glyph-name="uniF738" unicode="&#xf738;" 
d="M181 379c-64 23 -101 87 -101 154c0 73 41 188 210 188s210 -115 210 -188c0 -67 -37 -131 -101 -154c80 -21 127 -100 127 -181c0 -120 -73 -219 -236 -219s-236 99 -236 219c0 81 47 160 127 181zM290 412c91 0 124 55 124 118c0 36 -15 116 -124 116
s-124 -80 -124 -116c0 -63 33 -118 124 -118zM290 54c67 0 146 44 146 149c0 58 -30 137 -146 137s-146 -79 -146 -137c0 -105 77 -149 146 -149z" />
    <glyph glyph-name="uniF739" unicode="&#xf739;" 
d="M54 -38h84c24 -100 105 -100 134 -100c147 0 170 149 170 259h-2c-41 -56 -107 -74 -171 -74c-128 0 -225 87 -225 235c0 145 88 247 240 247c120 0 251 -43 251 -362c0 -333 -155 -380 -264 -380c-40 0 -188 5 -217 175zM436 284c0 87 -49 170 -156 170
c-103 0 -146 -85 -146 -173c0 -86 48 -159 148 -159s154 66 154 162z" />
    <glyph glyph-name="afii10099.alt01" horiz-adv-x="588" 
d="M26 508h80v130h-66v62h154v-192h210v-54h-210v-147c40 64 100 91 167 91c150 0 187 -95 187 -296c0 -135 -35 -284 -230 -287v65h22c89 0 115 93 115 219c0 135 2 237 -118 237s-143 -111 -143 -179v-95h66v-62h-220v62h66v392h-80v54z" />
    <glyph glyph-name="afii10108.alt01" horiz-adv-x="626" 
d="M586 0h-154v181c0 59 4 155 -101 155c-43 0 -137 -21 -137 -189v-85h66v-62h-220v62h66v392h-80v54h80v130h-66v62h154v-192h210v-54h-210v-147c39 60 93 91 165 91c164 0 161 -148 161 -190v-146h66v-62z" />
    </font>
</defs>
</svg>
